<svg width="24" height="25" fill="none" xmlns="http://www.w3.org/2000/svg"><path fill-rule="evenodd" clip-rule="evenodd" d="M17.815 13.878c.223 1.074.443 2.146.663 3.218.214 1.04.427 2.078.643 3.118.037.178-.148.385-.334.311-1.544-.565-3.063-1.135-4.585-1.706l-1.425-.534a.625.625 0 01-.318-.23L5.07 9.152c-.067-.082-.082-.215-.06-.32.312-1.23.72-2.143 1.752-3.019 1.038-.875 2.018-1.135 3.286-1.23.156-.016.223.013.312.132l1.35 1.625a7140.34 7140.34 0 015.897 7.1.88.88 0 01.208.438zM6.175 9.04c.69-1.795 2.3-3.004 3.835-3.3l-.185-.224a4.242 4.242 0 00-3.85 3.272l.2.252zm.504.601c.727-1.758 2.107-2.945 3.851-3.27l.89 1.06c-1.536.304-3.049 1.521-3.836 3.301l-.905-1.09zm2.685-.163l3.926 4.72h-.002c.564.681-.014 2.655-.303 3.04l-4.89-5.89a6.12 6.12 0 011.27-1.87zm4.23 4.481L9.647 9.211c.69-.6 1.484-1.009 2.277-1.165l4.756 5.72c-.63.52-2.64.735-3.086.193zm.43.824c1.03.208 2.32-.067 2.93-.526l.43 2.091.35 1.692c-.37.156-.69.386-.913.764l-1.528-.564-1.885-.712c.52-.853.69-1.922.616-2.745z" fill="#fff"/></svg>