<svg width="24" height="25" fill="none" xmlns="http://www.w3.org/2000/svg"><path fill-rule="evenodd" clip-rule="evenodd" d="M19.537 14.276c.115-.52.176-1.06.176-1.614 0-4.155-3.415-7.524-7.63-7.524-.444 0-.88.038-1.304.11a4.444 4.444 0 00-2.354-.67C5.981 4.578 4 6.532 4 8.942c0 .805.222 1.56.608 2.207a7.428 7.428 0 00-.155 1.513c0 4.156 3.416 7.4 7.63 7.4.477 0 .944-.044 1.397-.126.623.33 1.335.642 2.092.642 2.444 0 4.425-1.953 4.425-4.364a4.3 4.3 0 00-.46-1.938zm-3.974 1.457c-.294.418-.725.747-1.293.984-.567.238-1.239.356-2.016.356-.933 0-1.702-.162-2.308-.486a2.985 2.985 0 01-1.047-.934c-.268-.39-.403-.768-.403-1.137 0-.213.08-.395.242-.547a.855.855 0 01.615-.229.76.76 0 01.512.178c.14.12.26.294.358.527.12.278.25.51.39.695.139.185.336.34.589.46.254.12.587.18 1 .18.566 0 1.027-.12 1.382-.364.354-.243.532-.547.532-.91a.919.919 0 00-.287-.702 1.882 1.882 0 00-.741-.412c-.4-.12-.806-.221-1.216-.303-.678-.146-1.247-.318-1.703-.513-.458-.196-.822-.463-1.09-.8-.269-.34-.403-.759-.403-1.26 0-.48.142-.904.426-1.275.283-.372.693-.658 1.23-.858.537-.2 1.17-.299 1.895-.299.58 0 1.082.066 1.505.198.423.133.774.31 1.053.528.28.22.484.45.612.691.13.24.194.477.194.705 0 .21-.08.4-.241.567a.8.8 0 01-.603.252c-.22 0-.386-.05-.5-.15a2.075 2.075 0 01-.37-.496 2.27 2.27 0 00-.618-.768c-.241-.184-.627-.276-1.16-.276-.494 0-.893.1-1.196.3-.303.2-.455.44-.455.72 0 .173.053.324.155.45.103.128.245.235.426.326.18.091.363.162.547.214.185.052.49.126.916.225.488.103.97.23 1.446.38.432.138.8.307 1.103.503.302.198.54.45.709.752.17.302.255.673.255 1.111 0 .525-.148.998-.442 1.417z" fill="#fff"/></svg>