<svg width="22" height="22" fill="none" xmlns="http://www.w3.org/2000/svg"><path d="M11.872 2.683c-.274-.844-1.468-.844-1.743 0L8.736 6.968a.917.917 0 01-.872.632H3.36c-.887 0-1.258 1.137-.54 1.66l3.646 2.647a.917.917 0 01.332 1.024l-1.391 4.285c-.275.844.692 1.547 1.41 1.025l3.644-2.648a.917.917 0 011.078 0l3.645 2.648c.718.522 1.685-.18 1.41-1.025l-1.392-4.285a.917.917 0 01.333-1.024l3.645-2.648c.718-.522.349-1.659-.54-1.659h-4.505a.917.917 0 01-.87-.632l-1.393-4.285z" stroke="#B8B8B8" stroke-width="2" stroke-linecap="round" stroke-linejoin="round"/></svg>