<svg width="24" height="25" fill="none" xmlns="http://www.w3.org/2000/svg"><path fill-rule="evenodd" clip-rule="evenodd" d="M18.434 16.152c-.484-.39-1.002-.743-1.51-1.102-1.017-.718-1.946-.773-2.704.38-.426.648-1.02.677-1.644.392-1.718-.782-3.044-1.989-3.82-3.743-.345-.777-.34-1.473.464-2.022.425-.29.854-.634.82-1.268-.045-.828-2.043-3.593-2.832-3.885a1.429 1.429 0 00-.984 0c-1.85.624-2.618 2.154-1.884 3.966 2.19 5.405 6.043 9.167 11.35 11.463.301.13.637.183.807.23 1.208.012 2.623-1.158 3.032-2.318.393-1.117-.437-1.56-1.095-2.093zM12.485 5.458c3.88.6 5.668 2.454 6.162 6.38.045.363-.09.91.426.92.538.01.408-.529.413-.89.045-3.7-3.163-7.128-6.888-7.254-.28.04-.863-.195-.9.438-.024.427.466.357.787.406z" fill="#fff"/><path fill-rule="evenodd" clip-rule="evenodd" d="M13.244 6.535c-.373-.045-.865-.222-.953.3-.09.545.458.49.811.57 2.395.537 3.23 1.413 3.624 3.801.057.35-.057.89.532.8.436-.066.278-.53.315-.802.02-2.293-1.936-4.38-4.329-4.669z" fill="#fff"/><path fill-rule="evenodd" clip-rule="evenodd" d="M13.464 8.41c-.25.006-.493.033-.585.3-.137.4.152.496.446.544.983.158 1.5.74 1.598 1.725.027.268.195.484.452.454.356-.043.389-.36.378-.664.017-1.106-1.227-2.385-2.29-2.359z" fill="#fff"/></svg>