<svg width="24" height="25" fill="none" xmlns="http://www.w3.org/2000/svg"><path fill-rule="evenodd" clip-rule="evenodd" d="M20 8.117a6.56 6.56 0 01-1.885.517 3.294 3.294 0 001.443-1.816 6.575 6.575 0 01-2.085.796 3.283 3.283 0 00-5.593 2.994 9.32 9.32 0 01-6.766-3.43A3.28 3.28 0 006.13 11.56a3.273 3.273 0 01-1.487-.41v.041a3.285 3.285 0 002.633 3.218c-.483.13-.99.15-1.482.056a3.286 3.286 0 003.066 2.28A6.586 6.586 0 014 18.102a9.29 9.29 0 005.032 1.476c6.038 0 9.34-5 9.34-9.337 0-.143-.004-.285-.01-.425A6.668 6.668 0 0020 8.117z" fill="#fff"/></svg>