<svg width="24" height="25" fill="none" xmlns="http://www.w3.org/2000/svg"><path fill-rule="evenodd" clip-rule="evenodd" d="M20 12.372c0 4.304-3.517 7.794-7.855 7.794a7.869 7.869 0 01-3.796-.97L4 20.578l1.418-4.182a7.714 7.714 0 01-1.127-4.024c-.001-4.305 3.516-7.794 7.854-7.794S20 8.068 20 12.372zM12.145 5.82c-3.641 0-6.603 2.94-6.603 6.553A6.48 6.48 0 006.8 16.214l-.825 2.433 2.537-.806a6.6 6.6 0 003.633 1.084c3.642 0 6.604-2.94 6.604-6.553S15.787 5.82 12.145 5.82zm3.967 8.348c-.049-.08-.177-.128-.37-.223-.192-.095-1.139-.558-1.315-.62-.177-.065-.305-.097-.434.094-.192.259-.396.509-.61.75-.112.127-.224.142-.416.047-.193-.096-.813-.297-1.549-.948a5.759 5.759 0 01-1.07-1.323c-.113-.19-.013-.295.084-.39.086-.086.192-.223.289-.334.096-.112.128-.19.192-.319.064-.128.032-.239-.016-.335-.048-.095-.433-1.035-.594-1.418-.16-.382-.32-.318-.433-.318-.112 0-.24-.016-.369-.016a.71.71 0 00-.513.24c-.177.19-.674.652-.674 1.592 0 .94.69 1.848.786 1.976.096.127 1.332 2.12 3.289 2.884 1.958.764 1.958.51 2.31.477.353-.03 1.14-.46 1.3-.908.16-.446.16-.829.113-.908z" fill="#fff"/></svg>