<svg width="106" height="106" viewBox="0 0 106 106" fill="none" xmlns="http://www.w3.org/2000/svg">
<g clip-path="url(#clip0_227_27779)">
<path d="M106.033 53.037C106.033 82.31 82.2992 106.049 53.0272 106.049C23.7522 106.049 0.0332031 82.311 0.0332031 53.037C0.0332031 23.767 23.7522 0.0460205 53.0272 0.0460205C82.2992 0.0460205 106.033 23.767 106.033 53.037Z" fill="#FDAC6B"/>
<path d="M31.0513 40.366C29.6433 40.366 28.3953 40.671 27.2743 41.274C26.6743 41.596 26.1353 41.987 25.6743 42.45L1.7583 66.367C6.2953 83.754 19.3213 97.666 36.3673 103.31L76.9063 62.771L82.3303 45.473C82.4223 45.1 82.4783 44.69 82.4783 44.229C82.4783 41.916 80.9633 40.758 77.9533 40.758H67.8673L67.1893 41.436L67.5253 40.405H64.7153L54.5573 50.548V49.234H49.8723L45.9603 53.147L53.0263 40.759H47.8303L30.9243 57.666H30.7073L35.0023 53.395C35.6063 52.791 36.0843 52.29 36.4223 51.897C36.9363 51.329 37.3463 50.653 37.6903 49.868C38.0243 49.087 38.2023 48.18 38.2023 47.151C38.2023 45.866 37.8973 44.71 37.2803 43.678C36.6733 42.643 35.8153 41.83 34.7333 41.24C33.6463 40.655 32.4163 40.366 31.0513 40.366Z" fill="#E3924F"/>
<path d="M31.0512 40.366C29.6432 40.366 28.3952 40.671 27.2742 41.274C26.1532 41.879 25.2842 42.717 24.6432 43.766C24.0222 44.834 23.7172 46.026 23.7172 47.342C23.7172 48.481 23.9472 49.514 24.4282 50.42C24.9082 51.328 25.6572 52.165 26.6742 52.933L30.0702 49.336C29.2522 48.695 28.8412 47.984 28.8412 47.219C28.8412 46.651 29.0382 46.19 29.4292 45.817C29.8202 45.422 30.2842 45.227 30.8352 45.227C31.4542 45.227 31.9542 45.422 32.3492 45.795C32.7422 46.17 32.9372 46.629 32.9372 47.182C32.9372 47.825 32.6322 48.465 32.0252 49.104L25.3862 56.171C24.1812 57.471 23.5732 58.698 23.5732 59.87C23.5732 61.808 24.6592 62.769 26.8312 62.769H38.5582V57.665H30.5852L34.0752 54.302C35.1222 53.269 35.9052 52.468 36.4212 51.896C36.9232 51.328 37.3452 50.652 37.6892 49.867C38.0232 49.086 38.2012 48.179 38.2012 47.15C38.2012 45.865 37.8962 44.709 37.2792 43.677C36.6722 42.642 35.8142 41.829 34.7322 41.239C33.6462 40.671 32.4162 40.366 31.0512 40.366ZM64.7172 40.405L56.7052 65.711H59.5042L67.5252 40.405H64.7172ZM47.8302 40.759L41.5272 52.11C41.0132 53.004 40.7612 53.895 40.7612 54.799C40.7612 55.885 41.1362 56.74 41.8822 57.381C42.6162 58.022 43.6282 58.346 44.9252 58.346H49.8722V62.772H54.5572V58.346H57.0632V53.362H54.5572V49.234H49.8722V53.522H45.7452L53.0262 40.759H47.8302ZM67.8672 40.759V45.779H76.8532L71.0502 62.771H76.9042L82.3292 45.474C82.4212 45.101 82.4762 44.691 82.4762 44.23C82.4762 41.917 80.9622 40.759 77.9522 40.759H67.8672Z" fill="white"/>
</g>
<defs>
<clipPath id="clip0_227_27779">
<rect width="106" height="106" fill="white"/>
</clipPath>
</defs>
</svg>
