<svg width="106" height="106" viewBox="0 0 106 106" fill="none" xmlns="http://www.w3.org/2000/svg">
<g clip-path="url(#clip0_227_27770)">
<path d="M105.943 52.972C105.943 82.245 82.2088 105.984 52.9348 105.984C23.6638 105.984 -0.0561523 82.246 -0.0561523 52.972C-0.0561523 23.704 23.6648 -0.0140381 52.9348 -0.0140381C82.2088 -0.0150381 105.943 23.704 105.943 52.972Z" fill="#4D9197"/>
<path d="M53.328 24.024C50.873 24.061 48.596 24.735 46.618 25.715C43.915 27.029 41.673 28.897 40.038 30.537L36.817 33.758H22.509C21.265 33.758 20.144 34.256 19.343 35.074L-0.000976562 54.414C0.767023 83.098 24.233 105.963 52.936 105.982C54.234 105.982 55.516 105.922 56.812 105.838L86.529 76.103C87.349 75.285 87.847 74.164 87.847 72.937V38.222C87.847 35.749 85.851 33.759 83.361 33.759H68.792C65.055 28.489 61.143 25.628 57.277 24.538C56.298 24.257 55.32 24.097 54.376 24.042C54.021 24.024 53.664 24.007 53.328 24.024Z" fill="#387378"/>
<path d="M53.3279 24.024C50.8729 24.061 48.5959 24.735 46.6179 25.715C41.6729 28.133 38.2919 32.315 37.2399 33.758H22.5099C20.0369 33.758 18.0449 35.748 18.0449 38.221V72.937C18.0449 75.411 20.0369 77.402 22.5099 77.402H83.3799C85.8539 77.402 87.8499 75.411 87.8499 72.937V38.222C87.8499 35.749 85.8539 33.759 83.3799 33.759H68.7909C65.0529 28.489 61.1409 25.628 57.2769 24.538C56.2979 24.257 55.3379 24.097 54.3749 24.042C54.0209 24.024 53.6639 24.007 53.3279 24.024ZM53.6109 27.937C54.4469 27.937 55.3199 28.066 56.2069 28.312C58.5209 28.972 61.1049 30.558 63.8219 33.759H42.4189C43.8759 32.228 45.9459 30.411 48.3439 29.241C49.9999 28.421 51.7429 27.907 53.6109 27.937ZM52.9359 40.446C61.1539 40.446 67.8309 47.12 67.8309 55.341C67.8309 63.563 61.1539 70.237 52.9359 70.237C44.7159 70.237 38.0599 63.561 38.0599 55.341C38.0599 47.121 44.7159 40.446 52.9359 40.446ZM50.0159 43.651V52.421H41.2429V58.261H50.0159V67.032H55.8709V58.261H64.6249V52.421H55.8709V43.651H50.0159Z" fill="white"/>
</g>
<defs>
<clipPath id="clip0_227_27770">
<rect width="106" height="106" fill="white"/>
</clipPath>
</defs>
</svg>
