<svg width="106" height="106" viewBox="0 0 106 106" fill="none" xmlns="http://www.w3.org/2000/svg">
<g clip-path="url(#clip0_227_27787)">
<path d="M106.096 53.008C106.096 82.279 82.3582 106.018 53.0922 106.018C23.8172 106.018 0.0961914 82.281 0.0961914 53.008C0.0961914 23.737 23.8172 0.019043 53.0922 0.019043C82.3572 0.019043 106.096 23.737 106.096 53.008Z" fill="#6E7CBC"/>
<path d="M40.0434 24.6101C39.7424 24.5901 39.4414 24.6451 39.1564 24.7661C38.9044 24.8581 38.6564 25.0371 38.4434 25.2501L34.7594 28.9321L33.0134 28.9501C30.2924 28.9871 30.0624 29.0051 29.1934 29.2881C28.1934 29.6281 27.3184 30.1791 26.5894 30.8921L0.276367 57.2071C2.47937 84.7541 25.4524 106 53.0904 106.018L79.6024 79.5041C80.4594 78.6471 81.0594 77.5471 81.4014 76.2311C81.4894 75.8751 81.4894 74.2681 81.5064 55.5741C81.5244 41.7841 81.5064 35.1281 81.4714 34.7551C81.1884 32.2651 79.3694 30.0421 77.0244 29.2901C76.0944 29.0071 75.9034 28.9891 73.1994 28.9521L70.6364 28.9151L68.3924 31.1591V26.3001L68.2514 25.9461C68.0544 25.4661 67.5224 24.9481 67.0584 24.7531C66.8274 24.6651 66.5424 24.6121 66.2554 24.6121C65.9724 24.6121 65.7044 24.6471 65.4894 24.7211C65.1714 24.8421 64.9014 25.0201 64.6764 25.2331L60.9514 28.9691H44.3704L42.1104 31.2111V30.1451C42.1224 26.4091 42.1224 26.3381 42.0014 26.0181C41.6814 25.1431 40.8974 24.6291 40.0284 24.6121L40.0434 24.6101Z" fill="#5C689E"/>
<path d="M40.0433 24.6101C39.7423 24.5901 39.4413 24.6451 39.1563 24.7661C38.6763 24.9461 38.1383 25.4651 37.9433 25.9441L37.8203 26.2981L37.8023 29.8591C37.7823 32.4591 37.8023 33.5251 37.8373 33.7571C38.0153 34.5231 38.5303 35.1261 39.2633 35.3921C39.7063 35.5521 40.4903 35.5011 40.9153 35.2871C41.3473 35.0921 41.7003 34.7361 41.9293 34.3081L42.1113 33.9531L42.1253 30.1461C42.1433 26.3901 42.1433 26.3371 42.0213 26.0171C41.7023 25.1421 40.9173 24.6281 40.0433 24.6101ZM66.2543 24.6101C65.9713 24.6101 65.7053 24.6451 65.4883 24.7191C64.8513 24.9631 64.4043 25.4101 64.1723 26.0161C64.0673 26.3361 64.0673 26.4281 64.0843 30.1451V33.9521L64.2643 34.2701C64.5283 34.8051 65.0493 35.2501 65.6373 35.4461C65.7053 35.4641 66.0103 35.4831 66.3113 35.4641C66.7373 35.4641 66.8793 35.4311 67.1663 35.2861C67.6273 35.0731 67.9823 34.7001 68.1953 34.2181L68.3903 33.8451V26.2981L68.2483 25.9441C68.0523 25.4651 67.5193 24.9461 67.0563 24.7511C66.8243 24.6631 66.5413 24.6101 66.2543 24.6101ZM35.5793 28.9131L33.0153 28.9501C30.2943 28.9871 30.0643 29.0051 29.1953 29.2881C26.7873 30.0891 25.0433 32.2081 24.7263 34.7001C24.6583 35.3431 24.6583 75.1441 24.7263 75.7301C24.9923 77.5451 25.9743 79.1661 27.4863 80.2511C28.2323 80.7841 29.3713 81.2301 30.3343 81.3721C30.5293 81.4071 40.6023 81.4251 53.3063 81.4071C74.2263 81.4071 75.9563 81.3881 76.3103 81.2961C78.9593 80.6431 80.7443 78.8611 81.4023 76.2311C81.4903 75.8741 81.4903 74.2681 81.5253 55.5731C81.5253 41.7831 81.5253 35.1271 81.4723 34.7541C81.1893 32.2641 79.3713 30.0411 77.0253 29.2891C76.0953 29.0061 75.9043 28.9881 73.1993 28.9511L70.6363 28.9141L70.5973 31.4451C70.5823 33.7931 70.5823 33.9881 70.4573 34.4141C70.2093 35.3441 69.6513 36.1761 68.9423 36.7461C68.5003 37.1001 67.6783 37.4921 67.1103 37.6211C66.5043 37.7441 65.5453 37.7071 64.9573 37.5311C63.7633 37.1561 62.8083 36.3181 62.2873 35.2151C61.8933 34.4141 61.8933 34.4491 61.8583 31.5671L61.8283 28.9691H44.3723L44.3353 31.5671C44.2983 34.1141 44.2983 34.2061 44.1773 34.5961C43.6953 36.0351 42.6483 37.0821 41.2383 37.5331C40.6133 37.7261 39.6403 37.7461 38.9783 37.5861C37.1973 37.1581 35.8633 35.6821 35.6363 33.8631C35.5973 33.5991 35.5793 32.3691 35.5793 31.1421V28.9131ZM29.0283 44.2541H77.1843L77.1643 59.7891C77.1463 74.5211 77.1463 75.3401 77.0413 75.5701C76.7913 76.2111 76.2913 76.7111 75.6723 76.9591C75.4203 77.0491 74.3363 77.0661 53.2483 77.0661C40.7413 77.0661 30.9713 77.0471 30.8293 77.0311C29.9583 76.8511 29.2413 76.1401 29.0853 75.2281C29.0463 75.0331 29.0283 69.7111 29.0283 59.5901V44.2541ZM34.0843 46.6391C32.7683 46.6391 31.6973 47.7051 31.6973 49.0221V57.0661C31.6973 58.3791 32.7673 59.4531 34.0843 59.4531H42.1253C43.4473 59.4531 44.5123 58.3811 44.5123 57.0661V49.0221C44.5123 47.7061 43.4483 46.6391 42.1253 46.6391H34.0843ZM48.8543 46.6391C47.5363 46.6391 46.4733 47.7051 46.4733 49.0221V57.0661C46.4733 58.3791 47.5363 59.4531 48.8543 59.4531H56.8983C58.2133 59.4531 59.2633 58.3811 59.2633 57.0661V49.0221C59.2633 47.7061 58.2133 46.6391 56.8983 46.6391H48.8543ZM63.7793 46.6391C62.4633 46.6391 61.3983 47.7051 61.3983 49.0221V57.0661C61.3983 58.3791 62.4613 59.4531 63.7793 59.4531H71.8263C73.1423 59.4531 74.2073 58.3811 74.2073 57.0661V49.0221C74.2073 47.7061 73.1433 46.6391 71.8263 46.6391H63.7793ZM34.0843 61.8521C32.7683 61.8521 31.6973 62.9201 31.6973 64.2351V72.2811C31.6973 73.5961 32.7673 74.6411 34.0843 74.6411H42.1253C43.4473 74.6411 44.5123 73.5961 44.5123 72.2811V64.2351C44.5123 62.9221 43.4483 61.8521 42.1253 61.8521H34.0843ZM48.8543 61.8521C47.5363 61.8521 46.4733 62.9201 46.4733 64.2351V72.2811C46.4733 73.5961 47.5363 74.6411 48.8543 74.6411H56.8983C58.2133 74.6411 59.2633 73.5961 59.2633 72.2811V64.2351C59.2633 62.9221 58.2133 61.8521 56.8983 61.8521H48.8543ZM63.7793 61.8521C62.4633 61.8521 61.3983 62.9201 61.3983 64.2351V72.2811C61.3983 73.5961 62.4613 74.6411 63.7793 74.6411H71.8263C73.1423 74.6411 74.2073 73.5961 74.2073 72.2811V64.2351C74.2073 62.9221 73.1433 61.8521 71.8263 61.8521H63.7793ZM71.5083 63.4711H71.7033L72.1643 63.7931C72.8053 64.2031 72.8223 64.2191 72.8913 64.3831C72.9653 64.5411 72.9493 64.7371 72.8623 64.8951C72.8243 64.9531 71.5963 66.7641 70.1373 68.9161C67.2523 73.1701 67.3753 72.9921 67.1123 73.0801C66.9853 73.1291 66.7583 73.1291 66.6103 73.0801C66.5613 73.0451 66.4513 73.0101 66.4033 72.9731C66.2563 72.9031 63.0903 69.7521 63.0003 69.5761C62.9143 69.4531 62.8963 69.2371 62.9693 69.0961C63.0003 68.9901 63.8573 68.1351 63.9803 68.0661C64.1093 67.9961 64.3533 67.9961 64.4823 68.0661C64.5193 68.0841 65.0333 68.5641 65.6013 69.1331L66.6523 70.1831L66.6873 70.1071C66.7053 70.0881 67.7193 68.6171 68.9103 66.8361C70.7093 64.1891 71.1173 63.6011 71.2053 63.5471C71.2913 63.4711 71.3303 63.4711 71.5083 63.4711Z" fill="white"/>
</g>
<defs>
<clipPath id="clip0_227_27787">
<rect width="106" height="106" fill="white"/>
</clipPath>
</defs>
</svg>
