<svg width="106" height="106" viewBox="0 0 106 106" fill="none" xmlns="http://www.w3.org/2000/svg">
<g clip-path="url(#clip0_227_27762)">
<path d="M106 53.098C106 82.373 82.281 106.111 53.008 106.111C23.738 106.111 0.00195312 82.374 0.00195312 53.098C0.00195312 23.827 23.738 0.108032 53.008 0.108032C82.281 0.107032 106 23.827 106 53.098Z" fill="#EB5D42"/>
<path d="M24.3061 42.377C23.0091 42.377 21.8551 42.713 20.8431 43.39C20.5051 43.623 20.1871 43.867 19.8861 44.17L0.996094 63.076C5.13309 84.627 22.1411 101.4 43.7601 105.236L86.7561 62.24C87.1471 61.849 87.4671 61.388 87.7331 60.859C88.1411 60.041 88.3381 59.133 88.3381 58.158C88.3381 57.181 88.1411 56.295 87.7331 55.478C87.3261 54.679 86.7741 54.021 86.0841 53.56C85.3921 53.082 84.6291 52.851 83.7951 52.851C82.9591 52.851 82.1961 53.083 81.4851 53.56C81.2371 53.717 81.0061 53.914 80.7931 54.127L76.8151 58.105L84.9811 42.802H82.3191L77.0841 48.038C77.0841 47.096 76.8691 46.229 76.4801 45.43C76.0721 44.612 75.5021 43.975 74.8121 43.512C74.1031 43.033 73.3381 42.803 72.5021 42.803C71.6891 42.803 70.9241 43.034 70.2311 43.512C69.9631 43.671 69.7331 43.866 69.5181 44.08L66.0571 47.56C65.7741 46.423 65.2421 45.374 64.4421 44.454C63.2701 43.066 61.8151 42.376 60.0761 42.376C58.7801 42.376 57.6271 42.712 56.6141 43.389C56.2761 43.622 55.9571 43.866 55.6551 44.169L42.0031 57.824L42.7121 56.328C43.4211 54.875 43.9541 53.631 44.2921 52.584C44.6281 51.52 44.8061 50.472 44.8061 49.425C44.8061 47.527 44.2021 45.874 42.9951 44.455C41.8061 43.067 40.3501 42.377 38.6121 42.377C37.3151 42.377 36.1611 42.713 35.1491 43.39C34.8111 43.623 34.4931 43.867 34.1881 44.17L30.3741 47.985C30.1441 46.672 29.5751 45.503 28.6881 44.455C27.4981 43.067 26.0441 42.377 24.3061 42.377Z" fill="#BF4C35"/>
<path d="M24.306 42.3771C23.009 42.3771 21.855 42.7131 20.843 43.3901C19.849 44.0441 19.068 44.9851 18.501 46.1761C17.948 47.3661 17.665 48.7161 17.665 50.2071C17.665 51.9101 18.073 53.3281 18.872 54.4631C19.671 55.5821 20.843 56.3281 22.37 56.7191L24.358 52.4961C23.629 52.4961 23.061 52.2661 22.653 51.8021C22.245 51.3431 22.049 50.7391 22.049 49.9931C22.049 49.4991 22.139 49.0341 22.332 48.6261C22.51 48.1981 22.777 47.8801 23.098 47.6471C23.434 47.4031 23.789 47.2951 24.18 47.2951C24.606 47.2951 24.961 47.4021 25.299 47.6111C25.617 47.8411 25.865 48.1461 26.043 48.5361C26.221 48.9301 26.311 49.3891 26.311 49.9021C26.311 50.4701 26.061 51.2881 25.53 52.3851L20.221 63.4481H24.996L28.402 56.3271C29.111 54.8741 29.646 53.6301 29.982 52.5831C30.318 51.5191 30.498 50.4711 30.498 49.4241C30.498 47.5261 29.894 45.8731 28.687 44.4541C27.498 43.0671 26.044 42.3771 24.306 42.3771ZM38.613 42.3771C37.316 42.3771 36.162 42.7131 35.15 43.3901C34.154 44.0441 33.373 44.9851 32.804 46.1761C32.253 47.3661 31.97 48.7161 31.97 50.2071C31.97 51.9101 32.378 53.3281 33.177 54.4631C33.976 55.5821 35.15 56.3281 36.677 56.7191L38.665 52.4961C37.936 52.4961 37.368 52.2661 36.96 51.8021C36.552 51.3431 36.356 50.7391 36.356 49.9931C36.356 49.4991 36.446 49.0341 36.639 48.6261C36.817 48.1981 37.084 47.8801 37.403 47.6471C37.741 47.4031 38.096 47.2951 38.487 47.2951C38.895 47.2951 39.268 47.4021 39.604 47.6111C39.924 47.8411 40.172 48.1461 40.35 48.5361C40.528 48.9301 40.616 49.3891 40.616 49.9021C40.616 50.4701 40.368 51.2881 39.837 52.3851L34.528 63.4481H39.303L42.711 56.3271C43.42 54.8741 43.953 53.6301 44.291 52.5831C44.627 51.5191 44.805 50.4711 44.805 49.4241C44.805 47.5261 44.201 45.8731 42.994 44.4541C41.806 43.0671 40.351 42.3771 38.613 42.3771ZM60.074 42.3771C58.779 42.3771 57.625 42.7131 56.613 43.3901C55.619 44.0441 54.838 44.9851 54.269 46.1761C53.717 47.3661 53.435 48.7161 53.435 50.2071C53.435 51.9101 53.843 53.3281 54.643 54.4631C55.442 55.5821 56.614 56.3281 58.122 56.7191L60.128 52.4961C59.401 52.4961 58.833 52.2661 58.425 51.8021C58.017 51.3431 57.821 50.7391 57.821 49.9931C57.821 49.4991 57.909 49.0341 58.087 48.6261C58.282 48.1981 58.548 47.8801 58.868 47.6471C59.188 47.4031 59.559 47.2951 59.952 47.2951C60.36 47.2951 60.731 47.4021 61.052 47.6111C61.39 47.8411 61.638 48.1461 61.816 48.5361C61.995 48.9301 62.083 49.3891 62.083 49.9021C62.083 50.4701 61.816 51.2881 61.302 52.3851L55.995 63.4481H60.769L64.177 56.3271C64.888 54.8741 65.402 53.6301 65.757 52.5831C66.095 51.5191 66.273 50.4711 66.273 49.4241C66.273 47.5261 65.669 45.8731 64.443 44.4541C63.27 43.0671 61.814 42.3771 60.074 42.3771ZM72.5 42.8031C71.686 42.8031 70.922 43.0341 70.23 43.5121C69.517 43.9751 68.967 44.6121 68.56 45.4301C68.168 46.2471 67.956 47.1331 67.956 48.0941C67.956 49.0711 68.169 49.9751 68.56 50.8121C68.967 51.6241 69.517 52.2651 70.23 52.7421C70.92 53.2071 71.685 53.4531 72.5 53.4531C73.336 53.4531 74.1 53.2071 74.809 52.7421C75.5 52.2651 76.069 51.6241 76.477 50.8121C76.887 49.9931 77.082 49.0861 77.082 48.0941C77.082 47.1331 76.887 46.2471 76.477 45.4301C76.069 44.6121 75.5 43.9751 74.809 43.5121C74.1 43.0341 73.336 42.8031 72.5 42.8031ZM82.318 42.8031L71.277 63.5041H73.939L84.98 42.8031H82.318ZM72.5 45.9991C72.855 45.9991 73.158 46.0901 73.424 46.2801C73.707 46.4641 73.922 46.7071 74.082 47.0441C74.24 47.3661 74.33 47.7021 74.33 48.0951C74.33 48.6991 74.152 49.1951 73.797 49.6031C73.442 50.0301 73.016 50.2241 72.5 50.2241C72.021 50.2241 71.596 50.0111 71.24 49.6031C70.885 49.1751 70.709 48.6811 70.709 48.0951C70.709 47.5081 70.885 47.0111 71.223 46.6201C71.578 46.2121 72.004 45.9991 72.5 45.9991ZM83.793 52.8521C82.957 52.8521 82.195 53.0841 81.484 53.5601C80.791 54.0211 80.242 54.6611 79.834 55.4781C79.426 56.2941 79.213 57.1811 79.213 58.1591C79.213 59.1361 79.426 60.0421 79.834 60.8591C80.242 61.6721 80.791 62.3331 81.484 62.8081C82.195 63.2711 82.957 63.5031 83.793 63.5031C84.627 63.5031 85.389 63.2711 86.082 62.8081C86.773 62.3311 87.324 61.6911 87.732 60.8591C88.14 60.0421 88.336 59.1341 88.336 58.1591C88.336 57.1841 88.14 56.2961 87.732 55.4781C87.324 54.6791 86.773 54.0211 86.082 53.5601C85.389 53.0841 84.627 52.8521 83.793 52.8521ZM83.793 56.0291C84.307 56.0291 84.732 56.2421 85.088 56.6501C85.424 57.0581 85.602 57.5721 85.602 58.1581C85.602 58.7441 85.424 59.2421 85.071 59.6501C84.717 60.0581 84.289 60.2541 83.795 60.2541C83.297 60.2541 82.871 60.0591 82.533 59.6501C82.178 59.2241 82 58.7441 82 58.1581C82 57.5721 82.16 57.0581 82.517 56.6501C82.85 56.2421 83.277 56.0291 83.793 56.0291ZM49.174 57.9281C48.465 57.9281 47.861 58.2111 47.381 58.7781C46.885 59.3461 46.654 60.0591 46.654 60.8911C46.654 61.7091 46.902 62.4011 47.381 62.9671C47.88 63.5351 48.483 63.8221 49.174 63.8221C49.885 63.8221 50.471 63.5351 50.969 62.9671C51.465 62.4011 51.713 61.7091 51.713 60.8911C51.713 60.3421 51.608 59.8461 51.377 59.3991C51.164 58.9421 50.861 58.5861 50.471 58.3361C50.098 58.0681 49.654 57.9281 49.174 57.9281Z" fill="white"/>
</g>
<defs>
<clipPath id="clip0_227_27762">
<rect width="106" height="106" fill="white"/>
</clipPath>
</defs>
</svg>
