<svg width="106" height="106" viewBox="0 0 106 106" fill="none" xmlns="http://www.w3.org/2000/svg">
<g clip-path="url(#clip0_227_27754)">
<path d="M106.096 53.008C106.096 82.281 82.3582 106.018 53.0902 106.018C23.8172 106.018 0.0961914 82.283 0.0961914 53.008C0.0961914 23.739 23.8172 0.019043 53.0902 0.019043C82.3572 0.019043 106.096 23.739 106.096 53.008Z" fill="#C1C667"/>
<path d="M38.5864 38.525C38.2134 38.525 37.8384 38.543 37.4474 38.561C33.9434 38.845 30.7754 40.695 28.2814 43.168L2.58838 68.883C7.76438 85.414 20.7214 98.385 37.2704 103.582L78.1804 62.674C80.6684 60.182 82.5414 56.924 82.5414 53.278C82.5414 49.542 80.5624 46.211 77.9674 43.706C75.3484 41.195 72.0394 39.359 68.4654 39.095C64.4064 38.79 60.9164 40.609 58.1254 43.008C57.6464 43.438 57.1804 43.865 56.7344 44.308L52.8384 48.206C51.3074 46.193 49.7214 44.238 47.8914 42.6C45.4524 40.412 42.4264 38.704 38.9574 38.543C38.8344 38.525 38.7094 38.525 38.5864 38.525Z" fill="#A8AD51"/>
<path d="M38.9593 38.542C38.4613 38.524 37.9613 38.524 37.4473 38.561C33.7793 38.865 30.4883 40.858 27.9633 43.51C25.4343 46.161 23.5843 49.592 23.6563 53.33C23.7243 56.978 25.6483 60.199 28.1933 62.654C30.7363 65.092 33.9743 66.869 37.4643 67.121C41.5253 67.406 45.0073 65.609 47.8043 63.189C49.7223 61.535 51.3823 59.558 52.9603 57.547C54.5273 59.592 56.1483 61.603 58.0203 63.31C60.7923 65.822 64.3193 67.744 68.4273 67.474C72.0223 67.244 75.3643 65.412 77.9663 62.883C80.5633 60.359 82.5403 57.029 82.5403 53.276C82.5403 49.54 80.5613 46.209 77.9663 43.704C75.3483 41.193 72.0383 39.357 68.4643 39.093C64.4043 38.788 60.9153 40.607 58.1243 43.006C56.2553 44.627 54.6393 46.552 53.0693 48.505C51.4673 46.388 49.8113 44.322 47.8913 42.598C45.4533 40.412 42.4283 38.703 38.9593 38.542ZM37.8933 44.059C40.1903 43.884 42.0553 44.788 44.2073 46.71C45.9493 48.275 47.7323 50.552 49.5273 52.996C47.7323 55.305 45.9493 57.494 44.1933 59.008C42.0373 60.875 40.1343 61.781 37.8753 61.623C36.1133 61.498 33.7663 60.359 32.0213 58.67C30.2753 56.979 29.1933 54.844 29.1733 53.221C29.1363 51.496 30.1833 49.166 31.9463 47.314C33.7093 45.463 36.0963 44.219 37.8933 44.059ZM68.0533 44.594C69.8873 44.736 72.3243 45.909 74.1233 47.671C75.9343 49.414 77.0233 51.623 77.0233 53.277C77.0233 54.947 75.9333 57.175 74.1233 58.916C72.3223 60.68 69.8873 61.855 68.0703 61.959C65.7933 62.117 63.8713 61.176 61.7173 59.221C60.0083 57.658 58.2633 55.43 56.5063 53.063C58.2633 50.805 60.0083 48.667 61.7353 47.192C63.8913 45.324 65.7933 44.434 68.0533 44.594Z" fill="white"/>
</g>
<defs>
<clipPath id="clip0_227_27754">
<rect width="106" height="106" fill="white"/>
</clipPath>
</defs>
</svg>
