<svg width="106" height="106" viewBox="0 0 106 106" fill="none" xmlns="http://www.w3.org/2000/svg">
<g clip-path="url(#clip0_227_27795)">
<path d="M106.039 53.0569C106.039 82.3279 82.301 106.066 53.033 106.066C23.762 106.066 0.0410156 82.3289 0.0410156 53.0569C0.0410156 23.7809 23.762 0.0649414 53.033 0.0649414C82.301 0.0639414 106.039 23.7799 106.039 53.0569Z" fill="#E64475"/>
<path d="M53.0532 25.172C49.5282 25.172 46.0202 25.243 45.4152 25.403C44.1852 25.724 43.1042 26.347 42.1242 27.325C42.0872 27.343 42.0562 27.375 42.0202 27.415L2.03418 67.412C7.81918 87.951 25.3622 103.006 46.5382 105.621L72.3942 79.762C72.7302 79.428 73.0132 79.074 73.2082 78.682L73.5672 78.004L73.6002 73.75L73.6552 69.498L71.8602 71.295L71.4692 71.492H68.9592L72.4302 68.021C72.7852 67.666 73.0862 67.275 73.2462 66.881C73.5682 66.205 73.5682 66.08 73.6002 61.988C73.6212 58.801 73.6212 58.018 73.4962 58.121L72.1952 59.424C72.0682 59.496 71.9292 59.57 71.8042 59.605C71.6952 59.623 70.5922 59.654 69.0802 59.674L72.3932 56.363C72.7662 55.99 73.0672 55.561 73.2802 55.094C73.5502 54.508 73.5672 54.262 73.5982 50.295L73.6372 46.114L71.9282 47.821C71.8582 47.857 71.7842 47.872 71.7142 47.893C71.5892 47.928 70.3412 47.946 68.6902 47.982L71.6632 45.009C71.9992 44.671 72.1062 44.258 72.1062 43.55L72.0852 42.66L68.4542 35.418C64.8592 28.246 64.8082 28.157 63.9352 27.303C62.9562 26.359 61.8532 25.702 60.6592 25.382C60.0802 25.244 56.5552 25.172 53.0532 25.172Z" fill="#BF456A"/>
<path d="M35.5062 80.869C34.3852 80.527 33.3892 79.676 32.8202 78.609C32.5152 78.021 32.5152 77.933 32.4632 73.75L32.4282 69.498L32.7502 70.103C32.9962 70.566 33.2292 70.779 33.8342 71.099L34.6152 71.492H71.4682L72.2352 71.099C72.8562 70.779 73.0872 70.566 73.3392 70.103L73.6552 69.498L73.6002 73.75L73.5692 78.004L73.2112 78.682C72.7872 79.463 72.0562 80.194 71.2352 80.621L70.6492 80.941L53.2302 80.959C43.6532 80.977 35.6842 80.941 35.5062 80.869ZM70.5082 77.523C71.0042 77.131 71.1472 76.687 70.9692 76.135C70.7232 75.369 70.4712 75.281 68.4462 75.281H66.6102L66.2722 75.688C65.7032 76.365 65.8972 77.379 66.6452 77.676C66.8052 77.733 67.6432 77.787 68.5332 77.805C69.9882 77.809 70.1842 77.791 70.5082 77.523ZM35.4892 69.121C34.3112 68.805 33.3352 67.969 32.8212 66.842C32.5162 66.207 32.5012 66.047 32.4812 61.99C32.4462 58.394 32.4812 57.861 32.6242 58.217C32.8742 58.77 33.6552 59.426 34.2652 59.606C34.9742 59.801 71.1072 59.801 71.8072 59.606C72.4132 59.426 73.2102 58.77 73.4602 58.217C73.6022 57.862 73.6202 58.395 73.6022 61.99C73.5712 66.082 73.5712 66.207 73.2482 66.883C72.8942 67.684 72.0202 68.551 71.1292 68.944L70.5102 69.233L53.2992 69.268C39.9872 69.285 35.9712 69.25 35.4892 69.121ZM70.3132 65.939C70.4892 65.849 70.7542 65.566 70.8812 65.281C71.1272 64.801 71.1272 64.76 70.8812 64.285C70.7542 64.014 70.4882 63.715 70.3132 63.621C69.9012 63.426 67.3192 63.394 66.7502 63.609C66.2562 63.769 65.9372 64.25 65.9372 64.799C65.9372 65.328 66.1132 65.67 66.5542 65.9C67.0362 66.171 69.8312 66.189 70.3142 65.957L70.3132 65.939ZM35.1682 57.326C34.5082 57.078 33.7422 56.508 33.2812 55.904C32.5152 54.883 32.4452 54.425 32.4452 50.049V46.117L32.7132 46.614C33.0332 47.219 33.6542 47.697 34.3672 47.896C35.1152 48.109 70.9492 48.109 71.6952 47.896C72.4122 47.696 73.0292 47.22 73.3732 46.614L73.6192 46.117L73.5992 50.298C73.5682 54.266 73.5492 54.511 73.2812 55.098C72.8902 55.94 72.1792 56.686 71.4142 57.077L70.7732 57.415L53.1722 57.434C40.9832 57.452 35.4322 57.415 35.1672 57.311L35.1682 57.326ZM70.0802 54.285C70.6852 54.125 71.0212 53.644 71.0212 52.987C71.0212 52.626 70.9292 52.43 70.5922 52.133L70.1522 51.74L68.3532 51.793C66.5902 51.828 66.5702 51.828 66.2522 52.203C65.8192 52.701 65.8192 53.359 66.2712 53.874C66.4492 54.087 66.7362 54.302 66.8962 54.333C67.4962 54.445 69.5962 54.41 70.0802 54.285ZM35.5062 45.637C34.8152 45.441 34.2072 44.924 34.0292 44.372C33.6932 43.337 33.8342 43.002 37.6232 35.404C41.1972 28.286 41.2522 28.179 42.1232 27.307C43.1032 26.346 44.1842 25.723 45.4142 25.402C46.6092 25.082 59.4942 25.082 60.6622 25.385C61.8572 25.705 62.9762 26.345 63.9572 27.306C64.8322 28.16 64.8632 28.249 68.4572 35.421L72.0882 42.663L72.1082 43.553C72.1272 44.586 71.8772 44.994 71.0432 45.44C70.5262 45.725 70.4372 45.725 53.2502 45.742C42.0382 45.761 35.8072 45.708 35.5062 45.637Z" fill="white"/>
</g>
<defs>
<clipPath id="clip0_227_27795">
<rect width="106" height="106" fill="white"/>
</clipPath>
</defs>
</svg>
