<svg width="106" height="106" fill="none" xmlns="http://www.w3.org/2000/svg"><g clip-path="url(#clip0_227_28333)"><path d="M106.096 53.008c0 29.273-23.738 53.01-53.006 53.01-29.273 0-52.994-23.735-52.994-53.01C.096 23.739 23.816.019 53.09.019c29.267 0 53.006 23.72 53.006 52.989z" fill="#C1C667"/><path d="M38.586 38.525c-.373 0-.748.018-1.14.036-3.503.284-6.671 2.134-9.165 4.607L2.588 68.883a52.978 52.978 0 0034.682 34.699l40.91-40.908c2.488-2.492 4.36-5.75 4.36-9.396 0-3.736-1.978-7.067-4.573-9.572-2.62-2.511-5.928-4.347-9.502-4.611-4.06-.305-7.55 1.514-10.34 3.913-.48.43-.945.857-1.391 1.3l-3.896 3.898c-1.531-2.013-3.117-3.968-4.947-5.606-2.44-2.188-5.465-3.896-8.934-4.057-.123-.018-.248-.018-.371-.018z" fill="#A8AD51"/><path d="M38.958 38.542a13.919 13.919 0 00-1.512.019c-3.668.304-6.959 2.297-9.484 4.949-2.529 2.651-4.379 6.082-4.307 9.82.068 3.648 1.992 6.869 4.537 9.324 2.543 2.438 5.781 4.215 9.271 4.467 4.061.285 7.543-1.512 10.34-3.932 1.918-1.654 3.578-3.631 5.156-5.642 1.567 2.045 3.188 4.056 5.06 5.763 2.772 2.512 6.3 4.434 10.407 4.164 3.595-.23 6.937-2.062 9.54-4.591 2.596-2.524 4.573-5.854 4.573-9.607 0-3.736-1.979-7.067-4.574-9.572-2.618-2.511-5.928-4.347-9.502-4.611-4.06-.305-7.549 1.514-10.34 3.913-1.869 1.621-3.485 3.546-5.055 5.499-1.602-2.117-3.258-4.183-5.178-5.907-2.438-2.186-5.463-3.895-8.932-4.056zm-1.066 5.517c2.297-.175 4.162.729 6.314 2.651 1.742 1.565 3.525 3.842 5.32 6.286-1.795 2.309-3.578 4.498-5.334 6.012-2.156 1.867-4.059 2.773-6.318 2.615-1.762-.125-4.109-1.264-5.854-2.953-1.746-1.691-2.828-3.826-2.848-5.449-.037-1.725 1.01-4.055 2.773-5.907 1.763-1.851 4.15-3.095 5.947-3.255zm30.16.535c1.834.142 4.271 1.315 6.07 3.077 1.811 1.743 2.9 3.952 2.9 5.606 0 1.67-1.09 3.898-2.9 5.639-1.8 1.764-4.236 2.939-6.053 3.043-2.277.158-4.199-.783-6.353-2.738-1.709-1.563-3.454-3.791-5.21-6.158 1.756-2.258 3.501-4.396 5.228-5.871 2.156-1.868 4.058-2.758 6.318-2.598z" fill="#fff"/></g><defs><clipPath id="clip0_227_28333"><path fill="#fff" d="M0 0h106v106H0z"/></clipPath></defs></svg>