<svg width="106" height="106" fill="none" xmlns="http://www.w3.org/2000/svg"><g clip-path="url(#clip0_227_28349)"><path d="M53.049.175c29.27 0 53 23.729 53 53s-23.73 53-53 53c-29.272 0-53-23.729-53-53-.001-29.271 23.728-53 53-53z" fill="#45ADB7"/><path d="M67.137 24.57l7.197 28.582 2.852 14.116-37.268 37.268a52.826 52.826 0 01-20.88-10.715l-6.636-6.635A52.911 52.911 0 013.164 71.11l47.768-47.767 16.205 1.227z" fill="#3A9DA7"/><path d="M69.035 24.89c-1.725-3.572-6.475-3.43-14.141-2.777-7.67.67-6.011 8.781-4.681 9.498 2.938 1.572 7.522.246 7.522.246s-.354.619-1.695.959c-1.371.367-2.607-.021-2.891.102-.276.129-.411 1.605 2.614 2.506 3.813 1.137 8.52-2.199 8.52-2.199s-.288 7.943-1.858 12.969c-1.13 3.572-1.396 5.208-1.438 5.851-1.786-1.678-4.395-2.762-7.303-2.762-2.825 0-5.36 1.006-7.126 2.59-1.986-3.461-7.473-5.949-13.916-5.949-1.742 0-3.43.189-4.961.518v33.583c.377.084.77.135 1.182.135 3.908 0 7.227-4.219 8.375-10.068 2.66 3.385 8.28 5.504 14.777 5.504 4.204 0 8.239-1.207 11.132-2.801 5.353-1.166 15.438-3.666 15.802-9.145.508-6.995-8.19-35.188-9.914-38.76z" fill="#fff"/></g><defs><clipPath id="clip0_227_28349"><path fill="#fff" d="M0 0h106v106H0z"/></clipPath></defs></svg>