<svg width="107" height="106" fill="none" xmlns="http://www.w3.org/2000/svg"><g clip-path="url(#clip0_1_6303)" fill-rule="evenodd" clip-rule="evenodd"><path d="M53.431.154c29.272 0 53 23.729 53 53 0 29.273-23.729 53-53 53-29.27 0-53-23.727-53-53 0-29.271 23.73-53 53-53z" fill="#E68538"/><path d="M76.066 20.885L67.59 33.443l-1.623 5.822 7.64 1.363-7.87 7.92 8.69 6.729-3.177 3.277 3.154 9.289-4.217 4.184 2.756 9.254-24.625 24.627-.357-.033c-21.87-2.242-39.795-17.78-45.57-38.396L50 19.869l26.065 1.016z" fill="#D4772B"/><path d="M56.852 30.373c-.502-.131-.777-.291-.822-.475-.057-.17 0-.41.166-.684.195-.336.48-.602.84-.781a3.068 3.068 0 011.135-.32l-1.32 2.26zm.228 4.436c-.23.4-.537.697-.92.887a3.232 3.232 0 01-1.227.342l1.434-2.473c.45.092.719.252.838.45.104.212.065.469-.125.794zm4.02-9.245l1.297-2.236h-1.582l-1.307 2.266c-1.531.139-2.891.549-4.096 1.229-1.2.674-2.084 1.5-2.643 2.467-.377.666-.6 1.205-.64 1.627-.038.428.034.78.218 1.084.178.314.457.549.805.72.35.177.737.325 1.159.45l.75.205-1.56 2.686a6.812 6.812 0 01-2.16-.441c-.645-.262-1.072-.49-1.266-.695h-.303l-1.627 2.803c.342.256.9.46 1.66.633.748.172 1.473.258 2.164.264l-1.307 2.248h1.598l1.325-2.3a8.226 8.226 0 002.227-.417 9.837 9.837 0 002.014-.912 8.664 8.664 0 001.668-1.268c.51-.48.926-.994 1.24-1.535.6-1.053.748-1.857.434-2.41-.338-.561-1.08-.988-2.25-1.28l-.748-.188 1.428-2.455c.703.037 1.279.145 1.734.314.459.16.846.395 1.148.68h.303l1.615-2.78c-.291-.171-.775-.341-1.443-.485a9.842 9.842 0 00-1.855-.274zm3.796 15.77c0 .463.016.867.05 1.199h-22.18a12.496 12.496 0 01-.017-.73c0-2.158.387-6.332 2.87-10.955a122.952 122.952 0 015.437-9.152H73.91c-1.37 1.924-3.818 5.465-6.027 9.22-2.502 4.252-2.987 8.09-2.987 10.418zm2.112 21.215a2.367 2.367 0 01-2.375 2.365 2.372 2.372 0 01-2.375-2.365 2.375 2.375 0 014.75 0zm-2.563-6.992h9.895v1.854h-9.895c-3.678 0-6.457 2.475-6.463 5.139.006 2.68 2.785 5.14 6.463 5.14h9.895v1.855h-9.895c-4.453-.018-8.285-2.996-8.318-6.994.035-4.008 3.863-6.994 8.318-6.994zm12.018-34.233a.929.929 0 00.09-.971.942.942 0 00-.834-.514H50.566a.928.928 0 00-.777.418c-.016.01-2.848 4.21-5.793 9.709a25.904 25.904 0 00-2.795 8.199h-5.814c-2.93 0-5.322 2.393-5.322 5.32v34.102c0 2.928 2.393 5.326 5.322 5.326h33.637c2.928 0 5.316-2.398 5.316-5.326V45.97H37.8c-2.045 0-3.707-1.113-3.707-2.477.002-1.371 1.662-2.484 3.707-2.484h3.117c-.023.279-.023.553-.023.793 0 1.107.102 1.758.102 1.799.07.457.447.793.92.793h24.083a.961.961 0 00.725-.344.946.946 0 00.178-.773c0-.012-.154-.691-.154-1.943 0-.102.012-.23.016-.324h6.938c-.9-1.686-2.648-2.844-4.676-2.844h-1.957c.354-1.82 1.049-3.99 2.408-6.303 3.222-5.481 6.986-10.518 6.986-10.54z" fill="#fff"/></g><defs><clipPath id="clip0_1_6303"><path fill="#fff" transform="translate(.5)" d="M0 0h106v106H0z"/></clipPath></defs></svg>