<svg width="106" height="106" fill="none" xmlns="http://www.w3.org/2000/svg"><g clip-path="url(#clip0_1_6289)"><path d="M53.12.132c29.27 0 52.999 23.729 52.999 53 0 29.27-23.729 53-53 53-29.27 0-53-23.73-53-53 0-29.271 23.73-53 53-53z" fill="#94B432"/><path d="M51.154 47.626l11.116 1.117 11.168-11.24 9.545 6.634-5.086 5.512 9.48 4.676 3.226 13.856-37.943 37.943C26.34 105.9 4.594 86.495.73 61.202l-.037-.252L24.83 36.814l8.457 7.699-4.963 4.717 10.988 3.598 5.938-4.926 5.238-2.762.666 2.486z" fill="#84A12D"/><path d="M32.488 47.825h-7.406a8.687 8.687 0 00-8.695 8.692V68.1h5.098V56.085h1.758v12.017H34.18V56.085h1.762v12.017h5.238V56.52a8.692 8.692 0 00-8.69-8.695zm29.053 12.409l-5.17 3.619c-.938.646-1.676.246-1.676-.862v-1.51h-8.398c-.9 0-1.586-.712-1.586-1.587V58.22c0-.872.686-1.596 1.586-1.596h8.398v-1.488c0-1.12.738-1.512 1.676-.866l5.17 3.623c.912.643.912 1.69 0 2.34zm-16.156-12.45l5.176-3.63c.912-.642 1.674-.261 1.674.87v1.504h8.404c.867 0 1.6.713 1.6 1.592v1.68c0 .869-.73 1.582-1.602 1.582h-8.402v1.498c0 1.125-.762 1.513-1.674.875l-5.176-3.63c-.908-.65-.91-1.7 0-2.341zm36.46.04h-7.423c-4.795 0-8.676 3.888-8.676 8.693V68.1h5.088V56.085h1.768v12.017h10.931V56.085h1.754v12.017h5.243V56.52a8.687 8.687 0 00-8.686-8.695zm-3.704-1.18c3.178 0 5.762-2.576 5.762-5.75a5.76 5.76 0 00-5.762-5.754c-3.186 0-5.77 2.577-5.77 5.754 0 3.173 2.584 5.75 5.77 5.75zm-49.346 0c3.17 0 5.75-2.576 5.75-5.75 0-3.18-2.58-5.754-5.75-5.754a5.76 5.76 0 00-5.766 5.754c0 3.173 2.58 5.75 5.766 5.75z" fill="#fff"/></g><defs><clipPath id="clip0_1_6289"><path fill="#fff" d="M0 0h106v106H0z"/></clipPath></defs></svg>