<svg width="106" height="106" fill="none" xmlns="http://www.w3.org/2000/svg"><g clip-path="url(#clip0_1_6536)"><path d="M53.168.064c29.273 0 53 23.729 53 53s-23.727 53-53 53c-29.27 0-53-23.729-53-53s23.73-53 53-53z" fill="#E5B615"/><path d="M84.633 71.945l-32.5 34.104C25.44 105.538 3.584 85.296.535 59.299l21.861-23.858L35.357 22.74l9.891 1.84 12.113-3.488 16.79 7.875 8.06 9.342 3.516 15.025-1.094 18.61z" fill="#CBA213"/><path d="M37.628 50.554c-.78 5.45-.22 10.901 2.537 16.35l2.699.006c-1.695-6.139-2.713-11.453-2.36-16.254-1.017-.002-1.97-.066-2.878-.1l.002-.002zm17.188-32.419l7.26 3.852 8.275.318a2.65 2.65 0 012.233 1.37l4.27 6.817 7.034 4.432a2.665 2.665 0 011.244 2.27l.289 8.074 3.875 7.352a2.657 2.657 0 010 2.483l-3.852 7.26-.318 8.275a2.655 2.655 0 01-1.37 2.233l-6.817 4.271-4.43 7.032a2.658 2.658 0 01-2.271 1.244l-8.073.29-7.351 3.876a2.663 2.663 0 01-2.482 0l-7.261-3.853-8.273-.317a2.653 2.653 0 01-2.234-1.37l-4.271-6.818-7.033-4.43a2.656 2.656 0 01-1.244-2.272l-.29-8.075L17.85 55.1a2.666 2.666 0 010-2.482l3.852-7.262.318-8.273a2.65 2.65 0 011.37-2.234l6.819-4.273 4.43-7.033a2.663 2.663 0 012.27-1.242l8.075-.29 7.349-3.876a2.656 2.656 0 012.483 0zm5.3 8.844l-6.544-3.473-6.637 3.498V27a2.632 2.632 0 01-1.146.305l-7.393.266-4 6.348-.004-.004c-.205.33-.49.62-.84.838l-6.27 3.928L27 46.033c.008.434-.092.873-.307 1.283l-3.473 6.547 3.498 6.635h-.002c.182.344.289.732.305 1.146l.266 7.393 6.346 4-.002.004c.33.205.617.49.836.842l3.93 6.268 7.354.283c.432-.008.873.092 1.283.308l6.547 3.473 6.633-3.498.002.002a2.67 2.67 0 011.146-.305l7.394-.267 4-6.346.004.002a2.6 2.6 0 01.84-.836l6.27-3.928.282-7.355a2.677 2.677 0 01.307-1.283l3.473-6.545-3.5-6.636.004-.002a2.625 2.625 0 01-.305-1.146l-.266-7.392-6.348-3.998.004-.004a2.633 2.633 0 01-.838-.842l-3.927-6.27-7.356-.28a2.684 2.684 0 01-1.283-.307zM47.4 66.936c7.018.05 16.096.158 17.538.351.138-.006 1.213-.06 1.519-1.76.319-1.77-1.35-2.374-1.414-2.402a.476.476 0 01-.328-.52.477.477 0 01.47-.405c.07-.014 1.813-.076 2.108-1.717.293-1.627-1.297-2.312-1.373-2.342a.478.478 0 01-.291-.537.486.486 0 01.48-.392c.08.004 1.81.021 2.114-1.685.307-1.698-1.324-2.317-1.395-2.343a.493.493 0 01-.311-.536.49.49 0 01.465-.41c.078-.004 1.803-.072 2.102-1.736.316-1.766-.71-2.145-1.164-2.229-.096-.016-.182-.018-.268-.027l-8.672-.168a.483.483 0 01-.461-.383.478.478 0 01.272-.545c.02-.006 2.05-.975 2.89-5.636.66-3.688-.711-5.627-2.36-5.922a2.301 2.301 0 00-1.062.053c-.381.107-.45.46-.586 1.502-.282 2.184-.756 5.843-7.084 10.242-2.088 1.45-3.961 2.273-5.668 2.73-.654 4.604.858 10.43 2.479 16.817zM40.832 46.41c5.088-.227 9.21-2.227 11.83-7.007.567-1.055.675-1.906.8-2.803.099-.705.183-1.412.479-2.176.576-1.426 1.69-2.443 3.145-2.865a6.598 6.598 0 012.988-.152c2.133.383 3.955 1.773 5.008 3.818.994 1.922 1.27 4.363.787 7.041a24.574 24.574 0 01-.371 1.687l2.24.05c.313.003.63.028.936.083 2.832.508 5.316 3.137 4.594 7.166a6.285 6.285 0 01-.934 2.39 6.34 6.34 0 01.076 2.641 6.166 6.166 0 01-.98 2.436 6.27 6.27 0 01.042 2.515 6.187 6.187 0 01-.91 2.324 6.44 6.44 0 01.084 2.723c-.361 2.012-1.412 3.6-2.98 4.494-1.016.596-2.24.87-3.283.725-2.113-.184-9.625-.338-24.71-.346a3.585 3.585 0 01-.67-.058l.003-.002a3.792 3.792 0 01-2.014-1.05c-3.355-3.423-4.104-15.37-3.6-20.017a3.83 3.83 0 011.168-2.705 3.792 3.792 0 012.76-1.023l3.512.111z" fill="#fff"/></g><defs><clipPath id="clip0_1_6536"><path fill="#fff" d="M0 0h106v106H0z"/></clipPath></defs></svg>