<svg width="107" height="106" fill="none" xmlns="http://www.w3.org/2000/svg"><g clip-path="url(#clip0_101_13345)"><path d="M106.516 53.076c0 29.271-23.72 53.01-52.992 53.01-29.268 0-53.006-23.738-53.006-53.01C.518 23.797 24.256.082 53.524.082c29.273.001 52.992 23.715 52.992 52.994z" fill="#FDBF52"/><path d="M63.114 22.444l-15 .04-14.998.019-.482.25c-.213.104-.408.25-.586.428L.57 54.658c.871 28.027 23.4 50.52 51.426 51.355L74.983 83c.34-.315.57-.71.66-1.082.053-.233.088-9.735.088-22.64 0-19.54-.019-22.294-.144-22.6-.07-.19-.479-.726-.905-1.188a113.046 113.046 0 01-1.336-1.53c-.32-.374-.623-.73-.695-.782-.053-.055-.889-.996-1.85-2.1-.962-1.104-2.029-2.314-2.35-2.705a227.494 227.494 0 01-1.674-1.904c-1.778-2.063-2.313-2.674-3.008-3.344l-.655-.681z" fill="#DBA444"/><path d="M33.063 83.646c-.764-.232-1.494-1-1.672-1.744-.055-.217-.09-12.65-.09-28.81 0-24.042.02-28.531.143-28.9a2.339 2.339 0 011.19-1.441l.483-.25 14.998-.018 15-.041.658.684c.694.67 1.229 1.279 3.008 3.344.588.676 1.336 1.53 1.672 1.904.34.373 1.389 1.602 2.35 2.705.96 1.103 1.797 2.045 1.869 2.1.053.053.355.408.676.783.32.373.924 1.068 1.336 1.529.426.462.834.998.906 1.189.125.305.143 3.059.143 22.6 0 12.902-.035 22.404-.088 22.639-.127.529-.588 1.12-1.141 1.475l-.463.287-20.373.019c-11.191.017-20.463-.018-20.605-.054zm17.81-3.878c1.336-.303 2.155-.733 2.813-1.424 1.28-1.39 1.333-3.738.123-5.125-.337-.393-1.28-1.066-1.707-1.232a7.605 7.605 0 01-.766-.334c-.286-.125-.624-.248-.747-.301-.357-.112-1.193-.535-1.48-.748-.817-.641-.587-1.727.464-2.082.836-.285 2.475-.143 3.489.304.195.088.373.139.39.123.055-.07.536-1.814.606-2.152.069-.338.053-.354-.355-.517-1.173-.444-3.328-.588-4.645-.32-1.46.32-2.598 1.118-3.186 2.277-.303.623-.338.712-.338 1.638 0 .873.035 1.05.268 1.53.268.533 1.03 1.349 1.602 1.71.408.266 1.156.6 1.887.889 1.689.642 2.17 1.067 2.17 1.869 0 .62-.143.864-.66 1.174-.444.263-.515.279-1.583.263-1.031 0-1.23-.031-2.188-.373-.588-.197-1.104-.334-1.121-.3-.107.103-.605 2.438-.553 2.51.125.107 1.28.48 1.992.624.892.174 2.742.174 3.525-.003zm14.219-.215c2.082-.746 3.434-2.313 4.02-4.607.286-1.176.286-3.137-.02-4.288-.532-2.068-1.547-3.347-3.29-4.218-1.177-.588-3.062-.782-4.537-.48-4.076.872-6.177 5.589-4.521 10.126.55 1.478 1.922 2.883 3.344 3.416.964.356 1.39.41 2.777.373 1.248-.018 1.442-.055 2.227-.322zm-3.043-2.188c-.5-.107-.926-.355-1.334-.805-.82-.851-1.121-1.728-1.193-3.308-.106-2.313.586-3.948 1.976-4.666.41-.21.623-.262 1.28-.262.677 0 .836.034 1.3.282.657.369 1.139.922 1.496 1.765.676 1.582.64 3.754-.107 5.282-.696 1.427-1.871 2.013-3.418 1.712zm-18.897-4.502V66.01H40.02v13.7h3.13v-6.847zm30.213-22.048l-.018-12.458-4.218-.018c-2.313-.018-4.271 0-4.323.018-.09.03-.02.268.213.836 1.584 3.719 1.494 8.063-.23 11.546-1.193 2.372-2.652 4.063-4.7 5.413-2.222 1.496-4.374 2.225-7.008 2.38-2.758.167-6.07-.706-8.24-2.183-.214-.144-.57-.394-.8-.535-.73-.48-2.152-1.938-2.846-2.9-1.424-1.98-2.172-3.791-2.545-6.176a13.664 13.664 0 011.477-8.51c2.635-4.947 7.846-7.753 13.488-7.273 2.686.244 4.945 1.139 7.188 2.83l.693.533.018-4.648c.02-2.541 0-4.676-.018-4.752-.035-.084-2.881-.12-13.791-.12-7.56 0-13.824.036-13.895.07-.143.05-.16 1.833-.16 19.23v19.169h39.732l-.017-12.452zm-19.627-.853a5.336 5.336 0 003.186-2.333c1.12-1.744 1.12-4.098.018-5.805-1.618-2.488-4.75-3.271-7.332-1.813-1.174.654-2.225 2.064-2.545 3.398-.176.672-.176 1.939 0 2.635.197.854.766 1.832 1.443 2.51.836.837 1.672 1.263 3.006 1.548.516.107 1.549.035 2.242-.141h-.018zm-2.795-.641c-1.14-.357-2.33-1.372-2.846-2.374-1.637-3.238.64-7.01 4.252-7.01 1.744 0 3.328.924 4.146 2.438 1.37 2.473.394 5.467-2.188 6.696-.678.32-.801.334-1.815.373-.763.018-1.208-.021-1.55-.123zm2.423-.486c2.917-.767 4.163-4.165 2.437-6.58-1.904-2.651-5.98-2.278-7.332.689-1.477 3.226 1.496 6.785 4.895 5.89zm-1.834-2.007c-.942-.355-1.422-1.086-1.442-2.082 0-.996.428-1.656 1.319-2.082 1.494-.713 3.183.393 3.183 2.045 0 1.05-.604 1.865-1.582 2.172-.64.195-.89.178-1.478-.053zm1.6-.588c.198-.105.499-.355.659-.551.232-.303.268-.45.268-.961 0-.553-.035-.658-.303-1.002-.658-.797-1.476-.973-2.312-.494-1.157.674-1.122 2.297.07 3.025.393.25 1.123.233 1.619-.017zm1.425-9.662c1.603-3.273 1.922-3.966 1.832-4.04-.123-.124-1.76-.591-2.525-.692-.783-.125-2.154-.055-2.793.14-.34.09-.428.157-.41.32.035.16.355 1.407 1.477 5.626l.18.62.566.073c.32.018.588.053.607.07.017 0 .478-.943 1.066-2.117z" fill="#fff"/></g><defs><clipPath id="clip0_101_13345"><path fill="#fff" transform="translate(.5)" d="M0 0h106v106H0z"/></clipPath></defs></svg>