<svg width="107" height="106" fill="none" xmlns="http://www.w3.org/2000/svg"><path d="M53.105 0c29.271 0 53 23.729 53 53s-23.729 53-53 53c-29.27 0-53-23.729-53-53s23.73-53 53-53z" fill="#65AAA8"/><path d="M63.485 28.588l22.248 5.279-6.563 24.929-44.068 44.068a52.977 52.977 0 01-17.914-10.893l-3.055-3.056A52.885 52.885 0 011.75 66.149l15.887-15.89 45.848-21.671z" fill="#4B9290"/><path d="M74.914 49.617A7.601 7.601 0 1167.94 36.11a7.603 7.603 0 0110.24 3.26c1.925 3.725.466 8.31-3.265 10.246zm-36.033-3.84l-6.813 3.604 5.86 11.079-2.319 1.224 1.82 3.438 2.316-1.23 1.045 1.975-2.318 1.228 1.818 3.438 2.316-1.227 1.113 2.104 4.682-2.475-1.113-2.104 6.197-3.276-1.818-3.441-6.197 3.279-1.043-1.97 1.5-.797 1.014-.535c5.03-2.66 7.43-6.902 4.734-11.997-2.542-4.807-7.193-5.282-12.794-2.317zm5.86 11.077l-.632.334-1.502.795-4.076-7.704 2.07-1.094c2.738-1.447 4.873-1.111 6.236 1.466 1.583 2.996.483 4.84-2.097 6.203zm15.915-28.82l-42.135 21.78c-1.293.72-2.08 1.933-1.365 3.628l14.06 27.178c.938 1.482 2.22 1.887 3.755 1.498l42.725-22.096c1.32-.715 2.445-1.978 3.305-4.021l6.924-17.796c1.16-3.566-.557-5.781-4.246-7.064l-17.754-3.855c-2.11-.436-3.894-.235-5.269.748z" fill="#fff"/></svg>