<svg width="106" height="106" fill="none" xmlns="http://www.w3.org/2000/svg"><g clip-path="url(#clip0_227_30568)"><path d="M53.014 0c29.271 0 53 23.729 53 52.999 0 29.271-23.729 53-53 53-29.27 0-53-23.729-53-53C.014 23.729 23.742 0 53.014 0z" fill="#B3ACD3"/><path d="M63.082 29.527l17.949 18.069-2.041 9.91.59 4.56-5.941 6.727-34.223 35.442c-17.945-4.75-32.158-18.672-37.311-36.45l37.963-39.187 12.398 2.564 10.616-1.635z" fill="#9991C2"/><path d="M79.578 52.089l-.258.784c-.236.753-.646 1.626-1.11 2.493l-1.1-1.824a3.51 3.51 0 00-4.837-1.194l-.506.286a3.55 3.55 0 00-1.205 4.855l2.528 4.192-.108.12-2.285-3.774c-.992-1.67-3.17-2.211-4.842-1.21l-.488.288a3.547 3.547 0 00-1.207 4.853l3.24 5.408-.105.108-1.234-2.057a3.557 3.557 0 00-4.854-1.205l-.49.313c-1.666.98-2.217 3.164-1.22 4.826l2.218 3.693-.065.068-.404-.688c-.998-1.668-3.176-2.196-4.857-1.2l-.489.299c-1.659.996-2.21 3.178-1.209 4.84l1.195 2.006c.074.115.158.195.223.289l-.366.367c-.927.926-2.093 1.434-3.139 1.434-.695 0-1.32-.213-1.77-.686-.605-.58-.78-1.443-.63-2.347.074-.44.227-.887.461-1.323.016-.04.061-.1.1-.158.084-.148.182-.322.297-.471.154-.226.336-.42.525-.611l7.4-7.398-1.48-1.488-10.24 10.236c-.932.943-2.104 1.445-3.145 1.445-.686-.002-1.328-.221-1.779-.682-1.146-1.15-.805-3.355.758-4.925l.357-.352.238-.234 9.656-9.653-1.484-1.476-11.39 11.376c-.929.933-2.099 1.433-3.136 1.433-.693 0-1.324-.218-1.785-.672-1.129-1.144-.793-3.36.768-4.921l11.377-11.377-1.477-1.473-8.432 8.43c-.928.923-2.119 1.435-3.15 1.435-.678 0-1.314-.215-1.779-.681-.346-.36-.54-.821-.615-1.334a3.149 3.149 0 01.053-1.256c.021-.055.031-.112.045-.172.027-.108.076-.23.102-.35.07-.152.133-.312.207-.476.041-.068.084-.13.12-.197.073-.15.173-.293.257-.422.051-.06.084-.12.123-.17.14-.193.31-.375.477-.555l8.422-8.415-.703-.72a3.75 3.75 0 01-.873-1.288l-4.504 2.555a4.328 4.328 0 01-2.172.569c-1.328 0-2.613-.6-3.303-1.701-1.09-1.705-.406-3.99 1.502-5.077l13.268-7.475c.4.535.887 1.012 1.486 1.414l8.648 5.723c2.58 1.71 5.932 1.234 7.45-1.061 1.517-2.296.652-5.57-1.92-7.281l-6.378-4.22c1.012-.565 2.026-1.036 2.905-1.304l.565-.175a5.814 5.814 0 011.69-.236c1.81-.001 3.798.714 4.974 1.894l13.291 13.28c1.558 1.566 2.277 4.56 1.597 6.653zm.11-8.361l-13.295-13.28c-1.59-1.602-4.146-2.588-6.676-2.588-.857-.001-1.676.108-2.404.342l-.56.179c-1.33.41-2.917 1.19-4.43 2.122l-.05-.03c-2.584-1.125-5.049-2.374-6.14-2.712l-.556-.174c-2.11-.66-5.117.086-6.674 1.642L25.62 42.519c-1.566 1.565-2.28 4.567-1.598 6.655l.254.787c.684 2.104 2.527 5.094 4.08 6.646L30.9 59.16c-.18.12-2.615 3.52.268 6.428a4.635 4.635 0 002.434 1.279l-.014.014c-1.465 1.883-2.314 4.785.277 7.303.883.88 2.117 1.383 3.477 1.383a6.05 6.05 0 001.92-.321c.016 1.338.5 2.56 1.39 3.44.872.888 2.12 1.383 3.47 1.383 1.27 0 2.55-.422 3.674-1.17.17.957.602 1.865 1.33 2.588.896.888 2.121 1.384 3.477 1.384 1.711 0 3.486-.781 4.85-2.136l.73-.735a3.48 3.48 0 002.553-.41l.502-.313c1.383-.808 1.967-2.438 1.574-3.912l.362-.355a3.556 3.556 0 003.996.238l.492-.29c1.666-1.005 2.207-3.183 1.205-4.84l-.304-.511.381-.371c1.09.705 2.55.803 3.75.086l.498-.305c1.664-1 2.205-3.18 1.203-4.834l-.139-.255.471-.485a3.477 3.477 0 003.486-.06l.49-.297c1.672-1.008 2.223-3.185 1.225-4.853l-.307-.5c.854-1.39 1.582-2.864 1.973-4.11l.271-.788c.98-2.968.04-6.885-2.177-9.107z" fill="#fff"/></g><defs><clipPath id="clip0_227_30568"><path fill="#fff" d="M0 0h106v106H0z"/></clipPath></defs></svg>