<svg width="24" height="25" fill="none" xmlns="http://www.w3.org/2000/svg"><path fill-rule="evenodd" clip-rule="evenodd" d="M19.896 15.411a5.167 5.167 0 01-5.167 5.167H9.166A5.167 5.167 0 014 15.411V9.745a5.166 5.166 0 015.166-5.167h2.608a5.167 5.167 0 015.167 5.167l.002.011c.037.536.484.96 1.03.96l.018-.002h.872c.57 0 1.034.463 1.034 1.034l-.001 3.663zM9.038 10.754h2.926a.993.993 0 100-1.987H9.038a.994.994 0 000 1.987zm5.867 3.83H9.032a.94.94 0 000 1.88h5.873a.94.94 0 000-1.88z" fill="#fff"/></svg>