<svg width="24" height="25" fill="none" xmlns="http://www.w3.org/2000/svg"><path fill-rule="evenodd" clip-rule="evenodd" d="M5.555 11.392v3.286h.96s.18.005.18-.222V11.17h-.96s-.18-.006-.18.222v.001zm8.032 3.065V11.17h-.96s-.18-.006-.18.222v3.286h.96s.18.007.18-.22zm-5.306 1.32c0 .227-.18.222-.18.222H4v-5.924c0-.227.18-.222.18-.222h2.514V7.8c0-.227.18-.222.18-.222h1.408l-.001 8.2zm2.065 0c0 .227-.18.221-.18.221H8.761v-5.924c0-.226.18-.22.18-.22h1.406v5.923h-.001zm0-7.103c0 .227-.18.222-.18.222H8.76V7.8c0-.227.18-.222.18-.222h1.408l-.001 1.096h-.001zm4.827 9.21c0 .228-.18.223-.18.223h-4.1v-1.096c0-.227.18-.222.18-.222h2.513V16h-2.694v-5.924c0-.227.18-.222.18-.222l4.102.003v8.03l-.001-.002zm4.826 0c0 .228-.18.223-.18.223h-4.1v-1.096c0-.227.18-.222.18-.222h2.514V16h-2.695v-5.924c0-.227.18-.222.18-.222L20 9.857v8.028h-.001zm-1.585-3.427V11.17h-.96s-.18-.006-.18.222v3.286h.96s.18.007.18-.22z" fill="#fff"/></svg>