<svg width="24" height="25" fill="none" xmlns="http://www.w3.org/2000/svg"><path fill-rule="evenodd" clip-rule="evenodd" d="M4.246 9.532h3.41v10.281h-3.41V9.533zm1.725-4.935c-1.167 0-1.929.77-1.929 1.776 0 .987.74 1.777 1.884 1.777h.022c1.19 0 1.93-.79 1.93-1.777-.023-1.007-.74-1.776-1.907-1.776zm10.052 4.715c-1.81 0-2.62.997-3.073 1.698V9.554H9.54c.045.965 0 10.281 0 10.281h3.41v-5.742c0-.307.022-.614.112-.834.246-.613.807-1.25 1.75-1.25 1.233 0 1.727.944 1.727 2.325v5.501h3.41V13.94c0-3.158-1.683-4.627-3.926-4.627z" fill="#fff"/></svg>