<svg width="24" height="25" fill="none" xmlns="http://www.w3.org/2000/svg"><path fill-rule="evenodd" clip-rule="evenodd" d="M16.542 11.208c-1.105-.636-2.494-1.033-4.025-1.118l.808-2.393 2.182.637c0 .963.78 1.742 1.743 1.742.964 0 1.758-.779 1.758-1.742 0-.976-.794-1.756-1.758-1.756-.609 0-1.148.326-1.459.793l-2.65-.764a.482.482 0 00-.61.311l-1.063 3.172c-1.516.085-2.905.482-4.01 1.12a1.987 1.987 0 00-1.46-.624A1.996 1.996 0 004 12.582c0 .75.425 1.403 1.035 1.742-.029.17-.043.34-.043.51 0 2.62 3.146 4.744 7.015 4.744 3.855 0 7-2.124 7-4.744 0-.17-.013-.34-.042-.51A1.975 1.975 0 0020 12.582a1.995 1.995 0 00-1.998-1.996 2.01 2.01 0 00-1.46.622zm-7.043 1.87a1.01 1.01 0 011.006 1.006.999.999 0 01-1.006.991.986.986 0 01-.992-.99.997.997 0 01.992-1.007zm5.002 0a.998.998 0 00-.992 1.006c0 .552.44.991.992.991a.997.997 0 00.71-1.701 1.01 1.01 0 00-.71-.296zm-5.3 3.597a.484.484 0 01-.085-.694c.156-.226.482-.255.694-.085.567.44 1.474.68 2.197.68.709 0 1.616-.24 2.197-.68a.485.485 0 01.694.085.496.496 0 01-.085.694c-.737.58-1.885.907-2.806.907-.935 0-2.07-.326-2.806-.907zm8.05-7.59a.757.757 0 01-.752-.75c0-.426.34-.752.751-.752s.752.326.752.751c0 .41-.34.75-.752.75l.001.001z" fill="#fff"/></svg>