<svg width="106" height="106" fill="none" xmlns="http://www.w3.org/2000/svg"><g clip-path="url(#clip0_227_26647)" fill-rule="evenodd" clip-rule="evenodd"><path d="M52.984.108c29.27 0 53 23.729 53 52.999 0 29.273-23.73 53.002-53 53.002-29.271 0-53-23.729-53-53.002 0-29.27 23.729-52.999 53-52.999z" fill="#B7AE52"/><path d="M57.195 40.657L31.744 65.98l6.047.318 9.299-9.27.971.242L64.317 40.8l11.58.656.529 40.38-24.26 24.26C27.463 105.725 6.857 88.451 1.4 65.324l-.004-.018 40.639-40.64 15.16 15.991z" fill="#A2983A"/><path d="M41.918 81.824H29.875V65.186h12.043v16.638zm15.299-60.253L43.76 23.935c-2.387.412-2.93 2.172-1.211 3.885l2.273 2.285-12.847 12.856a3.447 3.447 0 000 4.875l2.568 2.563a3.46 3.46 0 004.869 0L52.26 37.546l2.301 2.285c1.709 1.725 3.467 1.166 3.885-1.229l2.363-13.44c.429-2.423-1.19-4.02-3.592-3.59zM76.33 81.824H64.287V40.735H76.33v41.09zm-17.209 0H47.084v-24.79h12.037v24.79z" fill="#fff"/></g><defs><clipPath id="clip0_227_26647"><path fill="#fff" d="M0 0h106v106H0z"/></clipPath></defs></svg>