<svg width="20" height="20" fill="none" xmlns="http://www.w3.org/2000/svg"><g clip-path="url(#clip0_1_13300)" fill="#fff"><path d="M10.26.5a9.47 9.47 0 016.717 2.782A9.475 9.475 0 0119.76 10a9.47 9.47 0 01-2.783 6.717A9.47 9.47 0 0110.26 19.5a9.47 9.47 0 01-6.717-2.783A9.47 9.47 0 01.76 10a9.475 9.475 0 012.783-6.718A9.47 9.47 0 0110.26.5zm2.56 4c-1.543-1.542-.206-.526-2.56-.526-2.353 0-1.897-.016-3.44 1.526 0 2.5-1 1.646-1 4s5.5 4.5-1.587 6.525a8.496 8.496 0 006.027 2.496 8.495 8.495 0 006.027-2.496C10.26 15 13.82 11.853 13.82 9.5c0-2.353.54-3.458-1-5z"/><path d="M4.05 15.922c.01-.002 3.526-.88 3.526-1.961 0-.516-.338-.952-.7-1.421-.528-.685-1.1-1.425-1.1-2.632 0-1.137.16-1.53.31-1.896.094-.232.182-.45.182-1.037 0-.925.424-1.881 1.258-2.563.697-.57 1.678-.947 2.926-.947 1.223 0 2.076.362 2.654.916.723.693.963 1.709.963 2.64 0 .588.107.76.2.992v.003c.149.364.308.758.308 1.893 0 1.198-.528 1.928-1.021 2.604-.338.465-.653.899-.653 1.42 0 1.082 3.516 1.959 3.524 1.96l-.231.948c-.015-.003-4.271-1.068-4.271-2.908 0-.836.405-1.396.84-1.992h.002c.402-.551.832-1.144.832-2.031 0-.95-.121-1.25-.231-1.53-.135-.325-.258-.63-.258-1.405 0-.697-.18-1.41-.68-1.891-.404-.388-1.035-.641-1.98-.641-1.001 0-1.772.289-2.306.725-.596.488-.9 1.16-.9 1.807 0 .77-.123 1.074-.254 1.4-.113.279-.234.58-.234 1.533 0 .879.463 1.479.893 2.035.467.606.904 1.175.904 2.018 0 1.839-4.256 2.905-4.27 2.908l-.232-.947z"/></g><defs><clipPath id="clip0_1_13300"><path fill="#fff" transform="translate(.76 .5)" d="M0 0h19v19H0z"/></clipPath></defs></svg>