<svg width="249" height="60" fill="none" xmlns="http://www.w3.org/2000/svg"><path fill-rule="evenodd" clip-rule="evenodd" d="M.091 10.578c0 2.57.913 3.703 2.966 5.516 7.225 6.498 26.162 6.725 35.897 2.871C55.457 12.392 44.962 0 23.515 0 17.051 0 .091 2.569.091 10.578zm23.424-8.311l4.792 4.684L38.65 8.01l-7.377 3.476 1.597 5.063-9.355-2.343-9.278 2.342 1.597-5.062L8.457 8.01l10.267-1.133 4.791-4.61z" fill="#00ABE1"/><path fill-rule="evenodd" clip-rule="evenodd" d="M22.07 40.273c7.301 0 14.907-.831 20.306-4.307 3.955-2.569 4.564-4.684 4.64-8.311 0-2.192-.076-4.912-.076-8.614-.609 2.116-2.434 5.44-8.975 7.631-10.57 3.476-25.781 3.4-34.071-2.569C2.297 22.97.396 21.233.396 19.041H.09v10.654c.457 2.644 1.597 4.609 4.64 6.271 4.334 2.494 10.495 4.307 17.34 4.307z" fill="#231F20"/><path fill-rule="evenodd" clip-rule="evenodd" d="M.091 49.416V38.762h.305c0 7.33 16.503 9.974 23.5 9.974 7.91 0 20.914-2.343 23.12-9.974 0 3.778 0 6.725-.076 8.916-.076 3.4-.685 5.44-4.335 7.783-6.009 4.004-13.69 4.609-20.915 4.533-6.312 0-13.157-2.04-17.188-4.458-2.89-1.738-4.03-3.627-4.41-6.12zm23.424 2.04c1.674 0 3.043 1.36 3.043 2.947 0 1.662-1.37 3.022-3.043 3.022-1.597 0-2.966-1.36-2.966-3.022 0-1.587 1.37-2.947 2.966-2.947zm216.521-31.017h-1.825v-7.254c2.814 0 3.574.302 3.878 1.813.077.68.077 1.814.077 3.023 0 1.435-.609 2.418-2.13 2.418zm-76.052-4.307l3.65-.53s.076-3.248-1.521-4.835c-1.673-1.662-5.247-2.72-8.213-.378-2.966 2.343-2.206 7.858-.076 10.2 2.053 2.192 6.084 5.517 6.084 8.463 0 3.4-4.335 3.476-4.259-.075.076-1.511.076-1.587.076-1.587l-3.879.378c-.38 4.156 1.141 7.707 6.008 7.707 1.75 0 6.085-.227 6.008-6.498-.076-8.463-7.757-8.765-7.985-13.828-.076-3.097 3.27-2.946 3.803-1.208.38 1.284.304 2.19.304 2.19zm7.529 18.89h11.028v-3.703h-6.997v-7.253h5.704v-3.93h-5.704v-6.951h6.997V9.558h-11.028v25.464zm47.533 0h11.255v-3.703h-6.996v-7.253h5.475v-3.93h-5.475v-6.951h6.996V9.558h-11.255v25.464zm-13.081 0h5.171l4.259-25.464h-3.955l-2.737 18.437-2.89-18.437h-4.107l4.259 25.464zm-13.31-14.508l-2.205-.075v-7.254c2.434 0 3.194.075 3.65 1.133.837 1.587.609 6.196-1.445 6.196zm-6.16 14.508h3.955V24.368h1.825l2.738 10.654h4.259l-3.346-11.788c.76-.302 1.597-1.058 2.053-2.19 1.293-3.023 1.445-11.486-5.095-11.486h-6.389v25.464zm47.457 0h4.259V24.443h1.521l3.118 10.579h4.259l-3.575-11.561c.457-.302.837-.378 1.75-1.738.304-.378.684-1.587.912-3.022.533-3.703-.152-9.143-6.16-9.143h-6.084v25.464z" fill="#231F20"/><path fill-rule="evenodd" clip-rule="evenodd" d="M84.13 20.439h-1.826v-7.254h1.293c1.749.076 1.977.151 2.433 1.284.609 1.587.457 3.098.153 4.156-.229 1.21-.609 1.814-2.054 1.814zm41.752 14.583h3.955V9.558h-3.955v25.464zm7.605-21.837h4.259v21.837h3.955V13.185h4.259V9.558h-12.473v3.627zm-22.283 21.761l4.335.076V23.763h5.475v-3.627h-5.475v-6.951h6.692V9.558H111.28l-.076 25.388zM68.006 20.741h-1.521v-7.556h1.445c1.369.076 2.13.529 2.51 1.587.532 1.51.38 3.778-.228 4.911-.305.68-1.293 1.058-2.206 1.058zM62.53 35.02h3.955V24.369c4.715 0 7.073-.454 7.91-4.08.228-1.134.304-2.57.304-4.383 0-7.631-6.921-6.347-12.169-6.347v25.464zm35.897-6.42V15.301c0-1.511.836-2.418 2.358-2.418 1.445 0 2.205.982 2.205 2.418v13.298c0 4.156-4.563 4.156-4.563 0zm-3.955-13.903c0 2.947-.304 14.81.38 16.925 1.902 5.743 12.169 4.685 12.169-1.813V14.696c0-7.405-12.549-7.405-12.549 0zM78.35 35.022h3.955V24.368h1.825l2.738 10.654h4.259L87.78 23.159c1.216-.302 1.597-1.058 2.053-2.191 1.445-3.098 1.217-11.41-4.791-11.41h-6.693v25.464z" fill="#00ABE1"/><path d="M65.573 50.284c-1.293 0-2.358-.377-3.27-1.209l.988-1.209c.76.605 1.521.983 2.282.983.38 0 .608-.076.836-.227.152-.151.304-.302.304-.529 0-.227-.152-.453-.304-.529-.228-.15-.684-.302-1.293-.453a12.64 12.64 0 00-1.065-.302c-.228-.151-.532-.302-.76-.454-.228-.15-.456-.377-.532-.68-.153-.226-.153-.529-.153-.906 0-.756.229-1.285.761-1.663.456-.453 1.14-.68 1.901-.68 1.065 0 2.054.302 2.89.982l-.912 1.285c-.685-.529-1.37-.755-1.978-.755-.304 0-.532.075-.76.15a.684.684 0 00-.228.53c0 .226.076.453.304.528.228.151.684.303 1.369.454.836.226 1.445.529 1.825.83.38.379.608.832.608 1.512 0 .756-.304 1.285-.76 1.738-.532.378-1.217.604-2.053.604zm11.788-.075v-7.632h5.856v1.436h-4.183V45.6h3.65v1.51h-3.65v1.588h4.183v1.51H77.36zm14.906 0v-7.632h3.574c.913 0 1.674.227 2.206.756.456.453.684.982.684 1.738 0 1.209-.532 1.964-1.673 2.418l1.901 2.72h-1.977l-1.673-2.494h-1.293v2.494h-1.75zm1.75-3.93h1.672c.457 0 .76-.15.989-.301.228-.227.304-.454.304-.832 0-.377-.076-.604-.304-.83-.228-.152-.608-.227-.989-.227h-1.673v2.19zm15.97 3.93l-3.042-7.632h1.825l2.054 5.365 1.977-5.365h1.825l-3.118 7.632h-1.521zm13.385 0v-7.632h5.78v1.436h-4.107V45.6h3.651v1.51h-3.651v1.588h4.183v1.51h-5.856zm14.907 0v-7.632h3.498c.989 0 1.749.227 2.281.756.381.453.609.982.609 1.738 0 1.209-.532 1.964-1.597 2.418l1.825 2.72h-1.977l-1.673-2.494h-1.293v2.494h-1.673zm1.673-3.93h1.749c.38 0 .684-.15.912-.301.229-.227.381-.454.381-.832 0-.377-.152-.604-.381-.83-.228-.152-.532-.227-.988-.227h-1.673v2.19z" fill="#00ABE1"/><path d="M165.961 50.21v-7.632h3.575c.913 0 1.673.227 2.205.756.457.453.685.982.685 1.737 0 1.21-.532 1.965-1.673 2.418l1.901 2.72h-1.977l-1.673-2.493h-1.293v2.493h-1.75zm1.75-3.93h1.673c.456 0 .76-.15.988-.302.229-.227.305-.453.305-.831 0-.378-.076-.605-.305-.831a2.113 2.113 0 00-.988-.227h-1.673v2.191zm13.765 3.93v-7.632h5.78v1.436h-4.107V45.6h3.651v1.512h-3.651v1.586h4.183v1.511h-5.856zm14.906 0v-7.632h1.597l3.575 4.685v-4.685h1.673v7.631h-1.445l-3.727-4.91v4.91h-1.673zm18.025 0v-6.12h-2.358v-1.512h6.389v1.511h-2.358v6.12h-1.673zm11.255 0l3.271-7.708h1.597l3.27 7.707h-1.749l-.761-1.737h-3.194l-.76 1.737h-1.674zm3.043-3.25h1.977l-.989-2.418-.988 2.418zm13.841 3.25v-7.632h1.673v6.045h3.803v1.587h-5.476z" fill="#231F20"/></svg>