<svg width="21" height="20" fill="none" xmlns="http://www.w3.org/2000/svg"><path d="M3.258 9.664a.625.625 0 010-.85.544.544 0 01.801 0l4.445 4.7 8.31-9.042a.547.547 0 01.8-.011c.224.23.228.61.011.847l-8.682 9.445a.305.305 0 01-.034.036.544.544 0 01-.8 0l-4.85-5.125z" fill="#49B550"/><path d="M3.729 0h13.025c.96 0 1.83.39 2.463 1.024a3.481 3.481 0 011.024 2.463v13.026c0 .957-.39 1.83-1.024 2.461v.002A3.484 3.484 0 0116.754 20H3.73a3.477 3.477 0 01-2.461-1.024v-.002h-.003a3.48 3.48 0 01-1.024-2.46V3.486c0-.96.393-1.83 1.024-2.463h.002A3.472 3.472 0 013.729 0zm13.025.46H3.73a3.02 3.02 0 00-2.136.888l-.001.002a3.012 3.012 0 00-.89 2.137v13.026c0 .831.341 1.588.89 2.137h.001a3.011 3.011 0 002.136.89h13.025c.833 0 1.59-.341 2.137-.89h.002a3.024 3.024 0 00.887-2.137V3.487c0-.833-.34-1.59-.887-2.137l-.002-.002a3.016 3.016 0 00-2.137-.887z" fill="#8CBDBD"/></svg>