<svg width="23" height="22" fill="none" xmlns="http://www.w3.org/2000/svg"><path d="M11.33 0c3.037 0 5.788 1.231 7.778 3.222a10.96 10.96 0 013.221 7.777c0 3.038-1.23 5.789-3.22 7.778A10.97 10.97 0 0111.328 22a10.967 10.967 0 01-7.777-3.223A10.962 10.962 0 01.33 11c0-3.037 1.231-5.787 3.222-7.777A10.966 10.966 0 0111.33 0zM8.19 3.296c.146.456.577 1.4 1.679 1.373 1.023-.024 1.793-.561 2.437-1.012.468-.327.884-.616 1.346-.724l.134-.028a4.536 4.536 0 00-2.549-.78c-1.172 0-2.24.444-3.047 1.171zm6.708.681a.524.524 0 01-.16-.098s-.127-.12-.853.049c-.28.064-.615.299-.994.563-.762.531-1.667 1.165-2.997 1.197-1.377.033-2.091-.822-2.45-1.529a4.544 4.544 0 00-.757 2.516c0 .964.287 1.852.802 2.581a4.61 4.61 0 002.179 1.658c.194.07.336.255.336.475.02 2.248.263 3.356.575 3.892.204.35.462.358.656.358h.03v.002c.494.001 1.338.002 1.372-4.245a.51.51 0 01.318-.507 4.558 4.558 0 002.06-1.678 4.535 4.535 0 00.768-2.536 4.498 4.498 0 00-.885-2.698zm1.368 15.694l-.086-1.678a.51.51 0 011.017-.053l.057 1.086a10.02 10.02 0 002.494-2.67c-.269-.472-1.184-1.984-2.356-2.694-1.074-.65-2.99-.718-3.8-.715-.298 3.712-1.554 3.711-2.325 3.71v.001h-.03c-.451 0-1.046-.018-1.54-.869-.296-.508-.543-1.369-.651-2.842-.822 0-2.714.071-3.778.715-1.173.711-2.092 2.226-2.358 2.695a10.065 10.065 0 002.362 2.57l.05-.988a.51.51 0 011.02.053l-.084 1.6a9.936 9.936 0 005.072 1.383 9.89 9.89 0 004.936-1.304zm-2.62-7.74c.932.004 3.017.103 4.272.863 1.057.642 1.921 1.8 2.398 2.543a9.941 9.941 0 00.989-4.338 9.949 9.949 0 00-2.922-7.054 9.95 9.95 0 00-7.055-2.922 9.952 9.952 0 00-7.056 2.922 9.947 9.947 0 00-2.923 7.054c0 1.556.355 3.027.99 4.34.478-.743 1.341-1.902 2.399-2.545 1.249-.756 3.317-.858 4.257-.863l-.002-.193a5.592 5.592 0 01-2.339-1.895c-.633-.9-.99-1.99-.99-3.168a5.56 5.56 0 011.633-3.94 5.552 5.552 0 013.94-1.631c1.536 0 2.931.623 3.939 1.631a5.553 5.553 0 011.632 3.94 5.572 5.572 0 01-3.157 5.02l-.006.236z" fill="#00ABE1"/></svg>