<svg width="21" height="20" fill="none" xmlns="http://www.w3.org/2000/svg"><path d="M.345 19.43l1.14-5.598a.454.454 0 01.127-.234L14.912.717l.03-.027.033-.03c.277-.233.952-.584 1.754-.649.81-.065 1.763.144 2.604 1.012.061.062.126.133.195.216a3.1 3.1 0 01.2 4l-.031.037-.33.341a.463.463 0 01-.288.293L6.661 18.688a.429.429 0 01-.136.14.471.471 0 01-.225.114h.002l-5.435 1.05a.453.453 0 01-.522-.561zM15.43 1.473l3.46 3.34.147-.15c.132-.178.994-1.43-.197-2.844a3.93 3.93 0 00-.151-.166c-.613-.634-1.303-.787-1.884-.74-.592.047-1.061.282-1.244.436l-.007.005-.014.011-.11.108zm2.832 3.988L14.78 2.102l-.368.356 3.49 3.369.359-.367zM3.028 13.484c.292.011.601.066.873.2l8.545-8.311a.452.452 0 01.629.647l-8.54 8.303c.19.399.179.865.108 1.261.435-.086.946-.1 1.342.156l8.36-8.502a.452.452 0 01.643.633L6.52 16.48c.097.273.154.575.187.862l9.556-9.83-3.54-3.42-9.695 9.391zm2.813 4.627c.013-.445-.01-1.255-.296-1.567l-.016-.014c-.343-.343-1.365.157-1.368.158a.45.45 0 01-.603-.604c.002-.003.492-1.037.096-1.482-.3-.337-1.027-.229-1.374-.152l-.688 3.38.982.91 3.267-.629zM17.274 6.474l-3.51-3.388-.392.38 3.521 3.399.381-.39z" fill="#00B2E5"/></svg>