<svg width="13" height="22" fill="none" xmlns="http://www.w3.org/2000/svg"><path d="M1.42 0h10.342c.296 0 .569.123.768.32V.318c.198.198.321.47.321.77v19.823c0 .299-.123.57-.321.768v.002c-.198.196-.47.319-.768.319H1.419A1.09 1.09 0 01.33 20.911V1.088C.33.79.453.518.65.32V.318C.848.122 1.121 0 1.42 0zm3.5 1.034h3.34c.182 0 .35.066.472.172a.554.554 0 01.197.415c0 .16-.076.307-.197.413a.722.722 0 01-.472.174H4.92a.713.713 0 01-.473-.173.554.554 0 01-.196-.414c0-.162.075-.309.196-.415a.713.713 0 01.473-.172zm1.67 16.462c.485 0 .925.197 1.244.516.32.319.516.758.516 1.244 0 .485-.197.924-.516 1.243h-.002l-.002.002a1.75 1.75 0 01-1.24.514 1.748 1.748 0 01-1.267-.54 1.756 1.756 0 01.024-2.462l.002-.002a1.74 1.74 0 011.241-.515zm.677 1.08a.957.957 0 00-1.357-.002l-.001.001a.953.953 0 00-.28.68c0 .258.1.491.263.663l.019.017a.96.96 0 001.356.001h.002a.958.958 0 00-.002-1.36zM1.13 2.412h10.924V1.088a.288.288 0 00-.088-.205h.002-.002a.29.29 0 00-.204-.085H1.42a.295.295 0 00-.206.084v.002a.296.296 0 00-.084.205v1.323zm10.925 14.762H1.129v3.738c0 .08.033.152.085.205v.002a.292.292 0 00.206.084h10.343c.08 0 .151-.033.204-.086h.002a.29.29 0 00.085-.205v-3.738zM12.01 3.212H1.173v13.164H12.01V3.212z" fill="#00B2E5"/></svg>