<svg width="106" height="106" viewBox="0 0 106 106" fill="none" xmlns="http://www.w3.org/2000/svg">
<g clip-path="url(#clip0_227_28375)">
<path d="M106 53.098C106 82.373 82.281 106.111 53.008 106.111C23.738 106.111 0.00195312 82.374 0.00195312 53.098C0.00195312 23.827 23.738 0.107971 53.008 0.107971C82.281 0.106971 106 23.827 106 53.098Z" fill="#EB5D42"/>
<path d="M24.3061 42.377C23.0091 42.377 21.8551 42.713 20.8431 43.39C20.5051 43.623 20.1871 43.867 19.8861 44.17L0.996094 63.076C5.13309 84.627 22.1411 101.4 43.7601 105.236L86.7561 62.24C87.1471 61.849 87.4671 61.388 87.7331 60.859C88.1411 60.041 88.3381 59.133 88.3381 58.158C88.3381 57.181 88.1411 56.295 87.7331 55.478C87.3261 54.679 86.7741 54.021 86.0841 53.56C85.3921 53.082 84.6291 52.851 83.7951 52.851C82.9591 52.851 82.1961 53.083 81.4851 53.56C81.2371 53.717 81.0061 53.914 80.7931 54.127L76.8151 58.105L84.9811 42.802H82.3191L77.0841 48.038C77.0841 47.096 76.8691 46.229 76.4801 45.43C76.0721 44.612 75.5021 43.975 74.8121 43.512C74.1031 43.033 73.3381 42.803 72.5021 42.803C71.6891 42.803 70.9241 43.034 70.2311 43.512C69.9631 43.671 69.7331 43.866 69.5181 44.08L66.0571 47.56C65.7741 46.423 65.2421 45.374 64.4421 44.454C63.2701 43.066 61.8151 42.376 60.0761 42.376C58.7801 42.376 57.6271 42.712 56.6141 43.389C56.2761 43.622 55.9571 43.866 55.6551 44.169L42.0031 57.824L42.7121 56.328C43.4211 54.875 43.9541 53.631 44.2921 52.584C44.6281 51.52 44.8061 50.472 44.8061 49.425C44.8061 47.527 44.2021 45.874 42.9951 44.455C41.8061 43.067 40.3501 42.377 38.6121 42.377C37.3151 42.377 36.1611 42.713 35.1491 43.39C34.8111 43.623 34.4931 43.867 34.1881 44.17L30.3741 47.985C30.1441 46.672 29.5751 45.503 28.6881 44.455C27.4981 43.067 26.0441 42.377 24.3061 42.377Z" fill="#BF4C35"/>
<path d="M24.306 42.377C23.009 42.377 21.855 42.713 20.843 43.39C19.849 44.044 19.068 44.985 18.501 46.176C17.948 47.366 17.665 48.716 17.665 50.207C17.665 51.91 18.073 53.328 18.872 54.463C19.671 55.582 20.843 56.328 22.37 56.719L24.358 52.496C23.629 52.496 23.061 52.266 22.653 51.802C22.245 51.343 22.049 50.739 22.049 49.993C22.049 49.499 22.139 49.034 22.332 48.626C22.51 48.198 22.777 47.88 23.098 47.647C23.434 47.403 23.789 47.295 24.18 47.295C24.606 47.295 24.961 47.402 25.299 47.611C25.617 47.841 25.865 48.146 26.043 48.536C26.221 48.93 26.311 49.389 26.311 49.902C26.311 50.47 26.061 51.288 25.53 52.385L20.221 63.448H24.996L28.402 56.327C29.111 54.874 29.646 53.63 29.982 52.583C30.318 51.519 30.498 50.471 30.498 49.424C30.498 47.526 29.894 45.873 28.687 44.454C27.498 43.067 26.044 42.377 24.306 42.377ZM38.613 42.377C37.316 42.377 36.162 42.713 35.15 43.39C34.154 44.044 33.373 44.985 32.804 46.176C32.253 47.366 31.97 48.716 31.97 50.207C31.97 51.91 32.378 53.328 33.177 54.463C33.976 55.582 35.15 56.328 36.677 56.719L38.665 52.496C37.936 52.496 37.368 52.266 36.96 51.802C36.552 51.343 36.356 50.739 36.356 49.993C36.356 49.499 36.446 49.034 36.639 48.626C36.817 48.198 37.084 47.88 37.403 47.647C37.741 47.403 38.096 47.295 38.487 47.295C38.895 47.295 39.268 47.402 39.604 47.611C39.924 47.841 40.172 48.146 40.35 48.536C40.528 48.93 40.616 49.389 40.616 49.902C40.616 50.47 40.368 51.288 39.837 52.385L34.528 63.448H39.303L42.711 56.327C43.42 54.874 43.953 53.63 44.291 52.583C44.627 51.519 44.805 50.471 44.805 49.424C44.805 47.526 44.201 45.873 42.994 44.454C41.806 43.067 40.351 42.377 38.613 42.377ZM60.074 42.377C58.779 42.377 57.625 42.713 56.613 43.39C55.619 44.044 54.838 44.985 54.269 46.176C53.717 47.366 53.435 48.716 53.435 50.207C53.435 51.91 53.843 53.328 54.643 54.463C55.442 55.582 56.614 56.328 58.122 56.719L60.128 52.496C59.401 52.496 58.833 52.266 58.425 51.802C58.017 51.343 57.821 50.739 57.821 49.993C57.821 49.499 57.909 49.034 58.087 48.626C58.282 48.198 58.548 47.88 58.868 47.647C59.188 47.403 59.559 47.295 59.952 47.295C60.36 47.295 60.731 47.402 61.052 47.611C61.39 47.841 61.638 48.146 61.816 48.536C61.995 48.93 62.083 49.389 62.083 49.902C62.083 50.47 61.816 51.288 61.302 52.385L55.995 63.448H60.769L64.177 56.327C64.888 54.874 65.402 53.63 65.757 52.583C66.095 51.519 66.273 50.471 66.273 49.424C66.273 47.526 65.669 45.873 64.443 44.454C63.27 43.067 61.814 42.377 60.074 42.377ZM72.5 42.803C71.686 42.803 70.922 43.034 70.23 43.512C69.517 43.975 68.967 44.612 68.56 45.43C68.168 46.247 67.956 47.133 67.956 48.094C67.956 49.071 68.169 49.975 68.56 50.812C68.967 51.624 69.517 52.265 70.23 52.742C70.92 53.207 71.685 53.453 72.5 53.453C73.336 53.453 74.1 53.207 74.809 52.742C75.5 52.265 76.069 51.624 76.477 50.812C76.887 49.993 77.082 49.086 77.082 48.094C77.082 47.133 76.887 46.247 76.477 45.43C76.069 44.612 75.5 43.975 74.809 43.512C74.1 43.034 73.336 42.803 72.5 42.803ZM82.318 42.803L71.277 63.504H73.939L84.98 42.803H82.318ZM72.5 45.999C72.855 45.999 73.158 46.09 73.424 46.28C73.707 46.464 73.922 46.707 74.082 47.044C74.24 47.366 74.33 47.702 74.33 48.095C74.33 48.699 74.152 49.195 73.797 49.603C73.442 50.03 73.016 50.224 72.5 50.224C72.021 50.224 71.596 50.011 71.24 49.603C70.885 49.175 70.709 48.681 70.709 48.095C70.709 47.508 70.885 47.011 71.223 46.62C71.578 46.212 72.004 45.999 72.5 45.999ZM83.793 52.852C82.957 52.852 82.195 53.084 81.484 53.56C80.791 54.021 80.242 54.661 79.834 55.478C79.426 56.294 79.213 57.181 79.213 58.159C79.213 59.136 79.426 60.042 79.834 60.859C80.242 61.672 80.791 62.333 81.484 62.808C82.195 63.271 82.957 63.503 83.793 63.503C84.627 63.503 85.389 63.271 86.082 62.808C86.773 62.331 87.324 61.691 87.732 60.859C88.14 60.042 88.336 59.134 88.336 58.159C88.336 57.184 88.14 56.296 87.732 55.478C87.324 54.679 86.773 54.021 86.082 53.56C85.389 53.084 84.627 52.852 83.793 52.852ZM83.793 56.029C84.307 56.029 84.732 56.242 85.088 56.65C85.424 57.058 85.602 57.572 85.602 58.158C85.602 58.744 85.424 59.242 85.071 59.65C84.717 60.058 84.289 60.254 83.795 60.254C83.297 60.254 82.871 60.059 82.533 59.65C82.178 59.224 82 58.744 82 58.158C82 57.572 82.16 57.058 82.517 56.65C82.85 56.242 83.277 56.029 83.793 56.029ZM49.174 57.928C48.465 57.928 47.861 58.211 47.381 58.778C46.885 59.346 46.654 60.059 46.654 60.891C46.654 61.709 46.902 62.401 47.381 62.967C47.88 63.535 48.483 63.822 49.174 63.822C49.885 63.822 50.471 63.535 50.969 62.967C51.465 62.401 51.713 61.709 51.713 60.891C51.713 60.342 51.608 59.846 51.377 59.399C51.164 58.942 50.861 58.586 50.471 58.336C50.098 58.068 49.654 57.928 49.174 57.928Z" fill="white"/>
</g>
<defs>
<clipPath id="clip0_227_28375">
<rect width="106" height="106" fill="white"/>
</clipPath>
</defs>
</svg>
