<svg width="106" height="106" viewBox="0 0 106 106" fill="none" xmlns="http://www.w3.org/2000/svg">
<g clip-path="url(#clip0_227_28360)">
<path d="M53.1094 0.174988C82.3804 0.174988 106.109 23.904 106.109 53.175C106.109 82.446 82.3804 106.175 53.1094 106.175C23.8374 106.175 0.109375 82.446 0.109375 53.175C0.109375 23.904 23.8374 0.174988 53.1094 0.174988Z" fill="#BFB558"/>
<path d="M43.1688 46.316L58.7918 31.162L64.0418 39.66L81.2158 52.228L67.8638 65.773L72.4008 72.27L40.1068 104.565C33.2528 102.836 26.9288 99.774 21.4298 95.669L21.3428 95.604L10.6838 84.944L10.6288 84.875C4.76781 77.033 1.02781 67.515 0.257812 57.166L28.5408 28.634L37.4778 40.111L43.1688 46.316Z" fill="#A89D3D"/>
<path d="M84.25 37.271C85.555 42.158 85.283 47.917 81.43 51.772C77.576 55.626 71.367 56.793 66.078 54.782L64.867 55.991L58.695 50.483C57.525 49.438 56.105 48.817 54.66 48.65L57.062 46.248C54.621 40.773 55.775 34.039 59.734 30.078C63.693 26.119 69.213 25.816 74.099 27.121L67.681 33.539C65.56 35.66 65.56 39.131 67.681 41.252L70.119 43.69C72.24 45.811 75.711 45.811 77.832 43.69L84.25 37.271ZM50.253 50.214C52.355 48.953 55.107 49.298 57.035 51.021L72.299 64.643C74.565 66.664 74.447 70.307 72.299 72.456L67.576 77.179C65.428 79.325 61.808 79.427 59.763 77.179L46.005 62.05C44.217 60.085 43.913 57.225 45.304 55.102L36.402 46.198C34.716 46.423 32.558 46.38 31.035 45.167C28.179 42.888 27.344 40.3 23.667 33.538C25.787 31.417 26.539 30.665 28.658 28.546C35.998 32.415 38.01 33.058 40.287 35.915C41.502 37.436 41.545 39.597 41.319 41.28L50.253 50.214ZM51.004 69.854L43.16 77.7C41.391 79.468 38.599 79.579 36.966 77.945L34.14 75.12C32.506 73.484 32.615 70.695 34.385 68.925L43.595 59.714C43.761 61.161 44.386 62.579 45.44 63.736L51.004 69.854Z" fill="white"/>
</g>
<defs>
<clipPath id="clip0_227_28360">
<rect width="106" height="106" fill="white"/>
</clipPath>
</defs>
</svg>
