<svg width="106" height="106" viewBox="0 0 106 106" fill="none" xmlns="http://www.w3.org/2000/svg">
<g clip-path="url(#clip0_227_28333)">
<path d="M106.096 53.008C106.096 82.281 82.3577 106.018 53.0897 106.018C23.8167 106.018 0.0957031 82.283 0.0957031 53.008C0.0957031 23.739 23.8167 0.019043 53.0897 0.019043C82.3567 0.019043 106.096 23.739 106.096 53.008Z" fill="#C1C667"/>
<path d="M38.5859 38.525C38.2129 38.525 37.8379 38.543 37.4469 38.561C33.9429 38.845 30.7749 40.695 28.2809 43.168L2.58789 68.883C7.76389 85.414 20.7209 98.385 37.2699 103.582L78.1799 62.674C80.6679 60.182 82.5409 56.924 82.5409 53.278C82.5409 49.542 80.5619 46.211 77.9669 43.706C75.3479 41.195 72.0389 39.359 68.4649 39.095C64.4059 38.79 60.9159 40.609 58.1249 43.008C57.6459 43.438 57.1799 43.865 56.7339 44.308L52.8379 48.206C51.3069 46.193 49.7209 44.238 47.8909 42.6C45.4519 40.412 42.4259 38.704 38.9569 38.543C38.8339 38.525 38.7089 38.525 38.5859 38.525Z" fill="#A8AD51"/>
<path d="M38.9584 38.542C38.4604 38.524 37.9604 38.524 37.4464 38.561C33.7783 38.865 30.4874 40.858 27.9624 43.51C25.4334 46.161 23.5834 49.592 23.6554 53.33C23.7234 56.978 25.6474 60.199 28.1924 62.654C30.7354 65.092 33.9734 66.869 37.4634 67.121C41.5244 67.406 45.0064 65.609 47.8034 63.189C49.7214 61.535 51.3814 59.558 52.9594 57.547C54.5264 59.592 56.1474 61.603 58.0194 63.31C60.7914 65.822 64.3184 67.744 68.4264 67.474C72.0214 67.244 75.3634 65.412 77.9654 62.883C80.5624 60.359 82.5394 57.029 82.5394 53.276C82.5394 49.54 80.5604 46.209 77.9654 43.704C75.3474 41.193 72.0373 39.357 68.4633 39.093C64.4033 38.788 60.9144 40.607 58.1234 43.006C56.2544 44.627 54.6384 46.552 53.0684 48.505C51.4664 46.388 49.8104 44.322 47.8904 42.598C45.4524 40.412 42.4274 38.703 38.9584 38.542ZM37.8924 44.059C40.1894 43.884 42.0544 44.788 44.2064 46.71C45.9484 48.275 47.7314 50.552 49.5264 52.996C47.7314 55.305 45.9484 57.494 44.1924 59.008C42.0364 60.875 40.1334 61.781 37.8744 61.623C36.1124 61.498 33.7654 60.359 32.0204 58.67C30.2744 56.979 29.1924 54.844 29.1724 53.221C29.1354 51.496 30.1824 49.166 31.9454 47.314C33.7084 45.463 36.0954 44.219 37.8924 44.059ZM68.0524 44.594C69.8864 44.736 72.3234 45.909 74.1224 47.671C75.9334 49.414 77.0224 51.623 77.0224 53.277C77.0224 54.947 75.9324 57.175 74.1224 58.916C72.3214 60.68 69.8864 61.855 68.0694 61.959C65.7924 62.117 63.8703 61.176 61.7164 59.221C60.0074 57.658 58.2624 55.43 56.5054 53.063C58.2624 50.805 60.0074 48.667 61.7344 47.192C63.8904 45.324 65.7924 44.434 68.0524 44.594Z" fill="white"/>
</g>
<defs>
<clipPath id="clip0_227_28333">
<rect width="106" height="106" fill="white"/>
</clipPath>
</defs>
</svg>
