<svg width="106" height="106" viewBox="0 0 106 106" fill="none" xmlns="http://www.w3.org/2000/svg">
<g clip-path="url(#clip0_227_28366)">
<path d="M106.1 53.078C106.1 82.348 82.3806 106.086 53.1076 106.086C23.8396 106.086 0.101562 82.348 0.101562 53.078C0.101562 23.806 23.8396 0.0869751 53.1076 0.0869751C82.3806 0.0869751 106.1 23.806 106.1 53.078Z" fill="#4D9197"/>
<path d="M72.5404 22.454C72.0424 22.454 71.3824 22.471 71.0264 22.522C69.7104 22.685 68.4284 23.04 66.8804 23.648C66.6654 23.714 66.5754 23.769 66.5404 23.805L46.5434 43.804C46.5784 43.683 46.5964 43.578 46.6134 43.45L61.3124 28.773L61.9514 27.009L61.6154 26.882L61.5784 26.869L61.0274 26.673H61.0094L60.4394 26.496L60.4214 26.475L59.8514 26.313L59.8354 26.3L59.2474 26.153L59.2294 26.136L58.6414 26.013L58.6224 25.992L58.0344 25.871H58.0194L57.4154 25.761H57.3984L56.8104 25.657H56.7734L56.1694 25.584H56.1514L55.5464 25.516H55.5284L54.9234 25.48H54.9054L54.3004 25.445H54.2824L53.6944 25.424H53.0534L52.4654 25.445H52.4494L51.8614 25.462H51.8244L51.2564 25.498H51.2214L50.6514 25.554H50.6184L50.0484 25.621H50.0284L49.4444 25.711H49.4264L48.8564 25.818H48.8384L48.2684 25.928H48.2504L47.6804 26.067H47.6644L47.1134 26.21H47.0764L46.6854 26.314L44.3354 28.666C44.4074 28.219 44.3724 27.74 44.1924 27.263C43.7474 25.994 42.7154 25.194 41.3644 25.089C41.2744 25.07 41.1864 25.07 41.0964 25.07C40.2954 25.089 39.5134 25.445 38.9254 26.014L36.4704 28.469C36.3274 28.401 36.1154 28.363 35.7224 28.309C35.1544 28.218 34.5834 28.185 33.9954 28.166C32.2704 28.113 30.5974 28.362 29.2454 28.878C28.9974 28.97 28.6774 29.092 28.5524 29.148C28.3744 29.196 28.2674 29.252 28.2144 29.306L26.4524 31.066C26.4174 31.014 26.3804 30.962 26.3644 30.905C26.2574 30.727 26.1674 30.64 26.0444 30.658L22.6444 34.056V34.039L26.0444 30.657C25.9174 30.657 25.7574 30.745 25.5264 30.923C25.1184 31.261 24.6904 31.635 24.2974 32.027L18.2114 38.13C17.4824 38.222 16.7894 38.56 16.2724 39.091L0.19043 55.162C1.18443 79.838 19.0694 100.57 43.3404 105.123L69.1054 79.359C69.6744 78.791 69.5154 78.219 68.8224 77.099C68.4474 76.494 68.0564 75.64 67.9494 75.179C67.8244 74.7 67.5944 74.217 67.3634 74.039C66.9884 73.756 66.9704 73.645 67.0584 72.186C67.0954 71.6329 67.0954 71.117 67.0414 70.621L70.6364 67.024L70.8834 66.756L70.9024 66.738L71.3124 66.312L71.3304 66.295L71.7234 65.847V65.828L72.1144 65.369L72.1334 65.348L72.5064 64.883V64.865L72.8814 64.386L72.9004 64.367L73.2384 63.886L73.2564 63.871L73.5944 63.369L73.6124 63.35L73.9504 62.836V62.816L74.2724 62.283L74.2894 62.265L74.5944 61.748L74.6114 61.729L74.8964 61.195L74.9164 61.178L75.1824 60.645L75.2004 60.625L75.4504 60.09L75.4694 60.076L75.7174 59.519V59.505L75.9484 58.968V58.947L76.1624 58.396V58.377L76.3564 57.826V57.806L76.5514 57.255V57.236L76.7114 56.666V56.654L76.8734 56.096V56.082L76.9784 55.67L84.5044 48.123C84.5234 48.123 84.5234 48.11 84.5394 48.11C84.5924 47.893 87.4384 38.069 87.4384 38.055C87.4384 38.055 87.2094 38.142 86.9404 38.233C86.4244 38.429 85.9444 38.607 85.4814 38.747L87.9364 36.291L89.3974 31.236C90.1964 28.48 90.8564 26.202 90.8364 26.184C90.8364 26.184 90.7484 26.22 90.6584 26.255C89.0214 26.911 87.5974 27.285 86.1214 27.463C85.7304 27.501 84.6274 27.501 84.2524 27.463C82.6884 27.285 81.4064 26.771 79.7154 25.668C79.5724 25.576 79.5204 25.542 79.4854 25.542L76.8524 28.179C77.3484 26.45 77.9364 24.476 77.9364 24.458C77.9364 24.437 77.7764 24.333 77.5824 24.206C75.9074 23.102 74.5944 22.625 72.9744 22.465C72.8694 22.465 72.7264 22.446 72.5474 22.446V22.442H72.5404V22.454Z" fill="#3C7378"/>
<path d="M72.541 22.454C72.043 22.454 71.383 22.471 71.027 22.522C69.711 22.685 68.429 23.04 66.881 23.648C66.612 23.752 66.541 23.788 66.525 23.843C66.525 23.874 65.867 26.152 65.066 28.894C64.265 31.65 63.625 33.91 63.642 33.91C63.642 33.91 63.836 33.842 64.07 33.75C65.654 33.133 67.148 32.722 68.322 32.576C70.601 32.347 72.451 32.863 74.746 34.393C74.889 34.479 74.996 34.553 74.996 34.553C75.014 34.533 77.914 24.499 77.914 24.461C77.914 24.461 77.771 24.339 77.576 24.217C75.885 23.126 74.568 22.63 72.949 22.47C72.842 22.471 72.701 22.471 72.541 22.454ZM41.082 25.087C39.731 25.087 38.45 26.101 38.092 27.451C37.932 28.075 37.932 28.412 38.074 28.981C38.394 30.194 39.283 31.064 40.476 31.333C42.861 31.865 44.978 29.538 44.177 27.273C43.732 25.992 42.7 25.21 41.349 25.086C41.259 25.087 41.169 25.087 41.082 25.087ZM53.037 25.423L52.451 25.444H52.431L51.845 25.461H51.825L51.239 25.516H51.221L50.633 25.568H50.617L50.027 25.64H50.009L49.443 25.71H49.425L48.837 25.817H48.819L48.249 25.927L48.231 25.94L47.678 26.066H47.645L47.092 26.209H47.074L46.666 26.313L47.164 28.131L47.555 28.021L48.071 27.899L48.624 27.775L49.157 27.665L50.259 27.488L50.829 27.419L51.362 27.366L51.913 27.328L52.483 27.31L53.034 27.291H53.601L54.189 27.31L54.759 27.347L55.31 27.383L55.898 27.451L56.468 27.525L57.054 27.614L57.624 27.72L58.157 27.842L58.727 27.97L59.278 28.112L59.831 28.269L60.897 28.625L61.235 28.752L61.893 27.008L61.539 26.868H61.52L60.969 26.672L60.932 26.652L60.381 26.473H60.346L59.799 26.3H59.764L59.196 26.136H59.178L58.59 25.992H58.57L57.984 25.871L57.949 25.852L57.361 25.743H57.342L56.738 25.656H56.72L56.116 25.583H56.095L55.491 25.515H55.474L54.87 25.46H54.85L54.246 25.423H54.23L53.625 25.404H52.984L53.037 25.423ZM79.48 25.552L79.459 25.567C79.459 25.601 78.817 27.831 78.037 30.53C77.254 33.219 76.612 35.497 76.578 35.569L76.541 35.693L76.879 35.908C78.519 36.972 79.922 37.51 81.437 37.65C81.775 37.688 82.826 37.688 83.179 37.65C84.445 37.524 85.726 37.205 87.185 36.617C87.451 36.512 87.736 36.386 87.806 36.351L87.931 36.298L89.392 31.246C90.191 28.468 90.851 26.208 90.83 26.191C90.83 26.191 90.742 26.225 90.651 26.261C89.014 26.917 87.574 27.29 86.115 27.45C85.723 27.505 84.621 27.505 84.246 27.45C82.683 27.29 81.399 26.776 79.709 25.674C79.568 25.583 79.516 25.552 79.48 25.552ZM33.982 28.165C32.255 28.131 30.584 28.381 29.248 28.894C28.982 28.981 28.68 29.108 28.537 29.146C28.002 29.341 28.002 29.39 28.5 30.23C28.75 30.656 29.053 31.172 29.16 31.369C29.265 31.582 29.39 31.815 29.445 31.865C29.498 31.938 29.568 32.059 29.605 32.115C29.638 32.189 29.871 32.611 30.138 33.076C30.689 34.038 30.761 34.073 31.65 33.768C32.113 33.61 32.379 33.592 33.519 33.592C34.693 33.572 34.925 33.592 35.511 33.768C36.347 34.02 37.38 34.497 38.021 34.926C38.572 35.3 39.675 36.42 39.995 36.953C40.583 37.862 41.046 38.966 41.151 39.641C41.258 40.247 41.116 40.21 43.661 40.266C46.954 40.338 46.634 40.356 46.669 39.995C46.722 39.283 46.153 37.061 45.583 35.85C44.925 34.428 43.589 32.523 43.198 32.47C43.091 32.449 42.823 32.506 42.628 32.593C42.327 32.701 42.023 32.738 41.276 32.738C40.44 32.72 40.243 32.702 39.73 32.507C38.091 31.884 36.953 30.511 36.685 28.858C36.615 28.485 36.509 28.412 35.724 28.307C35.139 28.234 34.568 28.184 33.982 28.165ZM26.027 30.656C25.902 30.656 25.742 30.744 25.529 30.922C24.427 31.816 23.377 32.916 22.701 33.946C22.201 34.675 21.275 36.476 21.26 36.689C21.26 36.757 21.205 36.922 21.135 37.045C20.955 37.399 20.975 37.471 21.383 37.809C21.901 38.219 22.612 39.339 22.842 40.051C23.074 40.796 23.074 41.831 22.842 42.614C22.664 43.272 21.918 44.446 21.438 44.838C21.028 45.156 20.993 45.265 21.135 45.604C21.205 45.746 21.348 46.082 21.453 46.37C21.881 47.491 22.558 48.611 23.519 49.769C24.052 50.425 24.46 50.816 25.333 51.548C25.671 51.831 26.009 52.064 26.079 52.064C26.186 52.064 26.667 51.298 27.538 49.693C27.665 49.468 27.966 48.929 28.198 48.52C28.819 47.456 28.819 47.526 28.233 46.94C27.325 46.051 26.542 44.784 26.186 43.627C25.901 42.702 25.795 41.388 25.918 40.445C26.133 38.663 26.861 37.168 28.145 35.869C28.856 35.141 28.856 35.16 28.145 34.003C27.665 33.238 27.504 32.956 27.504 32.917C27.504 32.9 27.379 32.686 27.236 32.436C27.076 32.205 26.898 31.904 26.843 31.799C26.79 31.67 26.683 31.491 26.613 31.37C26.558 31.261 26.435 31.051 26.345 30.923C26.24 30.744 26.152 30.656 26.027 30.656ZM68.697 34.411C68.269 34.43 67.824 34.447 67.539 34.479C66.205 34.663 64.676 35.084 63.322 35.636L63.109 35.728L61.703 40.675C60.92 43.381 60.262 45.672 60.244 45.764L60.191 45.903L60.386 45.835C60.758 45.673 61.738 45.317 62.148 45.195C64.39 44.534 66.294 44.41 67.984 44.856C68.998 45.139 69.996 45.604 71.189 46.37C71.365 46.491 71.525 46.599 71.525 46.599C71.525 46.599 72.203 44.305 73.021 41.495C74.424 36.671 74.496 36.402 74.459 36.37C74.424 36.35 74.23 36.224 74.017 36.085C72.486 35.104 71.275 34.624 69.783 34.447C69.533 34.411 69.105 34.411 68.678 34.411H68.697ZM76.047 37.419C76.01 37.489 73.162 47.417 73.145 47.455C73.129 47.525 74.053 48.113 74.764 48.47C75.885 49.056 76.881 49.359 78.182 49.48C78.43 49.5 79.676 49.468 79.996 49.431C81.348 49.252 82.594 48.911 84.16 48.307C84.426 48.2 84.515 48.146 84.533 48.113C84.586 47.9 87.433 38.079 87.433 38.059C87.433 38.059 87.203 38.148 86.935 38.237C85.406 38.839 84.16 39.162 82.842 39.322C82.308 39.376 81.168 39.376 80.689 39.322C79.195 39.109 77.949 38.631 76.437 37.632C76.205 37.472 76.063 37.4 76.047 37.419ZM18.572 38.093C17.504 38.093 16.418 38.697 15.814 39.642C15.296 40.445 15.226 41.723 15.654 42.635C16.08 43.505 16.685 44.019 17.646 44.343C18.927 44.765 20.474 44.179 21.24 42.97C21.472 42.597 21.758 41.687 21.758 41.301C21.758 40.853 21.473 39.979 21.188 39.536C20.654 38.718 19.514 38.093 18.572 38.093ZM45.369 42.419C45.031 42.419 44.603 42.44 44.053 42.44C41.17 42.471 41.33 42.419 41.153 43.218C40.69 45.334 39.036 47.348 37.007 48.308C35.693 48.929 35.265 49.022 33.681 49.022C32.275 49.022 31.99 48.985 31.083 48.647C30.976 48.594 30.833 48.594 30.745 48.647C30.655 48.703 30.192 49.412 29.712 50.246C29.232 51.084 28.769 51.885 28.681 52.029C28.609 52.17 28.431 52.474 28.308 52.691C28.058 53.113 28.076 53.346 28.361 53.436C28.449 53.469 28.644 53.543 28.787 53.596C29.57 53.953 31.226 54.342 32.348 54.465C33.647 54.594 36.047 54.41 36.44 54.164C36.565 54.094 36.635 53.916 36.708 53.613C36.886 52.691 37.259 51.989 38.042 51.226C38.61 50.656 39.108 50.355 39.874 50.105C40.479 49.89 42.099 49.89 42.544 50.085C43.112 50.337 43.362 50.282 43.79 49.751C44.626 48.702 45.499 47.203 45.89 46.156C46.388 44.839 46.831 42.722 46.673 42.525C46.597 42.439 46.402 42.419 45.369 42.419ZM56.42 50.73C55.635 50.746 54.852 50.871 54.283 51.121C53.232 51.564 52.325 52.496 51.933 53.543C51.632 54.359 51.578 54.947 51.525 57.666C51.472 61.652 51.382 61.957 49.462 64.5C47.185 67.543 45.991 70.32 45.991 72.648C45.991 73.627 45.137 74.701 44.106 75.037C43.713 75.18 43.215 75.516 42.967 75.801C42.557 76.281 42.539 76.389 42.647 77.547C42.717 78.276 42.682 79.078 42.557 79.539C42.166 81.139 42.61 81.582 45.014 81.939C45.903 82.084 47.202 82.418 47.912 82.703C49.639 83.4 50.545 83.504 51.504 83.152C51.932 82.99 52.412 82.633 52.609 82.383C52.892 81.974 53.106 81.885 54.549 81.691C55.848 81.513 56.506 81.513 57.84 81.672C59.459 81.867 59.514 81.904 59.779 82.418C59.922 82.72 60.349 83.131 60.722 83.345C62.002 84.111 63.496 83.662 65.189 82.029C65.775 81.459 66.773 80.765 67.574 80.34C69.691 79.236 69.851 78.826 68.801 77.1C68.428 76.496 68.035 75.641 67.93 75.18C67.823 74.701 67.576 74.237 67.342 74.059C66.987 73.77 66.969 73.668 67.041 72.207C67.201 69.41 66.506 67.635 63.836 64.109C61.756 61.316 61.469 60.588 61.469 57.795C61.469 53.635 60.475 51.617 58.108 50.943C57.629 50.798 57.023 50.73 56.42 50.73ZM41.099 51.263C40.529 51.281 39.96 51.441 39.463 51.759C38.324 52.542 37.772 53.862 38.074 55.106C38.357 56.21 39.16 57.098 40.228 57.454C41.349 57.827 42.736 57.454 43.519 56.585C44.07 55.94 44.302 55.372 44.337 54.573C44.374 53.702 44.177 53.114 43.626 52.422C43.003 51.654 42.042 51.244 41.099 51.263ZM75.564 53.064L75.511 53.435V53.456L75.42 53.984L75.316 54.536L75.191 55.068L75.047 55.601L74.906 56.152L74.744 56.685L74.565 57.206V57.225L74.387 57.741L74.172 58.274V58.292L73.959 58.788L73.729 59.327L73.479 59.841L73.213 60.357L72.945 60.857L72.66 61.372L72.357 61.868L72.039 62.351L71.699 62.83V62.851L71.379 63.295V63.316L71.041 63.777L70.668 64.219L70.313 64.65L69.94 65.074L69.549 65.5L69.301 65.75L70.635 67.066L70.901 66.779L70.922 66.76L71.33 66.334V66.315L71.724 65.873L71.742 65.852L72.133 65.413L72.151 65.392L72.506 64.913L72.524 64.892L72.899 64.431V64.415L73.254 63.913L73.272 63.895L73.61 63.399L73.629 63.378L73.948 62.864L73.967 62.845L74.287 62.329L74.308 62.311L74.609 61.776V61.757L74.914 61.227V61.206L75.197 60.671V60.66L75.465 60.123L75.483 60.105L75.713 59.57L75.733 59.551L75.963 59V58.981L76.176 58.428V58.41L76.373 57.859V57.84L76.549 57.287V57.268L76.727 56.717V56.697L76.887 56.129V56.111L77.03 55.541V55.527L77.155 54.959V54.939L77.262 54.388V54.367L77.35 53.802V53.783L77.422 53.373L75.57 53.086V53.059H75.564V53.064ZM57.379 55.32C57.682 55.32 57.967 55.424 58.215 55.658C58.91 56.301 59.123 57.545 58.713 58.431C58.608 58.683 58.447 58.861 58.34 58.861C57.824 58.824 57.752 58.666 57.842 57.863C57.912 57.244 57.879 56.992 57.647 56.779C57.487 56.619 57.293 56.492 57.219 56.492C56.918 56.492 56.526 57.029 56.526 57.439C56.526 57.74 56.438 57.844 56.188 57.844C55.725 57.844 55.6 57.439 55.834 56.656C56.08 55.818 56.738 55.303 57.379 55.32ZM53.322 55.623C53.625 55.641 53.926 55.836 54.158 56.191C54.566 56.869 54.603 57.775 54.23 57.918C53.836 58.059 53.855 58.076 53.75 57.51C53.625 56.92 53.18 56.656 52.931 57.01C52.786 57.244 52.806 57.953 52.966 58.506C53.002 58.649 52.948 58.772 52.841 58.824C52.253 59.039 51.986 56.869 52.503 56.086C52.716 55.746 53.02 55.604 53.322 55.623ZM55.119 58.076C55.635 58.058 56.24 58.31 57.308 58.805C58.359 59.326 58.676 59.553 58.711 59.875C58.801 60.428 58.232 60.961 56.791 61.67C55.401 62.369 54.957 62.4 54.228 61.957C53.499 61.529 52.27 60.336 52.27 60.092C52.27 59.822 52.965 59.18 53.962 58.524C54.391 58.236 54.729 58.076 55.119 58.076ZM32.859 59.502L31.17 60.318L31.348 60.66L31.366 60.674L31.634 61.209V61.23L31.919 61.744L31.937 61.762L32.24 62.278L32.258 62.297L32.561 62.793L32.579 62.814L32.899 63.316L32.917 63.346L33.255 63.828L33.275 63.846L33.629 64.344L33.649 64.363L34.022 64.844V64.859L34.415 65.34L34.431 65.359L34.806 65.82L34.824 65.838L35.232 66.285L35.25 66.305L35.66 66.746V66.764L36.088 67.174L36.106 67.211L36.532 67.619L36.552 67.639L36.978 68.03L36.998 68.049L37.441 68.445L37.459 68.457L37.904 68.836L37.939 68.85L38.384 69.209H38.402L38.865 69.563L38.9 69.58L39.363 69.916H39.381L39.861 70.254H39.879L40.359 70.572H40.396L40.876 70.877L40.892 70.895L41.39 71.178H41.427L41.782 71.375L42.673 69.738L42.335 69.541L41.855 69.273L41.375 68.99L40.449 68.385L39.986 68.047L39.541 67.707L39.133 67.389V67.369L38.705 67.015L38.26 66.64L37.852 66.267L37.442 65.855L37.051 65.447L36.641 65.037V65.025L36.286 64.613V64.594L35.54 63.705L35.183 63.224L34.845 62.758V62.744L34.525 62.297V62.278L33.921 61.317L33.634 60.819L33.368 60.319L33.1 59.807L32.94 59.487L32.859 59.502ZM58.037 59.895C57.879 59.895 57.361 60.141 56.881 60.428C56.276 60.801 55.742 60.996 55.119 61.047C54.338 61.121 54.158 61.065 53.572 60.588C53.197 60.301 52.859 60.106 52.806 60.158C52.663 60.301 53.66 61.064 54.23 61.244C54.513 61.336 55.011 61.369 55.351 61.316C55.992 61.23 58.5 59.908 58.037 59.895ZM47.185 73.721C47.255 73.721 47.345 73.74 47.451 73.758C48.164 73.934 48.609 74.414 49.32 75.783C49.658 76.457 50.279 77.42 50.672 77.939C52.291 80.07 52.504 80.963 51.613 81.869C51.185 82.299 50.992 82.365 50.207 82.348C49.711 82.348 49.178 82.299 49.055 82.244C48.912 82.207 48.325 81.974 47.774 81.762C47.204 81.547 46.155 81.283 45.424 81.192C43.324 80.91 43.412 81.014 43.52 78.576C43.59 77.422 43.663 76.389 43.698 76.283C43.733 76.16 44.126 75.908 44.552 75.713C44.997 75.535 45.71 75.002 46.156 74.508C46.705 73.934 46.917 73.738 47.185 73.721ZM62.148 73.861C62.254 73.861 62.326 73.965 62.326 74.162C62.326 74.34 62.486 74.701 62.681 74.945C63.144 75.533 63.836 75.515 64.957 74.877C65.742 74.432 65.918 74.395 66.362 74.555C66.881 74.731 67.129 75.123 67.36 76.159C67.414 76.439 67.662 76.907 67.875 77.206C68.854 78.521 68.713 79.007 67.041 79.839C66.453 80.126 65.526 80.786 64.976 81.3C64.408 81.819 63.713 82.35 63.394 82.477C62.576 82.815 61.597 82.78 61.08 82.368C60.262 81.733 60.209 80.768 60.85 78.421C60.992 77.925 61.153 76.962 61.205 76.265C61.258 75.591 61.418 74.771 61.545 74.452C61.703 74.097 61.916 73.884 62.096 73.864C62.111 73.861 62.131 73.861 62.148 73.861Z" fill="white"/>
</g>
<defs>
<clipPath id="clip0_227_28366">
<rect width="106" height="106" fill="white"/>
</clipPath>
</defs>
</svg>
