<svg width="106" height="106" viewBox="0 0 106 106" fill="none" xmlns="http://www.w3.org/2000/svg">
<g clip-path="url(#clip0_227_28342)">
<path d="M53.0156 0C82.2866 0 106.016 23.729 106.016 53C106.016 82.271 82.2866 106 53.0156 106C23.7446 106 0.015625 82.271 0.015625 53C0.015625 23.729 23.7436 0 53.0156 0Z" fill="#E5B615"/>
<path d="M63.3275 35.9609L55.8645 43.0859L78.8625 46.7579L74.1375 51.5059L85.2495 54.8749L80.4695 59.5999L83.9475 62.9119L77.9405 68.9709L79.3585 71.8649L45.7205 105.5L45.6095 105.484C23.9565 102.455 6.49952 86.3479 1.47852 65.4019L27.5355 39.4439L63.3275 35.9609Z" fill="#D4A914"/>
<path d="M81.7474 56.17C84.0954 56.17 86.0204 54.754 86.0204 53.043C86.0204 51.303 84.0914 49.899 81.7474 49.899H56.0754V47.674H75.7634C78.1204 47.674 80.0344 46.272 80.0344 44.541C80.0344 42.822 78.1184 41.402 75.7614 41.402H56.0754V40.335C56.0754 39.767 55.9684 39.228 55.7644 38.716L61.0734 37.239C63.3414 36.612 64.8004 34.37 64.3374 32.272C63.8824 30.159 61.6404 28.954 59.3924 29.592L35.6694 36.195C35.6364 36.195 35.6184 36.222 35.5914 36.222C33.4934 36.525 31.0874 37.24 29.5464 38.056L28.9854 38.341C26.9034 39.443 25.1904 42.256 25.1904 44.613V64.612C25.1904 66.962 26.9194 69.743 29.0104 70.821L29.7994 71.214C31.8934 72.288 35.5244 73.152 37.8694 73.152L75.7634 73.15C78.1194 73.15 80.0344 71.749 80.0344 70.025C80.0344 68.296 78.1184 66.886 75.7624 66.886H56.0754V64.657H80.0344C82.3864 64.657 84.3074 63.255 84.3074 61.529C84.3074 59.804 82.3824 58.39 80.0344 58.39H56.0754V56.17H81.7474Z" fill="white"/>
</g>
<defs>
<clipPath id="clip0_227_28342">
<rect width="106" height="106" fill="white"/>
</clipPath>
</defs>
</svg>
