<svg width="106" height="106" viewBox="0 0 106 106" fill="none" xmlns="http://www.w3.org/2000/svg">
<g clip-path="url(#clip0_227_28349)">
<path d="M53.0488 0.175049C82.3198 0.175049 106.049 23.904 106.049 53.175C106.049 82.446 82.3198 106.175 53.0488 106.175C23.7768 106.175 0.0488282 82.446 0.0488282 53.175C0.0478282 23.904 23.7768 0.175049 53.0488 0.175049Z" fill="#45ADB7"/>
<path d="M67.1371 24.57L74.3341 53.152L77.1861 67.268L39.9181 104.536C32.1231 102.55 25.0201 98.833 19.0371 93.821L12.4021 87.186C8.44106 82.457 5.29106 77.028 3.16406 71.11L50.9321 23.343L67.1371 24.57Z" fill="#3A9DA7"/>
<path d="M69.0347 24.89C67.3097 21.318 62.5597 21.46 54.8937 22.113C47.2237 22.783 48.8827 30.894 50.2127 31.611C53.1507 33.183 57.7347 31.857 57.7347 31.857C57.7347 31.857 57.3807 32.476 56.0397 32.816C54.6687 33.183 53.4327 32.795 53.1487 32.918C52.8727 33.047 52.7377 34.523 55.7627 35.424C59.5757 36.561 64.2837 33.225 64.2837 33.225C64.2837 33.225 63.9947 41.168 62.4247 46.194C61.2957 49.766 61.0287 51.402 60.9867 52.045C59.2007 50.367 56.5917 49.283 53.6837 49.283C50.8587 49.283 48.3247 50.289 46.5577 51.873C44.5717 48.412 39.0847 45.924 32.6417 45.924C30.8997 45.924 29.2117 46.113 27.6807 46.442V80.025C28.0577 80.109 28.4507 80.16 28.8627 80.16C32.7707 80.16 36.0897 75.941 37.2377 70.092C39.8977 73.477 45.5187 75.596 52.0147 75.596C56.2187 75.596 60.2537 74.389 63.1467 72.795C68.4997 71.629 78.5847 69.129 78.9487 63.65C79.4567 56.655 70.7597 28.462 69.0347 24.89Z" fill="white"/>
</g>
<defs>
<clipPath id="clip0_227_28349">
<rect width="106" height="106" fill="white"/>
</clipPath>
</defs>
</svg>
