<svg width="41" height="29" fill="none" xmlns="http://www.w3.org/2000/svg"><rect x=".987" y=".714" width="39" height="27.571" rx="3.5" fill="#fff" stroke="#F5F5F5"/><mask id="a" style="mask-type:luminance" maskUnits="userSpaceOnUse" x="0" y="0" width="41" height="29"><rect x=".987" y=".714" width="39" height="27.571" rx="3.5" fill="#fff" stroke="#fff"/></mask><g mask="url(#a)" fill="#FF3131"><path d="M29.059.214h11.429v28.571H29.059z"/><path fill-rule="evenodd" clip-rule="evenodd" d="M.487 28.786h11.429V.214H.487v28.572zm23.367-15.748c-.438.438-1.178.042-1.057-.565l.547-2.735-1.905.953-.952-2.858-.952 2.858-1.905-.953.547 2.735c.121.607-.619 1.003-1.057.565a.626.626 0 00-.885 0l-.51.51-1.905-.953.953 1.905-.481.481a.667.667 0 000 .943l2.385 2.386h2.858l.476 2.857h.952l.476-2.857h2.858l2.385-2.386a.667.667 0 000-.943l-.48-.48.952-1.906-1.905.953-.51-.51a.626.626 0 00-.885 0z"/></g></svg>