<svg width="41" height="29" fill="none" xmlns="http://www.w3.org/2000/svg"><rect x=".487" y=".214" width="40" height="28.571" rx="4" fill="#fff"/><mask id="a" style="mask-type:luminance" maskUnits="userSpaceOnUse" x="0" y="0" width="41" height="29"><rect x=".487" y=".214" width="40" height="28.571" rx="4" fill="#fff"/></mask><g mask="url(#a)"><path fill="red" d="M.487.214h40v28.571h-40z"/><path fill-rule="evenodd" clip-rule="evenodd" d="M17.63 17.357h-5.047a.667.667 0 01-.667-.666V12.31c0-.369.298-.667.667-.667h5.047V6.595c0-.368.299-.666.667-.666h4.38c.37 0 .668.298.668.666v5.048h5.047c.368 0 .667.298.667.667v4.38a.667.667 0 01-.667.667h-5.047v5.048a.667.667 0 01-.667.667h-4.381a.667.667 0 01-.667-.667v-5.048z" fill="#fff"/></g></svg>