<svg width="41" height="29" fill="none" xmlns="http://www.w3.org/2000/svg"><rect x=".487" y=".214" width="40" height="28.571" rx="4" fill="#fff"/><mask id="a" style="mask-type:luminance" maskUnits="userSpaceOnUse" x="0" y="0" width="41" height="29"><rect x=".487" y=".214" width="40" height="28.571" rx="4" fill="#fff"/></mask><g mask="url(#a)"><path fill="#F1361D" d="M.487.214h40v28.571h-40z"/><path fill-rule="evenodd" clip-rule="evenodd" d="M14.877 4.644l1.383.236 1.038.945.236-1.384.945-1.037-1.384-.236-1.037-.945-.236 1.383-.945 1.038zm3.706 4.839l1.199-.73 1.403.033-.73-1.2.033-1.402-1.2.73-1.402-.033.73 1.199-.033 1.403zm-1.627 7.832l-1.172.771-.017-1.403-.77-1.173 1.402-.016 1.173-.771.017 1.403.77 1.173-1.403.016zm1.019-3.627l1.395-.155 1.258.622-.155-1.394.622-1.258-1.394.154-1.258-.622.154 1.395-.622 1.258zm-7.965-1.721L6.653 14.36l1.24-3.934-3.316-2.455 4.125-.037 1.31-3.911 1.31 3.911 4.124.037-3.315 2.455 1.24 3.934-3.36-2.394z" fill="#FFDC42"/></g></svg>