<svg width="41" height="29" fill="none" xmlns="http://www.w3.org/2000/svg"><rect x=".487" y=".214" width="40" height="28.571" rx="4" fill="#fff"/><mask id="a" style="mask-type:luminance" maskUnits="userSpaceOnUse" x="0" y="0" width="41" height="29"><rect x=".487" y=".214" width="40" height="28.571" rx="4" fill="#fff"/></mask><g mask="url(#a)"><path fill="#0A17A7" d="M.487.214h40v28.571h-40z"/><path fill-rule="evenodd" clip-rule="evenodd" d="M-1.344-2.523L15.726 8.99V-1.69h9.524V8.99L42.32-2.522 44.45.635 30.954 9.738h9.534v9.524h-9.534l13.496 9.103-2.13 3.159L25.25 20.01v10.68h-9.524V20.01l-17.07 11.514-2.13-3.159 13.496-9.103H.488V9.738h9.534L-3.475.635l2.13-3.158z" fill="#fff"/><path d="M27.156 9.26L45.25-2.642M29.077 19.782l16.22 10.933M11.924 9.23L-4.997-2.174M13.758 19.65L-4.995 32.086" stroke="#DB1F35" stroke-width="1.333" stroke-linecap="round"/><path fill-rule="evenodd" clip-rule="evenodd" d="M.487 17.357H17.63v11.429h5.714V17.357h17.143v-5.714H23.344V.214H17.63v11.429H.487v5.714z" fill="#E6273E"/></g></svg>