<svg width="41" height="29" fill="none" xmlns="http://www.w3.org/2000/svg"><rect x=".487" y=".214" width="40" height="28.571" rx="4" fill="#fff"/><mask id="a" style="mask-type:luminance" maskUnits="userSpaceOnUse" x="0" y="0" width="41" height="29"><rect x=".487" y=".214" width="40" height="28.571" rx="4" fill="#fff"/></mask><g mask="url(#a)" fill-rule="evenodd" clip-rule="evenodd"><path d="M.487 28.786h40V.214h-40v28.572z" fill="#F0371D"/><path d="M21.325 6.122c1 .325 1.284 2.211.634 4.212-.65 2-1.988 3.36-2.989 3.034-1-.325-1.284-2.21-.634-4.211.65-2.001 1.988-3.36 2.989-3.035zm-8.892 5.244c.619-.851 2.5-.539 4.202.698 1.702 1.236 2.58 2.929 1.962 3.78-.618.851-2.5.538-4.201-.698-1.702-1.237-2.581-2.93-1.963-3.78zm12.816 3.497c2.104 0 3.81-.853 3.81-1.905s-1.706-1.905-3.81-1.905-3.81.853-3.81 1.905 1.706 1.905 3.81 1.905zm.476-1.315a.476.476 0 100-.953.476.476 0 000 .953zm-.777 8.878c-1 .325-2.339-1.033-2.99-3.034-.65-2.001-.365-3.887.635-4.212 1-.325 2.339 1.034 2.989 3.034.65 2.001.366 3.887-.634 4.212zm-1.591-2.988a.476.476 0 10.905-.294.476.476 0 00-.905.294zm-8.684 2.004c-.619-.851.26-2.544 1.962-3.78 1.702-1.237 3.583-1.55 4.201-.698.619.85-.26 2.543-1.962 3.78-1.702 1.236-3.583 1.549-4.201.698zm2.35-2.436a.476.476 0 10.56.77.476.476 0 00-.56-.77zm-1.546-6.158a.476.476 0 10-.56.77.476.476 0 00.56-.77zm5.378-3.373a.476.476 0 10-.905-.295.476.476 0 00.905.295z" fill="#fff"/></g></svg>