<svg width="25" height="25" fill="none" xmlns="http://www.w3.org/2000/svg"><path fill-rule="evenodd" clip-rule="evenodd" d="M5.996 16.567s-.101-1.58.645-2.858c.748-1.278 2.206-3.328 2.613-4.203.407-.873.814-1.612.814-2.855 0-1.244-.508-3.867.881-5.178 1.391-1.31 3.835-1.212 4.683-.202.847 1.01 1.12 1.985 1.153 4.405.034 2.419.544 2.419 1.866 4.47 1.323 2.052 2.239 3.766 2.308 4.875.067 1.11-.238 1.748-.238 1.748s1.018.27 1.018.941c0 .672.305 1.21.849 1.614.543.403 1.424 1.177.61 1.816-.816.639-1.901 1.142-2.782 1.882-.883.74-1.493 1.48-2.478 1.48-.985 0-1.594-.405-1.833-.875-.237-.471-.645-.873-2.374-1.042-1.729-.169-2.647.134-2.714.437-.069.304-.746 1.244-1.732 1.244-.982 0-2.679-.806-3.697-.907-1.018-.1-2.884-.47-2.748-1.378.135-.907.476-1.377.238-2.251-.238-.874.101-1.345 1.018-1.648.916-.302 1.187-.302 1.425-.84.239-.543.475-.675.475-.675zM10.79 6.204l.237-.151s-.323-.387-.323-.672c0-.286.22-.773.627-.472.408.303.238.875.238.875l.271-.1s.017-.59-.05-.907a.984.984 0 00-.61-.706c-.306-.118-.78.167-.78.924 0 .756.39 1.21.39 1.21zm2.239-.605l.475.22-.051-.136s-.018-.487.135-.774c.153-.285.882-.538 1.018.118.135.656-.305 1.009-.305 1.009l.475.203s.102-.034.222-.303c.119-.269.34-.639.187-1.362-.154-.723-1.105-.992-1.68-.488-.578.504-.476 1.513-.476 1.513zm4.435 17.454c1.223.47 1.8-.134 2.647-.907.848-.773 2.714-1.345 2.103-1.748-.61-.403-.78-1.513-.95-1.948-.17-.438-.746-.706-1.052-.371-.305.336-1.12.774-1.799.84-.678.069-1.254-.672-1.254-.672v.773s.101.672.034 1.21a15.364 15.364 0 01-.375 1.884c-.17.639.646.939.646.939zM3.961 20.768c-.126.935-.058 1.249 1.018 1.478.892.191 1.56.27 2.781.807 1.222.537 1.9.37 2.138-.034.236-.403.102-1.243-.34-1.714-.442-.47-1.629-2.555-2.307-3.328-.679-.773-.883-.202-1.324.2-.441.405-1.255.337-1.764.741-.508.405-.077.917-.202 1.85zm6.31-.236c2.307.975 3.529.538 4.547-.032 1.018-.572 1.425-.774 1.39-2.152-.033-1.377.475-1.748.916-2.017.44-.27.306-.873.272-1.513-.034-.64-1.222-2.722-1.562-3.798a120.831 120.831 0 00-1.017-2.992s-.507.337-.814.538c-.306.202-.95.706-1.9.537a2.013 2.013 0 01-1.357-.907s0 .773-.474 2.118c-.476 1.344-.814 1.579-1.561 3.092-.747 1.513-.747 3.193.033 4.067.78.874 2.239 1.748 2.239 2.252 0 .503-.711.807-.711.807zm.263-13.437s.212.206.64.431c.203.108.366.298.752.327 1.187.083 2.375-.623 2.646-.808.272-.183.712-.252-.221.454-.933.705-1.697.823-2.222.806-.526-.016-1.205-.538-1.205-.538s.746.706 1.12.824c.374.118.83.034 1.273-.201.442-.236 1.051-.656 1.492-.908.44-.252.323-.672.153-.857-.17-.184-1.155-.52-1.816-.74-.66-.218-1.186-.117-1.781.252-.594.37-.831.958-.831.958z" fill="#B8B8B8"/></svg>