<svg width="41" height="29" fill="none" xmlns="http://www.w3.org/2000/svg"><rect x=".987" y=".714" width="39" height="27.571" rx="3.5" fill="#fff" stroke="#F5F5F5"/><mask id="a" style="mask-type:luminance" maskUnits="userSpaceOnUse" x="0" y="0" width="41" height="29"><rect x=".987" y=".714" width="39" height="27.571" rx="3.5" fill="#fff" stroke="#fff"/></mask><g mask="url(#a)" fill-rule="evenodd" clip-rule="evenodd"><path d="M.487 15.453h40V.213h-40v15.239z" fill="#E12237"/><path d="M11.916 3.072c.585 0 1.146.105 1.664.298a5.714 5.714 0 100 8.926 4.762 4.762 0 11-1.664-9.225zm-.953 4.761a.952.952 0 100-1.904.952.952 0 000 1.904zm2.858 2.858a.952.952 0 11-1.905 0 .952.952 0 011.905 0zm2.857.952a.952.952 0 100-1.905.952.952 0 000 1.905zm2.857-4.762a.952.952 0 11-1.905 0 .952.952 0 011.905 0zm-4.762-1.905a.952.952 0 100-1.904.952.952 0 000 1.904z" fill="#fff"/></g></svg>