<svg width="41" height="29" fill="none" xmlns="http://www.w3.org/2000/svg"><rect x=".487" y=".214" width="40" height="28.571" rx="4" fill="#fff"/><mask id="a" style="mask-type:luminance" maskUnits="userSpaceOnUse" x="0" y="0" width="41" height="29"><rect x=".487" y=".214" width="40" height="28.571" rx="4" fill="#fff"/></mask><g mask="url(#a)"><path fill="#E92434" d="M.487.214h40v28.571h-40z"/><path fill-rule="evenodd" clip-rule="evenodd" d="M27.66 15.598l-1.75 2.12.12-2.746-2.559-1.009 2.65-.736.169-2.744 1.518 2.292 2.663-.687-1.712 2.152 1.477 2.32-2.576-.962z" fill="#fff"/><path fill-rule="evenodd" clip-rule="evenodd" d="M25.348 9.237a7.442 7.442 0 00-4.385-1.404c-3.945 0-7.143 2.985-7.143 6.667s3.198 6.667 7.143 6.667a7.442 7.442 0 004.385-1.404 8.572 8.572 0 110-10.526z" fill="#fff"/></g></svg>