<svg width="106" height="106" fill="none" xmlns="http://www.w3.org/2000/svg"><g clip-path="url(#clip0_227_27762)"><path d="M106 53.098c0 29.275-23.719 53.013-52.992 53.013-29.27 0-53.006-23.737-53.006-53.013C.002 23.827 23.738.108 53.008.108 82.281.107 106 23.827 106 53.098z" fill="#EB5D42"/><path d="M24.306 42.377c-1.297 0-2.45.336-3.463 1.013a6.558 6.558 0 00-.957.78L.996 63.076c4.137 21.551 21.145 38.324 42.764 42.16L86.756 62.24a5.28 5.28 0 00.977-1.381c.408-.818.605-1.726.605-2.701 0-.977-.197-1.863-.605-2.68-.407-.799-.959-1.457-1.649-1.918a3.932 3.932 0 00-2.289-.709c-.836 0-1.599.232-2.31.709a4.085 4.085 0 00-.692.567l-3.978 3.978 8.166-15.303H82.32l-5.235 5.236c0-.942-.215-1.809-.604-2.608a4.912 4.912 0 00-1.668-1.918 4.023 4.023 0 00-2.31-.709c-.813 0-1.578.231-2.27.709a3.657 3.657 0 00-.714.568l-3.46 3.48a7.415 7.415 0 00-1.616-3.106c-1.172-1.388-2.627-2.078-4.366-2.078-1.296 0-2.449.336-3.462 1.013a6.627 6.627 0 00-.959.78L42.003 57.824l.71-1.496c.708-1.453 1.241-2.697 1.58-3.744.335-1.064.513-2.112.513-3.159 0-1.898-.604-3.551-1.81-4.97-1.19-1.388-2.646-2.078-4.384-2.078-1.297 0-2.45.336-3.463 1.013a6.808 6.808 0 00-.96.78l-3.815 3.815c-.23-1.313-.799-2.482-1.686-3.53-1.19-1.388-2.644-2.078-4.382-2.078z" fill="#BF4C35"/><path d="M24.306 42.377c-1.297 0-2.451.336-3.463 1.013-.994.654-1.775 1.595-2.342 2.786-.553 1.19-.836 2.54-.836 4.031 0 1.703.408 3.121 1.207 4.256.799 1.12 1.971 1.865 3.498 2.256l1.988-4.223c-.729 0-1.297-.23-1.705-.694-.408-.459-.604-1.063-.604-1.809 0-.494.09-.959.283-1.367.178-.428.445-.746.766-.979a1.78 1.78 0 011.082-.352c.426 0 .781.107 1.119.316.318.23.566.535.744.925.178.394.268.853.268 1.366 0 .568-.25 1.386-.781 2.483l-5.309 11.063h4.775l3.406-7.12c.709-1.454 1.244-2.698 1.58-3.745.336-1.064.516-2.112.516-3.159 0-1.898-.604-3.55-1.811-4.97-1.189-1.387-2.643-2.077-4.381-2.077zm14.307 0c-1.297 0-2.451.336-3.463 1.013-.996.654-1.777 1.595-2.346 2.786-.551 1.19-.834 2.54-.834 4.031 0 1.703.408 3.121 1.207 4.256.799 1.12 1.973 1.865 3.5 2.256l1.988-4.223c-.729 0-1.297-.23-1.705-.694-.408-.459-.604-1.063-.604-1.809 0-.494.09-.959.283-1.367.178-.428.445-.746.764-.979a1.789 1.789 0 011.084-.352c.408 0 .781.107 1.117.316.32.23.568.535.746.925.178.394.266.853.266 1.366 0 .568-.248 1.386-.779 2.483l-5.309 11.063h4.775l3.408-7.12c.709-1.454 1.242-2.698 1.58-3.745.336-1.064.514-2.112.514-3.159 0-1.898-.604-3.55-1.811-4.97-1.188-1.387-2.643-2.077-4.381-2.077zm21.461 0c-1.295 0-2.449.336-3.461 1.013-.994.654-1.775 1.595-2.344 2.786-.552 1.19-.834 2.54-.834 4.031 0 1.703.408 3.121 1.208 4.256.799 1.12 1.971 1.865 3.479 2.256l2.006-4.223c-.727 0-1.295-.23-1.703-.694-.408-.459-.604-1.063-.604-1.809 0-.494.088-.959.266-1.367a2.42 2.42 0 01.781-.979c.32-.244.691-.352 1.084-.352.408 0 .779.107 1.1.316.338.23.586.535.764.925.179.394.267.853.267 1.366 0 .568-.267 1.386-.781 2.483l-5.307 11.063h4.774l3.408-7.12c.711-1.454 1.225-2.698 1.58-3.745.338-1.064.516-2.112.516-3.159 0-1.898-.604-3.55-1.83-4.97-1.173-1.387-2.629-2.077-4.369-2.077zm12.426.426c-.814 0-1.578.231-2.27.71-.713.462-1.263 1.1-1.67 1.917a6.082 6.082 0 00-.604 2.664c0 .977.213 1.881.604 2.718.407.812.957 1.453 1.67 1.93a4.01 4.01 0 002.27.711c.836 0 1.6-.246 2.309-.71a5.087 5.087 0 001.668-1.93c.41-.82.605-1.727.605-2.719 0-.96-.195-1.847-.605-2.664a4.904 4.904 0 00-1.668-1.918 4.027 4.027 0 00-2.309-.709zm9.818 0L71.277 63.504h2.662l11.041-20.7h-2.662zM72.5 46c.355 0 .658.091.924.281.283.184.498.427.658.764.158.322.248.658.248 1.051 0 .604-.178 1.1-.533 1.508-.355.427-.781.621-1.297.621-.479 0-.904-.213-1.26-.62a2.272 2.272 0 01-.531-1.509c0-.587.176-1.084.514-1.475.355-.408.781-.62 1.277-.62zm11.293 6.853c-.836 0-1.598.232-2.309.708-.693.461-1.242 1.101-1.65 1.918a5.896 5.896 0 00-.621 2.681c0 .977.213 1.883.621 2.7.408.813.957 1.474 1.65 1.95a4.133 4.133 0 002.309.694c.834 0 1.596-.232 2.289-.695.691-.477 1.242-1.117 1.65-1.949.408-.817.604-1.725.604-2.7 0-.975-.196-1.863-.604-2.68-.408-.8-.959-1.458-1.65-1.919a3.948 3.948 0 00-2.289-.708zm0 3.177c.514 0 .939.213 1.295.621.336.408.514.922.514 1.508s-.178 1.084-.531 1.492c-.354.408-.782.604-1.276.604-.498 0-.924-.195-1.262-.604A2.228 2.228 0 0182 58.158c0-.586.16-1.1.517-1.508.333-.408.76-.62 1.276-.62zm-34.619 1.9c-.709 0-1.313.282-1.793.85-.496.567-.727 1.28-.727 2.112 0 .818.248 1.51.727 2.076.499.568 1.102.855 1.793.855.711 0 1.297-.287 1.795-.855.496-.566.744-1.258.744-2.076 0-.549-.105-1.045-.336-1.492a2.467 2.467 0 00-.906-1.063 2.195 2.195 0 00-1.297-.408z" fill="#fff"/></g><defs><clipPath id="clip0_227_27762"><path fill="#fff" d="M0 0h106v106H0z"/></clipPath></defs></svg>