<svg width="106" height="106" fill="none" xmlns="http://www.w3.org/2000/svg"><g clip-path="url(#clip0_227_27787)"><path d="M106.096 53.008c0 29.271-23.738 53.01-53.004 53.01-29.275 0-52.996-23.737-52.996-53.01C.096 23.737 23.817.019 53.092.019c29.265 0 53.004 23.718 53.004 52.989z" fill="#6E7CBC"/><path d="M40.043 24.61a1.935 1.935 0 00-.887.156 2.05 2.05 0 00-.713.484l-3.684 3.682-1.746.018c-2.72.037-2.95.055-3.82.338-1 .34-1.875.891-2.604 1.604L.276 57.207C2.48 84.754 25.452 106 53.09 106.018l26.512-26.514c.857-.857 1.457-1.957 1.8-3.273.087-.356.087-1.963.104-20.657.018-13.79 0-20.446-.035-20.819-.283-2.49-2.102-4.713-4.447-5.465-.93-.283-1.12-.3-3.825-.338l-2.563-.037-2.244 2.244V26.3l-.14-.354c-.198-.48-.73-.998-1.194-1.193a2.314 2.314 0 00-.803-.14c-.283 0-.55.034-.766.108a2.438 2.438 0 00-.813.512l-3.725 3.736h-16.58l-2.26 2.242v-1.066c.011-3.736.011-3.807-.11-4.127a2.114 2.114 0 00-1.973-1.406l.015-.002z" fill="#5C689E"/><path d="M40.043 24.61a1.935 1.935 0 00-.887.156c-.48.18-1.018.7-1.213 1.178l-.123.354-.018 3.561c-.02 2.6 0 3.666.035 3.898.178.766.693 1.37 1.426 1.635.443.16 1.227.11 1.652-.105a2.203 2.203 0 001.014-.979l.182-.355.014-3.807c.018-3.756.018-3.809-.104-4.129a2.116 2.116 0 00-1.978-1.407zm26.211 0c-.283 0-.549.035-.766.11-.637.243-1.084.69-1.316 1.296-.105.32-.105.412-.088 4.13v3.806l.18.318c.264.535.785.98 1.373 1.176.068.018.373.037.674.018.426 0 .568-.033.855-.178a2.076 2.076 0 001.03-1.068l.194-.373v-7.547l-.142-.354c-.196-.479-.729-.998-1.192-1.193a2.313 2.313 0 00-.802-.14zM35.58 28.913l-2.564.037c-2.72.037-2.95.055-3.82.338a6.61 6.61 0 00-4.469 5.412c-.068.643-.068 40.444 0 41.03a6.748 6.748 0 002.76 4.521c.746.533 1.885.98 2.848 1.121.195.035 10.268.053 22.972.035 20.92 0 22.65-.019 23.004-.11 2.65-.654 4.434-2.436 5.092-5.066.088-.357.088-1.963.123-20.658 0-13.79 0-20.446-.053-20.819-.283-2.49-2.1-4.713-4.447-5.465-.93-.283-1.12-.3-3.826-.338l-2.563-.037-.039 2.531c-.015 2.348-.015 2.543-.14 2.97a4.532 4.532 0 01-1.515 2.331c-.442.354-1.264.746-1.832.875-.606.123-1.565.086-2.153-.09a4.388 4.388 0 01-2.67-2.316c-.394-.8-.394-.766-.429-3.648l-.03-2.598H44.372l-.037 2.598c-.037 2.547-.037 2.64-.158 3.03-.482 1.438-1.529 2.485-2.939 2.936-.625.193-1.598.213-2.26.053a4.391 4.391 0 01-3.342-3.723c-.039-.264-.057-1.494-.057-2.72v-2.23zm-6.55 15.341h48.155l-.02 15.535c-.018 14.732-.018 15.551-.123 15.781a2.454 2.454 0 01-1.369 1.39c-.252.09-1.336.106-22.424.106-12.507 0-22.277-.019-22.419-.035a2.242 2.242 0 01-1.744-1.803c-.039-.195-.057-5.517-.057-15.638V44.254zm5.055 2.385a2.386 2.386 0 00-2.387 2.383v8.044a2.391 2.391 0 002.387 2.387h8.041a2.387 2.387 0 002.387-2.387v-8.044a2.382 2.382 0 00-2.387-2.383h-8.04zm14.77 0a2.38 2.38 0 00-2.38 2.383v8.044a2.385 2.385 0 002.38 2.387h8.044a2.373 2.373 0 002.365-2.387v-8.044a2.368 2.368 0 00-2.365-2.383h-8.044zm14.925 0a2.38 2.38 0 00-2.38 2.383v8.044a2.385 2.385 0 002.38 2.387h8.047a2.385 2.385 0 002.381-2.387v-8.044a2.38 2.38 0 00-2.38-2.383H63.78zM34.084 61.852a2.387 2.387 0 00-2.387 2.383v8.046c0 1.315 1.07 2.36 2.387 2.36h8.041c1.322 0 2.387-1.045 2.387-2.36v-8.046a2.384 2.384 0 00-2.387-2.383h-8.04zm14.77 0a2.38 2.38 0 00-2.38 2.383v8.046a2.361 2.361 0 002.38 2.36h8.044a2.35 2.35 0 002.365-2.36v-8.046a2.37 2.37 0 00-2.365-2.383h-8.044zm14.925 0a2.382 2.382 0 00-2.38 2.383v8.046a2.361 2.361 0 002.38 2.36h8.047a2.363 2.363 0 002.381-2.36v-8.046a2.383 2.383 0 00-2.38-2.383h-8.048zm7.73 1.62h.194l.461.321c.641.41.658.426.727.59a.575.575 0 01-.029.512c-.038.058-1.266 1.87-2.725 4.021-2.885 4.254-2.762 4.076-3.025 4.164a.875.875 0 01-.502 0c-.049-.035-.159-.07-.207-.107-.147-.07-3.313-3.22-3.403-3.397a.512.512 0 01-.03-.48c.03-.106.887-.96 1.01-1.03a.626.626 0 01.502 0c.037.018.551.498 1.12 1.067l1.05 1.05.035-.076c.018-.019 1.032-1.49 2.223-3.27 1.8-2.648 2.207-3.236 2.295-3.29.086-.076.125-.076.303-.076z" fill="#fff"/></g><defs><clipPath id="clip0_227_27787"><path fill="#fff" d="M0 0h106v106H0z"/></clipPath></defs></svg>