<svg width="106" height="106" fill="none" xmlns="http://www.w3.org/2000/svg"><g clip-path="url(#clip0_227_27770)"><path d="M105.943 52.972c0 29.273-23.734 53.012-53.008 53.012-29.271 0-52.991-23.738-52.991-53.012 0-29.268 23.72-52.986 52.99-52.986 29.275-.001 53.009 23.718 53.009 52.986z" fill="#4D9197"/><path d="M53.328 24.024c-2.455.037-4.732.711-6.71 1.691-2.703 1.314-4.945 3.182-6.58 4.822l-3.221 3.221H22.509a4.406 4.406 0 00-3.166 1.316L-.001 54.414c.768 28.684 24.234 51.549 52.937 51.568 1.298 0 2.58-.06 3.876-.144l29.717-29.735a4.459 4.459 0 001.318-3.166V38.222a4.461 4.461 0 00-4.486-4.463H68.792c-3.737-5.27-7.649-8.131-11.515-9.221a13.35 13.35 0 00-2.901-.496 10.568 10.568 0 00-1.048-.018z" fill="#387378"/><path d="M53.328 24.024c-2.455.037-4.732.711-6.71 1.691-4.945 2.418-8.326 6.6-9.378 8.043H22.51a4.454 4.454 0 00-4.465 4.463v34.716a4.455 4.455 0 004.465 4.465h60.87a4.459 4.459 0 004.47-4.465V38.222a4.458 4.458 0 00-4.47-4.463H68.79c-3.737-5.27-7.65-8.131-11.513-9.221a13.167 13.167 0 00-2.902-.496 10.543 10.543 0 00-1.047-.018zm.283 3.913c.836 0 1.709.129 2.596.375 2.314.66 4.898 2.246 7.615 5.447H42.419c1.457-1.531 3.527-3.348 5.925-4.518 1.656-.82 3.399-1.334 5.267-1.304zm-.675 12.509c8.218 0 14.895 6.674 14.895 14.895 0 8.222-6.677 14.896-14.895 14.896-8.22 0-14.876-6.676-14.876-14.896s6.656-14.895 14.876-14.895zm-2.92 3.205v8.77h-8.773v5.84h8.773v8.771h5.855v-8.771h8.754v-5.84H55.87v-8.77h-5.855z" fill="#fff"/></g><defs><clipPath id="clip0_227_27770"><path fill="#fff" d="M0 0h106v106H0z"/></clipPath></defs></svg>