<svg width="107" height="106" viewBox="0 0 107 106" fill="none" xmlns="http://www.w3.org/2000/svg">
<g clip-path="url(#clip0_1_6303)">
<path fill-rule="evenodd" clip-rule="evenodd" d="M53.4312 0.153809C82.7032 0.153809 106.431 23.8828 106.431 53.1538C106.431 82.4268 82.7021 106.154 53.4312 106.154C24.1602 106.154 0.431152 82.4268 0.431152 53.1538C0.431152 23.8828 24.1602 0.153809 53.4312 0.153809Z" fill="#E68538"/>
<path fill-rule="evenodd" clip-rule="evenodd" d="M76.0661 20.8846L67.5901 33.4426L65.9671 39.2646L73.6061 40.6276L65.7371 48.5476L74.4261 55.2766L71.2501 58.5536L74.4041 67.8426L70.1871 72.0266L72.9431 81.2806L48.3181 105.908L47.9611 105.875C26.0911 103.633 8.16614 88.0956 2.39014 67.4786L50.0011 19.8696L76.0661 20.8846Z" fill="#D4772B"/>
<path fill-rule="evenodd" clip-rule="evenodd" d="M56.8519 30.3729C56.3499 30.2419 56.0749 30.0819 56.0299 29.8979C55.9729 29.7279 56.0299 29.4879 56.1959 29.2139C56.3909 28.8779 56.6759 28.6119 57.0359 28.4329C57.4129 28.2489 57.7819 28.1419 58.1709 28.1129L56.8519 30.3729ZM57.0799 34.8089C56.8509 35.2089 56.5429 35.5059 56.1599 35.6959C55.7729 35.8949 55.3609 36.0029 54.9329 36.0379L56.3669 33.5649C56.8179 33.6569 57.0859 33.8169 57.2049 34.0159C57.3089 34.2269 57.2699 34.4839 57.0799 34.8089ZM61.0999 25.5639L62.3969 23.3279H60.8149L59.5079 25.5939C57.9769 25.7329 56.6169 26.1429 55.4119 26.8229C54.2129 27.4969 53.3279 28.3229 52.7689 29.2899C52.3919 29.9559 52.1689 30.4949 52.1299 30.9169C52.0909 31.3449 52.1629 31.6979 52.3469 32.0009C52.5249 32.3149 52.8039 32.5499 53.1519 32.7219C53.5019 32.8979 53.8889 33.0459 54.3109 33.1709L55.0609 33.3759L53.5019 36.0619C52.7299 36.0269 52.0029 35.8779 51.3409 35.6209C50.6959 35.3589 50.2689 35.1309 50.0749 34.9259H49.7719L48.1449 37.7289C48.4869 37.9849 49.0449 38.1899 49.8049 38.3619C50.5529 38.5339 51.2779 38.6199 51.9689 38.6259L50.6619 40.8739H52.2599L53.5849 38.5749C54.3449 38.5399 55.0929 38.3969 55.8119 38.1569C56.5369 37.9249 57.2099 37.6099 57.8259 37.2449C58.4449 36.8779 58.9919 36.4679 59.4939 35.9769C60.0039 35.4969 60.4199 34.9829 60.7339 34.4419C61.3339 33.3889 61.4819 32.5849 61.1679 32.0319C60.8299 31.4709 60.0879 31.0439 58.9179 30.7529L58.1699 30.5639L59.5979 28.1089C60.3009 28.1459 60.8769 28.2539 61.3319 28.4229C61.7909 28.5829 62.1779 28.8179 62.4799 29.1029H62.7829L64.3979 26.3239C64.1069 26.1519 63.6229 25.9819 62.9549 25.8379C62.2809 25.6739 61.6819 25.5939 61.0999 25.5639ZM64.8959 41.3339C64.8959 41.7969 64.9119 42.2009 64.9469 42.5329H42.7669C42.7549 42.3339 42.7489 42.0879 42.7489 41.8029C42.7489 39.6449 43.1359 35.4709 45.6199 30.8479C47.9849 26.4279 50.2839 22.8709 51.0559 21.6959H73.9099C72.5409 23.6199 70.0919 27.1609 67.8829 30.9169C65.3809 35.1679 64.8959 39.0059 64.8959 41.3339ZM67.0079 62.5489C67.0079 63.8579 65.9469 64.9139 64.6329 64.9139C63.3259 64.9139 62.2579 63.8569 62.2579 62.5489C62.2579 61.2419 63.3239 60.1759 64.6329 60.1759C65.9469 60.1759 67.0079 61.2419 67.0079 62.5489ZM64.4449 55.5569H74.3399V57.4109H64.4449C60.7669 57.4109 57.9879 59.8859 57.9819 62.5499C57.9879 65.2299 60.7669 67.6909 64.4449 67.6909H74.3399V69.5449H64.4449C59.9919 69.5269 56.1599 66.5489 56.1269 62.5509C56.1619 58.5429 59.9899 55.5569 64.4449 55.5569ZM76.4629 21.3239C76.6739 21.0389 76.7089 20.6739 76.5529 20.3529C76.3949 20.0439 76.0739 19.8389 75.7189 19.8389H50.5659C50.2569 19.8389 49.9609 19.9929 49.7889 20.2569C49.7729 20.2669 46.9409 24.4679 43.9959 29.9659C42.3569 33.0029 41.5739 35.8549 41.2009 38.1649H35.3869C32.4569 38.1649 30.0649 40.5579 30.0649 43.4849V77.5869C30.0649 80.5149 32.4579 82.9129 35.3869 82.9129H69.0239C71.9519 82.9129 74.3399 80.5149 74.3399 77.5869V45.9709H37.7999C35.7549 45.9709 34.0929 44.8579 34.0929 43.4939C34.0949 42.1229 35.7549 41.0099 37.7999 41.0099H40.9169C40.8939 41.2889 40.8939 41.5629 40.8939 41.8029C40.8939 42.9099 40.9959 43.5609 40.9959 43.6019C41.0659 44.0589 41.4429 44.3949 41.9159 44.3949H65.9989C66.2779 44.3949 66.5419 44.2639 66.7239 44.0509C66.8959 43.8239 66.9579 43.5509 66.9019 43.2779C66.9019 43.2659 66.7479 42.5869 66.7479 41.3349C66.7479 41.2329 66.7599 41.1059 66.7639 41.0109H73.7019C72.8019 39.3249 71.0539 38.1669 69.0259 38.1669H67.0689C67.4229 36.3469 68.1179 34.1769 69.4769 31.8639C72.6989 26.3829 76.4629 21.3459 76.4629 21.3239Z" fill="white"/>
</g>
<defs>
<clipPath id="clip0_1_6303">
<rect width="106" height="106" fill="white" transform="translate(0.5)"/>
</clipPath>
</defs>
</svg>
