<svg width="106" height="106" viewBox="0 0 106 106" fill="none" xmlns="http://www.w3.org/2000/svg">
<g clip-path="url(#clip0_1_6289)">
<path d="M53.1191 0.131836C82.3901 0.131836 106.119 23.8608 106.119 53.1318C106.119 82.4028 82.3901 106.132 53.1191 106.132C23.8481 106.132 0.119141 82.4028 0.119141 53.1318C0.119141 23.8608 23.8481 0.131836 53.1191 0.131836Z" fill="#94B432"/>
<path d="M51.1544 47.626L62.2704 48.743L73.4384 37.503L82.9834 44.137L77.8974 49.649L87.3764 54.325L90.6034 68.181L52.6604 106.124C26.3404 105.9 4.59436 86.495 0.729359 61.202L0.693359 60.95L24.8304 36.814L33.2874 44.513L28.3244 49.23L39.3124 52.828L45.2504 47.902L50.4884 45.14L51.1544 47.626Z" fill="#84A12D"/>
<path d="M32.4882 47.8246H25.0822C20.2752 47.8246 16.3872 51.7116 16.3872 56.5166V68.0996H21.4852V56.0846H23.2432V68.1016H34.1792V56.0846H35.9412V68.1016H41.1792V56.5196C41.1782 51.7116 37.2872 47.8266 32.4882 47.8246ZM61.5412 60.2337L56.3712 63.8526C55.4332 64.4986 54.6952 64.0986 54.6952 62.9907V61.4816H46.2972C45.3972 61.4816 44.7112 60.7687 44.7112 59.8937V58.2197C44.7112 57.3477 45.3972 56.6236 46.2972 56.6236H54.6952V55.1357C54.6952 54.0156 55.4332 53.6236 56.3712 54.2696L61.5412 57.8927C62.4532 58.5357 62.4532 59.5826 61.5412 60.2337ZM45.3852 47.7836L50.5612 44.1546C51.4732 43.5116 52.2352 43.8926 52.2352 45.0236V46.5276H60.6392C61.5062 46.5276 62.2392 47.2406 62.2392 48.1196V49.7996C62.2392 50.6686 61.5082 51.3816 60.6372 51.3816H52.2352V52.8797C52.2352 54.0047 51.4732 54.3927 50.5612 53.7547L45.3852 50.1256C44.4772 49.4756 44.4752 48.4246 45.3852 47.7836ZM81.8442 47.8246H74.4222C69.6272 47.8246 65.7462 51.7116 65.7462 56.5166V68.0996H70.8342V56.0846H72.6022V68.1016H83.5332V56.0846H85.2872V68.1016H90.5302V56.5196C90.5292 51.7116 86.6432 47.8266 81.8442 47.8246ZM78.1412 46.6437C81.3192 46.6437 83.9032 44.0676 83.9032 40.8937C83.9032 37.7136 81.3192 35.1396 78.1412 35.1396C74.9552 35.1396 72.3702 37.7167 72.3702 40.8937C72.3712 44.0667 74.9552 46.6437 78.1412 46.6437ZM28.7952 46.6437C31.9652 46.6437 34.5452 44.0676 34.5452 40.8937C34.5452 37.7136 31.9652 35.1396 28.7952 35.1396C25.6092 35.1396 23.0292 37.7167 23.0292 40.8937C23.0292 44.0667 25.6092 46.6437 28.7952 46.6437Z" fill="white"/>
</g>
<defs>
<clipPath id="clip0_1_6289">
<rect width="106" height="106" fill="white"/>
</clipPath>
</defs>
</svg>
