<svg width="440" height="440" viewBox="0 0 440 440" fill="none" xmlns="http://www.w3.org/2000/svg">
<mask id="mask0_239_23664" style="mask-type:alpha" maskUnits="userSpaceOnUse" x="0" y="0" width="440" height="440">
<rect width="440" height="440" fill="#E5F1F1"/>
</mask>
<g mask="url(#mask0_239_23664)">
<path fill-rule="evenodd" clip-rule="evenodd" d="M235.562 415.386C234.671 414.683 230.078 412.105 225.859 398.698C221.64 385.291 226.984 380.885 230.547 378.448C234.11 376.011 335.36 334.76 335.36 334.76C335.36 334.76 339.86 332.697 347.735 334.948C355.61 337.199 353.923 337.198 358.235 342.823C362.547 348.448 365.173 357.073 366.11 360.073C367.047 363.073 363.298 366.823 361.235 368.511C359.171 370.199 236.312 415.292 235.562 415.386Z" fill="#B3C72B"/>
<path d="M234.906 416.217C234.89 416.204 234.823 416.157 234.706 416.072C233.355 415.091 228.883 411.839 224.847 399.013C222.651 392.035 222.966 387.343 224.301 384.061C225.666 380.707 228.047 378.873 229.949 377.572C233.612 375.065 334.67 333.894 334.961 333.776L334.962 333.779C335.451 333.571 340.211 331.694 348.025 333.926C354.608 335.807 354.891 336.218 357.04 339.347C357.553 340.094 358.186 341.016 359.077 342.179C363.395 347.811 366.036 356.275 367.049 359.52L367.123 359.757C367.605 361.301 367.152 362.927 366.278 364.44C365.119 366.446 363.197 368.277 361.907 369.333C361.052 370.033 343.769 376.608 322.252 384.634C285.505 398.341 236.193 416.378 235.691 416.441L235.257 416.496L234.906 416.217ZM226.873 398.383C230.525 409.989 234.372 413.187 235.771 414.221C240.146 412.711 286.481 395.716 321.512 382.65C342.834 374.697 359.898 368.232 360.562 367.689C361.722 366.74 363.443 365.109 364.443 363.378C365.044 362.337 365.375 361.279 365.096 360.389L365.022 360.152C364.041 357.006 361.481 348.801 357.391 343.467C356.468 342.263 355.816 341.314 355.287 340.543C353.526 337.979 353.295 337.642 347.444 335.97C339.94 333.826 335.811 335.719 335.799 335.724L335.757 335.745C335.467 335.863 234.606 376.956 231.144 379.324C229.485 380.46 227.412 382.049 226.269 384.858C225.098 387.741 224.85 391.957 226.873 398.383Z" fill="#8A4F59"/>
<path fill-rule="evenodd" clip-rule="evenodd" d="M329.6 115.704C329.6 115.704 327.912 114.485 338.131 112.047C348.35 109.609 352.475 112.047 353.412 114.016C354.349 115.985 348.537 118.797 344.412 118.891C340.287 118.985 335.131 118.422 332.506 117.86C329.881 117.297 329.6 116.641 329.6 115.704Z" fill="#00B8E8"/>
<path fill-rule="evenodd" clip-rule="evenodd" d="M320.88 94.3282C320.88 94.3282 318.912 91.8902 322.474 89.8282C326.037 87.7652 331.943 86.2652 337.287 84.5782C342.631 82.8912 350.787 80.0782 354.912 80.1722C359.037 80.2662 360.537 82.0472 360.35 83.8282C360.163 85.6092 356.037 88.4222 352.475 89.3592C348.912 90.2972 340.662 91.7972 336.256 92.8282C331.85 93.8592 325.1 95.1722 323.787 95.3592C322.474 95.5472 321.442 94.7972 320.88 94.3282Z" fill="#00B8E8"/>
<path fill-rule="evenodd" clip-rule="evenodd" d="M306.351 70.9843C306.351 70.9843 304.851 69.7653 307.664 67.2343C310.477 64.7033 316.477 59.3593 321.07 56.6403C325.663 53.9213 331.195 50.5463 334.851 50.2653C338.507 49.9843 339.539 52.7033 338.976 54.2033C338.413 55.7033 335.32 57.5783 328.101 60.7663C322.562 63.2123 314.922 67.1113 310.007 70.7973C308.882 71.6413 307.194 71.6413 306.351 70.9843Z" fill="#00B8E8"/>
<path fill-rule="evenodd" clip-rule="evenodd" d="M298.38 54.5788C298.38 54.5788 296.411 52.9848 298.286 50.0788C300.161 47.1728 304.099 43.2348 307.005 40.8908C309.911 38.5478 312.349 36.2978 314.599 37.2348C316.849 38.1718 316.474 40.7968 315.724 42.2968C314.974 43.7968 310.099 47.6408 308.599 48.7658C307.099 49.8908 303.911 53.0788 302.693 53.8288C301.475 54.5788 299.599 55.7968 298.38 54.5788Z" fill="#00B8E8"/>
<path fill-rule="evenodd" clip-rule="evenodd" d="M397.1 458.267C397.1 458.267 397.1 448.517 382.475 418.517C367.85 388.517 344.975 348.392 340.85 341.642C336.725 334.892 323.975 310.517 323.975 310.517C323.975 310.517 322.85 307.517 326.225 300.392C329.6 293.267 341.225 266.642 344.225 259.517C347.225 252.392 343.475 241.892 347.6 219.767C351.725 197.642 358.1 181.517 363.35 172.892C368.6 164.267 371.975 152.267 362.975 148.517C353.975 144.767 335.975 140.267 323.225 162.392C310.475 184.517 314.975 193.142 309.725 203.267C304.475 213.392 304.475 213.392 304.475 213.392C304.475 213.392 292.475 166.142 287.6 145.517C282.725 124.892 274.85 95.2665 270.35 78.0165C265.85 60.7665 260.975 47.6415 256.85 43.1415C252.725 38.6415 248.6 38.6415 244.1 39.7665C239.6 40.8915 237.725 42.3915 237.725 42.3915C237.725 42.3915 235.475 25.1415 226.85 20.6415C218.225 16.1415 211.1 18.0165 204.725 22.5165C198.35 27.0165 197.6 31.5165 196.85 33.7665C196.1 36.0165 195.35 39.7665 195.35 39.7665C195.35 39.7665 185.6 34.8915 178.475 44.6415C171.35 54.3915 172.475 65.6415 172.475 72.0165C172.475 78.3915 168.35 120.392 168.35 120.392L203.975 339.017L215.225 348.767C215.225 348.767 225.725 370.517 230.225 381.017C234.725 391.517 245.975 421.892 256.1 453.767C266.225 485.642 397.1 458.267 397.1 458.267Z" fill="#FFA37A"/>
<path fill-rule="evenodd" clip-rule="evenodd" d="M287.835 468.541C284.117 458.238 277.068 438.57 274.1 429.393C269.975 416.643 266.6 398.643 266.975 393.393C267.35 388.143 263.6 385.893 260.6 378.393C257.6 370.893 255.725 366.393 256.85 363.018C257.975 359.643 258.725 359.268 258.725 359.268C258.725 359.268 234.35 349.143 225.35 340.143C216.35 331.143 208.85 309.768 208.85 309.768L182.6 106.143C182.6 106.143 179.975 85.1427 180.725 71.6427C181.475 58.1427 183.35 51.3927 186.725 46.1427C188.603 43.2217 190.481 40.5327 191.777 38.7217C188.29 38.1767 182.881 38.6127 178.475 44.6417C171.35 54.3917 172.475 65.6417 172.475 72.0167C172.475 78.3917 168.35 120.392 168.35 120.392L203.975 339.017L215.225 348.767C215.225 348.767 225.725 370.517 230.225 381.017C234.725 391.517 245.975 421.892 256.1 453.767C258.955 462.756 271.416 467.033 287.835 468.541ZM195.996 36.8587L196.006 36.8597C196.006 36.8597 195.256 44.3597 196.1 49.7037C196.944 55.0477 197.88 59.3597 200.13 71.0787C202.381 82.7977 203.787 89.5477 204.725 94.7037C205.662 99.8597 208.288 110.923 209.6 117.86C210.912 124.798 214.005 139.33 215.319 147.767C216.632 156.205 218.319 170.08 218.319 170.08C218.319 170.08 223.382 165.017 223.757 159.955C224.132 154.893 219.819 123.955 217.757 116.455C215.694 108.955 211.569 86.6417 208.007 71.4547C204.444 56.2667 204.257 42.5797 207.257 34.5167C210.109 26.8527 209.742 24.2707 216.463 18.0757C212.217 18.2477 208.35 19.9567 204.726 22.5147C198.351 27.0147 197.601 31.5147 196.851 33.7647C196.549 34.6687 196.248 35.8117 195.996 36.8587ZM237.677 42.0557L237.631 42.2047C237.631 42.2047 229.943 48.7677 229.943 60.0177C229.943 71.2677 234.443 91.1427 236.506 101.456C238.569 111.769 243.256 130.894 245.131 138.769C247.006 146.644 250.381 161.644 250.381 161.644C250.381 161.644 256.569 156.019 254.694 139.707C252.819 123.395 246.256 102.769 242.506 90.9567C238.756 79.1447 236.693 66.5817 238.006 57.0187C239.319 47.4557 243.069 44.0807 246.819 41.6437C248.28 40.6937 249.883 40.0007 251.297 39.5077C248.971 38.8667 246.593 39.1447 244.101 39.7677C239.601 40.8927 237.726 42.3927 237.726 42.3927C237.726 42.3927 237.709 42.2727 237.677 42.0557ZM257.298 43.6627L269.45 74.6427C265.37 59.6657 261.048 48.2537 257.298 43.6627ZM297.241 184.697C296.679 190.016 295.809 196.607 294.631 200.831C292.381 208.894 287.506 219.206 285.256 225.769C283.006 232.332 283.006 237.207 283.006 237.207C283.006 237.207 290.506 230.644 296.319 225.207C301.363 220.488 304.996 213.227 306.847 208.817L304.475 213.393C304.475 213.393 301.122 200.189 297.241 184.697ZM352.053 145.587C353.587 148.271 355.361 152.866 355.569 159.956C355.944 172.706 345.819 183.581 343.194 189.019C340.569 194.457 335.694 198.394 334.756 225.207C333.818 252.02 329.693 264.77 327.068 270.957C324.443 277.144 311.693 301.145 311.693 301.145C311.693 301.145 297.818 324.208 294.63 330.583C291.442 336.958 287.505 344.646 287.505 344.646C287.505 344.646 293.88 343.521 298.943 340.896C304.006 338.271 314.318 336.396 319.381 339.771C324.444 343.146 337.569 352.146 347.319 388.896C356.07 421.88 353.493 452.294 351.11 465.773C376.549 462.566 397.1 458.269 397.1 458.269C397.1 458.269 397.1 448.519 382.475 418.519C367.85 388.519 344.975 348.394 340.85 341.644C336.725 334.894 323.037 307.894 323.037 307.894C323.037 307.894 322.287 306.206 326.225 299.081C330.163 291.956 341.225 266.643 344.225 259.518C347.225 252.393 343.475 241.893 347.6 219.768C351.725 197.643 358.1 181.518 363.35 172.893C368.6 164.268 371.975 152.268 362.975 148.518C360.099 147.318 356.302 146.045 352.053 145.587Z" fill="#FF8C61"/>
<path d="M395.974 457.452C395.645 454.58 393.649 443.865 381.518 418.981C375.891 407.438 369.057 394.423 362.544 382.394C352.102 363.109 342.475 346.337 339.942 342.194C335.811 335.432 323.071 311.077 323.034 311.006C323.011 310.961 322.991 310.914 322.974 310.868H322.972C322.968 310.859 321.7 307.462 325.263 299.937C326.721 296.859 329.766 290.033 332.986 282.721C337.174 273.211 341.597 263.022 343.247 259.104C344.532 256.052 344.495 252.183 344.443 246.859C344.38 240.334 344.297 231.685 346.555 219.574C348.456 209.374 350.835 200.439 353.362 192.919C356.356 184.009 359.564 177.067 362.442 172.338C363.533 170.546 364.542 168.603 365.368 166.619C366.764 163.268 367.634 159.823 367.485 156.839C367.345 154.028 366.276 151.623 363.831 150.134C363.449 149.901 363.027 149.687 362.565 149.495C358.191 147.672 351.637 145.666 344.674 146.796C337.732 147.922 330.322 152.189 324.14 162.917C316.409 176.334 315.1 184.723 314.042 191.515C313.354 195.932 312.767 199.698 310.664 203.751L305.414 213.876C305.146 214.397 304.507 214.601 303.986 214.333C303.705 214.188 303.516 213.936 303.444 213.651L303.442 213.652C303.408 213.516 291.455 166.451 286.563 145.756C282.5 128.566 276.397 105.288 271.873 88.0275C270.946 84.4915 270.084 81.2075 269.321 78.2805C267.03 69.5005 264.644 61.7985 262.312 55.7755C260.115 50.0995 257.989 45.9525 256.066 43.8545C254.175 41.7925 252.305 40.7655 250.405 40.3855C248.476 40.0005 246.466 40.2675 244.354 40.7955C240.07 41.8655 238.381 43.2175 238.377 43.2205C237.918 43.5825 237.252 43.5045 236.89 43.0465C236.768 42.8915 236.697 42.7135 236.672 42.5315H236.67C236.663 42.4835 234.487 25.8215 226.356 21.5795C222.253 19.4385 218.523 18.8115 215.073 19.2535C211.612 19.6965 208.39 21.2245 205.332 23.3825C199.943 27.1865 198.8 30.9845 198.112 33.2685C198.039 33.5145 197.97 33.7405 197.851 34.0975C197.129 36.2645 196.386 39.9705 196.384 39.9815C196.265 40.5545 195.703 40.9225 195.13 40.8035C195.036 40.7835 194.948 40.7525 194.866 40.7115C194.431 40.5005 185.765 36.4555 179.326 45.2675C173.208 53.6395 173.384 63.2675 173.5 69.6845C173.518 70.6315 173.534 71.5215 173.534 72.0165C173.534 78.2065 169.672 117.722 169.414 120.356L204.955 338.468L215.914 347.966C216.027 348.064 216.114 348.18 216.175 348.307L216.176 348.306C216.206 348.369 226.686 370.078 231.197 380.602C233.701 386.445 238.281 398.402 243.59 413.327C247.84 425.277 252.575 439.183 257.106 453.448C257.702 455.324 258.765 456.986 260.233 458.453C271.465 469.686 305.547 469.406 336.821 466.318C365.458 463.489 391.583 458.339 395.974 457.452ZM383.428 418.051C398.154 448.256 398.157 458.216 398.157 458.245H398.156C398.164 458.641 397.948 459.024 397.571 459.213C397.571 459.213 368.669 465.301 337.029 468.426C305.254 471.564 270.527 471.752 258.73 459.954C257.033 458.257 255.794 456.308 255.088 454.086C250.597 439.946 245.861 426.044 241.589 414.03C236.292 399.137 231.732 387.23 229.246 381.431C224.997 371.518 215.404 351.586 214.36 349.421L203.294 339.83C203.104 339.672 202.968 339.448 202.925 339.185L167.301 120.559C167.286 120.471 167.283 120.378 167.292 120.285C167.304 120.165 171.409 78.3685 171.409 72.0145C171.409 71.0825 171.396 70.4225 171.384 69.7165C171.262 63.0145 171.079 52.9585 177.616 44.0125C183.69 35.6995 191.565 37.2975 194.569 38.3165C194.856 37.0075 195.344 34.9245 195.841 33.4325C195.883 33.3075 195.977 32.9965 196.077 32.6615C196.844 30.1135 198.119 25.8755 204.11 21.6465C207.426 19.3055 210.956 17.6455 214.806 17.1515C218.668 16.6565 222.815 17.3415 227.335 19.7005C234.809 23.5995 237.709 36.2215 238.515 40.6735C239.612 40.1035 241.356 39.3545 243.838 38.7345C246.225 38.1375 248.527 37.8425 250.818 38.3005C253.135 38.7635 255.39 39.9875 257.625 42.4255C259.734 44.7265 261.999 49.0995 264.287 55.0115C266.648 61.1105 269.059 68.8915 271.37 77.7495C272.134 80.6765 272.995 83.9605 273.922 87.4965C278.467 104.833 284.597 128.215 288.629 145.274C292.795 162.903 302.2 200.106 304.814 210.423L308.778 202.779C310.728 199.019 311.29 195.417 311.948 191.191C313.033 184.225 314.375 175.621 322.303 161.863C328.87 150.467 336.836 145.92 344.331 144.703C351.805 143.49 358.752 145.608 363.377 147.535C363.934 147.767 364.452 148.031 364.933 148.324C368.062 150.228 369.426 153.241 369.6 156.739C369.766 160.063 368.83 163.821 367.326 167.433C366.46 169.515 365.399 171.557 364.251 173.443C361.445 178.052 358.31 184.846 355.37 193.592C352.872 201.028 350.519 209.864 348.638 219.956C346.415 231.88 346.497 240.408 346.56 246.842C346.614 252.418 346.652 256.469 345.197 259.926C343.468 264.035 339.035 274.251 334.928 283.576C331.718 290.865 328.669 297.699 327.18 300.843C324.236 307.059 324.845 309.739 324.956 310.115C325.793 311.712 337.772 334.576 341.751 341.088C344.296 345.253 353.954 362.077 364.41 381.389C370.955 393.473 377.809 406.524 383.428 418.051Z" fill="#8A4F59"/>
<path fill-rule="evenodd" clip-rule="evenodd" d="M189.161 86.5513C189.161 86.5513 188.973 84.3013 192.161 84.1133C195.349 83.9253 195.817 85.2843 193.755 86.0813C191.693 86.8783 191.318 86.5973 190.38 86.8313C189.442 87.0663 189.067 87.0663 189.161 86.5513Z" fill="#FF8C61"/>
<path fill-rule="evenodd" clip-rule="evenodd" d="M214.1 68.5046C214.1 68.5046 215.038 66.5366 218.413 66.5366C221.789 66.5366 223.945 67.4736 222.069 68.5996C220.194 69.7246 217.475 69.8176 216.069 69.9126C214.662 70.0046 214.1 69.6296 214.1 68.5046Z" fill="#FF8C61"/>
<path fill-rule="evenodd" clip-rule="evenodd" d="M248.692 88.4734C248.692 88.4734 248.036 86.2234 251.224 84.6294C254.412 83.0354 257.974 82.0044 259.943 82.9414C261.911 83.8794 261.067 86.0354 258.067 86.3164C255.068 86.5974 253.473 87.1604 252.442 87.9104C251.411 88.6604 249.255 89.5984 248.692 88.4734Z" fill="#FF8C61"/>
<path fill-rule="evenodd" clip-rule="evenodd" d="M221.788 116.879C221.788 116.879 221.037 115.379 224.787 114.629C228.537 113.879 230.787 114.723 230.881 115.754C230.975 116.785 227.975 117.442 225.162 117.817C222.349 118.192 221.693 117.911 221.788 116.879Z" fill="#FF8C61"/>
<path fill-rule="evenodd" clip-rule="evenodd" d="M259.287 123.443C259.287 123.443 259.099 122.318 262.567 122.318C266.035 122.318 266.88 121.005 268.755 120.537C270.631 120.068 272.037 121.662 270.536 123.162C269.036 124.662 265.474 125.412 263.318 125.412C261.161 125.412 258.349 124.662 259.287 123.443Z" fill="#FF8C61"/>
<path fill-rule="evenodd" clip-rule="evenodd" d="M259.428 164.553C259.428 164.553 259.804 162.912 263.695 162.115C267.585 161.318 271.898 161.459 272.414 162.631C272.93 163.803 270.492 164.834 267.444 165.022C264.397 165.21 262.194 165.21 261.069 165.538C259.944 165.866 259.147 165.35 259.428 164.553Z" fill="#FF8C61"/>
<path fill-rule="evenodd" clip-rule="evenodd" d="M226.286 172.288C226.286 172.288 225.536 170.319 230.224 169.007C234.912 167.694 238.662 167.976 238.943 169.288C239.224 170.6 236.505 171.632 234.537 171.632C232.569 171.632 230.131 172.382 229.193 172.851C228.255 173.319 226.474 173.506 226.286 172.288Z" fill="#FF8C61"/>
<path fill-rule="evenodd" clip-rule="evenodd" d="M229.286 232.381C229.286 232.381 235.099 230.975 238.099 229.568C241.099 228.161 249.818 225.349 250.474 224.037C251.13 222.725 251.505 220.849 246.63 222.068C241.755 223.287 237.536 225.443 235.192 226.474C232.848 227.505 228.911 227.88 228.348 229.005C227.785 230.13 229.849 232.85 229.286 232.381Z" fill="#FF8C61"/>
<path fill-rule="evenodd" clip-rule="evenodd" d="M254.691 219.35C254.691 219.35 254.41 217.381 257.785 215.787C261.16 214.193 264.16 212.412 263.973 213.818C263.786 215.224 260.41 218.881 258.629 219.162C256.848 219.443 255.348 220.475 254.691 219.35Z" fill="#FF8C61"/>
<path fill-rule="evenodd" clip-rule="evenodd" d="M291.631 250.757C291.631 250.757 287.787 248.694 286.662 246.913C285.537 245.132 284.224 241.663 285.068 240.819C285.912 239.975 287.318 241.757 288.068 243.632C288.818 245.507 291.631 247.945 292.381 248.882C293.131 249.819 293.506 251.039 291.631 250.757Z" fill="#FF8C61"/>
<path fill-rule="evenodd" clip-rule="evenodd" d="M320.317 248.882C320.317 248.882 319.754 247.476 320.88 245.413C322.006 243.35 322.568 241.382 322.943 239.882C323.318 238.382 325.288 236.694 325.568 238.663C325.849 240.632 325.943 244.569 324.537 246.163C323.131 247.757 322.942 250.289 320.317 248.882Z" fill="#FF8C61"/>
<path fill-rule="evenodd" clip-rule="evenodd" d="M320.787 203.602C320.787 203.602 323.412 206.227 325.381 206.602C327.35 206.977 329.037 206.039 327.537 204.539C326.037 203.039 323.036 200.695 321.067 200.039C319.099 199.383 316.662 199.101 317.88 200.508C319.098 201.915 318.537 202.57 320.787 203.602Z" fill="#FF8C61"/>
<path fill-rule="evenodd" clip-rule="evenodd" d="M322.756 197.602C322.756 197.602 323.036 195.446 325.662 196.852C328.287 198.258 329.131 198.071 330.068 198.727C331.005 199.383 331.38 201.446 329.036 201.165C326.693 200.883 323.787 199.946 322.756 197.602Z" fill="#FF8C61"/>
<path fill-rule="evenodd" clip-rule="evenodd" d="M323.225 180.445C323.131 179.976 321.725 175.289 324.631 170.132C327.537 164.975 328.569 162.35 331.1 161.507C333.631 160.663 334.85 161.413 332.6 164.413C330.35 167.413 329.037 169.381 328.006 171.913C326.975 174.444 325.568 178.288 325.1 179.976C324.632 181.664 323.975 182.039 323.225 180.445Z" fill="#FFBA8F"/>
<path fill-rule="evenodd" clip-rule="evenodd" d="M336.442 157.665C336.442 157.196 336.348 155.602 338.505 154.29C340.662 152.978 342.068 151.852 342.911 153.446C343.755 155.04 341.411 156.441 340.145 157.478C338.879 158.515 336.693 159.419 336.442 157.665Z" fill="#FFBA8F"/>
<path fill-rule="evenodd" clip-rule="evenodd" d="M250.756 48.8203C250.756 48.8203 249.537 47.3203 250.944 47.3203C252.351 47.3203 254.694 49.4763 255.819 51.3513C256.944 53.2263 258.257 55.1013 258.632 57.4453C259.007 59.7893 258.444 60.7263 257.132 59.0393C255.82 57.3523 254.882 55.0083 253.663 53.2263C252.444 51.4443 251.693 50.4143 250.756 48.8203Z" fill="#FFBA8F"/>
<path fill-rule="evenodd" clip-rule="evenodd" d="M260.786 70.7582C260.786 70.7582 258.723 69.2582 258.911 68.1332C259.099 67.0082 260.786 67.4772 261.63 68.6022C262.474 69.7272 263.88 71.9772 262.755 72.3522C261.63 72.7272 261.442 71.7892 260.786 70.7582Z" fill="#FFBA8F"/>
<path fill-rule="evenodd" clip-rule="evenodd" d="M232.004 316.76C232.004 316.76 232.567 320.135 233.692 322.385C234.816 324.635 235.755 323.51 236.317 321.447C236.879 319.384 235.942 316.009 234.629 312.072C233.316 308.134 230.879 306.071 229.004 304.384C227.128 302.696 226.191 306.072 227.691 307.76C229.191 309.448 229.941 310.572 230.504 312.073C231.067 313.573 231.255 313.573 232.004 316.76Z" fill="#FF8C61"/>
<path fill-rule="evenodd" clip-rule="evenodd" d="M256.942 324.259C256.942 324.259 257.692 328.009 259.192 331.572C260.692 335.135 262.38 333.446 261.442 330.822C260.504 328.197 259.567 326.509 259.567 324.822C259.567 323.134 259.379 321.072 257.504 320.884C255.63 320.696 256.38 323.133 256.942 324.259Z" fill="#FF8C61"/>
<path fill-rule="evenodd" clip-rule="evenodd" d="M320.318 257.321C320.318 257.321 318.255 257.509 316.943 261.446C315.63 265.384 314.13 271.947 311.693 276.447C309.256 280.947 302.88 291.634 304.568 293.321C306.256 295.009 311.318 286.758 312.443 283.946C313.568 281.134 317.693 273.071 319.193 268.946C320.693 264.821 322.943 257.508 320.318 257.321Z" fill="#FF8C61"/>
<path fill-rule="evenodd" clip-rule="evenodd" d="M274.567 354.635C274.567 354.635 271.848 355.948 271.848 356.885C271.848 357.822 275.599 357.916 278.129 356.51C280.66 355.104 284.224 351.354 285.067 349.572C285.911 347.791 286.192 345.166 284.879 346.103C283.566 347.04 281.504 349.853 280.191 350.884C278.881 351.916 278.599 352.385 274.567 354.635Z" fill="#FF8C61"/>
<path fill-rule="evenodd" clip-rule="evenodd" d="M287.504 452.603C287.504 452.603 283.941 445.478 282.066 439.853C280.191 434.228 279.816 431.228 279.816 429.54C279.816 427.852 281.316 425.415 282.441 429.915C283.566 434.415 285.254 440.603 286.941 444.54C288.629 448.478 291.066 452.228 291.066 452.228C291.066 452.228 287.504 452.791 287.504 452.603Z" fill="#FF8C61"/>
<path fill-rule="evenodd" clip-rule="evenodd" d="M343.006 431.228C343.006 431.228 341.693 420.54 340.568 415.853C339.442 411.165 337.193 403.665 337.38 401.415C337.567 399.165 339.63 398.977 340.568 403.103C341.505 407.228 346.567 422.603 346.942 428.041C347.317 433.479 347.318 436.104 345.818 436.291C344.318 436.478 343.006 433.291 343.006 431.228Z" fill="#FF8C61"/>
<path d="M206.625 342.752C206.196 342.354 206.172 341.682 206.571 341.254C206.969 340.825 207.641 340.801 208.07 341.199C208.091 341.219 215.265 347.934 224.108 352.079C232.977 356.236 236.233 356.869 236.243 356.871C236.818 356.985 237.192 357.546 237.077 358.121C236.963 358.696 236.403 359.07 235.827 358.956C235.817 358.954 232.342 358.277 223.212 353.998C214.054 349.706 206.646 342.773 206.625 342.752Z" fill="#8A4F59"/>
<path d="M332.445 283.297C332.646 282.747 333.257 282.465 333.806 282.666C334.357 282.867 334.639 283.478 334.438 284.028C332.023 290.614 324.959 304.483 317.465 316.687C311.736 326.017 305.727 334.411 301.284 337.93C300.825 338.292 300.159 338.214 299.798 337.756C299.436 337.297 299.514 336.631 299.973 336.269C304.194 332.925 310.036 324.734 315.655 315.583C323.08 303.493 330.066 289.786 332.445 283.297Z" fill="#8A4F59"/>
<path d="M265.444 249.308C265.779 248.827 266.441 248.707 266.922 249.042C267.404 249.377 267.523 250.039 267.188 250.52C267.169 250.547 260.564 259.904 256.859 278.618C253.149 297.353 256.1 312.11 256.109 312.153C256.219 312.728 255.841 313.284 255.266 313.394C254.69 313.504 254.134 313.126 254.024 312.551C254.016 312.507 250.985 297.349 254.774 278.21C258.567 259.05 265.425 249.336 265.444 249.308Z" fill="#8A4F59"/>
<path d="M227.485 226.352C226.933 226.549 226.325 226.261 226.128 225.708C225.931 225.155 226.219 224.547 226.772 224.351C226.799 224.341 236.339 220.973 245.463 217.063C254.546 213.171 262.329 207.982 262.352 207.967C262.84 207.641 263.5 207.773 263.826 208.261C264.152 208.75 264.02 209.41 263.532 209.735C263.509 209.75 255.587 215.032 246.295 219.014C237.044 222.978 227.514 226.342 227.485 226.352Z" fill="#8A4F59"/>
<path d="M242.459 39.0665C243.029 38.9385 243.597 39.2965 243.725 39.8675C243.853 40.4385 243.495 41.0055 242.924 41.1345C242.91 41.1375 238.132 42.1695 234.809 47.1545C233.113 49.6995 232.106 52.4525 231.569 55.2295C231.026 58.0375 230.959 60.8765 231.14 63.5615C231.325 66.2865 231.857 70.7285 232.459 74.9635C233.065 79.2295 233.742 83.2735 234.205 85.1245C234.81 87.5465 237.034 98.2935 238.764 106.65C239.647 110.921 240.397 114.543 240.775 116.282C241.708 120.568 251.338 161.24 251.365 161.356C251.5 161.927 251.147 162.5 250.576 162.635C250.005 162.77 249.432 162.417 249.298 161.846C249.271 161.729 239.644 121.069 238.7 116.73C238.429 115.483 237.629 111.62 236.688 107.073C234.972 98.7815 232.765 88.1175 232.145 85.6385C231.666 83.7215 230.974 79.5955 230.358 75.2615C229.75 70.9815 229.211 66.4805 229.023 63.7015C228.83 60.8545 228.903 57.8345 229.484 54.8305C230.072 51.7955 231.176 48.7805 233.041 45.9825C236.842 40.2815 242.442 39.0695 242.459 39.0665Z" fill="#8A4F59"/>
<path d="M219.229 169.542C219.297 170.125 218.88 170.652 218.298 170.721C217.715 170.789 217.188 170.373 217.118 169.79C217.113 169.741 215.054 152.708 211.506 133.102C210.106 125.362 208.157 115.433 206.229 105.879C203.253 91.1408 200.315 77.2508 199.515 73.7098L199.421 73.2948C197.971 66.8808 193.218 45.8568 194.729 38.3948C194.844 37.8218 195.402 37.4498 195.975 37.5648C196.548 37.6788 196.919 38.2368 196.805 38.8098C195.384 45.8278 200.062 66.5178 201.489 72.8308L201.583 73.2458C202.377 76.7608 205.314 90.6518 208.306 105.465C210.24 115.046 212.193 124.995 213.592 132.729C217.168 152.498 219.223 169.493 219.229 169.542Z" fill="#8A4F59"/>
<path fill-rule="evenodd" clip-rule="evenodd" d="M224.547 388.76C224.547 388.76 244.046 392.698 271.609 384.447C299.172 376.196 312.672 366.259 322.234 360.634C331.796 355.009 352.984 336.821 352.984 336.821C352.984 336.821 356.172 339.446 359.922 345.071C363.672 350.696 366.486 359.884 366.486 359.884C366.486 359.884 367.799 362.509 359.361 370.009C350.923 377.509 331.985 393.259 306.672 404.697C281.359 416.135 259.422 416.697 250.422 416.885C241.422 417.073 236.359 416.51 234.672 415.197C232.985 413.884 230.359 409.947 227.547 403.384C224.735 396.821 224.359 390.448 224.547 388.76Z" fill="#D1E638"/>
<path fill-rule="evenodd" clip-rule="evenodd" d="M319.138 368.696C319.138 368.696 317.919 367.383 321.576 365.415C325.233 363.447 329.826 360.165 332.451 358.665C335.076 357.165 337.514 354.54 338.92 354.071C340.326 353.602 342.389 354.54 341.733 355.759C341.077 356.978 336.202 360.728 332.92 362.603C329.638 364.478 325.701 366.728 323.357 367.572C321.013 368.416 319.794 369.446 319.138 368.696Z" fill="#E3F566"/>
<path fill-rule="evenodd" clip-rule="evenodd" d="M343.7 352.852C343.7 352.852 343.231 352.102 344.638 350.508C346.045 348.914 347.638 347.415 348.857 348.258C350.076 349.102 348.576 350.977 346.888 352.196C345.2 353.415 344.075 353.602 343.7 352.852Z" fill="#E3F566"/>
<path fill-rule="evenodd" clip-rule="evenodd" d="M356.356 365.603C356.356 365.603 355.7 364.197 357.481 362.697C359.262 361.197 360.575 360.822 361.512 361.478C362.449 362.134 360.668 364.01 359.356 364.666C358.044 365.322 357.763 366.166 356.356 365.603Z" fill="#B3C72B"/>
<path fill-rule="evenodd" clip-rule="evenodd" d="M352.421 368.322C352.421 368.322 351.858 366.26 346.983 368.51C342.108 370.759 336.389 374.416 332.545 376.384C328.701 378.353 319.982 381.259 316.139 383.041C312.295 384.822 309.764 384.635 309.764 385.197C309.764 385.759 310.514 387.447 318.952 384.166C327.39 380.884 338.358 376.853 341.733 375.447C345.108 374.041 348.483 372.071 350.264 371.134C352.045 370.197 352.89 369.447 352.421 368.322Z" fill="#B3C72B"/>
<path fill-rule="evenodd" clip-rule="evenodd" d="M366.014 361.758C366.014 361.758 354.764 371.603 341.076 378.165C327.388 384.727 310.232 389.977 302.545 391.945C294.857 393.915 283.795 394.101 277.42 392.32C271.1 390.554 266.807 387.683 266.003 385.989C241.44 392.168 224.547 388.76 224.547 388.76C224.359 390.448 224.735 396.823 227.547 403.385C230.359 409.947 232.985 413.885 234.672 415.198C236.359 416.511 241.422 417.073 250.422 416.886C259.422 416.699 281.36 416.136 306.672 404.698C331.984 393.26 350.922 377.51 359.36 370.01C363.788 366.074 365.53 363.482 366.186 361.906C366.08 361.799 366.02 361.747 366.014 361.758Z" fill="#B3C72B"/>
<path d="M224.745 387.719C224.801 387.73 243.995 391.606 271.307 383.431C294.521 376.483 307.703 368.33 316.972 362.6C318.662 361.555 320.224 360.589 321.7 359.721C331.175 354.148 352.235 336.07 352.296 336.018L352.969 335.438L353.658 336.001C353.668 336.009 356.971 338.73 360.807 344.483C364.637 350.229 367.489 359.546 367.497 359.574L367.494 359.574C367.682 360.225 368.127 363.637 360.065 370.803C355.829 374.569 348.953 380.408 339.953 386.746C330.955 393.083 319.833 399.915 307.107 405.665C294.356 411.427 282.45 414.45 272.599 416.057C262.761 417.661 254.973 417.851 250.442 417.945C245.888 418.04 242.329 417.945 239.692 417.66C236.886 417.357 235.019 416.815 234.019 416.038C233.029 415.268 231.779 413.734 230.399 411.445C229.218 409.488 227.916 406.94 226.571 403.801C225.423 401.121 224.669 398.467 224.19 396.135C223.461 392.579 223.372 389.726 223.492 388.645L223.619 387.499L224.745 387.719ZM271.912 385.466C248.114 392.589 230.262 390.706 225.567 390.007C225.59 391.295 225.774 393.311 226.267 395.712C226.718 397.916 227.431 400.428 228.521 402.971C229.818 405.997 231.076 408.457 232.216 410.348C233.456 412.404 234.525 413.738 235.323 414.359C236.01 414.893 237.519 415.291 239.916 415.549C242.482 415.826 245.955 415.92 250.4 415.827C254.868 415.734 262.549 415.548 272.258 413.965C281.953 412.384 293.673 409.405 306.235 403.73C318.821 398.043 329.825 391.283 338.732 385.01C347.638 378.739 354.452 372.95 358.653 369.217C366.507 362.236 365.518 360.32 365.515 360.314L365.484 360.242L365.469 360.198C365.461 360.173 362.704 351.167 359.034 345.664C356.383 341.685 354.051 339.268 352.963 338.234C349.197 341.439 331.384 356.481 322.769 361.549C321.316 362.403 319.762 363.364 318.081 364.404C308.711 370.199 295.381 378.442 271.912 385.466Z" fill="#8A4F59"/>
<path d="M307.669 204.71C307.909 204.176 308.538 203.938 309.072 204.179C309.606 204.42 309.844 205.048 309.603 205.582C309.591 205.608 305.544 214.55 300.989 221.478C296.38 228.488 283.706 237.757 283.67 237.784C283.197 238.13 282.533 238.027 282.188 237.555C281.841 237.082 281.944 236.418 282.416 236.073C282.452 236.047 294.831 226.993 299.222 220.316C303.665 213.556 307.657 204.736 307.669 204.71Z" fill="#8A4F59"/>
<path fill-rule="evenodd" clip-rule="evenodd" d="M80.958 53.2456C80.958 53.2456 79.833 55.3086 75.239 52.5896C70.645 49.8706 67.27 46.1206 64.176 43.5896C61.082 41.0586 59.02 38.5266 60.52 37.1206C62.02 35.7146 64.27 35.5266 68.864 38.9016C73.458 42.2766 77.864 45.8396 79.27 47.8076C80.747 49.8746 81.814 51.4476 80.958 53.2456Z" fill="#00B8E8"/>
<path fill-rule="evenodd" clip-rule="evenodd" d="M38.9467 68.4674C41.8497 71.0644 51.0407 75.1234 56.1497 77.2804C61.2587 79.4374 67.4007 80.9364 70.0247 80.7024C72.6497 80.4684 73.0717 77.9364 71.3837 76.1554C69.6957 74.3744 62.3367 72.0774 57.0397 69.5924C51.7427 67.1074 45.6018 64.1074 43.7738 63.2644C41.9458 62.4204 40.0198 61.9524 38.5708 62.0924C35.2698 62.4104 36.0427 65.8714 38.9467 68.4674Z" fill="#00B8E8"/>
<path fill-rule="evenodd" clip-rule="evenodd" d="M36.4613 105.358C36.4613 105.358 35.8053 103.014 44.1493 101.795C52.4933 100.576 62.4773 101.139 64.5403 101.561C66.6033 101.983 68.6653 103.483 67.1183 105.358C65.5713 107.233 58.3993 106.905 55.4463 107.046C52.4933 107.187 47.2433 107.796 43.7273 107.749C40.2113 107.702 36.6023 107.467 36.4613 105.358Z" fill="#00B8E8"/>
<path fill-rule="evenodd" clip-rule="evenodd" d="M31.1621 161.985C31.1621 161.985 31.2561 163.297 37.4431 160.203C43.6301 157.109 54.3181 149.797 60.0371 146.516C65.7571 143.234 68.7561 137.797 67.6311 135.828C66.5071 133.859 62.1931 134.047 57.2251 137.141C52.2571 140.235 46.35 144.641 40.444 149.797C34.538 154.953 29.9431 159.454 31.1621 161.985Z" fill="#00B8E8"/>
<path fill-rule="evenodd" clip-rule="evenodd" d="M83.5115 366.303C83.5115 366.303 76.0115 368.553 72.5115 380.303C69.0105 392.053 72.0105 395.553 74.1365 398.303C76.2615 401.053 112.636 413.303 122.761 415.428C132.886 417.553 197.449 427.366 197.449 427.366C197.449 427.366 199.949 412.616 200.449 408.991C200.949 405.366 199.574 402.116 198.324 399.991C197.074 397.866 175.949 385.616 164.824 381.991C153.699 378.366 101.074 362.991 101.074 362.991C101.074 362.991 96.4485 360.866 83.5115 366.303Z" fill="#FFA100"/>
<path d="M83.8317 367.316C83.8117 367.323 76.8668 369.403 73.5288 380.606C70.2618 391.575 72.8637 394.931 74.8327 397.471L74.9757 397.656C75.8167 398.744 83.8567 401.901 93.2797 405.219C104.496 409.169 117.558 413.252 122.979 414.39C132.3 416.346 188.304 424.898 196.58 426.159C197.156 422.74 198.989 411.836 199.4 408.849C199.628 407.202 199.425 405.627 199.023 404.218C198.612 402.78 197.997 401.521 197.412 400.526C196.803 399.489 190.127 395.342 182.409 391.196C176.198 387.859 169.364 384.586 164.498 383C153.33 379.361 100.932 364.052 100.781 364.008L100.708 363.987L100.652 363.964C100.64 363.959 96.4417 362.024 83.9227 367.284L83.8817 367.302L83.8317 367.316ZM71.4948 380C74.9948 368.249 82.4657 365.53 83.1417 365.306C95.5917 360.082 100.788 361.744 101.428 361.991C103.35 362.553 154.265 377.434 165.153 380.981C170.148 382.609 177.107 385.939 183.413 389.327C191.418 393.629 198.458 398.127 199.239 399.455C199.903 400.586 200.601 402.015 201.065 403.638C201.538 405.292 201.773 407.156 201.501 409.132C200.991 412.831 198.504 427.498 198.497 427.54L198.324 428.574L197.293 428.417C197.107 428.389 132.741 418.606 122.546 416.467C117.034 415.31 103.856 411.195 92.5728 407.221C82.8278 403.788 74.4127 400.394 73.2977 398.951L73.1547 398.766C70.8987 395.857 67.9178 392.009 71.4948 380Z" fill="#8A4F59"/>
<path fill-rule="evenodd" clip-rule="evenodd" d="M178.808 462.505C178.808 462.505 181.808 434.38 196.433 392.38C211.059 350.38 223.433 321.13 227.933 310.63C232.433 300.13 239.184 266.756 233.559 240.88C227.933 215.005 222.309 192.505 216.684 169.255C211.059 146.005 203.933 116.005 200.558 111.88C197.184 107.755 193.903 103.255 189.871 102.88C185.839 102.505 182.558 104.38 182.558 104.38C182.558 104.38 181.62 92.7547 175.152 79.3487C168.683 65.9427 165.402 63.3177 160.527 60.5987C155.652 57.8797 151.621 58.6297 151.621 58.6297C151.621 58.6297 149.651 46.4417 137.183 44.7547C124.714 43.0667 120.308 53.3797 120.308 60.2237C116.089 57.4117 109.715 54.9727 104.745 59.4727C99.7757 63.9727 101.371 77.5677 101.371 79.3487C101.371 81.1297 101.745 92.1927 102.12 101.474C102.495 110.756 103.152 116.006 103.339 125.381C103.527 134.756 104.277 148.819 104.09 161.85C103.902 174.881 104.558 187.632 104.933 193.632C105.308 199.632 104.745 205.538 104.745 205.538C104.745 205.538 100.489 196.693 87.8697 184.35C75.0257 171.788 70.7137 173.194 66.5887 172.912C62.4637 172.63 55.8077 173.568 49.9007 178.443C43.9937 183.318 45.9627 187.912 46.3377 189.693C46.7127 191.475 49.1507 195.13 52.4317 199.537C55.7127 203.943 57.7757 209.006 59.5567 211.912C61.3367 214.818 64.1507 219.6 67.4307 223.725C70.7117 227.85 75.7747 232.725 82.9937 244.819C90.2127 256.913 92.3687 270.601 94.3377 277.351C96.3077 284.1 99.4007 304.446 99.6827 315.508C99.9647 326.57 100.808 340.821 91.9947 362.383C83.1817 383.945 73.0567 425.384 49.6197 456.884C26.1827 488.384 159.683 468.508 159.683 468.508C159.683 468.508 178.62 462.883 178.808 462.505Z" fill="#FFD6AB"/>
<path fill-rule="evenodd" clip-rule="evenodd" d="M129.493 459.133C129.493 459.133 135.681 452.383 142.806 437.945C149.931 423.507 164.931 389.945 172.619 378.32C180.307 366.695 193.432 343.07 198.682 327.32C203.932 311.57 207.495 282.32 207.495 279.507C207.495 276.694 210.308 228.132 204.682 191.007C199.057 153.882 194.744 136.445 193.619 132.694C192.494 128.943 185.744 109.819 184.244 107.381C182.744 104.943 179.744 104.756 177.494 110.381C175.244 116.006 176.931 129.131 178.057 137.944C179.183 146.757 182.37 161.194 183.12 170.944C183.87 180.694 185.183 198.694 184.995 200.194C184.807 201.694 184.245 205.632 185.933 208.069C187.621 210.507 188.558 213.694 188.558 217.444C188.558 221.194 188.746 223.632 182.37 217.631C175.995 211.631 176.557 202.818 175.62 196.256C174.683 189.694 171.87 179.943 171.87 174.318C171.87 168.693 170.557 148.63 171.12 139.068C171.683 129.505 172.245 106.63 172.058 100.818C171.871 95.0055 169.433 84.6925 163.058 73.2555C156.683 61.8185 154.995 61.8175 152.558 60.5055C150.121 59.1935 150.12 59.1925 146.558 62.0055C142.996 64.8185 140.745 68.9435 142.995 81.5055C145.245 94.0685 149.183 110.944 150.308 126.131C151.433 141.318 152.183 146.943 152.746 159.881C153.309 172.819 156.871 205.069 156.871 205.069C156.871 205.069 158.746 205.819 161.559 209.194C164.372 212.569 166.434 212.944 166.622 214.632C166.81 216.32 165.497 219.882 167.372 222.132C169.247 224.382 172.622 227.382 170.747 227.382C168.872 227.382 157.997 227.382 153.872 219.694C149.747 212.006 149.372 200.194 148.997 193.631C148.622 187.068 145.059 174.131 145.059 165.318C145.059 156.505 144.871 140.38 143.934 134.005C142.997 127.63 140.559 111.13 139.621 107.005C138.683 102.88 137.183 88.0665 137.183 81.6915C137.183 75.3165 135.683 60.8795 135.683 56.9415C135.683 53.0035 134.745 49.2535 133.62 46.2535C133.419 45.7145 133.24 45.1705 133.066 44.6335C134.329 44.5205 135.698 44.5495 137.182 44.7505C149.651 46.4375 151.62 58.6255 151.62 58.6255C151.62 58.6255 155.651 57.8755 160.526 60.5945C165.401 63.3135 168.682 65.9385 175.151 79.3445C181.62 92.7515 182.557 104.376 182.557 104.376C182.557 104.376 185.838 102.501 189.87 102.876C193.902 103.251 197.183 107.751 200.557 111.876C203.932 116.001 211.058 146.001 216.683 169.251C222.308 192.501 227.932 215.001 233.558 240.876C239.183 266.752 232.432 300.126 227.932 310.626C223.432 321.126 211.058 350.376 196.432 392.376C181.807 434.376 178.807 462.501 178.807 462.501C178.619 462.879 159.682 468.504 159.682 468.504C159.682 468.504 139.7 471.478 116.556 473.302C123.765 465.681 129.64 459.354 129.493 459.133ZM120.512 57.5785C120.493 58.8765 120.493 59.7575 120.493 59.7575C120.493 59.7575 120.118 76.8195 120.118 80.7575C120.118 84.6955 121.806 100.446 123.118 108.133C124.431 115.821 125.931 128.008 127.431 140.008C128.931 152.008 129.681 162.508 129.494 173.008C129.306 183.508 130.244 194.196 130.057 199.633C129.87 205.07 129.119 215.008 129.119 218.946C129.119 222.884 131.369 235.259 130.807 236.946C130.245 238.633 120.494 229.446 121.057 217.071C121.62 204.696 121.62 181.821 121.245 173.571C120.87 165.321 120.307 146.196 118.807 138.696C117.307 131.196 115.057 118.821 114.869 110.008C114.681 101.195 115.244 93.1325 114.869 87.3195C114.494 81.5065 111.681 67.6325 110.931 63.8815C110.494 61.7015 110.501 59.1425 109.701 57.0865C113.484 56.5315 117.405 58.2885 120.306 60.2225C120.306 59.3845 120.373 58.4935 120.512 57.5785ZM104.256 204.62C104.433 205.93 104.556 206.991 104.556 207.508C104.556 209.196 105.494 215.946 105.494 219.321C105.494 222.696 106.243 227.946 105.682 230.196C105.119 232.446 105.494 241.634 105.87 243.884C106.244 246.134 108.87 253.634 107.745 254.384C106.62 255.134 101.557 242.196 99.4951 231.321C97.4321 220.445 87.1201 207.133 83.1821 199.258C79.2441 191.383 69.8691 180.508 63.6821 177.883C59.9781 176.312 55.9372 176.286 52.3262 176.679C57.5582 173.339 63.0202 172.67 66.5892 172.913C70.7142 173.194 75.0271 171.788 87.8701 184.351C98.0951 194.353 102.829 202.058 104.256 204.62Z" fill="#FFC78C"/>
<path d="M177.792 462.054C178.179 458.768 181.674 431.545 195.433 392.032C202.768 370.968 209.518 353.154 214.993 339.303C220.458 325.478 224.696 315.495 226.958 310.216C229.544 304.183 232.886 290.459 234.136 274.953C235.033 263.826 234.848 251.807 232.522 241.105C227.9 219.847 223.31 200.986 218.72 182.125C217.699 177.927 216.676 173.728 215.655 169.505L214.804 165.988C209.357 143.443 202.794 116.29 199.738 112.553L198.842 111.445C195.915 107.831 193.003 104.235 189.778 103.934C186.078 103.59 183.085 105.301 183.076 105.306C182.564 105.59 181.919 105.406 181.635 104.895C181.56 104.759 181.518 104.613 181.506 104.467H181.503C181.5 104.434 180.58 93.0318 174.2 79.8088C171.008 73.1928 168.615 69.2528 166.43 66.6458C164.301 64.1038 162.349 62.8258 160.014 61.5238C155.473 58.9908 151.812 59.6728 151.802 59.6748C151.224 59.7738 150.675 59.3848 150.576 58.8068L150.571 58.7728C150.461 58.1428 148.406 47.3418 137.044 45.8038C136.186 45.6878 135.356 45.6328 134.553 45.6328C130.286 45.6328 127.233 47.2968 125.156 49.6548C123.042 52.0548 121.908 55.1758 121.523 58.0228C121.421 58.7678 121.374 59.5088 121.374 60.2228C121.374 60.8098 120.898 61.2858 120.311 61.2858C120.069 61.2858 119.845 61.2038 119.666 61.0668C117.403 59.5688 114.516 58.1928 111.631 58.0538C109.509 57.9518 107.365 58.5298 105.458 60.2568C101.497 63.8438 102.143 74.3478 102.373 78.0878C102.409 78.6868 102.436 79.1298 102.436 79.3478C102.436 80.3008 102.529 83.4958 102.666 87.5718C102.806 91.6878 102.993 96.7648 103.182 101.432C103.338 105.307 103.549 108.541 103.754 111.672C104.028 115.879 104.291 119.899 104.4 125.359C104.457 128.235 104.57 131.604 104.692 135.253C104.963 143.353 105.28 152.841 105.15 161.861C105.074 167.126 105.136 172.351 105.262 177.103C105.446 184.029 105.769 189.988 105.992 193.568C106.372 199.644 105.803 205.624 105.801 205.641C105.744 206.224 105.226 206.649 104.643 206.592C104.262 206.555 103.948 206.32 103.792 205.998H103.791C103.779 205.973 99.6187 197.327 87.1277 185.11C75.9837 174.211 71.5477 174.108 67.9397 174.023C67.4347 174.012 66.9437 174 66.5187 173.971C64.2907 173.82 61.2897 174.04 58.0807 175.103C55.6167 175.92 53.0287 177.235 50.5737 179.262C45.7697 183.227 46.7337 186.958 47.2157 188.824C47.2797 189.072 47.3377 189.295 47.3767 189.478C47.5357 190.236 48.1897 191.481 49.1917 193.067C50.2417 194.728 51.6567 196.722 53.2837 198.906C55.4787 201.855 57.1237 205.052 58.5047 207.739C59.2207 209.132 59.8647 210.385 60.4617 211.36L61.0967 212.401C62.8617 215.301 65.3857 219.448 68.2627 223.065C68.9857 223.974 69.7847 224.908 70.6737 225.945C73.8807 229.691 78.2307 234.77 83.9037 244.275C89.6437 253.892 92.2147 264.445 94.0147 271.839C94.5047 273.85 94.9377 275.625 95.3547 277.056C96.4057 280.66 97.7677 288.039 98.8587 295.831C99.8377 302.83 100.606 310.192 100.741 315.483L100.782 317.025C101.082 327.963 101.467 342.003 92.9737 362.781C90.8237 368.044 88.5427 374.657 85.9957 382.042C78.3057 404.349 68.1817 433.711 50.4707 457.515C28.7757 486.673 156.763 467.867 159.463 467.468C160.712 467.1 176.654 462.411 177.792 462.054ZM197.434 392.729C183.161 433.719 180.004 461.344 179.869 462.575C179.86 462.712 179.825 462.849 179.76 462.979C179.381 463.741 161.17 469.173 160.038 469.509C159.975 469.532 159.907 469.549 159.837 469.559C159.448 469.617 23.7897 489.826 48.7697 456.252C66.2767 432.723 76.3427 403.53 83.9887 381.354C86.5187 374.017 88.7847 367.447 91.0157 361.985C99.3377 341.622 98.9597 327.83 98.6657 317.085V317.08L98.6247 315.534C98.4927 310.347 97.7317 303.069 96.7587 296.123C95.6797 288.413 94.3437 281.148 93.3217 277.646C92.8877 276.159 92.4507 274.368 91.9567 272.337C90.1867 265.072 87.6617 254.704 82.0857 245.362C76.5087 236.017 72.2237 231.013 69.0637 227.323C68.1497 226.256 67.3277 225.296 66.6027 224.385C63.6507 220.673 61.0827 216.456 59.2887 213.505L58.6537 212.464C58.0147 211.422 57.3547 210.138 56.6207 208.711C55.2747 206.091 53.6727 202.974 51.5827 200.168C49.9287 197.946 48.4827 195.908 47.3997 194.196C46.2697 192.407 45.5167 190.933 45.3017 189.91C45.2667 189.743 45.2187 189.56 45.1657 189.355C44.5717 187.055 43.3827 182.451 49.2287 177.626C51.9017 175.42 54.7257 173.986 57.4167 173.094C60.9307 171.929 64.2187 171.688 66.6587 171.854C67.1357 171.887 67.5527 171.896 67.9797 171.906C71.9707 171.999 76.8787 172.114 88.6127 183.59C96.8837 191.681 101.611 198.307 103.913 201.971C104.011 199.759 104.064 196.743 103.874 193.694C103.651 190.139 103.33 184.189 103.144 177.154C103.017 172.387 102.956 167.138 103.031 161.837C103.16 152.88 102.843 143.407 102.573 135.32C102.452 131.69 102.34 128.34 102.281 125.401C102.176 120.072 101.911 116.032 101.635 111.805C101.434 108.714 101.225 105.52 101.063 101.515C100.877 96.9058 100.689 91.8158 100.547 87.6388C100.404 83.4118 100.309 80.1788 100.309 79.3488C100.309 79.1168 100.286 78.7328 100.253 78.2138C100.007 74.2098 99.3147 62.9638 104.036 58.6888C106.417 56.5328 109.088 55.8108 111.728 55.9378C114.439 56.0688 117.094 57.1048 119.343 58.3838C119.364 58.1728 119.39 57.9588 119.419 57.7418C119.855 54.5288 121.145 50.9928 123.559 48.2528C126.009 45.4708 129.586 43.5078 134.551 43.5078C135.418 43.5078 136.341 43.5708 137.324 43.7038C148.384 45.2008 151.666 54.4498 152.452 57.4878C154.041 57.4208 157.331 57.6018 161.042 59.6718C163.582 61.0888 165.71 62.4838 168.056 65.2838C170.348 68.0198 172.831 72.0968 176.108 78.8868C181.29 89.6278 182.969 99.2378 183.448 102.812C184.879 102.254 187.267 101.573 189.968 101.824C194.089 102.207 197.279 106.147 200.485 110.107C200.612 110.264 200.782 110.473 201.381 111.207C204.737 115.309 211.363 142.725 216.863 165.488L217.714 169.005C218.735 173.228 219.758 177.427 220.779 181.625C225.395 200.594 230.011 219.563 234.597 240.656C236.972 251.582 237.164 263.812 236.253 275.118C234.983 290.855 231.562 304.855 228.909 311.045C226.672 316.266 222.471 326.159 216.968 340.083C211.475 353.982 204.724 371.795 197.434 392.729Z" fill="#8A4F59"/>
<path fill-rule="evenodd" clip-rule="evenodd" d="M114.525 68.3604C114.525 68.3604 113.275 64.3604 109.15 64.3604C105.025 64.3604 101.9 66.3604 101.4 70.8604C100.9 75.3604 101.65 85.4854 101.65 86.6104C101.65 87.7354 104.025 91.1104 108.275 91.2354C112.525 91.3604 115.15 88.6104 115.65 84.6104C116.15 80.6104 115.4 76.7354 115.4 74.9854C115.4 73.2354 114.775 70.9854 114.525 68.3604Z" fill="#FFEDD4"/>
<path fill-rule="evenodd" clip-rule="evenodd" d="M112.276 73.7358C112.276 73.7358 112.776 79.7358 111.026 82.9858C109.276 86.2358 106.151 86.9858 103.776 86.2358C101.401 85.4858 101.651 78.1108 102.026 75.4858C102.401 72.8608 101.901 67.8608 104.526 66.2358C107.151 64.6108 111.401 64.1108 112.026 66.3608C112.651 68.6108 112.401 69.8608 112.276 73.7358Z" fill="white"/>
<path d="M113.483 68.5958C113.287 68.0638 112.162 65.4239 109.15 65.4239C107.247 65.4239 105.605 65.8858 104.431 66.8708C103.371 67.7608 102.661 69.1129 102.454 70.9769C102.074 74.3999 102.438 81.2509 102.619 84.6429C102.674 85.6629 102.712 86.3889 102.712 86.6109C102.712 87.0439 103.398 88.0919 104.683 88.9889C105.606 89.6339 106.823 90.1338 108.304 90.1768C110.083 90.2288 111.517 89.7079 112.56 88.7719C113.672 87.7719 114.371 86.2778 114.595 84.4818C114.931 81.7918 114.679 79.1388 114.495 77.2048C114.409 76.2928 114.337 75.5289 114.337 74.9849C114.337 74.0959 114.154 73.0249 113.95 71.8279C113.783 70.8429 113.602 69.7748 113.483 68.5958ZM109.15 63.2979C114.054 63.2979 115.53 68.0199 115.534 68.0329L115.568 68.1368L115.58 68.2608C115.686 69.3818 115.873 70.4739 116.044 71.4799C116.265 72.7799 116.463 73.9439 116.463 74.9859C116.463 75.5029 116.528 76.1889 116.606 77.0059C116.8 79.0499 117.067 81.8529 116.706 84.7399C116.418 87.0479 115.483 89.0009 113.981 90.3499C112.542 91.6429 110.606 92.3649 108.247 92.2949C106.297 92.2379 104.691 91.5769 103.472 90.7249C101.592 89.4129 100.588 87.5189 100.588 86.6109C100.588 86.3359 100.554 85.6769 100.504 84.7499C100.32 81.2989 99.9491 74.3259 100.347 70.7449C100.619 68.2949 101.598 66.4799 103.072 65.2439C104.648 63.9199 106.76 63.2979 109.15 63.2979Z" fill="#8A4F59"/>
<path fill-rule="evenodd" clip-rule="evenodd" d="M135.65 59.1102C135.65 59.1102 135.15 53.8602 129.525 54.1102C123.9 54.3602 121.9 56.3602 120.775 60.7352C119.65 65.1102 120.275 76.2352 120.275 78.7352C120.275 81.2352 121.65 84.3602 126.775 84.1102C131.9 83.8602 134.65 82.3602 136.525 78.1102C138.4 73.8602 137.65 68.9852 137.275 66.4852C136.9 63.9852 136.4 61.9852 135.65 59.1102Z" fill="#FFEDD4"/>
<path fill-rule="evenodd" clip-rule="evenodd" d="M133.024 65.6105C133.024 65.6105 133.024 72.7355 129.524 75.4855C126.024 78.2355 123.024 79.1105 121.649 77.8605C120.274 76.6105 120.524 68.9855 120.649 67.1105C120.774 65.2355 119.774 57.2355 124.899 55.2355C130.024 53.2355 131.899 56.9855 132.524 59.7355C133.149 62.4855 133.149 62.1105 133.024 65.6105Z" fill="white"/>
<path d="M134.596 59.2276C134.595 59.2156 134.191 54.9646 129.572 55.1696C127 55.2836 125.288 55.7726 124.128 56.7026C122.987 57.6186 122.308 59.0326 121.802 60.9976C120.933 64.3776 121.16 72.1936 121.282 76.3886C121.313 77.4926 121.339 78.3676 121.339 78.7366C121.339 78.8696 121.341 78.9656 121.343 79.0166C121.39 79.9686 121.68 80.9876 122.392 81.7486L122.394 81.7466C123.12 82.5206 124.32 83.0626 126.21 83.0626C126.419 83.0626 126.591 83.0596 126.727 83.0526C129.114 82.9366 130.927 82.5416 132.327 81.7016C133.688 80.8856 134.71 79.6006 135.556 77.6826C137.293 73.7446 136.597 69.1076 136.236 66.6946L136.227 66.6396C136.041 65.4006 135.829 64.3016 135.572 63.1716C135.31 62.0126 134.999 60.8036 134.628 59.3776L134.606 59.2946L134.596 59.2276ZM129.479 53.0526C135.713 52.7756 136.61 58.2566 136.697 58.9276C137.065 60.3396 137.374 61.5456 137.637 62.7066C137.911 63.9186 138.136 65.0716 138.325 66.3326L138.333 66.3876C138.726 69.0066 139.48 74.0396 137.496 78.5386C136.468 80.8706 135.176 82.4626 133.412 83.5206C131.686 84.5556 129.561 85.0366 126.824 85.1696C126.572 85.1816 126.365 85.1876 126.208 85.1876C123.648 85.1876 121.942 84.3686 120.847 83.1986V83.1946C119.74 82.0116 119.291 80.5016 119.224 79.1146C119.216 78.9456 119.212 78.8196 119.212 78.7356C119.212 78.1336 119.19 77.3876 119.162 76.4466C119.038 72.1496 118.805 64.1446 119.749 60.4736C120.368 58.0636 121.253 56.2896 122.798 55.0496C124.326 53.8246 126.428 53.1876 129.479 53.0526Z" fill="#8A4F59"/>
<path fill-rule="evenodd" clip-rule="evenodd" d="M146.276 64.2357C146.276 64.2357 151.901 60.9857 156.401 68.4857C160.901 75.9857 161.901 82.2357 159.151 86.8607C156.401 91.4857 155.901 91.8607 151.651 93.2357C147.401 94.6107 144.901 89.6107 143.776 86.7357C142.651 83.8607 142.026 75.1107 142.151 71.9857C142.276 68.8607 143.151 65.8607 146.276 64.2357Z" fill="#FFEDD4"/>
<path fill-rule="evenodd" clip-rule="evenodd" d="M148.525 64.1104C148.525 64.1104 154.4 66.9854 154.4 73.4854C154.4 79.9854 152.775 83.9854 150.525 85.6104C148.275 87.2354 146.025 87.7354 144.9 86.7354C143.775 85.7354 141.9 77.8604 142.025 74.9854C142.15 72.1104 142.775 68.6104 144.025 66.7354C145.275 64.8604 145.9 63.9854 148.525 64.1104Z" fill="white"/>
<path d="M145.784 63.2938C146.253 63.0398 152.46 59.8588 157.309 67.9418C159.643 71.8308 161.067 75.4148 161.549 78.6418C162.044 81.9458 161.56 84.8828 160.062 87.4008C158.626 89.8168 157.767 91.1328 156.648 92.0778C155.503 93.0428 154.233 93.5158 151.974 94.2458C149.354 95.0938 147.305 94.0138 145.75 92.2898C144.346 90.7328 143.382 88.6428 142.786 87.1228C142.258 85.7718 141.84 83.2998 141.552 80.6808C141.187 77.3658 141.019 73.7528 141.091 71.9458C141.158 70.2568 141.434 68.5898 142.124 67.1058C142.845 65.5558 143.993 64.2248 145.784 63.2938ZM155.491 69.0298C151.527 62.4238 146.806 65.1548 146.794 65.1618L146.765 65.1778C145.431 65.8708 144.58 66.8538 144.051 67.9918C143.492 69.1948 143.266 70.5918 143.208 72.0268C143.14 73.7378 143.307 77.2148 143.663 80.4468C143.934 82.9068 144.308 85.1888 144.763 86.3488C145.292 87.7028 146.142 89.5518 147.33 90.8688C148.368 92.0198 149.696 92.7538 151.325 92.2268C153.316 91.5828 154.422 91.1798 155.278 90.4578C156.157 89.7148 156.924 88.5298 158.236 86.3208C159.476 84.2368 159.871 81.7638 159.45 78.9478C159.009 75.9978 157.679 72.6758 155.491 69.0298Z" fill="#8A4F59"/>
<path fill-rule="evenodd" clip-rule="evenodd" d="M190.524 112.86C193.024 116.86 195.149 122.36 194.899 124.985C194.649 127.61 193.524 129.735 189.899 132.235C186.274 134.735 182.899 134.485 181.149 133.985C179.399 133.485 177.649 132.61 176.899 127.36C176.149 122.11 176.274 115.61 177.649 113.36C180.104 109.343 187.787 108.481 190.524 112.86Z" fill="#FFEDD4"/>
<path fill-rule="evenodd" clip-rule="evenodd" d="M180.901 110.86C180.901 110.86 186.026 109.235 187.901 114.985C189.776 120.735 189.901 126.235 188.276 128.86C186.651 131.485 183.526 132.985 181.401 132.86C179.276 132.735 176.651 130.61 176.526 124.235C176.401 117.86 177.276 113.735 178.526 112.36C179.776 110.985 179.776 110.985 180.901 110.86Z" fill="white"/>
<path d="M191.427 112.301C192.749 114.416 193.973 116.951 194.816 119.287C195.631 121.546 196.091 123.654 195.956 125.086C195.815 126.565 195.425 127.908 194.556 129.239L194.554 129.238C193.713 130.525 192.434 131.777 190.504 133.108C188.849 134.25 187.238 134.866 185.786 135.156C183.744 135.564 181.998 135.332 180.86 135.008C179.817 134.71 178.766 134.292 177.825 133.115C176.965 132.039 176.255 130.343 175.85 127.511C175.449 124.698 175.293 121.527 175.438 118.812C175.576 116.246 175.995 114.037 176.746 112.809C177.346 111.828 178.201 111.012 179.204 110.385C180.638 109.489 182.395 108.969 184.15 108.893C185.924 108.816 187.71 109.191 189.178 110.089C190.069 110.633 190.843 111.366 191.427 112.301ZM192.822 120.001C192.034 117.816 190.879 115.429 189.624 113.421C189.223 112.779 188.689 112.275 188.073 111.898C186.977 111.229 185.614 110.949 184.24 111.009C182.846 111.07 181.455 111.48 180.325 112.186C179.591 112.645 178.974 113.227 178.555 113.913C177.997 114.825 177.674 116.681 177.554 118.919C177.416 121.498 177.566 124.521 177.95 127.211C178.295 129.628 178.837 130.995 179.475 131.794C180.034 132.492 180.734 132.762 181.439 132.964C182.335 133.22 183.721 133.4 185.369 133.071C186.576 132.83 187.916 132.316 189.298 131.363C190.99 130.196 192.087 129.135 192.777 128.08V128.076C193.438 127.064 193.736 126.031 193.845 124.886C193.951 123.776 193.539 121.989 192.822 120.001Z" fill="#8A4F59"/>
<path fill-rule="evenodd" clip-rule="evenodd" d="M54.9627 183.299C56.2967 182.414 59.4627 179.8 64.7137 181.799C69.9637 183.799 79.0887 192.174 79.7137 196.799C80.3377 201.424 77.5877 205.549 75.7127 207.424C73.8387 209.299 71.2127 211.049 68.3377 212.299C65.4637 213.549 63.2127 214.299 61.4627 213.049C59.7127 211.799 58.7127 209.799 57.0877 206.424C55.4637 203.049 51.9777 198.411 50.7127 196.924C46.4507 191.91 48.9317 187.299 54.9627 183.299Z" fill="#FFEDD4"/>
<path fill-rule="evenodd" clip-rule="evenodd" d="M51.9619 185.423C51.9619 185.423 56.5879 181.298 59.4619 182.423C62.3369 183.548 68.088 187.923 69.838 193.798C71.587 199.673 72.088 204.048 69.338 206.548C66.587 209.048 63.9619 210.173 62.0869 209.798C60.2129 209.423 57.838 207.548 56.213 204.048C54.587 200.548 52.8369 198.923 51.8369 197.673C50.8369 196.423 49.2119 193.673 48.7119 192.173C48.2119 190.673 51.9619 185.423 51.9619 185.423Z" fill="white"/>
<path d="M54.3766 182.414C54.5076 182.327 54.5896 182.271 54.6756 182.211C56.3096 181.086 59.6986 178.753 65.0896 180.806C67.9846 181.908 71.9605 184.817 75.1565 188.014C78.1015 190.958 80.4316 194.213 80.7616 196.657C81.0516 198.801 80.6856 200.836 80.0126 202.623C79.1036 205.04 77.6256 207.011 76.4626 208.174C75.4746 209.162 74.2846 210.119 72.9626 210.993C71.6696 211.847 70.2466 212.622 68.7596 213.269C67.2526 213.924 65.8986 214.451 64.6476 214.656C63.2366 214.888 61.9796 214.72 60.8466 213.911C59.8436 213.194 59.0696 212.285 58.3256 211.092C57.6296 209.975 56.9595 208.604 56.1305 206.883C55.4905 205.553 54.5465 204.012 53.5685 202.555C52.1365 200.422 50.6356 198.471 49.9006 197.607C49.5606 197.206 49.2575 196.805 48.9925 196.405C47.5275 194.197 47.1996 192.039 47.7886 189.95C48.3546 187.945 49.7746 186.059 51.8456 184.299C52.6036 183.657 53.4506 183.027 54.3766 182.414ZM55.8796 183.955C55.7366 184.054 55.6075 184.143 55.5475 184.183C54.6925 184.75 53.9106 185.33 53.2176 185.92C51.4636 187.41 50.2776 188.952 49.8336 190.525C49.4126 192.014 49.6696 193.588 50.7626 195.235C50.9816 195.565 51.2345 195.899 51.5215 196.237C52.2845 197.134 53.8426 199.16 55.3306 201.377C56.3606 202.912 57.3586 204.542 58.0426 205.962C58.8396 207.616 59.4816 208.932 60.1296 209.971C60.7296 210.934 61.3316 211.651 62.0776 212.184C62.6936 212.625 63.4386 212.707 64.3076 212.564C65.3366 212.395 66.5466 211.92 67.9136 211.326C69.2836 210.73 70.5976 210.014 71.7926 209.224C72.9866 208.435 74.0636 207.568 74.9606 206.671C75.9666 205.665 77.2436 203.961 78.0286 201.876C78.5916 200.382 78.8976 198.694 78.6616 196.939C78.3986 194.996 76.3106 192.174 73.6536 189.517C70.6436 186.507 66.9586 183.79 64.3346 182.79C59.9796 181.132 57.2136 183.037 55.8796 183.955Z" fill="#8A4F59"/>
<path d="M186.646 101.869C187.229 101.798 187.759 102.213 187.83 102.795C187.901 103.378 187.486 103.907 186.904 103.978C186.89 103.98 181.929 104.544 179.572 108.697C178.332 110.884 177.384 113.677 177.115 117.896C176.84 122.221 177.273 128.01 178.818 136.104C181.205 148.614 182.787 161.569 183.793 169.812C184.117 172.472 184.384 174.652 184.576 176.029C185.458 182.326 185.833 200.352 185.834 200.404C185.846 200.988 185.381 201.472 184.796 201.484C184.212 201.495 183.729 201.03 183.717 200.446C183.716 200.395 183.344 182.523 182.476 176.321C182.248 174.699 181.994 172.614 181.684 170.071C180.678 161.829 179.097 148.878 176.734 136.495C175.154 128.214 174.713 122.253 174.999 117.765C175.292 113.173 176.346 110.09 177.729 107.652C180.622 102.553 186.63 101.871 186.646 101.869Z" fill="#8A4F59"/>
<path d="M158.081 205.203C158.134 205.786 157.705 206.302 157.122 206.354C156.54 206.407 156.024 205.977 155.972 205.395C155.964 205.307 153.07 174.477 152.093 162.507C151.581 156.236 151.09 150.508 150.69 146.087C150.269 141.426 149.919 137.877 149.722 136.302C149.599 135.313 149.409 133.075 149.161 130.152C148.651 124.132 147.893 115.194 146.976 108.439C146.276 103.284 144.725 96.2925 143.33 89.9965C141.984 83.9265 140.78 78.4945 140.593 75.8735C140.398 73.1355 140.435 70.0935 141.464 67.1375C142.507 64.1405 144.551 61.2845 148.358 59.0135C156.144 54.3685 164.318 61.4715 164.341 61.4925C164.786 61.8735 164.838 62.5425 164.457 62.9875C164.076 63.4325 163.407 63.4845 162.962 63.1035C162.941 63.0865 155.909 56.9765 149.445 60.8325C146.128 62.8115 144.358 65.2685 143.465 67.8345C142.557 70.4405 142.531 73.2105 142.71 75.7235C142.889 78.2235 144.074 83.5675 145.398 89.5395C146.805 95.8885 148.37 102.94 149.078 108.157C150.015 115.054 150.77 123.972 151.279 129.977C151.523 132.866 151.712 135.079 151.832 136.044C152.015 137.503 152.364 141.083 152.8 145.895C153.238 150.73 153.736 156.503 154.211 162.339C155.232 174.87 158.073 205.116 158.081 205.203Z" fill="#8A4F59"/>
<path d="M120.255 53.6419C120.411 53.0779 120.995 52.7469 121.559 52.9029C122.123 53.0589 122.455 53.6429 122.298 54.2069C122.293 54.2269 120.345 61.0419 120.96 72.2419C121.271 77.8819 121.583 82.8859 121.882 87.2769C122.175 91.5719 122.457 95.3019 122.71 98.4669C122.946 101.416 123.816 106.943 124.787 113.112C125.886 120.091 127.112 127.883 127.706 133.693C128.023 136.797 128.38 140.024 128.723 143.131C129.54 150.534 130.282 157.248 130.46 162.264L130.499 163.351C130.78 171.163 131.449 189.807 131.21 197.58C130.961 205.686 131.085 210.769 131.085 210.784C131.095 211.368 130.628 211.85 130.043 211.86C129.459 211.869 128.977 211.402 128.968 210.818C128.968 210.803 128.842 205.666 129.093 197.522C129.33 189.82 128.661 171.22 128.382 163.426L128.343 162.339C128.169 157.449 127.429 150.75 126.614 143.363C126.282 140.358 125.937 137.237 125.597 133.909C125.003 128.098 123.785 120.363 122.695 113.436C121.711 107.184 120.829 101.582 120.593 98.6339C120.347 95.5498 120.066 91.8409 119.765 87.4189C119.47 83.0909 119.159 78.0939 118.843 72.3599C118.209 60.8079 120.249 53.6629 120.255 53.6419Z" fill="#8A4F59"/>
<path d="M112.499 224.957C112.895 224.528 113.565 224.502 113.994 224.898C114.423 225.294 114.448 225.964 114.052 226.393C114.046 226.399 111.87 228.685 112.084 231.471C112.313 234.44 114.268 237.315 114.272 237.323C114.605 237.804 114.484 238.465 114.002 238.797C113.521 239.13 112.86 239.009 112.527 238.527C112.521 238.517 110.237 235.158 109.965 231.629C109.682 227.915 112.491 224.964 112.499 224.957Z" fill="#8A4F59"/>
<path d="M139.787 217.556C140.129 217.079 140.793 216.97 141.269 217.311C141.746 217.652 141.855 218.317 141.514 218.793C141.505 218.805 138.451 223.033 138.333 228.445C138.221 233.658 143.291 237.578 143.306 237.59C143.767 237.951 143.847 238.619 143.485 239.08C143.123 239.541 142.455 239.62 141.995 239.259C141.978 239.245 136.08 234.69 136.217 228.404C136.349 222.316 139.777 217.569 139.787 217.556Z" fill="#8A4F59"/>
<path d="M166.704 214.075C166.965 213.553 167.601 213.34 168.124 213.602C168.646 213.863 168.858 214.499 168.598 215.022C168.594 215.029 167.37 217.477 167.827 220.783C168.26 223.922 172.093 226.403 172.103 226.41C172.594 226.729 172.733 227.386 172.415 227.876C172.097 228.367 171.44 228.507 170.949 228.188C170.936 228.18 166.293 225.175 165.725 221.066C165.181 217.121 166.699 214.084 166.704 214.075Z" fill="#8A4F59"/>
<path d="M189.761 211.343C190.082 210.852 190.74 210.715 191.232 211.035C191.722 211.356 191.86 212.014 191.539 212.505C191.534 212.513 189.63 215.313 190.08 218.92C190.5 222.276 195.269 224.055 195.282 224.06C195.828 224.271 196.099 224.885 195.888 225.43C195.677 225.976 195.064 226.247 194.518 226.036C194.501 226.029 188.55 223.82 187.97 219.177C187.421 214.786 189.755 211.353 189.761 211.343Z" fill="#8A4F59"/>
<path fill-rule="evenodd" clip-rule="evenodd" d="M110.588 119.237C110.588 119.237 107.463 119.362 107.338 120.362C107.213 121.362 108.276 121.612 110.463 121.55C112.65 121.488 113.401 121.05 113.088 120.3C112.775 119.55 111.65 119.175 110.588 119.237Z" fill="#FFC78C"/>
<path fill-rule="evenodd" clip-rule="evenodd" d="M109.711 123.861C109.774 124.424 111.274 125.799 113.649 125.674C116.024 125.549 116.899 123.799 115.399 123.611C113.899 123.423 111.023 121.986 109.711 123.861Z" fill="#FFC78C"/>
<path fill-rule="evenodd" clip-rule="evenodd" d="M108.087 145.674C108.087 145.674 109.712 144.549 112.337 144.674C114.962 144.799 117.525 143.549 117.9 144.049C118.275 144.549 119.713 148.237 113.962 148.299C108.211 148.361 107.024 147.486 108.087 145.674Z" fill="#FFC78C"/>
<path fill-rule="evenodd" clip-rule="evenodd" d="M113.712 150.861C113.712 150.861 110.899 151.236 111.337 152.674C111.775 154.112 113.337 152.987 115.275 152.674C117.213 152.361 118.4 152.111 117.963 150.986C117.526 149.861 115.337 150.424 113.712 150.861Z" fill="#FFC78C"/>
<path fill-rule="evenodd" clip-rule="evenodd" d="M136.398 145.049C136.398 145.049 132.585 145.299 133.023 147.174C133.461 149.049 136.148 147.987 138.086 147.362C140.024 146.737 142.149 146.924 142.336 145.987C142.523 145.05 141.148 144.487 139.523 144.487C137.898 144.487 137.461 144.861 136.398 145.049Z" fill="#FFC78C"/>
<path fill-rule="evenodd" clip-rule="evenodd" d="M137.15 149.675C137.15 149.675 135.775 151.738 137.275 152.238C138.775 152.738 140.213 151.425 140.713 150.613C141.213 149.801 141.713 148.3 140.4 148.3C139.087 148.3 138.15 148.862 137.15 149.675Z" fill="#FFC78C"/>
<path fill-rule="evenodd" clip-rule="evenodd" d="M133.523 118.3C133.523 118.3 137.211 117.862 137.961 118.425C138.711 118.988 139.336 120.175 136.898 120.925C134.46 121.675 131.523 121.113 131.46 120.05C131.397 118.987 131.898 118.612 133.523 118.3Z" fill="#FFC78C"/>
<path fill-rule="evenodd" clip-rule="evenodd" d="M129.088 113.55C129.088 113.55 129.588 111.925 133.963 112.237C138.338 112.55 139.088 113.175 138.901 114.237C138.714 115.299 136.276 115.487 134.213 115.487C132.15 115.487 128.838 115.675 129.088 113.55Z" fill="#FFC78C"/>
<path fill-rule="evenodd" clip-rule="evenodd" d="M154.274 115.111C154.274 115.111 154.275 116.736 158.962 116.236C163.65 115.736 165.525 114.611 166.15 113.736C166.775 112.861 167.4 111.173 164.899 111.423C162.399 111.673 160.274 113.673 157.899 113.548C155.524 113.423 154.087 114.048 154.274 115.111Z" fill="#FFC78C"/>
<path fill-rule="evenodd" clip-rule="evenodd" d="M159.962 118.486C159.962 118.486 158.212 119.424 159.399 120.861C160.586 122.298 162.462 121.486 163.587 120.924C164.711 120.361 166.212 118.987 165.774 117.924C165.337 116.861 162.712 116.611 159.962 118.486Z" fill="#FFC78C"/>
<path fill-rule="evenodd" clip-rule="evenodd" d="M157.398 148.736C157.398 148.736 156.335 146.423 159.898 145.486C163.461 144.549 165.523 145.298 165.711 146.736C165.899 148.174 162.399 148.799 160.648 149.049C158.898 149.299 157.898 149.924 157.398 148.736Z" fill="#FFC78C"/>
<path fill-rule="evenodd" clip-rule="evenodd" d="M183.963 149.548C183.963 149.548 184.462 147.61 187.9 147.361C191.338 147.111 191.4 147.923 191.65 148.986C191.9 150.049 189.463 151.236 187.213 151.236C184.962 151.236 184.275 151.048 183.963 149.548Z" fill="#FFC78C"/>
<path fill-rule="evenodd" clip-rule="evenodd" d="M189.275 172.924C189.275 172.924 189.463 171.111 193.055 171.174C196.646 171.237 197.024 172.174 197.024 173.049C197.024 173.924 196.332 174.737 194.65 174.737C192.963 174.736 189.462 174.673 189.275 172.924Z" fill="#FFC78C"/>
<path fill-rule="evenodd" clip-rule="evenodd" d="M191.464 177.675C194.339 176.487 196.401 176.487 196.901 177.425C197.401 178.362 196.152 179.675 194.777 179.863C193.402 180.05 192.776 179.988 191.214 180.425C188.728 181.121 188.411 178.936 191.464 177.675Z" fill="#FFC78C"/>
<path fill-rule="evenodd" clip-rule="evenodd" d="M81.727 232.395C81.727 232.395 80.664 230.583 82.571 229.332C84.477 228.082 86.728 226.552 88.571 226.738C90.415 226.926 91.79 228.051 90.509 228.957C89.228 229.863 87.29 230.02 86.321 230.863C85.352 231.707 84.071 232.926 83.227 232.988C82.383 233.05 82.164 232.676 81.727 232.395Z" fill="#FFC78C"/>
<path fill-rule="evenodd" clip-rule="evenodd" d="M85.6024 237.706C85.2274 237.518 84.3524 236.8 85.0084 235.518C85.6644 234.236 86.9144 232.674 88.0084 231.893C89.1024 231.112 90.7894 230.237 91.7274 230.768C92.6654 231.299 92.1654 232.987 90.7584 234.112C89.3514 235.237 88.1954 236.081 87.5084 237.237C86.8214 238.393 85.9774 237.988 85.6024 237.706Z" fill="#FFC78C"/>
<path fill-rule="evenodd" clip-rule="evenodd" d="M112.884 261.302C112.884 261.302 116.322 264.865 117.572 264.115C118.821 263.365 117.572 261.052 116.322 259.927C115.071 258.802 112.509 256.489 111.071 256.989C109.633 257.489 108.697 258.552 110.258 259.115C111.822 259.676 112.259 260.239 112.884 261.302Z" fill="#FFC78C"/>
<path fill-rule="evenodd" clip-rule="evenodd" d="M131.758 242.989C133.071 242.364 134.634 244.552 135.946 245.927C137.258 247.303 138.07 250.365 138.07 251.552C138.07 252.74 137.132 253.49 136.445 253.427C135.758 253.364 133.507 250.614 133.32 248.927C133.133 247.239 132.945 246.928 131.945 245.615C130.946 244.301 130.696 243.489 131.758 242.989Z" fill="#FFC78C"/>
<path fill-rule="evenodd" clip-rule="evenodd" d="M170.509 230.364C170.509 230.364 173.135 229.677 174.322 233.177C175.51 236.677 175.76 239.115 174.447 239.615C173.135 240.115 171.572 237.741 171.259 235.865C170.946 233.99 170.571 232.927 169.946 232.052C169.321 231.177 169.696 230.864 170.509 230.364Z" fill="#FFC78C"/>
<path fill-rule="evenodd" clip-rule="evenodd" d="M194.821 232.364C194.821 232.364 193.07 232.301 193.571 235.551C194.071 238.802 194.82 243.426 197.07 244.301C199.321 245.176 199.008 243.552 198.883 241.926C198.758 240.301 197.696 237.801 197.134 236.051C196.57 234.301 196.07 232.175 194.821 232.364Z" fill="#FFC78C"/>
<path fill-rule="evenodd" clip-rule="evenodd" d="M193.258 245.615C193.258 245.615 192.445 246.864 193.508 248.927C194.571 250.99 194.884 252.49 196.134 252.053C197.384 251.615 197.322 249.427 196.884 247.865C196.445 246.301 194.383 244.239 193.258 245.615Z" fill="#FFC78C"/>
<path fill-rule="evenodd" clip-rule="evenodd" d="M197.196 302.24C197.196 302.24 195.071 300.615 193.321 307.365C191.571 314.115 187.071 330.239 183.446 338.115C179.821 345.99 170.446 358.865 173.446 362.115C176.446 365.365 182.446 349.115 185.321 344.615C188.196 340.115 194.571 319.115 195.321 314.74C196.071 310.365 198.321 303.365 197.196 302.24Z" fill="#FFC78C"/>
<path fill-rule="evenodd" clip-rule="evenodd" d="M170.946 371.115C170.946 371.115 168.821 370.74 167.196 375.24C165.571 379.74 164.571 381.99 166.321 382.365C168.071 382.74 168.946 379.115 169.696 377.365C170.446 375.615 172.821 372.365 170.946 371.115Z" fill="#FFC78C"/>
<path fill-rule="evenodd" clip-rule="evenodd" d="M103.199 279.363C103.199 279.363 105.949 276.989 108.449 291.489C110.948 305.988 110.073 314.364 109.198 317.614C108.324 320.863 108.074 321.614 106.573 321.488C105.073 321.363 104.948 317.864 105.198 312.363C105.448 306.863 105.573 296.863 105.073 292.613C104.573 288.363 102.073 280.238 103.199 279.363Z" fill="#FFEDD4"/>
<path fill-rule="evenodd" clip-rule="evenodd" d="M107.949 326.239C107.949 326.239 105.323 326.988 105.698 329.238C106.073 331.489 104.448 334.238 104.198 335.989C103.948 337.739 105.699 337.613 107.699 335.239C109.698 332.864 110.073 326.614 107.949 326.239Z" fill="#FFEDD4"/>
<path fill-rule="evenodd" clip-rule="evenodd" d="M77.825 416.177C77.825 416.177 76.137 415.489 74.262 419.427C72.388 423.365 70.4491 428.177 70.0131 429.302C69.5751 430.427 68.513 431.865 69.7 432.427C70.887 432.989 72.388 429.989 74.325 426.989C76.262 423.989 77.2001 420.676 77.7631 419.239C78.3251 417.802 78.638 416.365 77.825 416.177Z" fill="#FFEDD4"/>
<path fill-rule="evenodd" clip-rule="evenodd" d="M83.3235 366.366C83.3235 366.366 78.5735 367.741 75.0735 374.116C71.5735 380.491 70.9485 385.991 70.6985 387.866C70.4485 389.741 70.5735 394.616 75.4485 399.991C80.3235 405.366 87.1985 411.742 98.4485 419.116C109.699 426.49 114.868 430.086 134.574 436.866C146.661 441.024 185.099 443.067 192.449 439.866C194.425 438.665 197.199 426.741 198.199 423.616C199.199 420.491 200.074 409.616 200.074 409.616C200.074 409.616 191.324 412.74 177.949 411.616C164.574 410.491 145.574 406.241 130.574 399.366C115.574 392.491 103.449 384.991 95.8235 378.866C88.1985 372.741 83.1985 366.241 83.3235 366.366Z" fill="#00B8E8"/>
<path fill-rule="evenodd" clip-rule="evenodd" d="M172.324 410.99C172.324 410.99 155.574 419.615 132.824 417.615C110.074 415.615 73.4491 403.24 71.6991 394.24C69.9491 385.24 73.0741 378.115 74.8241 374.615C76.5741 371.115 81.8241 366.74 82.6991 366.49C83.5741 366.24 84.8241 367.74 86.5741 370.24C88.3241 372.74 94.3241 378.24 105.574 385.615C116.824 392.99 122.949 396.49 139.949 403.115C156.949 409.74 172.324 410.99 172.324 410.99Z" fill="#008CCF"/>
<path fill-rule="evenodd" clip-rule="evenodd" d="M83.3252 376.239C83.3252 376.239 85.7002 376.114 89.0752 378.614C92.4502 381.114 101.075 386.864 102.825 388.614C104.575 390.364 106.199 391.739 104.45 392.489C102.7 393.239 94.0752 385.739 91.9502 383.989C89.8252 382.239 88.1992 381.364 86.8252 380.239C85.4502 379.114 81.4502 377.114 83.3252 376.239Z" fill="#0096D4"/>
<path d="M82.9732 367.637C81.6302 368.241 78.5142 370.054 76.0042 374.625C72.7232 380.603 72.0401 385.792 71.7771 387.788L71.7492 388.001C71.6132 389.023 71.6042 391.045 72.6062 393.602C73.2782 395.318 74.4012 397.258 76.2342 399.28C78.6372 401.93 81.5432 404.836 85.2482 407.997C88.9442 411.152 93.4382 414.561 99.0302 418.226L100.097 418.926C110.554 425.786 115.972 429.341 134.918 435.86C140.895 437.916 153.48 439.452 165.469 440.073C177.236 440.682 188.351 440.425 191.945 438.927C193.115 438.057 195.01 431.133 196.243 426.63C196.635 425.201 196.962 424.004 197.19 423.291C197.923 420.997 198.602 414.17 198.881 411.081C195.768 411.923 188.149 413.538 177.861 412.674C170.716 412.073 161.97 410.584 153.072 408.283C145.213 406.251 137.232 403.582 130.133 400.328C122.945 397.033 116.422 393.602 110.741 390.251C104.468 386.551 99.1942 382.933 95.1592 379.691C89.6672 375.28 85.5112 370.663 83.6192 368.417C83.3412 368.084 83.1292 367.83 82.9732 367.637ZM74.1441 373.604C76.7601 368.838 80.0882 366.693 81.8282 365.84C81.5042 364.798 82.6002 364.844 83.7792 365.407L83.9122 365.47L84.0132 365.556L84.0152 365.558L85.4701 366.805L85.1222 366.913L85.2402 367.054C87.0772 369.236 91.1202 373.724 96.4892 378.037C100.443 381.213 105.632 384.769 111.822 388.422C117.465 391.75 123.922 395.15 131.015 398.4C137.994 401.598 145.854 404.227 153.606 406.231C162.364 408.495 170.985 409.961 178.038 410.554C191.188 411.66 199.698 408.621 199.723 408.613L201.268 408.063L201.134 409.697C201.132 409.728 200.25 420.685 199.209 423.938C198.98 424.654 198.664 425.808 198.288 427.184C196.95 432.073 194.882 439.625 193.003 440.769L192.941 440.806L192.874 440.835C189.059 442.496 177.493 442.817 165.363 442.189C153.197 441.558 140.383 439.985 134.23 437.869C115.034 431.265 109.539 427.66 98.9352 420.703L97.8681 420.003C92.2111 416.294 87.6422 412.827 83.8702 409.607C80.1062 406.394 77.1351 403.422 74.6651 400.699C72.6331 398.459 71.3831 396.294 70.6311 394.374C69.4641 391.396 69.4852 388.968 69.6502 387.728L69.6781 387.514C69.9531 385.406 70.6751 379.923 74.1441 373.604Z" fill="#8A4F59"/>
<path fill-rule="evenodd" clip-rule="evenodd" d="M107.699 393.864C107.699 393.864 107.324 394.364 110.074 396.114C112.824 397.864 115.449 398.364 115.949 397.364C116.449 396.364 114.574 394.489 112.824 393.739C111.074 392.989 106.824 391.739 107.699 393.864Z" fill="#00B5F2"/>
<path fill-rule="evenodd" clip-rule="evenodd" d="M140.075 411.989C140.075 411.989 135.95 411.239 135.7 412.989C135.45 414.739 138.95 415.864 141.575 415.739C144.2 415.614 147.075 414.864 146.7 413.614C146.325 412.364 143.825 411.364 140.075 411.989Z" fill="#008FE3"/>
<path fill-rule="evenodd" clip-rule="evenodd" d="M129.701 411.24C129.701 411.24 128.951 408.365 121.076 407.99C113.201 407.615 107.701 406.24 103.701 404.865C99.7006 403.49 96.6996 402.365 95.4506 402.865C94.2006 403.365 99.5756 406.99 104.826 408.615C110.076 410.24 120.576 412.49 124.951 412.365C129.326 412.24 129.326 412.865 129.701 411.24Z" fill="#0082D1"/>
</g>
</svg>
