<svg width="106" height="106" viewBox="0 0 106 106" fill="none" xmlns="http://www.w3.org/2000/svg">
<g clip-path="url(#clip0_1_6522)">
<path d="M53.002 0.0869141C82.2729 0.0869141 106.002 23.8139 106.002 53.0859C106.002 82.3569 82.2729 106.086 53.002 106.086C23.73 106.086 0.00195316 82.3569 0.00195316 53.0859C0.000953157 23.8129 23.73 0.0869141 53.002 0.0869141Z" fill="#8FB1C4"/>
<path d="M84.4671 71.9668L51.9651 106.072C25.2741 105.56 3.41814 85.3158 0.369141 59.3218L22.2281 35.4618L35.1891 22.7608L45.0821 24.6028L57.1951 21.1128L73.9821 28.9898L82.0441 38.3318L85.5611 53.3558L84.4671 71.9668Z" fill="#83A5B7"/>
<path d="M37.4622 50.5771C36.6832 56.0251 37.2432 61.4761 39.9992 66.9241L42.6982 66.9321C41.0032 60.7911 39.9852 55.4791 40.3392 50.6801C39.3212 50.6761 38.3662 50.6121 37.4602 50.5781L37.4622 50.5771ZM54.6502 18.1551L61.9102 22.0091L70.1852 22.3251C71.1522 22.3581 71.9822 22.9051 72.4182 23.6961L76.6892 30.5141L83.7202 34.9441C84.5292 35.4541 84.9702 36.3271 84.9642 37.2151L85.2552 45.2891L89.1302 52.6391C89.5542 53.4451 89.5252 54.3691 89.1302 55.1211L85.2782 62.3811L84.9602 70.6561C84.9272 71.6251 84.3802 72.4531 83.5892 72.8901L76.7732 77.1611L72.3432 84.1931C71.8332 85.0011 70.9602 85.4411 70.0722 85.4371L62.0002 85.7291L54.6502 89.6061C53.8422 90.0311 52.9192 90.0001 52.1672 89.6061L44.9052 85.7521L36.6322 85.4361C35.6652 85.4031 34.8352 84.8541 34.3982 84.0651L30.1252 77.2481L23.0942 72.8171C22.2852 72.3091 21.8442 71.4361 21.8502 70.5471L21.5592 62.4711L17.6842 55.1211C17.2602 54.3141 17.2892 53.3911 17.6842 52.6391L21.5362 45.3791L21.8542 37.1041C21.8872 36.1371 22.4342 35.3071 23.2252 34.8701L30.0432 30.5991L34.4732 23.5661C34.9832 22.7591 35.8562 22.3161 36.7442 22.3221L44.8162 22.0331L52.1682 18.1561C52.9742 17.7311 53.8982 17.7631 54.6502 18.1551ZM59.9512 26.9991L53.4042 23.5261L46.7692 27.0241V27.0221C46.4252 27.2041 46.0352 27.3111 45.6232 27.3271L38.2282 27.5931L34.2302 33.9391L34.2262 33.9371C34.0212 34.2671 33.7362 34.5541 33.3842 34.7731L27.1142 38.7031L26.8332 46.0561C26.8412 46.4881 26.7412 46.9291 26.5262 47.3391L23.0532 53.8851L26.5512 60.5181L26.5502 60.5201C26.7322 60.8651 26.8392 61.2521 26.8532 61.6661L27.1192 69.0591L33.4672 73.0591L33.4652 73.0631C33.7932 73.2681 34.0822 73.5531 34.3012 73.9031L38.2292 80.1741L45.5842 80.4551C46.0162 80.4491 46.4572 80.5471 46.8652 80.7621L53.4142 84.2381L60.0472 80.7401L60.0492 80.7421C60.3912 80.5601 60.7812 80.4511 61.1952 80.4371L68.5882 80.1701L72.5862 73.8241L72.5902 73.8261C72.7972 73.4961 73.0802 73.2071 73.4322 72.9871L79.7032 69.0611L79.9832 61.7071C79.9752 61.2721 80.0762 60.8341 80.2912 60.4241L83.7652 53.8791L80.2672 47.2451L80.2692 47.2431C80.0862 46.8991 79.9802 46.5111 79.9652 46.0971L79.6982 38.7051L73.3502 34.7051L73.3542 34.7011C73.0242 34.4961 72.7352 34.2111 72.5162 33.8611L68.5902 27.5911L61.2332 27.3101C60.8012 27.3131 60.3592 27.2141 59.9512 26.9991ZM47.2322 66.9571C54.2522 67.0061 63.3302 67.1151 64.7722 67.3071C64.9102 67.3011 65.9852 67.2481 66.2912 65.5471C66.6082 63.7761 64.9422 63.1721 64.8772 63.1431C64.6492 63.0781 64.5212 62.8501 64.5472 62.6221C64.5862 62.3931 64.7782 62.2201 65.0172 62.2181C65.0882 62.2061 66.8322 62.1451 67.1272 60.5011C67.4202 58.8741 65.8302 58.1911 65.7542 58.1611C65.5392 58.0771 65.4182 57.8451 65.4632 57.6241C65.5152 57.3841 65.7152 57.2281 65.9422 57.2321C66.0242 57.2361 67.7522 57.2511 68.0572 55.5481C68.3642 53.8471 66.7332 53.2281 66.6622 53.2021C66.4472 53.1241 66.3142 52.8961 66.3512 52.6671C66.3882 52.4381 66.5782 52.2691 66.8162 52.2591C66.8942 52.2531 68.6192 52.1871 68.9182 50.5211C69.2342 48.7551 68.2092 48.3761 67.7542 48.2941C67.6562 48.2781 67.5722 48.2741 67.4862 48.2651L58.8142 48.0971C58.7852 48.0971 58.7612 48.0931 58.7342 48.0891C58.5492 48.0541 58.3962 47.9131 58.3532 47.7141C58.3012 47.4891 58.4182 47.2611 58.6252 47.1691C58.6462 47.1651 60.6762 46.1941 61.5152 41.5331C62.1762 37.8471 60.8042 35.9081 59.1542 35.6111C58.7972 35.5471 58.4412 35.5641 58.0912 35.6661C57.7122 35.7731 57.6412 36.1251 57.5052 37.1661C57.2252 39.3501 56.7512 43.0111 50.4222 47.4101C48.3342 48.8571 46.4592 49.6811 44.7522 50.1401C44.1012 54.7441 45.6132 60.5681 47.2322 66.9571ZM40.6662 46.4321C45.7542 46.2051 49.8772 44.2051 52.4942 39.4251C53.0632 38.3681 53.1682 37.5171 53.2952 36.6221C53.3912 35.9151 53.4772 35.2101 53.7722 34.4441C54.3482 33.0201 55.4652 32.0031 56.9182 31.5811C57.8732 31.3021 58.9142 31.2511 59.9062 31.4291C62.0392 31.8101 63.8592 33.2001 64.9122 35.2471C65.9082 37.1691 66.1822 39.6081 65.7012 42.2861C65.5962 42.8741 65.4652 43.4401 65.3302 43.9751L67.5682 44.0241C67.8812 44.0261 68.2012 44.0511 68.5062 44.1061C71.3382 44.6161 73.8222 47.2451 73.1002 51.2741C72.9402 52.1571 72.6332 52.9561 72.1662 53.6621C72.3772 54.5171 72.4022 55.4081 72.2422 56.3011C72.0802 57.2031 71.7582 58.0181 71.2632 58.7391C71.4472 59.5521 71.4572 60.3901 71.3042 61.2531C71.1522 62.1021 70.8492 62.8781 70.3922 63.5771C70.6132 64.4541 70.6462 65.3701 70.4782 66.3001C70.1172 68.3131 69.0662 69.8991 67.4982 70.7941C66.4822 71.3911 65.2582 71.6631 64.2152 71.5201C62.1022 71.3351 54.5882 71.1801 39.5062 71.1731C39.2702 71.1751 39.0552 71.1521 38.8362 71.1161L38.8382 71.1111C38.0672 70.9741 37.3772 70.6111 36.8242 70.0621C33.4692 66.6401 32.7202 54.6931 33.2242 50.0451C33.2362 49.0251 33.6632 48.0391 34.3922 47.3421C35.1282 46.6471 36.1302 46.2721 37.1522 46.3191L40.6662 46.4321Z" fill="white"/>
</g>
<defs>
<clipPath id="clip0_1_6522">
<rect width="106" height="106" fill="white"/>
</clipPath>
</defs>
</svg>
