<svg width="106" height="106" viewBox="0 0 106 106" fill="none" xmlns="http://www.w3.org/2000/svg">
<g clip-path="url(#clip0_1_6536)">
<path d="M53.168 0.0639648C82.441 0.0639648 106.168 23.793 106.168 53.064C106.168 82.335 82.441 106.064 53.168 106.064C23.898 106.064 0.167969 82.335 0.167969 53.064C0.167969 23.793 23.898 0.0639648 53.168 0.0639648Z" fill="#E5B615"/>
<path d="M84.6332 71.9448L52.1332 106.049C25.4402 105.538 3.58416 85.2958 0.535156 59.2998L22.3962 35.4408L35.3572 22.7398L45.2482 24.5798L57.3612 21.0918L74.1502 28.9668L82.2102 38.3088L85.7271 53.3338L84.6332 71.9448Z" fill="#CBA213"/>
<path d="M37.6279 50.5541C36.8489 56.0041 37.4089 61.4551 40.1649 66.9041L42.8639 66.9101C41.1689 60.7711 40.1509 55.4571 40.5049 50.6561C39.4869 50.6541 38.5339 50.5901 37.6259 50.5561L37.6279 50.5541ZM54.8159 18.1351L62.0759 21.9871L70.3509 22.3051C71.3199 22.3381 72.1479 22.8851 72.5839 23.6741L76.8549 30.4921L83.8879 34.9241C84.6949 35.4321 85.1359 36.3051 85.1319 37.1941L85.4209 45.2681L89.2959 52.6201C89.7219 53.4251 89.6909 54.3511 89.2959 55.1031L85.4439 62.3631L85.1259 70.6381C85.0929 71.6051 84.5459 72.4331 83.7569 72.8711L76.9389 77.1421L72.5089 84.1741C71.9989 84.9841 71.1259 85.4241 70.2379 85.4181L62.1649 85.7071L54.8139 89.5841C54.0069 90.0081 53.0839 89.9781 52.3319 89.5841L45.0709 85.7311L36.7979 85.4141C35.8309 85.3811 35.0009 84.8341 34.5639 84.0431L30.2929 77.2261L23.2599 72.7951C22.4509 72.2871 22.0099 71.4141 22.0159 70.5241L21.7269 62.4491L17.8499 55.1001C17.4259 54.2931 17.4569 53.3691 17.8499 52.6181L21.7019 45.3561L22.0199 37.0831C22.0529 36.1141 22.5999 35.2861 23.3909 34.8491L30.2089 30.5761L34.6389 23.5431C35.1489 22.7361 36.0219 22.2951 36.9099 22.3011L44.9839 22.0101L52.3329 18.1351C53.1399 17.7091 54.0639 17.7401 54.8159 18.1351ZM60.1169 26.9791L53.5719 23.5061L46.9349 27.0041V27.0001C46.5909 27.1821 46.2029 27.2911 45.7889 27.3051L38.3959 27.5711L34.3959 33.9191L34.3919 33.9151C34.1869 34.2451 33.9019 34.5341 33.5519 34.7531L27.2819 38.6811L26.9999 46.0331C27.0079 46.4671 26.9079 46.9061 26.6929 47.3161L23.2199 53.8631L26.7179 60.4981H26.7159C26.8979 60.8421 27.0049 61.2301 27.0209 61.6441L27.2869 69.0371L33.6329 73.0371L33.6309 73.0411C33.9609 73.2461 34.2479 73.5311 34.4669 73.8831L38.3969 80.1511L45.7509 80.4341C46.1829 80.4261 46.6239 80.5261 47.0339 80.7421L53.5809 84.2151L60.2139 80.7171L60.2159 80.7191C60.5589 80.5371 60.9479 80.4311 61.3619 80.4141L68.7559 80.1471L72.7559 73.8011L72.7599 73.8031C72.9649 73.4731 73.2479 73.1861 73.6009 72.9671L79.8709 69.0391L80.1519 61.6841C80.1459 61.2521 80.2439 60.8111 80.4589 60.4011L83.9319 53.8561L80.4319 47.2201L80.4359 47.2181C80.2539 46.8761 80.1449 46.4861 80.1309 46.0721L79.8649 38.6801L73.5169 34.6821L73.5209 34.6781C73.1909 34.4711 72.9019 34.1881 72.6829 33.8361L68.7559 27.5661L61.3999 27.2851C60.9669 27.2911 60.5269 27.1931 60.1169 26.9791ZM47.3999 66.9361C54.4179 66.9851 63.4959 67.0941 64.9379 67.2871C65.0759 67.2811 66.1509 67.2271 66.4569 65.5261C66.7759 63.7561 65.1079 63.1531 65.0429 63.1251C64.8149 63.0581 64.6869 62.8301 64.7149 62.6041C64.7539 62.3741 64.9459 62.2001 65.1849 62.2001C65.2559 62.1861 66.9979 62.1241 67.2929 60.4831C67.5859 58.8561 65.9959 58.1711 65.9199 58.1411C65.7049 58.0571 65.5839 57.8251 65.6289 57.6041C65.6829 57.3641 65.8809 57.2101 66.1099 57.2121C66.1899 57.2161 67.9199 57.2331 68.2229 55.5271C68.5299 53.8291 66.8989 53.2101 66.8279 53.1841C66.6129 53.1041 66.4799 52.8751 66.5169 52.6481C66.5539 52.4191 66.7459 52.2501 66.9819 52.2381C67.0599 52.2341 68.7849 52.1661 69.0839 50.5021C69.3999 48.7361 68.3749 48.3571 67.9199 48.2731C67.8239 48.2571 67.7379 48.2551 67.6519 48.2461L58.9799 48.0781C58.9509 48.0761 58.9259 48.0741 58.8999 48.0701C58.7149 48.0351 58.5619 47.8921 58.5189 47.6951C58.4669 47.4681 58.5839 47.2421 58.7909 47.1501C58.8119 47.1441 60.8419 46.1751 61.6809 41.5141C62.3419 37.8261 60.9699 35.8871 59.3219 35.5921C58.9629 35.5261 58.6069 35.5451 58.2589 35.6451C57.8779 35.7521 57.8089 36.1041 57.6729 37.1471C57.3909 39.3311 56.9169 42.9901 50.5889 47.3891C48.5009 48.8381 46.6279 49.6621 44.9209 50.1191C44.2669 54.7231 45.7789 60.5491 47.3999 66.9361ZM40.8319 46.4101C45.9199 46.1831 50.0429 44.1831 52.6619 39.4031C53.2289 38.3481 53.3369 37.4971 53.4619 36.6001C53.5609 35.8951 53.6449 35.1881 53.9409 34.4241C54.5169 32.9981 55.6309 31.9811 57.0859 31.5591C58.0409 31.2801 59.0839 31.2291 60.0739 31.4071C62.2069 31.7901 64.0289 33.1801 65.0819 35.2251C66.0759 37.1471 66.3519 39.5881 65.8689 42.2661C65.7639 42.8511 65.6329 43.4201 65.4979 43.9531L67.7379 44.0021C68.0509 44.0061 68.3689 44.0311 68.6739 44.0861C71.5059 44.5941 73.9899 47.2231 73.2679 51.2521C73.1099 52.1351 72.8009 52.9361 72.3339 53.6411C72.5449 54.4961 72.5699 55.3871 72.4099 56.2831C72.2479 57.1841 71.9259 58.0001 71.4309 58.7191C71.6149 59.5321 71.6269 60.3731 71.4719 61.2341C71.3219 62.0821 71.0169 62.8611 70.5619 63.5581C70.7809 64.4351 70.8139 65.3511 70.6459 66.2811C70.2849 68.2931 69.2339 69.8811 67.6659 70.7751C66.6499 71.3711 65.4259 71.6441 64.3829 71.5001C62.2699 71.3161 54.7579 71.1621 39.6739 71.1541C39.4399 71.1561 39.2229 71.1351 39.0039 71.0961L39.0059 71.0941C38.2349 70.9551 37.5449 70.5921 36.9919 70.0431C33.6369 66.6211 32.8879 54.6741 33.3919 50.0271C33.4039 49.0061 33.8309 48.0211 34.5599 47.3221C35.2979 46.6271 36.2979 46.2541 37.3199 46.2991L40.8319 46.4101Z" fill="white"/>
</g>
<defs>
<clipPath id="clip0_1_6536">
<rect width="106" height="106" fill="white"/>
</clipPath>
</defs>
</svg>
