<svg width="107" height="106" viewBox="0 0 107 106" fill="none" xmlns="http://www.w3.org/2000/svg">
<g clip-path="url(#clip0_1_6296)">
<path fill-rule="evenodd" clip-rule="evenodd" d="M53.4839 0.10791C82.7549 0.10791 106.484 23.8369 106.484 53.1069C106.484 82.3799 82.7549 106.109 53.4839 106.109C24.2129 106.109 0.483887 82.3799 0.483887 53.1069C0.483887 23.8369 24.2129 0.10791 53.4839 0.10791Z" fill="#B7AE52"/>
<path fill-rule="evenodd" clip-rule="evenodd" d="M57.695 40.657L32.244 65.98L38.291 66.298L47.59 57.028L48.561 57.27L64.817 40.8L76.397 41.456L76.926 81.836L52.666 106.096C27.963 105.725 7.357 88.451 1.9 65.324L1.896 65.306L42.535 24.666L57.695 40.657Z" fill="#A2983A"/>
<path fill-rule="evenodd" clip-rule="evenodd" d="M42.418 81.8241H30.375V65.1861H42.418V81.8241ZM57.717 21.5711L44.26 23.9351C41.873 24.3471 41.33 26.1071 43.049 27.8201L45.322 30.1051L32.475 42.9611C31.129 44.2951 31.129 46.5021 32.475 47.8361L35.043 50.3991C36.383 51.7331 38.57 51.7351 39.912 50.3991L52.76 37.5461L55.061 39.8311C56.77 41.5561 58.528 40.9971 58.946 38.6021L61.309 25.1611C61.738 22.7391 60.119 21.1421 57.717 21.5711ZM76.83 81.8241H64.787V40.7351H76.83V81.8241ZM59.621 81.8241H47.584V57.0331H59.621V81.8241Z" fill="white"/>
</g>
<defs>
<clipPath id="clip0_1_6296">
<rect width="106" height="106" fill="white" transform="translate(0.5)"/>
</clipPath>
</defs>
</svg>
