<svg width="106" height="106" viewBox="0 0 106 106" fill="none" xmlns="http://www.w3.org/2000/svg">
<g clip-path="url(#clip0_1_6282)">
<path d="M53.2539 0.181152C82.5249 0.181152 106.254 23.9102 106.254 53.1822C106.254 82.4532 82.5249 106.182 53.2539 106.182C23.9819 106.182 0.253906 82.4532 0.253906 53.1822C0.252906 23.9102 23.9819 0.181152 53.2539 0.181152Z" fill="#BFB558"/>
<path d="M29.701 29.0054L76.756 30.7304L78.783 58.9114L73.838 63.4324L86.824 70.0184L83.236 73.6354L84.515 75.6124L53.951 106.175C53.719 106.177 53.486 106.184 53.254 106.184C25.802 106.184 3.22603 85.3154 0.525027 58.5754L0.478027 58.0484L29.701 29.0054Z" fill="#AEA654"/>
<path d="M59.7289 47.091H54.6659V45.216H59.2349V43.277H54.6659V41.775H59.5859V39.74H51.7199V49.238H59.7279L59.7289 47.091ZM64.2749 47.198V45.274H65.7629C66.2729 45.274 66.6399 45.354 66.8419 45.522C67.0509 45.7 67.1459 45.918 67.1459 46.202C67.1459 46.515 67.0509 46.747 66.8419 46.931C66.6359 47.105 66.2729 47.199 65.7729 47.199L64.2749 47.198ZM64.2749 41.665H65.5739C66.0149 41.665 66.3239 41.745 66.5059 41.897C66.6819 42.049 66.7789 42.274 66.7789 42.542C66.7789 42.845 66.6809 43.067 66.5059 43.231C66.3239 43.389 66.0059 43.465 65.5489 43.465H64.2759L64.2749 41.665ZM67.6969 49.112C68.1929 49.042 68.5599 48.944 68.8119 48.801C69.2049 48.567 69.5209 48.258 69.7499 47.867C69.9789 47.471 70.0919 47.025 70.0919 46.533C70.0919 45.933 69.9379 45.428 69.6059 45.035C69.2909 44.629 68.7849 44.346 68.1099 44.187C68.5569 44.033 68.8929 43.814 69.1309 43.548C69.4799 43.146 69.6519 42.665 69.6519 42.105C69.6519 41.435 69.4039 40.875 68.9209 40.42C68.4289 39.967 67.7199 39.738 66.8129 39.738H61.3189V49.236H66.3889C66.5979 49.237 67.0329 49.192 67.6969 49.112ZM42.4699 49.237L44.1259 43.251L45.7919 49.237H48.6749L50.7569 39.739H47.9949L46.9869 45.051L45.5139 39.739H42.7309L41.2639 45.055L40.2579 39.739H37.4809L39.5919 49.237H42.4699ZM33.8959 35.486C33.8959 33.968 35.1249 32.734 36.6479 32.734H70.9259C72.4489 32.734 73.6779 33.968 73.6779 35.486V53.136C73.6779 54.651 72.4479 55.884 70.9259 55.884H36.6479C35.1269 55.884 33.8939 54.651 33.8939 53.136L33.8959 35.486ZM31.8019 60.354H75.7599C77.7949 60.354 79.4399 58.71 79.4399 56.68L79.4419 31.939C79.4419 29.918 77.7949 28.271 75.7599 28.271H31.8019C29.7809 28.271 28.1279 29.917 28.1279 31.939V56.68C28.1279 58.71 29.7789 60.354 31.8019 60.354ZM81.9549 65.229C80.5019 63.493 79.7259 62.733 78.3049 62.733H29.2589C27.8409 62.733 27.3199 63.805 25.4799 65.497L20.7979 70.024H86.7659L81.9549 65.229ZM20.4019 71.938C20.4309 72.255 21.5759 73.391 22.9899 75.552H84.5729C85.9799 73.391 87.1279 72.255 87.1609 71.938H20.4019Z" fill="white"/>
</g>
<defs>
<clipPath id="clip0_1_6282">
<rect width="106" height="106" fill="white"/>
</clipPath>
</defs>
</svg>
