<svg width="34" height="34" fill="none" xmlns="http://www.w3.org/2000/svg"><g clip-path="url(#clip0_169_6916)" fill-rule="evenodd" clip-rule="evenodd"><path d="M16.7.96c8.837 0 16 7.164 16 16 0 8.838-7.163 16-16 16s-16-7.162-16-16c0-8.836 7.163-16 16-16z" fill="#FD4D3E"/><path d="M18.749 15.783h-5.212v2.261h2.89c-.407 1.244-1.509 2.136-2.906 2.136a3.22 3.22 0 112.08-5.675l1.746-1.725a5.668 5.668 0 10-3.827 9.85c3.131 0 5.526-2.539 5.526-5.669 0-.398-.041-.787-.12-1.162l-.177.002v-.018zm3.392-1.79h1.444v1.963h1.962v1.445h-1.963v1.962H22.14v-1.962h-1.963v-1.445h1.963v-1.963z" fill="#FEFEFE"/></g><defs><clipPath id="clip0_169_6916"><path fill="#fff" transform="translate(.2 .46)" d="M0 0h33v33H0z"/></clipPath></defs></svg>