<svg width="263" height="64" fill="none" xmlns="http://www.w3.org/2000/svg"><g clip-path="url(#clip0_169_6820)" fill="#C7C7C7"><path fill-rule="evenodd" clip-rule="evenodd" d="M.097 11.27c0 2.738.966 3.945 3.14 5.877 7.647 6.923 27.69 7.165 37.995 3.06C58.7 13.201 47.592 0 24.89 0 18.048 0 .097 2.737.097 11.27zM24.89 2.415l5.072 4.991L40.91 8.533l-7.81 3.704 1.69 5.393-9.9-2.495-9.821 2.495 1.69-5.393-7.808-3.704 10.867-1.207 5.071-4.91z"/><path fill-rule="evenodd" clip-rule="evenodd" d="M23.36 42.908c7.729 0 15.779-.885 21.494-4.588 4.186-2.737 4.83-4.992 4.91-8.856 0-2.334-.08-5.232-.08-9.177-.644 2.254-2.576 5.796-9.499 8.13-11.19 3.704-27.289 3.623-36.063-2.736-1.69-1.208-3.703-3.06-3.703-5.394H.097v11.35c.483 2.818 1.69 4.911 4.91 6.683 4.589 2.656 11.109 4.588 18.354 4.588z"/><path fill-rule="evenodd" clip-rule="evenodd" d="M.097 52.649v-11.35h.322c0 7.808 17.468 10.626 24.874 10.626 8.372 0 22.137-2.496 24.472-10.627 0 4.025 0 7.165-.08 9.5-.081 3.622-.725 5.796-4.59 8.291-6.359 4.267-14.49 4.911-22.137 4.83-6.681 0-13.926-2.173-18.192-4.75-3.06-1.85-4.267-3.863-4.67-6.52zm24.793 2.174c1.771 0 3.22 1.449 3.22 3.14a3.23 3.23 0 01-3.22 3.22c-1.69 0-3.14-1.45-3.14-3.22 0-1.691 1.45-3.14 3.14-3.14zm229.182-33.047h-1.932v-7.728c2.978 0 3.783.322 4.105 1.932.081.724.081 1.932.081 3.22 0 1.53-.644 2.576-2.254 2.576zm-80.499-4.589l3.864-.563s.08-3.462-1.61-5.152c-1.771-1.772-5.555-2.899-8.694-.403-3.14 2.496-2.335 8.372-.081 10.868 2.174 2.334 6.44 5.877 6.44 9.016 0 3.623-4.588 3.704-4.508-.08.081-1.61.081-1.69.081-1.69l-4.106.402c-.402 4.427 1.208 8.211 6.36 8.211 1.851 0 6.44-.241 6.359-6.923-.08-9.017-8.211-9.339-8.452-14.732-.081-3.3 3.461-3.14 4.025-1.288.402 1.368.322 2.334.322 2.334zm7.969 20.126h11.672v-3.945h-7.405V25.64h6.037v-4.186h-6.037v-7.406h7.405v-3.864h-11.672v27.13zm50.312 0h11.914v-3.945h-7.406V25.64h5.796v-4.186h-5.796v-7.406h7.406v-3.864h-11.914v27.13zm-13.846 0h5.474l4.508-27.13h-4.186l-2.898 19.643-3.059-19.643H213.5l4.508 27.13zm-14.087-15.457l-2.335-.08v-7.728c2.576 0 3.381.08 3.864 1.207.886 1.69.644 6.601-1.529 6.601zM197.4 37.314h4.186v-11.35h1.932l2.898 11.35h4.508l-3.542-12.558c.805-.322 1.691-1.127 2.174-2.335 1.368-3.22 1.529-12.237-5.394-12.237H197.4v27.13zm50.232 0h4.508v-11.27h1.61l3.3 11.27h4.508l-3.783-12.317c.483-.322.885-.402 1.851-1.851.322-.403.725-1.691.966-3.22.564-3.945-.161-9.742-6.52-9.742h-6.44v27.13zM89.048 21.776h-1.932v-7.728h1.369c1.851.08 2.093.16 2.576 1.368.644 1.691.483 3.301.16 4.428-.24 1.288-.643 1.932-2.173 1.932zm44.194 15.537h4.186v-27.13h-4.186v27.13zm8.05-23.265h4.508v23.265h4.186V14.048h4.508v-3.864h-13.202v3.864zm-23.586 23.185l4.588.08V25.318h5.796v-3.864h-5.796v-7.406h7.084v-3.864h-11.592l-.08 27.049zM71.982 22.098h-1.61v-8.05h1.53c1.449.08 2.254.563 2.656 1.69.564 1.61.403 4.026-.241 5.233-.322.725-1.369 1.127-2.334 1.127zm-5.796 15.215h4.186v-11.35c4.991 0 7.487-.484 8.372-4.348.242-1.207.322-2.737.322-4.669 0-8.13-7.325-6.762-12.88-6.762v27.13zm37.996-6.843V16.303c0-1.61.886-2.576 2.496-2.576 1.529 0 2.334 1.046 2.334 2.576v14.169c0 4.427-4.83 4.427-4.83 0zm-4.186-14.812c0 3.14-.322 15.779.403 18.033 2.012 6.118 12.879 4.99 12.879-1.932V15.658c0-7.89-13.282-7.89-13.282 0zM82.93 37.313h4.186v-11.35h1.932l2.898 11.35h4.508l-3.542-12.639c1.288-.322 1.69-1.127 2.174-2.334 1.53-3.3 1.288-12.156-5.072-12.156H82.93v27.13z"/><path d="M69.407 53.575c-1.369 0-2.496-.403-3.462-1.288l1.047-1.288c.805.644 1.61 1.046 2.415 1.046.402 0 .644-.08.885-.241.161-.161.322-.322.322-.564 0-.241-.16-.483-.322-.563-.241-.161-.724-.322-1.368-.483a13.44 13.44 0 00-1.127-.322c-.242-.161-.564-.322-.805-.483-.242-.162-.483-.403-.564-.725-.16-.242-.16-.564-.16-.966 0-.805.24-1.369.804-1.771.483-.483 1.208-.725 2.013-.725 1.127 0 2.173.322 3.059 1.047l-.966 1.368c-.725-.563-1.45-.804-2.093-.804-.322 0-.564.08-.805.16a.73.73 0 00-.242.564c0 .242.08.483.322.563.242.161.725.322 1.45.483.885.242 1.529.564 1.931.886.403.403.644.886.644 1.61 0 .805-.322 1.369-.805 1.852-.563.402-1.288.644-2.173.644zm12.477-.08v-8.132h6.198v1.53h-4.427v1.69h3.864v1.61h-3.864v1.691h4.427v1.61h-6.198zm15.778 0v-8.132h3.783c.966 0 1.771.242 2.335.805.483.483.724 1.047.724 1.852 0 1.288-.563 2.093-1.771 2.576l2.013 2.898h-2.093l-1.771-2.656h-1.369v2.656h-1.851zm1.851-4.187h1.771c.483 0 .805-.161 1.047-.322.241-.241.322-.483.322-.886 0-.402-.081-.644-.322-.885-.242-.161-.644-.242-1.047-.242h-1.77v2.335zm16.905 4.186l-3.22-8.13h1.932l2.174 5.715 2.093-5.716h1.932l-3.301 8.131h-1.61zm14.168 0v-8.13h6.118v1.529h-4.347v1.69h3.864v1.61h-3.864v1.691h4.427v1.61h-6.198zm15.778 0v-8.13h3.703c1.046 0 1.851.24 2.415.804.402.483.644 1.047.644 1.852 0 1.288-.564 2.093-1.691 2.576l1.932 2.898h-2.093l-1.771-2.656h-1.368v2.656h-1.771zm1.771-4.186h1.851c.403 0 .725-.161.966-.322.242-.241.403-.483.403-.886 0-.402-.161-.644-.403-.885-.241-.161-.563-.242-1.046-.242h-1.771v2.335zm27.531 4.186v-8.13h3.783c.966 0 1.771.24 2.334.804.483.483.725 1.047.725 1.852 0 1.288-.564 2.093-1.771 2.576l2.012 2.898h-2.093l-1.771-2.656h-1.368v2.656h-1.851zm1.851-4.186h1.771a1.79 1.79 0 001.046-.322c.242-.241.322-.483.322-.886 0-.402-.08-.644-.322-.885a2.228 2.228 0 00-1.046-.242h-1.771v2.335zm14.57 4.186v-8.13h6.118v1.529h-4.347v1.69h3.864v1.61h-3.864v1.691h4.428v1.61h-6.199zm15.778 0v-8.13h1.691l3.783 4.99v-4.99h1.771v8.13h-1.529l-3.945-5.233v5.233h-1.771zm19.078 0v-6.52h-2.495v-1.61h6.762v1.61h-2.496v6.52h-1.771zm11.914 0l3.462-8.211h1.69l3.462 8.211h-1.852l-.805-1.851h-3.381l-.805 1.851h-1.771zm3.22-3.461h2.093l-1.046-2.577-1.047 2.577zm14.651 3.461v-8.13h1.771v6.44h4.025v1.69h-5.796z"/></g><defs><clipPath id="clip0_169_6820"><path fill="#fff" d="M0 0h262.621v64H0z"/></clipPath></defs></svg>