<svg width="34" height="34" fill="none" xmlns="http://www.w3.org/2000/svg"><g clip-path="url(#clip0_169_6962)" fill-rule="evenodd" clip-rule="evenodd"><path d="M16.7.945c8.837 0 16 7.163 16 16 0 8.836-7.163 16-16 16s-16-7.164-16-16c0-8.837 7.164-16 16-16z" fill="#00AEF1"/><path d="M11.582 17.964l-3.27-1.013s-.897-.781.29-1.186c1.186-.405 12.964-4.89 12.964-4.89s1.33-.464 1.07.954-2.14 10.331-2.14 10.331-.29 1.62-1.679.58c-1.389-1.042-3.038-2.23-3.038-2.23l-1.68 1.534s-.954.636-1.243-.29c-.29-.926-1.274-3.79-1.274-3.79zm1.824 3.241l-1.187-3.588 7.842-4.775-6.28 5.874-.375 2.49z" fill="#FEFEFE"/></g><defs><clipPath id="clip0_169_6962"><path fill="#fff" transform="translate(.2 .46)" d="M0 0h33v33H0z"/></clipPath></defs></svg>