<svg width="34" height="34" fill="none" xmlns="http://www.w3.org/2000/svg"><g clip-path="url(#clip0_169_6893)" fill-rule="evenodd" clip-rule="evenodd"><path d="M16.7.96c8.837 0 16 7.163 16 16s-7.163 16-16 16-16-7.163-16-16 7.163-16 16-16z" fill="#00AEF1"/><path d="M17.172 15.034s-1.88 0-3.419-.912c-1.539-.912-2.764-2.28-2.764-2.28s-.484.627-.512 1.625c-.028.997 1.254 2.479 1.254 2.479s-.4.028-.798-.114c-.4-.143-.4-.314-.4-.314s-.227.97.542 1.967c.77.997 1.767 1.14 1.767 1.14s-.399.056-.656.085c-.257.028-.598-.085-.598-.085s-.057.598.74 1.368c.798.768 1.852.883 1.852.883s-.399.57-1.652.94c-1.254.37-2.593.256-2.593.256s1.681 1.624 4.815 1.481c3.135-.141 5.043-1.453 6.582-3.077 1.539-1.624 1.767-3.39 1.881-4.131.114-.741.085-1.995.085-1.995s.513-.342.94-.77c.428-.426.6-.769.6-.769l-.855.229c-.428.114-.657.114-.657.114s.427-.343.713-.713c.285-.37.37-.883.37-.883s-.398.256-.883.456c-.484.2-.941.228-.941.228s-.94-.998-2.307-.97c-1.368.03-2.166.799-2.593 1.312-.427.512-.514 1.14-.542 1.51-.027.37.087.94.03.94z" fill="#FEFEFE"/></g><defs><clipPath id="clip0_169_6893"><path fill="#fff" transform="translate(.2 .46)" d="M0 0h33v33H0z"/></clipPath></defs></svg>