<svg width="34" height="34" fill="none" xmlns="http://www.w3.org/2000/svg"><g clip-path="url(#clip0_169_6939)" fill-rule="evenodd" clip-rule="evenodd"><path d="M16.7.96c8.837 0 16 7.163 16 16s-7.163 16-16 16-16-7.163-16-16 7.163-16 16-16z" fill="#366C94"/><path d="M10.108 13.391l-2.022.027s-.956-.109-.518.765c.436.874 1.638 3.495 3.332 5.654 1.693 2.157 3.304 2.349 4.15 2.485.847.137 2.022.137 2.076-.191.055-.329.11-.765.11-1.284s.492-1.038.9-.628c.41.41 1.285 1.53 1.75 1.885.463.355 1.282.3 1.938.3.656 0 1.994.082 2.213-.41.219-.49 0-.764-.574-1.364-.573-.602-1.775-1.721-1.775-1.721s-.71-.437.054-1.365c.765-.929 1.666-2.295 1.994-2.814.328-.519.52-1.338-.082-1.338-.6 0-2.622-.027-2.622-.027s-.792-.11-1.037.518c-.246.629-.71 1.694-1.339 2.623-.629.928-1.448 1.283-1.42.518.027-.764.027-2.895.027-3.031 0-.136.082-.82-.82-.984-.9-.164-2.375-.19-2.977.055-.6.245-.49.519.082.71.574.191.438 1.256.438 1.666 0 .41.136 1.748-.246 2.021-.382.273-.901-.491-1.175-.846-.273-.355-.82-1.284-1.12-1.94-.3-.655-.518-1.092-.71-1.202-.19-.11-.273-.055-.627-.082z" fill="#FEFEFE"/></g><defs><clipPath id="clip0_169_6939"><path fill="#fff" transform="translate(.2 .46)" d="M0 0h33v33H0z"/></clipPath></defs></svg>