<svg width="107" height="106" viewBox="0 0 107 106" fill="none" xmlns="http://www.w3.org/2000/svg">
<path d="M106.031 52.991C106.031 82.264 82.2972 106.003 53.0252 106.003C23.7502 106.003 0.03125 82.265 0.03125 52.991C0.03125 23.721 23.7502 0 53.0252 0C82.2972 0 106.031 23.721 106.031 52.991Z" fill="#FDAC6B"/>
<path d="M31.0493 40.3201C29.6413 40.3201 28.3933 40.6251 27.2723 41.2281C26.6723 41.5501 26.1333 41.9411 25.6723 42.4041L1.75635 66.3211C6.29335 83.7081 19.3193 97.6201 36.3653 103.264L76.9043 62.7251L82.3283 45.4271C82.4203 45.0541 82.4763 44.6441 82.4763 44.1831C82.4763 41.8701 80.9613 40.7121 77.9513 40.7121H67.8653L67.1873 41.3901L67.5233 40.3591H64.7133L54.5553 50.5021V49.1881H49.8703L45.9583 53.1011L53.0243 40.7131H47.8284L30.9223 57.6201H30.7053L35.0003 53.3491C35.6043 52.7451 36.0823 52.2441 36.4203 51.8511C36.9343 51.2831 37.3443 50.6071 37.6883 49.8221C38.0223 49.0411 38.2003 48.1341 38.2003 47.1051C38.2003 45.8201 37.8953 44.6641 37.2783 43.6321C36.6713 42.5971 35.8134 41.7841 34.7313 41.1941C33.6444 40.6091 32.4143 40.3201 31.0493 40.3201Z" fill="#E3924F"/>
<path d="M31.0493 40.3201C29.6413 40.3201 28.3933 40.6251 27.2723 41.2281C26.1513 41.8331 25.2823 42.6711 24.6413 43.7201C24.0203 44.7881 23.7153 45.9801 23.7153 47.2961C23.7153 48.4351 23.9453 49.4681 24.4263 50.3741C24.9063 51.2821 25.6553 52.1191 26.6723 52.8871L30.0683 49.2901C29.2503 48.6491 28.8393 47.9381 28.8393 47.1731C28.8393 46.6051 29.0363 46.1441 29.4273 45.7711C29.8183 45.3761 30.2823 45.1811 30.8333 45.1811C31.4523 45.1811 31.9523 45.3761 32.3473 45.7491C32.7403 46.1241 32.9353 46.5831 32.9353 47.1361C32.9353 47.7791 32.6303 48.4191 32.0233 49.0581L25.3843 56.1251C24.1793 57.4251 23.5713 58.6521 23.5713 59.8241C23.5713 61.7621 24.6573 62.7231 26.8293 62.7231H38.5563V57.6191H30.5833L34.0733 54.2561C35.1203 53.2231 35.9033 52.4221 36.4193 51.8501C36.9213 51.2821 37.3433 50.6061 37.6873 49.8211C38.0213 49.0401 38.1993 48.1331 38.1993 47.1041C38.1993 45.8191 37.8943 44.6631 37.2773 43.6311C36.6703 42.5961 35.8123 41.7831 34.7303 41.1931C33.6443 40.6251 32.4143 40.3201 31.0493 40.3201ZM64.7153 40.3591L56.7033 65.6651H59.5023L67.5233 40.3591H64.7153ZM47.8283 40.7131L41.5253 52.0641C41.0113 52.9581 40.7593 53.8491 40.7593 54.7531C40.7593 55.8391 41.1343 56.6941 41.8803 57.3351C42.6143 57.9761 43.6263 58.3001 44.9233 58.3001H49.8703V62.7261H54.5553V58.3001H57.0613V53.3161H54.5553V49.1881H49.8703V53.4761H45.7433L53.0243 40.7131H47.8283ZM67.8653 40.7131V45.7331H76.8513L71.0483 62.7251H76.9023L82.3273 45.4281C82.4193 45.0551 82.4743 44.6451 82.4743 44.1841C82.4743 41.8711 80.9603 40.7131 77.9503 40.7131H67.8653Z" fill="white"/>
</svg>
