<svg width="107" height="106" viewBox="0 0 107 106" fill="none" xmlns="http://www.w3.org/2000/svg">
<path d="M53.1055 0C82.3765 0 106.105 23.729 106.105 53C106.105 82.271 82.3765 106 53.1055 106C23.8345 106 0.105469 82.271 0.105469 53C0.105469 23.729 23.8345 0 53.1055 0Z" fill="#65AAA8"/>
<path d="M63.485 28.5879L85.733 33.8669L79.17 58.7959L35.102 102.864C28.399 100.442 22.325 96.7099 17.188 91.9709L14.133 88.9149C8.278 82.5649 3.953 74.7809 1.75 66.1489L17.637 50.2599L63.485 28.5879Z" fill="#4B9290"/>
<path d="M74.9143 49.6169C71.1883 51.5439 66.6013 50.0839 64.6743 46.3589C62.7463 42.6189 64.2053 38.0349 67.9393 36.1109C71.6643 34.1849 76.2523 35.6459 78.1793 39.3709C80.1043 43.0959 78.6453 47.6819 74.9143 49.6169ZM38.8813 45.7769L32.0683 49.3809L37.9273 60.4599L35.6093 61.6839L37.4293 65.1219L39.7453 63.8929L40.7903 65.867L38.4723 67.0949L40.2903 70.533L42.6063 69.3059L43.7193 71.41L48.4013 68.935L47.2883 66.8309L53.4853 63.555L51.6673 60.1139L45.4703 63.3929L44.4273 61.423L45.9273 60.6259L46.9413 60.091C51.9703 57.4319 54.3713 53.1889 51.6753 48.0939C49.1333 43.2869 44.4823 42.8119 38.8813 45.7769ZM44.7403 56.8539L44.1093 57.1879L42.6073 57.9829L38.5313 50.2789L40.6013 49.1849C43.3393 47.7379 45.4743 48.0739 46.8373 50.6509C48.4203 53.6469 47.3203 55.4909 44.7403 56.8539ZM60.6563 28.0339L18.5213 49.8139C17.2283 50.5339 16.4413 51.7469 17.1563 53.4419L31.2153 80.6199C32.1543 82.1019 33.4363 82.507 34.9713 82.118L77.6963 60.0219C79.0163 59.3069 80.1413 58.0439 81.0013 56.0009L87.9253 38.2049C89.0854 34.6389 87.3683 32.4239 83.6793 31.1409L65.9253 27.2859C63.8153 26.8499 62.0313 27.0509 60.6563 28.0339Z" fill="white"/>
</svg>
