<svg width="106" height="106" viewBox="0 0 106 106" fill="none" xmlns="http://www.w3.org/2000/svg">
<g clip-path="url(#clip0_227_30586)">
<path d="M106.039 53.0569C106.039 82.3279 82.301 106.066 53.033 106.066C23.762 106.066 0.0410156 82.3289 0.0410156 53.0569C0.0410156 23.7809 23.762 0.0649414 53.033 0.0649414C82.301 0.0639414 106.039 23.7799 106.039 53.0569Z" fill="#E64475"/>
<path d="M53.0532 25.1719C49.5282 25.1719 46.0202 25.2429 45.4152 25.4029C44.1852 25.7239 43.1042 26.3469 42.1242 27.3249C42.0872 27.3429 42.0562 27.3749 42.0202 27.4149L2.03418 67.4119C7.81918 87.9509 25.3622 103.006 46.5382 105.621L72.3942 79.7619C72.7302 79.4279 73.0132 79.0739 73.2082 78.6819L73.5672 78.0039L73.6002 73.7499L73.6552 69.4979L71.8602 71.2949L71.4692 71.4919H68.9592L72.4302 68.0209C72.7852 67.6659 73.0862 67.2749 73.2462 66.8809C73.5682 66.2049 73.5682 66.0799 73.6002 61.9879C73.6212 58.8009 73.6212 58.0179 73.4962 58.1209L72.1952 59.4239C72.0682 59.4959 71.9292 59.5699 71.8042 59.6049C71.6952 59.6229 70.5922 59.6539 69.0802 59.6739L72.3932 56.3629C72.7662 55.9899 73.0672 55.5609 73.2802 55.0939C73.5502 54.5079 73.5672 54.2619 73.5982 50.2949L73.6372 46.1139L71.9282 47.8209C71.8582 47.8569 71.7842 47.8719 71.7142 47.8929C71.5892 47.9279 70.3412 47.9459 68.6902 47.9819L71.6632 45.0089C71.9992 44.6709 72.1062 44.2579 72.1062 43.5499L72.0852 42.6599L68.4542 35.4179C64.8592 28.2459 64.8082 28.1569 63.9352 27.3029C62.9562 26.3589 61.8532 25.7019 60.6592 25.3819C60.0802 25.2439 56.5552 25.1719 53.0532 25.1719Z" fill="#BF456A"/>
<path d="M35.5057 80.8688C34.3847 80.5268 33.3887 79.6758 32.8197 78.6088C32.5147 78.0208 32.5147 77.9328 32.4627 73.7498L32.4277 69.4978L32.7497 70.1028C32.9957 70.5658 33.2287 70.7788 33.8337 71.0988L34.6147 71.4918H71.4677L72.2347 71.0988C72.8557 70.7788 73.0867 70.5658 73.3387 70.1028L73.6547 69.4978L73.5997 73.7498L73.5687 78.0038L73.2107 78.6818C72.7867 79.4628 72.0557 80.1938 71.2347 80.6208L70.6487 80.9408L53.2297 80.9588C43.6527 80.9768 35.6837 80.9408 35.5057 80.8688ZM70.5077 77.5228C71.0037 77.1308 71.1467 76.6868 70.9687 76.1348C70.7227 75.3688 70.4707 75.2808 68.4457 75.2808H66.6097L66.2717 75.6878C65.7027 76.3648 65.8967 77.3788 66.6447 77.6758C66.8047 77.7328 67.6427 77.7868 68.5327 77.8048C69.9877 77.8088 70.1837 77.7908 70.5077 77.5228ZM35.4887 69.1208C34.3107 68.8048 33.3347 67.9688 32.8207 66.8418C32.5157 66.2068 32.5007 66.0468 32.4807 61.9898C32.4457 58.3938 32.4807 57.8608 32.6237 58.2168C32.8737 58.7698 33.6547 59.4258 34.2647 59.6058C34.9737 59.8008 71.1067 59.8008 71.8067 59.6058C72.4127 59.4258 73.2097 58.7698 73.4597 58.2168C73.6017 57.8618 73.6197 58.3948 73.6017 61.9898C73.5707 66.0818 73.5707 66.2068 73.2477 66.8828C72.8937 67.6838 72.0197 68.5508 71.1287 68.9438L70.5097 69.2328L53.2987 69.2678C39.9867 69.2848 35.9707 69.2498 35.4887 69.1208ZM70.3127 65.9388C70.4887 65.8488 70.7537 65.5658 70.8807 65.2808C71.1267 64.8008 71.1267 64.7598 70.8807 64.2848C70.7537 64.0138 70.4877 63.7148 70.3127 63.6208C69.9007 63.4258 67.3187 63.3938 66.7497 63.6088C66.2557 63.7688 65.9367 64.2498 65.9367 64.7988C65.9367 65.3278 66.1127 65.6698 66.5537 65.8998C67.0357 66.1708 69.8307 66.1888 70.3137 65.9568L70.3127 65.9388ZM35.1677 57.3258C34.5077 57.0778 33.7417 56.5078 33.2807 55.9038C32.5147 54.8828 32.4447 54.4248 32.4447 50.0488V46.1168L32.7127 46.6138C33.0327 47.2188 33.6537 47.6968 34.3667 47.8958C35.1147 48.1088 70.9487 48.1088 71.6947 47.8958C72.4117 47.6958 73.0287 47.2198 73.3727 46.6138L73.6187 46.1168L73.5987 50.2978C73.5677 54.2658 73.5487 54.5108 73.2807 55.0978C72.8897 55.9398 72.1787 56.6858 71.4137 57.0768L70.7727 57.4148L53.1717 57.4338C40.9827 57.4518 35.4317 57.4148 35.1667 57.3108L35.1677 57.3258ZM70.0797 54.2848C70.6847 54.1248 71.0207 53.6438 71.0207 52.9868C71.0207 52.6258 70.9287 52.4298 70.5917 52.1328L70.1517 51.7398L68.3527 51.7928C66.5897 51.8278 66.5697 51.8278 66.2517 52.2028C65.8187 52.7008 65.8187 53.3588 66.2707 53.8738C66.4487 54.0868 66.7357 54.3018 66.8957 54.3328C67.4957 54.4448 69.5957 54.4098 70.0797 54.2848ZM35.5057 45.6368C34.8147 45.4408 34.2067 44.9238 34.0287 44.3718C33.6927 43.3368 33.8337 43.0018 37.6227 35.4038C41.1967 28.2858 41.2517 28.1788 42.1227 27.3068C43.1027 26.3458 44.1837 25.7228 45.4137 25.4018C46.6087 25.0818 59.4937 25.0818 60.6617 25.3848C61.8567 25.7048 62.9757 26.3448 63.9567 27.3058C64.8317 28.1598 64.8627 28.2488 68.4567 35.4208L72.0877 42.6628L72.1077 43.5528C72.1267 44.5858 71.8767 44.9938 71.0427 45.4398C70.5257 45.7248 70.4367 45.7248 53.2497 45.7418C42.0377 45.7608 35.8067 45.7078 35.5057 45.6368Z" fill="white"/>
</g>
<defs>
<clipPath id="clip0_227_30586">
<rect width="106" height="106" fill="white"/>
</clipPath>
</defs>
</svg>
