<svg width="106" height="106" viewBox="0 0 106 106" fill="none" xmlns="http://www.w3.org/2000/svg">
<g clip-path="url(#clip0_227_30568)">
<path d="M53.0142 0C82.2852 0 106.014 23.729 106.014 52.999C106.014 82.27 82.2852 105.999 53.0142 105.999C23.7432 105.999 0.0141602 82.27 0.0141602 52.999C0.0141602 23.729 23.7422 0 53.0142 0Z" fill="#B3ACD3"/>
<path d="M63.082 29.5269L81.031 47.5959L78.99 57.5059L79.58 62.0669L73.639 68.7929L39.416 104.235C21.471 99.4849 7.25798 85.5629 2.10498 67.7849L40.068 28.5979L52.466 31.1619L63.082 29.5269Z" fill="#9991C2"/>
<path d="M79.5781 52.0889L79.3201 52.8729C79.0841 53.6259 78.6741 54.4989 78.2091 55.3659L77.1091 53.5419C76.1131 51.8749 73.9351 51.3309 72.2731 52.3479L71.7671 52.6339C70.1071 53.6359 69.5561 55.8189 70.5621 57.4889L73.0901 61.6809L72.9821 61.8019L70.6971 58.0269C69.7051 56.3569 67.5271 55.8159 65.8551 56.8179L65.3671 57.1049C63.6991 58.1069 63.1581 60.2979 64.1601 61.9579L67.4001 67.3659L67.2951 67.4739L66.0611 65.4169C65.0531 63.7609 62.8811 63.2099 61.2071 64.2119L60.7171 64.5249C59.0511 65.5049 58.5001 67.6889 59.4961 69.3509L61.7151 73.0439L61.6501 73.1119L61.2461 72.4239C60.2481 70.7559 58.0701 70.2279 56.3891 71.2239L55.9001 71.5229C54.2411 72.5189 53.6891 74.7009 54.6911 76.3629L55.8861 78.3689C55.9601 78.4839 56.0441 78.5639 56.1091 78.6579L55.7431 79.0249C54.8161 79.9509 53.6501 80.4589 52.6041 80.4589C51.9091 80.4589 51.2841 80.2459 50.8331 79.7729C50.2291 79.1929 50.0541 78.3299 50.2041 77.4259C50.2781 76.9859 50.4311 76.5389 50.6651 76.1029C50.6811 76.0639 50.7261 76.0039 50.7651 75.9449C50.8491 75.7969 50.9471 75.6229 51.0621 75.4739C51.2161 75.2479 51.3981 75.0539 51.5871 74.8629L58.9861 67.4649L57.5071 65.9769L47.2671 76.2129C46.3351 77.1559 45.1631 77.6579 44.1221 77.6579C43.4361 77.6559 42.7941 77.4369 42.3431 76.9759C41.1971 75.8259 41.5381 73.6209 43.1011 72.0509L43.4581 71.6989L43.6961 71.4649L53.3521 61.8119L51.8681 60.3359L40.4771 71.7119C39.5491 72.6449 38.3791 73.1449 37.3421 73.1449C36.6491 73.1449 36.0181 72.9269 35.5571 72.4729C34.4281 71.3289 34.7641 69.1139 36.3251 67.5519L47.7021 56.1749L46.2251 54.7019L37.7931 63.1319C36.8651 64.0549 35.6741 64.5669 34.6431 64.5669C33.9651 64.5669 33.3291 64.3519 32.8641 63.8859C32.5181 63.5259 32.3231 63.0649 32.2491 62.5519C32.1771 62.1509 32.2041 61.7179 32.3021 61.2959C32.3231 61.2409 32.3331 61.1839 32.3471 61.1239C32.3741 61.0159 32.4231 60.8949 32.4491 60.7749C32.5191 60.6219 32.5821 60.4619 32.6561 60.2979C32.6971 60.2299 32.7401 60.1689 32.7751 60.1009C32.8491 59.9519 32.9491 59.8079 33.0331 59.6789C33.0841 59.6199 33.1171 59.5599 33.1561 59.5089C33.2951 59.3159 33.4651 59.1339 33.6331 58.9539L42.0551 50.5389L41.3521 49.8199C40.9591 49.4429 40.6761 49.0069 40.4791 48.5309L35.9751 51.0859C35.3031 51.4769 34.5411 51.6549 33.8031 51.6549C32.4751 51.6549 31.1901 51.0559 30.5001 49.9539C29.4101 48.2489 30.0941 45.9639 32.0021 44.8769L45.2701 37.4019C45.6701 37.9369 46.1571 38.4139 46.7561 38.8159L55.4041 44.5389C57.9841 46.2499 61.3361 45.7729 62.8531 43.4779C64.3711 41.1819 63.5061 37.9079 60.9331 36.1969L54.5561 31.9779C55.5681 31.4119 56.5821 30.9409 57.4611 30.6729L58.0261 30.4979C58.5371 30.3409 59.1171 30.2619 59.7151 30.2619C61.5261 30.2609 63.5141 30.9759 64.6901 32.1559L77.9811 45.4359C79.5391 47.0019 80.2581 49.9969 79.5781 52.0889ZM79.6881 43.7279L66.3931 30.4479C64.8031 28.8459 62.2471 27.8599 59.7171 27.8599C58.8601 27.8589 58.0411 27.9679 57.3131 28.2019L56.7521 28.3809C55.4221 28.7919 53.8361 29.5709 52.3221 30.5029L52.2731 30.4739C49.6891 29.3479 47.2241 28.0989 46.1321 27.7609L45.5771 27.5869C43.4661 26.9269 40.4601 27.6729 38.9031 29.2289L25.6191 42.5189C24.0531 44.0839 23.3381 47.0859 24.0211 49.1739L24.2751 49.9609C24.9591 52.0649 26.8021 55.0549 28.3551 56.6069L30.9001 59.1599C30.7201 59.2809 28.2851 62.6809 31.1681 65.5879C31.8181 66.2419 32.6641 66.6899 33.6021 66.8669L33.5881 66.8809C32.1231 68.7639 31.2741 71.6659 33.8651 74.1839C34.7481 75.0649 35.9821 75.5669 37.3421 75.5669C37.9791 75.5669 38.6251 75.4589 39.2621 75.2459C39.2781 76.5839 39.7621 77.8059 40.6511 78.6859C41.5241 79.5739 42.7721 80.0689 44.1221 80.0689C45.3921 80.0689 46.6711 79.6469 47.7961 78.8989C47.9661 79.8559 48.3981 80.7639 49.1261 81.4869C50.0221 82.3749 51.2471 82.8709 52.6031 82.8709C54.3141 82.8709 56.0891 82.0899 57.4531 80.7349L58.1831 79.9999C59.0311 80.1879 59.9471 80.0649 60.7361 79.5899L61.2381 79.2769C62.6211 78.4689 63.2051 76.8389 62.8121 75.3649L63.1741 75.0099C64.2951 75.8729 65.8751 76.0219 67.1701 75.2479L67.6621 74.9589C69.3281 73.9529 69.8691 71.7749 68.8671 70.1189L68.5631 69.6069L68.9441 69.2359C70.0331 69.9409 71.4941 70.0389 72.6941 69.3219L73.1921 69.0169C74.8561 68.0169 75.3971 65.8379 74.3951 64.1829L74.2561 63.9279L74.7271 63.4429C75.7991 64.0309 77.1081 64.0449 78.2131 63.3829L78.7031 63.0859C80.3751 62.0779 80.9261 59.9009 79.9281 58.2329L79.6211 57.7329C80.4751 56.3439 81.2031 54.8689 81.5941 53.6229L81.8651 52.8349C82.8441 49.8669 81.9041 45.9499 79.6881 43.7279Z" fill="white"/>
</g>
<defs>
<clipPath id="clip0_227_30568">
<rect width="106" height="106" fill="white"/>
</clipPath>
</defs>
</svg>
