<svg width="107" height="106" viewBox="0 0 107 106" fill="none" xmlns="http://www.w3.org/2000/svg">
<path d="M53.0742 0C82.3452 0 106.074 23.729 106.074 53C106.074 82.271 82.3452 106 53.0742 106C23.8032 106 0.0742188 82.271 0.0742188 53C0.0742188 23.729 23.8032 0 53.0742 0Z" fill="#C392B0"/>
<path d="M46.4295 30.859L49.2555 27.974L69.5755 33.453L64.5935 39.346L78.7345 51.709L73.6775 57.4L75.7675 77.394L47.4605 105.701L47.4355 105.699C23.7435 103.194 4.7125 85.079 0.8125 61.831L37.1345 25.509L46.4295 30.859Z" fill="#B47DA0"/>
<path d="M69.6289 33.562L69.6169 27.646C69.6049 25.402 68.0269 24.507 66.0839 25.63L58.6499 29.95C57.5699 27.962 55.5289 26.554 53.0989 26.559C50.6809 26.588 48.6479 27.981 47.5829 29.997L40.1199 25.726C38.1689 24.617 36.5989 25.54 36.6099 27.761L36.6279 33.562H69.6289ZM55.7459 77.31H75.8159V56.224H55.7459V77.31ZM55.7459 37.656V51.562H78.6479V37.656H55.7459ZM27.5859 51.562H50.5019V37.656H27.5859V51.562ZM30.4299 77.31H50.5019V56.224H30.4299V77.31Z" fill="white"/>
</svg>
