<svg width="107" height="106" viewBox="0 0 107 106" fill="none" xmlns="http://www.w3.org/2000/svg">
<path d="M106.205 52.99C106.205 82.261 82.467 106 53.201 106C23.928 106 0.207031 82.262 0.207031 52.99C0.207031 23.72 23.928 0 53.201 0C82.467 0 106.205 23.72 106.205 52.99Z" fill="#6E7CBC"/>
<path d="M52.7286 28.0271H52.8086V28.0451C53.8916 28.0451 55.1366 28.8101 55.5836 29.8061C56.1366 31.0321 55.8536 32.4781 54.9446 33.3651L53.8376 34.4681C53.8766 34.6991 53.9836 35.0731 54.1616 35.6961C54.5546 37.0821 54.8026 37.9561 55.0306 38.7901C55.1536 39.2001 55.3316 39.8931 55.4586 40.3411C55.5836 40.7671 55.7246 41.2641 55.7636 41.4241C55.7966 41.5881 55.9026 41.9241 55.9766 42.1711C56.0486 42.4411 56.1366 42.7951 56.1896 43.0101C56.2246 43.2051 56.2756 43.4011 56.3106 43.4371C56.3316 43.4931 56.4416 43.8451 56.5446 44.2571C56.7766 45.0911 57.1326 46.3531 57.3276 47.0311C57.4016 47.2961 57.4876 47.6191 57.5226 47.7421C57.5616 47.8831 57.6456 48.2221 57.7356 48.5081C57.8036 48.7761 57.8956 49.1141 57.9326 49.2541C57.9686 49.3961 58.0756 49.7191 58.1476 49.9651C58.2146 50.1971 58.3056 50.5351 58.3416 50.7311L68.2686 40.8041C68.7336 40.3601 69.3376 40.1991 69.9586 40.3771C71.3646 40.8221 71.5986 42.4421 70.7396 43.2981L69.2636 44.7911C69.2286 45.1641 69.1916 45.6431 69.1596 46.1581C69.1026 46.9431 69.0306 48.1161 68.9816 48.7591C68.7666 51.9461 68.7106 52.7091 68.6576 53.9531C68.6206 54.6851 68.5526 55.7521 68.4976 56.3051C68.3376 58.1331 68.3196 59.1861 68.4426 59.1861C68.4976 59.1861 68.8726 58.9181 69.7476 58.2461L79.7086 48.2791C80.0486 47.9431 80.4216 47.8001 80.9386 47.8001C81.9526 47.8001 82.6266 48.4701 82.6476 49.5271V49.6661C82.6416 50.0901 82.5946 50.1861 82.3766 50.4861C82.2846 50.5931 82.1986 50.7031 82.1056 50.7901L79.1206 53.7761C79.0996 53.7961 79.0996 53.7961 79.0996 53.8131C79.0326 53.9561 78.9586 54.1201 78.9586 54.1671C78.9586 54.2061 78.8666 54.4381 78.7636 54.6881C78.6576 54.9171 78.1596 56.1101 77.6596 57.3001C77.1596 58.4951 76.7376 59.5611 76.7006 59.6491C76.5586 59.9731 75.9336 61.5871 75.7216 62.1221C75.6006 62.4271 75.4716 62.7471 75.4406 62.8371C75.4056 62.9231 75.2456 63.2981 75.0966 63.6711C74.9756 64.0441 74.8156 64.4191 74.7806 64.5111C74.7436 64.5971 74.6026 64.9391 74.4796 65.2571C74.3526 65.5751 74.2086 65.9701 74.1376 66.0911C74.0856 66.2361 73.9936 66.4841 73.9216 66.6481C73.8706 66.8061 73.7806 67.0541 73.7316 67.1981C73.6766 67.3231 73.5486 67.6091 73.4816 67.8181C73.3896 68.0321 73.3016 68.2651 73.2496 68.3571C73.2146 68.4611 72.9486 69.1701 72.6446 69.9541C72.2026 71.1141 72.0406 71.5401 71.8806 71.7001L69.8516 73.7261C70.3166 73.7821 70.7396 73.8531 71.1326 73.8861L72.4296 72.5871H73.0196C73.5896 72.5871 73.6056 72.6051 73.6056 72.8021C73.6056 72.9111 73.5506 73.1071 73.4826 73.2301C73.3026 73.5851 72.1656 76.4681 72.0546 76.8411C72.0236 76.9461 71.9886 77.0381 71.9156 77.0931L43.8926 105.134C24.7496 101.695 9.03259 88.0471 2.93359 69.5761L24.2496 48.2551C24.5546 47.9561 24.9786 47.7961 25.4766 47.7961C26.1896 47.7961 26.6546 48.0611 27.0586 48.7391C27.1676 48.8991 27.2066 49.0771 27.1856 49.4481L35.7946 40.8391C35.9236 40.6931 36.0796 40.5891 36.2766 40.4791C37.0616 40.0751 38.0016 40.4291 38.4976 41.0841L50.6176 28.9681C51.1196 28.4511 51.7936 28.1151 52.5786 28.0431C52.6266 28.0321 52.6756 28.0281 52.7286 28.0271Z" fill="#606DA6"/>
<path d="M34.6896 77.6391C34.6216 77.4611 34.4946 77.1741 34.4256 76.9791C34.3516 76.8011 34.2476 76.5331 34.1916 76.3891C34.1366 76.2681 33.8376 75.5021 33.5316 74.7211C33.2156 73.9361 32.9276 73.2251 32.8966 73.1511C32.8396 73.0841 32.8046 72.9081 32.8046 72.7971C32.8046 72.5821 32.8046 72.5821 33.4086 72.6001L33.9966 72.6371L34.1566 73.0471C34.2606 73.2771 34.3696 73.5431 34.4086 73.6351C34.6336 74.2401 34.7776 74.5591 34.8306 74.6291C34.8856 74.7011 35.5646 74.6151 37.1996 74.3091C37.8016 74.1861 38.2136 74.1331 39.9226 73.8811C42.8756 73.4771 43.8366 73.3631 46.5416 73.1881C47.3076 73.1331 48.0186 73.0651 48.1416 73.0471C48.2486 73.0121 49.9406 72.9381 51.9136 72.8871C55.3296 72.7971 61.7196 72.8871 62.6636 73.0471C62.8596 73.0651 63.5716 73.1331 64.2646 73.1701C66.5406 73.3301 68.0056 73.4771 69.4976 73.6841C70.0646 73.7581 71.3486 73.9161 71.6356 73.9551C71.8136 73.9731 71.9896 73.6841 72.2906 72.9201L72.4326 72.5821H73.0226C73.5916 72.5821 73.6086 72.6001 73.6086 72.7971C73.6086 72.9061 73.5536 73.1021 73.4856 73.2251C73.3076 73.5981 72.1676 76.4631 72.0576 76.8361C71.9536 77.1931 71.7766 77.2641 71.1696 77.1741C69.0166 76.8931 68.4436 76.8201 65.8156 76.5701C64.5166 76.4471 63.7516 76.3891 60.5656 76.1971C58.8236 76.0901 52.0816 76.0901 50.3556 76.1971C49.6246 76.2331 48.4116 76.3241 47.6836 76.3541C46.4926 76.4281 45.7796 76.5001 42.9886 76.7641C42.5786 76.8221 41.9536 76.8931 41.5976 76.9421C41.2616 76.9791 40.6546 77.0701 40.2616 77.1211C39.3006 77.2481 38.0386 77.4421 37.6096 77.5311C37.4146 77.5861 37.1486 77.6211 37.0256 77.6211C36.9166 77.6211 36.5976 77.6721 36.3456 77.7251C36.0796 77.7971 35.6366 77.8691 35.3536 77.9041L34.8336 77.9611L34.6896 77.6391ZM34.6526 72.2091C34.5646 71.9941 34.4726 71.7811 34.4726 71.7291C34.4726 71.6971 34.4416 71.6021 34.4086 71.5161C34.3346 71.3751 33.8556 70.2011 33.4086 69.0611C33.3046 68.7741 33.1796 68.4571 33.1406 68.3521C33.0916 68.2601 32.9456 67.8871 32.8046 67.5121C32.6636 67.1581 32.5036 66.7661 32.4666 66.6741C32.4316 66.5881 32.3436 66.3561 32.2716 66.1781C31.9846 65.4491 31.4516 64.0781 31.3846 63.9181C31.3456 63.8261 31.2206 63.5081 31.0976 63.2071C30.8846 62.6371 30.3316 61.2481 29.9926 60.3911C29.8906 60.1271 29.7996 59.8581 29.7996 59.8401C29.7996 59.8091 29.6946 59.5761 29.5866 59.3261C29.4796 59.0941 28.9416 57.8141 28.4086 56.4981C27.8596 55.1821 27.3796 54.0061 27.3246 53.8631C27.2526 53.7221 27.1646 53.5081 27.1116 53.3671C27.0546 53.2211 26.9516 52.9901 26.8946 52.8481C26.8286 52.7251 26.7186 52.4551 26.6506 52.2791C26.4186 51.7101 26.3456 51.5131 26.2776 51.3921C26.2206 51.3001 26.0826 51.2691 25.7596 51.2691C24.8686 51.2481 24.7946 51.2301 24.3866 50.8741C23.8906 50.4291 23.7656 50.1611 23.7656 49.5601C23.7656 48.4891 24.4416 47.7961 25.4746 47.7961C26.1676 47.7961 26.6506 48.0621 27.0546 48.7391C27.1816 48.9341 27.2026 49.0941 27.1636 49.5731C27.1456 49.9131 27.1106 50.2681 27.0736 50.3911C27.0056 50.6431 26.7536 50.4281 31.0096 53.7691C33.5686 55.7841 34.8846 56.8321 36.7206 58.2941C37.3396 58.7901 37.8886 59.1811 37.9606 59.1811C38.0836 59.1811 38.0836 59.0911 38.0486 58.6141C37.9806 57.9211 37.8576 55.8511 37.7476 53.8271C37.6926 52.9751 37.6436 52.1901 37.6246 52.0631C37.5876 51.9421 37.5346 51.1761 37.4956 50.3381C37.3396 47.1731 37.2336 45.7141 37.1436 44.8251L37.0366 43.9131L36.5566 43.7551C35.0116 43.2381 34.8296 41.2261 36.2736 40.4781C37.4476 39.8781 38.9966 40.9431 38.7986 42.2421C38.7266 42.7051 38.6346 42.8661 38.2306 43.3071L37.9086 43.6481L38.5866 44.8551C38.9616 45.5341 39.3836 46.2991 39.5476 46.5641C39.7936 47.0111 41.9866 50.9591 42.4146 51.7261C42.6056 52.0621 43.0356 52.8461 43.3406 53.3791C43.6416 53.9361 43.8716 54.3771 44.4616 55.4101C44.7626 55.9431 45.0666 56.5141 45.1706 56.6911C45.3836 57.1011 45.5616 57.0661 45.6846 56.5861C45.7416 56.3711 45.8326 55.9981 45.9016 55.7481C45.9716 55.4961 46.1316 54.9281 46.2566 54.4841C46.5066 53.5561 46.8226 52.3851 47.0226 51.7261C47.0926 51.4761 47.1806 51.1561 47.2176 51.0151C47.2526 50.8721 47.3446 50.5331 47.4306 50.2671C47.6626 49.4121 47.9146 48.4871 48.0556 47.9541C48.0926 47.7941 48.1966 47.4561 48.2686 47.2061C48.3366 46.9381 48.4286 46.6021 48.4836 46.4411C48.5146 46.2821 48.6066 45.9421 48.6806 45.6941C48.8586 45.1071 48.9966 44.6081 49.2626 43.6481C49.5306 42.6511 49.8686 41.4081 50.0286 40.8381C50.2046 40.2131 50.3136 39.8581 50.4016 39.5041C50.4386 39.3211 50.5966 38.7881 50.7436 38.2741C50.8846 37.7751 51.0266 37.2271 51.0616 37.0621C51.1166 36.9031 51.2046 36.5671 51.2746 36.3151C51.3426 36.0501 51.4546 35.7131 51.4916 35.5491C51.5266 35.3891 51.6146 35.0531 51.6866 34.8011C51.8626 34.2141 51.8626 34.0541 51.6866 34.0541C51.2566 34.0541 50.1726 33.0061 49.9056 32.3281C49.1396 30.3731 50.4756 28.2371 52.5756 28.0421C53.7306 27.9321 55.1016 28.7331 55.5806 29.8031C56.2716 31.3361 55.6526 33.1661 54.1786 33.9131C53.6946 34.1621 53.6946 34.0541 54.1586 35.6741C54.5516 37.0601 54.7996 37.9521 55.0276 38.7861C55.1316 39.1951 55.3286 39.8891 55.4556 40.3371C55.5806 40.7631 55.7216 41.2601 55.7606 41.4201C55.7936 41.5851 55.8996 41.9201 55.9736 42.1671C56.0456 42.4161 56.1336 42.7911 56.1866 42.9861C56.2216 43.2011 56.2726 43.3981 56.3076 43.4341C56.3286 43.4691 56.4386 43.8421 56.5416 44.2541C56.7736 45.0881 57.1296 46.3501 57.3246 47.0271C57.3986 47.2921 57.4846 47.6151 57.5196 47.7381C57.5586 47.8791 57.6426 48.2181 57.7346 48.5051C57.8006 48.7721 57.8926 49.1101 57.9296 49.2501C57.9656 49.3921 58.0726 49.7151 58.1446 49.9611C58.2116 50.2131 58.3026 50.5861 58.3576 50.7831C58.3886 50.9771 58.4456 51.1741 58.4616 51.2101C58.4806 51.2441 58.6056 51.6371 58.7326 52.0981C58.9596 52.9191 59.1546 53.6461 59.4066 54.5681C59.4786 54.8211 59.5846 55.1931 59.6586 55.4091C59.8536 56.1201 60.2076 57.3821 60.2586 57.6341C60.3326 57.9191 60.5286 57.9521 60.6496 57.7251C60.7076 57.6161 60.8656 57.3331 61.0106 57.0811C61.1516 56.8311 61.3656 56.4371 61.4896 56.2121C61.6326 55.9811 61.8986 55.4791 62.1116 55.1221C62.3086 54.7491 62.5916 54.2321 62.7306 53.9821C62.9466 53.5751 63.5716 52.4711 63.9606 51.7621C64.0526 51.6371 64.2306 51.2791 64.3906 51.0141C64.5326 50.7271 64.7266 50.3891 64.8006 50.2661C64.8866 50.1271 65.0646 49.7841 65.2226 49.5021C65.3686 49.2321 65.5646 48.8971 65.6526 48.7541C65.7456 48.6131 65.8826 48.3261 65.9896 48.1111C66.3986 47.3651 68.3396 43.8931 68.4276 43.7891C68.4846 43.7151 68.4656 43.6291 68.3776 43.4891C67.7876 42.6681 67.7716 42.6681 67.7876 42.0451C67.7876 41.5291 67.8246 41.4061 68.0396 41.0821C68.4816 40.4261 69.2276 40.1381 69.9576 40.3721C71.7386 40.9411 71.6456 43.3971 69.8156 43.7891L69.3546 43.8751L69.2976 44.3021C69.2626 44.5361 69.2076 45.3741 69.1586 46.1531C69.1016 46.9371 69.0296 48.1111 68.9806 48.7541C68.7656 51.9401 68.7096 52.7041 68.6566 53.9481C68.6196 54.6791 68.5516 55.7281 68.4966 56.2771C68.3366 58.1281 68.3186 59.1791 68.4416 59.1791C68.5336 59.1791 69.3846 58.5191 72.6796 55.9071C73.5866 55.1931 74.7616 54.2691 75.2756 53.8591C79.4256 50.6231 79.6036 50.4431 79.2986 50.2661C79.1546 50.1591 79.1916 48.9891 79.3516 48.7181C79.7636 48.0591 80.2226 47.7931 80.9376 47.7931C81.9666 47.7931 82.6466 48.4851 82.6466 49.5701C82.6466 50.0521 82.6076 50.1581 82.3756 50.4781C81.8796 51.1181 81.3796 51.3511 80.6326 51.2441C80.2016 51.1911 80.1536 51.2261 79.9206 51.8141C79.8496 52.0101 79.6896 52.3831 79.5846 52.6291C79.4556 52.8611 79.3676 53.1131 79.3676 53.1481C79.3676 53.2341 79.3326 53.3081 79.0986 53.8051C79.0126 53.9481 78.9576 54.1121 78.9576 54.1591C78.9576 54.1981 78.8656 54.4301 78.7626 54.6801C78.6396 54.9091 78.1586 56.1021 77.6586 57.2921C77.1566 58.4871 76.7346 59.5521 76.6976 59.6411C76.5566 59.9641 75.9146 61.5631 75.7176 62.1141C75.5966 62.4191 75.4676 62.7391 75.4366 62.8291C75.3836 62.9141 75.2456 63.2891 75.0986 63.6621C74.9556 64.0191 74.8156 64.4101 74.7816 64.5021C74.7276 64.5881 74.6026 64.9301 74.4796 65.2481C74.3526 65.5661 74.2096 65.9611 74.1376 66.0821C74.0866 66.2271 73.9796 66.4751 73.9246 66.6391C73.8716 66.7971 73.7816 67.0451 73.7136 67.1881C73.6586 67.3131 73.5496 67.6001 73.4816 67.8091C73.3896 68.0061 73.2856 68.2561 73.2506 68.3481C73.2156 68.4521 72.9336 69.1611 72.6466 69.9471C71.8816 71.9241 71.9706 71.7781 71.4206 71.7781C71.1686 71.7781 70.4576 71.7111 69.8346 71.6191C69.2096 71.5491 68.3966 71.4401 68.0216 71.4061C67.6616 71.3731 67.0036 71.3011 66.5566 71.2621C66.1186 71.2071 65.2436 71.1391 64.5856 71.0841C63.9446 71.0291 62.8966 70.9431 62.2536 70.8871C60.5626 70.7481 51.8066 70.6921 50.0276 70.8221C49.2476 70.8711 48.0736 70.9631 47.4136 71.0001C46.3646 71.0671 44.7416 71.2091 42.8006 71.4061C42.4456 71.4401 41.6816 71.5491 41.1306 71.6191C40.5796 71.6921 39.8826 71.7781 39.5776 71.8341C38.9216 71.9061 37.8686 72.0841 36.3276 72.3671C35.9366 72.4381 35.4346 72.5131 35.2206 72.5451L34.8296 72.5991L34.6526 72.2091Z" fill="white"/>
</svg>
