<svg width="106" height="106" fill="none" xmlns="http://www.w3.org/2000/svg"><g clip-path="url(#clip0_227_28366)"><path d="M106.1 53.078c0 29.27-23.72 53.008-52.992 53.008C23.84 106.086.102 82.348.102 53.078.102 23.806 23.84.087 53.108.087 82.38.087 106.1 23.806 106.1 53.078z" fill="#4D9197"/><path d="M72.54 22.454c-.498 0-1.158.017-1.514.068-1.316.163-2.598.518-4.146 1.126-.215.066-.305.121-.34.157L46.543 43.804c.035-.121.053-.226.07-.354l14.7-14.677.638-1.764-.336-.127-.037-.013-.55-.196h-.019l-.57-.177-.018-.021-.57-.162-.016-.013-.588-.147-.018-.017-.588-.123-.019-.021-.588-.121h-.015l-.604-.11h-.017l-.588-.104h-.037l-.604-.073h-.018l-.605-.068h-.018l-.605-.036h-.018l-.605-.035h-.018l-.588-.021h-.64l-.589.021h-.016l-.588.017h-.037l-.568.036h-.035l-.57.056h-.033l-.57.067h-.02l-.584.09h-.018l-.57.107h-.018l-.57.11h-.018l-.57.139h-.016l-.55.143h-.038l-.39.104-2.35 2.352a2.721 2.721 0 00-.144-1.403c-.445-1.269-1.477-2.069-2.828-2.174-.09-.019-.178-.019-.268-.019-.8.019-1.583.375-2.17.944l-2.456 2.455c-.143-.068-.355-.106-.748-.16a13.65 13.65 0 00-1.727-.143c-1.725-.053-3.398.196-4.75.712-.248.092-.568.214-.693.27-.178.048-.285.104-.338.158l-1.762 1.76c-.035-.052-.072-.104-.088-.161-.107-.178-.197-.265-.32-.247l-3.4 3.398v-.017l3.4-3.382c-.127 0-.287.088-.518.266-.408.338-.836.712-1.229 1.104l-6.086 6.103a3.294 3.294 0 00-1.939.961L.19 55.162c.994 24.676 18.88 45.408 43.15 49.961l25.765-25.764c.57-.568.41-1.14-.283-2.26-.375-.605-.766-1.459-.873-1.92-.125-.479-.355-.962-.586-1.14-.375-.283-.393-.394-.305-1.853a8.923 8.923 0 00-.017-1.565l3.595-3.597.247-.268.02-.018.41-.426.017-.017.393-.448v-.019l.391-.459.02-.021.372-.465v-.018l.375-.479.02-.019.337-.481.018-.015.338-.502.018-.019.338-.514v-.02l.322-.533.017-.018.305-.517.017-.019.285-.534.02-.017.266-.533.018-.02.25-.535.02-.014.247-.557v-.014l.231-.537v-.021l.214-.551v-.019l.194-.551v-.02l.195-.551v-.019l.16-.57v-.012l.162-.558v-.014l.105-.412 7.526-7.547c.02 0 .02-.013.035-.013.053-.217 2.9-10.041 2.9-10.055 0 0-.23.087-.499.178-.516.196-.996.374-1.459.514l2.455-2.456 1.461-5.055c.8-2.756 1.46-5.034 1.44-5.052l-.179.071c-1.637.656-3.06 1.03-4.537 1.208-.39.038-1.494.038-1.869 0-1.564-.178-2.846-.692-4.537-1.795-.143-.092-.195-.126-.23-.126l-2.633 2.637c.496-1.729 1.084-3.703 1.084-3.721 0-.021-.16-.125-.354-.252-1.675-1.104-2.988-1.581-4.608-1.741-.105 0-.248-.019-.427-.019v-.004h-.007v.012z" fill="#3C7378"/><path d="M72.541 22.454c-.498 0-1.158.017-1.514.068-1.316.163-2.598.518-4.146 1.126-.269.104-.34.14-.356.195 0 .031-.658 2.309-1.459 5.051-.801 2.756-1.441 5.016-1.424 5.016 0 0 .194-.068.428-.16 1.584-.617 3.078-1.028 4.252-1.174 2.279-.229 4.129.287 6.424 1.817.143.086.25.16.25.16.018-.02 2.918-10.054 2.918-10.092 0 0-.143-.122-.338-.244-1.691-1.091-3.008-1.587-4.627-1.747a3.462 3.462 0 01-.408-.016zm-31.459 2.633c-1.351 0-2.632 1.014-2.99 2.364-.16.624-.16.961-.018 1.53.32 1.213 1.209 2.083 2.402 2.352 2.385.532 4.502-1.795 3.701-4.06-.445-1.281-1.477-2.063-2.828-2.187l-.267.001zm11.955.336l-.586.021h-.02l-.586.017h-.02l-.586.055h-.018l-.588.052h-.016l-.59.072h-.018l-.566.07h-.018l-.588.107h-.018l-.57.11-.018.013-.553.126h-.033l-.553.143h-.018l-.408.104.498 1.818.391-.11.516-.122.553-.124.533-.11 1.102-.177.57-.069.533-.053.551-.038.57-.018.551-.019h.567l.588.019.57.037.551.036.588.068.57.074.586.089.57.106.533.122.57.128.551.142.553.157 1.066.356.338.127.658-1.744-.354-.14h-.019l-.551-.196-.037-.02-.551-.179h-.035l-.547-.173h-.035l-.568-.164h-.018l-.588-.144h-.02l-.586-.121-.035-.019-.588-.109h-.019l-.604-.087h-.018l-.604-.073h-.021l-.604-.068h-.017l-.604-.055h-.02l-.604-.037h-.016l-.605-.019h-.641l.053.019zm26.443.129l-.021.015c0 .034-.642 2.264-1.422 4.963-.783 2.689-1.425 4.967-1.459 5.039l-.037.124.338.215c1.64 1.064 3.043 1.602 4.558 1.742.338.038 1.389.038 1.742 0 1.266-.126 2.547-.445 4.006-1.033.266-.105.551-.231.621-.266l.125-.053 1.461-5.052c.799-2.778 1.459-5.038 1.438-5.055l-.179.07c-1.637.656-3.077 1.029-4.536 1.189-.392.055-1.494.055-1.869 0-1.563-.16-2.847-.674-4.537-1.776-.141-.091-.193-.122-.229-.122zm-45.498 2.613c-1.727-.034-3.398.216-4.734.729-.266.087-.568.214-.711.252-.535.195-.535.244-.037 1.084.25.426.553.942.66 1.139.105.213.23.446.285.496.053.073.123.194.16.25.033.074.266.496.533.961.551.962.623.997 1.512.692.463-.158.729-.176 1.869-.176 1.174-.02 1.406 0 1.992.176.836.252 1.869.729 2.51 1.158.551.374 1.654 1.494 1.974 2.027.588.909 1.051 2.013 1.156 2.688.107.606-.035.569 2.51.625 3.293.072 2.973.09 3.008-.271.053-.712-.516-2.934-1.086-4.145-.658-1.422-1.994-3.327-2.385-3.38-.107-.021-.375.036-.57.123-.301.108-.605.145-1.352.145-.836-.018-1.033-.036-1.546-.231-1.639-.623-2.777-1.996-3.045-3.649-.07-.373-.176-.446-.961-.551a18.9 18.9 0 00-1.742-.142zm-7.955 2.491c-.125 0-.285.088-.498.266-1.102.894-2.152 1.994-2.828 3.024-.5.729-1.426 2.53-1.441 2.743a.98.98 0 01-.125.356c-.18.354-.16.426.248.764.518.41 1.229 1.53 1.459 2.242.232.745.232 1.78 0 2.563-.178.658-.924 1.832-1.404 2.224-.41.318-.445.427-.303.766.07.142.213.478.318.766.428 1.121 1.105 2.241 2.066 3.399.533.656.941 1.047 1.814 1.779.338.283.676.516.746.516.107 0 .588-.766 1.459-2.371.127-.225.428-.764.66-1.173.621-1.064.621-.994.035-1.58-.908-.889-1.691-2.156-2.047-3.313-.285-.925-.391-2.239-.268-3.182.215-1.782.943-3.277 2.227-4.576.711-.728.711-.709 0-1.866-.48-.765-.641-1.047-.641-1.086 0-.017-.125-.231-.268-.481a7.84 7.84 0 01-.393-.637c-.053-.129-.16-.308-.23-.429a4.465 4.465 0 00-.268-.447c-.105-.179-.193-.267-.318-.267zm42.67 3.755c-.428.019-.873.036-1.158.068-1.334.184-2.863.605-4.217 1.157l-.213.092-1.406 4.947a531.104 531.104 0 00-1.459 5.089l-.053.139.195-.068a23.172 23.172 0 011.762-.64c2.242-.661 4.146-.785 5.836-.339 1.014.283 2.012.748 3.205 1.514l.336.229s.678-2.294 1.496-5.104c1.403-4.824 1.475-5.093 1.438-5.125-.035-.02-.229-.146-.442-.285-1.531-.981-2.742-1.461-4.234-1.638-.25-.036-.678-.036-1.105-.036h.019zm7.35 3.008c-.037.07-2.885 9.998-2.902 10.036-.016.07.908.658 1.619 1.015a8.613 8.613 0 003.418 1.01c.248.02 1.494-.012 1.814-.049 1.352-.179 2.598-.52 4.164-1.124.266-.107.355-.161.373-.194.053-.213 2.9-10.034 2.9-10.054 0 0-.23.089-.498.178-1.529.602-2.775.925-4.093 1.085-.534.054-1.674.054-2.153 0-1.494-.213-2.74-.691-4.252-1.69-.232-.16-.374-.232-.39-.213zm-57.475.674c-1.068 0-2.154.604-2.758 1.549-.518.803-.588 2.081-.16 2.993.426.87 1.031 1.384 1.992 1.708 1.281.422 2.828-.164 3.594-1.373.232-.373.518-1.283.518-1.669 0-.448-.285-1.322-.57-1.765-.534-.818-1.674-1.443-2.616-1.443zm26.797 4.326c-.338 0-.766.021-1.316.021-2.883.031-2.723-.021-2.9.778-.463 2.116-2.117 4.13-4.146 5.09-1.314.621-1.742.714-3.326.714-1.406 0-1.691-.037-2.598-.375a.379.379 0 00-.338 0c-.09.056-.553.765-1.033 1.599-.48.838-.943 1.639-1.031 1.783-.072.141-.25.445-.373.662-.25.422-.232.655.053.745l.426.16c.783.357 2.439.746 3.561.869 1.299.129 3.699-.055 4.092-.301.125-.07.195-.248.268-.551.178-.922.551-1.624 1.334-2.387.568-.57 1.066-.871 1.832-1.121.605-.215 2.225-.215 2.67-.02.568.252.818.197 1.246-.334.836-1.049 1.709-2.548 2.1-3.595.498-1.317.941-3.434.783-3.631-.076-.086-.271-.106-1.304-.106zM56.42 50.73c-.785.016-1.568.141-2.137.391-1.051.443-1.958 1.375-2.35 2.422-.301.816-.355 1.404-.408 4.123-.053 3.986-.143 4.291-2.063 6.834-2.277 3.043-3.471 5.82-3.471 8.148 0 .979-.854 2.053-1.885 2.389-.393.143-.891.479-1.139.764-.41.48-.428.588-.32 1.746.07.729.035 1.531-.09 1.992-.391 1.6.053 2.043 2.457 2.4.889.145 2.188.479 2.898.764 1.727.697 2.633.801 3.592.449.428-.162.908-.519 1.105-.769.283-.409.497-.498 1.94-.692 1.299-.178 1.957-.178 3.291-.019 1.619.195 1.674.232 1.939.746.143.302.57.713.943.927 1.28.766 2.774.317 4.467-1.316.586-.57 1.584-1.264 2.385-1.689 2.117-1.104 2.277-1.514 1.227-3.24-.373-.604-.766-1.459-.871-1.92-.107-.479-.354-.943-.588-1.121-.355-.289-.373-.391-.301-1.852.16-2.797-.535-4.572-3.205-8.098-2.08-2.793-2.367-3.521-2.367-6.314 0-4.16-.994-6.178-3.361-6.852-.479-.145-1.085-.213-1.688-.213zm-15.321.533a3.218 3.218 0 00-1.636.496c-1.139.783-1.691 2.103-1.389 3.347.283 1.104 1.086 1.992 2.154 2.348 1.121.373 2.508 0 3.291-.869.551-.645.783-1.213.818-2.012.037-.871-.16-1.459-.711-2.151a3.194 3.194 0 00-2.527-1.159zm34.465 1.801l-.053.371v.021l-.091.528-.104.552-.125.532-.144.533-.141.551-.162.533-.179.521v.019l-.178.516-.215.533v.018l-.213.496-.23.539-.25.514-.266.516-.268.5-.285.515-.303.496-.318.483-.34.479v.021l-.32.444v.021l-.338.461-.373.442-.355.431-.373.424-.391.426-.248.25 1.334 1.316.266-.287.021-.019.408-.426v-.019l.394-.442.018-.021.391-.439.018-.021.355-.479.018-.021.375-.461v-.016l.355-.502.018-.018.338-.496.019-.021.319-.514.019-.019.32-.516.021-.018.301-.535v-.019l.305-.53v-.021l.283-.535v-.011l.268-.537.018-.018.23-.535.02-.019.23-.551v-.019l.213-.553v-.018l.197-.551v-.019l.176-.553v-.019l.178-.551v-.02l.16-.568v-.018l.143-.57v-.014l.125-.568v-.02l.107-.551v-.021l.088-.565v-.019l.072-.41-1.852-.287v-.027h-.006v.005zM57.379 55.32c.303 0 .588.104.836.338.695.643.908 1.887.498 2.773-.105.252-.266.43-.373.43-.516-.037-.588-.195-.498-.998.07-.619.037-.871-.195-1.084-.16-.16-.354-.287-.428-.287-.301 0-.693.537-.693.947 0 .301-.088.405-.338.405-.463 0-.588-.405-.354-1.188.246-.838.904-1.353 1.545-1.336zm-4.057.303c.303.018.604.213.836.568.408.678.445 1.584.072 1.727-.394.141-.375.158-.48-.408-.125-.59-.57-.854-.819-.5-.145.234-.125.943.035 1.496.036.143-.018.266-.125.318-.588.215-.855-1.955-.338-2.738.213-.34.517-.482.819-.463zm1.797 2.453c.516-.018 1.121.234 2.189.729 1.051.521 1.368.748 1.403 1.07.09.553-.479 1.086-1.92 1.795-1.39.699-1.834.73-2.563.287-.729-.428-1.958-1.621-1.958-1.865 0-.27.695-.912 1.692-1.568.429-.288.767-.448 1.157-.448zm-22.26 1.426l-1.689.816.178.342.018.014.268.535v.021l.285.514.018.018.303.516.018.019.303.496.018.021.32.502.018.03.338.482.02.018.354.498.02.019.373.481v.015l.393.481.016.019.375.461.018.018.408.447.018.02.41.441v.018l.428.41.018.037.426.408.02.02.426.391.02.019.443.396.018.012.445.379.035.014.445.359h.018l.463.354.035.017.463.336h.018l.48.338h.018l.48.318h.037l.48.305.016.018.498.283h.037l.355.197.891-1.637-.338-.197-.48-.268-.48-.283-.926-.605-.463-.338-.445-.34-.408-.318v-.02l-.428-.354-.445-.375-.408-.373-.41-.412-.391-.408-.41-.41v-.012l-.355-.412v-.019l-.746-.889-.357-.481-.338-.466v-.014l-.32-.447v-.019l-.604-.961-.287-.498-.266-.5-.268-.512-.16-.32-.081.015zm25.178.393c-.158 0-.676.246-1.156.533-.605.373-1.139.568-1.762.619-.781.074-.961.018-1.547-.459-.375-.287-.713-.482-.766-.43-.143.143.854.906 1.424 1.086.283.092.781.125 1.121.072.641-.086 3.149-1.408 2.686-1.421zM47.185 73.721c.07 0 .16.019.266.037.713.176 1.158.656 1.869 2.025a16.75 16.75 0 001.352 2.156c1.619 2.131 1.832 3.024.941 3.93-.428.43-.621.496-1.406.479-.496 0-1.029-.049-1.152-.104-.143-.037-.73-.27-1.281-.482a12.311 12.311 0 00-2.35-.57c-2.1-.282-2.012-.178-1.904-2.616.07-1.154.143-2.187.178-2.293.035-.123.428-.375.854-.57.445-.178 1.158-.711 1.604-1.205.549-.574.761-.77 1.029-.787zm14.963.14c.106 0 .178.104.178.301 0 .178.16.539.355.783.463.588 1.155.57 2.276-.068.785-.445.961-.482 1.405-.322.519.176.767.568.998 1.604.054.28.302.748.515 1.047.979 1.315.838 1.801-.834 2.633-.588.287-1.515.947-2.065 1.461-.568.519-1.263 1.05-1.582 1.177-.818.338-1.797.303-2.314-.109-.818-.635-.871-1.6-.23-3.947.142-.496.303-1.459.355-2.156.053-.674.213-1.494.34-1.813.158-.355.371-.568.551-.588.015-.003.035-.003.052-.003z" fill="#fff"/></g><defs><clipPath id="clip0_227_28366"><path fill="#fff" d="M0 0h106v106H0z"/></clipPath></defs></svg>