<svg width="106" height="106" fill="none" xmlns="http://www.w3.org/2000/svg"><g clip-path="url(#clip0_227_28360)"><path d="M53.11.175c29.27 0 52.999 23.729 52.999 53s-23.729 53-53 53c-29.272 0-53-23.729-53-53s23.728-53 53-53z" fill="#BFB558"/><path d="M43.169 46.316l15.623-15.154 5.25 8.498 17.174 12.568-13.352 13.545L72.4 72.27l-32.294 32.295a52.806 52.806 0 01-18.677-8.896l-.087-.065-10.66-10.66-.054-.069A52.721 52.721 0 01.258 57.166L28.54 28.634l8.937 11.477 5.69 6.205z" fill="#A89D3D"/><path d="M84.25 37.271c1.305 4.887 1.033 10.646-2.82 14.501-3.854 3.854-10.063 5.021-15.352 3.01l-1.211 1.209-6.172-5.508a7.339 7.339 0 00-4.035-1.833l2.402-2.402c-2.441-5.475-1.287-12.209 2.672-16.17 3.959-3.959 9.479-4.262 14.365-2.957l-6.418 6.418c-2.121 2.121-2.121 5.592 0 7.713l2.438 2.438c2.121 2.121 5.592 2.121 7.713 0l6.418-6.419zM50.253 50.214c2.102-1.261 4.854-.916 6.782.807l15.264 13.622c2.266 2.021 2.148 5.664 0 7.813l-4.723 4.723c-2.148 2.146-5.768 2.248-7.813 0L46.005 62.05c-1.788-1.965-2.092-4.825-.701-6.948l-8.902-8.904c-1.686.225-3.844.182-5.367-1.031-2.856-2.279-3.691-4.867-7.368-11.629l4.991-4.992c7.34 3.869 9.352 4.512 11.629 7.369 1.215 1.521 1.258 3.682 1.032 5.365l8.934 8.934zm.751 19.64L43.16 77.7c-1.769 1.768-4.561 1.879-6.194.245L34.14 75.12c-1.634-1.636-1.525-4.425.245-6.195l9.21-9.211a7.205 7.205 0 001.845 4.022l5.564 6.118z" fill="#fff"/></g><defs><clipPath id="clip0_227_28360"><path fill="#fff" d="M0 0h106v106H0z"/></clipPath></defs></svg>