<svg width="106" height="106" fill="none" xmlns="http://www.w3.org/2000/svg"><g clip-path="url(#clip0_227_28342)"><path d="M53.016 0c29.27 0 53 23.729 53 53s-23.73 53-53 53c-29.271 0-53-23.729-53-53s23.728-53 53-53z" fill="#E5B615"/><path d="M63.328 35.96l-7.464 7.126 22.998 3.672-4.724 4.748 11.111 3.369-4.78 4.725 3.479 3.312-6.007 6.059 1.418 2.894L45.72 105.5l-.111-.016C23.955 102.455 6.5 86.348 1.478 65.402l26.056-25.958 35.793-3.483z" fill="#D4A914"/><path d="M81.747 56.17c2.348 0 4.273-1.416 4.273-3.127 0-1.74-1.929-3.144-4.273-3.144H56.075v-2.225h19.688c2.357 0 4.271-1.402 4.271-3.133 0-1.719-1.916-3.139-4.273-3.139H56.075v-1.067c0-.568-.107-1.107-.31-1.619l5.308-1.477c2.268-.627 3.727-2.869 3.264-4.967-.455-2.113-2.697-3.318-4.945-2.68L35.67 36.195c-.033 0-.05.027-.078.027-2.098.303-4.504 1.018-6.045 1.834l-.56.285c-2.083 1.102-3.796 3.915-3.796 6.272v19.999c0 2.35 1.73 5.131 3.82 6.209l.79.393c2.093 1.074 5.724 1.938 8.07 1.938l37.893-.002c2.356 0 4.271-1.401 4.271-3.125 0-1.729-1.916-3.139-4.272-3.139H56.075v-2.229h23.96c2.351 0 4.272-1.402 4.272-3.128 0-1.725-1.925-3.139-4.273-3.139H56.075v-2.22h25.672z" fill="#fff"/></g><defs><clipPath id="clip0_227_28342"><path fill="#fff" d="M0 0h106v106H0z"/></clipPath></defs></svg>