<svg width="24" height="25" viewBox="0 0 24 25" fill="none" xmlns="http://www.w3.org/2000/svg">
<path fill-rule="evenodd" clip-rule="evenodd" d="M19.896 15.4111C19.896 16.7815 19.3516 18.0957 18.3826 19.0647C17.4136 20.0337 16.0994 20.5781 14.729 20.5781H9.166C7.7958 20.5779 6.48181 20.0334 5.51303 19.0644C4.54424 18.0954 4 16.7813 4 15.4111V9.74512C3.99987 9.06663 4.13339 8.39476 4.39295 7.76788C4.65251 7.14099 5.03301 6.57138 5.51273 6.09157C5.99245 5.61175 6.56199 5.23114 7.18883 4.97146C7.81566 4.71178 8.48751 4.57812 9.166 4.57813H11.774C12.4525 4.57813 13.1244 4.71177 13.7513 4.97144C14.3782 5.23111 14.9478 5.6117 15.4276 6.0915C15.9074 6.5713 16.288 7.14091 16.5477 7.7678C16.8074 8.39469 16.941 9.06658 16.941 9.74512L16.943 9.75613C16.98 10.2921 17.427 10.7161 17.973 10.7161L17.991 10.7141H18.863C19.433 10.7141 19.897 11.1771 19.897 11.7481L19.896 15.4111ZM9.038 10.7541H11.964C12.2275 10.7541 12.4802 10.6495 12.6665 10.4631C12.8528 10.2768 12.9575 10.0241 12.9575 9.76062C12.9575 9.49713 12.8528 9.24443 12.6665 9.05811C12.4802 8.8718 12.2275 8.76713 11.964 8.76713H9.038C8.77996 8.77531 8.53523 8.88357 8.3556 9.069C8.17597 9.25442 8.07552 9.50246 8.07552 9.76062C8.07552 10.0188 8.17597 10.2668 8.3556 10.4523C8.53523 10.6377 8.77996 10.7459 9.038 10.7541ZM14.905 14.5841H9.032C8.78813 14.5921 8.55692 14.6946 8.38722 14.8699C8.21753 15.0452 8.12265 15.2796 8.12265 15.5236C8.12265 15.7676 8.21753 16.0021 8.38722 16.1774C8.55692 16.3527 8.78813 16.4552 9.032 16.4631H14.905C15.0284 16.4631 15.1507 16.4388 15.2647 16.3916C15.3788 16.3443 15.4824 16.2751 15.5697 16.1878C15.657 16.1005 15.7262 15.9969 15.7734 15.8828C15.8207 15.7688 15.845 15.6466 15.845 15.5231C15.845 15.3997 15.8207 15.2774 15.7734 15.1634C15.7262 15.0494 15.657 14.9457 15.5697 14.8584C15.4824 14.7712 15.3788 14.7019 15.2647 14.6547C15.1507 14.6074 15.0284 14.5841 14.905 14.5841Z" fill="white"/>
</svg>
