<svg width="24" height="25" viewBox="0 0 24 25" fill="none" xmlns="http://www.w3.org/2000/svg">
<path fill-rule="evenodd" clip-rule="evenodd" d="M5.555 11.3921V14.6781H6.515C6.515 14.6781 6.695 14.6831 6.695 14.4561V11.1691H5.735C5.735 11.1691 5.555 11.1631 5.555 11.3911V11.3921ZM13.587 14.4571V11.1701H12.627C12.627 11.1701 12.447 11.1641 12.447 11.3921V14.6781H13.407C13.407 14.6781 13.587 14.6851 13.587 14.4571ZM8.281 15.7771C8.281 16.0041 8.101 15.9991 8.101 15.9991H4V10.0751C4 9.84813 4.18 9.85313 4.18 9.85313H6.694V7.80013C6.694 7.57313 6.874 7.57813 6.874 7.57813H8.282L8.281 15.7771ZM10.346 15.7771C10.346 16.0041 10.166 15.9981 10.166 15.9981H8.761V10.0741C8.761 9.84813 8.941 9.85313 8.941 9.85313H10.347V15.7771H10.346ZM10.346 8.67413C10.346 8.90113 10.166 8.89613 10.166 8.89613H8.76V7.80013C8.76 7.57313 8.94 7.57813 8.94 7.57813H10.348L10.347 8.67413H10.346ZM15.173 17.8841C15.173 18.1121 14.993 18.1071 14.993 18.1071H10.893V17.0111C10.893 16.7841 11.073 16.7891 11.073 16.7891H13.586V15.9991H10.892V10.0751C10.892 9.84813 11.072 9.85313 11.072 9.85313L15.174 9.85613V17.8851L15.173 17.8841ZM19.999 17.8841C19.999 18.1121 19.819 18.1071 19.819 18.1071H15.719V17.0111C15.719 16.7841 15.899 16.7891 15.899 16.7891H18.413V15.9991H15.718V10.0751C15.718 9.84813 15.898 9.85313 15.898 9.85313L20 9.85713V17.8851L19.999 17.8841ZM18.414 14.4571V11.1701H17.454C17.454 11.1701 17.274 11.1641 17.274 11.3921V14.6781H18.234C18.234 14.6781 18.414 14.6851 18.414 14.4571Z" fill="white"/>
</svg>
