<svg width="24" height="25" viewBox="0 0 24 25" fill="none" xmlns="http://www.w3.org/2000/svg">
<path fill-rule="evenodd" clip-rule="evenodd" d="M4.24599 9.53217H7.65599V19.8132H4.24599V9.53217ZM5.97099 4.59717C4.80399 4.59717 4.04199 5.36617 4.04199 6.37317C4.04199 7.36017 4.78199 8.15017 5.92599 8.15017H5.94799C7.13799 8.15017 7.87799 7.36017 7.87799 6.37317C7.85499 5.36617 7.13799 4.59717 5.97099 4.59717ZM16.023 9.31217C14.213 9.31217 13.403 10.3092 12.95 11.0102V9.55417H9.53999C9.58499 10.5192 9.53999 19.8352 9.53999 19.8352H12.95V14.0932C12.95 13.7862 12.972 13.4792 13.062 13.2592C13.308 12.6462 13.869 12.0092 14.812 12.0092C16.045 12.0092 16.539 12.9532 16.539 14.3342V19.8352H19.949V13.9392C19.949 10.7812 18.266 9.31217 16.023 9.31217Z" fill="white"/>
</svg>
