<svg width="24" height="25" viewBox="0 0 24 25" fill="none" xmlns="http://www.w3.org/2000/svg">
<path fill-rule="evenodd" clip-rule="evenodd" d="M16.542 11.2081C15.437 10.5721 14.048 10.1751 12.517 10.0901L13.325 7.69712L15.507 8.33413C15.507 9.29713 16.287 10.0761 17.25 10.0761C18.214 10.0761 19.008 9.29713 19.008 8.33413C19.008 7.35813 18.214 6.57812 17.25 6.57812C16.641 6.57812 16.102 6.90413 15.791 7.37113L13.141 6.60712C13.0805 6.5872 13.0167 6.57944 12.9533 6.58431C12.8898 6.58918 12.8279 6.60657 12.7712 6.63549C12.7145 6.6644 12.664 6.70427 12.6228 6.75278C12.5816 6.80129 12.5504 6.85749 12.531 6.91813L11.468 10.0901C9.952 10.1751 8.563 10.5721 7.458 11.2091C7.27052 11.0105 7.04412 10.8527 6.79291 10.7455C6.54171 10.6383 6.27111 10.5841 5.998 10.5861C5.73568 10.5857 5.47585 10.6371 5.23339 10.7372C4.99094 10.8374 4.77061 10.9843 4.58503 11.1697C4.39944 11.3551 4.25225 11.5753 4.15186 11.8177C4.05147 12.06 3.99987 12.3198 4 12.5821C4 13.3321 4.425 13.9851 5.035 14.3241C5.006 14.4941 4.992 14.6641 4.992 14.8341C4.992 17.4541 8.138 19.5781 12.007 19.5781C15.862 19.5781 19.007 17.4541 19.007 14.8341C19.007 14.6641 18.994 14.4941 18.965 14.3241C19.2788 14.1544 19.5408 13.9028 19.7231 13.5961C19.9053 13.2893 20.001 12.9389 20 12.5821C20.0001 12.3198 19.9485 12.06 19.8481 11.8177C19.7478 11.5753 19.6006 11.3551 19.415 11.1697C19.2294 10.9843 19.0091 10.8374 18.7666 10.7372C18.5241 10.6371 18.2643 10.5857 18.002 10.5861C17.7291 10.5854 17.4589 10.6403 17.2079 10.7474C16.9569 10.8545 16.7303 11.0106 16.542 11.2081ZM9.499 13.0781C9.76548 13.0792 10.0208 13.1855 10.2092 13.3739C10.3976 13.5624 10.5039 13.8176 10.505 14.0841C10.5041 14.2153 10.4773 14.3449 10.4263 14.4657C10.3752 14.5865 10.3008 14.6961 10.2074 14.7881C10.114 14.8802 10.0033 14.9529 9.88176 15.0021C9.76021 15.0514 9.63014 15.0762 9.499 15.0751C9.36859 15.0759 9.23932 15.0508 9.11867 15.0013C8.99802 14.9518 8.88839 14.8789 8.79613 14.7867C8.70387 14.6945 8.63081 14.585 8.58118 14.4644C8.53155 14.3438 8.50634 14.2145 8.507 14.0841C8.50581 13.9529 8.53056 13.8227 8.57982 13.701C8.62908 13.5793 8.70188 13.4686 8.79405 13.3751C8.88622 13.2816 8.99594 13.2073 9.11691 13.1563C9.23789 13.1053 9.36773 13.0788 9.499 13.0781ZM14.501 13.0781C14.3698 13.0789 14.24 13.1056 14.1191 13.1566C13.9982 13.2076 13.8885 13.2819 13.7963 13.3754C13.7042 13.4688 13.6314 13.5795 13.5821 13.7011C13.5328 13.8228 13.5079 13.9529 13.509 14.0841C13.509 14.6361 13.949 15.0751 14.501 15.0751C14.6321 15.0762 14.7622 15.0514 14.8838 15.0021C15.0053 14.9529 15.116 14.8802 15.2094 14.7881C15.3028 14.6961 15.3772 14.5865 15.4283 14.4657C15.4793 14.3449 15.5061 14.2153 15.507 14.0841C15.5059 13.8176 15.3996 13.5624 15.2112 13.3739C15.0228 13.1855 14.7675 13.0792 14.501 13.0781ZM9.201 16.6751C9.14867 16.636 9.1048 16.5867 9.07203 16.5302C9.03926 16.4737 9.01827 16.4111 9.01033 16.3463C9.00239 16.2814 9.00766 16.2156 9.02582 16.1529C9.04398 16.0901 9.07466 16.0317 9.116 15.9811C9.272 15.7551 9.598 15.7261 9.81 15.8961C10.377 16.3361 11.284 16.5761 12.007 16.5761C12.716 16.5761 13.623 16.3361 14.204 15.8961C14.2546 15.8548 14.313 15.8241 14.3758 15.8059C14.4385 15.7878 14.5043 15.7825 14.5691 15.7905C14.634 15.7984 14.6966 15.8194 14.7531 15.8522C14.8096 15.8849 14.8589 15.9288 14.898 15.9811C14.9783 16.0846 15.0145 16.2156 14.9986 16.3456C14.9827 16.4757 14.9159 16.5941 14.813 16.6751C14.076 17.2551 12.928 17.5821 12.007 17.5821C11.072 17.5821 9.937 17.2561 9.201 16.6751ZM17.251 9.08512C17.0523 9.08382 16.8621 9.00445 16.7214 8.86413C16.5807 8.72382 16.5008 8.53382 16.499 8.33512C16.499 7.90912 16.839 7.58313 17.25 7.58313C17.661 7.58313 18.002 7.90913 18.002 8.33413C18.002 8.74413 17.662 9.08412 17.25 9.08412L17.251 9.08512Z" fill="white"/>
</svg>
