<svg width="24" height="25" viewBox="0 0 24 25" fill="none" xmlns="http://www.w3.org/2000/svg">
<path fill-rule="evenodd" clip-rule="evenodd" d="M14.8297 11.3481C14.4625 11.7175 14.0259 12.0106 13.5451 12.2106C13.0642 12.4106 12.5485 12.5136 12.0277 12.5136C11.5069 12.5136 10.9912 12.4106 10.5103 12.2106C10.0295 12.0106 9.59289 11.7175 9.22571 11.3481C8.85635 10.9809 8.56324 10.5444 8.36323 10.0635C8.16321 9.58262 8.06024 9.06694 8.06024 8.54613C8.06024 8.02532 8.16321 7.50965 8.36323 7.02877C8.56324 6.5479 8.85635 6.11132 9.22571 5.74413C9.59282 5.37466 10.0294 5.08144 10.5103 4.88135C10.9912 4.68126 11.5069 4.57825 12.0277 4.57825C12.5486 4.57825 13.0643 4.68126 13.5451 4.88135C14.026 5.08144 14.4626 5.37466 14.8297 5.74413C15.1991 6.11132 15.4922 6.5479 15.6922 7.02877C15.8922 7.50965 15.9952 8.02532 15.9952 8.54613C15.9952 9.06694 15.8922 9.58262 15.6922 10.0635C15.4922 10.5444 15.1991 10.9809 14.8297 11.3481ZM12.0277 6.73313C11.5337 6.73313 11.0857 6.93313 10.7567 7.26313C10.5889 7.42954 10.4557 7.62753 10.3648 7.84567C10.2739 8.06382 10.2271 8.29781 10.2271 8.53413C10.2271 8.77046 10.2739 9.00444 10.3648 9.22259C10.4557 9.44074 10.5889 9.63873 10.7567 9.80513C10.9231 9.97321 11.1211 10.1066 11.3393 10.1977C11.5576 10.2888 11.7917 10.3356 12.0282 10.3356C12.2647 10.3356 12.4988 10.2888 12.7171 10.1977C12.9353 10.1066 13.1334 9.97321 13.2997 9.80513C13.4678 9.63878 13.6012 9.44075 13.6923 9.2225C13.7833 9.00425 13.8302 8.77011 13.8302 8.53363C13.8302 8.29715 13.7833 8.06301 13.6923 7.84477C13.6012 7.62652 13.4678 7.42849 13.2997 7.26213C12.9604 6.92728 12.5044 6.73726 12.0277 6.73213V6.73313ZM16.1957 12.5251L17.3617 14.1151C17.4207 14.1971 17.4087 14.3031 17.3257 14.3621C16.3487 15.1621 15.2067 15.6921 14.0177 15.9751L16.2667 20.3071C16.3257 20.4371 16.2427 20.5781 16.1017 20.5781H13.6997C13.6624 20.5763 13.6264 20.5643 13.5954 20.5435C13.5644 20.5227 13.5396 20.4939 13.5237 20.4601L12.0277 16.8811L10.5207 20.4481C10.5075 20.4838 10.4834 20.5144 10.4518 20.5356C10.4202 20.5568 10.3827 20.5675 10.3447 20.5661H7.94271C7.80171 20.5661 7.71871 20.4131 7.77771 20.2961L10.0267 15.9751C8.81679 15.693 7.68607 15.1417 6.71871 14.3621C6.64771 14.3021 6.62371 14.1851 6.68271 14.1141L7.84871 12.5251C7.91871 12.4311 8.03671 12.4191 8.11871 12.4901C9.21471 13.4201 10.5687 14.0321 12.0167 14.0321C13.4647 14.0321 14.8067 13.4321 15.9137 12.4901C16.0077 12.4201 16.1367 12.4301 16.1957 12.5251Z" fill="white"/>
</svg>
