<svg width="24" height="25" viewBox="0 0 24 25" fill="none" xmlns="http://www.w3.org/2000/svg">
<path fill-rule="evenodd" clip-rule="evenodd" d="M17.8154 13.8781C18.0384 14.9521 18.2584 16.0241 18.4784 17.0961C18.6924 18.1351 18.9054 19.1741 19.1214 20.2141C19.1584 20.3921 18.9734 20.5991 18.7874 20.5251C17.2434 19.9601 15.7244 19.3901 14.2024 18.8191L12.7774 18.2851C12.6495 18.2446 12.538 18.1639 12.4594 18.0551L5.06945 9.15212C5.00245 9.07013 4.98745 8.93712 5.00945 8.83212C5.32145 7.60212 5.72945 6.68912 6.76145 5.81312C7.79945 4.93812 8.77945 4.67812 10.0474 4.58212C10.2034 4.56712 10.2704 4.59612 10.3594 4.71512L11.7104 6.34012C13.6784 8.70712 15.6454 11.0741 17.6074 13.4401C17.7164 13.5641 17.7874 13.7151 17.8154 13.8781ZM6.17545 9.04012C6.86545 7.24512 8.47545 6.03612 10.0104 5.73912L9.82545 5.51612C8.91769 5.57656 8.0534 5.92724 7.36017 6.5164C6.66693 7.10556 6.18147 7.90199 5.97545 8.78812L6.17545 9.04012ZM6.67945 9.64112C7.40645 7.88312 8.78645 6.69612 10.5304 6.37012L11.4204 7.43012C9.88445 7.73512 8.37145 8.95212 7.58445 10.7321L6.67945 9.64112ZM9.36445 9.47812L13.2904 14.1971H13.2884C13.8524 14.8791 13.2744 16.8531 12.9854 17.2381L8.09545 11.3481C8.39869 10.6514 8.82903 10.0173 9.36445 9.47812ZM13.5944 13.9591L9.64745 9.21112C10.3374 8.61013 11.1314 8.20212 11.9244 8.04612L16.6804 13.7661C16.0504 14.2861 14.0394 14.5011 13.5944 13.9591ZM14.0244 14.7831C15.0544 14.9911 16.3444 14.7161 16.9544 14.2571L17.3844 16.3481L17.7344 18.0401C17.3634 18.1961 17.0444 18.4261 16.8214 18.8041L15.2934 18.2401L13.4084 17.5281C13.9284 16.6751 14.0984 15.6061 14.0244 14.7831Z" fill="white"/>
</svg>
