<svg width="24" height="25" viewBox="0 0 24 25" fill="none" xmlns="http://www.w3.org/2000/svg">
<path fill-rule="evenodd" clip-rule="evenodd" d="M19.537 14.2761C19.652 13.7561 19.713 13.2161 19.713 12.6621C19.713 8.50713 16.298 5.13813 12.083 5.13813C11.639 5.13813 11.203 5.17613 10.779 5.24813C10.0725 4.80887 9.25691 4.57673 8.425 4.57813C5.981 4.57813 4 6.53213 4 8.94213C4 9.74713 4.222 10.5021 4.608 11.1491C4.5047 11.6468 4.45276 12.1538 4.453 12.6621C4.453 16.8181 7.869 20.0621 12.083 20.0621C12.56 20.0621 13.027 20.0181 13.48 19.9361C14.103 20.2661 14.815 20.5781 15.572 20.5781C18.016 20.5781 19.997 18.6251 19.997 16.2141C19.9975 15.541 19.8399 14.8772 19.537 14.2761ZM15.563 15.7331C15.269 16.1511 14.838 16.4801 14.27 16.7171C13.703 16.9551 13.031 17.0731 12.254 17.0731C11.321 17.0731 10.552 16.9111 9.946 16.5871C9.52777 16.3634 9.16886 16.0432 8.899 15.6531C8.631 15.2631 8.496 14.8851 8.496 14.5161C8.496 14.3031 8.576 14.1211 8.738 13.9691C8.82038 13.8923 8.91711 13.8326 9.02265 13.7933C9.12819 13.754 9.24046 13.7359 9.353 13.7401C9.53974 13.7345 9.72201 13.7979 9.865 13.9181C10.005 14.0371 10.125 14.2121 10.223 14.4451C10.343 14.7231 10.473 14.9551 10.613 15.1401C10.752 15.3251 10.949 15.4801 11.202 15.6001C11.456 15.7201 11.789 15.7801 12.202 15.7801C12.768 15.7801 13.229 15.6601 13.584 15.4161C13.938 15.1731 14.116 14.8691 14.116 14.5061C14.1209 14.3754 14.0978 14.2452 14.0483 14.1241C13.9988 14.0031 13.924 13.894 13.829 13.8041C13.6166 13.6122 13.3631 13.4713 13.088 13.3921C12.6877 13.272 12.2819 13.1708 11.872 13.0891C11.194 12.9431 10.625 12.7711 10.169 12.5761C9.711 12.3801 9.347 12.1131 9.079 11.7761C8.81 11.4361 8.676 11.0171 8.676 10.5161C8.676 10.0361 8.818 9.61213 9.102 9.24113C9.385 8.86913 9.795 8.58313 10.332 8.38313C10.869 8.18313 11.502 8.08413 12.227 8.08413C12.807 8.08413 13.309 8.15013 13.732 8.28213C14.155 8.41513 14.506 8.59113 14.785 8.81013C15.065 9.03013 15.269 9.26013 15.397 9.50113C15.527 9.74113 15.591 9.97813 15.591 10.2061C15.591 10.4161 15.511 10.6061 15.35 10.7731C15.2729 10.8552 15.1793 10.9201 15.0754 10.9635C14.9715 11.0069 14.8596 11.0279 14.747 11.0251C14.527 11.0251 14.361 10.9751 14.247 10.8741C14.133 10.7731 14.01 10.6081 13.877 10.3791C13.7297 10.081 13.5188 9.81877 13.259 9.61113C13.018 9.42713 12.632 9.33513 12.099 9.33513C11.605 9.33513 11.206 9.43513 10.903 9.63513C10.6 9.83413 10.448 10.0751 10.448 10.3551C10.448 10.5281 10.501 10.6791 10.603 10.8051C10.706 10.9331 10.848 11.0401 11.029 11.1311C11.209 11.2221 11.392 11.2931 11.576 11.3451C11.761 11.3971 12.066 11.4711 12.492 11.5701C12.9798 11.6734 13.4624 11.8002 13.938 11.9501C14.37 12.0881 14.738 12.2571 15.041 12.4531C15.343 12.6511 15.581 12.9031 15.75 13.2051C15.92 13.5071 16.005 13.8781 16.005 14.3161C16.005 14.8411 15.857 15.3141 15.563 15.7331Z" fill="white"/>
</svg>
