<svg width="22" height="22" viewBox="0 0 22 22" fill="none" xmlns="http://www.w3.org/2000/svg">
<path d="M11.8721 2.68311C11.598 1.83886 10.4036 1.83886 10.1286 2.68311L8.73616 6.96761C8.67619 7.15154 8.55957 7.31178 8.40298 7.4254C8.24639 7.53901 8.05788 7.60017 7.86442 7.60011H3.35992C2.47258 7.60011 2.10225 8.73678 2.82091 9.25928L6.46558 11.9066C6.62214 12.0204 6.73866 12.1809 6.79843 12.365C6.8582 12.5491 6.85817 12.7474 6.79833 12.9314L5.40683 17.2159C5.13183 18.0602 6.09891 18.7633 6.81666 18.2408L10.4613 15.5934C10.618 15.4796 10.8067 15.4182 11.0003 15.4182C11.194 15.4182 11.3827 15.4796 11.5393 15.5934L15.184 18.2408C15.9017 18.7633 16.8688 18.0611 16.5938 17.2159L15.2023 12.9314C15.1425 12.7474 15.1425 12.5491 15.2022 12.365C15.262 12.1809 15.3785 12.0204 15.5351 11.9066L19.1797 9.25928C19.8975 8.73678 19.529 7.60011 18.6407 7.60011H14.1353C13.942 7.59997 13.7537 7.53872 13.5973 7.42513C13.4409 7.31153 13.3244 7.15139 13.2645 6.96761L11.8721 2.68311Z" stroke="#B8B8B8" stroke-width="2" stroke-linecap="round" stroke-linejoin="round"/>
</svg>
