<svg width="24" height="25" viewBox="0 0 24 25" fill="none" xmlns="http://www.w3.org/2000/svg">
<path fill-rule="evenodd" clip-rule="evenodd" d="M12.72 8.27812H16.419V11.1351H12.719V15.2371C12.719 16.1651 12.709 16.7001 12.806 16.9631C12.904 17.2251 13.149 17.4971 13.416 17.6531C13.771 17.8661 14.174 17.9731 14.63 17.9731C15.44 17.9731 16.246 17.7091 17.047 17.1831V19.7051C16.364 20.0271 15.745 20.2551 15.19 20.3831C14.6 20.5164 13.9968 20.5818 13.392 20.5781C12.8055 20.59 12.2215 20.4965 11.668 20.3021C11.1415 20.1355 10.653 19.8671 10.23 19.5121C9.831 19.1691 9.557 18.8061 9.404 18.4221C9.25 18.0361 9.174 17.4771 9.174 16.7461V11.1351H7V8.86812C7.628 8.66512 8.357 8.37213 8.804 7.99113C9.254 7.60913 9.613 7.15112 9.884 6.61713C10.156 6.08313 10.343 5.40312 10.444 4.57812H12.72V8.27812Z" fill="white"/>
</svg>
