<svg width="24" height="25" viewBox="0 0 24 25" fill="none" xmlns="http://www.w3.org/2000/svg">
<path fill-rule="evenodd" clip-rule="evenodd" d="M18.4341 16.1522C17.9501 15.7612 17.4321 15.4092 16.9231 15.0502C15.9071 14.3322 14.9781 14.2772 14.2201 15.4302C13.7941 16.0782 13.1991 16.1072 12.5761 15.8222C10.8581 15.0402 9.53208 13.8332 8.75508 12.0792C8.41108 11.3022 8.41508 10.6062 9.22008 10.0572C9.64508 9.76715 10.0741 9.42315 10.0401 8.78916C9.99508 7.96115 7.99708 5.19615 7.20808 4.90415C6.89042 4.78766 6.54174 4.78766 6.22408 4.90415C4.37308 5.52815 3.60608 7.05815 4.34008 8.87015C6.53008 14.2752 10.3831 18.0372 15.6891 20.3332C15.9911 20.4632 16.3271 20.5162 16.4971 20.5632C17.7051 20.5752 19.1201 19.4052 19.5291 18.2452C19.9221 17.1282 19.0921 16.6852 18.4341 16.1522ZM12.4851 5.45815C16.3641 6.05815 18.1531 7.91215 18.6471 11.8382C18.6921 12.2012 18.5571 12.7472 19.0731 12.7572C19.6111 12.7672 19.4811 12.2292 19.4861 11.8672C19.5311 8.16815 16.3231 4.74015 12.5981 4.61415C12.3171 4.65415 11.7351 4.41915 11.6981 5.05215C11.6741 5.47915 12.1641 5.40915 12.4851 5.45815Z" fill="white"/>
<path fill-rule="evenodd" clip-rule="evenodd" d="M13.2441 6.53521C12.8711 6.49021 12.3791 6.31321 12.2911 6.83421C12.2011 7.38021 12.7491 7.32421 13.1021 7.40421C15.4971 7.94221 16.3321 8.81821 16.7261 11.2062C16.7831 11.5552 16.6691 12.0962 17.2581 12.0062C17.6941 11.9402 17.5361 11.4762 17.5731 11.2042C17.5931 8.91121 15.6371 6.82421 13.2441 6.53521Z" fill="white"/>
<path fill-rule="evenodd" clip-rule="evenodd" d="M13.4638 8.41018C13.2148 8.41618 12.9708 8.44318 12.8788 8.71018C12.7418 9.11018 13.0308 9.20618 13.3248 9.25418C14.3078 9.41218 14.8248 9.99418 14.9228 10.9792C14.9498 11.2472 15.1178 11.4632 15.3748 11.4332C15.7308 11.3902 15.7638 11.0722 15.7528 10.7692C15.7698 9.66318 14.5258 8.38418 13.4638 8.41018Z" fill="white"/>
</svg>
