<svg width="24" height="25" viewBox="0 0 24 25" fill="none" xmlns="http://www.w3.org/2000/svg">
<path fill-rule="evenodd" clip-rule="evenodd" d="M18.9199 6.66714L4.74694 12.1331C3.77994 12.5211 3.78494 13.0611 4.57094 13.3011L8.10494 14.4051L9.45794 18.5511C9.62194 19.0051 9.54094 19.1851 10.0179 19.1851C10.3859 19.1851 10.5479 19.0171 10.7539 18.8171C10.8839 18.6901 11.6569 17.9371 12.5209 17.0981L16.1979 19.8151C16.8739 20.1881 17.3629 19.9951 17.5309 19.1871L19.9449 7.81314C20.1919 6.82314 19.5669 6.37314 18.9199 6.66714ZM8.65994 14.1511L16.6269 9.12514C17.0249 8.88314 17.3899 9.01314 17.0899 9.27914L10.2679 15.4341L10.0029 18.2671L8.65994 14.1511Z" fill="white"/>
</svg>
