<svg width="24" height="25" viewBox="0 0 24 25" fill="none" xmlns="http://www.w3.org/2000/svg">
<path fill-rule="evenodd" clip-rule="evenodd" d="M20 8.11711C19.401 8.38262 18.7656 8.55688 18.115 8.63411C18.8003 8.22375 19.3131 7.57838 19.558 6.81811C18.9134 7.20032 18.2083 7.46954 17.473 7.61411C16.9788 7.08605 16.324 6.73597 15.6104 6.61825C14.8968 6.50052 14.1643 6.62175 13.5266 6.96308C12.889 7.30442 12.3819 7.84677 12.0842 8.50589C11.7864 9.16502 11.7146 9.90402 11.88 10.6081C10.5748 10.5427 9.29789 10.2035 8.13225 9.61263C6.9666 9.02171 5.93827 8.19226 5.114 7.17811C4.69297 7.90043 4.56366 8.75626 4.7525 9.57071C4.94134 10.3852 5.43407 11.0968 6.13 11.5601C5.60875 11.5438 5.09894 11.4033 4.643 11.1501V11.1911C4.64338 11.9489 4.90573 12.6832 5.38558 13.2697C5.86544 13.8562 6.5333 14.2587 7.276 14.4091C6.79262 14.5398 6.28586 14.559 5.794 14.4651C6.00361 15.1173 6.41183 15.6877 6.96156 16.0965C7.51129 16.5053 8.17505 16.7321 8.86 16.7451C8.17891 17.2797 7.39908 17.6747 6.56513 17.9076C5.73119 18.1404 4.85952 18.2065 4 18.1021C5.50081 19.0671 7.24774 19.5795 9.032 19.5781C15.07 19.5781 18.372 14.5781 18.372 10.2411C18.372 10.0981 18.368 9.95611 18.362 9.81611C19.0047 9.35132 19.5594 8.77664 20 8.11711Z" fill="white"/>
</svg>
