<svg width="24" height="25" viewBox="0 0 24 25" fill="none" xmlns="http://www.w3.org/2000/svg">
<path fill-rule="evenodd" clip-rule="evenodd" d="M20 12.3721C20 16.6761 16.483 20.1661 12.145 20.1661C10.8181 20.168 9.51233 19.8343 8.349 19.1961L4 20.5781L5.418 16.3961C4.67925 15.184 4.28928 13.7916 4.291 12.3721C4.29 8.06712 7.807 4.57812 12.145 4.57812C16.483 4.57812 20 8.06812 20 12.3721ZM12.145 5.81913C8.504 5.81913 5.542 8.75912 5.542 12.3721C5.54089 13.7542 5.98169 15.1004 6.8 16.2141L5.975 18.6471L8.512 17.8411C9.59092 18.55 10.854 18.9269 12.145 18.9251C15.787 18.9251 18.749 15.9851 18.749 12.3721C18.749 8.75912 15.787 5.81913 12.145 5.81913ZM16.112 14.1671C16.063 14.0871 15.935 14.0391 15.742 13.9441C15.55 13.8491 14.603 13.3861 14.427 13.3231C14.25 13.2591 14.122 13.2271 13.993 13.4181C13.8008 13.6767 13.5973 13.9266 13.383 14.1671C13.271 14.2951 13.159 14.3101 12.967 14.2151C12.774 14.1191 12.154 13.9181 11.418 13.2671C10.9978 12.8815 10.6372 12.4357 10.348 11.9441C10.235 11.7531 10.335 11.6491 10.432 11.5541C10.518 11.4681 10.624 11.3311 10.721 11.2201C10.817 11.1081 10.849 11.0291 10.913 10.9011C10.977 10.7731 10.945 10.6621 10.897 10.5661C10.849 10.4711 10.464 9.53112 10.303 9.14812C10.143 8.76612 9.983 8.83012 9.87 8.83012C9.758 8.83012 9.63 8.81413 9.501 8.81413C9.40367 8.81666 9.30791 8.83919 9.21966 8.8803C9.13141 8.92142 9.05255 8.98024 8.988 9.05313C8.811 9.24313 8.314 9.70612 8.314 10.6461C8.314 11.5861 9.004 12.4941 9.1 12.6221C9.196 12.7491 10.432 14.7411 12.389 15.5061C14.347 16.2701 14.347 16.0161 14.699 15.9831C15.052 15.9521 15.839 15.5221 15.999 15.0751C16.159 14.6291 16.159 14.2461 16.112 14.1671Z" fill="white"/>
</svg>
