<svg width="168" height="19" fill="none" xmlns="http://www.w3.org/2000/svg"><path d="M95.503 8.275c.178-.488.344-.953.518-1.432.088-.244.177-.49.267-.73.048-.127.091-.246.131-.365l.114-.266c.005-.008.02-.014.021-.033.004-.02.016-.02.021-.03l1.19 5.742-3.296.002 1.034-2.888zM77.54 1.135h-3.955c-.189.105-.222.725-.27.949L71.021 12.8c-.27 1.27-.598 2.598-.823 3.876l4.021-.002 3.32-15.54zm.152 11.552l-.724 3.418c.611.196 1.088.387 1.784.526 2.963.594 7.03.35 8.808-2.204.636-.912 1.102-2.267.811-3.65-.53-2.52-3.208-3.139-4.901-4.342-1.813-1.285.327-3.177 4.15-1.93.281.092.62.258.878.322l.698-3.306c-1.656-.41-1.908-.686-3.96-.674-2.38.016-5.077.963-6.145 3.162-.543 1.118-.664 2.644-.01 3.728.576.957 1.486 1.664 2.46 2.164.902.464 2.475 1.11 2.666 1.996.31 1.422-1.648 1.789-2.78 1.754a7.938 7.938 0 01-2.893-.608c-.267-.108-.569-.272-.842-.356zM52.907 1.597c1.104.173 3.589.978 4.285 1.517.564.438.645 1.23.863 2.038.813 3.031 1.56 6.199 2.383 9.222.194.714.456 1.598.59 2.306H65.3l6.499-15.523-4.234-.024-4.156 10.51c-.188-.634-.307-1.503-.433-2.171l-1.24-6.593c-.074-.393-.166-.654-.34-.932-.653-1.04-2.01-.816-3.13-.816-1.755.002-3.513.004-5.269 0l-.089.467zm39.487 15.081c.154-.09.82-2.051.889-2.323h5.093c.127.04.508 2.075.545 2.323l3.733-.002-3.24-15.54-3.485-.003c-.886 0-1.438.576-1.714 1.229l-5.984 14.31 4.163.006z" fill="#00649E"/><path d="M.04 15.359L3.339 1.026s.12-1.02 1.44-1.02c1.318 0 5.456.061 5.456.061s4.197-.42 5.516 2.398c1.32 2.818-.42 6.116-2.698 7.255-2.28 1.141-4.558 1.381-5.697 1.381-1.14 0-1.979-.24-2.339 1.258-.36 1.5-.78 3.238-.78 3.238s-.24.84-1.14.84H.7s-.898-.12-.658-1.078zM6.877 4.145l-.66 2.639s-.3 1.198.78 1.198c1.079 0 3.417 0 4.377-1.737.959-1.74-.3-2.94-1.2-3.12-.898-.18-1.977-.06-1.977-.06s-1.02-.12-1.32 1.08z" fill="#01437D"/><path d="M2.04 17.426l.076-.332h1.743c.899 0 1.138-.838 1.138-.838l.78-3.237c.36-1.5 1.2-1.26 2.34-1.26s3.417-.24 5.696-1.38c2.278-1.14 4.018-4.438 2.699-7.256a.465.465 0 01-.027-.055c.515.35.965.822 1.266 1.464 1.32 2.818-.42 6.117-2.698 7.255-2.28 1.142-4.558 1.38-5.697 1.38-1.14 0-1.979-.238-2.339 1.26-.36 1.5-.78 3.236-.78 3.236s-.24.84-1.14.84H2.7s-.9-.118-.66-1.077z" fill="#0674C1"/><path d="M119.712.14a9.083 9.083 0 019.083 9.082 9.082 9.082 0 01-9.083 9.083 9.08 9.08 0 01-9.081-9.083 9.08 9.08 0 019.081-9.081z" fill="#CC0001"/><path d="M131.944.079a9.082 9.082 0 019.083 9.083 9.082 9.082 0 01-9.083 9.082 9.082 9.082 0 01-9.082-9.082A9.082 9.082 0 01131.944.08z" fill="#FE9900"/><path d="M124.93 3.39h1.744c.254.304.488.622.701.956h-3.133c.209-.334.438-.652.688-.955zm-1.228 1.952h4.225c.146.31.275.629.388.955h-4.99c.107-.326.232-.644.377-.955zm-.643 1.925h5.525c.068.313.12.631.156.955h-5.83c.034-.324.083-.642.149-.955zm.682 5.797h4.204a9.37 9.37 0 01-.519.955h-3.158a9.226 9.226 0 01-.527-.955zm1.216 1.896h1.794c-.273.337-.57.65-.889.944a8.961 8.961 0 01-.905-.943zm-1.88-3.826h5.516a8.833 8.833 0 01-.26.954h-4.988a9.104 9.104 0 01-.268-.954zm-.214-1.92h5.933v.008c0 .32-.017.637-.049.946h-5.828a8.822 8.822 0 01-.056-.954z" fill="#CC0001"/><path d="M41.08 3.133l1.1-.998.998 1.1-1.101.998-.998-1.1zM36.69 0c1.677 0 3.25.445 4.607 1.223l-.839.76L39.177.569l-2.236 2.025-1.25-1.38L31.67 4.86l2.613 2.882-1.023.928 2.57 2.836-1.01.914 3.646 4.022 2.097-1.9 1.863 2.056a9.24 9.24 0 01-5.733 1.98A9.289 9.289 0 0136.69 0zm-.08 12.507l2.143-1.94 1.943 2.143-2.144 1.942-1.942-2.145zm-1.56-3.75l2.143-1.943 1.943 2.143-2.144 1.943-1.942-2.143zm-1.59-3.81l2.144-1.94 1.942 2.143-2.143 1.942-1.943-2.144zm3.936-1.054l1.692-1.535 1.534 1.693-1.692 1.532-1.534-1.69zm1.551 3.333l1.692-1.533 1.534 1.691-1.692 1.535-1.534-1.693zm1.378 3.48l1.692-1.535 1.534 1.693-1.693 1.533-1.533-1.691zm1.493 3.334l1.692-1.532 1.534 1.69-1.692 1.535-1.534-1.693zm2.12-4.384l1.102-.998.998 1.1-1.101.998-.998-1.1zm-1.415-3.205l1.1-.997.999 1.101-1.101.998-.998-1.102z" fill="#037EC4"/><path d="M167.361 11.586a9.216 9.216 0 01-11.172 6.712 9.213 9.213 0 01-6.712-11.17 9.213 9.213 0 0111.17-6.714c4.939 1.232 7.945 6.233 6.714 11.172z" fill="#F7931A"/><path d="M162.483 8.043c.184-1.225-.751-1.885-2.027-2.325l.414-1.663-1.012-.251-.403 1.618a33.04 33.04 0 00-.81-.191l.405-1.63-1.011-.25-.415 1.66c-.22-.05-.437-.1-.646-.151l.001-.005-1.396-.348-.269 1.08s.75.173.734.183c.409.102.484.373.472.588l-.473 1.892a.78.78 0 01.105.034 4.037 4.037 0 00-.106-.027l-.661 2.651c-.051.125-.178.311-.464.241.011.014-.734-.184-.734-.184l-.502 1.158 1.314.328.722.185-.419 1.683 1.012.25.414-1.662c.275.076.544.145.806.21l-.413 1.655 1.012.25.419-1.677c1.725.326 3.021.196 3.567-1.364.44-1.257-.021-1.98-.93-2.454.664-.152 1.161-.585 1.294-1.484zm-2.311 3.241c-.313 1.257-2.429.577-3.113.408l.555-2.228c.685.171 2.884.51 2.558 1.82zm.313-3.259c-.285 1.142-2.045.562-2.616.42l.503-2.02c.571.143 2.41.409 2.113 1.6z" fill="#fff"/></svg>