<svg width="34" height="34" fill="none" xmlns="http://www.w3.org/2000/svg"><g clip-path="url(#clip0_169_7009)"><path fill-rule="evenodd" clip-rule="evenodd" d="M16.7.96c8.837 0 16 7.163 16 16s-7.163 16-16 16-16-7.163-16-16 7.163-16 16-16z" fill="#B8765A"/><path d="M16.756 13.252c1.003 0 1.913.407 2.57 1.064a3.626 3.626 0 011.064 2.57 3.624 3.624 0 01-1.064 2.567l-.003.003a3.623 3.623 0 01-2.567 1.065 3.622 3.622 0 01-2.57-1.065 3.623 3.623 0 01-1.064-2.57c0-1.003.407-1.913 1.065-2.57a3.623 3.623 0 012.569-1.064zm3.81-1.037a.99.99 0 110 1.982.99.99 0 010-1.981zm-7.103-2.307h6.475c1.047 0 2 .429 2.692 1.12l.003.002a3.805 3.805 0 011.12 2.693v6.475c0 1.05-.43 2.003-1.12 2.694l-.002-.002a3.805 3.805 0 01-2.694 1.122h-6.475a3.805 3.805 0 01-2.694-1.12 3.808 3.808 0 01-1.12-2.694v-6.476c0-1.047.43-2.002 1.121-2.693l-.002-.001a3.805 3.805 0 012.696-1.12zm6.475 1.266h-6.475c-.7 0-1.338.287-1.8.749h-.002a2.54 2.54 0 00-.747 1.8v6.475c0 .699.287 1.337.749 1.799.462.461 1.1.749 1.8.749h6.475A2.54 2.54 0 0021.736 22v-.003c.462-.462.75-1.1.75-1.8v-6.474a2.54 2.54 0 00-.747-1.8l-.003-.002a2.536 2.536 0 00-1.8-.747zm-1.686 4.217a2.11 2.11 0 00-1.496-.619c-.584 0-1.113.237-1.495.619-.383.383-.62.911-.62 1.496 0 .584.237 1.113.62 1.495.382.383.911.62 1.495.62.586 0 1.116-.236 1.495-.617l.003-.003c.381-.38.617-.909.617-1.495 0-.585-.236-1.114-.62-1.496z" fill="#FEFEFE"/></g><defs><clipPath id="clip0_169_7009"><path fill="#fff" transform="translate(.2 .46)" d="M0 0h33v33H0z"/></clipPath></defs></svg>