<svg width="34" height="34" fill="none" xmlns="http://www.w3.org/2000/svg"><g clip-path="url(#clip0_169_6986)" fill-rule="evenodd" clip-rule="evenodd"><path d="M16.7.96c8.837 0 16 7.163 16 16s-7.163 16-16 16-16-7.163-16-16 7.163-16 16-16z" fill="#EF1A19"/><path d="M11.031 11.905c3.833-.381 7.617-.341 11.37 0 .866.079 1.405.73 1.58 1.583.48 2.315.485 4.628 0 6.945-.176.851-.715 1.502-1.58 1.582-3.83.35-7.621.37-11.37 0-.866-.086-1.398-.732-1.582-1.582-.492-2.277-.551-4.588 0-6.945.198-.848.716-1.496 1.582-1.583zm4.106 2.904l-.03 4.121 3.881-2.045s-3.881-2.106-3.85-2.076z" fill="#FEFEFE"/></g><defs><clipPath id="clip0_169_6986"><path fill="#fff" transform="translate(.2 .46)" d="M0 0h33v33H0z"/></clipPath></defs></svg>