<svg width="107" height="106" fill="none" xmlns="http://www.w3.org/2000/svg"><g clip-path="url(#clip0_1074_9781)"><path d="M106.5 52.989c0 29.273-23.738 53.01-53.006 53.01C24.221 105.999.5 82.264.5 52.989.5 23.72 24.221 0 53.494 0 82.761 0 106.5 23.72 106.5 52.989z" fill="#687DBE"/><path d="M38.99 38.508c-.373 0-.748.018-1.139.036-3.504.284-6.672 2.134-9.166 4.607L2.992 68.866a52.978 52.978 0 0034.682 34.699l40.91-40.908c2.488-2.492 4.361-5.75 4.361-9.396 0-3.736-1.979-7.067-4.574-9.572-2.619-2.511-5.928-4.347-9.502-4.611-4.059-.305-7.549 1.514-10.34 3.913-.479.43-.945.857-1.39 1.3l-3.897 3.898c-1.53-2.013-3.117-3.968-4.947-5.606-2.439-2.188-5.465-3.896-8.934-4.057-.123-.018-.248-.018-.37-.018z" fill="#A8AD51"/><path d="M39.363 38.52a13.919 13.919 0 00-1.512.019c-3.668.304-6.959 2.297-9.484 4.949-2.529 2.65-4.379 6.082-4.307 9.82.068 3.648 1.992 6.869 4.537 9.324 2.543 2.438 5.781 4.215 9.271 4.467 4.061.285 7.543-1.512 10.34-3.932 1.918-1.654 3.578-3.631 5.156-5.642 1.567 2.045 3.188 4.056 5.06 5.763 2.772 2.512 6.3 4.434 10.407 4.164 3.595-.23 6.937-2.062 9.54-4.591 2.596-2.524 4.573-5.854 4.573-9.607 0-3.736-1.979-7.067-4.574-9.572-2.618-2.511-5.928-4.347-9.502-4.611-4.06-.305-7.549 1.514-10.34 3.913-1.869 1.62-3.485 3.546-5.055 5.499-1.602-2.117-3.258-4.183-5.178-5.907-2.438-2.186-5.463-3.895-8.932-4.056zm-1.066 5.517c2.297-.175 4.162.729 6.314 2.65 1.742 1.566 3.525 3.843 5.32 6.287-1.795 2.309-3.578 4.498-5.334 6.012-2.156 1.867-4.059 2.773-6.318 2.615-1.762-.125-4.109-1.264-5.854-2.953-1.746-1.691-2.828-3.826-2.848-5.45-.037-1.724 1.01-4.054 2.773-5.906 1.763-1.851 4.15-3.095 5.947-3.255zm30.16.535c1.834.142 4.271 1.315 6.07 3.077 1.811 1.743 2.9 3.952 2.9 5.606 0 1.67-1.09 3.898-2.9 5.639-1.8 1.764-4.236 2.939-6.053 3.043-2.277.158-4.199-.783-6.353-2.738-1.709-1.563-3.454-3.791-5.21-6.158 1.756-2.258 3.501-4.396 5.228-5.871 2.156-1.868 4.058-2.758 6.318-2.598z" fill="#fff"/><path d="M2 65.504l28.86-28.795 5.934-1.3 3.88 1.384 4.483 1.633 2.764-4.209 9.642-6.233 7.102.625 5.789 1.733 6.45 6.541 3.52 9.655 6.179 4.298 3.801 7.495-2.751 13.699L53.5 106.248s-17.403 2.59-35.5-13.244c-12-10.5-16-27.5-16-27.5z" fill="#485A91"/><path d="M28.085 76.975h-.028l-.035-.001v.001c-.745-.035-4.022-1.063-6.945-3.516-2.921-2.456-5.673-6.345-5.673-12.121 0-.22.007-.504.024-.851l.002-.043c.21-4.301 1.808-7.394 3.846-9.596 2.603-2.813 5.991-4.133 8.067-4.676-.148-1.426-.075-3.391.69-5.322.73-1.845 2.066-3.684 4.397-5.051 4.34-2.546 9.216-.418 11.712 1.056 1.362-2.934 4.864-8.404 12.55-10.279 4.442-1.083 8.292-.577 11.459.691 4.407 1.766 7.48 5.027 8.984 7.528 1.95 3.237 2.529 8.254 2.696 10.523 3.167.938 11.573 4.429 11.573 15.07 0 5.008-1.536 8.631-3.61 11.192-3.279 4.051-7.977 5.404-10.105 5.404v-.008H60.437v-3.09H77.69v-.005c1.589 0 5.144-1.068 7.732-4.264 1.675-2.068 2.915-5.044 2.915-9.228 0-10.5-10.217-12.322-10.246-12.327a1.542 1.542 0 01-1.253-1.483c0-.02-.16-6.593-2.315-10.171-1.253-2.078-3.81-4.791-7.498-6.268-2.639-1.056-5.863-1.473-9.615-.558-8.486 2.07-10.832 9.232-11.053 9.97a1.54 1.54 0 01-.282.59 1.518 1.518 0 01-2.145.267c-.016-.013-5.62-4.48-9.965-1.931-1.647.965-2.584 2.246-3.09 3.523-.804 2.032-.578 3.998-.338 4.756.087.194.135.411.135.638 0 .856-.687 1.55-1.535 1.55-.566 0-4.632.77-7.632 4.011-1.601 1.732-2.858 4.189-3.02 7.66v.016c-.009.179-.014.417-.014.707 0 4.647 2.211 7.774 4.56 9.746 2.345 1.97 4.647 2.779 5.133 2.8h26.35v3.091H28.085z" fill="#fff"/><path d="M44.404 44.984v8h26v-8h-26zm12.748 5.906H46.751v-3.405h10.401v3.405zm4.74.178a1.714 1.714 0 01-1.72-1.708c0-.944.77-1.708 1.72-1.708.948 0 1.717.765 1.717 1.708 0 .942-.77 1.708-1.718 1.708zm4.565 0c-.95 0-1.72-.765-1.72-1.708 0-.944.77-1.708 1.72-1.708.949 0 1.718.765 1.718 1.708 0 .942-.77 1.708-1.718 1.708zm-22.053 2.916v8h26v-8h-26zm12.748 5.907H46.751v-3.407h10.401v3.407zm4.74.178a1.714 1.714 0 01-1.72-1.709c0-.942.77-1.706 1.72-1.706.948 0 1.717.764 1.717 1.706 0 .944-.77 1.71-1.718 1.71zm4.565 0c-.95 0-1.72-.765-1.72-1.709 0-.942.77-1.706 1.72-1.706.949 0 1.718.764 1.718 1.706 0 .944-.77 1.71-1.718 1.71zm-22.053 3.915v8.035h10.738v5.965H59V72.02h11.404v-8.035h-26zm2.347 5.931v-3.421h10.401v3.421H46.751zm11.243 6.231h-1.845v-2.008h1.845v2.008zm3.897-6.052a1.716 1.716 0 110-3.43 1.716 1.716 0 110 3.43zm4.566 0c-.95 0-1.72-.768-1.72-1.716 0-.947.77-1.714 1.72-1.714a1.716 1.716 0 110 3.43z" fill="#fff"/></g><defs><clipPath id="clip0_1074_9781"><path fill="#fff" transform="translate(.5)" d="M0 0h106v105.999H0z"/></clipPath></defs></svg>