<svg width="107" height="106" fill="none" xmlns="http://www.w3.org/2000/svg"><g clip-path="url(#clip0_101_13216)"><path d="M106.596 53.008c0 29.273-23.738 53.01-53.006 53.01-29.273 0-52.994-23.735-52.994-53.01C.596 23.739 24.316.019 53.59.019c29.267 0 53.006 23.72 53.006 52.989z" fill="#C1C667"/><path d="M42 32.5c1.313-6.524-4.109-.518-4.5-.5-3.504.284-3.006-.473-5.5 2L-.5 51.588C2.5 88 22.5 101.5 45 105l28.393-29.834c2.488-2.492 4.36-5.75 4.36-9.396 0-3.736-1.978-7.067-4.573-9.572-2.62-2.51-5.928-4.347-9.502-4.61-4.06-.306-7.55 1.513-10.34 3.912-.48.43-.945.857-1.391 1.3l1.39-8.594C51.808 46.193 55.83 42.638 54 41c-2.439-2.188-3.031-8.839-6.5-9-.123-.018-4.086-6.525-5.5.5z" fill="#A8AD51"/><path d="M53.834 32.784c-.34-.365-.694-.719-1.083-1.056-2.809-2.379-6.545-3.297-10.206-3.207-3.663.087-7.397 1.204-9.989 3.899-2.531 2.627-3.449 6.265-3.385 9.8.074 3.523 1.107 7.069 3.397 9.715 2.67 3.073 6.403 4.265 10.092 4.531 2.526.187 5.097-.037 7.635-.343-.338 2.554-.614 5.122-.497 7.653.184 3.736 1.319 7.589 4.414 10.303 2.705 2.38 6.364 3.447 9.992 3.499 3.621.051 7.374-.906 10.027-3.56 2.642-2.641 3.598-6.396 3.535-10.002-.076-3.627-1.118-7.266-3.459-9.98-2.655-3.086-6.408-4.267-10.078-4.544-2.468-.175-4.972.043-7.463.314.364-2.63.654-5.262.515-7.838-.178-3.27-1.108-6.618-3.447-9.184zm-4.655 3.147c1.748 1.5 2.427 3.459 2.59 6.34.125 2.338-.224 5.209-.683 8.206-2.902.363-5.71.65-8.023.48-2.845-.205-4.831-.91-6.317-2.619-1.157-1.334-2.011-3.8-2.051-6.227-.039-2.43.706-4.706 1.84-5.867 1.193-1.246 3.58-2.154 6.137-2.216 2.555-.063 5.123.745 6.507 1.903zm20.948 21.705c1.196 1.397 2.09 3.95 2.116 6.468.048 2.513-.744 4.845-1.913 6.014-1.181 1.181-3.527 1.986-6.038 1.937-2.521-.026-5.074-.917-6.432-2.128-1.722-1.499-2.416-3.523-2.556-6.429-.104-2.313.238-5.123.67-8.039 2.838-.354 5.584-.632 7.848-.454 2.846.204 4.82.92 6.305 2.63z" fill="#fff"/></g><defs><clipPath id="clip0_101_13216"><path fill="#fff" transform="translate(.5)" d="M0 0h106v106H0z"/></clipPath></defs></svg>