<svg width="107" height="106" fill="none" xmlns="http://www.w3.org/2000/svg"><g clip-path="url(#clip0_101_13260)"><path d="M106.533 53.037c0 29.273-23.734 53.012-53.006 53.012-29.275 0-52.994-23.738-52.994-53.012C.533 23.767 24.253.046 53.527.046c29.272 0 53.006 23.72 53.006 52.99z" fill="#FDAC6B"/><path d="M31.55 40.366c-1.407 0-2.655.305-3.776.908-.6.322-1.14.713-1.6 1.176L2.258 66.367C6.795 83.754 19.82 97.666 36.867 103.31l40.539-40.54 5.424-17.297a5.15 5.15 0 00.148-1.244c0-2.313-1.515-3.471-4.525-3.471H68.367l-.678.678.336-1.031h-2.81L55.057 50.548v-1.314h-4.685l-3.912 3.913 7.066-12.388H48.33L31.424 57.666h-.217l4.295-4.271a29.221 29.221 0 001.42-1.498c.514-.568.924-1.244 1.268-2.03.334-.78.512-1.687.512-2.716 0-1.285-.305-2.441-.922-3.473-.607-1.035-1.465-1.848-2.547-2.438-1.087-.585-2.317-.874-3.682-.874z" fill="#E3924F"/><path d="M31.551 40.366c-1.408 0-2.656.305-3.777.908a6.831 6.831 0 00-2.63 2.492c-.622 1.068-.927 2.26-.927 3.576 0 1.139.23 2.172.711 3.078.48.908 1.23 1.745 2.246 2.513l3.396-3.597c-.818-.641-1.229-1.352-1.229-2.117 0-.568.197-1.03.588-1.402.391-.395.855-.59 1.406-.59.62 0 1.12.195 1.514.568.393.375.588.834.588 1.387 0 .643-.305 1.283-.912 1.922l-6.639 7.067c-1.205 1.3-1.813 2.527-1.813 3.699 0 1.938 1.086 2.899 3.258 2.899h11.727v-5.104h-7.973l3.49-3.363c1.047-1.033 1.83-1.834 2.346-2.406a7.703 7.703 0 001.268-2.03c.334-.78.512-1.687.512-2.716 0-1.285-.305-2.441-.922-3.473-.607-1.035-1.465-1.848-2.547-2.438-1.086-.568-2.316-.873-3.68-.873zm33.666.039L57.205 65.71h2.8l8.02-25.306h-2.808zm-16.887.354l-6.303 11.35c-.514.895-.766 1.786-.766 2.69 0 1.086.375 1.94 1.121 2.582.734.64 1.746.965 3.043.965h4.947v4.426h4.685v-4.426h2.506v-4.984h-2.506v-4.128h-4.685v4.288h-4.127l7.281-12.763H48.33zm20.037 0v5.02h8.986L71.55 62.77h5.854l5.425-17.297c.092-.373.147-.783.147-1.244 0-2.313-1.514-3.471-4.524-3.471H68.367z" fill="#fff"/></g><defs><clipPath id="clip0_101_13260"><path fill="#fff" transform="translate(.5)" d="M0 0h106v106H0z"/></clipPath></defs></svg>