<svg width="107" height="106" fill="none" xmlns="http://www.w3.org/2000/svg"><g clip-path="url(#clip0_101_13303)"><path d="M106.686 53.076c0 29.271-23.735 53.01-53.007 53.01-29.274 0-52.992-23.738-52.992-53.01C.687 23.805 24.405.085 53.679.085c29.27 0 53.007 23.721 53.007 52.991z" fill="#52CCAC"/><path d="M57.271 21.565a13.088 13.088 0 00-1.834.088c-2.132.213-3.253.426-3.58.747l-1.723 1.727c-1.348-.412-3.131-.607-5.283-.607-2.242 0-4.803-.263-5.732-.587-1.121-.392-1.867-.357-2.205-.019L1.042 58.787c2.92 26.891 25.605 47.264 52.637 47.299.301-.018.605-.018.904-.035l25.037-25.02a14.867 14.867 0 002.526-3.453c1.373-2.615 1.281-8.346-.155-11.064-2.957-5.553-9.187-8.149-15.197-6.354-1.567.481-3.582 1.887-5.198 3.508l-6.354 6.351c.034-.334.09-.675.163-1.011l12.275-12.28c.32-.318.252-.906.074-2.349-.465-4.021-2.975-8.203-7.85-13.132-2.418-2.474-4.771-5.039-5.217-5.694-.531-.838-.87-1.103-2.987-1.174l2.101-2.101.887-1.494c.056-.105.127-.214.215-.32l4.22-4.217c2.74-2.764 1.977-4.651-1.852-4.682z" fill="#49AD92"/><path d="M66.486 84.166c-2.4-.801-6.262-4.38-7.385-6.816-1.242-2.74-1.242-7.598 0-10.338 1.193-2.615 5.058-6.051 7.69-6.854 6.013-1.795 12.24.803 15.198 6.355 1.438 2.719 1.529 8.448.156 11.063-1.334 2.549-3.328 4.557-5.711 5.787-2.402 1.227-7.472 1.637-9.948.803zm5.554-7.352v-2.85h3.1c3.074 0 3.074 0 3.074-1.511 0-1.496-.05-1.515-2.952-1.674l-2.951-.158-.164-2.951c-.16-2.901-.18-2.96-1.672-2.96-1.513 0-1.513 0-1.513 3.083v3.097h-2.85c-2.792 0-2.826.02-2.826 1.545 0 1.53.034 1.53 2.827 1.53h2.849v2.849c0 2.795 0 2.832 1.53 2.832 1.529 0 1.548-.037 1.548-2.832zm-30.625.942c-6.973-.711-15.105-2.736-16.494-4.127-1.14-1.14-.961-1.58 1.314-3.006 1.16-.73 2.279-1.832 2.512-2.438l.41-1.121.607 1.139c.334.625 1.279 1.479 2.1 1.904l1.475.766-1.727-2.865c-1.96-3.258-2.564-6.424-2.545-13.078.016-7.121 2.777-11.994 10.107-17.832l3.47-2.78h5.624c5.354 0 5.673.075 6.42 1.232.448.656 2.8 3.22 5.232 5.694 4.858 4.929 7.369 9.11 7.834 13.132.3 2.438.28 2.455-1.407 2.793-2.474.496-6.406 3.205-8.187 5.604-2.334 3.188-3.277 6.588-2.99 10.75.216 2.934.125 3.56-.567 3.756-1.298.356-10.91.709-13.188.477zm8.493-13.305c0-.785.28-1.285.744-1.285 1.244 0 3.362-2.223 3.683-3.896.394-2.1-1.515-4.393-4.661-5.604-3.95-1.496-2.436-4.074 1.688-2.88 1.479.423 1.656.355 1.96-.84.375-1.458-.392-2.206-2.26-2.222-.82 0-1.153-.305-1.153-1.032 0-.77-.344-1.03-1.287-1.03-.924 0-1.297.282-1.297.975 0 .568-.73 1.407-1.746 2.012-2.188 1.299-2.865 3.65-1.6 5.568.48.732 2.12 1.87 3.65 2.548 2.027.903 2.793 1.512 2.793 2.258 0 1.354-2.12 1.887-4.54 1.139-2.151-.656-1.974-.73-2.417 1.053-.322 1.225-.182 1.44 1.12 1.729 2.524.55 2.739.69 2.739 1.757 0 .766.336 1.053 1.297 1.053 1.016-.006 1.287-.272 1.287-1.303zM42.18 30.48c-.605-.998-1.867-2.442-2.791-3.221-3.451-2.903-3.596-5.485-.27-4.328.93.324 3.49.587 5.732.587 4.339 0 7.166.838 8.078 2.407.479.834.55.777.57-.448 0-.838-.43-1.69-1.072-2.135-1.365-.963-.766-1.3 3.009-1.69 5.857-.625 7.066 1.812 2.705 5.459-1.42 1.195-2.971 2.83-3.453 3.669l-.887 1.494H43.3l-1.12-1.794z" fill="#fff"/></g><defs><clipPath id="clip0_101_13303"><path fill="#fff" transform="translate(.5)" d="M0 0h106v106H0z"/></clipPath></defs></svg>