<svg width="106" height="106" fill="none" xmlns="http://www.w3.org/2000/svg"><g clip-path="url(#clip0_227_31240)"><path d="M53.154 0c29.271 0 53 23.728 53 52.998 0 29.271-23.729 53-53 53-29.27 0-53-23.729-53-53C.154 23.729 23.884 0 53.154 0z" fill="#DB6D68"/><path d="M51.672 17.535l2.021 9.059 4.123-3.92 11.018 11.729-8.297 8.434 7.73 18.863-5.044 4.97 1.918 1.528-8.945 8.889 24.298-3.435-32.129 32.13c-23.09-2.07-41.914-18.945-46.906-41.064l-.019-.086L38.08 27.99l4.11-.854 9.482-9.601z" fill="#C95F5B"/><path d="M74.064 69.717c-8.313 5.158-11.016 6.768-18.18 3.902-7.16-2.873-9.186-3.674-8.434-5.512 1.188-2.879 8.832.373 12.479 1.194 6.11 1.4 8.996-5.297 1.063-7.25-7.934-1.954-10.432-3.319-16.682-2.471-8.313 1.151-20.502 10.875-20.502 10.875l8.189 12.221s4.709-1.608 9.86-1.608c5.167 0 10.04 3.426 17.214 3.426 8.889 0 14.633-6.283 19.293-9.045 6.297-3.73 4.012-10.883-4.3-5.732zM68.93 44.316c-2.173-1.88-5.526-3.307-10.065-4.29l-.788-.177V50.2c.565.25 1.036.537 1.397.857.769.705 1.162 1.592 1.162 2.675 0 1.346-.46 2.346-1.404 2.983-.317.228-.696.39-1.076.545 1.185.322 2.425.66 3.77.99 2.89.713 4.903 1.983 6.159 3.498a13.334 13.334 0 002.978-4.1 12.17 12.17 0 001.135-5.189c-.004-3.539-1.095-6.257-3.267-8.143zm-31.734 9.82h-1.057v4.005c1.934-.877 3.838-1.59 5.619-2.039-2.142-.73-3.667-1.397-4.562-1.967zm30.493-19.659h1.047v-9.402c-1.352-.59-3.284-1.135-5.836-1.648a47.907 47.907 0 00-4.823-.734v8.597c1.608.19 3.09.465 4.413.87a21.13 21.13 0 015.199 2.317zm-32.385.647c0 2.247.346 4.074 1.037 5.506a10.58 10.58 0 002.809 3.64 14.413 14.413 0 004.119 2.415 38.062 38.062 0 004.797 1.496l.803.201V38.064c-.654-.266-1.125-.562-1.385-.875-.525-.61-.783-1.383-.783-2.318 0-1.157.44-2.042 1.328-2.648.266-.177.566-.28.838-.416l.002-8.883c-3.93.625-7.131 1.88-9.463 3.86-2.735 2.305-4.102 5.077-4.102 8.34zm16.123 20.585V17.665h4.098v38.894c-1.378-.35-2.717-.647-4.098-.85z" fill="#fff"/></g><defs><clipPath id="clip0_227_31240"><path fill="#fff" d="M0 0h106v106H0z"/></clipPath></defs></svg>