<svg width="106" height="106" fill="none" xmlns="http://www.w3.org/2000/svg"><g clip-path="url(#clip0_227_31249)"><path d="M53.08.064c29.271 0 53 23.729 53 53s-23.729 53-53 53c-29.27 0-53-23.729-53-53s23.73-53 53-53z" fill="#E79A60"/><path d="M32.624 26.957l4.629-4.59 1.654 5.082 4.943-4.994 1.744 5.043 4.998-4.977 1.306 5.45 5.618-5.66 1.104 5.763 5.694-5.682 2.498 6.5 2.607-2.582 3.258 1.332.715 53.098-25.102 25.106C23.069 103.588 2.938 83.664.36 58.537l-.023-.256-.04-.426L31.22 26.937l1.404.02z" fill="#D2884D"/><path d="M45.522 30.543c1.176 0 2.143-.957 2.143-2.125v-4.596a2.142 2.142 0 00-2.143-2.143 2.13 2.13 0 00-2.117 2.143v4.596c0 1.168.96 2.125 2.117 2.125zm14.226 55.764l-10.28.031-.065-4.105s-6.66-8.485-6.66-10.01c0-6.945.38-9.391 2.674-9.391 3.088 0 2.03 7.344 2.03 7.344 0-.004-.093-10.346-.093-13.283 0-6.397 5.878-6.494 5.878 0v6.568s10.17 1.807 10.17 8.523c0 4.365-3.613 10.358-3.613 10.358l-.04 3.965zm-21.29-41.155h27.687v-3.25H38.458v3.25zm30.58 29.328a2.138 2.138 0 01-2.128 2.131h-1.947a31.116 31.116 0 01-2.094 4.957h8.916a2.126 2.126 0 002.131-2.131v-51.02a2.126 2.126 0 00-2.13-2.137H69.39v2.137a3.53 3.53 0 01-3.543 3.527 3.53 3.53 0 01-3.386-2.543 3.546 3.546 0 01-3.392 2.543c-1.62 0-2.952-1.078-3.389-2.543-.434 1.465-1.783 2.543-3.378 2.543a3.519 3.519 0 01-3.38-2.543 3.551 3.551 0 01-3.402 2.543c-1.605 0-2.947-1.078-3.385-2.543a3.511 3.511 0 01-3.373 2.543 3.526 3.526 0 01-3.545-3.527V26.28h-2.412c-1.162 0-2.11.955-2.11 2.137v51.021c0 1.174.948 2.131 2.11 2.131h13.037c-1.094-1.41-2.453-3.224-3.549-4.957h-4.6a2.125 2.125 0 01-2.125-2.129V36.908c0-1.168.947-2.111 2.125-2.111H66.91c1.164 0 2.127.943 2.127 2.111V74.48zm-30.58-20.546h6.832c.63-1.555 1.646-2.639 2.818-3.251h-9.65v3.251zm17.22 0h10.467v-3.251h-13.26c1.16.61 2.168 1.696 2.793 3.251zm-17.22 8.761h3.096c.641-1.193 1.61-2.092 3.068-2.422l-.004-.806h-6.16v3.228zm21.065 0h6.621v-3.228h-9.802v1.875c1.047.304 2.135.763 3.181 1.353zm-21.065 8.782h1.852c-.006-.971-.018-2.094.04-3.244h-1.892v3.244zm27.37 0h.316v-3.244h-1.142a8.275 8.275 0 01.826 3.244zm.02-40.934c1.17 0 2.115-.957 2.115-2.125v-4.596a2.122 2.122 0 00-2.115-2.143 2.126 2.126 0 00-2.125 2.143v4.596c0 1.168.95 2.125 2.125 2.125zm-27.084 0a2.127 2.127 0 002.117-2.125v-4.596a2.126 2.126 0 00-2.117-2.143 2.131 2.131 0 00-2.133 2.143v4.596c0 1.168.955 2.125 2.133 2.125zm20.308 0a2.137 2.137 0 002.131-2.125v-4.596a2.137 2.137 0 00-2.13-2.143 2.126 2.126 0 00-2.126 2.143v4.596c0 1.168.95 2.125 2.125 2.125zm-6.767 0a2.133 2.133 0 002.115-2.125v-4.596c0-1.193-.96-2.143-2.115-2.143a2.13 2.13 0 00-2.123 2.143v4.596c0 1.168.957 2.125 2.123 2.125z" fill="#fff"/></g><defs><clipPath id="clip0_227_31249"><path fill="#fff" d="M0 0h106v106H0z"/></clipPath></defs></svg>