<svg width="41" height="29" fill="none" xmlns="http://www.w3.org/2000/svg"><rect x=".487" y=".214" width="40" height="28.571" rx="4" fill="#fff"/><mask id="a" style="mask-type:luminance" maskUnits="userSpaceOnUse" x="0" y="0" width="41" height="29"><rect x=".487" y=".214" width="40" height="28.571" rx="4" fill="#fff"/></mask><g mask="url(#a)"><path fill-rule="evenodd" clip-rule="evenodd" d="M.487 7.833h40V.214h-40v7.62zm0 20.952h40v-7.619h-40v7.62z" fill="#DD172C"/><path fill-rule="evenodd" clip-rule="evenodd" d="M.487 21.167h40V7.833h-40v13.334z" fill="#FFD133"/><path fill-rule="evenodd" clip-rule="evenodd" d="M10.964 13.548h1.905v.952h-1.905v-.952z" fill="#FFEDB1"/><path d="M10.032 13.262h1.864c.39 0 .696.333.664.722l-.198 2.372a1.403 1.403 0 01-2.797 0l-.198-2.372a.667.667 0 01.665-.722z" stroke="#A41517" stroke-width="1.333"/><path fill-rule="evenodd" clip-rule="evenodd" d="M9.059 14.5h3.81v.952h-.953l-.953 1.905-.952-1.905h-.952V14.5z" fill="#A41517"/><rect x="6.201" y="11.643" width="1.905" height="6.667" rx=".952" fill="#A41517"/><rect x="13.82" y="11.643" width="1.905" height="6.667" rx=".952" fill="#A41517"/><path fill-rule="evenodd" clip-rule="evenodd" d="M9.059 11.262c0-.841.682-1.524 1.523-1.524h.762c.842 0 1.524.683 1.524 1.524a.38.38 0 01-.38.381H9.44a.38.38 0 01-.381-.38z" fill="#A41517"/></g></svg>