<svg width="71" height="52" fill="none" xmlns="http://www.w3.org/2000/svg"><path d="M-15.043 50.334L27.32 7.592l4.178-.92 2.732.979 3.158 1.155 1.946-2.977 6.79-4.407 5.001.442 4.077 1.226 4.543 4.625 2.478 6.827 4.351 3.039 2.677 5.299-1.937 9.686-21.049 21.181H23.971c-7.836 0-23.084.57-33.325 0-2.316-.568-4.551-1.706-5.689-3.413z" fill="#485A91"/><path d="M25.48 35.555h-.02l-.024-.001v.001c-.525-.024-2.834-.741-4.894-2.452-2.059-1.712-3.997-4.424-3.997-8.452 0-.153.005-.35.017-.593l.001-.03c.148-3 1.274-5.155 2.71-6.691 1.834-1.961 4.221-2.882 5.684-3.26-.104-.995-.053-2.365.485-3.712.515-1.286 1.457-2.568 3.1-3.521 3.057-1.776 6.493-.292 8.251.736.96-2.046 3.427-5.86 8.843-7.167 3.13-.756 5.843-.403 8.074.482 3.106 1.23 5.27 3.505 6.33 5.249 1.375 2.256 1.782 5.755 1.9 7.337 2.231.654 8.155 3.088 8.155 10.508 0 3.492-1.083 6.018-2.544 7.804-2.31 2.825-5.62 3.768-7.12 3.768v-.005H48.275V33.4h12.157v-.004c1.12 0 3.624-.744 5.448-2.973 1.18-1.442 2.053-3.517 2.053-6.434 0-7.322-7.199-8.592-7.22-8.595a1.079 1.079 0 01-.882-1.035c0-.013-.113-4.597-1.631-7.092-.883-1.449-2.685-3.34-5.283-4.37-1.86-.736-4.131-1.027-6.775-.39-5.98 1.444-7.632 6.438-7.788 6.953a1.077 1.077 0 01-1.71.597c-.011-.009-3.96-3.124-7.021-1.347-1.16.673-1.82 1.566-2.178 2.457-.566 1.417-.407 2.788-.238 3.316a1.081 1.081 0 01-.986 1.526c-.399 0-3.264.537-5.378 2.797-1.128 1.207-2.013 2.92-2.127 5.34v.012c-.007.125-.01.29-.01.493 0 3.24 1.558 5.42 3.212 6.796 1.653 1.374 3.275 1.938 3.617 1.953h18.567v2.155H25.48z" fill="#fff"/><path d="M37.19 13.14v5.723h18.474V13.14H37.19zm9.058 4.225h-7.391v-2.436h7.39v2.436zm3.367.127a1.222 1.222 0 11.002-2.443 1.222 1.222 0 01-.002 2.443zm3.244 0a1.222 1.222 0 110-2.444 1.222 1.222 0 010 2.444zM37.19 19.809v5.721h18.474v-5.72H37.19zm9.058 4.224h-7.391v-2.437h7.39v2.437zm3.367.127a1.222 1.222 0 11.002-2.443 1.222 1.222 0 01-.002 2.443zm3.244 0a1.222 1.222 0 110-2.444 1.222 1.222 0 010 2.444zM37.19 26.477v5.721h7.63v4.248h2.741v-4.248h8.103v-5.72H37.19zm1.667 4.223v-2.436h7.39V30.7h-7.39zm7.989 4.437h-1.31v-1.43h1.31v1.43zm2.77-4.31a1.221 1.221 0 110-2.442 1.221 1.221 0 010 2.443zm3.243 0a1.222 1.222 0 110-2.443 1.222 1.222 0 010 2.444z" fill="#fff"/></svg>