<svg width="64" height="65" fill="none" xmlns="http://www.w3.org/2000/svg"><path d="M15.288.023h33.424C57.121.023 64 6.903 64 15.31v33.424c0 8.408-6.88 15.288-15.288 15.288H15.288C6.879 64.023 0 57.143 0 48.735V15.31C0 6.902 6.88.023 15.288.023z" fill="#687DBE"/><path d="M0 41.69l18.23-18.23 3.673-.809 2.401.86 2.775 1.015 1.71-2.616 5.967-3.873 4.396.389 3.583 1.077 3.992 4.064 2.178 6 3.824 2.671 2.353 4.657-1.703 8.513-18.498 18.615H15.288C6.879 64.023 0 57.143 0 48.735V41.69z" fill="#485A91"/><path d="M16.614 48.034h-.039c-.461-.021-2.49-.651-4.3-2.155-1.81-1.504-3.513-3.888-3.513-7.427 0-.135.004-.309.015-.522v-.026c.13-2.636 1.12-4.531 2.382-5.88 1.612-1.724 3.71-2.533 4.996-2.866-.092-.874-.047-2.078.426-3.262.453-1.13 1.28-2.257 2.724-3.095 2.687-1.56 5.707-.256 7.252.648.844-1.799 3.012-5.15 7.772-6.3 2.75-.663 5.135-.353 7.095.424 2.73 1.082 4.632 3.08 5.564 4.613 1.208 1.984 1.566 5.058 1.669 6.449 1.961.575 7.167 2.714 7.167 9.235 0 3.069-.951 5.289-2.236 6.858-2.03 2.483-4.94 3.312-6.257 3.312v-.005H36.647v-1.893h10.685v-.004c.983 0 3.185-.654 4.788-2.613 1.036-1.267 1.804-3.09 1.804-5.655 0-6.435-6.326-7.55-6.345-7.554a.948.948 0 01-.775-.909c0-.012-.1-4.04-1.434-6.233-.776-1.273-2.36-2.935-4.643-3.84-1.634-.647-3.63-.903-5.954-.342-5.255 1.268-6.708 5.657-6.844 6.11a.946.946 0 01-1.503.525c-.01-.009-3.48-2.746-6.17-1.184-1.02.591-1.6 1.376-1.915 2.16-.497 1.244-.357 2.449-.209 2.913a.95.95 0 01-.867 1.341c-.35 0-2.868.472-4.726 2.458-.991 1.062-1.769 2.567-1.87 4.694v.01a8.97 8.97 0 00-.008.433c0 2.848 1.37 4.764 2.823 5.973 1.453 1.207 2.878 1.703 3.179 1.716H32.98v1.894H16.614z" fill="#fff"/><path d="M26.904 28.336v5.029h16.237v-5.03H26.904zm7.961 3.712H28.37v-2.14h6.495v2.14zm2.96.112a1.074 1.074 0 11.001-2.147 1.074 1.074 0 01-.001 2.147zm2.85 0a1.074 1.074 0 110-2.148 1.074 1.074 0 010 2.148zm-13.771 2.036v5.028h16.237v-5.028H26.904zm7.961 3.712H28.37v-2.141h6.495v2.141zm2.96.112a1.074 1.074 0 11.001-2.147 1.074 1.074 0 01-.001 2.147zm2.85 0a1.074 1.074 0 110-2.148 1.074 1.074 0 010 2.148zm-13.771 2.037v5.027h6.706v3.733h2.41v-3.733h7.121v-5.027H26.904zm1.466 3.711v-2.141h6.495v2.141H28.37zm7.02 3.9h-1.15V46.41h1.152v1.257zm2.435-3.788a1.073 1.073 0 110-2.147 1.073 1.073 0 010 2.147zm2.85 0a1.074 1.074 0 110-2.147 1.074 1.074 0 010 2.147z" fill="#fff"/></svg>