<svg width="31" height="25" fill="none" xmlns="http://www.w3.org/2000/svg"><path fill-rule="evenodd" clip-rule="evenodd" d="M24.44 15.358c-.618 0-1.205-.152-1.473-.578-.398-.632-.34-1.857-.34-2.647 0-1.022.03-1.922.868-2.259.793-.316 2.084-.242 2.428.631.049.122.093.303.12.437.032.16.063.318.079.505.068.772.025.932.026 1.611.002.404-.05 1.202-.204 1.516-.143.288-.266.443-.56.581a2.615 2.615 0 01-.943.203zM.834 17.77c.04.04-.001.048.187.045l3.227-.002h3.441v-2.617H6.115V9.781h1.573V7.138l-6.75-.003c-.15.016-.054-.008-.105.046V9.78H2.38v5.418H.833v2.574zM14.785 5.05c-.441.102-1.515-.064-1.99-.144-.168-.028-.4-.092-.546-.094 0-.27.152-.43.334-.728.125-.21.237-.382.372-.582l.606-.826c.058-.076.191-.223.21-.294.043.022.915.13 1.014.132l.027 1.348c-.002.427-.027.76-.027 1.188zm-.21-4.545a12.514 12.514 0 00-3.235.552l-.708.248c-1.898.758-3.148 1.607-4.576 3.077l-.225.253c-.216.256-.972 1.186-1.021 1.393h.507c.048-.09.108-.164.171-.254.068-.092.12-.147.187-.237l.397-.48c.35-.366.387-.456.838-.886.06-.057.733-.645.814-.679.08-.033.063-.02.144.034.347.23.734.43 1.104.626-.04.147-1.19 1.408-1.307 1.903.634 0 .36.105.984-.717l.57-.703c.098-.098.14-.117.208-.244l1.503.545c.174.057.354.13.522.168-.026.313-.34.655-.345.925.101.003.126.032.235.025.085-.007.116-.025.244-.025.034-.149.346-.7.374-.819.35.165 2.291.343 2.8.343.204.42-.225.475.4.475.072 0 .074-.014.134-.027v-.424l1.441-.13c.237-.027.462-.065.672-.098.133-.024.217-.038.337-.063.399-.083.293-.144.518.335.066.141.137.275.204.405h.481c-.088-.374-.34-.666-.347-.95.053-.026.187-.058.244-.077.406-.128 1.443-.475 1.784-.638.05.075.112.125.18.192l.994 1.262c.168.252.074.211.508.211.072 0 .073-.013.134-.026l-.784-1.18c-.099-.13-.523-.564-.523-.67 0-.08.043-.075.103-.11l1.017-.577c.122 0 .103.017.228.117.67.53 1.525 1.362 1.994 2.038.094.136.181.24.258.382.236 0 .35.06.532-.028-.163-.309-.582-.81-.812-1.098l-.449-.508c-.34-.333-.5-.51-.853-.82-.73-.64-1.523-1.231-2.404-1.663-1.204-.591-2.184-.98-3.58-1.21A13.833 13.833 0 0015.451.5h-.876v.005zm.69 3.277l.027-1.27c.327 0 .606-.104.934-.104.114 0 1.107 1.505 1.233 1.712.078.131.33.536.34.666-.224.006-1.197.292-2.507.292-.001-.464-.027-.834-.027-1.296zm-3.522.87c.028-.115.293-.542.358-.648.132-.215.232-.401.372-.61l.718-1.005c.067-.087.045-.051.045-.194-.685-.157-.334-.514-1.403.197-.413.274-1.318.922-1.697 1.304-.17.17-.26.191-.26.325.001.077 1.622.631 1.867.631zm5.016-2.457c.284-.023.525-.317.759-.224.103.04.17.076.256.12.366.189 1.2.751 1.512 1.01.073.063.13.108.201.171.075.067.112.087.187.159l.387.355c.088.085.137.09.141.232-.115.009-1.402.608-1.868.608l-.768-1.221c-.24-.354-.456-.695-.719-1.034-.051-.06-.076-.081-.088-.176zM9.343 3.783c-.222-.052-.732-.383-.997-.519-.244-.125-.124-.176.272-.438.153-.1.304-.196.46-.283a12.894 12.894 0 012.029-.924l.404-.154c.22-.053.356-.076.516.109.058.067.036.03.036.149l-1.433.958-1.287 1.102zm8.642-2.142c.027-.093.09-.134.164-.182.11-.072.13-.051.275-.015.187.05.388.108.551.168.67.242 1.36.554 1.962.91.095.057.862.48.862.6 0 .087-.41.28-.498.327-.836.452-.458.337-1.065-.126l-.483-.42c-.582-.485-.79-.61-1.406-1.011-.107-.072-.304-.166-.362-.251zm-5.52-.395c.123-.083.376-.11.552-.14 1.306-.213 2.645-.237 3.95-.013.098.019.52.09.592.125-.01.117-.028.105-.196.204-1.315.765-3.085.838-4.455.15-.162-.081-.363-.174-.444-.326zm2.666 21.67c.223 0 .52.03.735.064 1.156.175 1.665.64 1.799.676v.105c-.16.015-.718.147-1.044.18-1.224.132-2.296.128-3.514-.078-.16-.027-.378-.089-.537-.102.003-.116-.047-.083.199-.226.306-.18.523-.272.886-.392.215-.071.445-.122.692-.16a5.8 5.8 0 01.784-.067zm-.031 1.585l.913-.05c2.196-.167 4.095-.81 5.9-2.004a11.33 11.33 0 001.64-1.334c.34-.335.645-.648.945-1.021.149-.184.78-.98.824-1.166h-.51c-.102.196-.723.966-.926 1.195l-1.08 1.068-.236.191c-.194.158-.182.118-.541-.092l-.842-.46c.003-.163.05-.168.142-.258l.53-.663c.112-.153.598-.842.636-.982h-.508c-.326.48-.57.806-.93 1.244-.033.041-.053.057-.087.098l-.264.294-1.503-.545c-.175-.057-.354-.13-.523-.167.014-.17.26-.558.347-.926h-.455l-.41.815c-.294-.14-2.453-.366-2.817-.366v-.211c0-.133-.025-.118-.027-.238h-.455c0 .513.052.478-.293.475-.375-.004-1.713.183-2.144.254-.131.022-.253.055-.363.064-.145-.271-.28-.546-.427-.82h-.453c.012.151.115.363.177.485.051.1.186.357.197.466l-1.564.538c-.17.06-.356.165-.518.202-.12-.113-.251-.27-.364-.403a9.57 9.57 0 01-.355-.443l-.501-.692c-.11-.177-.074-.153-.433-.153-.072 0-.075.013-.134.027.022.261.871 1.291 1.029 1.491.398.507.398.344-.268.743-.755.453-.583.41-1.052.034-.084-.067-.104-.088-.184-.16-.072-.07-.113-.088-.186-.158L6.01 19.792c-.057-.072-.095-.108-.154-.19-.093-.123-.464-.642-.524-.669l-.157-.03c-.105-.01-.196.022-.338.022.064.277.798 1.088 1.04 1.4.188.245.505.54.726.76l.52.461c.446.413 1.21.939 1.73 1.246.862.515 1.8.91 2.77 1.195.52.153 1.02.273 1.604.364.317.05 1.32.136 1.765.148h.108v.003zm-6.798-2.643c0-.133.4-.316.519-.385.85-.5.509-.246 1.21.31l.318.267c.113.1.215.18.338.273l.693.504c.102.067.652.434.763.46-.014.173-.21.311-.394.26-.178-.048-.397-.12-.57-.178-.937-.307-1.864-.8-2.679-1.335-.063-.042-.198-.102-.198-.176zm9.763 1.428c.145-.038 1.307-.868 1.43-.962.216-.167.472-.43.632-.564.146-.119.597-.562.659-.562.193 0 .656.3.862.414.1.057.166.114.285.141-.004.17-.156.235-.368.376-.464.308-.932.544-1.438.796-.168.086-.353.159-.52.226l-1.111.38c-.13.036-.138.064-.258-.02-.083-.06-.163-.104-.173-.225zm-1.174-.503c.477.11.492.331.783.168.385-.213.753-.415 1.103-.678.347-.259.88-.654 1.188-.963.188-.186.31-.25.314-.402-.265-.061-1.339-.581-1.868-.581-.115.215-.239.427-.368.638-.128.21-.247.406-.38.603-.135.203-.266.395-.404.602-.141.213-.363.446-.368.613zM9.902 20.96c.022.047.013.088.05.137l.678.595c.143.118.27.22.415.33.08.058.126.101.21.163.191.14 1.177.794 1.334.846.12.041.563-.229.755-.274-.008-.093-.036-.112-.089-.178l-.307-.435a50.948 50.948 0 00-.396-.586c-.14-.208-.258-.413-.385-.624-.063-.103-.122-.207-.187-.317-.057-.097-.13-.193-.159-.318-.26 0-1.203.348-1.478.463-.17.073-.288.118-.441.198zm2.428-.792c.86-.2 1.55-.292 2.534-.292v2.565l-1.012.133c-.024-.09-.35-.471-.416-.567a8.482 8.482 0 00-.201-.276c-.252-.335-.537-.836-.76-1.203-.06-.1-.14-.228-.145-.36zm4 2.404c-.396 0-.639-.106-.986-.106v-2.59c.72 0 1.341.048 2.03.184l.557.108c-.035.154-.25.497-.337.64-.098.164-1.107 1.764-1.263 1.764zm-8.134-12.21c0 .758.191 1.322.623 1.865.039.047.052.054.089.098.04.048.038.056.082.104.205.228.535.469.796.638.603.392.946.437 1.549.634.194.062.352.106.552.164.681.201 2.15.615 2.754.84.178.067.412.169.412.386 0 .233-.337.306-.55.354-1.329.302-2.988-.125-3.814-1.21-.13-.17-.197-.36-.278-.36H8.303v3.938h2.374V17.1c.147.005.578.274.72.344.114.057.25.1.38.152.144.057.244.084.402.131 1.284.377 2.482.414 3.772.057a3.414 3.414 0 001.745-1.127l.264-.399c.368-.635.4-1.036.4-1.772 0-1.402-1.357-2.718-2.641-3.066-.362-.097-.732-.218-1.094-.317l-2.232-.644c-.472-.14-.888-.184-.888-.626 0-.134.23-.294.42-.346.296-.084 1.063-.028 1.408.04.852.17 1.512.439 2.112 1.026.177.174.308.417.381.417h2.134c.06 0 .081-.019.081-.08V7.825c0-.208-.028-.3-.028-.502H15.72v.607c-.165-.003-.547-.265-.712-.35-.07-.039-.112-.046-.185-.081a3.098 3.098 0 00-.606-.219c-1.16-.285-2.399-.357-3.548-.02-.512.15-.844.318-1.259.602-.798.545-1.213 1.49-1.213 2.5zm21.9 1.765a7.067 7.067 0 00-.135-1.075c-.13-.615-.266-.97-.499-1.516-.201-.47-.704-.949-1.094-1.268l-.833-.523-.73-.306c-1.808-.607-3.68-.54-5.425.21-.698.302-.915.45-1.468 1.003-.154.154-.341.424-.46.601a4.645 4.645 0 00-.62 1.474 9.58 9.58 0 00-.105.61 9.318 9.318 0 00-.102 1.3c0 .835.143 1.68.389 2.283.4.983.923 1.657 1.837 2.198.854.508 2.078.91 3.162.91 1.222 0 1.74-.026 2.918-.412.341-.113.64-.246.922-.408.51-.29.875-.637 1.234-1.075l.377-.633c.375-.773.587-1.707.632-2.642v-.731z" fill="#B8B8B8"/></svg>