<svg width="41" height="29" fill="none" xmlns="http://www.w3.org/2000/svg"><rect x=".487" y=".214" width="40" height="28.571" rx="4" fill="#fff"/><mask id="a" style="mask-type:luminance" maskUnits="userSpaceOnUse" x="0" y="0" width="41" height="29"><rect x=".487" y=".214" width="40" height="28.571" rx="4" fill="#fff"/></mask><g mask="url(#a)"><path fill="#30C6E0" d="M.487.214h40v28.571h-40z"/><circle cx="20.488" cy="14.5" r="5.714" fill="#FFCD4B"/><path fill-rule="evenodd" clip-rule="evenodd" d="M18.156 24.714l2.33-3.48 2.332 3.48.59-4.147 3.61 2.124-1.266-3.992 4.174.347-2.874-3.047 3.911-1.499-3.911-1.498 2.874-3.047-4.174.347 1.267-3.992-3.61 2.123-.59-4.146-2.332 3.48-2.331-3.48-.59 4.146-3.61-2.123 1.266 3.992-4.174-.347 2.874 3.047-3.911 1.498 3.911 1.498-2.874 3.048 4.174-.347-1.267 3.992 3.61-2.124.59 4.147zm2.33-3.547a6.667 6.667 0 100-13.334 6.667 6.667 0 000 13.334zM2.392 2.786c0-.368.298-.667.666-.667h.572c.368 0 .666.299.666.667v.571a.667.667 0 01-.666.667h-.572a.667.667 0 01-.666-.667v-.571zm0 3.81c0-.369.298-.667.666-.667h.572c.368 0 .666.298.666.666v.572a.667.667 0 01-.666.666h-.572a.667.667 0 01-.666-.666v-.572zm.666 3.142a.667.667 0 00-.666.667v.571c0 .368.298.667.666.667h.572a.667.667 0 00.666-.667v-.571a.667.667 0 00-.666-.667h-.572zm-.666 4.476c0-.368.298-.666.666-.666h.572c.368 0 .666.298.666.666v.572a.667.667 0 01-.666.667h-.572a.667.667 0 01-.666-.667v-.572zm.666 3.143a.667.667 0 00-.666.667v.571c0 .369.298.667.666.667h.572a.667.667 0 00.666-.667v-.571a.667.667 0 00-.666-.667h-.572zm-.666 4.476c0-.368.298-.666.666-.666h.572c.368 0 .666.298.666.666v.572a.667.667 0 01-.666.666h-.572a.667.667 0 01-.666-.666v-.572zm.666 3.143a.667.667 0 00-.666.667v.571c0 .369.298.667.666.667h.572a.667.667 0 00.666-.667v-.571a.667.667 0 00-.666-.667h-.572zm1.238-1.238c0-.368.299-.666.667-.666h.571c.369 0 .667.298.667.666v.572a.667.667 0 01-.667.666h-.571a.667.667 0 01-.667-.666v-.572zm.667-4.476a.667.667 0 00-.667.667v.571c0 .368.299.667.667.667h.571a.667.667 0 00.667-.667v-.571a.667.667 0 00-.667-.667h-.571zm-.667-3.143c0-.368.299-.666.667-.666h.571c.369 0 .667.298.667.666v.572a.667.667 0 01-.667.666h-.571a.667.667 0 01-.667-.666v-.572zm.667-4.476a.667.667 0 00-.667.667v.571c0 .368.299.667.667.667h.571a.667.667 0 00.667-.667v-.571a.667.667 0 00-.667-.667h-.571zM4.296 8.5c0-.368.299-.667.667-.667h.571c.369 0 .667.299.667.667v.572a.667.667 0 01-.667.666h-.571a.667.667 0 01-.667-.666V8.5zm.667-4.476a.667.667 0 00-.667.667v.571c0 .368.299.667.667.667h.571a.667.667 0 00.667-.667v-.571a.667.667 0 00-.667-.667h-.571z" fill="#FFCD4B"/></g></svg>