<svg width="41" height="29" fill="none" xmlns="http://www.w3.org/2000/svg"><rect x=".487" y=".214" width="40" height="28.571" rx="4" fill="#fff"/><mask id="a" style="mask-type:luminance" maskUnits="userSpaceOnUse" x="0" y="0" width="41" height="29"><rect x=".487" y=".214" width="40" height="28.571" rx="4" fill="#fff"/></mask><g mask="url(#a)"><path fill-rule="evenodd" clip-rule="evenodd" d="M40.487.214h-40V2.12h40V.214zm0 3.81h-40v1.905h40V4.024zm-40 3.81h40v1.904h-40V7.833zm40 3.809h-40v1.905h40v-1.905zm-40 3.81h40v1.904h-40v-1.904zm40 3.809h-40v1.905h40v-1.905zm-40 3.81h40v1.904h-40v-1.904zm40 3.809h-40v1.905h40V26.88z" fill="#D02F44"/><path fill="#46467F" d="M.487.214H17.63v13.333H.487z"/><g filter="url(#filter0_d_1_14485)"><path fill-rule="evenodd" clip-rule="evenodd" d="M3.344 4.024a.952.952 0 100-1.905.952.952 0 000 1.905zm3.81 0a.952.952 0 100-1.905.952.952 0 000 1.905zm4.761-.952a.952.952 0 11-1.904 0 .952.952 0 011.904 0zm2.858.952a.952.952 0 100-1.905.952.952 0 000 1.905zM6.2 4.976a.952.952 0 11-1.905 0 .952.952 0 011.905 0zm2.857.953a.952.952 0 100-1.905.952.952 0 000 1.905zm4.762-.953a.952.952 0 11-1.905 0 .952.952 0 011.905 0zm.953 2.857a.952.952 0 100-1.904.952.952 0 000 1.904zm-2.858-.952a.952.952 0 11-1.904 0 .952.952 0 011.904 0zm-4.761.952a.952.952 0 100-1.904.952.952 0 000 1.904zm-2.858-.952a.952.952 0 11-1.904 0 .952.952 0 011.904 0zm.953 2.857a.952.952 0 100-1.905.952.952 0 000 1.905zm4.762-.952a.952.952 0 11-1.905 0 .952.952 0 011.905 0zm2.857.952a.952.952 0 100-1.905.952.952 0 000 1.905zm2.857.953a.952.952 0 11-1.905 0 .952.952 0 011.905 0zm-4.762.952a.952.952 0 100-1.905.952.952 0 000 1.905zm-2.857-.952a.952.952 0 11-1.905 0 .952.952 0 011.905 0zm-4.762.952a.952.952 0 100-1.905.952.952 0 000 1.905z" fill="url(#paint0_linear_1_14485)"/></g></g><defs><linearGradient id="paint0_linear_1_14485" x1="2.392" y1="2.119" x2="2.392" y2="11.643" gradientUnits="userSpaceOnUse"><stop stop-color="#fff"/><stop offset="1" stop-color="#F0F0F0"/></linearGradient><filter id="filter0_d_1_14485" x="2.392" y="2.119" width="13.333" height="11.524" filterUnits="userSpaceOnUse" color-interpolation-filters="sRGB"><feFlood flood-opacity="0" result="BackgroundImageFix"/><feColorMatrix in="SourceAlpha" values="0 0 0 0 0 0 0 0 0 0 0 0 0 0 0 0 0 0 127 0" result="hardAlpha"/><feOffset dy="2"/><feColorMatrix values="0 0 0 0 0 0 0 0 0 0 0 0 0 0 0 0 0 0 0.06 0"/><feBlend in2="BackgroundImageFix" result="effect1_dropShadow_1_14485"/><feBlend in="SourceGraphic" in2="effect1_dropShadow_1_14485" result="shape"/></filter></defs></svg>