<svg width="81" height="72" viewBox="0 0 81 72" fill="none" xmlns="http://www.w3.org/2000/svg">
<g clip-path="url(#clip0_227_29939)">
<path d="M5.45288 0.25708H75.4519C78.2019 0.25708 80.4519 2.50708 80.4519 5.25708V53.2571C80.4519 56.0071 78.2019 58.2571 75.4519 58.2571H5.45288C2.70288 58.2571 0.452881 56.0071 0.452881 53.2571V5.25708C0.452881 2.50708 2.70288 0.25708 5.45288 0.25708ZM5.45288 11.2571H75.4519V53.2571H5.45288V11.2571Z" fill="#B8B8B8" fill-opacity="0.5"/>
<path d="M5.45288 11.2571H75.4509V53.2571H5.45288V11.2571Z" fill="#FCFCFD"/>
<path d="M63.5391 3.94702C64.6091 3.94702 65.4781 4.81602 65.4781 5.88502C65.4781 6.95502 64.6091 7.82402 63.5391 7.82402C62.4671 7.82402 61.6001 6.95502 61.6001 5.88502C61.6001 4.81602 62.4671 3.94702 63.5391 3.94702Z" fill="#39B3E4"/>
<path d="M68.6761 4.0481C69.7481 4.0481 70.6151 4.9171 70.6151 5.9871C70.6151 7.0571 69.7481 7.9261 68.6761 7.9261C67.6061 7.9261 66.7371 7.0571 66.7371 5.9871C66.7361 4.9171 67.6051 4.0481 68.6761 4.0481Z" fill="#FFD400"/>
<path d="M73.936 4.1499C75.008 4.1499 75.875 5.0189 75.875 6.0889C75.875 7.1589 75.008 8.0279 73.936 8.0279C72.867 8.0279 71.998 7.1589 71.998 6.0889C71.997 5.0189 72.865 4.1499 73.936 4.1499Z" fill="#FF5728"/>
<path d="M65.664 50.15C65.664 47.65 65.666 45.15 65.666 42.65C63.871 42.439 62.08 42.248 60.291 42.08C59.727 39.816 58.779 37.704 57.52 35.817C58.703 34.353 59.86 32.872 60.996 31.376C59.227 29.608 57.461 27.841 55.692 26.071C54.162 27.28 52.649 28.503 51.16 29.741C49.311 28.628 47.27 27.806 45.098 27.333C44.893 25.373 44.655 23.419 44.387 21.469C41.889 21.469 39.387 21.469 36.887 21.469C36.655 23.446 36.447 25.418 36.266 27.387C34.143 27.879 32.15 28.708 30.344 29.813C28.816 28.551 27.271 27.313 25.707 26.1L20.404 31.403C21.58 32.956 22.776 34.483 23.99 35.985C22.797 37.813 21.893 39.846 21.344 42.02C19.447 42.203 17.555 42.414 15.665 42.651V50.151C17.484 50.401 19.297 50.625 21.107 50.819C21.564 53.156 22.424 55.346 23.615 57.317C22.502 58.672 21.41 60.042 20.336 61.426L25.639 66.731C26.988 65.71 28.316 64.673 29.625 63.625C31.633 64.972 33.895 65.968 36.327 66.522C36.492 68.175 36.68 69.825 36.887 71.471H44.387C44.612 69.839 44.815 68.212 44.994 66.586C47.482 66.059 49.8 65.07 51.855 63.715C53.142 64.746 54.443 65.762 55.756 66.758C57.527 64.99 59.293 63.223 61.062 61.455C60.013 60.125 58.954 58.812 57.881 57.514C59.142 55.485 60.047 53.213 60.519 50.785C62.238 50.598 63.953 50.384 65.664 50.15ZM40.813 56.025C35.798 56.025 31.733 51.962 31.733 46.948C31.733 41.937 35.797 37.873 40.813 37.873C45.823 37.873 49.887 41.936 49.887 46.948C49.887 51.962 45.823 56.025 40.813 56.025Z" fill="#3C95CF"/>
</g>
<defs>
<clipPath id="clip0_227_29939">
<rect width="81" height="72" fill="white"/>
</clipPath>
</defs>
</svg>
