<svg width="81" height="72" viewBox="0 0 81 72" fill="none" xmlns="http://www.w3.org/2000/svg">
<g clip-path="url(#clip0_227_29981)">
<path d="M5.41602 0.233887H75.415C78.167 0.233887 80.415 2.48189 80.415 5.23389V53.2329C80.415 55.9849 78.167 58.2349 75.415 58.2349H5.41602C2.66602 58.2349 0.416016 55.9849 0.416016 53.2329V5.23289C0.416016 2.48089 2.66602 0.233887 5.41602 0.233887ZM5.41602 11.2309H75.415V53.2309H5.41602V11.2309Z" fill="#B8B8B8" fill-opacity="0.5"/>
<path d="M5.41602 11.231H75.415V53.23H5.41602V11.231Z" fill="#FCFCFD"/>
<path d="M63.5031 3.9209C64.5731 3.9209 65.4411 4.7899 65.4411 5.8599C65.4411 6.9319 64.5731 7.7989 63.5031 7.7989C62.4321 7.7989 61.5651 6.9319 61.5651 5.8599C61.5631 4.7899 62.4321 3.9209 63.5031 3.9209Z" fill="#39B3E4"/>
<path d="M68.641 4.02197C69.712 4.02197 70.579 4.89097 70.579 5.96097C70.579 7.03297 69.712 7.89997 68.641 7.89997C67.571 7.89997 66.702 7.03297 66.702 5.96097C66.7 4.89197 67.568 4.02197 68.641 4.02197Z" fill="#FFD400"/>
<path d="M73.898 4.12378C74.97 4.12378 75.837 4.99278 75.837 6.06278C75.837 7.13478 74.97 8.00178 73.898 8.00178C72.829 8.00178 71.96 7.13478 71.96 6.06278C71.96 4.99278 72.829 4.12378 73.898 4.12378Z" fill="#FF5728"/>
<path d="M65.63 50.1258C65.63 47.6258 65.63 45.1258 65.63 42.6258C63.835 42.4148 62.044 42.2248 60.255 42.0568C59.692 39.7918 58.744 37.6798 57.484 35.7918C58.666 34.3298 59.824 32.8468 60.959 31.3508C59.191 29.5828 57.424 27.8158 55.656 26.0478C54.125 27.2548 52.613 28.4778 51.123 29.7158C49.275 28.6048 47.236 27.7808 45.062 27.3078C44.855 25.3488 44.618 23.3938 44.351 21.4438C41.851 21.4438 39.351 21.4438 36.851 21.4438C36.619 23.4208 36.411 25.3948 36.23 27.3638C34.107 27.8538 32.114 28.6828 30.308 29.7878C28.781 28.5258 27.235 27.2878 25.671 26.0748L20.368 31.3778C21.545 32.9328 22.74 34.4598 23.954 35.9598C22.761 37.7878 21.857 39.8178 21.308 41.9948C19.411 42.1768 17.519 42.3888 15.63 42.6258V50.1258C17.448 50.3778 19.262 50.6018 21.071 50.7938C21.528 53.1318 22.388 55.3228 23.579 57.2918C22.467 58.6458 21.374 60.0178 20.3 61.4018L25.604 66.7068C26.953 65.6858 28.281 64.6478 29.59 63.5998C31.598 64.9498 33.861 65.9459 36.292 66.4978C36.457 68.1498 36.645 69.7998 36.852 71.4448H44.352C44.577 69.8138 44.78 68.1869 44.959 66.5639C47.447 66.0349 49.766 65.0468 51.82 63.6908C53.109 64.7239 54.41 65.7379 55.724 66.7338C57.492 64.9648 59.258 63.1988 61.027 61.4308C59.978 60.1028 58.919 58.7878 57.847 57.4898C59.107 55.4599 60.013 53.1888 60.484 50.7608C62.202 50.5728 63.917 50.3608 65.63 50.1258ZM40.775 56.0008C35.76 56.0008 31.697 51.9378 31.697 46.9248C31.697 41.9108 35.761 37.8478 40.775 37.8478C45.786 37.8478 49.85 41.9108 49.85 46.9248C49.85 51.9378 45.786 56.0008 40.775 56.0008Z" fill="#8AB35E"/>
</g>
<defs>
<clipPath id="clip0_227_29981">
<rect width="81" height="72" fill="white"/>
</clipPath>
</defs>
</svg>
