<svg width="21" height="20" viewBox="0 0 21 20" fill="none" xmlns="http://www.w3.org/2000/svg">
<path d="M3.25809 9.66386C3.03637 9.42939 3.03637 9.04935 3.25809 8.81488C3.47796 8.58041 3.83917 8.58041 4.05904 8.81488L8.50358 13.5131L16.8134 4.47229C17.0314 4.23587 17.3908 4.23196 17.6144 4.46057C17.8379 4.69113 17.8416 5.07116 17.6254 5.30759L8.94332 14.7528C8.93223 14.7665 8.92207 14.7773 8.90914 14.789C8.68926 15.0235 8.3299 15.0235 8.10818 14.789L3.25809 9.66386Z" fill="#49B550"/>
<path d="M3.72882 0H16.7544C17.7134 0 18.5845 0.39078 19.2171 1.02418C19.8488 1.65676 20.2412 2.52951 20.2412 3.48693V16.5131C20.2412 17.4705 19.8504 18.3432 19.2171 18.9742V18.9758C18.5845 19.6068 17.7118 20 16.7544 20H3.72882C2.77143 20 1.90035 19.6076 1.26779 18.9758V18.9742H1.26535C0.634421 18.3432 0.241211 17.4697 0.241211 16.5131V3.48693C0.241211 2.52788 0.633607 1.65676 1.26535 1.02418H1.26698C1.89953 0.39078 2.77143 0 3.72882 0ZM16.7544 0.460801H3.72882C2.89762 0.460801 2.14051 0.801106 1.59343 1.3482L1.5918 1.34983C1.0431 1.89693 0.702806 2.65407 0.702806 3.48693V16.5131C0.702806 17.3443 1.0431 18.1014 1.5918 18.6502H1.59343C2.14051 19.1989 2.89762 19.5392 3.72882 19.5392H16.7544C17.5872 19.5392 18.3444 19.1989 18.8914 18.6502H18.8931C19.4401 18.1014 19.7804 17.3443 19.7804 16.5131V3.48693C19.7804 2.65407 19.4401 1.89693 18.8931 1.34983L18.8914 1.3482C18.3444 0.801106 17.5881 0.460801 16.7544 0.460801Z" fill="#8CBDBD"/>
</svg>
