<svg width="25" height="18" viewBox="0 0 25 18" fill="none" xmlns="http://www.w3.org/2000/svg">
<path d="M12.5965 14.2396L10.1082 16.2822C9.87545 16.4745 9.53209 16.4404 9.34076 16.2077C9.25595 16.1064 9.21562 15.9833 9.21562 15.8612H9.21251V10.0386L0.696726 7.07242C0.411281 6.97313 0.260284 6.66183 0.361638 6.37639C0.423691 6.19746 0.569517 6.07026 0.741198 6.02682L24.2636 0.0169505C24.5583 -0.0575135 24.8551 0.120373 24.9317 0.413058C24.9699 0.560952 24.9441 0.708845 24.8696 0.829849L16.1273 17.7032C15.9898 17.9721 15.6619 18.0776 15.392 17.939C15.3144 17.8987 15.2482 17.8428 15.1986 17.7756L12.5965 14.2396ZM9.58897 9.01158L21.1143 1.95302L2.77138 6.63701L9.58897 9.01158ZM22.9863 2.08953L10.5922 9.67866L15.5616 16.4208L22.9863 2.08953ZM10.3098 11.1369V14.7029L11.946 13.3584L10.3098 11.1369Z" fill="#00B2E5"/>
</svg>
