<svg width="13" height="22" viewBox="0 0 13 22" fill="none" xmlns="http://www.w3.org/2000/svg">
<path d="M1.4191 0H11.762C12.0582 0 12.3305 0.122745 12.5298 0.320245V0.318399C12.7283 0.515899 12.851 0.788153 12.851 1.08809V20.911C12.851 21.21 12.7283 21.4813 12.5298 21.6788V21.6807C12.3323 21.8773 12.0601 22 11.762 22H1.4191C1.12008 22 0.847823 21.8773 0.6494 21.6798V21.6807C0.452823 21.4832 0.330078 21.2109 0.330078 20.911V1.08809C0.330078 0.789076 0.452823 0.517745 0.6494 0.320245L0.651246 0.318399C0.847823 0.121822 1.12008 0 1.4191 0ZM4.91964 1.03364H8.2596C8.44234 1.03364 8.60938 1.10009 8.73213 1.20623C8.85302 1.31236 8.9287 1.46002 8.9287 1.62061C8.9287 1.78119 8.85302 1.92793 8.73213 2.03406C8.60938 2.1402 8.44326 2.20757 8.2596 2.20757H4.91964C4.73599 2.20757 4.56802 2.14204 4.44712 2.03499C4.32622 1.92793 4.25054 1.78211 4.25054 1.62061C4.25054 1.4591 4.32622 1.31236 4.44712 1.20623C4.56802 1.09917 4.73599 1.03364 4.91964 1.03364ZM6.59101 17.4963C7.07553 17.4963 7.51575 17.6928 7.83507 18.0122C8.15439 18.3306 8.35097 18.7699 8.35097 19.2562C8.35097 19.7408 8.15439 20.18 7.83507 20.4994H7.83322L7.83138 20.5012C7.5139 20.8187 7.0746 21.0153 6.59101 21.0153C6.10464 21.0153 5.66442 20.8187 5.34694 20.4994C5.33771 20.4911 5.33033 20.4828 5.32387 20.4745C5.01931 20.157 4.83197 19.7278 4.83197 19.2553C4.83197 18.7717 5.02854 18.3324 5.34787 18.0131L5.34971 18.0112C5.66811 17.6919 6.10556 17.4963 6.59101 17.4963ZM7.26841 18.5761C7.09491 18.4026 6.85588 18.2946 6.59101 18.2946C6.32429 18.2946 6.08434 18.4016 5.91175 18.5742L5.90991 18.5751C5.7364 18.7477 5.63027 18.9877 5.63027 19.2544C5.63027 19.5128 5.73087 19.7463 5.8933 19.9179L5.91175 19.9346C6.08526 20.1081 6.32614 20.216 6.59101 20.216C6.85588 20.216 7.09768 20.109 7.26841 19.9364L7.27026 19.9355C7.44376 19.762 7.55266 19.522 7.55266 19.2562C7.55266 18.9904 7.44284 18.7496 7.26841 18.5761ZM1.12931 2.41245H12.0527V1.08809C12.0527 1.00873 12.0186 0.935817 11.965 0.883212L11.9669 0.882289H11.965C11.9124 0.830607 11.8404 0.798305 11.7611 0.798305H1.4191C1.33973 0.798305 1.2659 0.830607 1.21329 0.882289L1.21237 0.884135C1.16161 0.93674 1.12931 1.00965 1.12931 1.08902V2.41245ZM12.0536 17.1742H1.12931V20.9119C1.12931 20.9913 1.16161 21.0642 1.21421 21.1168V21.1186C1.26682 21.1703 1.3388 21.2026 1.42002 21.2026H11.7629C11.8423 21.2026 11.9143 21.1703 11.9669 21.1168L11.9687 21.1177C12.0213 21.0651 12.0536 20.9922 12.0536 20.9119V17.1742ZM12.0103 3.21168H1.17268V16.3759H12.0103V3.21168Z" fill="#00B2E5"/>
</svg>
