<svg width="21" height="20" viewBox="0 0 21 20" fill="none" xmlns="http://www.w3.org/2000/svg">
<path d="M0.345495 19.4308L1.48434 13.8322C1.50305 13.7397 1.54981 13.6597 1.61215 13.5984L14.9116 0.716679C14.9219 0.707327 14.9323 0.697975 14.9417 0.689662L14.9749 0.659529C15.2524 0.426771 15.9267 0.0755563 16.7289 0.0111323C17.5384 -0.0543308 18.4923 0.154528 19.3329 1.02321C19.3942 1.08452 19.4586 1.15622 19.5283 1.23934C21.2937 3.33728 19.733 5.23363 19.7288 5.23987C19.7184 5.25234 19.707 5.26481 19.6966 5.27624L19.3662 5.61706C19.3443 5.68252 19.309 5.74383 19.2581 5.79578C19.2072 5.84982 19.1479 5.88722 19.0794 5.91008L6.66112 18.6879C6.62683 18.745 6.58007 18.7928 6.525 18.8281C6.45954 18.8884 6.38057 18.9258 6.29952 18.9424H6.3016L0.867121 19.9919C0.621894 20.0387 0.383941 19.8776 0.337182 19.6324C0.325752 19.5638 0.32783 19.4952 0.345495 19.4308ZM15.429 1.4721L18.8892 4.81176L19.0357 4.66109C19.1677 4.48444 20.0301 3.23233 18.8393 1.81812C18.7947 1.76617 18.7437 1.71006 18.6876 1.65187C18.0746 1.01802 17.3846 0.86527 16.8037 0.912029C16.2115 0.958789 15.7428 1.19362 15.5599 1.34845L15.5527 1.35261L15.5392 1.36404L15.429 1.4721ZM18.2606 5.46016L14.7796 2.10179L14.4117 2.4582L17.9021 5.82696L18.2606 5.46016ZM3.02844 13.4841C3.32043 13.4955 3.62904 13.5495 3.90128 13.6836L12.4458 5.37287C12.6245 5.19934 12.9103 5.2035 13.0848 5.38222C13.2573 5.56095 13.2532 5.8467 13.0744 6.02023L4.53513 14.3226C4.72425 14.7216 4.71386 15.1882 4.6432 15.5841C5.07754 15.4978 5.58878 15.4833 5.98467 15.7399L14.3442 7.23805C14.5188 7.06036 14.8045 7.05829 14.9832 7.23285C15.1599 7.40742 15.162 7.69317 14.9874 7.87086L6.51981 16.4819C6.61748 16.7541 6.67359 17.0565 6.70684 17.3433L16.2634 7.51237L12.7222 4.09374L3.02844 13.4841ZM5.84128 18.1112C5.85375 17.6664 5.83089 16.8559 5.54513 16.5442L5.52851 16.5297C5.18561 16.1868 4.16418 16.6866 4.16106 16.6876C4.04156 16.7447 3.89713 16.7499 3.76932 16.6876C3.54383 16.5795 3.45032 16.3094 3.55838 16.0839C3.56046 16.0808 4.04987 15.0469 3.65398 14.6021C3.35368 14.2655 2.62735 14.3735 2.28029 14.4504L1.59241 17.8306L2.57436 18.7409L5.84128 18.1112ZM17.2745 6.47431L13.7634 3.08582L13.3716 3.46509L16.8931 6.86501L17.2745 6.47431Z" fill="#00B2E5"/>
</svg>
