<svg width="23" height="22" viewBox="0 0 23 22" fill="none" xmlns="http://www.w3.org/2000/svg">
<path d="M11.3296 0C14.3673 0 17.1177 1.23101 19.1084 3.22169C21.0991 5.21238 22.3291 7.96176 22.3291 10.9995C22.3291 14.0372 21.0991 16.7876 19.1084 18.7773C17.1177 20.768 14.3663 22 11.3296 22C8.29284 22 5.54246 20.768 3.55177 18.7773C1.56108 16.7876 0.330078 14.0372 0.330078 10.9995C0.330078 7.96176 1.56108 5.21238 3.55177 3.22169C5.54246 1.23101 8.29284 0 11.3296 0ZM8.19141 3.29627C8.33659 3.75168 8.76814 4.69632 9.86987 4.66947C10.8931 4.64461 11.6627 4.10766 12.307 3.65722C12.7754 3.33008 13.191 3.04072 13.6534 2.93333L13.7866 2.9045C13.0598 2.41329 12.1827 2.12592 11.2381 2.12592C10.0658 2.12592 8.99783 2.5694 8.19141 3.29627ZM14.8993 3.9774C14.8426 3.95553 14.7869 3.92271 14.7382 3.87896C14.7382 3.87896 14.6119 3.75864 13.8861 3.92768C13.6066 3.99232 13.2706 4.22698 12.8917 4.49148C12.13 5.02246 11.2252 5.65586 9.89473 5.68768C8.51756 5.7205 7.80362 4.86635 7.44565 4.15937C6.96836 4.88027 6.68795 5.74536 6.68795 6.67507C6.68795 7.6386 6.97532 8.52655 7.4904 9.25641C8.00746 9.99223 8.75421 10.5719 9.66902 10.914C9.86292 10.9846 10.0051 11.1695 10.0051 11.3893C10.025 13.6375 10.2676 14.7452 10.5798 15.2812C10.7837 15.6312 11.0422 15.6391 11.2361 15.6391H11.2669V15.6411C11.7601 15.6421 12.6043 15.6431 12.6381 11.3962C12.6242 11.1815 12.7465 10.9736 12.9563 10.8891C13.7995 10.5451 14.5145 9.95643 15.0156 9.21067C15.5009 8.48678 15.7843 7.61573 15.7843 6.67507C15.7873 5.66481 15.4571 4.73112 14.8993 3.9774ZM16.2665 19.6712L16.181 17.9928C16.1671 17.7114 16.3829 17.4717 16.6643 17.4578C16.9447 17.4429 17.1833 17.6597 17.1982 17.9401L17.2549 19.0259C17.6546 18.7306 18.0335 18.4054 18.3855 18.0534C18.8986 17.5393 19.357 16.9706 19.7487 16.3551C19.4803 15.8838 18.5645 14.3723 17.3931 13.6624C16.3192 13.0121 14.4021 12.9445 13.5927 12.9474C13.2954 16.6593 12.0386 16.6583 11.2679 16.6564V16.6583H11.2371C10.7867 16.6583 10.192 16.6405 9.69885 15.7893C9.40154 15.2812 9.15494 14.4201 9.04655 12.9474C8.22522 12.9464 6.33297 13.018 5.26902 13.6624C4.09568 14.3733 3.1769 15.8877 2.91141 16.3571C3.30418 16.9716 3.76158 17.5403 4.27467 18.0534C4.58689 18.3666 4.92099 18.658 5.27299 18.9275L5.32371 17.9391C5.33961 17.6587 5.57826 17.4419 5.85966 17.4568C6.14106 17.4707 6.35684 17.7104 6.34291 17.9918L6.25939 19.5927C7.74495 20.4707 9.4791 20.9748 11.3306 20.9748C13.1264 20.9778 14.8098 20.5025 16.2665 19.6712ZM13.6464 11.9312C14.5791 11.9352 16.6643 12.0336 17.9191 12.7943C18.9761 13.4357 19.8402 14.5941 20.3175 15.3369C20.9509 14.0263 21.3059 12.5547 21.3059 10.9995C21.3059 8.24416 20.1892 5.75033 18.3845 3.94459C16.5798 2.13984 14.0829 1.02319 11.3286 1.02319C8.57324 1.02319 6.07941 2.13984 4.27268 3.94459C2.46694 5.75033 1.35028 8.24515 1.35028 10.9995C1.35028 12.5547 1.70526 14.0263 2.34065 15.3388C2.81794 14.5961 3.68104 13.4367 4.73903 12.7943C5.98793 12.0376 8.05618 11.9362 8.99584 11.9312L8.99385 11.7383C8.02436 11.3117 7.22689 10.6555 6.65514 9.84307C6.02174 8.94219 5.66477 7.85238 5.66477 6.67507C5.66477 5.13681 6.29021 3.74373 7.29849 2.73546C8.30676 1.72719 9.69885 1.10373 11.2371 1.10373C12.7744 1.10373 14.1694 1.72719 15.1767 2.73546C16.186 3.74373 16.8094 5.13781 16.8094 6.67507C16.8094 7.82156 16.4604 8.88949 15.8638 9.77745C15.3139 10.5978 14.5503 11.264 13.6524 11.6955L13.6464 11.9312Z" fill="#00ABE1"/>
</svg>
