<svg width="106" height="106" fill="none" xmlns="http://www.w3.org/2000/svg"><g clip-path="url(#clip0_227_31256)"><path d="M53.154.111c29.273 0 53 23.73 53 53 0 29.271-23.728 53-53 53-29.27 0-53-23.729-53-53 0-29.27 23.73-53 53-53z" fill="#738FBD"/><path d="M52.079 23.172l13.408 10.083 1.084 2.557 5.758.471.049 10.441 4.432 31.252-27.96 27.959c-23.773-1.91-43.115-19.513-47.672-42.438L29.72 34.952l2.73.758 9.72-9.474 9.908-3.064z" fill="#6682B0"/><path d="M68.86 42.43a22.19 22.19 0 00-.257-1.638l2.346 1.637h-2.09zm-34.837-5.052h6.635c-.49 1.6-.857 3.29-1.07 5.051h-4.77l1.86-2.39-2.655-2.66zm.284 31.526H32.35V46.085h1.957v22.82zm15.92-44.078c.594-.012 1.207.123 1.822.32-4.6.965-8.314 4.703-10.508 9.84h-1.31c2.626-6.519 6.453-10.248 9.996-10.16zm13.498 10.16h-.4a39.014 39.014 0 00-.9-2.215c.032.041.062.088.103.141.433.63.824 1.347 1.197 2.074zm-9.502-7.222a7.69 7.69 0 011.891.246c1.523 1.701 2.93 4.06 4.101 6.976H44.721c.373-.727.771-1.443 1.205-2.074 2.256-3.307 5.184-5.148 8.287-5.148h.01zM42.486 42.43a24.815 24.815 0 011.207-5.05h21.055a24.173 24.173 0 011.213 5.05H42.486zm26.604-5.05l-.635 2.528a27.31 27.31 0 00-.666-2.529h1.301zm3.723 2.126l.797-4.52h-6.7c-1.982-4.635-5.2-8.132-9.18-9.49-2.154-2.184-4.665-3.496-7.504-3.543-5.855.084-10.3 5.48-13.105 13.033h-7.344V73.51l3.973.264v4.254h43.04V42.685l-3.977-3.18z" fill="#fff"/></g><defs><clipPath id="clip0_227_31256"><path fill="#fff" d="M0 0h106v106H0z"/></clipPath></defs></svg>