<svg width="106" height="106" fill="none" xmlns="http://www.w3.org/2000/svg"><g clip-path="url(#clip0_227_31233)"><path d="M53.12 0c29.27 0 52.999 23.729 52.999 53s-23.729 53-53 53c-29.27 0-53-23.729-53-53 0-29.272 23.73-53 53-53z" fill="#72B368"/><path d="M35.654 31.66l2.725 12.078 43.203.727-8.146 22.211-8.022 8.193 5.813 5.87-24.839 24.837-.018-.002C20.285 102.26.12 79.984.12 53c0-1.293.046-2.574.138-3.846L18.324 31.09l17.33.57z" fill="#6AAB5F"/><path d="M41.59 77.385a5.448 5.448 0 015.455-5.449c3.014-.002 5.465 2.439 5.465 5.449a5.458 5.458 0 01-5.465 5.457 5.447 5.447 0 01-5.455-5.457zm26.053-14.061h-20.34l-5.277-15.456H73.84l-6.196 15.456zm12.621-20.942H42.168c-2.17 0-4.045-1.775-4.168-3.939l-.23-4.336c-.109-2.158-1.984-3.926-4.139-3.926l-12.498-.002c-2.16 0-4.014 1.588-4.113 3.535-.105 1.941 1.592 3.541 3.758 3.541h4.588c2.176 0 4.59 1.648 5.373 3.67l9.346 24.06c.783 2.01 3.186 3.672 5.37 3.672H69.09c2.172 0 4.646-1.629 5.48-3.635l8.086-19.015c.844-2.002-.238-3.625-2.392-3.625zM61.5 77.385a5.45 5.45 0 015.463-5.449c2.986-.002 5.438 2.439 5.438 5.449.002 3.023-2.45 5.457-5.438 5.457a5.448 5.448 0 01-5.463-5.457z" fill="#fff"/></g><defs><clipPath id="clip0_227_31233"><path fill="#fff" d="M0 0h106v106H0z"/></clipPath></defs></svg>