<svg width="24" height="18" fill="none" xmlns="http://www.w3.org/2000/svg"><rect y=".43" width="24" height="17.143" rx="4" fill="#fff"/><mask id="a" style="mask-type:luminance" maskUnits="userSpaceOnUse" x="0" y="0" width="24" height="18"><rect y=".43" width="24" height="17.143" rx="4" fill="#fff"/></mask><g mask="url(#a)"><path fill="#0A17A7" d="M0 .43h24v17.143H0z"/><path fill-rule="evenodd" clip-rule="evenodd" d="M-1.1-1.215L9.144 5.694V-.715h5.714v6.409L25.1-1.215 26.377.68 18.28 6.142H24v5.714h-5.72l8.097 5.462-1.278 1.895-10.242-6.908v6.409H9.143v-6.409L-1.1 19.213l-1.278-1.895 8.097-5.462H0V6.142h5.72L-2.377.68-1.1-1.215z" fill="#fff"/><path d="M16.001 5.857l10.856-7.142M17.154 12.17l9.732 6.56M6.862 5.837L-3.29-1.003M7.963 12.093L-3.29 19.555" stroke="#DB1F35" stroke-width="1.333" stroke-linecap="round"/><path fill-rule="evenodd" clip-rule="evenodd" d="M0 10.715h10.286v6.858h3.428v-6.858H24V7.287H13.714V.43h-3.428v6.857H0v3.428z" fill="#E6273E"/></g></svg>