<svg width="106" height="106" viewBox="0 0 106 106" fill="none" xmlns="http://www.w3.org/2000/svg">
<g clip-path="url(#clip0_227_26657)">
<path d="M53.1189 0.131958C82.3899 0.131958 106.119 23.861 106.119 53.132C106.119 82.403 82.3899 106.132 53.1189 106.132C23.8479 106.132 0.118896 82.403 0.118896 53.132C0.118896 23.861 23.8479 0.131958 53.1189 0.131958Z" fill="#94B432"/>
<path d="M51.1539 47.626L62.2699 48.743L73.4379 37.503L82.9829 44.137L77.8969 49.649L87.3759 54.325L90.6029 68.181L52.6599 106.124C26.3399 105.9 4.59387 86.495 0.728871 61.202L0.692871 60.95L24.8299 36.814L33.2869 44.513L28.3239 49.23L39.3119 52.828L45.2499 47.902L50.4879 45.14L51.1539 47.626Z" fill="#84A12D"/>
<path d="M32.488 47.825H25.082C20.275 47.825 16.387 51.712 16.387 56.517V68.1H21.485V56.085H23.243V68.102H34.179V56.085H35.941V68.102H41.179V56.52C41.178 51.712 37.287 47.827 32.488 47.825ZM61.541 60.234L56.371 63.853C55.433 64.499 54.695 64.099 54.695 62.991V61.482H46.297C45.397 61.482 44.711 60.769 44.711 59.894V58.22C44.711 57.348 45.397 56.624 46.297 56.624H54.695V55.136C54.695 54.016 55.433 53.624 56.371 54.27L61.541 57.893C62.453 58.536 62.453 59.583 61.541 60.234ZM45.385 47.784L50.561 44.155C51.473 43.512 52.235 43.893 52.235 45.024V46.528H60.639C61.506 46.528 62.239 47.241 62.239 48.12V49.8C62.239 50.669 61.508 51.382 60.637 51.382H52.235V52.88C52.235 54.005 51.473 54.393 50.561 53.755L45.385 50.126C44.477 49.476 44.475 48.425 45.385 47.784ZM81.844 47.825H74.422C69.627 47.825 65.746 51.712 65.746 56.517V68.1H70.834V56.085H72.602V68.102H83.533V56.085H85.287V68.102H90.53V56.52C90.529 51.712 86.643 47.827 81.844 47.825ZM78.141 46.644C81.319 46.644 83.903 44.068 83.903 40.894C83.903 37.714 81.319 35.14 78.141 35.14C74.955 35.14 72.37 37.717 72.37 40.894C72.371 44.067 74.955 46.644 78.141 46.644ZM28.795 46.644C31.965 46.644 34.545 44.068 34.545 40.894C34.545 37.714 31.965 35.14 28.795 35.14C25.609 35.14 23.029 37.717 23.029 40.894C23.029 44.067 25.609 46.644 28.795 46.644Z" fill="white"/>
</g>
<defs>
<clipPath id="clip0_227_26657">
<rect width="106" height="106" fill="white"/>
</clipPath>
</defs>
</svg>
