<svg width="106" height="106" viewBox="0 0 106 106" fill="none" xmlns="http://www.w3.org/2000/svg">
<g clip-path="url(#clip0_227_26647)">
<path fill-rule="evenodd" clip-rule="evenodd" d="M52.9839 0.108032C82.2549 0.108032 105.984 23.837 105.984 53.107C105.984 82.38 82.2549 106.109 52.9839 106.109C23.7129 106.109 -0.0161133 82.38 -0.0161133 53.107C-0.0161133 23.837 23.7129 0.108032 52.9839 0.108032Z" fill="#B7AE52"/>
<path fill-rule="evenodd" clip-rule="evenodd" d="M57.195 40.657L31.744 65.98L37.791 66.298L47.09 57.028L48.061 57.27L64.317 40.8L75.897 41.456L76.426 81.836L52.166 106.096C27.463 105.725 6.857 88.451 1.4 65.324L1.396 65.306L42.035 24.666L57.195 40.657Z" fill="#A2983A"/>
<path fill-rule="evenodd" clip-rule="evenodd" d="M41.918 81.8241H29.875V65.1861H41.918V81.8241ZM57.217 21.5711L43.76 23.9351C41.373 24.3471 40.83 26.1071 42.549 27.8201L44.822 30.1051L31.975 42.9611C30.629 44.2951 30.629 46.5021 31.975 47.8361L34.543 50.3991C35.883 51.7331 38.07 51.7351 39.412 50.3991L52.26 37.5461L54.561 39.8311C56.27 41.5561 58.028 40.9971 58.446 38.6021L60.809 25.1611C61.238 22.7391 59.619 21.1421 57.217 21.5711ZM76.33 81.8241H64.287V40.7351H76.33V81.8241ZM59.121 81.8241H47.084V57.0331H59.121V81.8241Z" fill="white"/>
</g>
<defs>
<clipPath id="clip0_227_26647">
<rect width="106" height="106" fill="white"/>
</clipPath>
</defs>
</svg>
