<svg width="106" height="106" viewBox="0 0 106 106" fill="none" xmlns="http://www.w3.org/2000/svg">
<g clip-path="url(#clip0_227_26652)">
<path fill-rule="evenodd" clip-rule="evenodd" d="M52.9309 0.154053C82.2029 0.154053 105.931 23.8831 105.931 53.1541C105.931 82.4271 82.2019 106.154 52.9309 106.154C23.6599 106.154 -0.0690918 82.4271 -0.0690918 53.1541C-0.0690918 23.8831 23.6599 0.154053 52.9309 0.154053Z" fill="#E68538"/>
<path fill-rule="evenodd" clip-rule="evenodd" d="M75.5659 20.885L67.0899 33.443L65.4669 39.265L73.1059 40.628L65.2369 48.548L73.9259 55.277L70.7499 58.554L73.9039 67.843L69.6869 72.027L72.4429 81.281L47.8179 105.908L47.4609 105.875C25.5909 103.633 7.66589 88.096 1.88989 67.479L49.5009 19.87L75.5659 20.885Z" fill="#D4772B"/>
<path fill-rule="evenodd" clip-rule="evenodd" d="M56.3519 30.3731C55.8499 30.2421 55.5749 30.0821 55.5299 29.8981C55.4729 29.7281 55.5299 29.4881 55.6959 29.2141C55.8909 28.8781 56.1759 28.6121 56.5359 28.4331C56.9129 28.2491 57.2819 28.1421 57.6709 28.1131L56.3519 30.3731ZM56.5799 34.8091C56.3509 35.2091 56.0429 35.5061 55.6599 35.6961C55.2729 35.8951 54.8609 36.0031 54.4329 36.0381L55.8669 33.5651C56.3179 33.6571 56.5859 33.8171 56.7049 34.0161C56.8089 34.2271 56.7699 34.4841 56.5799 34.8091ZM60.5999 25.5641L61.8969 23.3281H60.3149L59.0079 25.5941C57.4769 25.7331 56.1169 26.1431 54.9119 26.8231C53.7129 27.4971 52.8279 28.3231 52.2689 29.2901C51.8919 29.9561 51.6689 30.4951 51.6299 30.9171C51.5909 31.3451 51.6629 31.6981 51.8469 32.0011C52.0249 32.3151 52.3039 32.5501 52.6519 32.7221C53.0019 32.8981 53.3889 33.0461 53.8109 33.1711L54.5609 33.3761L53.0019 36.0621C52.2299 36.0271 51.5029 35.8781 50.8409 35.6211C50.1959 35.3591 49.7689 35.1311 49.5749 34.9261H49.2719L47.6449 37.7291C47.9869 37.9851 48.5449 38.1901 49.3049 38.3621C50.0529 38.5341 50.7779 38.6201 51.4689 38.6261L50.1619 40.8741H51.7599L53.0849 38.5751C53.8449 38.5401 54.5929 38.3971 55.3119 38.1571C56.0369 37.9251 56.7099 37.6101 57.3259 37.2451C57.9449 36.8781 58.4919 36.4681 58.9939 35.9771C59.5039 35.4971 59.9199 34.9831 60.2339 34.4421C60.8339 33.3891 60.9819 32.5851 60.6679 32.0321C60.3299 31.4711 59.5879 31.0441 58.4179 30.7531L57.6699 30.5641L59.0979 28.1091C59.8009 28.1461 60.3769 28.2541 60.8319 28.4231C61.2909 28.5831 61.6779 28.8181 61.9799 29.1031H62.2829L63.8979 26.3241C63.6069 26.1521 63.1229 25.9821 62.4549 25.8381C61.7809 25.6741 61.1819 25.5941 60.5999 25.5641ZM64.3959 41.3341C64.3959 41.7971 64.4119 42.2011 64.4469 42.5331H42.2669C42.2549 42.3341 42.2489 42.0881 42.2489 41.8031C42.2489 39.6451 42.6359 35.4711 45.1199 30.8481C47.4849 26.4281 49.7839 22.8711 50.5559 21.6961H73.4099C72.0409 23.6201 69.5919 27.1611 67.3829 30.9171C64.8809 35.1681 64.3959 39.0061 64.3959 41.3341ZM66.5079 62.5491C66.5079 63.8581 65.4469 64.9141 64.1329 64.9141C62.8259 64.9141 61.7579 63.8571 61.7579 62.5491C61.7579 61.2421 62.8239 60.1761 64.1329 60.1761C65.4469 60.1761 66.5079 61.2421 66.5079 62.5491ZM63.9449 55.5571H73.8399V57.4111H63.9449C60.2669 57.4111 57.4879 59.8861 57.4819 62.5501C57.4879 65.2301 60.2669 67.6911 63.9449 67.6911H73.8399V69.5451H63.9449C59.4919 69.5271 55.6599 66.5491 55.6269 62.5511C55.6619 58.5431 59.4899 55.5571 63.9449 55.5571ZM75.9629 21.3241C76.1739 21.0391 76.2089 20.6741 76.0529 20.3531C75.8949 20.0441 75.5739 19.8391 75.2189 19.8391H50.0659C49.7569 19.8391 49.4609 19.9931 49.2889 20.2571C49.2729 20.2671 46.4409 24.4681 43.4959 29.9661C41.8569 33.0031 41.0739 35.8551 40.7009 38.1651H34.8869C31.9569 38.1651 29.5649 40.5581 29.5649 43.4851V77.5871C29.5649 80.5151 31.9579 82.9131 34.8869 82.9131H68.5239C71.4519 82.9131 73.8399 80.5151 73.8399 77.5871V45.9711H37.2999C35.2549 45.9711 33.5929 44.8581 33.5929 43.4941C33.5949 42.1231 35.2549 41.0101 37.2999 41.0101H40.4169C40.3939 41.2891 40.3939 41.5631 40.3939 41.8031C40.3939 42.9101 40.4959 43.5611 40.4959 43.6021C40.5659 44.0591 40.9429 44.3951 41.4159 44.3951H65.4989C65.7779 44.3951 66.0419 44.2641 66.2239 44.0511C66.3959 43.8241 66.4579 43.5511 66.4019 43.2781C66.4019 43.2661 66.2479 42.5871 66.2479 41.3351C66.2479 41.2331 66.2599 41.1061 66.2639 41.0111H73.2019C72.3019 39.3251 70.5539 38.1671 68.5259 38.1671H66.5689C66.9229 36.3471 67.6179 34.1771 68.9769 31.8641C72.1989 26.3831 75.9629 21.3461 75.9629 21.3241Z" fill="white"/>
</g>
<defs>
<clipPath id="clip0_227_26652">
<rect width="106" height="106" fill="white"/>
</clipPath>
</defs>
</svg>
