<svg width="106" height="106" fill="none" xmlns="http://www.w3.org/2000/svg"><g clip-path="url(#clip0_227_27795)"><path d="M106.039 53.057c0 29.27-23.738 53.009-53.006 53.009-29.271 0-52.992-23.737-52.992-53.01C.041 23.782 23.762.066 53.033.066c29.268-.001 53.006 23.715 53.006 52.992z" fill="#E64475"/><path d="M53.053 25.172c-3.525 0-7.033.071-7.638.231-1.23.321-2.31.944-3.29 1.922a.366.366 0 00-.105.09L2.034 67.412c5.785 20.539 23.328 35.594 44.504 38.209l25.856-25.859c.336-.334.62-.688.814-1.08l.36-.678.032-4.254.055-4.252-1.795 1.797-.39.197h-2.51l3.47-3.471c.355-.355.656-.746.816-1.14.322-.676.322-.801.354-4.893.021-3.187.021-3.97-.104-3.867l-1.3 1.303a1.895 1.895 0 01-.392.181c-.109.018-1.212.049-2.724.069l3.313-3.311c.373-.373.674-.802.887-1.269.27-.586.287-.832.318-4.799l.04-4.181-1.71 1.707c-.07.036-.144.051-.214.072-.125.035-1.373.053-3.024.089l2.973-2.973c.336-.338.443-.751.443-1.459l-.02-.89-3.632-7.242c-3.595-7.172-3.646-7.261-4.519-8.115-.979-.944-2.082-1.601-3.276-1.921-.579-.138-4.104-.21-7.606-.21z" fill="#BF456A"/><path d="M35.506 80.869c-1.12-.342-2.117-1.193-2.686-2.26-.305-.588-.305-.676-.357-4.859l-.035-4.252.322.605c.246.463.48.676 1.084.996l.781.393h36.853l.767-.393c.621-.32.852-.533 1.104-.996l.316-.605-.055 4.252-.03 4.254-.359.678a4.913 4.913 0 01-1.976 1.939l-.586.32-17.419.018c-9.577.018-17.546-.018-17.724-.09zm35.002-3.346c.496-.392.64-.836.461-1.388-.246-.766-.498-.854-2.523-.854H66.61l-.338.407c-.569.677-.375 1.691.373 1.988.16.057.998.111 1.888.129 1.455.004 1.651-.014 1.975-.282zM35.49 69.121a4.113 4.113 0 01-2.668-2.279c-.305-.635-.32-.795-.34-4.852-.035-3.596 0-4.129.143-3.773.25.553 1.031 1.209 1.641 1.389.71.195 36.842.195 37.542 0 .606-.18 1.403-.836 1.653-1.389.142-.355.16.178.142 3.773-.03 4.092-.03 4.217-.354 4.893-.354.801-1.228 1.668-2.119 2.061l-.619.289-17.21.035c-13.313.017-17.329-.018-17.81-.147zm34.824-3.182c.176-.09.441-.373.568-.658.246-.48.246-.521 0-.996-.127-.271-.393-.57-.568-.664-.412-.195-2.994-.227-3.563-.012-.494.16-.813.641-.813 1.19 0 .529.176.871.617 1.101.482.271 3.277.289 3.76.057v-.018zm-35.145-8.613c-.66-.248-1.426-.818-1.887-1.422-.766-1.021-.836-1.479-.836-5.855v-3.932l.268.497c.32.605.941 1.083 1.654 1.282.748.213 36.582.213 37.328 0 .717-.2 1.334-.676 1.678-1.282l.246-.497-.02 4.181c-.03 3.968-.05 4.213-.318 4.8-.39.842-1.102 1.588-1.867 1.979l-.64.338-17.602.019c-12.189.018-17.74-.019-18.005-.123l.001.015zm34.912-3.041c.605-.16.941-.641.941-1.298 0-.361-.092-.557-.429-.854l-.44-.393-1.799.053c-1.763.035-1.783.035-2.1.41-.434.498-.434 1.156.018 1.671.178.213.465.428.625.459.6.112 2.7.077 3.184-.048zm-34.574-8.648c-.69-.196-1.299-.713-1.477-1.265-.336-1.035-.195-1.37 3.594-8.968 3.574-7.118 3.63-7.225 4.5-8.097.98-.961 2.061-1.584 3.291-1.905 1.195-.32 14.08-.32 15.248-.017 1.195.32 2.314.96 3.295 1.921.875.854.906.943 4.5 8.115l3.631 7.242.02.89c.02 1.033-.23 1.441-1.065 1.887-.517.285-.606.285-17.793.302-11.212.019-17.443-.034-17.744-.105z" fill="#fff"/></g><defs><clipPath id="clip0_227_27795"><path fill="#fff" d="M0 0h106v106H0z"/></clipPath></defs></svg>