<svg width="440" height="440" fill="none" xmlns="http://www.w3.org/2000/svg"><mask id="a" style="mask-type:alpha" maskUnits="userSpaceOnUse" x="0" y="0" width="440" height="440"><path fill="#E5F1F1" d="M0 0h440v440H0z"/></mask><g mask="url(#a)"><path fill-rule="evenodd" clip-rule="evenodd" d="M235.562 415.386c-.891-.703-5.484-3.281-9.703-16.688-4.219-13.407 1.125-17.813 4.688-20.25 3.563-2.437 104.813-43.688 104.813-43.688s4.5-2.063 12.375.188c7.875 2.251 6.188 2.25 10.5 7.875s6.938 14.25 7.875 17.25c.937 3-2.812 6.75-4.875 8.438-2.064 1.688-124.923 46.781-125.673 46.875z" fill="#B3C72B"/><path d="M234.906 416.217c-.016-.013-.083-.06-.2-.145-1.351-.981-5.823-4.233-9.859-17.059-2.196-6.978-1.881-11.67-.546-14.952 1.365-3.354 3.746-5.188 5.648-6.489 3.663-2.507 104.721-43.678 105.012-43.796l.001.003c.489-.208 5.249-2.085 13.063.147 6.583 1.881 6.866 2.292 9.015 5.421.513.747 1.146 1.669 2.037 2.832 4.318 5.632 6.959 14.096 7.972 17.341l.074.237c.482 1.544.029 3.17-.845 4.683-1.159 2.006-3.081 3.837-4.371 4.893-.855.7-18.138 7.275-39.655 15.301-36.747 13.707-86.059 31.744-86.561 31.807l-.434.055-.351-.279zm-8.033-17.834c3.652 11.606 7.499 14.804 8.898 15.838 4.375-1.51 50.71-18.505 85.741-31.571 21.322-7.953 38.386-14.418 39.05-14.961 1.16-.949 2.881-2.58 3.881-4.311.601-1.041.932-2.099.653-2.989l-.074-.237c-.981-3.146-3.541-11.351-7.631-16.685a63.714 63.714 0 01-2.104-2.924c-1.761-2.564-1.992-2.901-7.843-4.573-7.504-2.144-11.633-.251-11.645-.246l-.042.021c-.29.118-101.151 41.211-104.613 43.579-1.659 1.136-3.732 2.725-4.875 5.534-1.171 2.883-1.419 7.099.604 13.525z" fill="#8A4F59"/><path fill-rule="evenodd" clip-rule="evenodd" d="M329.6 115.704s-1.688-1.219 8.531-3.657c10.219-2.438 14.344 0 15.281 1.969.937 1.969-4.875 4.781-9 4.875-4.125.094-9.281-.469-11.906-1.031-2.625-.563-2.906-1.219-2.906-2.156zm-8.72-21.376s-1.968-2.438 1.594-4.5c3.563-2.063 9.469-3.563 14.813-5.25 5.344-1.687 13.5-4.5 17.625-4.406 4.125.094 5.625 1.875 5.438 3.656-.187 1.781-4.313 4.594-7.875 5.531-3.563.938-11.813 2.438-16.219 3.47-4.406 1.03-11.156 2.343-12.469 2.53-1.313.188-2.345-.562-2.907-1.03zm-14.529-23.344s-1.5-1.219 1.313-3.75c2.813-2.53 8.813-7.875 13.406-10.594 4.593-2.719 10.125-6.094 13.781-6.375 3.656-.28 4.688 2.438 4.125 3.938-.563 1.5-3.656 3.375-10.875 6.563-5.539 2.446-13.179 6.345-18.094 10.031-1.125.844-2.813.844-3.656.187zm-7.971-16.405s-1.969-1.594-.094-4.5c1.875-2.906 5.813-6.844 8.719-9.188 2.906-2.343 5.344-4.593 7.594-3.656 2.25.937 1.875 3.562 1.125 5.062-.75 1.5-5.625 5.344-7.125 6.469s-4.688 4.313-5.906 5.063-3.094 1.968-4.313.75z" fill="#00B8E8"/><path fill-rule="evenodd" clip-rule="evenodd" d="M397.1 458.267s0-9.75-14.625-39.75-37.5-70.125-41.625-76.875-16.875-31.125-16.875-31.125-1.125-3 2.25-10.125 15-33.75 18-40.875-.75-17.625 3.375-39.75 10.5-38.25 15.75-46.875 8.625-20.625-.375-24.375-27-8.25-39.75 13.875-8.25 30.75-13.5 40.875l-5.25 10.125s-12-47.25-16.875-67.875-12.75-50.25-17.25-67.5-9.375-30.375-13.5-34.875-8.25-4.5-12.75-3.376c-4.5 1.126-6.375 2.626-6.375 2.626s-2.25-17.25-10.875-21.75-15.75-2.625-22.125 1.875-7.125 9-7.875 11.25-1.5 6-1.5 6-9.75-4.876-16.875 4.874-6 21-6 27.375-4.125 48.376-4.125 48.376l35.625 218.625 11.25 9.75s10.5 21.75 15 32.25 15.75 40.875 25.875 72.75 141 4.5 141 4.5z" fill="#FFA37A"/><path fill-rule="evenodd" clip-rule="evenodd" d="M287.835 468.541c-3.718-10.303-10.767-29.971-13.735-39.148-4.125-12.75-7.5-30.75-7.125-36s-3.375-7.5-6.375-15-4.875-12-3.75-15.375 1.875-3.75 1.875-3.75-24.375-10.125-33.375-19.125-16.5-30.375-16.5-30.375L182.6 106.143s-2.625-21-1.875-34.5 2.625-20.25 6-25.5a185.149 185.149 0 015.052-7.421c-3.487-.545-8.896-.11-13.302 5.92-7.125 9.75-6 21-6 27.375s-4.125 48.375-4.125 48.375l35.625 218.625 11.25 9.75s10.5 21.75 15 32.25 15.75 40.875 25.875 72.75c2.855 8.989 15.316 13.266 31.735 14.774zM195.996 36.859h.01s-.75 7.5.094 12.845c.844 5.344 1.78 9.656 4.03 21.375 2.251 11.719 3.657 18.469 4.595 23.625.937 5.156 3.563 16.219 4.875 23.156 1.312 6.938 4.405 21.47 5.719 29.907 1.313 8.438 3 22.313 3 22.313s5.063-5.063 5.438-10.125-3.938-36-6-43.5c-2.063-7.5-6.188-29.813-9.75-45-3.563-15.188-3.75-28.875-.75-36.938 2.852-7.664 2.485-10.246 9.206-16.441-4.246.172-8.113 1.88-11.737 4.439-6.375 4.5-7.125 9-7.875 11.25-.302.904-.603 2.047-.855 3.094zm41.681 5.197l-.046.149s-7.688 6.563-7.688 17.813 4.5 31.125 6.563 41.438c2.063 10.313 6.75 29.438 8.625 37.313 1.875 7.875 5.25 22.875 5.25 22.875s6.188-5.625 4.313-21.937-8.438-36.938-12.188-48.75c-3.75-11.812-5.813-24.375-4.5-33.938 1.313-9.563 5.063-12.938 8.813-15.375 1.461-.95 3.064-1.643 4.478-2.136-2.326-.641-4.704-.363-7.196.26-4.5 1.125-6.375 2.625-6.375 2.625l-.049-.337zm19.621 1.607l12.152 30.98c-4.08-14.977-8.402-26.39-12.152-30.98zm39.943 141.034c-.562 5.319-1.432 11.91-2.61 16.134-2.25 8.063-7.125 18.375-9.375 24.938-2.25 6.563-2.25 11.438-2.25 11.438s7.5-6.563 13.313-12c5.044-4.719 8.677-11.98 10.528-16.39l-2.372 4.576s-3.353-13.204-7.234-28.696zm54.812-39.11c1.534 2.684 3.308 7.279 3.516 14.369.375 12.75-9.75 23.625-12.375 29.063-2.625 5.438-7.5 9.375-8.438 36.188-.938 26.813-5.063 39.563-7.688 45.75-2.625 6.187-15.375 30.188-15.375 30.188s-13.875 23.063-17.063 29.438c-3.188 6.375-7.125 14.063-7.125 14.063s6.375-1.125 11.438-3.75c5.063-2.625 15.375-4.5 20.438-1.125 5.063 3.375 18.188 12.375 27.938 49.125 8.751 32.984 6.174 63.398 3.791 76.877 25.439-3.207 45.99-7.504 45.99-7.504s0-9.75-14.625-39.75-37.5-70.125-41.625-76.875-17.813-33.75-17.813-33.75-.75-1.688 3.188-8.813c3.938-7.125 15-32.438 18-39.563s-.75-17.625 3.375-39.75 10.5-38.25 15.75-46.875 8.625-20.625-.375-24.375c-2.876-1.2-6.673-2.473-10.922-2.931z" fill="#FF8C61"/><path d="M395.974 457.452c-.329-2.872-2.325-13.587-14.456-38.471-5.627-11.543-12.461-24.558-18.974-36.587-10.442-19.285-20.069-36.057-22.602-40.2-4.131-6.762-16.871-31.117-16.908-31.188a1.28 1.28 0 01-.06-.138h-.002c-.004-.009-1.272-3.406 2.291-10.931 1.458-3.078 4.503-9.904 7.723-17.216 4.188-9.51 8.611-19.699 10.261-23.617 1.285-3.052 1.248-6.921 1.196-12.245-.063-6.525-.146-15.174 2.112-27.285 1.901-10.2 4.28-19.135 6.807-26.655 2.994-8.91 6.202-15.852 9.08-20.581a42.6 42.6 0 002.926-5.719c1.396-3.351 2.266-6.796 2.117-9.78-.14-2.811-1.209-5.216-3.654-6.705a9.234 9.234 0 00-1.266-.639c-4.374-1.823-10.928-3.829-17.891-2.699-6.942 1.126-14.352 5.393-20.534 16.121-7.731 13.417-9.04 21.806-10.098 28.598-.688 4.417-1.275 8.183-3.378 12.236l-5.25 10.125a1.06 1.06 0 01-1.97-.225l-.002.001c-.034-.136-11.987-47.201-16.879-67.896-4.063-17.19-10.166-40.468-14.69-57.728-.927-3.537-1.789-6.82-2.552-9.748-2.291-8.78-4.677-16.482-7.009-22.505-2.197-5.675-4.323-9.822-6.246-11.92-1.891-2.063-3.761-3.09-5.661-3.47-1.929-.384-3.939-.117-6.051.41-4.284 1.07-5.973 2.422-5.977 2.425a1.06 1.06 0 01-1.705-.688h-.002c-.007-.048-2.183-16.71-10.314-20.952-4.103-2.141-7.833-2.768-11.283-2.326-3.461.442-6.683 1.97-9.741 4.128-5.389 3.804-6.532 7.602-7.22 9.887a23.63 23.63 0 01-.261.828c-.722 2.167-1.465 5.873-1.467 5.884a1.06 1.06 0 01-1.518.73c-.435-.21-9.101-4.255-15.54 4.556-6.118 8.372-5.942 18-5.826 24.417.018.948.034 1.838.034 2.332 0 6.19-3.862 45.706-4.12 48.34l35.541 218.112 10.959 9.498c.113.098.2.214.261.341l.001-.001c.03.063 10.51 21.772 15.021 32.296 2.504 5.843 7.084 17.8 12.393 32.725 4.25 11.95 8.985 25.856 13.516 40.121.596 1.876 1.659 3.538 3.127 5.005 11.232 11.233 45.314 10.953 76.588 7.865 28.637-2.829 54.762-7.979 59.153-8.866zm-12.546-39.401c14.726 30.205 14.729 40.165 14.729 40.194h-.001c.008.396-.208.779-.585.968 0 0-28.902 6.088-60.542 9.213-31.775 3.138-66.502 3.326-78.299-8.472-1.697-1.697-2.936-3.646-3.642-5.868-4.491-14.14-9.227-28.042-13.499-40.056-5.297-14.893-9.857-26.8-12.343-32.599-4.249-9.913-13.842-29.845-14.886-32.01l-11.066-9.591a1.057 1.057 0 01-.369-.645l-35.624-218.626a1.042 1.042 0 01-.009-.274c.012-.12 4.117-41.916 4.117-48.27 0-.933-.013-1.593-.025-2.299-.122-6.701-.305-16.757 6.232-25.703 6.074-8.313 13.949-6.715 16.953-5.697.287-1.309.775-3.392 1.272-4.884.042-.125.136-.436.236-.77.767-2.549 2.042-6.787 8.033-11.015 3.316-2.341 6.846-4.002 10.696-4.495 3.862-.495 8.009.19 12.529 2.549 7.474 3.898 10.374 16.52 11.18 20.972 1.097-.57 2.841-1.319 5.323-1.939 2.387-.596 4.689-.892 6.98-.434 2.317.464 4.572 1.688 6.807 4.126 2.109 2.3 4.374 6.673 6.662 12.585 2.361 6.1 4.772 13.88 7.083 22.738.764 2.928 1.625 6.212 2.552 9.748 4.545 17.336 10.675 40.718 14.707 57.777 4.166 17.629 13.571 54.832 16.185 65.149l3.964-7.644c1.95-3.76 2.512-7.362 3.17-11.588 1.085-6.966 2.427-15.57 10.355-29.328 6.567-11.396 14.533-15.943 22.028-17.16 7.474-1.213 14.421.905 19.046 2.832.557.232 1.075.496 1.556.789 3.129 1.904 4.493 4.917 4.667 8.415.166 3.324-.77 7.082-2.274 10.694a44.702 44.702 0 01-3.075 6.01c-2.806 4.609-5.941 11.403-8.881 20.149-2.498 7.436-4.851 16.272-6.732 26.364-2.223 11.924-2.141 20.452-2.078 26.886.054 5.576.092 9.627-1.363 13.084-1.729 4.109-6.162 14.325-10.269 23.65-3.21 7.289-6.259 14.123-7.748 17.267-2.944 6.216-2.335 8.896-2.224 9.272.837 1.597 12.816 24.461 16.795 30.973 2.545 4.165 12.203 20.989 22.659 40.301 6.545 12.084 13.399 25.135 19.018 36.662z" fill="#8A4F59"/><path fill-rule="evenodd" clip-rule="evenodd" d="M189.161 86.551s-.188-2.25 3-2.438c3.188-.188 3.656 1.171 1.594 1.968-2.062.797-2.437.516-3.375.75-.938.235-1.313.235-1.219-.28zM214.1 68.505s.938-1.968 4.313-1.968c3.376 0 5.532.937 3.656 2.063-1.875 1.125-4.594 1.218-6 1.313-1.407.092-1.969-.283-1.969-1.408zm34.592 19.968s-.656-2.25 2.532-3.844c3.188-1.594 6.75-2.625 8.719-1.688 1.968.938 1.124 3.094-1.876 3.375-2.999.281-4.594.844-5.625 1.594-1.031.75-3.187 1.688-3.75.563zm-26.904 28.406s-.751-1.5 2.999-2.25 6 .094 6.094 1.125c.094 1.031-2.906 1.688-5.719 2.063-2.813.375-3.469.094-3.374-.938zm37.499 6.564s-.188-1.125 3.28-1.125 4.313-1.313 6.188-1.781c1.876-.469 3.282 1.125 1.781 2.625-1.5 1.5-5.062 2.25-7.218 2.25-2.157 0-4.969-.75-4.031-1.969zm.141 41.11s.376-1.641 4.267-2.438c3.89-.797 8.203-.656 8.719.516.516 1.172-1.922 2.203-4.97 2.391-3.047.188-5.25.188-6.375.516s-1.922-.188-1.641-.985zm-33.142 7.735s-.75-1.969 3.938-3.281c4.688-1.313 8.438-1.031 8.719.281.281 1.312-2.438 2.344-4.406 2.344-1.968 0-4.406.75-5.344 1.219-.938.468-2.719.655-2.907-.563zm3 60.093s5.813-1.406 8.813-2.813c3-1.407 11.719-4.219 12.375-5.531.656-1.312 1.031-3.188-3.844-1.969s-9.094 3.375-11.438 4.406c-2.344 1.031-6.281 1.406-6.844 2.531-.563 1.125 1.501 3.845.938 3.376zm25.405-13.031s-.281-1.969 3.094-3.563 6.375-3.375 6.188-1.969c-.187 1.406-3.563 5.063-5.344 5.344-1.781.281-3.281 1.313-3.938.188zm36.94 31.407s-3.844-2.063-4.969-3.844c-1.125-1.781-2.438-5.25-1.594-6.094.844-.844 2.25.938 3 2.813.75 1.875 3.563 4.313 4.313 5.25.75.937 1.125 2.157-.75 1.875zm28.686-1.875s-.563-1.406.563-3.469c1.126-2.063 1.688-4.031 2.063-5.531.375-1.5 2.345-3.188 2.625-1.219.281 1.969.375 5.906-1.031 7.5-1.406 1.594-1.595 4.126-4.22 2.719zm.47-45.28s2.625 2.625 4.594 3c1.969.375 3.656-.563 2.156-2.063-1.5-1.5-4.501-3.844-6.47-4.5-1.968-.656-4.405-.938-3.187.469 1.218 1.407.657 2.062 2.907 3.094zm1.969-6s.28-2.156 2.906-.75c2.625 1.406 3.469 1.219 4.406 1.875.937.656 1.312 2.719-1.032 2.438-2.343-.282-5.249-1.219-6.28-3.563z" fill="#FF8C61"/><path fill-rule="evenodd" clip-rule="evenodd" d="M323.225 180.445c-.094-.469-1.5-5.156 1.406-10.313 2.906-5.157 3.938-7.782 6.469-8.625 2.531-.844 3.75-.094 1.5 2.906s-3.563 4.968-4.594 7.5c-1.031 2.531-2.438 6.375-2.906 8.063-.468 1.688-1.125 2.063-1.875.469zm13.217-22.78c0-.469-.094-2.063 2.063-3.375 2.157-1.312 3.563-2.438 4.406-.844.844 1.594-1.5 2.995-2.766 4.032s-3.452 1.941-3.703.187zM250.756 48.82s-1.219-1.5.188-1.5 3.75 2.156 4.875 4.031c1.125 1.875 2.438 3.75 2.813 6.094.375 2.344-.188 3.281-1.5 1.594s-2.25-4.03-3.469-5.813c-1.219-1.782-1.97-2.812-2.907-4.406zm10.03 21.938s-2.063-1.5-1.875-2.625c.188-1.125 1.875-.656 2.719.47.844 1.124 2.25 3.374 1.125 3.75-1.125.374-1.313-.564-1.969-1.595z" fill="#FFBA8F"/><path fill-rule="evenodd" clip-rule="evenodd" d="M232.004 316.76s.563 3.375 1.688 5.625c1.124 2.25 2.063 1.125 2.625-.938.562-2.063-.375-5.438-1.688-9.375-1.313-3.938-3.75-6.001-5.625-7.688-1.876-1.688-2.813 1.688-1.313 3.376 1.5 1.688 2.25 2.812 2.813 4.313.563 1.5.751 1.5 1.5 4.687zm24.938 7.499s.75 3.75 2.25 7.313c1.5 3.563 3.188 1.874 2.25-.75-.938-2.625-1.875-4.313-1.875-6 0-1.688-.188-3.75-2.063-3.938-1.874-.188-1.124 2.249-.562 3.375zm63.376-66.938s-2.063.188-3.375 4.125c-1.313 3.938-2.813 10.501-5.25 15.001s-8.813 15.187-7.125 16.874c1.688 1.688 6.75-6.563 7.875-9.375 1.125-2.812 5.25-10.875 6.75-15s3.75-11.438 1.125-11.625zm-45.751 97.314s-2.719 1.313-2.719 2.25 3.751 1.031 6.281-.375c2.531-1.406 6.095-5.156 6.938-6.938.844-1.781 1.125-4.406-.188-3.469-1.313.937-3.375 3.75-4.688 4.781-1.31 1.032-1.592 1.501-5.624 3.751zm12.937 97.968s-3.563-7.125-5.438-12.75c-1.875-5.625-2.25-8.625-2.25-10.313 0-1.688 1.5-4.125 2.625.375s2.813 10.688 4.5 14.625c1.688 3.938 4.125 7.688 4.125 7.688s-3.562.563-3.562.375zm55.502-21.375s-1.313-10.688-2.438-15.375c-1.126-4.688-3.375-12.188-3.188-14.438.187-2.25 2.25-2.438 3.188 1.688.937 4.125 5.999 19.5 6.374 24.938.375 5.438.376 8.063-1.124 8.25-1.5.187-2.812-3-2.812-5.063z" fill="#FF8C61"/><path d="M206.625 342.752a1.061 1.061 0 011.445-1.553c.021.02 7.195 6.735 16.038 10.88 8.869 4.157 12.125 4.79 12.135 4.792a1.063 1.063 0 01-.416 2.085c-.01-.002-3.485-.679-12.615-4.958-9.158-4.292-16.566-11.225-16.587-11.246zm125.82-59.455a1.062 1.062 0 011.993.731c-2.415 6.586-9.479 20.455-16.973 32.659-5.729 9.33-11.738 17.724-16.181 21.243a1.058 1.058 0 11-1.311-1.661c4.221-3.344 10.063-11.535 15.682-20.686 7.425-12.09 14.411-25.797 16.79-32.286zm-67.001-33.989a1.062 1.062 0 011.744 1.212c-.019.027-6.624 9.384-10.329 28.098-3.71 18.735-.759 33.492-.75 33.535a1.061 1.061 0 01-2.085.398c-.008-.044-3.039-15.202.75-34.341 3.793-19.16 10.651-28.874 10.67-28.902zm-37.959-22.956a1.062 1.062 0 11-.713-2.001c.027-.01 9.567-3.378 18.691-7.288 9.083-3.892 16.866-9.081 16.889-9.096a1.063 1.063 0 011.18 1.768c-.023.015-7.945 5.297-17.237 9.279-9.251 3.964-18.781 7.328-18.81 7.338zm14.974-187.286a1.06 1.06 0 01.465 2.069c-.014.003-4.792 1.035-8.115 6.02-1.696 2.544-2.703 5.297-3.24 8.075-.543 2.808-.61 5.647-.429 8.332.185 2.725.717 7.166 1.319 11.401.606 4.267 1.283 8.31 1.746 10.162.605 2.421 2.829 13.168 4.559 21.525.883 4.271 1.633 7.893 2.011 9.632.933 4.286 10.563 44.958 10.59 45.074a1.063 1.063 0 01-2.067.49c-.027-.117-9.654-40.777-10.598-45.116-.271-1.247-1.071-5.11-2.012-9.657-1.716-8.291-3.923-18.955-4.543-21.434-.479-1.917-1.171-6.043-1.787-10.377-.608-4.28-1.147-8.781-1.335-11.56-.193-2.847-.12-5.867.461-8.871.588-3.036 1.692-6.05 3.557-8.849 3.801-5.7 9.401-6.913 9.418-6.916zm-23.23 130.476a1.063 1.063 0 01-2.111.248c-.005-.049-2.064-17.082-5.612-36.688-1.4-7.74-3.349-17.669-5.277-27.223-2.976-14.738-5.914-28.628-6.714-32.17l-.094-.414c-1.45-6.414-6.203-27.438-4.692-34.9a1.059 1.059 0 012.076.415c-1.421 7.018 3.257 27.708 4.684 34.02l.094.416c.794 3.515 3.731 17.406 6.723 32.219 1.934 9.581 3.887 19.53 5.286 27.264 3.576 19.769 5.631 36.764 5.637 36.813z" fill="#8A4F59"/><path fill-rule="evenodd" clip-rule="evenodd" d="M224.547 388.76s19.499 3.938 47.062-4.313 41.063-18.188 50.625-23.813c9.562-5.625 30.75-23.813 30.75-23.813s3.188 2.625 6.938 8.25c3.75 5.625 6.564 14.813 6.564 14.813s1.313 2.625-7.125 10.125-27.376 23.25-52.689 34.688c-25.313 11.438-47.25 12-56.25 12.188-9 .188-14.063-.375-15.75-1.688-1.687-1.313-4.313-5.25-7.125-11.813-2.812-6.563-3.188-12.936-3-14.624z" fill="#D1E638"/><path fill-rule="evenodd" clip-rule="evenodd" d="M319.138 368.696s-1.219-1.313 2.438-3.281c3.657-1.968 8.25-5.25 10.875-6.75s5.063-4.125 6.469-4.594c1.406-.469 3.469.469 2.813 1.688-.656 1.219-5.531 4.969-8.813 6.844-3.282 1.875-7.219 4.125-9.563 4.969-2.344.844-3.563 1.874-4.219 1.124zm24.562-15.844s-.469-.75.938-2.344c1.407-1.594 3-3.093 4.219-2.25 1.219.844-.281 2.719-1.969 3.938-1.688 1.219-2.813 1.406-3.188.656z" fill="#E3F566"/><path fill-rule="evenodd" clip-rule="evenodd" d="M356.356 365.603s-.656-1.406 1.125-2.906c1.781-1.5 3.094-1.875 4.031-1.219.937.656-.844 2.532-2.156 3.188-1.312.656-1.593 1.5-3 .937zm-3.935 2.719s-.563-2.062-5.438.188c-4.875 2.249-10.594 5.906-14.438 7.874-3.844 1.969-12.563 4.875-16.406 6.657-3.844 1.781-6.375 1.594-6.375 2.156s.75 2.25 9.188-1.031c8.438-3.282 19.406-7.313 22.781-8.719 3.375-1.406 6.75-3.376 8.531-4.313 1.781-.937 2.626-1.687 2.157-2.812z" fill="#B3C72B"/><path fill-rule="evenodd" clip-rule="evenodd" d="M366.014 361.758s-11.25 9.845-24.938 16.407c-13.688 6.562-30.844 11.812-38.531 13.78-7.688 1.97-18.75 2.156-25.125.375-6.32-1.766-10.613-4.637-11.417-6.331-24.563 6.179-41.456 2.771-41.456 2.771-.188 1.688.188 8.063 3 14.625 2.812 6.562 5.438 10.5 7.125 11.813 1.687 1.313 6.75 1.875 15.75 1.688 9-.187 30.938-.75 56.25-12.188s44.25-27.188 52.688-34.688c4.428-3.936 6.17-6.528 6.826-8.104-.106-.107-.166-.159-.172-.148z" fill="#B3C72B"/><path d="M224.745 387.719c.056.011 19.25 3.887 46.562-4.288 23.214-6.948 36.396-15.101 45.665-20.831 1.69-1.045 3.252-2.011 4.728-2.879 9.475-5.573 30.535-23.651 30.596-23.703l.673-.58.689.563c.01.008 3.313 2.729 7.149 8.482 3.83 5.746 6.682 15.063 6.69 15.091h-.003c.188.651.633 4.063-7.429 11.229a227.15 227.15 0 01-20.112 15.943c-8.998 6.337-20.12 13.169-32.846 18.919a137.43 137.43 0 01-34.508 10.392c-9.838 1.604-17.626 1.794-22.157 1.888-4.554.095-8.113 0-10.75-.285-2.806-.303-4.673-.845-5.673-1.622-.99-.77-2.24-2.304-3.62-4.593-1.181-1.957-2.483-4.505-3.828-7.644a40.1 40.1 0 01-2.381-7.666c-.729-3.556-.818-6.409-.698-7.49l.127-1.146 1.126.22zm47.167-2.253c-23.798 7.123-41.65 5.24-46.345 4.541.023 1.288.207 3.304.7 5.705a37.78 37.78 0 002.254 7.259c1.297 3.026 2.555 5.486 3.695 7.377 1.24 2.056 2.309 3.39 3.107 4.011.687.534 2.196.932 4.593 1.19 2.566.277 6.039.371 10.484.278 4.468-.093 12.149-.279 21.858-1.862a135.354 135.354 0 0033.977-10.235c12.586-5.687 23.59-12.447 32.497-18.72a225.24 225.24 0 0019.921-15.793c7.854-6.981 6.865-8.897 6.862-8.903l-.031-.072-.015-.044c-.008-.025-2.765-9.031-6.435-14.534-2.651-3.979-4.983-6.396-6.071-7.43-3.766 3.205-21.579 18.247-30.194 23.315a249.011 249.011 0 00-4.688 2.855c-9.37 5.795-22.7 14.038-46.169 21.062zm35.757-180.756a1.06 1.06 0 111.934.872c-.012.026-4.059 8.968-8.614 15.896-4.609 7.01-17.283 16.279-17.319 16.306a1.06 1.06 0 01-1.254-1.711c.036-.026 12.415-9.08 16.806-15.757 4.443-6.76 8.435-15.58 8.447-15.606z" fill="#8A4F59"/><path fill-rule="evenodd" clip-rule="evenodd" d="M80.958 53.246s-1.125 2.063-5.719-.656c-4.594-2.72-7.969-6.47-11.063-9-3.094-2.531-5.156-5.063-3.656-6.47 1.5-1.405 3.75-1.593 8.344 1.782 4.594 3.375 9 6.938 10.406 8.906 1.477 2.067 2.544 3.64 1.688 5.438zM38.947 68.467c2.903 2.597 12.094 6.656 17.203 8.813 5.109 2.157 11.25 3.656 13.875 3.422 2.625-.234 3.047-2.766 1.359-4.547-1.688-1.78-9.047-4.078-14.344-6.563-5.297-2.485-11.438-5.485-13.266-6.328-1.828-.844-3.754-1.312-5.203-1.172-3.301.318-2.528 3.78.376 6.375zm-2.486 36.891s-.656-2.344 7.688-3.563c8.344-1.219 18.328-.656 20.391-.234 2.063.422 4.125 1.922 2.578 3.797-1.547 1.875-8.719 1.547-11.672 1.688-2.953.141-8.203.75-11.719.703-3.516-.047-7.125-.282-7.266-2.391zm-5.299 56.627s.094 1.312 6.281-1.782c6.187-3.094 16.875-10.406 22.594-13.687 5.72-3.282 8.72-8.719 7.594-10.688-1.124-1.969-5.438-1.781-10.406 1.313-4.968 3.094-10.875 7.5-16.781 12.656-5.906 5.156-10.5 9.657-9.282 12.188z" fill="#00B8E8"/><path fill-rule="evenodd" clip-rule="evenodd" d="M83.511 366.303s-7.5 2.25-11 14-.5 15.25 1.626 18c2.124 2.75 38.499 15 48.624 17.125s74.688 11.938 74.688 11.938 2.5-14.75 3-18.375-.875-6.875-2.125-9-22.375-14.375-33.5-18-63.75-19-63.75-19-4.626-2.125-17.563 3.312z" fill="#FFA100"/><path d="M83.832 367.316c-.02.007-6.965 2.087-10.303 13.29-3.267 10.969-.665 14.325 1.304 16.865l.143.185c.84 1.088 8.88 4.245 18.304 7.563 11.216 3.95 24.278 8.033 29.699 9.171 9.321 1.956 65.325 10.508 73.601 11.769.576-3.419 2.409-14.323 2.82-17.31.228-1.647.025-3.222-.377-4.631-.411-1.438-1.026-2.697-1.611-3.692-.609-1.037-7.285-5.184-15.003-9.33-6.211-3.337-13.045-6.61-17.911-8.196-11.168-3.639-63.566-18.948-63.717-18.992l-.073-.021-.056-.023c-.012-.005-4.21-1.94-16.73 3.32l-.04.018-.05.014zM71.495 380c3.5-11.751 10.97-14.47 11.647-14.694 12.45-5.224 17.646-3.562 18.286-3.315 1.922.562 52.837 15.443 63.725 18.99 4.995 1.628 11.954 4.958 18.26 8.346 8.005 4.302 15.045 8.8 15.826 10.128.664 1.131 1.362 2.56 1.826 4.183.473 1.654.708 3.518.436 5.494-.51 3.699-2.997 18.366-3.004 18.408l-.173 1.034-1.031-.157c-.186-.028-64.552-9.811-74.747-11.95-5.512-1.157-18.69-5.272-29.973-9.246-9.745-3.433-18.16-6.827-19.275-8.27l-.143-.185c-2.256-2.909-5.237-6.757-1.66-18.766z" fill="#8A4F59"/><path fill-rule="evenodd" clip-rule="evenodd" d="M178.808 462.505s3-28.125 17.625-70.125c14.626-42 27-71.25 31.5-81.75s11.251-43.874 5.626-69.75c-5.626-25.875-11.25-48.375-16.875-71.625s-12.751-53.25-16.126-57.375c-3.374-4.125-6.655-8.625-10.687-9-4.032-.375-7.313 1.5-7.313 1.5s-.938-11.625-7.406-25.031c-6.469-13.406-9.75-16.031-14.625-18.75-4.875-2.72-8.906-1.97-8.906-1.97s-1.97-12.187-14.438-13.874c-12.469-1.688-16.875 8.625-16.875 15.469-4.219-2.812-10.593-5.251-15.563-.751-4.97 4.5-3.374 18.095-3.374 19.876 0 1.78.374 12.844.749 22.125.375 9.282 1.032 14.532 1.219 23.907.188 9.375.938 23.438.751 36.469-.188 13.031.468 25.782.843 31.782.375 6-.188 11.906-.188 11.906s-4.256-8.845-16.875-21.188c-12.844-12.562-17.156-11.156-21.281-11.438-4.125-.282-10.781.656-16.688 5.531-5.907 4.875-3.938 9.469-3.563 11.25.375 1.782 2.813 5.437 6.094 9.844 3.28 4.406 5.344 9.469 7.125 12.375 1.78 2.906 4.594 7.688 7.874 11.813 3.28 4.125 8.344 9 15.563 21.094 7.219 12.094 9.375 25.782 11.344 32.532 1.97 6.749 5.063 27.095 5.345 38.157.282 11.062 1.125 25.313-7.688 46.875-8.813 21.562-18.938 63.001-42.375 94.501-23.437 31.5 110.063 11.624 110.063 11.624s18.937-5.625 19.125-6.003z" fill="#FFD6AB"/><path fill-rule="evenodd" clip-rule="evenodd" d="M129.493 459.133s6.188-6.75 13.313-21.188c7.125-14.438 22.125-48 29.813-59.625 7.688-11.625 20.813-35.25 26.063-51s8.813-45 8.813-47.813c0-2.813 2.813-51.375-2.813-88.5-5.625-37.125-9.938-54.562-11.063-58.313-1.125-3.751-7.875-22.875-9.375-25.313-1.5-2.438-4.5-2.625-6.75 3s-.563 18.75.563 27.563c1.126 8.813 4.313 23.25 5.063 33s2.063 27.75 1.875 29.25c-.188 1.5-.75 5.438.938 7.875 1.688 2.438 2.625 5.625 2.625 9.375s.188 6.188-6.188.187c-6.375-6-5.813-14.813-6.75-21.375-.937-6.562-3.75-16.313-3.75-21.938s-1.313-25.688-.75-35.25c.563-9.563 1.125-32.438.938-38.25-.187-5.813-2.625-16.126-9-27.563-6.375-11.436-8.063-11.437-10.5-12.75-2.437-1.312-2.438-1.313-6 1.5-3.562 2.813-5.813 6.938-3.563 19.5 2.25 12.564 6.188 29.439 7.313 44.626 1.125 15.187 1.875 20.812 2.438 33.75.563 12.938 4.125 45.188 4.125 45.188s1.875.75 4.688 4.125c2.813 3.375 4.875 3.75 5.063 5.438.188 1.688-1.125 5.25.75 7.5s5.25 5.25 3.375 5.25-12.75 0-16.875-7.688-4.5-19.5-4.875-26.063c-.375-6.563-3.938-19.5-3.938-28.313 0-8.813-.188-24.938-1.125-31.313s-3.375-22.875-4.313-27c-.938-4.125-2.438-18.938-2.438-25.313s-1.5-20.812-1.5-24.75c0-3.938-.938-7.688-2.063-10.688a39.245 39.245 0 01-.554-1.62 18.4 18.4 0 014.116.117c12.469 1.687 14.438 13.875 14.438 13.875s4.031-.75 8.906 1.968c4.875 2.72 8.156 5.345 14.625 18.75 6.469 13.407 7.406 25.032 7.406 25.032s3.281-1.875 7.313-1.5 7.313 4.875 10.687 9c3.375 4.125 10.501 34.125 16.126 57.375 5.625 23.25 11.249 45.75 16.875 71.625 5.625 25.876-1.126 59.25-5.626 69.75s-16.874 39.75-31.5 81.75c-14.625 42-17.625 70.125-17.625 70.125-.188.378-19.125 6.003-19.125 6.003s-19.982 2.974-43.126 4.798c7.209-7.621 13.084-13.948 12.937-14.169zm-8.981-401.554c-.019 1.297-.019 2.178-.019 2.178s-.375 17.063-.375 21c0 3.938 1.688 19.689 3 27.376 1.313 7.688 2.813 19.875 4.313 31.875 1.5 12 2.25 22.5 2.063 33-.188 10.5.75 21.188.563 26.625-.187 5.437-.938 15.375-.938 19.313 0 3.938 2.25 16.313 1.688 18-.562 1.687-10.313-7.5-9.75-19.875.563-12.375.563-35.25.188-43.5-.375-8.25-.938-27.375-2.438-34.875-1.5-7.5-3.75-19.875-3.938-28.688-.188-8.813.375-16.876 0-22.688-.375-5.813-3.188-19.688-3.938-23.438-.437-2.18-.43-4.74-1.23-6.795 3.783-.556 7.704 1.201 10.605 3.135 0-.837.067-1.729.206-2.644zM104.256 204.62c.177 1.31.3 2.371.3 2.888 0 1.688.938 8.438.938 11.813s.749 8.625.188 10.875c-.563 2.25-.188 11.438.188 13.688.374 2.25 3 9.75 1.875 10.5s-6.188-12.188-8.25-23.063c-2.063-10.876-12.375-24.188-16.313-32.063-3.938-7.875-13.313-18.75-19.5-21.375-3.704-1.571-7.745-1.597-11.356-1.204 5.232-3.34 10.694-4.009 14.263-3.766 4.125.281 8.438-1.125 21.281 11.438 10.225 10.002 14.959 17.707 16.386 20.269z" fill="#FFC78C"/><path d="M177.792 462.054c.387-3.286 3.882-30.509 17.641-70.022 7.335-21.064 14.085-38.878 19.56-52.729a1087.316 1087.316 0 0111.965-29.087c2.586-6.033 5.928-19.757 7.178-35.263.897-11.127.712-23.146-1.614-33.848-4.622-21.258-9.212-40.119-13.802-58.98-1.021-4.198-2.044-8.397-3.065-12.62l-.851-3.517c-5.447-22.545-12.01-49.698-15.066-53.435l-.896-1.108c-2.927-3.614-5.839-7.21-9.064-7.511-3.7-.344-6.693 1.367-6.702 1.372a1.06 1.06 0 01-1.57-.839h-.003c-.003-.033-.923-11.435-7.303-24.658-3.192-6.616-5.585-10.556-7.77-13.163-2.129-2.542-4.081-3.82-6.416-5.122-4.541-2.533-8.202-1.851-8.212-1.85a1.062 1.062 0 01-1.226-.867l-.005-.034c-.11-.63-2.165-11.431-13.527-12.97a18.575 18.575 0 00-2.491-.17c-4.267 0-7.32 1.664-9.397 4.022-2.114 2.4-3.248 5.52-3.633 8.368a16.277 16.277 0 00-.149 2.2 1.063 1.063 0 01-1.708.844c-2.263-1.498-5.15-2.874-8.035-3.013-2.122-.102-4.266.476-6.173 2.203-3.961 3.587-3.315 14.09-3.085 17.83.036.6.063 1.043.063 1.26 0 .954.093 4.149.23 8.225.14 4.116.327 9.193.516 13.86.156 3.875.367 7.109.572 10.24.274 4.207.537 8.227.646 13.687.057 2.876.17 6.245.292 9.894.271 8.1.588 17.588.458 26.608-.076 5.265-.014 10.49.112 15.242.184 6.926.507 12.885.73 16.465.38 6.076-.189 12.056-.191 12.073a1.059 1.059 0 01-2.009.357h-.001c-.012-.025-4.172-8.671-16.663-20.888-11.144-10.899-15.58-11.002-19.188-11.087a32.175 32.175 0 01-1.421-.052c-2.228-.151-5.23.069-8.438 1.132a23.242 23.242 0 00-7.507 4.159c-4.804 3.965-3.84 7.696-3.358 9.562.064.248.122.471.16.654.16.758.814 2.003 1.816 3.589 1.05 1.661 2.465 3.655 4.092 5.839 2.195 2.949 3.84 6.146 5.22 8.833.717 1.393 1.36 2.646 1.958 3.621l.635 1.041c1.765 2.9 4.289 7.047 7.166 10.664.723.909 1.522 1.843 2.41 2.88 3.208 3.746 7.558 8.825 13.23 18.33 5.74 9.617 8.312 20.17 10.112 27.564.49 2.011.923 3.786 1.34 5.217 1.05 3.604 2.413 10.983 3.504 18.775.979 6.999 1.747 14.361 1.882 19.652l.041 1.542c.3 10.938.685 24.978-7.808 45.756-2.15 5.263-4.431 11.876-6.978 19.261-7.69 22.307-17.814 51.669-35.525 75.473-21.695 29.158 106.292 10.352 108.992 9.953 1.249-.368 17.191-5.057 18.329-5.414zm19.642-69.325c-14.273 40.99-17.43 68.615-17.565 69.846a1.055 1.055 0 01-.109.404c-.379.762-18.59 6.194-19.722 6.53-.063.023-.131.04-.201.05-.389.058-136.047 20.267-111.067-13.307 17.507-23.529 27.573-52.722 35.219-74.898 2.53-7.337 4.796-13.907 7.027-19.369 8.322-20.363 7.944-34.155 7.65-44.9v-.005l-.041-1.546c-.132-5.187-.893-12.465-1.866-19.411-1.08-7.71-2.415-14.975-3.437-18.477-.434-1.487-.871-3.278-1.365-5.309-1.77-7.265-4.295-17.633-9.871-26.975-5.577-9.345-9.862-14.349-13.022-18.039-.914-1.067-1.736-2.027-2.461-2.938-2.952-3.712-5.52-7.929-7.314-10.88l-.635-1.041c-.64-1.042-1.3-2.326-2.033-3.753-1.346-2.62-2.948-5.737-5.038-8.543-1.654-2.222-3.1-4.26-4.183-5.972-1.13-1.789-1.883-3.263-2.098-4.286-.035-.167-.083-.35-.136-.555-.594-2.3-1.783-6.904 4.063-11.729a25.359 25.359 0 018.188-4.532c3.514-1.165 6.802-1.406 9.242-1.24.477.033.894.042 1.32.052 3.992.093 8.9.208 20.634 11.684 8.27 8.091 12.998 14.717 15.3 18.381.098-2.212.151-5.228-.039-8.277a468.006 468.006 0 01-.73-16.54 379.552 379.552 0 01-.113-15.317c.129-8.957-.188-18.43-.458-26.517-.121-3.63-.233-6.98-.292-9.919-.105-5.329-.37-9.369-.646-13.596-.201-3.091-.41-6.285-.572-10.29-.186-4.61-.374-9.7-.516-13.876-.143-4.227-.238-7.46-.238-8.29 0-.232-.023-.616-.056-1.135-.246-4.004-.938-15.25 3.783-19.525 2.381-2.156 5.052-2.878 7.692-2.751 2.711.13 5.366 1.167 7.615 2.446.021-.211.047-.425.076-.642.436-3.213 1.726-6.75 4.14-9.49 2.45-2.781 6.027-4.744 10.992-4.744.867 0 1.79.063 2.773.196 11.06 1.497 14.342 10.746 15.128 13.784 1.589-.067 4.879.114 8.59 2.184 2.54 1.417 4.668 2.812 7.014 5.612 2.292 2.736 4.775 6.813 8.052 13.603 5.182 10.74 6.861 20.35 7.34 23.925 1.431-.558 3.819-1.239 6.52-.988 4.121.383 7.311 4.323 10.517 8.283l.896 1.1c3.356 4.102 9.982 31.518 15.482 54.281l.851 3.517c1.021 4.223 2.044 8.422 3.065 12.62 4.616 18.969 9.232 37.938 13.818 59.031 2.375 10.926 2.567 23.156 1.656 34.462-1.27 15.737-4.691 29.737-7.344 35.927-2.237 5.221-6.438 15.114-11.941 29.038a1365.762 1365.762 0 00-19.534 52.646z" fill="#8A4F59"/><path fill-rule="evenodd" clip-rule="evenodd" d="M114.525 68.36s-1.25-4-5.375-4-7.25 2-7.75 6.5.25 14.625.25 15.75 2.375 4.5 6.625 4.625 6.875-2.625 7.375-6.625-.25-7.875-.25-9.625-.625-4-.875-6.625z" fill="#FFEDD4"/><path fill-rule="evenodd" clip-rule="evenodd" d="M112.276 73.736s.5 6-1.25 9.25-4.875 4-7.25 3.25-2.125-8.125-1.75-10.75-.125-7.625 2.5-9.25 6.875-2.125 7.5.125.375 3.5.25 7.375z" fill="#fff"/><path d="M113.483 68.596c-.196-.532-1.321-3.172-4.333-3.172-1.903 0-3.545.462-4.719 1.447-1.06.89-1.77 2.242-1.977 4.106-.38 3.423-.016 10.274.165 13.666a67.98 67.98 0 01.093 1.968c0 .433.686 1.48 1.971 2.378a6.601 6.601 0 003.621 1.188c1.779.052 3.213-.47 4.256-1.405 1.112-1 1.811-2.494 2.035-4.29.336-2.69.084-5.343-.1-7.277-.086-.912-.158-1.676-.158-2.22 0-.89-.183-1.96-.387-3.157-.167-.985-.348-2.053-.467-3.232zm-4.333-5.298c4.904 0 6.38 4.722 6.384 4.735l.034.104.012.124c.106 1.12.293 2.213.464 3.219.221 1.3.419 2.464.419 3.506 0 .517.065 1.203.143 2.02.194 2.044.461 4.847.1 7.734-.288 2.308-1.223 4.26-2.725 5.61-1.439 1.293-3.375 2.015-5.734 1.945a8.71 8.71 0 01-4.775-1.57c-1.88-1.312-2.884-3.206-2.884-4.114 0-.275-.034-.934-.084-1.861-.184-3.451-.555-10.424-.157-14.005.272-2.45 1.251-4.265 2.725-5.501 1.576-1.324 3.688-1.946 6.078-1.946z" fill="#8A4F59"/><path fill-rule="evenodd" clip-rule="evenodd" d="M135.65 59.11s-.5-5.25-6.125-5-7.625 2.25-8.75 6.625-.5 15.5-.5 18 1.375 5.625 6.5 5.375 7.875-1.75 9.75-6 1.125-9.125.75-11.625-.875-4.5-1.625-7.375z" fill="#FFEDD4"/><path fill-rule="evenodd" clip-rule="evenodd" d="M133.024 65.61s0 7.126-3.5 9.876c-3.5 2.75-6.5 3.624-7.875 2.374s-1.125-8.874-1-10.75c.125-1.874-.875-9.874 4.25-11.874s7 1.75 7.625 4.5.625 2.375.5 5.875z" fill="#fff"/><path d="M134.596 59.228c-.001-.012-.405-4.263-5.024-4.058-2.572.114-4.284.603-5.444 1.533-1.141.916-1.82 2.33-2.326 4.295-.869 3.38-.642 11.196-.52 15.39.031 1.105.057 1.98.057 2.349 0 .133.002.229.004.28.047.952.337 1.97 1.049 2.732l.002-.002c.726.774 1.926 1.316 3.816 1.316.209 0 .381-.003.517-.01 2.387-.116 4.2-.511 5.6-1.351 1.361-.816 2.383-2.101 3.229-4.02 1.737-3.937 1.041-8.574.68-10.987l-.009-.055a46.134 46.134 0 00-.655-3.468 122.987 122.987 0 00-.944-3.794l-.022-.083-.01-.067zm-5.117-6.175c6.234-.277 7.131 5.204 7.218 5.875.368 1.412.677 2.618.94 3.779.274 1.212.499 2.365.688 3.626l.008.055c.393 2.619 1.147 7.652-.837 12.15-1.028 2.333-2.32 3.925-4.084 4.983-1.726 1.035-3.851 1.516-6.588 1.649-.252.012-.459.018-.616.018-2.56 0-4.266-.82-5.361-1.99v-.003c-1.107-1.183-1.556-2.693-1.623-4.08a8.777 8.777 0 01-.012-.38c0-.601-.022-1.347-.05-2.288-.124-4.297-.357-12.302.587-15.973.619-2.41 1.504-4.184 3.049-5.424 1.528-1.225 3.63-1.862 6.681-1.997z" fill="#8A4F59"/><path fill-rule="evenodd" clip-rule="evenodd" d="M146.276 64.236s5.625-3.25 10.125 4.25 5.5 13.75 2.75 18.375-3.25 5-7.5 6.375-6.75-3.625-7.875-6.5-1.75-11.625-1.625-14.75 1-6.125 4.125-7.75z" fill="#FFEDD4"/><path fill-rule="evenodd" clip-rule="evenodd" d="M148.525 64.11s5.875 2.875 5.875 9.375-1.625 10.5-3.875 12.125-4.5 2.125-5.625 1.125-3-8.875-2.875-11.75.75-6.375 2-8.25 1.875-2.75 4.5-2.625z" fill="#fff"/><path d="M145.784 63.294c.469-.254 6.676-3.435 11.525 4.648 2.334 3.889 3.758 7.473 4.24 10.7.495 3.304.011 6.24-1.487 8.759-1.436 2.416-2.295 3.732-3.414 4.677-1.145.965-2.415 1.438-4.674 2.168-2.62.848-4.669-.232-6.224-1.956-1.404-1.557-2.368-3.647-2.964-5.167-.528-1.351-.946-3.823-1.234-6.442-.365-3.315-.533-6.928-.461-8.735.067-1.69.343-3.356 1.033-4.84.721-1.55 1.869-2.881 3.66-3.812zm9.707 5.736c-3.964-6.606-8.685-3.875-8.697-3.868l-.029.016c-1.334.693-2.185 1.676-2.714 2.814-.559 1.203-.785 2.6-.843 4.035-.068 1.71.099 5.188.455 8.42.271 2.46.645 4.742 1.1 5.902.529 1.354 1.379 3.203 2.567 4.52 1.038 1.15 2.366 1.885 3.995 1.358 1.991-.644 3.097-1.047 3.953-1.77.879-.742 1.646-1.927 2.958-4.136 1.24-2.084 1.635-4.557 1.214-7.373-.441-2.95-1.771-6.272-3.959-9.918z" fill="#8A4F59"/><path fill-rule="evenodd" clip-rule="evenodd" d="M190.524 112.86c2.5 4 4.625 9.5 4.375 12.125s-1.375 4.75-5 7.25-7 2.25-8.75 1.75-3.5-1.375-4.25-6.625-.625-11.75.75-14c2.455-4.017 10.138-4.879 12.875-.5z" fill="#FFEDD4"/><path fill-rule="evenodd" clip-rule="evenodd" d="M180.901 110.86s5.125-1.625 7 4.125 2 11.25.375 13.875-4.75 4.125-6.875 4-4.75-2.25-4.875-8.625.75-10.5 2-11.875 1.25-1.375 2.375-1.5z" fill="#fff"/><path d="M191.427 112.301a38.202 38.202 0 013.389 6.986c.815 2.259 1.275 4.367 1.14 5.799-.141 1.479-.531 2.822-1.4 4.153l-.002-.001c-.841 1.287-2.12 2.539-4.05 3.87-1.655 1.142-3.266 1.758-4.718 2.048-2.042.408-3.788.176-4.926-.148-1.043-.298-2.094-.716-3.035-1.893-.86-1.076-1.57-2.772-1.975-5.604-.401-2.813-.557-5.984-.412-8.699.138-2.566.557-4.775 1.308-6.003.6-.981 1.455-1.797 2.458-2.424 1.434-.896 3.191-1.416 4.946-1.492 1.774-.077 3.56.298 5.028 1.196a6.806 6.806 0 012.249 2.212zm1.395 7.7a35.962 35.962 0 00-3.198-6.58 4.7 4.7 0 00-1.551-1.523c-1.096-.669-2.459-.949-3.833-.889-1.394.061-2.785.471-3.915 1.177-.734.459-1.351 1.041-1.77 1.727-.558.912-.881 2.768-1.001 5.006-.138 2.579.012 5.602.396 8.292.345 2.417.887 3.784 1.525 4.583.559.698 1.259.968 1.964 1.17.896.256 2.282.436 3.93.107 1.207-.241 2.547-.755 3.929-1.708 1.692-1.167 2.789-2.228 3.479-3.283v-.004c.661-1.012.959-2.045 1.068-3.19.106-1.11-.306-2.897-1.023-4.885z" fill="#8A4F59"/><path fill-rule="evenodd" clip-rule="evenodd" d="M54.963 183.299c1.334-.885 4.5-3.499 9.75-1.5 5.25 2 14.376 10.375 15 15 .625 4.625-2.125 8.75-4 10.625-1.874 1.875-4.5 3.625-7.375 4.875-2.874 1.25-5.125 2-6.875.75s-2.75-3.25-4.375-6.625c-1.624-3.375-5.11-8.013-6.375-9.5-4.262-5.014-1.781-9.625 4.25-13.625z" fill="#FFEDD4"/><path fill-rule="evenodd" clip-rule="evenodd" d="M51.962 185.423s4.626-4.125 7.5-3c2.875 1.125 8.626 5.5 10.376 11.375 1.749 5.875 2.25 10.25-.5 12.75-2.751 2.5-5.376 3.625-7.251 3.25-1.874-.375-4.249-2.25-5.874-5.75-1.626-3.5-3.376-5.125-4.376-6.375-1-1.25-2.625-4-3.125-5.5s3.25-6.75 3.25-6.75z" fill="#fff"/><path d="M54.377 182.414c.13-.087.213-.143.299-.203 1.634-1.125 5.023-3.458 10.414-1.405 2.895 1.102 6.87 4.011 10.066 7.208 2.945 2.944 5.276 6.199 5.606 8.643.29 2.144-.076 4.179-.75 5.966-.908 2.417-2.386 4.388-3.55 5.551-.987.988-2.177 1.945-3.5 2.819a27.8 27.8 0 01-4.202 2.276c-1.507.655-2.861 1.182-4.112 1.387-1.411.232-2.668.064-3.801-.745-1.003-.717-1.777-1.626-2.521-2.819-.696-1.117-1.367-2.488-2.196-4.209-.64-1.33-1.584-2.871-2.562-4.328-1.431-2.133-2.932-4.084-3.667-4.948-.34-.401-.644-.802-.909-1.202-1.464-2.208-1.792-4.366-1.203-6.455.566-2.005 1.986-3.891 4.057-5.651a26.86 26.86 0 012.53-1.885zm1.503 1.541l-.333.228a24.423 24.423 0 00-2.33 1.737c-1.753 1.49-2.94 3.032-3.383 4.605-.421 1.489-.164 3.063.929 4.71.219.33.471.664.759 1.002.763.897 2.32 2.923 3.809 5.14 1.03 1.535 2.028 3.165 2.712 4.585.797 1.654 1.439 2.97 2.087 4.009.6.963 1.202 1.68 1.948 2.213.616.441 1.36.523 2.23.38 1.029-.169 2.239-.644 3.606-1.238a25.595 25.595 0 003.879-2.102 20.483 20.483 0 003.168-2.553c1.006-1.006 2.283-2.71 3.068-4.795.563-1.494.869-3.182.633-4.937-.263-1.943-2.351-4.765-5.008-7.422-3.01-3.01-6.695-5.727-9.32-6.727-4.354-1.658-7.12.247-8.454 1.165zm130.766-82.086a1.063 1.063 0 01.258 2.109c-.014.002-4.975.566-7.332 4.719-1.24 2.187-2.188 4.98-2.457 9.199-.275 4.325.158 10.114 1.703 18.208 2.387 12.51 3.969 25.465 4.975 33.708.324 2.66.591 4.84.783 6.217.882 6.297 1.257 24.323 1.258 24.375a1.06 1.06 0 01-2.117.042c-.001-.051-.373-17.923-1.241-24.125-.228-1.622-.482-3.707-.792-6.25-1.006-8.242-2.587-21.193-4.95-33.576-1.58-8.281-2.021-14.242-1.735-18.73.293-4.592 1.347-7.675 2.73-10.113 2.893-5.099 8.901-5.781 8.917-5.783zm-28.565 103.334a1.058 1.058 0 11-2.109.192c-.008-.088-2.902-30.918-3.879-42.888a1958.057 1958.057 0 00-1.403-16.42c-.421-4.661-.771-8.21-.968-9.785-.123-.989-.313-3.227-.561-6.15-.51-6.02-1.268-14.958-2.185-21.713-.7-5.155-2.251-12.146-3.646-18.442-1.346-6.07-2.55-11.502-2.737-14.123-.195-2.739-.158-5.78.871-8.736 1.043-2.998 3.087-5.854 6.894-8.125 7.786-4.645 15.96 2.459 15.983 2.48a1.06 1.06 0 11-1.379 1.61c-.021-.017-7.053-6.127-13.517-2.27-3.317 1.979-5.087 4.436-5.98 7.002-.908 2.606-.934 5.376-.755 7.889.179 2.5 1.364 7.843 2.688 13.816 1.407 6.348 2.972 13.4 3.68 18.617.937 6.897 1.692 15.815 2.201 21.82.244 2.889.433 5.102.553 6.067.183 1.459.532 5.039.968 9.851.438 4.835.936 10.608 1.411 16.444 1.021 12.531 3.862 42.777 3.87 42.864zM120.255 53.642a1.06 1.06 0 012.043.565c-.005.02-1.953 6.835-1.338 18.035.311 5.64.623 10.644.922 15.035.293 4.295.575 8.025.828 11.19.236 2.949 1.106 8.476 2.077 14.645 1.099 6.979 2.325 14.771 2.919 20.581.317 3.104.674 6.331 1.017 9.438.817 7.403 1.559 14.117 1.737 19.133l.039 1.087c.281 7.812.95 26.456.711 34.229-.249 8.106-.125 13.189-.125 13.204a1.06 1.06 0 01-2.117.034c0-.015-.126-5.152.125-13.296.237-7.702-.432-26.302-.711-34.096l-.039-1.087c-.174-4.89-.914-11.589-1.729-18.976-.332-3.005-.677-6.126-1.017-9.454-.594-5.811-1.812-13.546-2.902-20.473-.984-6.252-1.866-11.854-2.102-14.802a957.867 957.867 0 01-.828-11.215c-.295-4.328-.606-9.325-.922-15.06-.634-11.551 1.406-18.696 1.412-18.717zm-7.756 171.315a1.059 1.059 0 011.553 1.436c-.006.006-2.182 2.292-1.968 5.078.229 2.969 2.184 5.844 2.188 5.852a1.059 1.059 0 11-1.745 1.204c-.006-.01-2.29-3.369-2.562-6.898-.283-3.714 2.526-6.665 2.534-6.672zm27.288-7.401a1.063 1.063 0 011.727 1.237c-.009.012-3.063 4.24-3.181 9.652-.112 5.213 4.958 9.133 4.973 9.145a1.061 1.061 0 11-1.311 1.669c-.017-.014-5.915-4.569-5.778-10.855.132-6.088 3.56-10.835 3.57-10.848zm26.917-3.481a1.058 1.058 0 011.894.947c-.004.007-1.228 2.455-.771 5.761.433 3.139 4.266 5.62 4.276 5.627a1.06 1.06 0 01-1.154 1.778c-.013-.008-4.656-3.013-5.224-7.122-.544-3.945.974-6.982.979-6.991zm23.057-2.732a1.063 1.063 0 111.778 1.162c-.005.008-1.909 2.808-1.459 6.415.42 3.356 5.189 5.135 5.202 5.14a1.06 1.06 0 11-.764 1.976c-.017-.007-5.968-2.216-6.548-6.859-.549-4.391 1.785-7.824 1.791-7.834z" fill="#8A4F59"/><path fill-rule="evenodd" clip-rule="evenodd" d="M110.588 119.237s-3.125.125-3.25 1.125.938 1.25 3.125 1.188c2.187-.062 2.938-.5 2.625-1.25-.313-.75-1.438-1.125-2.5-1.063zm-.877 4.624c.063.563 1.563 1.938 3.938 1.813s3.25-1.875 1.75-2.063c-1.5-.188-4.376-1.625-5.688.25zm-1.624 21.813s1.625-1.125 4.25-1 5.188-1.125 5.563-.625 1.813 4.188-3.938 4.25c-5.751.062-6.938-.813-5.875-2.625zm5.625 5.187s-2.813.375-2.375 1.813c.438 1.438 2 .313 3.938 0 1.938-.313 3.125-.563 2.688-1.688-.437-1.125-2.626-.562-4.251-.125zm22.686-5.812s-3.813.25-3.375 2.125c.438 1.875 3.125.813 5.063.188 1.938-.625 4.063-.438 4.25-1.375.187-.937-1.188-1.5-2.813-1.5-1.625 0-2.062.374-3.125.562zm.752 4.626s-1.375 2.063.125 2.563 2.938-.813 3.438-1.625 1-2.313-.313-2.313-2.25.562-3.25 1.375zm-3.627-31.375s3.688-.438 4.438.125c.75.563 1.375 1.75-1.063 2.5-2.438.75-5.375.188-5.438-.875-.063-1.063.438-1.438 2.063-1.75zm-4.435-4.75s.5-1.625 4.875-1.313c4.375.313 5.125.938 4.938 2-.187 1.062-2.625 1.25-4.688 1.25-2.063 0-5.375.188-5.125-1.937zm25.186 1.561s.001 1.625 4.688 1.125c4.688-.5 6.563-1.625 7.188-2.5s1.25-2.563-1.251-2.313c-2.5.25-4.625 2.25-7 2.125s-3.812.5-3.625 1.563zm5.688 3.375s-1.75.938-.563 2.375 3.063.625 4.188.063c1.124-.563 2.625-1.937 2.187-3-.437-1.063-3.062-1.313-5.812.562zm-2.564 30.25s-1.063-2.313 2.5-3.25c3.563-.937 5.625-.188 5.813 1.25.188 1.438-3.312 2.063-5.063 2.313-1.75.25-2.75.875-3.25-.313zm26.565.812s.499-1.938 3.937-2.187c3.438-.25 3.5.562 3.75 1.625s-2.187 2.25-4.437 2.25c-2.251 0-2.938-.188-3.25-1.688zm5.312 23.376s.188-1.813 3.78-1.75c3.591.063 3.969 1 3.969 1.875s-.692 1.688-2.374 1.688c-1.687-.001-5.188-.064-5.375-1.813zm2.189 4.751c2.875-1.188 4.937-1.188 5.437-.25.5.937-.749 2.25-2.124 2.438-1.375.187-2.001.125-3.563.562-2.486.696-2.803-1.489.25-2.75zm-109.737 54.72s-1.063-1.812.844-3.063c1.906-1.25 4.157-2.78 6-2.594 1.844.188 3.219 1.313 1.938 2.219-1.281.906-3.219 1.063-4.188 1.906-.969.844-2.25 2.063-3.094 2.125-.844.062-1.063-.312-1.5-.593zm3.875 5.311c-.375-.188-1.25-.906-.594-2.188s1.906-2.844 3-3.625c1.094-.781 2.781-1.656 3.72-1.125.937.531.437 2.219-.97 3.344s-2.563 1.969-3.25 3.125c-.687 1.156-1.53.751-1.906.469zm27.282 23.596s3.438 3.563 4.688 2.813c1.249-.75 0-3.063-1.25-4.188-1.251-1.125-3.813-3.438-5.251-2.938-1.438.5-2.374 1.563-.813 2.126 1.564.561 2.001 1.124 2.626 2.187zm18.874-18.313c1.313-.625 2.876 1.563 4.188 2.938 1.312 1.376 2.124 4.438 2.124 5.625 0 1.188-.938 1.938-1.625 1.875-.687-.063-2.938-2.813-3.125-4.5-.187-1.688-.375-1.999-1.375-3.312-.999-1.314-1.249-2.126-.187-2.626zm38.751-12.625s2.626-.687 3.813 2.813c1.188 3.5 1.438 5.938.125 6.438-1.312.5-2.875-1.874-3.188-3.75-.313-1.875-.688-2.938-1.313-3.813s-.25-1.188.563-1.688zm24.312 2s-1.751-.063-1.25 3.187c.5 3.251 1.249 7.875 3.499 8.75 2.251.875 1.938-.749 1.813-2.375-.125-1.625-1.187-4.125-1.749-5.875-.564-1.75-1.064-3.876-2.313-3.687zm-1.563 13.251s-.813 1.249.25 3.312c1.063 2.063 1.376 3.563 2.626 3.126 1.25-.438 1.188-2.626.75-4.188-.439-1.564-2.501-3.626-3.626-2.25zm3.938 56.625s-2.125-1.625-3.875 5.125-6.25 22.874-9.875 30.75c-3.625 7.875-13 20.75-10 24s9-13 11.875-17.5 9.25-25.5 10-29.875 3-11.375 1.875-12.5zm-26.25 68.875s-2.125-.375-3.75 4.125-2.625 6.75-.875 7.125 2.625-3.25 3.375-5 3.125-5 1.25-6.25z" fill="#FFC78C"/><path fill-rule="evenodd" clip-rule="evenodd" d="M103.199 279.363s2.75-2.374 5.25 12.126c2.499 14.499 1.624 22.875.749 26.125-.874 3.249-1.124 4-2.625 3.874-1.5-.125-1.625-3.624-1.375-9.125.25-5.5.375-15.5-.125-19.75s-3-12.375-1.874-13.25zm4.75 46.876s-2.626.749-2.251 2.999c.375 2.251-1.25 5-1.5 6.751-.25 1.75 1.501 1.624 3.501-.75 1.999-2.375 2.374-8.625.25-9zm-30.124 89.938s-1.688-.688-3.563 3.25c-1.874 3.938-3.813 8.75-4.249 9.875-.438 1.125-1.5 2.563-.313 3.125 1.187.562 2.688-2.438 4.625-5.438 1.937-3 2.875-6.313 3.438-7.75.562-1.437.875-2.874.062-3.062z" fill="#FFEDD4"/><path fill-rule="evenodd" clip-rule="evenodd" d="M83.323 366.366s-4.75 1.375-8.25 7.75-4.124 11.875-4.374 13.75-.126 6.75 4.75 12.125c4.874 5.375 11.75 11.751 23 19.125 11.25 7.374 16.419 10.97 36.125 17.75 12.087 4.158 50.525 6.201 57.875 3 1.976-1.201 4.75-13.125 5.75-16.25s1.875-14 1.875-14-8.75 3.124-22.125 2c-13.375-1.125-32.375-5.375-47.375-12.25s-27.125-14.375-34.75-20.5c-7.626-6.125-12.626-12.625-12.5-12.5z" fill="#00B8E8"/><path fill-rule="evenodd" clip-rule="evenodd" d="M172.324 410.99s-16.75 8.625-39.5 6.625-59.375-14.375-61.125-23.375 1.375-16.125 3.125-19.625 7-7.875 7.875-8.125 2.125 1.25 3.875 3.75 7.75 8 19 15.375 17.375 10.875 34.375 17.5 32.375 7.875 32.375 7.875z" fill="#008CCF"/><path fill-rule="evenodd" clip-rule="evenodd" d="M83.325 376.239s2.375-.125 5.75 2.375 12 8.25 13.75 10 3.374 3.125 1.625 3.875c-1.75.75-10.375-6.75-12.5-8.5s-3.75-2.625-5.125-3.75-5.375-3.125-3.5-4z" fill="#0096D4"/><path d="M82.973 367.637c-1.343.604-4.459 2.417-6.969 6.988-3.28 5.978-3.964 11.167-4.227 13.163l-.028.213c-.136 1.022-.145 3.044.857 5.601.672 1.716 1.795 3.656 3.628 5.678 2.403 2.65 5.31 5.556 9.014 8.717 3.696 3.155 8.19 6.564 13.782 10.229l1.067.7c10.457 6.86 15.875 10.415 34.821 16.934 5.977 2.056 18.562 3.592 30.551 4.213 11.767.609 22.882.352 26.476-1.146 1.17-.87 3.065-7.794 4.298-12.297.392-1.429.719-2.626.947-3.339.733-2.294 1.412-9.121 1.691-12.21-3.113.842-10.732 2.457-21.02 1.593-7.145-.601-15.891-2.09-24.789-4.391-7.859-2.032-15.84-4.701-22.939-7.955-7.188-3.295-13.711-6.726-19.392-10.077-6.273-3.7-11.547-7.318-15.582-10.56-5.492-4.411-9.648-9.028-11.54-11.274-.278-.333-.49-.587-.646-.78zm-8.829 5.967c2.616-4.766 5.944-6.911 7.684-7.764-.324-1.042.772-.996 1.951-.433l.133.063.101.086.002.002 1.455 1.247-.348.108.118.141c1.837 2.182 5.88 6.67 11.25 10.983 3.953 3.176 9.142 6.732 15.332 10.385 5.643 3.328 12.1 6.728 19.193 9.978 6.979 3.198 14.839 5.827 22.591 7.831 8.758 2.264 17.379 3.73 24.432 4.323 13.15 1.106 21.66-1.933 21.685-1.941l1.545-.55-.134 1.634c-.002.031-.884 10.988-1.925 14.241-.229.716-.545 1.87-.921 3.246-1.338 4.889-3.406 12.441-5.285 13.585l-.062.037-.067.029c-3.815 1.661-15.381 1.982-27.511 1.354-12.166-.631-24.98-2.204-31.133-4.32-19.196-6.604-24.691-10.209-35.295-17.166l-1.067-.7c-5.657-3.709-10.226-7.176-13.998-10.396a99.406 99.406 0 01-9.205-8.908c-2.032-2.24-3.282-4.405-4.034-6.325-1.167-2.978-1.146-5.406-.98-6.646l.027-.214c.275-2.108.997-7.591 4.466-13.91z" fill="#8A4F59"/><path fill-rule="evenodd" clip-rule="evenodd" d="M107.699 393.864s-.375.5 2.375 2.25 5.375 2.25 5.875 1.25-1.375-2.875-3.125-3.625-6-2-5.125.125z" fill="#00B5F2"/><path fill-rule="evenodd" clip-rule="evenodd" d="M140.075 411.989s-4.125-.75-4.375 1 3.25 2.875 5.875 2.75 5.5-.875 5.125-2.125-2.875-2.25-6.625-1.625z" fill="#008FE3"/><path fill-rule="evenodd" clip-rule="evenodd" d="M129.701 411.24s-.75-2.875-8.625-3.25-13.375-1.75-17.375-3.125-7.001-2.5-8.25-2c-1.25.5 4.125 4.125 9.375 5.75s15.75 3.875 20.125 3.75 4.375.5 4.75-1.125z" fill="#0082D1"/></g></svg>