<svg width="106" height="106" fill="none" xmlns="http://www.w3.org/2000/svg"><g clip-path="url(#clip0_1_6522)"><path d="M53.002.087c29.27 0 53 23.727 53 52.999 0 29.27-23.73 53-53 53-29.272 0-53-23.73-53-53-.001-29.273 23.728-53 53-53z" fill="#8FB1C4"/><path d="M84.467 71.967l-32.502 34.105C25.275 105.56 3.418 85.316.37 59.322l21.86-23.86 12.96-12.701 9.893 1.842 12.113-3.49 16.787 7.877 8.062 9.342 3.517 15.024-1.094 18.61z" fill="#83A5B7"/><path d="M37.462 50.577c-.779 5.448-.219 10.9 2.537 16.347l2.7.008c-1.696-6.14-2.714-11.453-2.36-16.252-1.018-.004-1.973-.068-2.879-.102h.002zM54.65 18.155l7.26 3.854 8.275.316a2.65 2.65 0 012.233 1.371l4.271 6.818 7.031 4.43a2.66 2.66 0 011.244 2.271l.291 8.074 3.875 7.35a2.66 2.66 0 010 2.482l-3.852 7.26-.318 8.275a2.65 2.65 0 01-1.37 2.234l-6.817 4.271-4.43 7.032a2.668 2.668 0 01-2.27 1.244L62 85.73l-7.35 3.877a2.662 2.662 0 01-2.483 0l-7.262-3.854-8.273-.316a2.657 2.657 0 01-2.234-1.37l-4.273-6.818-7.03-4.43a2.655 2.655 0 01-1.245-2.27l-.29-8.077-3.876-7.35a2.66 2.66 0 010-2.482l3.852-7.26.318-8.275a2.653 2.653 0 011.371-2.234l6.818-4.27 4.43-7.034a2.665 2.665 0 012.271-1.244l8.072-.289 7.352-3.877a2.666 2.666 0 012.482 0zM59.951 27l-6.547-3.473-6.635 3.498v-.002a2.668 2.668 0 01-1.146.305l-7.395.266-3.998 6.346-.004-.002c-.205.33-.49.617-.842.836l-6.27 3.93-.28 7.353c.007.432-.093.873-.308 1.283l-3.473 6.546 3.498 6.633v.002c.181.345.288.732.302 1.146l.266 7.393 6.348 4-.002.004c.328.205.617.49.836.84l3.928 6.271 7.355.281c.432-.006.873.092 1.281.307l6.55 3.476 6.632-3.498.002.002a2.625 2.625 0 011.146-.305l7.393-.267 3.998-6.346.004.002c.207-.33.49-.619.842-.839l6.271-3.926.28-7.354a2.647 2.647 0 01.308-1.283l3.474-6.545-3.498-6.634.002-.002a2.632 2.632 0 01-.304-1.146l-.267-7.392-6.348-4 .004-.004a2.626 2.626 0 01-.838-.84l-3.926-6.27-7.357-.28A2.707 2.707 0 0159.951 27zM47.232 66.957c7.02.05 16.098.158 17.54.35.138-.006 1.213-.059 1.52-1.76.316-1.77-1.35-2.375-1.415-2.404a.477.477 0 01-.33-.52.48.48 0 01.47-.405c.071-.012 1.815-.073 2.11-1.717.293-1.627-1.297-2.31-1.373-2.34a.482.482 0 01.188-.929c.082.004 1.81.02 2.115-1.684.307-1.7-1.324-2.32-1.395-2.346a.49.49 0 01-.31-.535.485.485 0 01.464-.408c.078-.006 1.803-.072 2.102-1.738.316-1.766-.709-2.145-1.164-2.227-.098-.016-.182-.02-.268-.029l-8.672-.168c-.029 0-.053-.004-.08-.008a.48.48 0 01-.38-.375.48.48 0 01.271-.545c.021-.004 2.051-.975 2.89-5.636.661-3.686-.71-5.625-2.36-5.922a2.304 2.304 0 00-1.064.055c-.379.107-.45.46-.586 1.5-.28 2.184-.754 5.845-7.083 10.244-2.088 1.447-3.963 2.271-5.67 2.73-.65 4.604.861 10.428 2.48 16.817zm-6.566-20.525c5.088-.227 9.211-2.227 11.828-7.007.57-1.057.674-1.908.801-2.803.096-.707.182-1.412.477-2.178.576-1.424 1.693-2.44 3.146-2.863a6.596 6.596 0 012.988-.152c2.133.381 3.953 1.771 5.006 3.818.996 1.922 1.27 4.361.79 7.04a24.506 24.506 0 01-.372 1.688l2.238.05c.313.001.633.026.938.081 2.832.51 5.316 3.14 4.594 7.168a6.32 6.32 0 01-.934 2.388 6.32 6.32 0 01.076 2.64 6.181 6.181 0 01-.979 2.437c.184.813.194 1.651.041 2.514a6.197 6.197 0 01-.912 2.324c.221.877.254 1.793.086 2.723-.36 2.013-1.412 3.6-2.98 4.494-1.016.597-2.24.87-3.283.726-2.113-.185-9.627-.34-24.709-.347a3.841 3.841 0 01-.67-.057l.002-.005a3.775 3.775 0 01-2.014-1.049c-3.355-3.422-4.104-15.369-3.6-20.017a3.823 3.823 0 011.168-2.703 3.781 3.781 0 012.76-1.023l3.514.113z" fill="#fff"/></g><defs><clipPath id="clip0_1_6522"><path fill="#fff" d="M0 0h106v106H0z"/></clipPath></defs></svg>