<svg width="34" height="34" viewBox="0 0 34 34" fill="none" xmlns="http://www.w3.org/2000/svg">
<g clip-path="url(#clip0_169_7032)">
<path fill-rule="evenodd" clip-rule="evenodd" d="M16.7002 0.959961C25.5372 0.959961 32.7002 8.12296 32.7002 16.96C32.7002 25.797 25.5372 32.96 16.7002 32.96C7.8632 32.96 0.700195 25.797 0.700195 16.96C0.700195 8.12296 7.8632 0.959961 16.7002 0.959961Z" fill="#23599B"/>
<path fill-rule="evenodd" clip-rule="evenodd" d="M14.8482 23.3875V17.5565H12.8477V15.257H14.8267V13.1925C14.8267 12.3 14.8057 10.532 17.3592 10.532L19.5162 10.5325L19.5087 12.767H17.9762C17.9762 12.767 17.1887 12.683 17.1887 13.682V15.2785H19.4662L19.1467 17.535H17.2312L17.2732 23.3875H14.8482Z" fill="#FEFEFE"/>
</g>
<defs>
<clipPath id="clip0_169_7032">
<rect width="33" height="33" fill="white" transform="translate(0.200195 0.459961)"/>
</clipPath>
</defs>
</svg>
