<svg width="34" height="34" viewBox="0 0 34 34" fill="none" xmlns="http://www.w3.org/2000/svg">
<g clip-path="url(#clip0_169_6916)">
<path fill-rule="evenodd" clip-rule="evenodd" d="M16.7002 0.960449C25.5372 0.960449 32.7002 8.12395 32.7002 16.9609C32.7002 25.7979 25.5372 32.9609 16.7002 32.9609C7.8632 32.9609 0.700195 25.7984 0.700195 16.9609C0.700195 8.12395 7.8632 0.960449 16.7002 0.960449Z" fill="#FD4D3E"/>
<path fill-rule="evenodd" clip-rule="evenodd" d="M18.749 15.783H13.5365V18.0445H16.4265C16.0195 19.2885 14.918 20.18 13.5205 20.18C11.743 20.18 10.302 18.738 10.302 16.961C10.302 15.184 11.743 13.7425 13.5205 13.7425C14.314 13.7425 15.0405 14.0295 15.601 14.5055L17.347 12.78C16.3385 11.8565 14.995 11.293 13.5205 11.293C10.39 11.293 7.85254 13.8305 7.85254 16.961C7.85254 20.091 10.39 22.6295 13.5205 22.6295C16.651 22.6295 19.046 20.091 19.046 16.961C19.046 16.5625 19.0045 16.174 18.9265 15.7985L18.749 15.801V15.783ZM22.1405 13.9935H23.5845V15.956H25.547V17.401H23.5845V19.363H22.1405V17.401H20.1775V15.956H22.1405V13.9935Z" fill="#FEFEFE"/>
</g>
<defs>
<clipPath id="clip0_169_6916">
<rect width="33" height="33" fill="white" transform="translate(0.200195 0.459961)"/>
</clipPath>
</defs>
</svg>
