<svg width="168" height="19" viewBox="0 0 168 19" fill="none" xmlns="http://www.w3.org/2000/svg">
<path d="M95.5034 8.27515C95.6814 7.7872 95.8474 7.32224 96.0214 6.84328C96.1094 6.5993 96.1984 6.35332 96.2884 6.11334C96.3364 5.98636 96.3794 5.86737 96.4194 5.74838L96.5334 5.4824C96.5383 5.4744 96.5534 5.4684 96.5544 5.4494C96.5584 5.4294 96.5703 5.4284 96.5753 5.41841L97.7642 11.1609L94.4695 11.1629L95.5034 8.27515ZM77.539 1.13479H73.5844C73.3954 1.23978 73.3624 1.85972 73.3144 2.0837L71.0206 12.7997C70.7516 14.0696 70.4227 15.3975 70.1977 16.6764L74.2193 16.6744L77.539 1.13479ZM77.691 12.6868L76.9671 16.1045C77.578 16.3014 78.055 16.4924 78.7509 16.6314C81.7137 17.2254 85.7803 16.9814 87.5592 14.4266C88.1951 13.5147 88.661 12.1598 88.3701 10.7769C87.8391 8.25715 85.1624 7.63821 83.4685 6.43532C81.6557 5.15043 83.7955 3.2576 87.6181 4.50549C87.9001 4.59748 88.2381 4.76346 88.4971 4.82746L89.195 1.52075C87.5392 1.11079 87.2872 0.834813 85.2344 0.846812C82.8546 0.86281 80.1578 1.80973 79.0899 4.00853C78.5469 5.12743 78.426 6.6533 79.0799 7.7372C79.6558 8.69411 80.5658 9.40105 81.5397 9.90101C82.4416 10.365 84.0155 11.0119 84.2064 11.8968C84.5154 13.3187 82.5576 13.6857 81.4257 13.6507C80.3808 13.6207 79.4769 13.4297 78.533 13.0427C78.266 12.9347 77.964 12.7708 77.691 12.6868ZM52.9072 1.59775C54.0111 1.76973 56.4959 2.57466 57.1918 3.11361C57.7558 3.55157 57.8368 4.3435 58.0548 5.15243C58.8677 8.18316 59.6156 11.3509 60.4376 14.3736C60.6325 15.0885 60.8935 15.9715 61.0285 16.6804H65.2991L71.7976 1.15678L67.5639 1.13279L63.4083 11.6439C63.2203 11.0089 63.1013 10.14 62.9753 9.47204L61.7354 2.87863C61.6615 2.48567 61.5695 2.22469 61.3955 1.94671C60.7425 0.907807 59.3857 1.13079 58.2658 1.13079C56.5099 1.13279 54.7521 1.13479 52.9962 1.13079L52.9072 1.59775ZM92.3937 16.6784C92.5477 16.5874 93.2136 14.6266 93.2826 14.3546H98.3762C98.5032 14.3956 98.8841 16.4304 98.9211 16.6784L102.654 16.6764L99.4131 1.13679L95.9294 1.13279C95.0425 1.13279 94.4915 1.70874 94.2146 2.36168L88.2311 16.6714L92.3937 16.6784Z" fill="#00649E"/>
<path d="M0.0407651 15.3587L3.33847 1.02601C3.33847 1.02601 3.45846 0.00610352 4.77734 0.00610352C6.09623 0.00610352 10.2339 0.0670981 10.2339 0.0670981C10.2339 0.0670981 14.4315 -0.352865 15.7504 2.46488C17.0693 5.28263 15.3304 8.58134 13.0516 9.72024C10.7728 10.8611 8.49401 11.1011 7.35511 11.1011C6.21522 11.1011 5.37629 10.8611 5.01632 12.359C4.65635 13.8589 4.23639 15.5967 4.23639 15.5967C4.23639 15.5967 3.99641 16.4366 3.09649 16.4366C2.19657 16.4366 0.698707 16.4366 0.698707 16.4366C0.698707 16.4366 -0.199214 16.3177 0.0407651 15.3587ZM6.87616 4.14474L6.21622 6.7835C6.21622 6.7835 5.91624 7.98239 6.99515 7.98239C8.07505 7.98239 10.4128 7.98239 11.3728 6.24455C12.3317 4.5047 11.0728 3.30581 10.1739 3.12583C9.27494 2.94584 8.19604 3.06483 8.19604 3.06483C8.19604 3.06483 7.17613 2.94584 6.87616 4.14474Z" fill="#01437D"/>
<path d="M2.03975 17.4264L2.11574 17.0944H3.85859C4.75751 17.0944 4.99749 16.2565 4.99749 16.2565C4.99749 16.2565 5.41745 14.5166 5.77742 13.0187C6.13739 11.5189 6.97731 11.7589 8.11621 11.7589C9.25611 11.7589 11.5339 11.5189 13.8127 10.379C16.0915 9.23908 17.8313 5.94137 16.5115 3.12262C16.5025 3.10462 16.4925 3.08563 16.4845 3.06763C17.0004 3.4176 17.4504 3.88955 17.7514 4.5325C19.0702 7.35025 17.3314 10.649 15.0526 11.7869C12.7738 12.9288 10.495 13.1677 9.3561 13.1677C8.2162 13.1677 7.37728 12.9288 7.01731 14.4266C6.65734 15.9265 6.23738 17.6633 6.23738 17.6633C6.23738 17.6633 5.9974 18.5033 5.09748 18.5033C4.19756 18.5033 2.69869 18.5033 2.69869 18.5033C2.69869 18.5033 1.79977 18.3853 2.03975 17.4264Z" fill="#0674C1"/>
<path d="M119.712 0.140869C124.728 0.140869 128.795 4.20651 128.795 9.22206C128.795 14.2406 124.728 18.3053 119.712 18.3053C114.695 18.3053 110.631 14.2406 110.631 9.22206C110.631 4.20651 114.696 0.140869 119.712 0.140869Z" fill="#CC0001"/>
<path d="M131.944 0.0788574C136.961 0.0788574 141.027 4.1445 141.027 9.16205C141.027 14.1776 136.961 18.2442 131.944 18.2442C126.928 18.2442 122.862 14.1786 122.862 9.16205C122.862 4.1445 126.928 0.0788574 131.944 0.0788574Z" fill="#FE9900"/>
<path d="M124.93 3.39062H126.674C126.928 3.69363 127.162 4.01162 127.375 4.34562H124.242C124.451 4.01162 124.68 3.69363 124.93 3.39062Z" fill="#CC0001"/>
<path d="M123.702 5.34155H127.927C128.073 5.65255 128.202 5.97055 128.315 6.29655H123.325C123.432 5.97055 123.557 5.65255 123.702 5.34155Z" fill="#CC0001"/>
<path d="M123.059 7.26733H128.584C128.652 7.58033 128.704 7.89833 128.74 8.22233H122.91C122.944 7.89833 122.993 7.58033 123.059 7.26733Z" fill="#CC0001"/>
<path d="M123.741 13.0637H127.945C127.791 13.3917 127.617 13.7107 127.426 14.0187H124.268C124.074 13.7107 123.898 13.3937 123.741 13.0637Z" fill="#CC0001"/>
<path d="M124.957 14.9607H126.751C126.478 15.2967 126.181 15.6107 125.862 15.9037C125.538 15.6127 125.236 15.2967 124.957 14.9607Z" fill="#CC0001"/>
<path d="M123.077 11.134H128.593C128.524 11.457 128.437 11.777 128.333 12.088H123.345C123.239 11.777 123.149 11.457 123.077 11.134Z" fill="#CC0001"/>
<path d="M122.863 9.21411H128.796V9.22211C128.796 9.54211 128.779 9.85911 128.747 10.1681H122.919C122.884 9.85511 122.864 9.53711 122.863 9.21411Z" fill="#CC0001"/>
<path d="M41.0791 3.13272L42.18 2.13481L43.1779 3.23471L42.077 4.23262L41.0791 3.13272ZM36.6915 0C38.3683 0 39.9412 0.44496 41.2981 1.22289L40.4592 1.98282L39.1773 0.568949L36.9415 2.59377L35.6916 1.21489L31.6699 4.85957L34.2827 7.74231L33.2598 8.67023L35.8306 11.506L34.8207 12.4199L38.4663 16.4415L40.5632 14.5427L42.426 16.5975C40.8471 17.8394 38.8563 18.5773 36.6925 18.5773C31.5629 18.5773 27.4033 14.4197 27.4033 9.28817C27.4033 4.15863 31.5619 0 36.6915 0ZM36.6105 12.5069L38.7543 10.5661L40.6971 12.7099L38.5533 14.6517L36.6105 12.5069ZM35.0506 8.75722L37.1945 6.81439L39.1373 8.9572L36.9935 10.9L35.0506 8.75722ZM33.4608 4.94756L35.6046 3.00673L37.5474 5.14954L35.4036 7.09237L33.4608 4.94756ZM37.3974 3.89265L39.0893 2.35779L40.6231 4.05064L38.9313 5.5835L37.3974 3.89265ZM38.9483 7.22636L40.6401 5.69349L42.174 7.38434L40.4822 8.91921L38.9483 7.22636ZM40.3262 10.706L42.018 9.17118L43.5519 10.864L41.859 12.3969L40.3262 10.706ZM41.819 14.0398L43.5109 12.5079L45.0448 14.1977L43.3529 15.7326L41.819 14.0398ZM43.9398 9.65614L45.0408 8.65823L46.0387 9.75813L44.9378 10.756L43.9398 9.65614ZM42.524 6.45143L43.6249 5.45352L44.6228 6.55542L43.5219 7.55333L42.524 6.45143Z" fill="#037EC4"/>
<path d="M167.361 11.586C166.13 16.5236 161.128 19.5303 156.189 18.2984C151.251 17.0685 148.245 12.067 149.477 7.1274C150.707 2.18884 155.709 -0.817893 160.647 0.413997C165.586 1.64589 168.592 6.64744 167.361 11.586Z" fill="#F7931A"/>
<path d="M162.483 8.04341C162.667 6.81752 161.732 6.15758 160.456 5.71762L160.87 4.05477L159.858 3.80379L159.455 5.42165C159.189 5.35465 158.916 5.29266 158.645 5.23066L159.05 3.60181L158.039 3.35083L157.624 5.01168C157.404 4.96069 157.187 4.91169 156.978 4.8597L156.979 4.8547L155.583 4.50673L155.314 5.58763C155.314 5.58763 156.064 5.75962 156.048 5.76962C156.457 5.87161 156.532 6.14258 156.52 6.35756L156.047 8.25039C156.076 8.25739 156.112 8.26839 156.152 8.28439C156.119 8.27539 156.083 8.26639 156.046 8.25739L155.385 10.9082C155.334 11.0331 155.207 11.2191 154.921 11.1491C154.932 11.1631 154.187 10.9652 154.187 10.9652L153.685 12.1231L154.999 12.451C155.244 12.513 155.484 12.576 155.721 12.636L155.302 14.3189L156.314 14.5698L156.728 12.907C157.003 12.983 157.272 13.052 157.534 13.117L157.121 14.7718L158.133 15.0228L158.552 13.3449C160.277 13.6709 161.573 13.5409 162.119 11.9811C162.559 10.7242 162.098 10.0012 161.189 9.52728C161.853 9.3753 162.35 8.94233 162.483 8.04341ZM160.172 11.2841C159.859 12.541 157.743 11.8611 157.059 11.6921L157.614 9.46429C158.299 9.63527 160.498 9.97424 160.172 11.2841ZM160.485 8.02541C160.2 9.16731 158.44 8.58737 157.869 8.44438L158.372 6.42456C158.943 6.56754 160.782 6.83352 160.485 8.02541Z" fill="white"/>
</svg>
