<svg width="34" height="34" viewBox="0 0 34 34" fill="none" xmlns="http://www.w3.org/2000/svg">
<g clip-path="url(#clip0_169_7009)">
<path fill-rule="evenodd" clip-rule="evenodd" d="M16.7002 0.959961C25.5372 0.959961 32.7002 8.12346 32.7002 16.96C32.7002 25.797 25.5372 32.96 16.7002 32.96C7.8632 32.96 0.700195 25.7975 0.700195 16.96C0.700195 8.12346 7.8632 0.959961 16.7002 0.959961Z" fill="#B8765A"/>
<path d="M16.756 13.2525C17.759 13.2525 18.669 13.659 19.326 14.3165C19.983 14.9735 20.39 15.8835 20.39 16.8865C20.39 17.887 19.983 18.795 19.326 19.453L19.323 19.456C18.664 20.114 17.7565 20.521 16.756 20.521C15.753 20.521 14.843 20.114 14.186 19.456C13.5285 18.799 13.122 17.8895 13.122 16.886C13.122 15.883 13.529 14.973 14.1865 14.316C14.8435 13.659 15.7525 13.2525 16.756 13.2525ZM20.566 12.2155C21.1135 12.2155 21.557 12.659 21.557 13.206C21.557 13.7535 21.1135 14.197 20.566 14.197C20.0185 14.197 19.5755 13.7535 19.5755 13.206C19.575 12.659 20.0185 12.2155 20.566 12.2155ZM13.4625 9.90796H19.9375C20.985 9.90796 21.938 10.337 22.63 11.028L22.6325 11.0305C23.323 11.722 23.7525 12.6755 23.7525 13.7225V20.1975C23.7525 21.2475 23.323 22.201 22.6325 22.8925L22.6315 22.8905C21.9405 23.582 20.9855 24.0125 19.9375 24.0125H13.4625C12.413 24.0125 11.4585 23.5835 10.7675 22.8925C10.077 22.201 9.64746 21.247 9.64746 20.1975V13.7225C9.64746 12.6745 10.078 11.72 10.769 11.029L10.7675 11.028C11.4585 10.337 12.413 9.90796 13.4625 9.90796ZM19.9375 11.1735H13.4625C12.763 11.1735 12.125 11.461 11.663 11.923H11.6605C11.2005 12.383 10.9135 13.0205 10.9135 13.7225V20.1975C10.9135 20.897 11.201 21.535 11.663 21.9965C12.125 22.458 12.763 22.746 13.4625 22.746H19.9375C20.6395 22.746 21.2775 22.4595 21.737 21.9995V21.9965C22.1985 21.535 22.4865 20.897 22.4865 20.1975V13.7225C22.4865 13.0205 22.2 12.383 21.7395 11.923L21.737 11.921C21.2775 11.46 20.6395 11.1735 19.9375 11.1735ZM18.2515 15.391C17.869 15.0085 17.3395 14.772 16.756 14.772C16.172 14.772 15.643 15.009 15.261 15.391C14.878 15.774 14.641 16.3025 14.641 16.8865C14.641 17.4705 14.878 18.0005 15.2605 18.382C15.643 18.7645 16.172 19.0015 16.756 19.0015C17.342 19.0015 17.8715 18.7655 18.2515 18.385L18.2545 18.382C18.635 18.0025 18.871 17.473 18.871 16.8865C18.8715 16.3025 18.6345 15.7735 18.2515 15.391Z" fill="#FEFEFE"/>
</g>
<defs>
<clipPath id="clip0_169_7009">
<rect width="33" height="33" fill="white" transform="translate(0.200195 0.459961)"/>
</clipPath>
</defs>
</svg>
