<svg width="263" height="64" viewBox="0 0 263 64" fill="none" xmlns="http://www.w3.org/2000/svg">
<g clip-path="url(#clip0_169_6820)">
<path fill-rule="evenodd" clip-rule="evenodd" d="M0.0966797 11.2704C0.0966797 14.0075 1.06267 15.2151 3.23614 17.1472C10.8836 24.0704 30.9278 24.3119 41.2317 20.2063C58.7 13.2025 47.5911 0 24.8904 0C18.048 0 0.0966797 2.73711 0.0966797 11.2704ZM24.8904 2.41509L29.9618 7.40629L40.9097 8.53333L33.1013 12.2365L34.7918 17.6302L24.8904 15.1346L15.0695 17.6302L16.76 12.2365L8.95157 8.53333L19.8189 7.32579L24.8904 2.41509Z" fill="#C7C7C7"/>
<path fill-rule="evenodd" clip-rule="evenodd" d="M23.3609 42.9082C31.0888 42.9082 39.1387 42.0227 44.8541 38.3196C49.0401 35.5825 49.6841 33.3284 49.7646 29.4642C49.7646 27.1296 49.6841 24.2315 49.6841 20.2869C49.0401 22.541 47.1081 26.0831 40.1852 28.4177C28.9958 32.1208 12.896 32.0403 4.12163 25.6806C2.43115 24.473 0.418676 22.6215 0.418676 20.2869H0.0966797V31.6378C0.579674 34.4554 1.78716 36.5485 5.00712 38.3196C9.59557 40.9762 16.116 42.9082 23.3609 42.9082Z" fill="#C7C7C7"/>
<path fill-rule="evenodd" clip-rule="evenodd" d="M0.0966797 52.649V41.2981H0.418676C0.418676 49.1069 17.887 51.9245 25.2929 51.9245C33.6648 51.9245 47.4301 49.4289 49.7646 41.2981C49.7646 45.3233 49.7646 48.4629 49.6841 50.7975C49.6036 54.4201 48.9596 56.5937 45.0956 59.0893C38.7362 63.356 30.6058 64 22.9584 63.9195C16.277 63.9195 9.03207 61.7459 4.76562 59.1698C1.70666 57.3182 0.499175 55.3056 0.0966797 52.649ZM24.8904 54.8226C26.6614 54.8226 28.1103 56.2717 28.1103 57.9622C28.1103 59.7333 26.6614 61.1824 24.8904 61.1824C23.1999 61.1824 21.7509 59.7333 21.7509 57.9622C21.7509 56.2717 23.1999 54.8226 24.8904 54.8226Z" fill="#C7C7C7"/>
<path fill-rule="evenodd" clip-rule="evenodd" d="M254.072 21.776H252.14V14.0476C255.118 14.0476 255.923 14.3697 256.245 15.9797C256.326 16.7043 256.326 17.9118 256.326 19.1999C256.326 20.7294 255.682 21.776 254.072 21.776ZM173.573 17.1873L177.437 16.6238C177.437 16.6238 177.517 13.1621 175.827 11.4715C174.056 9.70048 170.272 8.57344 167.133 11.069C163.993 13.5646 164.798 19.4414 167.052 21.937C169.226 24.2715 173.492 27.8137 173.492 30.9533C173.492 34.576 168.904 34.6565 168.984 30.8728C169.065 29.2627 169.065 29.1822 169.065 29.1822L164.959 29.5848C164.557 34.0124 166.167 37.7961 171.319 37.7961C173.17 37.7961 177.759 37.5546 177.678 30.8728C177.598 21.8565 169.467 21.5344 169.226 16.1407C169.145 12.8401 172.687 13.0011 173.251 14.8527C173.653 16.2212 173.573 17.1873 173.573 17.1873ZM181.542 37.3131H193.214V33.3684H185.809V25.6401H191.846V21.4539H185.809V14.0476H193.214V10.1835H181.542V37.3131ZM231.854 37.3131H243.768V33.3684H236.362V25.6401H242.158V21.4539H236.362V14.0476H243.768V10.1835H231.854V37.3131ZM218.008 37.3131H223.482L227.99 10.1835H223.804L220.906 29.8263L217.847 10.1835H213.5L218.008 37.3131ZM203.921 21.8565L201.586 21.776V14.0476C204.162 14.0476 204.967 14.1282 205.45 15.2552C206.336 16.9458 206.094 21.8565 203.921 21.8565ZM197.4 37.3131H201.586V25.9621H203.518L206.416 37.3131H210.924L207.382 24.7546C208.187 24.4326 209.073 23.6275 209.556 22.42C210.924 19.1999 211.085 10.1835 204.162 10.1835H197.4V37.3131ZM247.632 37.3131H252.14V26.0426H253.75L257.05 37.3131H261.558L257.775 24.9961C258.258 24.6741 258.66 24.5936 259.626 23.1445C259.948 22.742 260.351 21.4539 260.592 19.9244C261.156 15.9797 260.431 10.1835 254.072 10.1835H247.632V37.3131Z" fill="#C7C7C7"/>
<path fill-rule="evenodd" clip-rule="evenodd" d="M89.0483 21.7762H87.1163V14.0479C87.6798 14.0479 88.1628 14.0479 88.4848 14.0479C90.3362 14.1284 90.5777 14.2089 91.0607 15.4164C91.7047 17.107 91.5437 18.7171 91.2217 19.8441C90.9802 21.1322 90.5777 21.7762 89.0483 21.7762ZM133.242 37.3133H137.428V10.1837H133.242V37.3133ZM141.292 14.0479H145.8V37.3133H149.986V14.0479H154.494V10.1837H141.292V14.0479ZM117.706 37.2328L122.294 37.3133V25.3183H128.09V21.4542H122.294V14.0479H129.378V10.1837H117.786L117.706 37.2328ZM71.9825 22.0982H70.3725V14.0479C70.936 14.0479 71.419 14.0479 71.902 14.0479C73.3509 14.1284 74.1559 14.6114 74.5584 15.7385C75.1219 17.3485 74.9609 19.7636 74.3169 20.9712C73.9949 21.6957 72.9484 22.0982 71.9825 22.0982ZM66.1865 37.3133H70.3725V25.9624C75.3634 25.9624 77.8589 25.4793 78.7444 21.6152C78.9859 20.4076 79.0664 18.8781 79.0664 16.946C79.0664 8.81518 71.741 10.1837 66.1865 10.1837V37.3133ZM104.182 30.4705V16.302C104.182 14.6919 105.068 13.7259 106.678 13.7259C108.207 13.7259 109.012 14.7724 109.012 16.302V30.4705C109.012 34.8982 104.182 34.8982 104.182 30.4705ZM99.9961 15.6579C99.9961 18.7976 99.6741 31.4366 100.399 33.6907C102.411 39.8089 113.278 38.6819 113.278 31.7586V15.6579C113.278 7.76864 99.9961 7.76864 99.9961 15.6579ZM82.9303 37.3133H87.1163V25.9624H89.0483L91.9462 37.3133H96.4542L92.9122 24.6743C94.2002 24.3523 94.6027 23.5473 95.0857 22.3397C96.6152 19.0391 96.3737 10.1837 90.0142 10.1837H82.9303V37.3133Z" fill="#C7C7C7"/>
<path d="M69.4068 53.5747C68.0383 53.5747 66.9113 53.1722 65.9453 52.2867L66.9918 50.9986C67.7968 51.6426 68.6018 52.0452 69.4068 52.0452C69.8093 52.0452 70.0508 51.9647 70.2923 51.8037C70.4533 51.6426 70.6143 51.4816 70.6143 51.2401C70.6143 50.9986 70.4533 50.7571 70.2923 50.6766C70.0508 50.5156 69.5678 50.3546 68.9238 50.1936C68.4408 50.0326 68.1188 49.9521 67.7968 49.8716C67.5553 49.7106 67.2333 49.5496 66.9918 49.3886C66.7503 49.2275 66.5088 48.986 66.4283 48.664C66.2673 48.4225 66.2673 48.1005 66.2673 47.698C66.2673 46.893 66.5088 46.3294 67.0723 45.9269C67.5553 45.4439 68.2798 45.2024 69.0848 45.2024C70.2118 45.2024 71.2582 45.5244 72.1437 46.2489L71.1778 47.6175C70.4533 47.054 69.7288 46.8125 69.0848 46.8125C68.7628 46.8125 68.5213 46.893 68.2798 46.9735C68.1188 47.1345 68.0383 47.2955 68.0383 47.537C68.0383 47.7785 68.1188 48.02 68.3603 48.1005C68.6018 48.2615 69.0848 48.4225 69.8093 48.5835C70.6948 48.825 71.3387 49.147 71.7412 49.4691C72.1437 49.8716 72.3852 50.3546 72.3852 51.0791C72.3852 51.8842 72.0632 52.4477 71.5802 52.9307C71.0168 53.3332 70.2923 53.5747 69.4068 53.5747ZM81.8841 53.4942V45.3634H88.0825V46.893H83.6551V48.5835H87.5191V50.1936H83.6551V51.8842H88.0825V53.4942H81.8841ZM97.6619 53.4942V45.3634H101.445C102.411 45.3634 103.216 45.6049 103.78 46.1684C104.263 46.6514 104.504 47.215 104.504 48.02C104.504 49.3081 103.941 50.1131 102.733 50.5961L104.746 53.4942H102.653L100.882 50.8376H99.5134V53.4942H97.6619ZM99.5134 49.3081H101.284C101.767 49.3081 102.089 49.147 102.331 48.986C102.572 48.7445 102.653 48.503 102.653 48.1005C102.653 47.698 102.572 47.4565 102.331 47.215C102.089 47.054 101.687 46.9735 101.284 46.9735H99.5134V49.3081ZM116.418 53.4942L113.198 45.3634H115.13L117.304 51.0791L119.397 45.3634H121.329L118.028 53.4942H116.418ZM130.586 53.4942V45.3634H136.704V46.893H132.357V48.5835H136.221V50.1936H132.357V51.8842H136.784V53.4942H130.586ZM146.364 53.4942V45.3634H150.067C151.113 45.3634 151.918 45.6049 152.482 46.1684C152.884 46.6514 153.126 47.215 153.126 48.02C153.126 49.3081 152.562 50.1131 151.435 50.5961L153.367 53.4942H151.274L149.503 50.8376H148.135V53.4942H146.364ZM148.135 49.3081H149.986C150.389 49.3081 150.711 49.147 150.952 48.986C151.194 48.7445 151.355 48.503 151.355 48.1005C151.355 47.698 151.194 47.4565 150.952 47.215C150.711 47.054 150.389 46.9735 149.906 46.9735H148.135V49.3081ZM175.666 53.4942V45.3634H179.449C180.415 45.3634 181.22 45.6049 181.783 46.1684C182.266 46.6514 182.508 47.215 182.508 48.02C182.508 49.3081 181.944 50.1131 180.737 50.5961L182.749 53.4942H180.656L178.885 50.8376H177.517V53.4942H175.666ZM177.517 49.3081H179.288C179.771 49.3081 180.093 49.147 180.334 48.986C180.576 48.7445 180.656 48.503 180.656 48.1005C180.656 47.698 180.576 47.4565 180.334 47.215C180.012 47.054 179.69 46.9735 179.288 46.9735H177.517V49.3081ZM192.087 53.4942V45.3634H198.205V46.893H193.858V48.5835H197.722V50.1936H193.858V51.8842H198.286V53.4942H192.087ZM207.865 53.4942V45.3634H209.556L213.339 50.3546V45.3634H215.11V53.4942H213.581L209.636 48.2615V53.4942H207.865ZM226.943 53.4942V46.9735H224.448V45.3634H231.21V46.9735H228.714V53.4942H226.943ZM238.857 53.4942L242.319 45.2829H244.009L247.471 53.4942H245.619L244.814 51.6426H241.433L240.628 53.4942H238.857ZM242.077 50.0326H244.17L243.124 47.4565L242.077 50.0326ZM256.728 53.4942V45.3634H258.499V51.8037H262.524V53.4942H256.728Z" fill="#C7C7C7"/>
</g>
<defs>
<clipPath id="clip0_169_6820">
<rect width="262.621" height="64" fill="white"/>
</clipPath>
</defs>
</svg>
