<svg width="34" height="34" viewBox="0 0 34 34" fill="none" xmlns="http://www.w3.org/2000/svg">
<g clip-path="url(#clip0_169_6962)">
<path fill-rule="evenodd" clip-rule="evenodd" d="M16.7002 0.94458C25.5367 0.94458 32.7002 8.10758 32.7002 16.9446C32.7002 25.7811 25.5367 32.9446 16.7002 32.9446C7.8632 32.9446 0.700195 25.7811 0.700195 16.9446C0.700195 8.10758 7.8637 0.94458 16.7002 0.94458Z" fill="#00AEF1"/>
<path fill-rule="evenodd" clip-rule="evenodd" d="M11.5823 17.9642L8.31229 16.9512C8.31229 16.9512 7.41529 16.1697 8.60179 15.7647C9.78829 15.3597 21.5658 10.8742 21.5658 10.8742C21.5658 10.8742 22.8968 10.4107 22.6368 11.8292C22.3768 13.2472 20.4958 22.1602 20.4958 22.1602C20.4958 22.1602 20.2063 23.7802 18.8173 22.7392C17.4283 21.6977 15.7788 20.5107 15.7788 20.5107L14.0998 22.0442C14.0998 22.0442 13.1453 22.6802 12.8558 21.7547C12.5663 20.8282 11.5823 17.9642 11.5823 17.9642ZM13.4058 21.2052L12.2188 17.6167L20.0613 12.8417L13.7813 18.7162L13.4058 21.2052Z" fill="#FEFEFE"/>
</g>
<defs>
<clipPath id="clip0_169_6962">
<rect width="33" height="33" fill="white" transform="translate(0.200195 0.459961)"/>
</clipPath>
</defs>
</svg>
