<svg width="34" height="34" viewBox="0 0 34 34" fill="none" xmlns="http://www.w3.org/2000/svg">
<g clip-path="url(#clip0_169_6893)">
<path fill-rule="evenodd" clip-rule="evenodd" d="M16.7002 0.959961C25.5372 0.959961 32.7002 8.12296 32.7002 16.96C32.7002 25.7965 25.5372 32.96 16.7002 32.96C7.8632 32.96 0.700195 25.7965 0.700195 16.96C0.700195 8.12296 7.8632 0.959961 16.7002 0.959961Z" fill="#00AEF1"/>
<path fill-rule="evenodd" clip-rule="evenodd" d="M17.1721 15.0336C17.1721 15.0336 15.2921 15.0336 13.7531 14.1216C12.2141 13.2101 10.9891 11.8421 10.9891 11.8421C10.9891 11.8421 10.5051 12.4691 10.4771 13.4666C10.4491 14.4641 11.7306 15.9456 11.7306 15.9456C11.7306 15.9456 11.3316 15.9741 10.9326 15.8316C10.5336 15.6886 10.5336 15.5181 10.5336 15.5181C10.5336 15.5181 10.3061 16.4871 11.0751 17.4846C11.8446 18.4821 12.8421 18.6246 12.8421 18.6246C12.8421 18.6246 12.4431 18.6811 12.1856 18.7096C11.9291 18.7381 11.5876 18.6246 11.5876 18.6246C11.5876 18.6246 11.5311 19.2231 12.3281 19.9926C13.1261 20.7611 14.1801 20.8756 14.1801 20.8756C14.1801 20.8756 13.7811 21.4456 12.5276 21.8161C11.2741 22.1866 9.93457 22.0721 9.93457 22.0721C9.93457 22.0721 11.6161 23.6961 14.7496 23.5531C17.8846 23.4116 19.7931 22.1001 21.3316 20.4761C22.8706 18.8521 23.0986 17.0851 23.2131 16.3446C23.3266 15.6036 23.2981 14.3501 23.2981 14.3501C23.2981 14.3501 23.8111 14.0081 24.2386 13.5806C24.6661 13.1536 24.8371 12.8111 24.8371 12.8111C24.8371 12.8111 24.4101 12.9256 23.9826 13.0396C23.5546 13.1536 23.3261 13.1536 23.3261 13.1536C23.3261 13.1536 23.7531 12.8111 24.0391 12.4411C24.3236 12.0706 24.4096 11.5576 24.4096 11.5576C24.4096 11.5576 24.0106 11.8141 23.5256 12.0136C23.0416 12.2131 22.5846 12.2416 22.5846 12.2416C22.5846 12.2416 21.6451 11.2441 20.2776 11.2726C18.9101 11.3011 18.1121 12.0706 17.6846 12.5836C17.2576 13.0961 17.1711 13.7231 17.1426 14.0936C17.1156 14.4636 17.2301 15.0336 17.1721 15.0336Z" fill="#FEFEFE"/>
</g>
<defs>
<clipPath id="clip0_169_6893">
<rect width="33" height="33" fill="white" transform="translate(0.200195 0.459961)"/>
</clipPath>
</defs>
</svg>
