<svg width="34" height="34" viewBox="0 0 34 34" fill="none" xmlns="http://www.w3.org/2000/svg">
<g clip-path="url(#clip0_169_6939)">
<path fill-rule="evenodd" clip-rule="evenodd" d="M16.7002 0.959961C25.5372 0.959961 32.7002 8.12296 32.7002 16.96C32.7002 25.7965 25.5372 32.96 16.7002 32.96C7.8632 32.96 0.700195 25.7965 0.700195 16.96C0.700195 8.12296 7.8632 0.959961 16.7002 0.959961Z" fill="#366C94"/>
<path fill-rule="evenodd" clip-rule="evenodd" d="M10.1078 13.391L8.08579 13.418C8.08579 13.418 7.13029 13.309 7.56779 14.183C8.00379 15.057 9.20579 17.6785 10.8998 19.8365C12.5928 21.994 14.2043 22.1855 15.0508 22.322C15.8973 22.4585 17.0718 22.4585 17.1263 22.1305C17.1808 21.8025 17.2358 21.366 17.2358 20.847C17.2358 20.3285 17.7278 19.809 18.1368 20.2195C18.5468 20.6295 19.4208 21.7495 19.8853 22.104C20.3493 22.459 21.1683 22.4045 21.8243 22.4045C22.4798 22.4045 23.8178 22.4865 24.0368 21.9945C24.2558 21.5035 24.0368 21.23 23.4628 20.6295C22.8898 20.028 21.6878 18.9085 21.6878 18.9085C21.6878 18.9085 20.9773 18.472 21.7423 17.5435C22.5068 16.615 23.4078 15.249 23.7358 14.7305C24.0638 14.211 24.2553 13.392 23.6538 13.392C23.0533 13.392 21.0318 13.3645 21.0318 13.3645C21.0318 13.3645 20.2398 13.255 19.9948 13.8835C19.7488 14.5115 19.2843 15.5765 18.6563 16.5055C18.0273 17.434 17.2083 17.789 17.2358 17.0245C17.2633 16.26 17.2633 14.1295 17.2633 13.993C17.2633 13.8565 17.3453 13.1735 16.4438 13.0095C15.5428 12.8455 14.0678 12.8185 13.4663 13.064C12.8663 13.3095 12.9753 13.583 13.5483 13.774C14.1223 13.965 13.9858 15.03 13.9858 15.44C13.9858 15.85 14.1223 17.188 13.7398 17.461C13.3578 17.7335 12.8388 16.9695 12.5653 16.6145C12.2918 16.2595 11.7458 15.331 11.4453 14.6755C11.1458 14.02 10.9273 13.583 10.7358 13.4735C10.5443 13.3635 10.4623 13.418 10.1078 13.391Z" fill="#FEFEFE"/>
</g>
<defs>
<clipPath id="clip0_169_6939">
<rect width="33" height="33" fill="white" transform="translate(0.200195 0.459961)"/>
</clipPath>
</defs>
</svg>
