<svg width="34" height="34" viewBox="0 0 34 34" fill="none" xmlns="http://www.w3.org/2000/svg">
<g clip-path="url(#clip0_169_6986)">
<path fill-rule="evenodd" clip-rule="evenodd" d="M16.7002 0.959961C25.5372 0.959961 32.7002 8.12296 32.7002 16.96C32.7002 25.7965 25.5372 32.96 16.7002 32.96C7.8632 32.96 0.700195 25.7965 0.700195 16.96C0.700195 8.12296 7.8632 0.959961 16.7002 0.959961Z" fill="#EF1A19"/>
<path fill-rule="evenodd" clip-rule="evenodd" d="M11.0314 11.905C14.8639 11.524 18.6479 11.564 22.4004 11.905C23.2669 11.984 23.8059 12.635 23.9819 13.4875C24.4619 15.8025 24.4659 18.1165 23.9819 20.4325C23.8049 21.284 23.2659 21.935 22.4004 22.015C18.5714 22.3655 14.7799 22.3855 11.0314 22.015C10.1649 21.929 9.63337 21.283 9.44887 20.4325C8.95737 18.1555 8.89787 15.845 9.44887 13.4875C9.64687 12.64 10.1649 11.9915 11.0314 11.905ZM15.1374 14.809L15.1064 18.9305L18.9884 16.885C18.9884 16.885 15.1069 14.7795 15.1374 14.809Z" fill="#FEFEFE"/>
</g>
<defs>
<clipPath id="clip0_169_6986">
<rect width="33" height="33" fill="white" transform="translate(0.200195 0.459961)"/>
</clipPath>
</defs>
</svg>
