<svg width="41" height="29" viewBox="0 0 41 29" fill="none" xmlns="http://www.w3.org/2000/svg">
<rect x="0.987305" y="0.714355" width="39" height="27.5714" rx="3.5" fill="white" stroke="#F5F5F5"/>
<mask id="mask0_1_14518" style="mask-type:luminance" maskUnits="userSpaceOnUse" x="0" y="0" width="41" height="29">
<rect x="0.987305" y="0.714355" width="39" height="27.5714" rx="3.5" fill="white" stroke="white"/>
</mask>
<g mask="url(#mask0_1_14518)">
<rect x="29.0586" y="0.214355" width="11.4286" height="28.5714" fill="#FF3131"/>
<path fill-rule="evenodd" clip-rule="evenodd" d="M0.487305 28.7858H11.9159V0.214355H0.487305V28.7858Z" fill="#FF3131"/>
<path fill-rule="evenodd" clip-rule="evenodd" d="M23.8538 13.0381C23.4158 13.4761 22.6758 13.08 22.7972 12.4726L23.3441 9.73826L21.4394 10.6906L20.487 7.8335L19.5346 10.6906L17.6298 9.73826L18.1767 12.4726C18.2982 13.08 17.5581 13.4761 17.1201 13.0381V13.0381C16.8757 12.7936 16.4793 12.7936 16.2348 13.0381L15.7251 13.5478L13.8203 12.5954L14.7727 14.5002L14.2917 14.9811C14.0314 15.2415 14.0314 15.6636 14.2917 15.9239L16.6775 18.3097H19.5346L20.0108 21.1668H20.9632L21.4394 18.3097H24.2965L26.6822 15.9239C26.9426 15.6636 26.9426 15.2415 26.6822 14.9811L26.2013 14.5002L27.1536 12.5954L25.2489 13.5478L24.7392 13.0381C24.4947 12.7936 24.0983 12.7936 23.8538 13.0381V13.0381Z" fill="#FF3131"/>
</g>
</svg>
