<svg width="41" height="29" viewBox="0 0 41 29" fill="none" xmlns="http://www.w3.org/2000/svg">
<rect x="0.487305" y="0.214355" width="40" height="28.5714" rx="4" fill="white"/>
<mask id="mask0_1_14550" style="mask-type:luminance" maskUnits="userSpaceOnUse" x="0" y="0" width="41" height="29">
<rect x="0.487305" y="0.214355" width="40" height="28.5714" rx="4" fill="white"/>
</mask>
<g mask="url(#mask0_1_14550)">
<rect x="0.487305" y="0.214355" width="40" height="28.5714" fill="#FF0000"/>
<path fill-rule="evenodd" clip-rule="evenodd" d="M17.6303 17.3573H12.5827C12.2145 17.3573 11.916 17.0588 11.916 16.6906V12.3097C11.916 11.9415 12.2145 11.643 12.5827 11.643H17.6303V6.59538C17.6303 6.22719 17.9288 5.92871 18.297 5.92871H22.6779C23.0461 5.92871 23.3446 6.22719 23.3446 6.59538V11.643H28.3922C28.7604 11.643 29.0589 11.9415 29.0589 12.3097V16.6906C29.0589 17.0588 28.7604 17.3573 28.3922 17.3573H23.3446V22.4049C23.3446 22.7731 23.0461 23.0716 22.6779 23.0716H18.297C17.9288 23.0716 17.6303 22.7731 17.6303 22.4049V17.3573Z" fill="white"/>
</g>
</svg>
