<svg width="41" height="29" viewBox="0 0 41 29" fill="none" xmlns="http://www.w3.org/2000/svg">
<rect x="0.487305" y="0.214355" width="40" height="28.5714" rx="4" fill="white"/>
<mask id="mask0_1_14447" style="mask-type:luminance" maskUnits="userSpaceOnUse" x="0" y="0" width="41" height="29">
<rect x="0.487305" y="0.214355" width="40" height="28.5714" rx="4" fill="white"/>
</mask>
<g mask="url(#mask0_1_14447)">
<rect x="0.487305" y="0.214355" width="40" height="28.5714" fill="#F1361D"/>
<path fill-rule="evenodd" clip-rule="evenodd" d="M14.877 4.64377L16.2604 4.87964L17.2981 5.82463L17.5339 4.44114L18.4789 3.40351L17.0954 3.16765L16.0578 2.22266L15.8219 3.60615L14.877 4.64377ZM18.5827 9.48274L19.7816 8.7531L21.1847 8.78555L20.455 7.58667L20.4875 6.1836L19.2886 6.91324L17.8855 6.88079L18.6152 8.07966L18.5827 9.48274ZM16.9564 17.3154L15.7837 18.0864L15.7672 16.683L14.9961 15.5104L16.3995 15.4938L17.5722 14.7228L17.5887 16.1261L18.3597 17.2988L16.9564 17.3154ZM17.9748 13.6876L19.3697 13.533L20.6276 14.1554L20.473 12.7605L21.0954 11.5025L19.7005 11.6572L18.4426 11.0348L18.5972 12.4297L17.9748 13.6876Z" fill="#FFDC42"/>
<path fill-rule="evenodd" clip-rule="evenodd" d="M10.0108 11.9668L6.65201 14.3612L7.89128 10.4269L4.57617 7.9724L8.70086 7.93526L10.0108 4.02393L11.3207 7.93526L15.4454 7.9724L12.1303 10.4269L13.3696 14.3612L10.0108 11.9668Z" fill="#FFDC42"/>
</g>
</svg>
