<svg width="41" height="29" viewBox="0 0 41 29" fill="none" xmlns="http://www.w3.org/2000/svg">
<rect x="0.487305" y="0.214355" width="40" height="28.5714" rx="4" fill="white"/>
<mask id="mask0_1_14591" style="mask-type:luminance" maskUnits="userSpaceOnUse" x="0" y="0" width="41" height="29">
<rect x="0.487305" y="0.214355" width="40" height="28.5714" rx="4" fill="white"/>
</mask>
<g mask="url(#mask0_1_14591)">
<path fill-rule="evenodd" clip-rule="evenodd" d="M0.487305 28.7858H40.4873V0.214355H0.487305V28.7858Z" fill="#F0371D"/>
<path fill-rule="evenodd" clip-rule="evenodd" d="M21.3245 6.12227C22.325 6.44735 22.609 8.33298 21.9588 10.334C21.3087 12.3349 19.9706 13.6935 18.9701 13.3684C17.9696 13.0433 17.6856 11.1577 18.3358 9.15674C18.9859 7.15578 20.324 5.7972 21.3245 6.12227ZM12.4333 11.3656C13.0516 10.5146 14.9327 10.8271 16.6349 12.0638C18.337 13.3005 19.2156 14.9929 18.5972 15.844C17.9789 16.695 16.0978 16.3824 14.3957 15.1458C12.6936 13.9091 11.815 12.2167 12.4333 11.3656ZM25.2492 14.8628C27.3532 14.8628 29.0588 14.01 29.0588 12.958C29.0588 11.9061 27.3532 11.0533 25.2492 11.0533C23.1453 11.0533 21.4397 11.9061 21.4397 12.958C21.4397 14.01 23.1453 14.8628 25.2492 14.8628ZM25.7254 13.5478C25.9884 13.5478 26.2016 13.3346 26.2016 13.0716C26.2016 12.8086 25.9884 12.5954 25.7254 12.5954C25.4624 12.5954 25.2492 12.8086 25.2492 13.0716C25.2492 13.3346 25.4624 13.5478 25.7254 13.5478ZM24.9476 22.4261C23.9471 22.7512 22.609 21.3926 21.9588 19.3916C21.3087 17.3907 21.5927 15.505 22.5932 15.18C23.5936 14.8549 24.9318 16.2135 25.5819 18.2144C26.2321 20.2154 25.9481 22.101 24.9476 22.4261ZM23.3566 19.4382C23.4379 19.6883 23.7065 19.8252 23.9567 19.7439C24.2068 19.6626 24.3437 19.394 24.2624 19.1439C24.1811 18.8937 23.9125 18.7569 23.6624 18.8381C23.4122 18.9194 23.2754 19.188 23.3566 19.4382ZM14.6725 21.4419C14.0542 20.5909 14.9327 18.8984 16.6349 17.6618C18.337 16.4251 20.2181 16.1125 20.8364 16.9636C21.4548 17.8146 20.5762 19.5071 18.874 20.7437C17.1719 21.9804 15.2908 22.293 14.6725 21.4419ZM17.0226 19.0055C16.8098 19.1601 16.7626 19.4579 16.9172 19.6707C17.0718 19.8834 17.3696 19.9306 17.5824 19.776C17.7951 19.6214 17.8423 19.3236 17.6877 19.1109C17.5331 18.8981 17.2353 18.8509 17.0226 19.0055ZM15.4767 12.8478C15.2639 12.6932 14.9661 12.7404 14.8115 12.9531C14.6569 13.1659 14.7041 13.4637 14.9169 13.6183C15.1296 13.7729 15.4274 13.7257 15.582 13.5129C15.7366 13.3002 15.6894 13.0024 15.4767 12.8478ZM20.8553 9.47471C20.9366 9.22458 20.7997 8.95594 20.5496 8.87467C20.2995 8.7934 20.0308 8.93028 19.9496 9.1804C19.8683 9.43053 20.0052 9.69917 20.2553 9.78044C20.5054 9.86171 20.7741 9.72483 20.8553 9.47471Z" fill="white"/>
</g>
</svg>
