<svg width="71" height="52" viewBox="0 0 71 52" fill="none" xmlns="http://www.w3.org/2000/svg">
<path d="M-15.043 50.3339L27.3199 7.59156L31.4984 6.67249L34.2305 7.65057L37.3876 8.80568L39.3337 5.82938L46.1238 1.42236L51.1253 1.86432L55.2021 3.08975L59.7448 7.7146L62.2226 14.5417L66.5744 17.5808L69.2512 22.8799L67.3139 32.5665L46.2651 53.7472H23.9713C16.1346 53.7472 0.88695 54.3163 -9.35371 53.7474C-11.6699 53.1789 -13.9051 52.0406 -15.043 50.3339Z" fill="#485A91"/>
<path d="M25.4795 35.5551H25.46L25.4355 35.5538V35.5551C24.9107 35.5306 22.6017 34.8137 20.542 33.103C18.4835 31.391 16.5449 28.679 16.5449 24.6512C16.5449 24.498 16.5499 24.3002 16.5619 24.0579L16.5631 24.0284C16.7113 21.0289 17.8369 18.8725 19.2726 17.3369C21.107 15.3757 23.4944 14.4554 24.9572 14.0762C24.853 13.0824 24.9044 11.712 25.4424 10.3654C25.9572 9.07909 26.8989 7.79653 28.5412 6.84356C31.5991 5.0682 35.0349 6.55227 36.7933 7.57995C37.7532 5.53401 40.2204 1.71962 45.6363 0.412585C48.7664 -0.342634 51.479 0.0101777 53.7101 0.89472C56.8158 2.1258 58.9803 4.39962 60.0407 6.14359C61.4149 8.40046 61.8223 11.8991 61.9397 13.4811C64.1715 14.1352 70.0946 16.5691 70.0946 23.9895C70.0946 27.4812 69.0123 30.0074 67.5508 31.7928C65.2406 34.6178 61.9303 35.5614 60.4305 35.5614V35.5557H48.2748V33.4012H60.4318V33.3974C61.5511 33.3974 64.056 32.6529 65.8797 30.4242C67.0592 28.9822 67.9331 26.9074 67.9331 23.9895C67.9331 16.6677 60.7344 15.3977 60.7136 15.3946C60.2221 15.3042 59.8429 14.8798 59.831 14.36C59.831 14.3468 59.718 9.76337 58.2 7.26794C57.3174 5.81903 55.515 3.92752 52.9166 2.89797C51.0578 2.16158 48.7858 1.87092 46.1422 2.50874C40.1626 3.95201 38.5097 8.946 38.354 9.46078C38.3195 9.60642 38.2536 9.74642 38.1556 9.87197C37.7903 10.3409 37.1123 10.4238 36.6439 10.0578C36.6326 10.049 32.6845 6.93396 29.6228 8.71121C28.4627 9.38419 27.8023 10.2775 27.4451 11.1683C26.8788 12.5846 27.0383 13.9557 27.2071 14.4843C27.2687 14.6199 27.3026 14.7712 27.3026 14.9294C27.3026 15.5264 26.8185 16.0104 26.2209 16.0104C25.8223 16.0104 22.9571 16.5465 20.8433 18.8072C19.7152 20.0144 18.83 21.7276 18.7158 24.1477V24.159C18.7095 24.2839 18.7057 24.4497 18.7057 24.6518C18.7057 27.8924 20.2639 30.0727 21.9181 31.4481C23.571 32.8217 25.1932 33.3855 25.5354 33.4005H44.102V35.5557H25.5052L25.4795 35.5551Z" fill="white"/>
<path d="M37.1895 13.1406V18.8628H55.6644V13.1406H37.1895ZM46.2477 17.365H38.8568V14.9292H46.2477V17.365ZM49.6151 17.4924C48.9409 17.4924 48.3941 16.945 48.3941 16.2701C48.3941 15.5952 48.9409 15.0484 49.6151 15.0484C50.2893 15.0484 50.8361 15.5959 50.8361 16.2701C50.8361 16.9443 50.2893 17.4924 49.6151 17.4924ZM52.8595 17.4924C52.184 17.4924 51.6372 16.945 51.6372 16.2701C51.6372 15.5952 52.184 15.0484 52.8595 15.0484C53.5337 15.0484 54.0805 15.5959 54.0805 16.2701C54.0805 16.9443 53.5337 17.4924 52.8595 17.4924Z" fill="white"/>
<path d="M37.1895 19.8086V25.5302H55.6644V19.8086H37.1895ZM46.2477 24.0329H38.8568V21.5965H46.2477V24.0329ZM49.6151 24.1604C48.9409 24.1604 48.3941 23.6129 48.3941 22.9381C48.3941 22.2645 48.9409 21.7177 49.6151 21.7177C50.2893 21.7177 50.8361 22.2645 50.8361 22.9381C50.8361 23.6129 50.2893 24.1604 49.6151 24.1604ZM52.8595 24.1604C52.184 24.1604 51.6372 23.6129 51.6372 22.9381C51.6372 22.2645 52.184 21.7177 52.8595 21.7177C53.5337 21.7177 54.0805 22.2645 54.0805 22.9381C54.0805 23.6129 53.5337 24.1604 52.8595 24.1604Z" fill="white"/>
<path d="M37.1895 26.4771V32.198H44.8195V36.4456H47.561V32.198H55.6644V26.4771H37.1895ZM38.8568 30.7001V28.2637H46.2477V30.7001H38.8568ZM46.846 35.1367H45.5352V33.7066H46.846V35.1367ZM49.6151 30.8276C48.9409 30.8276 48.3941 30.2808 48.3941 29.6053C48.3941 28.931 48.9409 28.3849 49.6151 28.3849C50.2893 28.3849 50.8361 28.931 50.8361 29.6053C50.8361 30.2808 50.2893 30.8276 49.6151 30.8276ZM52.8595 30.8276C52.184 30.8276 51.6372 30.2808 51.6372 29.6053C51.6372 28.931 52.184 28.3849 52.8595 28.3849C53.5337 28.3849 54.0805 28.931 54.0805 29.6053C54.0805 30.2808 53.5337 30.8276 52.8595 30.8276Z" fill="white"/>
</svg>
