<svg width="64" height="65" viewBox="0 0 64 65" fill="none" xmlns="http://www.w3.org/2000/svg">
<path d="M15.2877 0.0229492H48.7123C57.1206 0.0229492 64 6.9024 64 15.3107V48.7347C64 57.1429 57.1206 64.0229 48.7123 64.0229H15.2877C6.87945 64.0229 0 57.1429 0 48.7347V15.3107C0 6.9024 6.87945 0.0229492 15.2877 0.0229492Z" fill="#687DBE"/>
<path d="M0 41.6898L18.2306 23.4591L21.9029 22.6514L24.304 23.511L27.0786 24.5262L28.789 21.9105L34.7564 18.0374L39.152 18.4258L42.7349 19.5027L46.7272 23.5673L48.9048 29.5673L52.7294 32.2382L55.0819 36.8953L53.3793 45.4084L34.8806 64.023H15.2877C6.87945 64.023 0 57.143 0 48.7353V41.6898Z" fill="#485A91"/>
<path d="M16.6139 48.0344H16.5968L16.5752 48.0333V48.0344C16.114 48.0129 14.0848 47.3828 12.2745 45.8794C10.4654 44.3748 8.76172 41.9914 8.76172 38.4515C8.76172 38.3169 8.76613 38.1431 8.77662 37.9302L8.77772 37.9042C8.90793 35.2681 9.89717 33.3729 11.159 32.0234C12.7711 30.2998 14.8693 29.491 16.1548 29.1577C16.0632 28.2844 16.1085 27.0799 16.5813 25.8965C17.0337 24.766 17.8613 23.6388 19.3046 22.8013C21.9921 21.2411 25.0116 22.5453 26.557 23.4485C27.4006 21.6504 29.5689 18.2982 34.3286 17.1495C37.0795 16.4857 39.4635 16.7958 41.4243 17.5732C44.1537 18.6551 46.0561 20.6535 46.9879 22.1862C48.1957 24.1696 48.5537 27.2444 48.6569 28.6347C50.6183 29.2096 55.8238 31.3486 55.8238 37.87C55.8238 40.9387 54.8726 43.1588 53.5882 44.7279C51.5579 47.2107 48.6486 48.0399 47.3306 48.0399V48.035H36.6475V46.1415H47.3317V46.1382C48.3154 46.1382 50.5168 45.4838 52.1195 43.5252C53.1562 42.2579 53.9242 40.4344 53.9242 37.87C53.9242 31.4353 47.5976 30.3191 47.5794 30.3164C47.1474 30.2369 46.8141 29.8639 46.8037 29.4071C46.8037 29.3955 46.7043 25.3674 45.3703 23.1743C44.5945 21.9009 43.0105 20.2386 40.727 19.3337C39.0933 18.6866 37.0966 18.4311 34.7733 18.9917C29.5181 20.2601 28.0654 24.6491 27.9286 25.1015C27.8983 25.2295 27.8403 25.3525 27.7543 25.4628C27.4332 25.875 26.8373 25.9478 26.4257 25.6262C26.4158 25.6184 22.946 22.8808 20.2552 24.4427C19.2357 25.0342 18.6552 25.8193 18.3413 26.6022C17.8436 27.8468 17.9838 29.0518 18.1322 29.5164C18.1863 29.6355 18.2161 29.7685 18.2161 29.9075C18.2161 30.4322 17.7907 30.8576 17.2654 30.8576C16.9151 30.8576 14.397 31.3288 12.5394 33.3155C11.5479 34.3765 10.77 35.8822 10.6696 38.0091V38.019C10.6641 38.1288 10.6608 38.2744 10.6608 38.4521C10.6608 41.3001 12.0301 43.2162 13.4839 44.425C14.9366 45.6322 16.3623 46.1277 16.663 46.1409H32.9802V48.035H16.6365L16.6139 48.0344Z" fill="white"/>
<path d="M26.9043 28.3357V33.3647H43.141V28.3357H26.9043ZM34.8651 32.0482H28.3697V29.9076H34.8651V32.0482ZM37.8246 32.1602C37.232 32.1602 36.7515 31.6791 36.7515 31.086C36.7515 30.4929 37.232 30.0124 37.8246 30.0124C38.4171 30.0124 38.8977 30.4935 38.8977 31.086C38.8977 31.6786 38.4171 32.1602 37.8246 32.1602ZM40.6759 32.1602C40.0822 32.1602 39.6017 31.6791 39.6017 31.086C39.6017 30.4929 40.0822 30.0124 40.6759 30.0124C41.2684 30.0124 41.749 30.4935 41.749 31.086C41.749 31.6786 41.2684 32.1602 40.6759 32.1602Z" fill="white"/>
<path d="M26.9043 34.1956V39.224H43.141V34.1956H26.9043ZM34.8651 37.9081H28.3697V35.7669H34.8651V37.9081ZM37.8246 38.0201C37.232 38.0201 36.7515 37.539 36.7515 36.9459C36.7515 36.3539 37.232 35.8733 37.8246 35.8733C38.4171 35.8733 38.8977 36.3539 38.8977 36.9459C38.8977 37.539 38.4171 38.0201 37.8246 38.0201ZM40.6759 38.0201C40.0822 38.0201 39.6017 37.539 39.6017 36.9459C39.6017 36.3539 40.0822 35.8733 40.6759 35.8733C41.2684 35.8733 41.749 36.3539 41.749 36.9459C41.749 37.539 41.2684 38.0201 40.6759 38.0201Z" fill="white"/>
<path d="M26.9043 40.0566V45.0845H33.61V48.8175H36.0193V45.0845H43.141V40.0566H26.9043ZM28.3697 43.7681V41.6268H34.8651V43.7681H28.3697ZM35.3909 47.6671H34.2389V46.4103H35.3909V47.6671ZM37.8246 43.8801C37.232 43.8801 36.7515 43.3995 36.7515 42.8059C36.7515 42.2133 37.232 41.7333 37.8246 41.7333C38.4171 41.7333 38.8977 42.2133 38.8977 42.8059C38.8977 43.3995 38.4171 43.8801 37.8246 43.8801ZM40.6759 43.8801C40.0822 43.8801 39.6017 43.3995 39.6017 42.8059C39.6017 42.2133 40.0822 41.7333 40.6759 41.7333C41.2684 41.7333 41.749 42.2133 41.749 42.8059C41.749 43.3995 41.2684 43.8801 40.6759 43.8801Z" fill="white"/>
</svg>
