<svg width="31" height="25" viewBox="0 0 31 25" fill="none" xmlns="http://www.w3.org/2000/svg">
<path fill-rule="evenodd" clip-rule="evenodd" d="M24.4408 15.3576C23.8216 15.3576 23.2348 15.206 22.9671 14.7805C22.5685 14.1481 22.6273 12.9226 22.6273 12.1328C22.6273 11.1113 22.6567 10.2108 23.4951 9.87414C24.2879 9.55793 25.5792 9.63225 25.9234 10.5051C25.9719 10.6275 26.0161 10.8082 26.0425 10.9423C26.0749 11.1026 26.1058 11.2599 26.122 11.4465C26.1896 12.2188 26.147 12.3791 26.1484 13.0581C26.1499 13.4618 26.0984 14.2603 25.944 14.5736C25.8013 14.8621 25.6778 15.0166 25.3836 15.155C25.1689 15.257 24.7482 15.3576 24.4408 15.3576ZM0.833008 17.7707C0.872719 17.8115 0.831538 17.8188 1.0198 17.8159L4.24674 17.8144C5.39396 17.8144 6.54119 17.8144 7.68841 17.8144V15.1973H6.11466V9.78088H7.68841V7.13753L0.937436 7.13462C0.788885 7.15065 0.884486 7.12733 0.833008 7.18125V9.77943H2.38029V15.1973H0.833008V17.7707ZM14.785 5.05083C14.3438 5.15283 13.2701 4.98671 12.795 4.90657C12.6274 4.87888 12.395 4.81476 12.2494 4.8133C12.2494 4.54372 12.4009 4.38343 12.5832 4.08471C12.7083 3.87487 12.82 3.70292 12.9554 3.50329L13.5613 2.67706C13.6187 2.60128 13.7525 2.45411 13.7716 2.3827C13.8143 2.40456 14.6865 2.51385 14.785 2.51531L14.8115 3.86321C14.81 4.29017 14.785 4.62387 14.785 5.05083ZM14.5747 0.505836C13.4922 0.543724 12.4273 0.72733 11.3404 1.05811L10.6315 1.30584C8.73415 2.06358 7.48397 2.91312 6.05582 4.38343L5.83079 4.63553C5.61458 4.89199 4.85859 5.82168 4.81005 6.02861H5.31748C5.36455 5.93826 5.42485 5.8654 5.48809 5.77505C5.55575 5.68325 5.60723 5.62788 5.67489 5.53753L6.072 5.05811C6.42205 4.69236 6.45882 4.60201 6.91036 4.17214C6.97066 4.11531 7.64281 3.5266 7.72371 3.49309C7.8046 3.45957 7.78695 3.47269 7.86785 3.5266C8.21496 3.75684 8.60178 3.95793 8.97242 4.1532C8.93271 4.30037 7.78107 5.56085 7.66488 6.05629C8.2988 6.05629 8.02523 6.16121 8.64884 5.33935L9.21952 4.63553C9.31659 4.53789 9.35924 4.51895 9.4269 4.39218L10.9301 4.93717C11.1036 4.994 11.2845 5.06686 11.4522 5.10474C11.4257 5.41804 11.1124 5.76048 11.1066 6.03006C11.208 6.03298 11.233 6.06212 11.3419 6.05484C11.4272 6.04755 11.4581 6.03006 11.586 6.03006C11.6199 5.88143 11.9317 5.33061 11.9596 5.21112C12.3097 5.37578 14.2511 5.55356 14.76 5.55356C14.9645 5.97469 14.535 6.02861 15.1601 6.02861C15.2321 6.02861 15.2336 6.01549 15.2939 6.00238V5.57833L16.7353 5.44864C16.9721 5.42095 17.1971 5.38307 17.4075 5.34955C17.5398 5.32624 17.6237 5.31167 17.7443 5.28689C18.1429 5.20383 18.037 5.14263 18.262 5.62205C18.3282 5.7634 18.3988 5.89746 18.4664 6.02715H18.9474C18.8591 5.65265 18.6076 5.36121 18.6003 5.07706C18.6532 5.05083 18.7871 5.01877 18.8444 4.99983C19.2504 4.87159 20.2873 4.52478 20.6285 4.36157C20.6785 4.43735 20.7403 4.48689 20.808 4.55392L21.8022 5.81586C21.9699 6.06795 21.8758 6.02715 22.3096 6.02715C22.3817 6.02715 22.3832 6.01403 22.4435 6.00092L21.6595 4.82059C21.561 4.6909 21.1374 4.25666 21.1374 4.15028C21.1374 4.07014 21.1801 4.07596 21.2404 4.04099L22.2567 3.46394C22.3788 3.46394 22.3597 3.48143 22.4847 3.58052C23.1554 4.11094 24.0099 4.943 24.4791 5.61913C24.5732 5.75465 24.66 5.85957 24.7365 6.00092C24.9733 6.00092 25.0865 6.06066 25.2689 5.97323C25.1056 5.66431 24.6865 5.16303 24.457 4.87451L24.0084 4.3674C23.6687 4.03371 23.5083 3.85738 23.1554 3.547C22.4244 2.90729 21.6316 2.31567 20.7506 1.88434C19.5475 1.29272 18.5665 0.903651 17.1707 0.674871C16.5868 0.580153 16.0161 0.521866 15.4513 0.501465H14.5747V0.505836ZM15.2645 3.78307L15.2924 2.51385C15.619 2.51385 15.8984 2.40893 16.2264 2.40893C16.3397 2.40893 17.3325 3.91422 17.4589 4.12114C17.5369 4.25228 17.7899 4.65738 17.7987 4.78708C17.5751 4.7929 16.6015 5.07851 15.2924 5.07851C15.291 4.61513 15.2645 4.245 15.2645 3.78307ZM11.7434 4.65301C11.7714 4.53789 12.0361 4.11094 12.1008 4.00456C12.2332 3.79035 12.3332 3.60383 12.4729 3.39545L13.1907 2.38999C13.2583 2.30256 13.2363 2.33899 13.2363 2.19618C12.5509 2.03881 12.9024 1.68179 11.8331 2.3929C11.4198 2.66686 10.5153 3.31531 10.1358 3.69709C9.96521 3.86613 9.87549 3.88799 9.87549 4.02205C9.87696 4.09928 11.4978 4.65301 11.7434 4.65301ZM16.7588 2.19618C17.0427 2.17287 17.2839 1.87851 17.5178 1.97177C17.6207 2.01258 17.6884 2.04755 17.7737 2.09126C18.1399 2.2807 18.9739 2.84318 19.2857 3.10256C19.3592 3.16522 19.4151 3.21039 19.4872 3.27305C19.5622 3.34008 19.599 3.36048 19.674 3.43188L20.0608 3.78744C20.149 3.87196 20.1976 3.87633 20.202 4.01913C20.0873 4.02788 18.8003 4.62678 18.3341 4.62678L17.5663 3.40565C17.3266 3.05156 17.1104 2.71057 16.8471 2.3725C16.7956 2.3113 16.7706 2.2909 16.7588 2.19618ZM9.34306 3.78307C9.12097 3.73061 8.6106 3.39983 8.34586 3.26431C8.1017 3.13899 8.22231 3.08799 8.61796 2.82569C8.77092 2.72514 8.92241 2.63043 9.07832 2.543C9.72106 2.1787 10.4094 1.86686 11.1066 1.61913L11.511 1.46467C11.7316 1.41221 11.867 1.3889 12.0273 1.57396C12.0846 1.64099 12.0626 1.60456 12.0626 1.72259L10.63 2.68143L9.34306 3.78307ZM17.9855 1.64099C18.012 1.54773 18.0752 1.50693 18.1487 1.45884C18.2591 1.38744 18.2796 1.40784 18.4238 1.44427C18.6106 1.49381 18.8121 1.5521 18.9753 1.61185C19.6446 1.85374 20.3344 2.16558 20.9374 2.52259C21.0315 2.57942 21.7993 3.00201 21.7993 3.1215C21.7993 3.20893 21.3889 3.40128 21.3007 3.44937C20.4653 3.9011 20.8433 3.78598 20.2358 3.32259L19.7534 2.90292C19.171 2.41768 18.9636 2.29236 18.3473 1.89163C18.2399 1.82023 18.0428 1.72551 17.9855 1.64099ZM12.4641 1.24609C12.5876 1.16303 12.8406 1.13534 13.0171 1.1062C14.3232 0.89345 15.6616 0.868678 16.9662 1.09309C17.0648 1.11203 17.4869 1.18343 17.559 1.2184C17.5487 1.33498 17.531 1.32332 17.3633 1.42241C16.0484 2.18744 14.2776 2.2603 12.9083 1.5725C12.7465 1.4909 12.545 1.39764 12.4641 1.24609ZM15.1307 22.916C15.3542 22.916 15.6513 22.9466 15.8661 22.9802C17.0221 23.155 17.531 23.6199 17.6649 23.6563V23.7612C17.5045 23.7758 16.9471 23.9084 16.6206 23.9419C15.3969 24.073 14.3247 24.0687 13.1068 23.8632C12.9465 23.8355 12.7288 23.7743 12.57 23.7612C12.5729 23.6446 12.5229 23.6782 12.7686 23.5353C13.0745 23.3547 13.2922 23.2629 13.6554 23.1434C13.8702 23.072 14.0996 23.021 14.3467 22.9831C14.5688 22.9481 14.8998 22.916 15.1307 22.916ZM15.0998 24.5015L16.0131 24.4505C18.209 24.2843 20.1079 23.6417 21.9125 22.4468C22.4803 22.0694 23.0715 21.5914 23.5539 21.1135C23.8922 20.7783 24.1982 20.465 24.4982 20.092C24.6467 19.9084 25.2777 19.1113 25.3218 18.9262H24.8129C24.71 19.1215 24.0893 19.8924 23.8863 20.1211L22.8053 21.1893C22.7215 21.2592 22.6523 21.3131 22.57 21.3802C22.3758 21.5375 22.3876 21.4982 22.0287 21.2884L21.1874 20.8279C21.1904 20.6647 21.2374 20.6603 21.3286 20.57L21.8581 19.9069C21.9714 19.7539 22.4567 19.0647 22.495 18.9248H21.9875C21.661 19.4057 21.4169 19.7306 21.0565 20.1692C21.0242 20.21 21.0036 20.2261 20.9697 20.2669L20.7065 20.5612L19.2033 20.0162C19.0283 19.9594 18.8488 19.8865 18.6797 19.8486C18.6944 19.6782 18.94 19.2905 19.0268 18.9233H18.5723L18.162 19.7379C17.8678 19.598 15.7087 19.3721 15.3454 19.3721V19.1608C15.3454 19.0282 15.3204 19.0428 15.3175 18.9233H14.863C14.863 19.4363 14.9145 19.4013 14.5703 19.3984C14.1952 19.394 12.8568 19.5805 12.4259 19.6519C12.295 19.6738 12.1729 19.7073 12.0626 19.716C11.9184 19.445 11.7831 19.1696 11.636 18.8956H11.183C11.1948 19.0472 11.2978 19.2585 11.3595 19.3809C11.411 19.4814 11.5463 19.7379 11.5566 19.8472L9.99316 20.3849C9.82255 20.4446 9.63722 20.5496 9.47544 20.5874C9.35483 20.4738 9.22393 20.3164 9.11067 20.1838C8.98124 20.0322 8.8724 19.8938 8.75621 19.7408L8.25467 19.0486C8.14583 18.8723 8.18113 18.8956 7.82225 18.8956C7.75018 18.8956 7.74724 18.9088 7.68841 18.9233C7.71047 19.1842 8.55913 20.2144 8.7165 20.414C9.11509 20.9211 9.11509 20.7579 8.44881 21.1572C7.69429 21.6104 7.86638 21.5667 7.39719 21.1907C7.31335 21.1237 7.29276 21.1033 7.21334 21.0304C7.14127 20.9605 7.10009 20.943 7.02655 20.8731L6.01023 19.7918C5.95287 19.7204 5.91463 19.684 5.85579 19.6024C5.76313 19.4785 5.39249 18.9598 5.33219 18.9335C5.33219 18.9321 5.17923 18.9029 5.17481 18.9029C5.07039 18.8927 4.9792 18.9248 4.83653 18.9248C4.90124 19.2016 5.63517 20.0133 5.87638 20.3251C6.06465 20.57 6.38234 20.8658 6.60296 21.0843L7.12363 21.5463C7.56928 21.9587 8.33262 22.4847 8.85329 22.7922C9.71518 23.3066 10.6521 23.7015 11.6228 23.9871C12.1435 24.1401 12.6435 24.2596 13.2274 24.3514C13.5437 24.4009 14.5468 24.4869 14.9924 24.4985H15.0998V24.5015ZM8.30174 21.8581C8.30174 21.7255 8.70179 21.5419 8.82093 21.4734C9.67105 20.9736 9.32982 21.2271 10.0314 21.7823L10.3491 22.0505C10.4623 22.1496 10.5638 22.2297 10.6874 22.323L11.3801 22.8271C11.4816 22.8942 12.0317 23.2614 12.1435 23.2862C12.1288 23.4596 11.9331 23.598 11.7493 23.547C11.5713 23.4989 11.3522 23.4261 11.1786 23.3692C10.2417 23.0618 9.31511 22.5692 8.50029 22.0344C8.43705 21.9922 8.30174 21.9324 8.30174 21.8581ZM18.0649 23.2862C18.2105 23.2483 19.3725 22.4177 19.4945 22.3244C19.7107 22.1568 19.9667 21.8931 20.127 21.7605C20.2726 21.641 20.7241 21.198 20.7859 21.198C20.9786 21.198 21.4419 21.4982 21.6478 21.6118C21.7478 21.6687 21.814 21.7255 21.9331 21.7532C21.9287 21.9237 21.7772 21.9878 21.5654 22.1292C21.1006 22.4366 20.6329 22.6727 20.127 22.9248C19.9593 23.0108 19.774 23.0836 19.6063 23.1506L18.4959 23.531C18.3664 23.5674 18.3576 23.5951 18.2385 23.5106C18.1546 23.4508 18.0752 23.4071 18.0649 23.2862ZM16.8912 22.7834C17.3678 22.8927 17.3825 23.1142 17.6737 22.951C18.059 22.7383 18.4267 22.5357 18.7768 22.2734C19.1239 22.014 19.6563 21.6191 19.9652 21.3102C20.1534 21.1237 20.2755 21.0596 20.2785 20.908C20.0137 20.8468 18.94 20.3266 18.4106 20.3266C18.2958 20.5423 18.1723 20.7536 18.0429 20.9649C17.9149 21.1747 17.7958 21.3714 17.6634 21.5681C17.5281 21.7707 17.3972 21.963 17.2589 22.17C17.1177 22.3827 16.8956 22.6159 16.8912 22.7834ZM9.90197 20.9605C9.92403 21.0071 9.91521 21.0479 9.95198 21.0975L10.63 21.692C10.7727 21.81 10.8992 21.912 11.0448 22.0213C11.1257 22.0796 11.1713 22.1233 11.2551 22.1845C11.4463 22.3259 12.4317 22.9787 12.5891 23.0312C12.7083 23.072 13.1524 22.8024 13.3436 22.7572C13.3363 22.6639 13.3083 22.645 13.2554 22.5794L12.948 22.1437C12.8127 21.9397 12.6906 21.7605 12.5523 21.5579C12.4126 21.3496 12.2935 21.1455 12.167 20.9343C12.1038 20.8308 12.0449 20.7273 11.9802 20.6166C11.9228 20.5204 11.8508 20.4242 11.8214 20.2989C11.561 20.2989 10.6182 20.6472 10.3432 20.7623C10.1726 20.8352 10.0549 20.8803 9.90197 20.9605ZM12.3303 20.1678C13.1907 19.9681 13.8805 19.8763 14.8645 19.8763V22.441L13.8525 22.5736C13.8275 22.4833 13.5025 22.1029 13.4363 22.0067C13.3672 21.9077 13.3054 21.8246 13.2348 21.7313C12.9833 21.3962 12.698 20.8949 12.4759 20.5277C12.4156 20.4286 12.3347 20.3004 12.3303 20.1678ZM16.3308 22.5721C15.9337 22.5721 15.691 22.4658 15.3439 22.4658V19.8763C16.0631 19.8763 16.6853 19.9244 17.3736 20.0599L17.9311 20.1678C17.8958 20.3222 17.681 20.6647 17.5943 20.8089C17.4957 20.9721 16.4867 22.5721 16.3308 22.5721ZM8.19584 10.3623C8.19584 11.12 8.38704 11.684 8.81946 12.2275C8.8577 12.2741 8.87093 12.2814 8.9077 12.3251C8.94889 12.3732 8.94594 12.3805 8.99007 12.4286C9.19451 12.6574 9.52544 12.8978 9.78577 13.0669C10.3888 13.4588 10.7315 13.504 11.3345 13.7007C11.5287 13.7634 11.6875 13.8071 11.8875 13.8654C12.5685 14.0665 14.0379 14.4803 14.6409 14.7047C14.8189 14.7718 15.0527 14.8738 15.0527 15.0909C15.0527 15.3241 14.7159 15.3969 14.5026 15.445C13.1745 15.7466 11.5154 15.3197 10.6888 14.2341C10.5594 14.065 10.4918 13.8756 10.4109 13.8756H8.30321V17.8129H10.6771V17.1004C10.8242 17.1047 11.2551 17.3743 11.3963 17.4443C11.511 17.5011 11.6478 17.5434 11.7772 17.5958C11.9214 17.6526 12.0214 17.6803 12.1788 17.727C13.4628 18.1044 14.6615 18.1408 15.9514 17.7838C16.6338 17.5944 17.253 17.2053 17.6957 16.6574L17.9605 16.2581C18.3282 15.6228 18.3591 15.222 18.3591 14.4862C18.3591 13.0843 17.003 11.7685 15.719 11.4202C15.3572 11.3226 14.9865 11.2016 14.6247 11.1026L12.3935 10.4585C11.9214 10.3186 11.5051 10.2749 11.5051 9.83334C11.5051 9.69928 11.7346 9.53899 11.9258 9.48653C12.2214 9.40347 12.9877 9.45884 13.3333 9.52733C14.1849 9.69637 14.8453 9.96595 15.4454 10.5532C15.6219 10.7266 15.7528 10.97 15.8264 10.97H17.9605C18.0208 10.97 18.0414 10.951 18.0414 10.8898V7.82533C18.0414 7.61695 18.0134 7.52514 18.0134 7.32259H15.719V7.93024C15.5543 7.92733 15.1718 7.66504 15.0071 7.57906C14.9365 7.54117 14.8953 7.53389 14.8218 7.49891C14.6071 7.40128 14.4614 7.34154 14.2158 7.28034C13.0554 6.99473 11.817 6.92332 10.6683 7.25993C10.1564 7.41003 9.82401 7.5776 9.40925 7.86176C8.6106 8.40675 8.19584 9.35247 8.19584 10.3623ZM30.0961 12.127C30.0769 11.7583 30.0328 11.3955 29.9608 11.0516C29.8313 10.4366 29.6945 10.0811 29.4621 9.53607C29.2606 9.0654 28.7576 8.58744 28.3679 8.26831L27.5354 7.74518L26.8044 7.43917C24.9968 6.83152 23.1245 6.89855 21.3801 7.64901C20.6815 7.95065 20.4653 8.09928 19.9122 8.65156C19.7578 8.80602 19.571 9.0756 19.4519 9.25338C19.193 9.63808 18.9283 10.2501 18.8312 10.7266C18.793 10.9146 18.7562 11.1215 18.7268 11.3372C18.6709 11.7321 18.6253 12.178 18.6253 12.637C18.6253 13.472 18.768 14.3171 19.0136 14.9204C19.4136 15.9026 19.9372 16.5772 20.8506 17.1179C21.7051 17.6264 22.9288 18.0271 24.0128 18.0271C25.2351 18.0271 25.7528 18.0024 26.9309 17.6162C27.2721 17.5026 27.5707 17.37 27.8531 17.2082C28.3635 16.9182 28.7282 16.5714 29.0871 16.1328L29.4636 15.5004C29.8387 14.7266 30.0505 13.7925 30.0961 12.8585V12.127Z" fill="#B8B8B8"/>
</svg>
