<svg width="41" height="29" viewBox="0 0 41 29" fill="none" xmlns="http://www.w3.org/2000/svg">
<rect x="0.487305" y="0.214355" width="40" height="28.5714" rx="4" fill="white"/>
<mask id="mask0_1_14615" style="mask-type:luminance" maskUnits="userSpaceOnUse" x="0" y="0" width="41" height="29">
<rect x="0.487305" y="0.214355" width="40" height="28.5714" rx="4" fill="white"/>
</mask>
<g mask="url(#mask0_1_14615)">
<rect x="0.487305" y="0.214355" width="40" height="28.5714" fill="#30C6E0"/>
<circle cx="20.4877" cy="14.4999" r="5.71429" fill="#FFCD4B"/>
<path fill-rule="evenodd" clip-rule="evenodd" d="M18.1558 24.7137L20.4869 21.2339L22.8181 24.7137L23.4086 20.567L27.0187 22.6908L25.7516 18.6986L29.9257 19.0456L27.0518 15.9985L30.9631 14.5002L27.0518 13.0018L29.9257 9.9547L25.7516 10.3017L27.0187 6.30954L23.4086 8.43327L22.8181 4.28662L20.4869 7.76642L18.1558 4.28662L17.5653 8.43327L13.9551 6.30954L15.2223 10.3017L11.0482 9.9547L13.922 13.0018L10.0107 14.5002L13.922 15.9985L11.0482 19.0456L15.2223 18.6986L13.9551 22.6908L17.5653 20.567L18.1558 24.7137ZM20.4869 21.1668C24.1688 21.1668 27.1536 18.182 27.1536 14.5002C27.1536 10.8183 24.1688 7.83349 20.4869 7.83349C16.805 7.83349 13.8203 10.8183 13.8203 14.5002C13.8203 18.182 16.805 21.1668 20.4869 21.1668Z" fill="#FFCD4B"/>
<path fill-rule="evenodd" clip-rule="evenodd" d="M2.3916 2.78581C2.3916 2.41762 2.69008 2.11914 3.05827 2.11914H3.6297C3.99789 2.11914 4.29636 2.41762 4.29636 2.78581V3.35724C4.29636 3.72543 3.99789 4.0239 3.6297 4.0239H3.05827C2.69008 4.0239 2.3916 3.72543 2.3916 3.35724V2.78581ZM2.3916 6.59533C2.3916 6.22714 2.69008 5.92866 3.05827 5.92866H3.6297C3.99789 5.92866 4.29636 6.22714 4.29636 6.59533V7.16676C4.29636 7.53495 3.99789 7.83343 3.6297 7.83343H3.05827C2.69008 7.83343 2.3916 7.53495 2.3916 7.16676V6.59533ZM3.05827 9.73819C2.69008 9.73819 2.3916 10.0367 2.3916 10.4049V10.9763C2.3916 11.3445 2.69008 11.643 3.05827 11.643H3.6297C3.99789 11.643 4.29636 11.3445 4.29636 10.9763V10.4049C4.29636 10.0367 3.99789 9.73819 3.6297 9.73819H3.05827ZM2.3916 14.2144C2.3916 13.8462 2.69008 13.5477 3.05827 13.5477H3.6297C3.99789 13.5477 4.29636 13.8462 4.29636 14.2144V14.7858C4.29636 15.154 3.99789 15.4525 3.6297 15.4525H3.05827C2.69008 15.4525 2.3916 15.154 2.3916 14.7858V14.2144ZM3.05827 17.3572C2.69008 17.3572 2.3916 17.6557 2.3916 18.0239V18.5953C2.3916 18.9635 2.69008 19.262 3.05827 19.262H3.6297C3.99789 19.262 4.29636 18.9635 4.29636 18.5953V18.0239C4.29636 17.6557 3.99789 17.3572 3.6297 17.3572H3.05827ZM2.3916 21.8334C2.3916 21.4652 2.69008 21.1668 3.05827 21.1668H3.6297C3.99789 21.1668 4.29636 21.4652 4.29636 21.8334V22.4049C4.29636 22.773 3.99789 23.0715 3.6297 23.0715H3.05827C2.69008 23.0715 2.3916 22.773 2.3916 22.4049V21.8334ZM3.05827 24.9763C2.69008 24.9763 2.3916 25.2748 2.3916 25.643V26.2144C2.3916 26.5826 2.69008 26.881 3.05827 26.881H3.6297C3.99789 26.881 4.29636 26.5826 4.29636 26.2144V25.643C4.29636 25.2748 3.99789 24.9763 3.6297 24.9763H3.05827ZM4.29636 23.7382C4.29636 23.37 4.59484 23.0715 4.96303 23.0715H5.53446C5.90265 23.0715 6.20113 23.37 6.20113 23.7382V24.3096C6.20113 24.6778 5.90265 24.9763 5.53446 24.9763H4.96303C4.59484 24.9763 4.29636 24.6778 4.29636 24.3096V23.7382ZM4.96303 19.262C4.59484 19.262 4.29636 19.5605 4.29636 19.9287V20.5001C4.29636 20.8683 4.59484 21.1668 4.96303 21.1668H5.53446C5.90265 21.1668 6.20113 20.8683 6.20113 20.5001V19.9287C6.20113 19.5605 5.90265 19.262 5.53446 19.262H4.96303ZM4.29636 16.1191C4.29636 15.751 4.59484 15.4525 4.96303 15.4525H5.53446C5.90265 15.4525 6.20113 15.751 6.20113 16.1191V16.6906C6.20113 17.0588 5.90265 17.3572 5.53446 17.3572H4.96303C4.59484 17.3572 4.29636 17.0588 4.29636 16.6906V16.1191ZM4.96303 11.643C4.59484 11.643 4.29636 11.9414 4.29636 12.3096V12.881C4.29636 13.2492 4.59484 13.5477 4.96303 13.5477H5.53446C5.90265 13.5477 6.20113 13.2492 6.20113 12.881V12.3096C6.20113 11.9414 5.90265 11.643 5.53446 11.643H4.96303ZM4.29636 8.50009C4.29636 8.1319 4.59484 7.83343 4.96303 7.83343H5.53446C5.90265 7.83343 6.20113 8.1319 6.20113 8.50009V9.07152C6.20113 9.43971 5.90265 9.73819 5.53446 9.73819H4.96303C4.59484 9.73819 4.29636 9.43971 4.29636 9.07152V8.50009ZM4.96303 4.0239C4.59484 4.0239 4.29636 4.32238 4.29636 4.69057V5.262C4.29636 5.63019 4.59484 5.92866 4.96303 5.92866H5.53446C5.90265 5.92866 6.20113 5.63019 6.20113 5.262V4.69057C6.20113 4.32238 5.90265 4.0239 5.53446 4.0239H4.96303Z" fill="#FFCD4B"/>
</g>
</svg>
