<svg width="25" height="25" viewBox="0 0 25 25" fill="none" xmlns="http://www.w3.org/2000/svg">
<path fill-rule="evenodd" clip-rule="evenodd" d="M5.99636 16.5666C5.99636 16.5666 5.89495 14.9863 6.64114 13.7087C7.38858 12.4311 8.84714 10.3807 9.25404 9.50617C9.66094 8.63292 10.0678 7.89364 10.0678 6.65075C10.0678 5.40662 9.55953 2.7844 10.9492 1.47329C12.3402 0.162177 14.7841 0.26141 15.6317 1.2711C16.4793 2.28079 16.7522 3.25576 16.7848 5.67579C16.8186 8.09459 17.3294 8.09459 18.6515 10.1462C19.9736 12.1979 20.89 13.9121 20.9589 15.021C21.0265 16.1312 20.721 16.7688 20.721 16.7688C20.721 16.7688 21.7389 17.0392 21.7389 17.7102C21.7389 18.3825 22.0444 18.9209 22.5877 19.324C23.1311 19.7271 24.0125 20.5011 23.1975 21.14C22.3824 21.7788 21.2969 22.2824 20.4155 23.0217C19.5329 23.7622 18.9232 24.5015 17.9378 24.5015C16.9525 24.5015 16.3441 24.0971 16.1049 23.627C15.8683 23.1556 15.4602 22.7537 13.7312 22.585C12.0022 22.4163 11.0844 22.719 11.0168 23.0217C10.948 23.3256 10.2707 24.2658 9.28534 24.2658C8.30253 24.2658 6.60608 23.4595 5.58821 23.359C4.57035 23.2586 2.70363 22.8889 2.8401 21.981C2.97531 21.0742 3.31585 20.6041 3.07798 19.7296C2.8401 18.8564 3.17939 18.385 4.09584 18.0824C5.0123 17.7797 5.28273 17.7797 5.52061 17.2426C5.75974 16.6993 5.99636 16.5666 5.99636 16.5666ZM10.789 6.2042L11.0256 6.05288C11.0256 6.05288 10.7026 5.66587 10.7026 5.38057C10.7026 5.09528 10.9229 4.6078 11.3298 4.90922C11.738 5.21188 11.5677 5.78371 11.5677 5.78371L11.8394 5.68323C11.8394 5.68323 11.8557 5.09404 11.7881 4.7765C11.7217 4.45647 11.4838 4.1873 11.1796 4.0707C10.8729 3.95286 10.3996 4.23816 10.3996 4.99481C10.3996 5.75146 10.789 6.2042 10.789 6.2042ZM13.0275 5.59889L13.5033 5.81844L13.452 5.68323C13.452 5.68323 13.4344 5.19575 13.5872 4.90922C13.7399 4.62393 14.4686 4.37088 14.605 5.02706C14.7403 5.68323 14.2996 6.03551 14.2996 6.03551L14.7753 6.23894C14.7753 6.23894 14.8767 6.20545 14.9969 5.93628C15.1159 5.66711 15.3362 5.29747 15.1835 4.57431C15.0295 3.85115 14.0792 3.58198 13.5033 4.08559C12.9261 4.59043 13.0275 5.59889 13.0275 5.59889ZM17.4633 23.0527C18.6865 23.5228 19.2624 22.9187 20.11 22.1459C20.9576 21.3732 22.8244 20.8013 22.2134 20.3982C21.6037 19.9951 21.4334 18.8849 21.2631 18.4495C21.0929 18.0116 20.5169 17.7437 20.2115 18.0786C19.906 18.4148 19.0909 18.8526 18.4123 18.9196C17.7338 18.9879 17.1579 18.2473 17.1579 18.2473V19.0201C17.1579 19.0201 17.2593 19.6924 17.1917 20.2307C17.1228 20.7691 16.9876 21.4749 16.8173 22.1137C16.647 22.7525 17.4633 23.0527 17.4633 23.0527ZM3.96063 20.7678C3.83543 21.7031 3.90304 22.0169 4.9785 22.2464C5.87116 22.4374 6.53848 22.5156 7.76042 23.0527C8.98236 23.5898 9.66094 23.4223 9.89756 23.0192C10.1342 22.616 10.0002 21.7763 9.55827 21.3049C9.11632 20.8348 7.92944 18.7497 7.25086 17.9769C6.57228 17.2041 6.3682 17.7747 5.9275 18.1779C5.48555 18.5822 4.67176 18.514 4.16345 18.9184C3.65514 19.3228 4.08583 19.835 3.96063 20.7678ZM10.2719 20.5322C12.5781 21.5071 13.8 21.0705 14.8179 20.4999C15.8358 19.9281 16.2426 19.7259 16.2088 18.3478C16.175 16.9709 16.6833 16.6001 17.124 16.3309C17.5647 16.0617 17.4295 15.4576 17.3957 14.8176C17.3619 14.1788 16.1738 12.0961 15.8345 11.0195C15.4952 9.94279 14.8166 8.0276 14.8166 8.0276C14.8166 8.0276 14.3096 8.365 14.0028 8.56594C13.6974 8.76813 13.0538 9.27173 12.1036 9.10304C11.1533 8.93434 10.7464 8.1963 10.7464 8.1963C10.7464 8.1963 10.7464 8.96907 10.2719 10.3137C9.79615 11.6583 9.45811 11.8927 8.71068 13.406C7.96449 14.9193 7.96449 16.5988 8.74448 17.4733C9.52447 18.3466 10.983 19.221 10.983 19.7247C10.983 20.2283 10.2719 20.5322 10.2719 20.5322ZM10.5336 7.09482C10.5336 7.09482 10.7464 7.30073 11.1733 7.52648C11.3774 7.6344 11.5402 7.82418 11.9258 7.85271C13.1127 7.93581 14.3008 7.23002 14.5725 7.0452C14.8442 6.86162 15.2836 6.7934 14.3509 7.49919C13.4182 8.20374 12.6544 8.32158 12.1286 8.30546C11.6028 8.28933 10.9242 7.76712 10.9242 7.76712C10.9242 7.76712 11.6704 8.47291 12.0435 8.59075C12.4178 8.70859 12.8748 8.62548 13.3167 8.3898C13.7587 8.15413 14.3684 7.73363 14.8091 7.48183C15.2498 7.23002 15.1321 6.80952 14.9619 6.6247C14.7916 6.44112 13.8075 6.10497 13.1465 5.88542C12.4854 5.66711 11.9596 5.76758 11.3649 6.13722C10.7715 6.50686 10.5336 7.09482 10.5336 7.09482Z" fill="#B8B8B8"/>
</svg>
