<svg width="41" height="29" viewBox="0 0 41 29" fill="none" xmlns="http://www.w3.org/2000/svg">
<rect x="0.987305" y="0.714355" width="39" height="27.5714" rx="3.5" fill="white" stroke="#F5F5F5"/>
<mask id="mask0_1_14458" style="mask-type:luminance" maskUnits="userSpaceOnUse" x="0" y="0" width="41" height="29">
<rect x="0.987305" y="0.714355" width="39" height="27.5714" rx="3.5" fill="white" stroke="white"/>
</mask>
<g mask="url(#mask0_1_14458)">
<path fill-rule="evenodd" clip-rule="evenodd" d="M0.487305 15.4525H40.4873V0.214355H0.487305V15.4525Z" fill="#E12237"/>
<path fill-rule="evenodd" clip-rule="evenodd" d="M11.9159 3.07152C12.5013 3.07152 13.062 3.17714 13.58 3.37036C12.6021 2.58739 11.3613 2.11914 10.0112 2.11914C6.85525 2.11914 4.29688 4.67751 4.29688 7.83343C4.29688 10.9893 6.85525 13.5477 10.0112 13.5477C11.3613 13.5477 12.6021 13.0795 13.58 12.2965C13.062 12.4897 12.5013 12.5953 11.9159 12.5953C9.286 12.5953 7.15402 10.4634 7.15402 7.83343C7.15402 5.2035 9.286 3.07152 11.9159 3.07152ZM10.9635 7.83343C11.4895 7.83343 11.9159 7.40703 11.9159 6.88105C11.9159 6.35506 11.4895 5.92866 10.9635 5.92866C10.4376 5.92866 10.0112 6.35506 10.0112 6.88105C10.0112 7.40703 10.4376 7.83343 10.9635 7.83343ZM13.8207 10.6906C13.8207 11.2166 13.3943 11.643 12.8683 11.643C12.3423 11.643 11.9159 11.2166 11.9159 10.6906C11.9159 10.1646 12.3423 9.73819 12.8683 9.73819C13.3943 9.73819 13.8207 10.1646 13.8207 10.6906ZM16.6778 11.643C17.2038 11.643 17.6302 11.2166 17.6302 10.6906C17.6302 10.1646 17.2038 9.73819 16.6778 9.73819C16.1518 9.73819 15.7254 10.1646 15.7254 10.6906C15.7254 11.2166 16.1518 11.643 16.6778 11.643ZM19.535 6.88105C19.535 7.40703 19.1086 7.83343 18.5826 7.83343C18.0566 7.83343 17.6302 7.40703 17.6302 6.88105C17.6302 6.35506 18.0566 5.92866 18.5826 5.92866C19.1086 5.92866 19.535 6.35506 19.535 6.88105ZM14.7731 4.97628C15.2991 4.97628 15.7254 4.54989 15.7254 4.0239C15.7254 3.49792 15.2991 3.07152 14.7731 3.07152C14.2471 3.07152 13.8207 3.49792 13.8207 4.0239C13.8207 4.54989 14.2471 4.97628 14.7731 4.97628Z" fill="white"/>
</g>
</svg>
