<svg width="41" height="29" viewBox="0 0 41 29" fill="none" xmlns="http://www.w3.org/2000/svg">
<rect x="0.487305" y="0.214355" width="40" height="28.5714" rx="4" fill="white"/>
<mask id="mask0_1_14582" style="mask-type:luminance" maskUnits="userSpaceOnUse" x="0" y="0" width="41" height="29">
<rect x="0.487305" y="0.214355" width="40" height="28.5714" rx="4" fill="white"/>
</mask>
<g mask="url(#mask0_1_14582)">
<rect x="0.487305" y="0.214355" width="40" height="28.5714" fill="#E92434"/>
<path fill-rule="evenodd" clip-rule="evenodd" d="M27.6602 15.5975L25.9104 17.7189L26.0296 14.9716L23.4713 13.963L26.121 13.2274L26.2897 10.4827L27.8081 12.7754L30.4706 12.0876L28.7593 14.2402L30.2362 16.5598L27.6602 15.5975V15.5975V15.5975V15.5975Z" fill="white"/>
<path fill-rule="evenodd" clip-rule="evenodd" d="M25.348 9.23712C24.1377 8.35744 22.616 7.83347 20.9631 7.83347C17.0182 7.83347 13.8203 10.8182 13.8203 14.5001C13.8203 18.182 17.0182 21.1668 20.9631 21.1668C22.616 21.1668 24.1377 20.6428 25.348 19.7632C23.7796 21.7766 21.3321 23.0716 18.5822 23.0716C13.8483 23.0716 10.0107 19.234 10.0107 14.5001C10.0107 9.76627 13.8483 5.92871 18.5822 5.92871C21.3321 5.92871 23.7796 7.2237 25.348 9.23712Z" fill="white"/>
</g>
</svg>
