<svg width="41" height="29" viewBox="0 0 41 29" fill="none" xmlns="http://www.w3.org/2000/svg">
<rect x="0.487305" y="0.214355" width="40" height="28.5714" rx="4" fill="white"/>
<mask id="mask0_1_14485" style="mask-type:luminance" maskUnits="userSpaceOnUse" x="0" y="0" width="41" height="29">
<rect x="0.487305" y="0.214355" width="40" height="28.5714" rx="4" fill="white"/>
</mask>
<g mask="url(#mask0_1_14485)">
<path fill-rule="evenodd" clip-rule="evenodd" d="M40.4873 0.214355H0.487305V2.11912H40.4873V0.214355ZM40.4873 4.02388H0.487305V5.92864H40.4873V4.02388ZM0.487305 7.8334H40.4873V9.73816H0.487305V7.8334ZM40.4873 11.6429H0.487305V13.5477H40.4873V11.6429ZM0.487305 15.4525H40.4873V17.3572H0.487305V15.4525ZM40.4873 19.262H0.487305V21.1667H40.4873V19.262ZM0.487305 23.0715H40.4873V24.9763H0.487305V23.0715ZM40.4873 26.881H0.487305V28.7858H40.4873V26.881Z" fill="#D02F44"/>
<rect x="0.487305" y="0.214355" width="17.1429" height="13.3333" fill="#46467F"/>
<g filter="url(#filter0_d_1_14485)">
<path fill-rule="evenodd" clip-rule="evenodd" d="M3.34398 4.0239C3.86997 4.0239 4.29636 3.59751 4.29636 3.07152C4.29636 2.54554 3.86997 2.11914 3.34398 2.11914C2.818 2.11914 2.3916 2.54554 2.3916 3.07152C2.3916 3.59751 2.818 4.0239 3.34398 4.0239ZM7.15351 4.0239C7.67949 4.0239 8.10589 3.59751 8.10589 3.07152C8.10589 2.54554 7.67949 2.11914 7.15351 2.11914C6.62752 2.11914 6.20113 2.54554 6.20113 3.07152C6.20113 3.59751 6.62752 4.0239 7.15351 4.0239ZM11.9154 3.07152C11.9154 3.59751 11.489 4.0239 10.963 4.0239C10.437 4.0239 10.0106 3.59751 10.0106 3.07152C10.0106 2.54554 10.437 2.11914 10.963 2.11914C11.489 2.11914 11.9154 2.54554 11.9154 3.07152ZM14.7726 4.0239C15.2985 4.0239 15.7249 3.59751 15.7249 3.07152C15.7249 2.54554 15.2985 2.11914 14.7726 2.11914C14.2466 2.11914 13.8202 2.54554 13.8202 3.07152C13.8202 3.59751 14.2466 4.0239 14.7726 4.0239ZM6.20113 4.97628C6.20113 5.50227 5.77473 5.92866 5.24874 5.92866C4.72276 5.92866 4.29636 5.50227 4.29636 4.97628C4.29636 4.4503 4.72276 4.0239 5.24874 4.0239C5.77473 4.0239 6.20113 4.4503 6.20113 4.97628ZM9.05827 5.92866C9.58425 5.92866 10.0106 5.50227 10.0106 4.97628C10.0106 4.4503 9.58425 4.0239 9.05827 4.0239C8.53228 4.0239 8.10589 4.4503 8.10589 4.97628C8.10589 5.50227 8.53228 5.92866 9.05827 5.92866ZM13.8202 4.97628C13.8202 5.50227 13.3938 5.92866 12.8678 5.92866C12.3418 5.92866 11.9154 5.50227 11.9154 4.97628C11.9154 4.4503 12.3418 4.0239 12.8678 4.0239C13.3938 4.0239 13.8202 4.4503 13.8202 4.97628ZM14.7726 7.83343C15.2985 7.83343 15.7249 7.40703 15.7249 6.88105C15.7249 6.35506 15.2985 5.92866 14.7726 5.92866C14.2466 5.92866 13.8202 6.35506 13.8202 6.88105C13.8202 7.40703 14.2466 7.83343 14.7726 7.83343ZM11.9154 6.88105C11.9154 7.40703 11.489 7.83343 10.963 7.83343C10.437 7.83343 10.0106 7.40703 10.0106 6.88105C10.0106 6.35506 10.437 5.92866 10.963 5.92866C11.489 5.92866 11.9154 6.35506 11.9154 6.88105ZM7.15351 7.83343C7.67949 7.83343 8.10589 7.40703 8.10589 6.88105C8.10589 6.35506 7.67949 5.92866 7.15351 5.92866C6.62752 5.92866 6.20113 6.35506 6.20113 6.88105C6.20113 7.40703 6.62752 7.83343 7.15351 7.83343ZM4.29636 6.88105C4.29636 7.40703 3.86997 7.83343 3.34398 7.83343C2.818 7.83343 2.3916 7.40703 2.3916 6.88105C2.3916 6.35506 2.818 5.92866 3.34398 5.92866C3.86997 5.92866 4.29636 6.35506 4.29636 6.88105ZM5.24874 9.73819C5.77473 9.73819 6.20113 9.31179 6.20113 8.78581C6.20113 8.25982 5.77473 7.83343 5.24874 7.83343C4.72276 7.83343 4.29636 8.25982 4.29636 8.78581C4.29636 9.31179 4.72276 9.73819 5.24874 9.73819ZM10.0106 8.78581C10.0106 9.31179 9.58425 9.73819 9.05827 9.73819C8.53228 9.73819 8.10589 9.31179 8.10589 8.78581C8.10589 8.25982 8.53228 7.83343 9.05827 7.83343C9.58425 7.83343 10.0106 8.25982 10.0106 8.78581ZM12.8678 9.73819C13.3938 9.73819 13.8202 9.31179 13.8202 8.78581C13.8202 8.25982 13.3938 7.83343 12.8678 7.83343C12.3418 7.83343 11.9154 8.25982 11.9154 8.78581C11.9154 9.31179 12.3418 9.73819 12.8678 9.73819ZM15.7249 10.6906C15.7249 11.2166 15.2985 11.643 14.7726 11.643C14.2466 11.643 13.8202 11.2166 13.8202 10.6906C13.8202 10.1646 14.2466 9.73819 14.7726 9.73819C15.2985 9.73819 15.7249 10.1646 15.7249 10.6906ZM10.963 11.643C11.489 11.643 11.9154 11.2166 11.9154 10.6906C11.9154 10.1646 11.489 9.73819 10.963 9.73819C10.437 9.73819 10.0106 10.1646 10.0106 10.6906C10.0106 11.2166 10.437 11.643 10.963 11.643ZM8.10589 10.6906C8.10589 11.2166 7.67949 11.643 7.15351 11.643C6.62752 11.643 6.20113 11.2166 6.20113 10.6906C6.20113 10.1646 6.62752 9.73819 7.15351 9.73819C7.67949 9.73819 8.10589 10.1646 8.10589 10.6906ZM3.34398 11.643C3.86997 11.643 4.29636 11.2166 4.29636 10.6906C4.29636 10.1646 3.86997 9.73819 3.34398 9.73819C2.818 9.73819 2.3916 10.1646 2.3916 10.6906C2.3916 11.2166 2.818 11.643 3.34398 11.643Z" fill="url(#paint0_linear_1_14485)"/>
</g>
</g>
<defs>
<filter id="filter0_d_1_14485" x="2.3916" y="2.11914" width="13.333" height="11.5239" filterUnits="userSpaceOnUse" color-interpolation-filters="sRGB">
<feFlood flood-opacity="0" result="BackgroundImageFix"/>
<feColorMatrix in="SourceAlpha" type="matrix" values="0 0 0 0 0 0 0 0 0 0 0 0 0 0 0 0 0 0 127 0" result="hardAlpha"/>
<feOffset dy="2"/>
<feColorMatrix type="matrix" values="0 0 0 0 0 0 0 0 0 0 0 0 0 0 0 0 0 0 0.06 0"/>
<feBlend mode="normal" in2="BackgroundImageFix" result="effect1_dropShadow_1_14485"/>
<feBlend mode="normal" in="SourceGraphic" in2="effect1_dropShadow_1_14485" result="shape"/>
</filter>
<linearGradient id="paint0_linear_1_14485" x1="2.3916" y1="2.11914" x2="2.3916" y2="11.643" gradientUnits="userSpaceOnUse">
<stop stop-color="white"/>
<stop offset="1" stop-color="#F0F0F0"/>
</linearGradient>
</defs>
</svg>
