<svg width="81" height="72" fill="none" xmlns="http://www.w3.org/2000/svg"><g clip-path="url(#clip0_227_29939)"><path d="M5.453.257h69.999c2.75 0 5 2.25 5 5v48c0 2.75-2.25 5-5 5h-70c-2.75 0-5-2.25-5-5v-48c0-2.75 2.25-5 5-5zm0 11h69.999v42h-70v-42z" fill="#B8B8B8" fill-opacity=".5"/><path d="M5.453 11.257H75.45v42H5.453v-42z" fill="#FCFCFD"/><path d="M63.54 3.947a1.94 1.94 0 011.938 1.938 1.94 1.94 0 01-3.878 0c0-1.069.867-1.938 1.94-1.938z" fill="#39B3E4"/><path d="M68.676 4.048a1.939 1.939 0 110 3.878 1.939 1.939 0 010-3.878z" fill="#FFD400"/><path d="M73.936 4.15a1.939 1.939 0 110 3.878 1.939 1.939 0 010-3.878z" fill="#FF5728"/><path d="M65.664 50.15l.002-7.5a231.175 231.175 0 00-5.375-.57 19.985 19.985 0 00-2.771-6.263 186.876 186.876 0 003.476-4.441l-5.304-5.305a234.516 234.516 0 00-4.532 3.67 19.995 19.995 0 00-6.062-2.408c-.205-1.96-.443-3.914-.711-5.864h-7.5a236.6 236.6 0 00-.621 5.918 19.988 19.988 0 00-5.922 2.426 193.635 193.635 0 00-4.637-3.713l-5.303 5.303a183.93 183.93 0 003.586 4.582 19.998 19.998 0 00-2.646 6.035 199.91 199.91 0 00-5.679.631v7.5c1.819.25 3.632.474 5.442.668a19.956 19.956 0 002.508 6.498 189.663 189.663 0 00-3.279 4.109l5.303 5.305a185.516 185.516 0 003.986-3.106 19.996 19.996 0 006.702 2.897c.165 1.653.353 3.303.56 4.949h7.5c.225-1.632.428-3.259.607-4.885a19.98 19.98 0 006.861-2.871 187.196 187.196 0 003.901 3.043c1.771-1.768 3.537-3.535 5.306-5.303a220.516 220.516 0 00-3.181-3.941 19.946 19.946 0 002.638-6.729c1.719-.187 3.434-.401 5.145-.635zm-24.851 5.875c-5.015 0-9.08-4.063-9.08-9.077 0-5.011 4.064-9.075 9.08-9.075a9.075 9.075 0 019.074 9.075c0 5.014-4.064 9.077-9.074 9.077z" fill="#3C95CF"/></g><defs><clipPath id="clip0_227_29939"><path fill="#fff" d="M0 0h81v72H0z"/></clipPath></defs></svg>