<svg width="106" height="106" viewBox="0 0 106 106" fill="none" xmlns="http://www.w3.org/2000/svg">
<g clip-path="url(#clip0_227_31256)">
<path d="M53.1543 0.111084C82.4273 0.111084 106.154 23.8401 106.154 53.1111C106.154 82.3821 82.4263 106.111 53.1543 106.111C23.8833 106.111 0.154297 82.3821 0.154297 53.1111C0.154297 23.8401 23.8833 0.111084 53.1543 0.111084Z" fill="#738FBD"/>
<path d="M52.0787 23.1721L65.4867 33.2551L66.5707 35.8121L72.3287 36.2831L72.3777 46.7241L76.8097 77.9761L48.8497 105.935C25.0767 104.025 5.73473 86.4221 1.17773 63.4971L29.7207 34.9521L32.4507 35.7101L42.1717 26.2361L52.0787 23.1721Z" fill="#6682B0"/>
<path d="M68.8593 42.4291C68.7913 41.8701 68.7093 41.3271 68.6033 40.7921L70.9493 42.4291H68.8593ZM34.0233 37.3781H40.6583C40.1683 38.9781 39.8013 40.6672 39.5883 42.4291H34.8183L36.6773 40.0381L34.0233 37.3781ZM34.3073 68.9041H32.3503V46.0851H34.3073V68.9041ZM50.2273 24.8261C50.8213 24.8141 51.4343 24.9491 52.0493 25.1461C47.4493 26.1111 43.7353 29.8491 41.5413 34.9851H40.2303C42.8573 28.4671 46.6843 24.7381 50.2273 24.8261ZM63.7253 34.9861H63.3243C63.0413 34.2221 62.7393 33.4841 62.4243 32.7711C62.4573 32.8121 62.4873 32.8591 62.5283 32.9121C62.9613 33.5421 63.3523 34.2591 63.7253 34.9861ZM54.2233 27.7641C54.8603 27.7641 55.4893 27.8521 56.1143 28.0101C57.6373 29.7111 59.0433 32.0701 60.2153 34.9861H44.7213C45.0943 34.2591 45.4923 33.5431 45.9263 32.9121C48.1823 29.6051 51.1103 27.7641 54.2133 27.7641H54.2233ZM42.4863 42.4291C42.7223 40.6262 43.1423 38.9371 43.6933 37.3781H64.7483C65.3113 38.9371 65.7233 40.6262 65.9613 42.4291H42.4863ZM69.0903 37.3781L68.4553 39.9072C68.2753 39.0342 68.0433 38.2041 67.7893 37.3781H69.0903ZM72.8133 39.5051L73.6103 34.9851H66.9103C64.9283 30.3501 61.7093 26.8531 57.7303 25.4951C55.5763 23.3111 53.0653 21.9991 50.2263 21.9521C44.3713 22.0361 39.9253 27.4321 37.1213 34.9851H29.7773V73.5102L33.7503 73.7742V78.0281H76.7893V42.6852L72.8133 39.5051Z" fill="white"/>
</g>
<defs>
<clipPath id="clip0_227_31256">
<rect width="106" height="106" fill="white"/>
</clipPath>
</defs>
</svg>
