<svg width="106" height="106" viewBox="0 0 106 106" fill="none" xmlns="http://www.w3.org/2000/svg">
<g clip-path="url(#clip0_227_31240)">
<path d="M53.1543 0C82.4253 0 106.154 23.728 106.154 52.998C106.154 82.269 82.4253 105.998 53.1543 105.998C23.8833 105.998 0.154297 82.269 0.154297 52.998C0.154297 23.729 23.8833 0 53.1543 0Z" fill="#DB6D68"/>
<path d="M51.6724 17.5349L53.6934 26.5939L57.8164 22.6749L68.8344 34.4029L60.5374 42.8369L68.2664 61.6999L63.2234 66.6709L65.1414 68.1979L56.1964 77.0869L80.4944 73.6519L48.3654 105.782C25.2754 103.712 6.45143 86.8369 1.45943 64.7179L1.44043 64.6319L38.0804 27.9899L42.1894 27.1359L51.6724 17.5349Z" fill="#C95F5B"/>
<path d="M74.0636 69.717C65.7506 74.875 63.0476 76.485 55.8836 73.619C48.7236 70.746 46.6976 69.945 47.4496 68.107C48.6376 65.228 56.2816 68.48 59.9286 69.301C66.0396 70.701 68.9246 64.004 60.9916 62.051C53.0576 60.097 50.5596 58.732 44.3096 59.58C35.9966 60.731 23.8076 70.455 23.8076 70.455L31.9966 82.676C31.9966 82.676 36.7056 81.068 41.8576 81.068C47.0236 81.068 51.8966 84.494 59.0706 84.494C67.9596 84.494 73.7036 78.211 78.3636 75.449C84.6606 71.719 82.3756 64.566 74.0636 69.717Z" fill="white"/>
<path d="M68.9307 44.3161C66.7567 42.4351 63.4037 41.0091 58.8647 40.0251L58.0767 39.8491V50.2001C58.6417 50.4501 59.1127 50.7371 59.4737 51.0571C60.2427 51.7621 60.6357 52.6491 60.6357 53.7321C60.6357 55.0781 60.1767 56.0781 59.2317 56.7151C58.9147 56.9431 58.5357 57.1051 58.1557 57.2601C59.3407 57.5821 60.5807 57.9201 61.9267 58.2501C64.8167 58.9631 66.8287 60.2331 68.0847 61.7481C69.3407 60.5631 70.3367 59.2051 71.0627 57.6471C71.8187 56.0201 72.1977 54.2891 72.1977 52.4591C72.1937 48.9201 71.1027 46.2021 68.9307 44.3161ZM37.1957 54.1351H36.1387V58.1411C38.0727 57.2641 39.9767 56.5511 41.7577 56.1021C39.6157 55.3711 38.0907 54.7051 37.1957 54.1351ZM67.6887 34.4771H68.7357V25.0751C67.3837 24.4851 65.4517 23.9401 62.8997 23.4271C61.1497 23.0731 59.5457 22.8371 58.0767 22.6931V31.2901C59.6847 31.4791 61.1667 31.7551 62.4897 32.1601C64.3697 32.7141 66.1027 33.4921 67.6887 34.4771ZM35.3037 35.1241C35.3037 37.3711 35.6497 39.1981 36.3407 40.6301C37.0167 42.0531 37.9497 43.2701 39.1497 44.2691C40.3727 45.2951 41.7497 46.1011 43.2687 46.6851C44.7957 47.2691 46.3917 47.7831 48.0657 48.1811L48.8687 48.3821V38.0641C48.2147 37.7981 47.7437 37.5021 47.4837 37.1891C46.9587 36.5781 46.7007 35.8061 46.7007 34.8711C46.7007 33.7141 47.1417 32.8291 48.0287 32.2231C48.2947 32.0461 48.5947 31.9431 48.8667 31.8071L48.8687 22.9241C44.9387 23.5491 41.7377 24.8031 39.4057 26.7831C36.6707 29.0891 35.3037 31.8611 35.3037 35.1241Z" fill="white"/>
<path d="M51.4268 55.709V17.665H55.5248V56.559C54.1468 56.209 52.8078 55.912 51.4268 55.709Z" fill="white"/>
</g>
<defs>
<clipPath id="clip0_227_31240">
<rect width="106" height="106" fill="white"/>
</clipPath>
</defs>
</svg>
