<svg width="106" height="106" viewBox="0 0 106 106" fill="none" xmlns="http://www.w3.org/2000/svg">
<g clip-path="url(#clip0_227_31249)">
<path d="M53.0801 0.0639648C82.3511 0.0639648 106.08 23.793 106.08 53.064C106.08 82.335 82.3511 106.064 53.0801 106.064C23.8091 106.064 0.0800781 82.335 0.0800781 53.064C0.0800781 23.793 23.8091 0.0639648 53.0801 0.0639648Z" fill="#E79A60"/>
<path d="M32.6239 26.9571L37.2528 22.3671L38.9069 27.4491L43.8498 22.4551L45.5939 27.4981L50.5919 22.5211L51.8979 27.9701L57.5159 22.3101L58.6199 28.0741L64.3139 22.3921L66.8119 28.8921L69.4189 26.3101L72.6769 27.6421L73.3919 80.7401L48.2899 105.846C23.0689 103.588 2.93785 83.6641 0.359852 58.5371L0.336852 58.2811L0.297852 57.8551L31.2199 26.9371L32.6239 26.9571Z" fill="#D2884D"/>
<path d="M45.5223 30.543C46.6983 30.543 47.6653 29.586 47.6653 28.418V23.822C47.6653 22.629 46.6983 21.679 45.5223 21.679C44.3643 21.679 43.4053 22.628 43.4053 23.822V28.418C43.4053 29.586 44.3643 30.543 45.5223 30.543ZM59.7483 86.307L49.4673 86.338L49.4033 82.233C49.4033 82.233 42.7433 73.748 42.7433 72.223C42.7433 65.278 43.1223 62.832 45.4173 62.832C48.5053 62.832 47.4463 70.176 47.4463 70.176C47.4463 70.172 47.3543 59.83 47.3543 56.893C47.3543 50.496 53.2323 50.399 53.2323 56.893C53.2323 63.403 53.2323 63.461 53.2323 63.461C53.2323 63.461 63.4023 65.268 63.4023 71.984C63.4023 76.349 59.7893 82.342 59.7893 82.342L59.7483 86.307ZM38.4583 45.152H66.1453V41.902H38.4583V45.152ZM69.0373 74.48C69.0373 75.654 68.0743 76.611 66.9103 76.611H64.9633C64.4123 78.342 63.6583 80.072 62.8693 81.568H71.7853C72.9733 81.568 73.9163 80.611 73.9163 79.437V28.417C73.9163 27.235 72.9733 26.28 71.7853 26.28H69.3903V28.417C69.3903 30.368 67.8103 31.944 65.8473 31.944C64.2343 31.944 62.8923 30.866 62.4613 29.401C62.0283 30.866 60.6743 31.944 59.0693 31.944C57.4493 31.944 56.1173 30.866 55.6803 29.401C55.2463 30.866 53.8973 31.944 52.3023 31.944C50.6933 31.944 49.3453 30.866 48.9223 29.401C48.4833 30.866 47.1393 31.944 45.5203 31.944C43.9153 31.944 42.5733 30.866 42.1353 29.401C41.7173 30.866 40.3653 31.944 38.7623 31.944C36.7913 31.944 35.2173 30.368 35.2173 28.417V26.28H32.8053C31.6433 26.28 30.6943 27.235 30.6943 28.417V79.438C30.6943 80.612 31.6433 81.569 32.8053 81.569H45.8423C44.7483 80.159 43.3893 78.345 42.2933 76.612H37.6933C36.5153 76.612 35.5683 75.657 35.5683 74.483V36.908C35.5683 35.74 36.5153 34.797 37.6933 34.797H66.9103C68.0743 34.797 69.0373 35.74 69.0373 36.908V74.48ZM38.4583 53.934H45.2903C45.9193 52.379 46.9363 51.295 48.1083 50.683H38.4583V53.934ZM55.6783 53.934H66.1453V50.683H52.8853C54.0453 51.293 55.0533 52.379 55.6783 53.934ZM38.4583 62.695H41.5543C42.1953 61.502 43.1633 60.603 44.6223 60.273L44.6183 59.467H38.4583V62.695ZM59.5233 62.695H66.1443V59.467H56.3423V61.342C57.3893 61.646 58.4773 62.105 59.5233 62.695ZM38.4583 71.477H40.3103C40.3043 70.506 40.2923 69.383 40.3493 68.233H38.4583V71.477ZM65.8283 71.477H66.1443V68.233H65.0023C65.4843 69.24 65.7813 70.33 65.8283 71.477ZM65.8483 30.543C67.0183 30.543 67.9633 29.586 67.9633 28.418V23.822C67.9633 22.629 67.0183 21.679 65.8483 21.679C64.6723 21.679 63.7233 22.628 63.7233 23.822V28.418C63.7233 29.586 64.6723 30.543 65.8483 30.543ZM38.7643 30.543C39.9303 30.543 40.8813 29.586 40.8813 28.418V23.822C40.8813 22.629 39.9303 21.679 38.7643 21.679C37.5863 21.679 36.6313 22.628 36.6313 23.822V28.418C36.6313 29.586 37.5863 30.543 38.7643 30.543ZM59.0723 30.543C60.2403 30.543 61.2033 29.586 61.2033 28.418V23.822C61.2033 22.629 60.2403 21.679 59.0723 21.679C57.8963 21.679 56.9473 22.628 56.9473 23.822V28.418C56.9473 29.586 57.8963 30.543 59.0723 30.543ZM52.3053 30.543C53.4593 30.543 54.4203 29.586 54.4203 28.418V23.822C54.4203 22.629 53.4593 21.679 52.3053 21.679C51.1393 21.679 50.1823 22.628 50.1823 23.822V28.418C50.1823 29.586 51.1393 30.543 52.3053 30.543Z" fill="white"/>
</g>
<defs>
<clipPath id="clip0_227_31249">
<rect width="106" height="106" fill="white"/>
</clipPath>
</defs>
</svg>
