<svg width="106" height="106" viewBox="0 0 106 106" fill="none" xmlns="http://www.w3.org/2000/svg">
<g clip-path="url(#clip0_227_31233)">
<path d="M53.1191 0C82.3901 0 106.119 23.729 106.119 53C106.119 82.271 82.3901 106 53.1191 106C23.8481 106 0.119141 82.271 0.119141 53C0.119141 23.728 23.8481 0 53.1191 0Z" fill="#72B368"/>
<path d="M35.6541 31.6601L38.3791 43.7381L81.5821 44.4651L73.4361 66.6761L65.4141 74.8691L71.2271 80.7381L46.3881 105.576L46.3701 105.574C20.2851 102.26 0.119141 79.9841 0.119141 53.0001C0.119141 51.7071 0.166141 50.4261 0.258141 49.1541L18.3241 31.0901L35.6541 31.6601Z" fill="#6AAB5F"/>
<path d="M41.5902 77.385C41.5902 74.373 44.0282 71.936 47.0452 71.936C50.0592 71.934 52.5102 74.375 52.5102 77.385C52.5102 80.408 50.0592 82.842 47.0452 82.842C44.0292 82.84 41.5882 80.41 41.5902 77.385ZM67.6432 63.324H47.3032L42.0262 47.868H73.8392L67.6432 63.324ZM80.2642 42.382H42.1682C39.9982 42.382 38.1232 40.607 38.0002 38.443L37.7702 34.107C37.6612 31.949 35.7862 30.181 33.6312 30.181L21.1332 30.179C18.9732 30.179 17.1192 31.767 17.0202 33.714C16.9152 35.655 18.6122 37.255 20.7782 37.255H25.3662C27.5422 37.255 29.9562 38.903 30.7392 40.925L40.0852 64.985C40.8682 66.995 43.2712 68.657 45.4542 68.657H69.0902C71.2622 68.657 73.7362 67.028 74.5702 65.022L82.6562 46.007C83.5002 44.005 82.4183 42.382 80.2642 42.382ZM61.5002 77.385C61.5002 74.373 63.9382 71.936 66.9632 71.936C69.9492 71.934 72.4012 74.375 72.4012 77.385C72.4032 80.408 69.9512 82.842 66.9632 82.842C63.9382 82.84 61.4982 80.41 61.5002 77.385Z" fill="white"/>
</g>
<defs>
<clipPath id="clip0_227_31233">
<rect width="106" height="106" fill="white"/>
</clipPath>
</defs>
</svg>
