<svg width="20" height="20" viewBox="0 0 20 20" fill="none" xmlns="http://www.w3.org/2000/svg">
<g clip-path="url(#clip0_1_13300)">
<path d="M10.2598 0.5C12.8828 0.5 15.2578 1.563 16.9768 3.282C18.6958 5.002 19.7598 7.377 19.7598 10C19.7598 12.623 18.6958 14.998 16.9768 16.717C15.2578 18.436 12.8828 19.5 10.2598 19.5C7.63677 19.5 5.26177 18.436 3.54277 16.717C1.82377 14.998 0.759766 12.623 0.759766 10C0.759766 7.377 1.82377 5.002 3.54277 3.282C5.26177 1.563 7.63677 0.5 10.2598 0.5ZM12.8198 4.5C11.2768 2.958 12.6138 3.974 10.2598 3.974C7.90677 3.974 8.36276 3.958 6.81976 5.5C6.81976 8 5.81976 7.146 5.81976 9.5C5.81976 11.854 11.3198 14 4.23277 16.025C5.77577 17.568 7.90677 18.521 10.2598 18.521C12.6138 18.521 14.7438 17.568 16.2868 16.025C10.2598 15 13.8198 11.853 13.8198 9.5C13.8198 7.147 14.3608 6.042 12.8198 4.5Z" fill="white"/>
<path d="M4.05078 15.9218C4.06078 15.9198 7.57578 15.0428 7.57578 13.9608C7.57578 13.4448 7.23778 13.0088 6.87678 12.5398C6.34778 11.8548 5.77678 11.1148 5.77678 9.90784C5.77678 8.77084 5.93678 8.37784 6.08578 8.01184C6.17978 7.77984 6.26778 7.56184 6.26778 6.97484C6.26778 6.04984 6.69178 5.09384 7.52578 4.41184C8.22278 3.84284 9.20378 3.46484 10.4518 3.46484C11.6748 3.46484 12.5278 3.82684 13.1058 4.38084C13.8288 5.07384 14.0688 6.08984 14.0688 7.02184C14.0688 7.60884 14.1758 7.78084 14.2698 8.01284V8.01584C14.4178 8.37984 14.5768 8.77384 14.5768 9.90884C14.5768 11.1068 14.0488 11.8368 13.5558 12.5128C13.2178 12.9778 12.9028 13.4118 12.9028 13.9328C12.9028 15.0148 16.4188 15.8918 16.4268 15.8938L16.1958 16.8408C16.1808 16.8378 11.9248 15.7728 11.9248 13.9328C11.9248 13.0968 12.3298 12.5368 12.7648 11.9408H12.7668C13.1688 11.3898 13.5988 10.7968 13.5988 9.90984C13.5988 8.96084 13.4778 8.65984 13.3678 8.38084C13.2328 8.05484 13.1098 7.74984 13.1098 6.97484C13.1098 6.27784 12.9298 5.56484 12.4298 5.08384C12.0258 4.69584 11.3948 4.44284 10.4508 4.44284C9.44878 4.44284 8.67778 4.73184 8.14378 5.16784C7.54778 5.65584 7.24378 6.32884 7.24378 6.97484C7.24378 7.74484 7.12078 8.04884 6.98978 8.37484C6.87678 8.65384 6.75578 8.95484 6.75578 9.90784C6.75578 10.7868 7.21878 11.3868 7.64878 11.9428C8.11578 12.5488 8.55278 13.1178 8.55278 13.9608C8.55278 15.7998 4.29678 16.8658 4.28278 16.8688L4.05078 15.9218Z" fill="white"/>
</g>
<defs>
<clipPath id="clip0_1_13300">
<rect width="19" height="19" fill="white" transform="translate(0.759766 0.5)"/>
</clipPath>
</defs>
</svg>
