<svg width="24" height="18" viewBox="0 0 24 18" fill="none" xmlns="http://www.w3.org/2000/svg">
<rect y="0.429688" width="24" height="17.1429" rx="4" fill="white"/>
<mask id="mask0_1166_34258" style="mask-type:luminance" maskUnits="userSpaceOnUse" x="0" y="0" width="24" height="18">
<rect y="0.429688" width="24" height="17.1429" rx="4" fill="white"/>
</mask>
<g mask="url(#mask0_1166_34258)">
<rect y="0.429688" width="24" height="17.1429" fill="#0A17A7"/>
<path fill-rule="evenodd" clip-rule="evenodd" d="M-1.09929 -1.21484L9.14283 5.69355V-0.715033H14.8571V5.69355L25.0992 -1.21484L26.3774 0.6801L18.2796 6.14211H24V11.8564H18.2796L26.3774 17.3184L25.0992 19.2133L14.8571 12.305V18.7135H9.14283V12.305L-1.09929 19.2134L-2.37744 17.3184L5.72032 11.8564H-2.69413e-05V6.14211H5.72032L-2.37744 0.680099L-1.09929 -1.21484Z" fill="white"/>
<path d="M16.0012 5.85672L26.8572 -1.28516" stroke="#DB1F35" stroke-width="1.33333" stroke-linecap="round"/>
<path d="M17.1538 12.1709L26.8857 18.7305" stroke="#DB1F35" stroke-width="1.33333" stroke-linecap="round"/>
<path d="M6.86185 5.83733L-3.28931 -1.00391" stroke="#DB1F35" stroke-width="1.33333" stroke-linecap="round"/>
<path d="M7.96286 12.0928L-3.28931 19.5547" stroke="#DB1F35" stroke-width="1.33333" stroke-linecap="round"/>
<path fill-rule="evenodd" clip-rule="evenodd" d="M0 10.7154H10.2857V17.5725H13.7143V10.7154H24V7.28683H13.7143V0.429688H10.2857V7.28683H0V10.7154Z" fill="#E6273E"/>
</g>
</svg>
