<svg width="249" height="60" viewBox="0 0 249 60" fill="none" xmlns="http://www.w3.org/2000/svg">
<path fill-rule="evenodd" clip-rule="evenodd" d="M0.0913086 10.5783C0.0913086 13.1473 1.00394 14.2807 3.05735 16.0941C10.2823 22.5922 29.2193 22.8189 38.954 18.9654C55.4574 12.3917 44.9622 0 23.5154 0C17.051 0 0.0913086 2.56901 0.0913086 10.5783ZM23.5154 2.26678L28.3067 6.95145L38.6498 8.00927L31.2727 11.485L32.8698 16.5475L23.5154 14.2051L14.237 16.5475L15.8341 11.485L8.45706 8.00927L18.7241 6.87589L23.5154 2.26678Z" fill="#00ABE1"/>
<path fill-rule="evenodd" clip-rule="evenodd" d="M22.0704 40.2732C29.3714 40.2732 36.9767 39.442 42.3764 35.9663C46.3311 33.3973 46.9395 31.2816 47.0156 27.6548C47.0156 25.4635 46.9395 22.7434 46.9395 19.041C46.3311 21.1567 44.5059 24.4813 37.9654 26.6725C27.3941 30.1482 12.1836 30.0727 3.89392 24.1035C2.29683 22.9701 0.395518 21.2322 0.395518 19.041H0.0913086V29.6949C0.547622 32.3394 1.68841 34.304 4.7305 35.9663C9.06548 38.4597 15.2257 40.2732 22.0704 40.2732Z" fill="#231F20"/>
<path fill-rule="evenodd" clip-rule="evenodd" d="M0.0913086 49.4158V38.762H0.395518C0.395518 46.0912 16.8989 48.7358 23.8957 48.7358C31.8051 48.7358 44.8101 46.3934 47.0156 38.762C47.0156 42.5399 47.0156 45.4867 46.9395 47.678C46.8635 51.0781 46.2551 53.1182 42.6045 55.4606C36.5964 59.4652 28.9151 60.0697 21.6902 59.9941C15.3778 59.9941 8.53311 57.954 4.50234 55.5361C1.61235 53.7983 0.47157 51.9093 0.0913086 49.4158ZM23.5154 51.4559C25.1886 51.4559 26.5575 52.816 26.5575 54.4027C26.5575 56.065 25.1886 57.4251 23.5154 57.4251C21.9183 57.4251 20.5494 56.065 20.5494 54.4027C20.5494 52.816 21.9183 51.4559 23.5154 51.4559Z" fill="#231F20"/>
<path fill-rule="evenodd" clip-rule="evenodd" d="M240.036 20.4386H238.211V13.185C241.025 13.185 241.785 13.4872 242.089 14.9984C242.166 15.6784 242.166 16.8118 242.166 18.0208C242.166 19.4564 241.557 20.4386 240.036 20.4386ZM163.984 16.1318L167.634 15.6029C167.634 15.6029 167.71 12.3538 166.113 10.7671C164.44 9.10477 160.866 8.04694 157.9 10.3893C154.934 12.7316 155.694 18.2474 157.824 20.5898C159.877 22.781 163.908 26.1056 163.908 29.0524C163.908 32.4526 159.573 32.5281 159.649 28.9768C159.725 27.4657 159.725 27.3901 159.725 27.3901L155.846 27.7679C155.466 31.9236 156.987 35.4749 161.854 35.4749C163.604 35.4749 167.939 35.2483 167.862 28.9768C167.786 20.5142 160.105 20.212 159.877 15.1495C159.801 12.0516 163.147 12.2027 163.68 13.9406C164.06 15.2251 163.984 16.1318 163.984 16.1318ZM171.513 35.0216H182.541V31.3192H175.544V24.0655H181.248V20.1364H175.544V13.185H182.541V9.55812H171.513V35.0216ZM219.046 35.0216H230.301V31.3192H223.305V24.0655H228.78V20.1364H223.305V13.185H230.301V9.55812H219.046V35.0216ZM205.965 35.0216H211.136L215.395 9.55812H211.44L208.703 27.9946L205.813 9.55812H201.706L205.965 35.0216ZM192.655 20.5142L190.45 20.4386V13.185C192.884 13.185 193.644 13.2605 194.1 14.3184C194.937 15.9051 194.709 20.5142 192.655 20.5142ZM186.495 35.0216H190.45V24.3677H192.275L195.013 35.0216H199.272L195.926 23.2343C196.686 22.9321 197.523 22.1765 197.979 21.0431C199.272 18.0208 199.424 9.55812 192.884 9.55812H186.495V35.0216ZM233.952 35.0216H238.211V24.4433H239.732L242.85 35.0216H247.109L243.534 23.461C243.991 23.1588 244.371 23.0832 245.284 21.7232C245.588 21.3454 245.968 20.1364 246.196 18.7008C246.729 14.9984 246.044 9.55812 240.036 9.55812H233.952V35.0216Z" fill="#231F20"/>
<path fill-rule="evenodd" clip-rule="evenodd" d="M84.1291 20.4387H82.3039V13.185C82.8362 13.185 83.2925 13.185 83.5968 13.185C85.346 13.2606 85.5741 13.3361 86.0304 14.4695C86.6388 16.0562 86.4867 17.5674 86.1825 18.6253C85.9544 19.8342 85.5741 20.4387 84.1291 20.4387ZM125.882 35.0216H129.837V9.55815H125.882V35.0216ZM133.487 13.185H137.746V35.0216H141.701V13.185H145.96V9.55815H133.487V13.185ZM111.204 34.946L115.539 35.0216V23.7633H121.014V20.1364H115.539V13.185H122.231V9.55815H111.28L111.204 34.946ZM68.006 20.7409H66.485V13.185C67.0174 13.185 67.4737 13.185 67.93 13.185C69.2989 13.2606 70.0594 13.7139 70.4397 14.7717C70.9721 16.2829 70.82 18.5497 70.2116 19.6831C69.9073 20.3631 68.9187 20.7409 68.006 20.7409ZM62.5303 35.0216H66.485V24.3678C71.2002 24.3678 73.5579 23.9144 74.3944 20.2876C74.6226 19.1542 74.6986 17.7185 74.6986 15.9051C74.6986 8.27365 67.7779 9.55815 62.5303 9.55815V35.0216ZM98.4269 28.5991V15.3007C98.4269 13.7895 99.2635 12.8828 100.785 12.8828C102.23 12.8828 102.99 13.865 102.99 15.3007V28.5991C102.99 32.7548 98.4269 32.7548 98.4269 28.5991ZM94.4722 14.6962C94.4722 17.643 94.168 29.5058 94.8525 31.6214C96.7538 37.3639 107.021 36.3061 107.021 29.808V14.6962C107.021 7.29138 94.4722 7.29138 94.4722 14.6962ZM78.3491 35.0216H82.3039V24.3678H84.1291L86.867 35.0216H91.1259L87.7796 23.1588C88.9965 22.8566 89.3767 22.101 89.833 20.9676C91.278 17.8697 91.0499 9.55815 85.0417 9.55815H78.3491V35.0216Z" fill="#00ABE1"/>
<path d="M65.5725 50.2844C64.2796 50.2844 63.2149 49.9066 62.3022 49.0755L63.2909 47.8665C64.0514 48.471 64.812 48.8488 65.5725 48.8488C65.9528 48.8488 66.1809 48.7732 66.4091 48.6221C66.5612 48.471 66.7133 48.3199 66.7133 48.0932C66.7133 47.8665 66.5612 47.6399 66.4091 47.5643C66.1809 47.4132 65.7246 47.2621 65.1162 47.1109C64.6599 46.9598 64.3557 46.8843 64.0514 46.8087C63.8233 46.6576 63.5191 46.5065 63.2909 46.3553C63.0628 46.2042 62.8346 45.9776 62.7586 45.6753C62.6065 45.4486 62.6065 45.1464 62.6065 44.7686C62.6065 44.013 62.8346 43.4841 63.367 43.1063C63.8233 42.6529 64.5078 42.4263 65.2683 42.4263C66.333 42.4263 67.3217 42.7285 68.1583 43.4085L67.2456 44.693C66.5612 44.1641 65.8767 43.9375 65.2683 43.9375C64.9641 43.9375 64.7359 44.013 64.5078 44.0886C64.3557 44.2397 64.2796 44.3908 64.2796 44.6175C64.2796 44.8442 64.3557 45.0708 64.5838 45.1464C64.812 45.2975 65.2683 45.4486 65.9528 45.5998C66.7893 45.8264 67.3978 46.1287 67.778 46.4309C68.1583 46.8087 68.3864 47.2621 68.3864 47.9421C68.3864 48.6977 68.0822 49.2266 67.6259 49.68C67.0935 50.0578 66.4091 50.2844 65.5725 50.2844ZM77.3606 50.2089V42.5774H83.2166V44.013H79.0338V45.5998H82.6843V47.1109H79.0338V48.6977H83.2166V50.2089H77.3606ZM92.2669 50.2089V42.5774H95.8413C96.7539 42.5774 97.5145 42.8041 98.0468 43.333C98.5031 43.7863 98.7313 44.3152 98.7313 45.0708C98.7313 46.2798 98.1989 47.0354 97.0582 47.4887L98.9595 50.2089H96.9821L95.3089 47.7154H94.0161V50.2089H92.2669ZM94.0161 46.2798H95.6892C96.1455 46.2798 96.4497 46.1287 96.6779 45.9776C96.906 45.7509 96.9821 45.5242 96.9821 45.1464C96.9821 44.7686 96.906 44.5419 96.6779 44.3152C96.4497 44.1641 96.0695 44.0886 95.6892 44.0886H94.0161V46.2798ZM109.987 50.2089L106.945 42.5774H108.77L110.824 47.9421L112.801 42.5774H114.626L111.508 50.2089H109.987ZM123.372 50.2089V42.5774H129.152V44.013H125.045V45.5998H128.696V47.1109H125.045V48.6977H129.228V50.2089H123.372ZM138.279 50.2089V42.5774H141.777C142.766 42.5774 143.526 42.8041 144.058 43.333C144.439 43.7863 144.667 44.3152 144.667 45.0708C144.667 46.2798 144.135 47.0354 143.07 47.4887L144.895 50.2089H142.918L141.245 47.7154H139.952V50.2089H138.279ZM139.952 46.2798H141.701C142.081 46.2798 142.385 46.1287 142.613 45.9776C142.842 45.7509 142.994 45.5242 142.994 45.1464C142.994 44.7686 142.842 44.5419 142.613 44.3152C142.385 44.1641 142.081 44.0886 141.625 44.0886H139.952V46.2798Z" fill="#00ABE1"/>
<path d="M165.961 50.2095V42.578H169.536C170.449 42.578 171.209 42.8047 171.741 43.3336C172.198 43.7869 172.426 44.3159 172.426 45.0715C172.426 46.2804 171.894 47.036 170.753 47.4894L172.654 50.2095H170.677L169.004 47.716H167.711V50.2095H165.961ZM167.711 46.2804H169.384C169.84 46.2804 170.144 46.1293 170.372 45.9782C170.601 45.7515 170.677 45.5248 170.677 45.147C170.677 44.7692 170.601 44.5425 170.372 44.3159C170.068 44.1647 169.764 44.0892 169.384 44.0892H167.711V46.2804ZM181.476 50.2095V42.578H187.256V44.0136H183.149V45.6004H186.8V47.1116H183.149V48.6983H187.332V50.2095H181.476ZM196.382 50.2095V42.578H197.979L201.554 47.2627V42.578H203.227V50.2095H201.782L198.055 45.2981V50.2095H196.382ZM214.407 50.2095V44.0892H212.049V42.578H218.438V44.0892H216.08V50.2095H214.407ZM225.662 50.2095L228.933 42.5024H230.53L233.8 50.2095H232.051L231.29 48.4716H228.096L227.336 50.2095H225.662ZM228.705 46.9604H230.682L229.693 44.5425L228.705 46.9604ZM242.546 50.2095V42.578H244.219V48.6227H248.022V50.2095H242.546Z" fill="#231F20"/>
</svg>
