<svg width="107" height="106" viewBox="0 0 107 106" fill="none" xmlns="http://www.w3.org/2000/svg">
<g clip-path="url(#clip0_1074_9781)">
<path d="M106.5 52.989C106.5 82.262 82.762 105.999 53.494 105.999C24.221 105.999 0.5 82.264 0.5 52.989C0.5 23.72 24.221 0 53.494 0C82.761 0 106.5 23.72 106.5 52.989Z" fill="#687DBE"/>
<path d="M38.9902 38.5078C38.6172 38.5078 38.2422 38.5258 37.8512 38.5438C34.3472 38.8278 31.1792 40.6778 28.6852 43.1508L2.99219 68.8658C8.16819 85.3968 21.1252 98.3678 37.6742 103.565L78.5842 62.6568C81.0722 60.1648 82.9452 56.9068 82.9452 53.2608C82.9452 49.5248 80.9662 46.1938 78.3712 43.6888C75.7522 41.1778 72.4432 39.3418 68.8692 39.0778C64.8102 38.7728 61.3202 40.5918 58.5292 42.9908C58.0502 43.4208 57.5842 43.8478 57.1382 44.2908L53.2422 48.1888C51.7112 46.1758 50.1252 44.2208 48.2952 42.5828C45.8562 40.3948 42.8302 38.6868 39.3612 38.5258C39.2382 38.5078 39.1132 38.5078 38.9902 38.5078Z" fill="#A8AD51"/>
<path d="M39.3631 38.5196C38.8651 38.5016 38.3651 38.5016 37.8511 38.5386C34.1831 38.8426 30.8921 40.8356 28.3671 43.4876C25.8381 46.1386 23.9881 49.5696 24.0601 53.3076C24.1281 56.9556 26.0521 60.1766 28.5971 62.6316C31.1401 65.0696 34.3781 66.8466 37.8681 67.0986C41.9291 67.3836 45.4111 65.5866 48.2081 63.1666C50.1261 61.5126 51.7861 59.5356 53.3641 57.5246C54.9311 59.5696 56.5521 61.5806 58.4241 63.2876C61.1961 65.7996 64.7231 67.7216 68.8311 67.4516C72.4261 67.2216 75.7681 65.3896 78.3701 62.8606C80.9671 60.3366 82.9441 57.0066 82.9441 53.2536C82.9441 49.5176 80.9651 46.1866 78.3701 43.6816C75.7521 41.1706 72.4421 39.3346 68.8681 39.0706C64.8081 38.7656 61.3191 40.5846 58.5281 42.9836C56.6591 44.6046 55.0431 46.5296 53.4731 48.4826C51.8711 46.3656 50.2151 44.2996 48.2951 42.5756C45.8571 40.3896 42.8321 38.6806 39.3631 38.5196ZM38.2971 44.0366C40.5941 43.8616 42.4591 44.7656 44.6111 46.6876C46.3531 48.2526 48.1361 50.5296 49.9311 52.9736C48.1361 55.2826 46.3531 57.4716 44.5971 58.9856C42.4411 60.8526 40.5381 61.7586 38.2791 61.6006C36.5171 61.4756 34.1701 60.3366 32.4251 58.6476C30.6791 56.9566 29.5971 54.8216 29.5771 53.1986C29.5401 51.4736 30.5871 49.1436 32.3501 47.2916C34.1131 45.4406 36.5001 44.1966 38.2971 44.0366ZM68.4571 44.5716C70.2911 44.7136 72.7281 45.8866 74.5271 47.6486C76.3381 49.3916 77.4271 51.6006 77.4271 53.2546C77.4271 54.9246 76.3371 57.1526 74.5271 58.8936C72.7261 60.6576 70.2911 61.8326 68.4741 61.9366C66.1971 62.0946 64.2751 61.1536 62.1211 59.1986C60.4121 57.6356 58.6671 55.4076 56.9101 53.0406C58.6671 50.7826 60.4121 48.6446 62.1391 47.1696C64.2951 45.3016 66.1971 44.4116 68.4571 44.5716Z" fill="white"/>
<path d="M2 65.5039C2 65.5039 19.5899 47.9542 30.8606 36.7091L36.7942 35.4093L40.6738 36.7926L45.157 38.4262L47.9205 34.217L57.5626 27.9844L64.6649 28.6094L70.454 30.3425L76.9046 36.8831L80.4232 46.5383L86.6029 50.8363L90.4041 58.3305L87.653 72.0298L53.5 106.248C53.5 106.248 36.0966 108.838 18 93.0039C6 82.5039 2 65.5039 2 65.5039Z" fill="#485A91"/>
<path d="M28.0846 76.9754H28.057L28.0223 76.9736V76.9754C27.2774 76.9403 24.0004 75.9121 21.0771 73.4587C18.1556 71.0035 15.4043 67.1141 15.4043 61.3376C15.4043 61.1179 15.4114 60.8343 15.4284 60.4868L15.4301 60.4445C15.6404 56.1428 17.2379 53.0501 19.2756 50.8479C21.879 48.0353 25.2674 46.7155 27.3433 46.1717C27.1954 44.7464 27.2685 42.781 28.0321 40.8498C28.7627 39.0051 30.0991 37.1657 32.4299 35.799C36.7698 33.2529 41.6461 35.3813 44.1417 36.8551C45.504 33.9209 49.0056 28.4506 56.692 26.5761C61.1344 25.493 64.9843 25.999 68.1508 27.2675C72.5584 29.0331 75.6305 32.294 77.1354 34.7951C79.0857 38.0318 79.6639 43.0493 79.8306 45.3181C82.998 46.2563 91.4043 49.7468 91.4043 60.3887C91.4043 65.3963 89.8683 69.0192 87.7941 71.5797C84.5153 75.6312 79.8172 76.9844 77.6887 76.9844V76.9763H60.4367V73.8864H77.6904V73.881C79.279 73.881 82.834 72.8132 85.4223 69.617C87.0965 67.549 88.3367 64.5734 88.3367 60.3887C88.3367 49.8882 78.1199 48.0668 78.0905 48.0623C77.3929 47.9327 76.8547 47.3241 76.8378 46.5786C76.8378 46.5597 76.6774 39.9864 74.523 36.4076C73.2703 34.3297 70.7123 31.617 67.0246 30.1405C64.3864 29.0844 61.162 28.6675 57.4101 29.5823C48.9236 31.6521 46.5777 38.8142 46.3567 39.5525C46.3077 39.7613 46.2141 39.9621 46.0752 40.1422C45.5566 40.8147 44.5944 40.9336 43.9297 40.4087C43.9137 40.3961 38.3103 35.9287 33.965 38.4775C32.3185 39.4426 31.3812 40.7238 30.8743 42.0013C30.0706 44.0325 30.2969 45.9988 30.5366 46.7569C30.6239 46.9513 30.672 47.1683 30.672 47.3952C30.672 48.2514 29.9851 48.9456 29.1369 48.9456C28.5711 48.9456 24.5047 49.7144 21.5048 52.9565C19.9037 54.6878 18.6474 57.1448 18.4853 60.6156V60.6318C18.4764 60.8109 18.471 61.0486 18.471 61.3385C18.471 65.986 20.6824 69.1128 23.0301 71.0854C25.3761 73.0554 27.6783 73.8638 28.1639 73.8855H54.5145V76.9763H28.1212L28.0846 76.9754Z" fill="white"/>
<path d="M44.4043 44.9844V52.9844H70.4043V44.9844H44.4043ZM57.1521 50.8902H46.7508V47.4849H57.1521V50.8902ZM61.8911 51.0684C60.9422 51.0684 60.1727 50.3031 60.1727 49.3596C60.1727 48.4161 60.9422 47.6516 61.8911 47.6516C62.8399 47.6516 63.6094 48.417 63.6094 49.3596C63.6094 50.3022 62.8399 51.0684 61.8911 51.0684ZM66.4569 51.0684C65.5063 51.0684 64.7368 50.3031 64.7368 49.3596C64.7368 48.4161 65.5063 47.6516 66.4569 47.6516C67.4058 47.6516 68.1753 48.417 68.1753 49.3596C68.1753 50.3022 67.4058 51.0684 66.4569 51.0684Z" fill="white"/>
<path d="M44.4043 53.9844V61.9844H70.4043V53.9844H44.4043ZM57.1521 59.8909H46.7508V56.4843H57.1521V59.8909ZM61.8911 60.0691C60.9422 60.0691 60.1727 59.3037 60.1727 58.3601C60.1727 57.4182 60.9422 56.6537 61.8911 56.6537C62.8399 56.6537 63.6094 57.4182 63.6094 58.3601C63.6094 59.3037 62.8399 60.0691 61.8911 60.0691ZM66.4569 60.0691C65.5063 60.0691 64.7368 59.3037 64.7368 58.3601C64.7368 57.4182 65.5063 56.6537 66.4569 56.6537C67.4058 56.6537 68.1753 57.4182 68.1753 58.3601C68.1753 59.3037 67.4058 60.0691 66.4569 60.0691Z" fill="white"/>
<path d="M44.4043 63.9844V72.019H55.1421V77.9844H59.0003V72.019H70.4043V63.9844H44.4043ZM46.7508 69.9154V66.4936H57.1521V69.9154H46.7508ZM57.994 76.1461H56.1493V74.1377H57.994V76.1461ZM61.8911 70.0943C60.9422 70.0943 60.1727 69.3264 60.1727 68.3777C60.1727 67.4308 60.9422 66.6638 61.8911 66.6638C62.8399 66.6638 63.6094 67.4308 63.6094 68.3777C63.6094 69.3264 62.8399 70.0943 61.8911 70.0943ZM66.4569 70.0943C65.5063 70.0943 64.7368 69.3264 64.7368 68.3777C64.7368 67.4308 65.5063 66.6638 66.4569 66.6638C67.4058 66.6638 68.1753 67.4308 68.1753 68.3777C68.1753 69.3264 67.4058 70.0943 66.4569 70.0943Z" fill="white"/>
</g>
<defs>
<clipPath id="clip0_1074_9781">
<rect width="106" height="105.999" fill="white" transform="translate(0.5)"/>
</clipPath>
</defs>
</svg>
