<svg width="107" height="106" viewBox="0 0 107 106" fill="none" xmlns="http://www.w3.org/2000/svg">
<g clip-path="url(#clip0_101_13216)">
<path d="M106.596 53.008C106.596 82.281 82.8577 106.018 53.5897 106.018C24.3167 106.018 0.595703 82.283 0.595703 53.008C0.595703 23.739 24.3167 0.019043 53.5897 0.019043C82.8567 0.019043 106.596 23.739 106.596 53.008Z" fill="#C1C667"/>
<path d="M42 32.5004C43.3134 25.9756 37.891 31.9824 37.5 32.0004C33.996 32.2844 34.494 31.5275 32 34.0005L-0.5 51.5869C2.5 88 22.5 101.5 45 105L73.3929 75.1664C75.8809 72.6744 77.7539 69.4164 77.7539 65.7704C77.7539 62.0344 75.7749 58.7034 73.1799 56.1984C70.5609 53.6874 67.2519 51.8514 63.6779 51.5874C59.6189 51.2824 56.1289 53.1014 53.3379 55.5004C52.8589 55.9304 52.3929 56.3574 51.9469 56.8004L53.3379 48.2063C51.8069 46.1933 55.83 42.6384 54 41.0004C51.561 38.8124 50.969 32.1614 47.5 32.0004C47.377 31.9824 43.4141 25.4754 42 32.5004Z" fill="#A8AD51"/>
<path d="M53.8335 32.7837C53.4941 32.4189 53.1405 32.0653 52.7509 31.728C49.9423 29.3493 46.206 28.4315 42.5453 28.5213C38.8824 28.6076 35.1482 29.7255 32.556 32.4196C30.0245 35.0472 29.1074 38.6852 29.171 42.2208C29.2453 45.7429 30.2784 49.289 32.568 51.935C35.238 55.0081 38.9708 56.1996 42.6598 56.4661C45.1856 56.6528 47.7573 56.4287 50.2951 56.1225C49.9572 58.6766 49.6814 61.2448 49.7981 63.7755C49.9819 67.5119 51.1168 71.3649 54.2125 74.0788C56.9172 76.4582 60.5758 77.5259 64.2039 77.5775C67.825 77.6291 71.5776 76.6724 74.2314 74.0187C76.8732 71.3769 77.8292 67.6222 77.7655 64.0159C77.6899 60.3892 76.6476 56.7504 74.3071 54.0365C71.6519 50.95 67.8986 49.7691 64.2287 49.492C61.7609 49.3166 59.257 49.5351 56.7659 49.8059C57.13 47.1762 57.42 44.5443 57.2814 41.9676C57.1032 38.698 56.1726 35.3505 53.8335 32.7837ZM49.1786 35.9311C50.9266 37.4315 51.6061 39.3895 51.7688 42.2703C51.8939 44.6087 51.5446 47.4795 51.0857 50.477C48.1837 50.8404 45.3751 51.1275 43.0629 50.9564C40.2182 50.752 38.2319 50.047 36.7463 48.338C35.5887 47.0036 34.7346 44.5387 34.695 42.1105C34.6561 39.6801 35.4007 37.4054 36.5341 36.2436C37.7277 34.9977 40.1156 34.0905 42.6718 34.0275C45.2273 33.9653 47.7948 34.7735 49.1786 35.9311ZM70.1267 57.6357C71.3231 59.0329 72.2169 61.5856 72.243 64.1036C72.2911 66.6167 71.4992 68.9487 70.3296 70.1183C69.1487 71.2991 66.8026 72.1038 64.2916 72.055C61.7708 72.0289 59.2181 71.1379 57.8598 69.9266C56.138 68.4283 55.4443 66.4038 55.3036 63.4983C55.2003 61.1847 55.5419 58.3753 55.9732 55.4592C58.8123 55.105 61.5579 54.8271 63.8221 55.0053C66.6675 55.2089 68.6417 55.9245 70.1267 57.6357Z" fill="white"/>
</g>
<defs>
<clipPath id="clip0_101_13216">
<rect width="106" height="106" fill="white" transform="translate(0.5)"/>
</clipPath>
</defs>
</svg>
