<svg width="107" height="106" viewBox="0 0 107 106" fill="none" xmlns="http://www.w3.org/2000/svg">
<g clip-path="url(#clip0_101_13260)">
<path d="M106.533 53.0369C106.533 82.3099 82.7992 106.049 53.5272 106.049C24.2522 106.049 0.533203 82.3109 0.533203 53.0369C0.533203 23.7669 24.2522 0.0458984 53.5272 0.0458984C82.7992 0.0458984 106.533 23.7669 106.533 53.0369Z" fill="#FDAC6B"/>
<path d="M31.5508 40.3657C30.1428 40.3657 28.8948 40.6707 27.7738 41.2737C27.1738 41.5957 26.6348 41.9867 26.1738 42.4497L2.25781 66.3667C6.79481 83.7537 19.8208 97.6657 36.8668 103.31L77.4058 62.7707L82.8298 45.4727C82.9218 45.0997 82.9778 44.6897 82.9778 44.2287C82.9778 41.9157 81.4628 40.7577 78.4528 40.7577H68.3668L67.6888 41.4357L68.0248 40.4047H65.2148L55.0568 50.5477V49.2337H50.3718L46.4598 53.1467L53.5258 40.7587H48.3298L31.4238 57.6657H31.2068L35.5018 53.3947C36.1058 52.7907 36.5838 52.2897 36.9218 51.8967C37.4358 51.3287 37.8458 50.6527 38.1898 49.8677C38.5238 49.0867 38.7018 48.1797 38.7018 47.1507C38.7018 45.8657 38.3968 44.7097 37.7798 43.6777C37.1728 42.6427 36.3148 41.8297 35.2328 41.2397C34.1458 40.6547 32.9158 40.3657 31.5508 40.3657Z" fill="#E3924F"/>
<path d="M31.5512 40.3657C30.1432 40.3657 28.8952 40.6707 27.7742 41.2737C26.6532 41.8787 25.7842 42.7167 25.1432 43.7657C24.5222 44.8337 24.2172 46.0257 24.2172 47.3417C24.2172 48.4807 24.4472 49.5137 24.9282 50.4197C25.4082 51.3277 26.1572 52.1647 27.1742 52.9327L30.5702 49.3357C29.7522 48.6947 29.3412 47.9837 29.3412 47.2187C29.3412 46.6507 29.5382 46.1897 29.9292 45.8167C30.3202 45.4217 30.7842 45.2267 31.3352 45.2267C31.9542 45.2267 32.4542 45.4217 32.8492 45.7947C33.2422 46.1697 33.4372 46.6287 33.4372 47.1817C33.4372 47.8247 33.1322 48.4647 32.5252 49.1037L25.8862 56.1707C24.6812 57.4707 24.0732 58.6977 24.0732 59.8697C24.0732 61.8077 25.1592 62.7687 27.3312 62.7687H39.0582V57.6647H31.0852L34.5752 54.3017C35.6222 53.2687 36.4052 52.4677 36.9212 51.8957C37.4232 51.3277 37.8452 50.6517 38.1892 49.8667C38.5232 49.0857 38.7012 48.1787 38.7012 47.1497C38.7012 45.8647 38.3962 44.7087 37.7792 43.6767C37.1722 42.6417 36.3142 41.8287 35.2322 41.2387C34.1462 40.6707 32.9162 40.3657 31.5512 40.3657ZM65.2172 40.4047L57.2052 65.7107H60.0042L68.0252 40.4047H65.2172ZM48.3302 40.7587L42.0272 52.1097C41.5132 53.0037 41.2612 53.8947 41.2612 54.7987C41.2612 55.8847 41.6362 56.7397 42.3822 57.3807C43.1162 58.0217 44.1282 58.3457 45.4252 58.3457H50.3722V62.7717H55.0572V58.3457H57.5632V53.3617H55.0572V49.2337H50.3722V53.5217H46.2452L53.5262 40.7587H48.3302ZM68.3672 40.7587V45.7787H77.3532L71.5502 62.7707H77.4042L82.8292 45.4737C82.9212 45.1007 82.9762 44.6907 82.9762 44.2297C82.9762 41.9167 81.4622 40.7587 78.4522 40.7587H68.3672Z" fill="white"/>
</g>
<defs>
<clipPath id="clip0_101_13260">
<rect width="106" height="106" fill="white" transform="translate(0.5)"/>
</clipPath>
</defs>
</svg>
