<svg width="107" height="106" viewBox="0 0 107 106" fill="none" xmlns="http://www.w3.org/2000/svg">
<g clip-path="url(#clip0_101_13303)">
<path d="M106.686 53.076C106.686 82.347 82.9515 106.086 53.6795 106.086C24.4055 106.086 0.686523 82.348 0.686523 53.076C0.686523 23.805 24.4055 0.0849609 53.6795 0.0849609C82.9495 0.0849609 106.686 23.806 106.686 53.076Z" fill="#52CCAC"/>
<path d="M57.271 21.565C56.722 21.547 56.115 21.579 55.437 21.653C53.305 21.866 52.184 22.079 51.857 22.4L50.134 24.127C48.786 23.715 47.003 23.52 44.851 23.52C42.609 23.52 40.048 23.257 39.119 22.933C37.998 22.541 37.252 22.576 36.914 22.914L1.04199 58.787C3.96199 85.678 26.647 106.051 53.679 106.086C53.98 106.068 54.284 106.068 54.583 106.051L79.62 81.031C80.599 80.035 81.452 78.883 82.146 77.578C83.519 74.963 83.427 69.232 81.991 66.514C79.034 60.961 72.804 58.365 66.794 60.16C65.227 60.641 63.212 62.047 61.596 63.668L55.242 70.019C55.276 69.685 55.332 69.344 55.405 69.008L67.68 56.728C68 56.41 67.932 55.822 67.754 54.379C67.289 50.358 64.779 46.176 59.904 41.247C57.486 38.773 55.133 36.208 54.687 35.553C54.156 34.715 53.817 34.45 51.7 34.379L53.801 32.278L54.688 30.784C54.744 30.679 54.815 30.57 54.903 30.464L59.123 26.247C61.863 23.483 61.1 21.596 57.271 21.565Z" fill="#49AD92"/>
<path d="M66.4858 84.1659C64.0868 83.3649 60.2238 79.7869 59.1008 77.3499C57.8588 74.6099 57.8588 69.7519 59.1008 67.0119C60.2938 64.3969 64.1588 60.9609 66.7918 60.1579C72.8038 58.3629 79.0318 60.9609 81.9888 66.5129C83.4268 69.2319 83.5178 74.9609 82.1448 77.5759C80.8108 80.1249 78.8168 82.1329 76.4338 83.3629C74.0318 84.5899 68.9618 84.9999 66.4858 84.1659ZM72.0398 76.8139V73.9649H75.1408C78.2138 73.9649 78.2138 73.9649 78.2138 72.4529C78.2138 70.9569 78.1648 70.9379 75.2618 70.7789L72.3108 70.6209L72.1468 67.6699C71.9868 64.7689 71.9678 64.7109 70.4748 64.7109C68.9618 64.7109 68.9618 64.7109 68.9618 67.7929V70.8899H66.1128C63.3198 70.8899 63.2858 70.9099 63.2858 72.4349C63.2858 73.9649 63.3198 73.9649 66.1128 73.9649H68.9618V76.8139C68.9618 79.6089 68.9618 79.6459 70.4928 79.6459C72.0208 79.6459 72.0398 79.6089 72.0398 76.8139ZM41.4148 77.7559C34.4418 77.0449 26.3098 75.0199 24.9208 73.6289C23.7818 72.4899 23.9598 72.0489 26.2348 70.6229C27.3948 69.8939 28.5138 68.7909 28.7468 68.1849L29.1568 67.0639L29.7638 68.2029C30.0978 68.8279 31.0428 69.6819 31.8638 70.1069L33.3388 70.8729L31.6118 68.0079C29.6528 64.7499 29.0478 61.5839 29.0668 54.9299C29.0828 47.8089 31.8438 42.9359 39.1738 37.0979L42.6448 34.3189H48.2678C53.6218 34.3189 53.9408 34.3929 54.6888 35.5499C55.1358 36.2059 57.4878 38.7699 59.9198 41.2439C64.7778 46.1729 67.2888 50.3549 67.7538 54.3759C68.0538 56.8139 68.0348 56.8309 66.3468 57.1689C63.8728 57.6649 59.9408 60.3739 58.1598 62.7729C55.8258 65.9609 54.8828 69.3609 55.1698 73.5229C55.3858 76.4569 55.2948 77.0839 54.6028 77.2789C53.3048 77.6349 43.6938 77.9879 41.4148 77.7559ZM49.9078 64.4509C49.9078 63.6659 50.1888 63.1659 50.6518 63.1659C51.8958 63.1659 54.0138 60.9429 54.3348 59.2699C54.7288 57.1699 52.8198 54.8769 49.6738 53.6659C45.7248 52.1699 47.2378 49.5919 51.3618 50.7869C52.8408 51.2089 53.0178 51.1409 53.3228 49.9469C53.6968 48.4879 52.9298 47.7399 51.0628 47.7239C50.2428 47.7239 49.9088 47.4189 49.9088 46.6919C49.9088 45.9229 49.5648 45.6619 48.6218 45.6619C47.6978 45.6619 47.3248 45.9439 47.3248 46.6369C47.3248 47.2049 46.5958 48.0439 45.5788 48.6489C43.3908 49.9479 42.7138 52.2989 43.9788 54.2169C44.4588 54.9489 46.0998 56.0879 47.6288 56.7649C49.6558 57.6679 50.4218 58.2769 50.4218 59.0229C50.4218 60.3769 48.3028 60.9099 45.8828 60.1619C43.7308 59.5059 43.9078 59.4329 43.4648 61.2149C43.1428 62.4399 43.2828 62.6559 44.5858 62.9439C47.1088 63.4939 47.3238 63.6349 47.3238 64.7009C47.3238 65.4669 47.6598 65.7539 48.6208 65.7539C49.6368 65.7479 49.9078 65.4819 49.9078 64.4509ZM42.1798 30.4799C41.5748 29.4819 40.3128 28.0379 39.3888 27.2589C35.9378 24.3559 35.7928 21.7739 39.1188 22.9309C40.0488 23.2549 42.6088 23.5179 44.8508 23.5179C49.1898 23.5179 52.0168 24.3559 52.9288 25.9249C53.4078 26.7589 53.4798 26.7019 53.4988 25.4769C53.4988 24.6389 53.0688 23.7869 52.4268 23.3419C51.0618 22.3789 51.6608 22.0429 55.4358 21.6519C61.2928 21.0269 62.5018 23.4639 58.1408 27.1109C56.7208 28.3059 55.1698 29.9409 54.6878 30.7799L53.8008 32.2739H43.3008L42.1798 30.4799Z" fill="white"/>
</g>
<defs>
<clipPath id="clip0_101_13303">
<rect width="106" height="106" fill="white" transform="translate(0.5)"/>
</clipPath>
</defs>
</svg>
