<svg width="107" height="106" viewBox="0 0 107 106" fill="none" xmlns="http://www.w3.org/2000/svg">
<g clip-path="url(#clip0_101_13345)">
<path d="M106.516 53.076C106.516 82.347 82.7966 106.086 53.5236 106.086C24.2556 106.086 0.517578 82.348 0.517578 53.076C0.517578 23.797 24.2556 0.0820312 53.5236 0.0820312C82.7966 0.0830313 106.516 23.797 106.516 53.076Z" fill="#FDBF52"/>
<path d="M63.1143 22.4438L48.1143 22.4848L33.1163 22.5028L32.6343 22.7528C32.4213 22.8568 32.2263 23.0028 32.0483 23.1808L0.569336 54.6578C1.44034 82.6848 23.9693 105.178 51.9953 106.013L74.9833 82.9998C75.3233 82.6848 75.5533 82.2908 75.6433 81.9178C75.6963 81.6848 75.7313 72.1828 75.7313 59.2788C75.7313 39.7378 75.7123 36.9838 75.5873 36.6788C75.5163 36.4878 75.1083 35.9518 74.6823 35.4898C74.2703 35.0288 73.6653 34.3338 73.3463 33.9608C73.0263 33.5858 72.7233 33.2308 72.6513 33.1778C72.5983 33.1228 71.7623 32.1818 70.8013 31.0778C69.8393 29.9738 68.7723 28.7638 68.4503 28.3728C68.1143 27.9998 67.3663 27.1438 66.7773 26.4688C64.9993 24.4058 64.4643 23.7948 63.7693 23.1248L63.1143 22.4438Z" fill="#DBA444"/>
<path d="M33.0628 83.6459C32.2988 83.4139 31.5688 82.6459 31.3908 81.9019C31.3358 81.6849 31.3008 69.2519 31.3008 53.0919C31.3008 29.0499 31.3208 24.5609 31.4438 24.1919C31.6218 23.5689 32.0668 23.0299 32.6348 22.7509L33.1168 22.5009L48.1148 22.4829L63.1148 22.4419L63.7728 23.1259C64.4668 23.7959 65.0018 24.4049 66.7808 26.4699C67.3688 27.1459 68.1168 28.0009 68.4528 28.3739C68.7928 28.7469 69.8418 29.9759 70.8028 31.0789C71.7638 32.1819 72.5998 33.1239 72.6718 33.1789C72.7248 33.2319 73.0268 33.5869 73.3478 33.9619C73.6678 34.3349 74.2718 35.0299 74.6838 35.4909C75.1098 35.9529 75.5178 36.4889 75.5898 36.6799C75.7148 36.9849 75.7328 39.7389 75.7328 59.2799C75.7328 72.1819 75.6978 81.6839 75.6448 81.9189C75.5178 82.4479 75.0568 83.0399 74.5038 83.3939L74.0408 83.6809L53.6678 83.6999C42.4768 83.7169 33.2048 83.6819 33.0628 83.6459ZM50.8728 79.7679C52.2088 79.4649 53.0278 79.0349 53.6858 78.3439C54.9668 76.9549 55.0188 74.6059 53.8088 73.2189C53.4718 72.8259 52.5298 72.1529 52.1018 71.9869C51.9588 71.9379 51.6218 71.7969 51.3358 71.6529C51.0498 71.5279 50.7118 71.4049 50.5888 71.3519C50.2318 71.2399 49.3958 70.8169 49.1098 70.6039C48.2918 69.9629 48.5218 68.8769 49.5728 68.5219C50.4088 68.2369 52.0478 68.3789 53.0618 68.8259C53.2568 68.9139 53.4348 68.9649 53.4528 68.9489C53.5068 68.8789 53.9878 67.1349 54.0578 66.7969C54.1268 66.4589 54.1108 66.4429 53.7028 66.2799C52.5298 65.8359 50.3748 65.6919 49.0578 65.9609C47.5988 66.2799 46.4598 67.0779 45.8718 68.2369C45.5688 68.8599 45.5338 68.9489 45.5338 69.8749C45.5338 70.7479 45.5688 70.9259 45.8018 71.4049C46.0698 71.9379 46.8328 72.7539 47.4038 73.1149C47.8118 73.3809 48.5598 73.7149 49.2908 74.0039C50.9798 74.6459 51.4608 75.0709 51.4608 75.8729C51.4608 76.4939 51.3178 76.7369 50.8018 77.0469C50.3568 77.3099 50.2858 77.3259 49.2178 77.3099C48.1868 77.3099 47.9888 77.2789 47.0298 76.9369C46.4418 76.7399 45.9258 76.6029 45.9088 76.6369C45.8018 76.7399 45.3038 79.0749 45.3558 79.1479C45.4808 79.2539 46.6368 79.6269 47.3478 79.7709C48.2398 79.9449 50.0898 79.9449 50.8728 79.7679ZM65.0918 79.5529C67.1738 78.8069 68.5258 77.2399 69.1128 74.9459C69.3978 73.7699 69.3978 71.8089 69.0918 70.6579C68.5598 68.5899 67.5448 67.3109 65.8018 66.4399C64.6248 65.8519 62.7398 65.6579 61.2648 65.9609C57.1888 66.8319 55.0878 71.5489 56.7438 76.0859C57.2948 77.5639 58.6658 78.9689 60.0878 79.5019C61.0518 79.8579 61.4778 79.9119 62.8648 79.8749C64.1128 79.8569 64.3068 79.8199 65.0918 79.5529ZM62.0488 77.3649C61.5488 77.2579 61.1228 77.0099 60.7148 76.5599C59.8948 75.7089 59.5938 74.8319 59.5218 73.2519C59.4158 70.9389 60.1078 69.3039 61.4978 68.5859C61.9078 68.3769 62.1208 68.3239 62.7778 68.3239C63.4548 68.3239 63.6138 68.3579 64.0778 68.6059C64.7348 68.9749 65.2168 69.5279 65.5738 70.3709C66.2498 71.9529 66.2148 74.1249 65.4668 75.6529C64.7708 77.0799 63.5958 77.6659 62.0488 77.3649ZM43.1518 72.8629V66.0099H40.0208V79.7109H43.1518V72.8629ZM73.3648 50.8149L73.3468 38.3569L69.1288 38.3389C66.8158 38.3209 64.8578 38.3389 64.8058 38.3569C64.7168 38.3879 64.7868 38.6249 65.0188 39.1929C66.6028 42.9119 66.5128 47.2559 64.7888 50.7389C63.5958 53.1109 62.1368 54.8019 60.0898 56.1519C57.8668 57.6479 55.7148 58.3769 53.0808 58.5329C50.3228 58.6989 47.0118 57.8259 44.8418 56.3489C44.6268 56.2049 44.2718 55.9549 44.0408 55.8139C43.3118 55.3349 41.8888 53.8759 41.1948 52.9149C39.7708 50.9349 39.0228 49.1229 38.6498 46.7379C38.2068 43.8729 38.7198 40.8299 40.1268 38.2279C42.7618 33.2809 47.9728 30.4749 53.6148 30.9549C56.3008 31.1989 58.5598 32.0939 60.8028 33.7849L61.4958 34.3179L61.5138 29.6699C61.5348 27.1289 61.5138 24.9939 61.4958 24.9179C61.4608 24.8339 58.6148 24.7989 47.7048 24.7989C40.1458 24.7989 33.8808 24.8339 33.8098 24.8689C33.6668 24.9179 33.6498 26.7009 33.6498 44.0989V63.2669H73.3818L73.3648 50.8149ZM53.7378 49.9619C55.0548 49.6219 56.1758 48.8039 56.9238 47.6289C58.0448 45.8849 58.0448 43.5309 56.9418 41.8239C55.3238 39.3359 52.1918 38.5529 49.6098 40.0109C48.4358 40.6649 47.3848 42.0749 47.0648 43.4089C46.8888 44.0809 46.8888 45.3479 47.0648 46.0439C47.2618 46.8979 47.8308 47.8759 48.5078 48.5549C49.3438 49.3909 50.1798 49.8169 51.5138 50.1019C52.0298 50.2089 53.0628 50.1369 53.7558 49.9609L53.7378 49.9619ZM50.9428 49.3209C49.8038 48.9639 48.6128 47.9489 48.0968 46.9469C46.4598 43.7089 48.7378 39.9369 52.3488 39.9369C54.0928 39.9369 55.6768 40.8609 56.4948 42.3749C57.8658 44.8479 56.8888 47.8419 54.3068 49.0709C53.6288 49.3909 53.5058 49.4049 52.4918 49.4439C51.7288 49.4619 51.2838 49.4229 50.9428 49.3209ZM53.3658 48.8349C56.2828 48.0679 57.5288 44.6699 55.8028 42.2559C53.8988 39.6039 49.8238 39.9769 48.4708 42.9439C46.9938 46.1699 49.9668 49.7289 53.3658 48.8349ZM51.5318 46.8279C50.5898 46.4729 50.1098 45.7419 50.0898 44.7459C50.0898 43.7499 50.5178 43.0899 51.4088 42.6639C52.9028 41.9509 54.5918 43.0569 54.5918 44.7089C54.5918 45.7599 53.9878 46.5739 53.0098 46.8809C52.3698 47.0759 52.1198 47.0589 51.5318 46.8279ZM53.1328 46.2399C53.3298 46.1349 53.6308 45.8849 53.7908 45.6889C54.0228 45.3859 54.0588 45.2399 54.0588 44.7279C54.0588 44.1749 54.0238 44.0699 53.7558 43.7259C53.0978 42.9289 52.2798 42.7529 51.4438 43.2319C50.2868 43.9059 50.3218 45.5289 51.5138 46.2569C51.9068 46.5079 52.6368 46.4899 53.1328 46.2399ZM54.5568 36.5779C56.1598 33.3049 56.4788 32.6119 56.3888 32.5389C56.2658 32.4139 54.6288 31.9469 53.8638 31.8459C53.0808 31.7209 51.7098 31.7909 51.0708 31.9869C50.7308 32.0769 50.6428 32.1429 50.6608 32.3069C50.6958 32.4669 51.0158 33.7129 52.1378 37.9319L52.3178 38.5529L52.8838 38.6249C53.2038 38.6429 53.4718 38.6779 53.4908 38.6949C53.5078 38.6949 53.9688 37.7519 54.5568 36.5779Z" fill="white"/>
</g>
<defs>
<clipPath id="clip0_101_13345">
<rect width="106" height="106" fill="white" transform="translate(0.5)"/>
</clipPath>
</defs>
</svg>
