<svg width="107" height="106" viewBox="0 0 107 106" fill="none" xmlns="http://www.w3.org/2000/svg">
<g clip-path="url(#clip0_102_13281)">
<path d="M106.5 53.0979C106.5 82.3729 82.781 106.111 53.508 106.111C24.238 106.111 0.501953 82.3739 0.501953 53.0979C0.501953 23.8269 24.238 0.10791 53.508 0.10791C82.781 0.10691 106.5 23.8269 106.5 53.0979Z" fill="#EB5D42"/>
<path d="M24.8061 42.377C23.5091 42.377 22.3551 42.713 21.3431 43.39C21.0051 43.623 20.6871 43.867 20.3861 44.17L1.49609 63.076C5.63309 84.627 22.6411 101.4 44.2601 105.236L87.2561 62.24C87.6471 61.849 87.9671 61.388 88.2331 60.859C88.6411 60.041 88.8381 59.133 88.8381 58.158C88.8381 57.181 88.6411 56.295 88.2331 55.478C87.8261 54.679 87.2741 54.021 86.5841 53.56C85.8921 53.082 85.1291 52.851 84.2951 52.851C83.4591 52.851 82.6961 53.083 81.9851 53.56C81.7371 53.717 81.5061 53.914 81.2931 54.127L77.3151 58.105L85.4811 42.802H82.8191L77.5841 48.038C77.5841 47.096 77.3691 46.229 76.9801 45.43C76.5721 44.612 76.0021 43.975 75.3121 43.512C74.6031 43.033 73.8381 42.803 73.0021 42.803C72.1891 42.803 71.4241 43.034 70.7311 43.512C70.4631 43.671 70.2331 43.866 70.0181 44.08L66.5571 47.56C66.2741 46.423 65.7421 45.374 64.9421 44.454C63.7701 43.066 62.3151 42.376 60.5761 42.376C59.2801 42.376 58.1271 42.712 57.1141 43.389C56.7761 43.622 56.4571 43.866 56.1551 44.169L42.5031 57.824L43.2121 56.328C43.9211 54.875 44.4541 53.631 44.7921 52.584C45.1281 51.52 45.3061 50.472 45.3061 49.425C45.3061 47.527 44.7021 45.874 43.4951 44.455C42.3061 43.067 40.8501 42.377 39.1121 42.377C37.8151 42.377 36.6611 42.713 35.6491 43.39C35.3111 43.623 34.9931 43.867 34.6881 44.17L30.8741 47.985C30.6441 46.672 30.0751 45.503 29.1881 44.455C27.9981 43.067 26.5441 42.377 24.8061 42.377Z" fill="#BF4C35"/>
<path d="M24.806 42.377C23.509 42.377 22.355 42.713 21.343 43.39C20.349 44.044 19.568 44.985 19.001 46.176C18.448 47.366 18.165 48.716 18.165 50.207C18.165 51.91 18.573 53.328 19.372 54.463C20.171 55.582 21.343 56.328 22.87 56.719L24.858 52.496C24.129 52.496 23.561 52.266 23.153 51.802C22.745 51.343 22.549 50.739 22.549 49.993C22.549 49.499 22.639 49.034 22.832 48.626C23.01 48.198 23.277 47.88 23.598 47.647C23.934 47.403 24.289 47.295 24.68 47.295C25.106 47.295 25.461 47.402 25.799 47.611C26.117 47.841 26.365 48.146 26.543 48.536C26.721 48.93 26.811 49.389 26.811 49.902C26.811 50.47 26.561 51.288 26.03 52.385L20.721 63.448H25.496L28.902 56.327C29.611 54.874 30.146 53.63 30.482 52.583C30.818 51.519 30.998 50.471 30.998 49.424C30.998 47.526 30.394 45.873 29.187 44.454C27.998 43.067 26.544 42.377 24.806 42.377ZM39.113 42.377C37.816 42.377 36.662 42.713 35.65 43.39C34.654 44.044 33.873 44.985 33.304 46.176C32.753 47.366 32.47 48.716 32.47 50.207C32.47 51.91 32.878 53.328 33.677 54.463C34.476 55.582 35.65 56.328 37.177 56.719L39.165 52.496C38.436 52.496 37.868 52.266 37.46 51.802C37.052 51.343 36.856 50.739 36.856 49.993C36.856 49.499 36.946 49.034 37.139 48.626C37.317 48.198 37.584 47.88 37.903 47.647C38.241 47.403 38.596 47.295 38.987 47.295C39.395 47.295 39.768 47.402 40.104 47.611C40.424 47.841 40.672 48.146 40.85 48.536C41.028 48.93 41.116 49.389 41.116 49.902C41.116 50.47 40.868 51.288 40.337 52.385L35.028 63.448H39.803L43.211 56.327C43.92 54.874 44.453 53.63 44.791 52.583C45.127 51.519 45.305 50.471 45.305 49.424C45.305 47.526 44.701 45.873 43.494 44.454C42.306 43.067 40.851 42.377 39.113 42.377ZM60.574 42.377C59.279 42.377 58.125 42.713 57.113 43.39C56.119 44.044 55.338 44.985 54.769 46.176C54.217 47.366 53.935 48.716 53.935 50.207C53.935 51.91 54.343 53.328 55.143 54.463C55.942 55.582 57.114 56.328 58.622 56.719L60.628 52.496C59.901 52.496 59.333 52.266 58.925 51.802C58.517 51.343 58.321 50.739 58.321 49.993C58.321 49.499 58.409 49.034 58.587 48.626C58.782 48.198 59.048 47.88 59.368 47.647C59.688 47.403 60.059 47.295 60.452 47.295C60.86 47.295 61.231 47.402 61.552 47.611C61.89 47.841 62.138 48.146 62.316 48.536C62.495 48.93 62.583 49.389 62.583 49.902C62.583 50.47 62.316 51.288 61.802 52.385L56.495 63.448H61.269L64.677 56.327C65.388 54.874 65.902 53.63 66.257 52.583C66.595 51.519 66.773 50.471 66.773 49.424C66.773 47.526 66.169 45.873 64.943 44.454C63.77 43.067 62.314 42.377 60.574 42.377ZM73 42.803C72.186 42.803 71.422 43.034 70.73 43.512C70.017 43.975 69.467 44.612 69.06 45.43C68.668 46.247 68.456 47.133 68.456 48.094C68.456 49.071 68.669 49.975 69.06 50.812C69.467 51.624 70.017 52.265 70.73 52.742C71.42 53.207 72.185 53.453 73 53.453C73.836 53.453 74.6 53.207 75.309 52.742C76 52.265 76.569 51.624 76.977 50.812C77.387 49.993 77.582 49.086 77.582 48.094C77.582 47.133 77.387 46.247 76.977 45.43C76.569 44.612 76 43.975 75.309 43.512C74.6 43.034 73.836 42.803 73 42.803ZM82.818 42.803L71.777 63.504H74.439L85.48 42.803H82.818ZM73 45.999C73.355 45.999 73.658 46.09 73.924 46.28C74.207 46.464 74.422 46.707 74.582 47.044C74.74 47.366 74.83 47.702 74.83 48.095C74.83 48.699 74.652 49.195 74.297 49.603C73.942 50.03 73.516 50.224 73 50.224C72.521 50.224 72.096 50.011 71.74 49.603C71.385 49.175 71.209 48.681 71.209 48.095C71.209 47.508 71.385 47.011 71.723 46.62C72.078 46.212 72.504 45.999 73 45.999ZM84.293 52.852C83.457 52.852 82.695 53.084 81.984 53.56C81.291 54.021 80.742 54.661 80.334 55.478C79.926 56.294 79.713 57.181 79.713 58.159C79.713 59.136 79.926 60.042 80.334 60.859C80.742 61.672 81.291 62.333 81.984 62.808C82.695 63.271 83.457 63.503 84.293 63.503C85.127 63.503 85.889 63.271 86.582 62.808C87.273 62.331 87.824 61.691 88.232 60.859C88.64 60.042 88.836 59.134 88.836 58.159C88.836 57.184 88.64 56.296 88.232 55.478C87.824 54.679 87.273 54.021 86.582 53.56C85.889 53.084 85.127 52.852 84.293 52.852ZM84.293 56.029C84.807 56.029 85.232 56.242 85.588 56.65C85.924 57.058 86.102 57.572 86.102 58.158C86.102 58.744 85.924 59.242 85.571 59.65C85.217 60.058 84.789 60.254 84.295 60.254C83.797 60.254 83.371 60.059 83.033 59.65C82.678 59.224 82.5 58.744 82.5 58.158C82.5 57.572 82.66 57.058 83.017 56.65C83.35 56.242 83.777 56.029 84.293 56.029ZM49.674 57.928C48.965 57.928 48.361 58.211 47.881 58.778C47.385 59.346 47.154 60.059 47.154 60.891C47.154 61.709 47.402 62.401 47.881 62.967C48.38 63.535 48.983 63.822 49.674 63.822C50.385 63.822 50.971 63.535 51.469 62.967C51.965 62.401 52.213 61.709 52.213 60.891C52.213 60.342 52.108 59.846 51.877 59.399C51.664 58.942 51.361 58.586 50.971 58.336C50.598 58.068 50.154 57.928 49.674 57.928Z" fill="white"/>
</g>
<defs>
<clipPath id="clip0_102_13281">
<rect width="106" height="106" fill="white" transform="translate(0.5)"/>
</clipPath>
</defs>
</svg>
