<svg width="107" height="106" viewBox="0 0 107 106" fill="none" xmlns="http://www.w3.org/2000/svg">
<g clip-path="url(#clip0_101_13331)">
<path d="M106.6 53.0779C106.6 82.3479 82.8806 106.086 53.6076 106.086C24.3396 106.086 0.601562 82.3479 0.601562 53.0779C0.601562 23.8059 24.3396 0.0869141 53.6076 0.0869141C82.8806 0.0869141 106.6 23.8059 106.6 53.0779Z" fill="#4D9197"/>
<path d="M73.0404 22.4539C72.5424 22.4539 71.8824 22.4709 71.5264 22.5219C70.2104 22.6849 68.9284 23.0399 67.3804 23.6479C67.1654 23.7139 67.0754 23.7689 67.0404 23.8049L47.0434 43.8039C47.0784 43.6829 47.0964 43.5779 47.1134 43.4499L61.8124 28.7729L62.4514 27.0089L62.1154 26.8819L62.0784 26.8689L61.5274 26.6729H61.5094L60.9394 26.4959L60.9214 26.4749L60.3514 26.3129L60.3354 26.2999L59.7474 26.1529L59.7294 26.1359L59.1414 26.0129L59.1224 25.9919L58.5344 25.8709H58.5194L57.9154 25.7609H57.8984L57.3104 25.6569H57.2734L56.6694 25.5839H56.6514L56.0464 25.5159H56.0284L55.4234 25.4799H55.4054L54.8004 25.4449H54.7824L54.1944 25.4239H53.5534L52.9654 25.4449H52.9494L52.3614 25.4619H52.3244L51.7564 25.4979H51.7214L51.1514 25.5539H51.1184L50.5484 25.6209H50.5284L49.9444 25.7109H49.9264L49.3564 25.8179H49.3384L48.7684 25.9279H48.7504L48.1804 26.0669H48.1644L47.6134 26.2099H47.5764L47.1854 26.3139L44.8354 28.6659C44.9074 28.2189 44.8724 27.7399 44.6924 27.2629C44.2474 25.9939 43.2154 25.1939 41.8644 25.0889C41.7744 25.0699 41.6864 25.0699 41.5964 25.0699C40.7954 25.0889 40.0134 25.4449 39.4254 26.0139L36.9704 28.4689C36.8274 28.4009 36.6154 28.3629 36.2224 28.3089C35.6544 28.2179 35.0834 28.1849 34.4954 28.1659C32.7704 28.1129 31.0974 28.3619 29.7454 28.8779C29.4974 28.9699 29.1774 29.0919 29.0524 29.1479C28.8744 29.1959 28.7674 29.2519 28.7144 29.3059L26.9524 31.0659C26.9174 31.0139 26.8804 30.9619 26.8644 30.9049C26.7574 30.7269 26.6674 30.6399 26.5444 30.6579L23.1444 34.0559V34.0389L26.5444 30.6569C26.4174 30.6569 26.2574 30.7449 26.0264 30.9229C25.6184 31.2609 25.1904 31.6349 24.7974 32.0269L18.7114 38.1299C17.9824 38.2219 17.2894 38.5599 16.7724 39.0909L0.69043 55.1619C1.68443 79.8379 19.5694 100.57 43.8404 105.123L69.6054 79.3589C70.1744 78.7909 70.0154 78.2189 69.3224 77.0989C68.9474 76.4939 68.5564 75.6399 68.4494 75.1789C68.3244 74.6999 68.0944 74.2169 67.8634 74.0389C67.4884 73.7559 67.4704 73.6449 67.5584 72.1859C67.5954 71.6329 67.5954 71.1169 67.5414 70.6209L71.1364 67.0239L71.3834 66.7559L71.4024 66.7379L71.8124 66.3119L71.8304 66.2949L72.2234 65.8469V65.8279L72.6144 65.3689L72.6334 65.3479L73.0064 64.8829V64.8649L73.3814 64.3859L73.4004 64.3669L73.7384 63.8859L73.7564 63.8709L74.0944 63.3689L74.1124 63.3499L74.4504 62.8359V62.8159L74.7724 62.2829L74.7894 62.2649L75.0944 61.7479L75.1114 61.7289L75.3964 61.1949L75.4164 61.1779L75.6824 60.6449L75.7004 60.6249L75.9504 60.0899L75.9694 60.0759L76.2174 59.5189V59.5049L76.4484 58.9679V58.9469L76.6624 58.3959V58.3769L76.8564 57.8259V57.8059L77.0514 57.2549V57.2359L77.2114 56.6659V56.6539L77.3734 56.0959V56.0819L77.4784 55.6699L85.0044 48.1229C85.0234 48.1229 85.0234 48.1099 85.0394 48.1099C85.0924 47.8929 87.9384 38.0689 87.9384 38.0549C87.9384 38.0549 87.7094 38.1419 87.4404 38.2329C86.9244 38.4289 86.4444 38.6069 85.9814 38.7469L88.4364 36.2909L89.8974 31.2359C90.6964 28.4799 91.3564 26.2019 91.3364 26.1839C91.3364 26.1839 91.2484 26.2199 91.1584 26.2549C89.5214 26.9109 88.0974 27.2849 86.6214 27.4629C86.2304 27.5009 85.1274 27.5009 84.7524 27.4629C83.1884 27.2849 81.9064 26.7709 80.2154 25.6679C80.0724 25.5759 80.0204 25.5419 79.9854 25.5419L77.3524 28.1789C77.8484 26.4499 78.4364 24.4759 78.4364 24.4579C78.4364 24.4369 78.2764 24.3329 78.0824 24.2059C76.4074 23.1019 75.0944 22.6249 73.4744 22.4649C73.3694 22.4649 73.2264 22.4459 73.0474 22.4459V22.4419H73.0404V22.4539Z" fill="#3C7378"/>
<path d="M73.041 22.4541C72.543 22.4541 71.883 22.4711 71.527 22.5221C70.211 22.6851 68.929 23.0401 67.381 23.6481C67.112 23.7521 67.041 23.7881 67.025 23.8431C67.025 23.8741 66.367 26.1521 65.566 28.8941C64.765 31.6501 64.125 33.9101 64.142 33.9101C64.142 33.9101 64.336 33.8421 64.57 33.7501C66.154 33.1331 67.648 32.7221 68.822 32.5761C71.101 32.3471 72.951 32.8631 75.246 34.3931C75.389 34.4791 75.496 34.5531 75.496 34.5531C75.514 34.5331 78.414 24.4991 78.414 24.4611C78.414 24.4611 78.271 24.3391 78.076 24.2171C76.385 23.1261 75.068 22.6301 73.449 22.4701C73.342 22.4711 73.201 22.4711 73.041 22.4541ZM41.582 25.0871C40.231 25.0871 38.95 26.1011 38.592 27.4511C38.432 28.0751 38.432 28.4121 38.574 28.9811C38.894 30.1941 39.783 31.0641 40.976 31.3331C43.361 31.8651 45.478 29.5381 44.677 27.2731C44.232 25.9921 43.2 25.2101 41.849 25.0861C41.759 25.0871 41.669 25.0871 41.582 25.0871ZM53.537 25.4231L52.951 25.4441H52.931L52.345 25.4611H52.325L51.739 25.5161H51.721L51.133 25.5681H51.117L50.527 25.6401H50.509L49.943 25.7101H49.925L49.337 25.8171H49.319L48.749 25.9271L48.731 25.9401L48.178 26.0661H48.145L47.592 26.2091H47.574L47.166 26.3131L47.664 28.1311L48.055 28.0211L48.571 27.8991L49.124 27.7751L49.657 27.6651L50.759 27.4881L51.329 27.4191L51.862 27.3661L52.413 27.3281L52.983 27.3101L53.534 27.2911H54.101L54.689 27.3101L55.259 27.3471L55.81 27.3831L56.398 27.4511L56.968 27.5251L57.554 27.6141L58.124 27.7201L58.657 27.8421L59.227 27.9701L59.778 28.1121L60.331 28.2691L61.397 28.6251L61.735 28.7521L62.393 27.0081L62.039 26.8681H62.02L61.469 26.6721L61.432 26.6521L60.881 26.4731H60.846L60.299 26.3001H60.264L59.696 26.1361H59.678L59.09 25.9921H59.07L58.484 25.8711L58.449 25.8521L57.861 25.7431H57.842L57.238 25.6561H57.22L56.616 25.5831H56.595L55.991 25.5151H55.974L55.37 25.4601H55.35L54.746 25.4231H54.73L54.125 25.4041H53.484L53.537 25.4231ZM79.98 25.5521L79.959 25.5671C79.959 25.6011 79.317 27.8311 78.537 30.5301C77.754 33.2191 77.112 35.4971 77.078 35.5691L77.041 35.6931L77.379 35.9081C79.019 36.9721 80.422 37.5101 81.937 37.6501C82.275 37.6881 83.326 37.6881 83.679 37.6501C84.945 37.5241 86.226 37.2051 87.685 36.6171C87.951 36.5121 88.236 36.3861 88.306 36.3511L88.431 36.2981L89.892 31.2461C90.691 28.4681 91.351 26.2081 91.33 26.1911C91.33 26.1911 91.242 26.2251 91.151 26.2611C89.514 26.9171 88.074 27.2901 86.615 27.4501C86.223 27.5051 85.121 27.5051 84.746 27.4501C83.183 27.2901 81.899 26.7761 80.209 25.6741C80.068 25.5831 80.016 25.5521 79.98 25.5521ZM34.482 28.1651C32.755 28.1311 31.084 28.3811 29.748 28.8941C29.482 28.9811 29.18 29.1081 29.037 29.1461C28.502 29.3411 28.502 29.3901 29 30.2301C29.25 30.6561 29.553 31.1721 29.66 31.3691C29.765 31.5821 29.89 31.8151 29.945 31.8651C29.998 31.9381 30.068 32.0591 30.105 32.1151C30.138 32.1891 30.371 32.6111 30.638 33.0761C31.189 34.0381 31.261 34.0731 32.15 33.7681C32.613 33.6101 32.879 33.5921 34.019 33.5921C35.193 33.5721 35.425 33.5921 36.011 33.7681C36.847 34.0201 37.88 34.4971 38.521 34.9261C39.072 35.3001 40.175 36.4201 40.495 36.9531C41.083 37.8621 41.546 38.9661 41.651 39.6411C41.758 40.2471 41.616 40.2101 44.161 40.2661C47.454 40.3381 47.134 40.3561 47.169 39.9951C47.222 39.2831 46.653 37.0611 46.083 35.8501C45.425 34.4281 44.089 32.5231 43.698 32.4701C43.591 32.4491 43.323 32.5061 43.128 32.5931C42.827 32.7011 42.523 32.7381 41.776 32.7381C40.94 32.7201 40.743 32.7021 40.23 32.5071C38.591 31.8841 37.453 30.5111 37.185 28.8581C37.115 28.4851 37.009 28.4121 36.224 28.3071C35.639 28.2341 35.068 28.1841 34.482 28.1651ZM26.527 30.6561C26.402 30.6561 26.242 30.7441 26.029 30.9221C24.927 31.8161 23.877 32.9161 23.201 33.9461C22.701 34.6751 21.775 36.4761 21.76 36.6891C21.76 36.7571 21.705 36.9221 21.635 37.0451C21.455 37.3991 21.475 37.4711 21.883 37.8091C22.401 38.2191 23.112 39.3391 23.342 40.0511C23.574 40.7961 23.574 41.8311 23.342 42.6141C23.164 43.2721 22.418 44.4461 21.938 44.8381C21.528 45.1561 21.493 45.2651 21.635 45.6041C21.705 45.7461 21.848 46.0821 21.953 46.3701C22.381 47.4911 23.058 48.6111 24.019 49.7691C24.552 50.4251 24.96 50.8161 25.833 51.5481C26.171 51.8311 26.509 52.0641 26.579 52.0641C26.686 52.0641 27.167 51.2981 28.038 49.6931C28.165 49.4681 28.466 48.9291 28.698 48.5201C29.319 47.4561 29.319 47.5261 28.733 46.9401C27.825 46.0511 27.042 44.7841 26.686 43.6271C26.401 42.7021 26.295 41.3881 26.418 40.4451C26.633 38.6631 27.361 37.1681 28.645 35.8691C29.356 35.1411 29.356 35.1601 28.645 34.0031C28.165 33.2381 28.004 32.9561 28.004 32.9171C28.004 32.9001 27.879 32.6861 27.736 32.4361C27.576 32.2051 27.398 31.9041 27.343 31.7991C27.29 31.6701 27.183 31.4911 27.113 31.3701C27.058 31.2611 26.935 31.0511 26.845 30.9231C26.74 30.7441 26.652 30.6561 26.527 30.6561ZM69.197 34.4111C68.769 34.4301 68.324 34.4471 68.039 34.4791C66.705 34.6631 65.176 35.0841 63.822 35.6361L63.609 35.7281L62.203 40.6751C61.42 43.3811 60.762 45.6721 60.744 45.7641L60.691 45.9031L60.886 45.8351C61.258 45.6731 62.238 45.3171 62.648 45.1951C64.89 44.5341 66.794 44.4101 68.484 44.8561C69.498 45.1391 70.496 45.6041 71.689 46.3701C71.865 46.4911 72.025 46.5991 72.025 46.5991C72.025 46.5991 72.703 44.3051 73.521 41.4951C74.924 36.6711 74.996 36.4021 74.959 36.3701C74.924 36.3501 74.73 36.2241 74.517 36.0851C72.986 35.1041 71.775 34.6241 70.283 34.4471C70.033 34.4111 69.605 34.4111 69.178 34.4111H69.197ZM76.547 37.4191C76.51 37.4891 73.662 47.4171 73.645 47.4551C73.629 47.5251 74.553 48.1131 75.264 48.4701C76.385 49.0561 77.381 49.3591 78.682 49.4801C78.93 49.5001 80.176 49.4681 80.496 49.4311C81.848 49.2521 83.094 48.9111 84.66 48.3071C84.926 48.2001 85.015 48.1461 85.033 48.1131C85.086 47.9001 87.933 38.0791 87.933 38.0591C87.933 38.0591 87.703 38.1481 87.435 38.2371C85.906 38.8391 84.66 39.1621 83.342 39.3221C82.808 39.3761 81.668 39.3761 81.189 39.3221C79.695 39.1091 78.449 38.6311 76.937 37.6321C76.705 37.4721 76.563 37.4001 76.547 37.4191ZM19.072 38.0931C18.004 38.0931 16.918 38.6971 16.314 39.6421C15.796 40.4451 15.726 41.7231 16.154 42.6351C16.58 43.5051 17.185 44.0191 18.146 44.3431C19.427 44.7651 20.974 44.1791 21.74 42.9701C21.972 42.5971 22.258 41.6871 22.258 41.3011C22.258 40.8531 21.973 39.9791 21.688 39.5361C21.154 38.7181 20.014 38.0931 19.072 38.0931ZM45.869 42.4191C45.531 42.4191 45.103 42.4401 44.553 42.4401C41.67 42.4711 41.83 42.4191 41.653 43.2181C41.19 45.3341 39.536 47.3481 37.507 48.3081C36.193 48.9291 35.765 49.0221 34.181 49.0221C32.775 49.0221 32.49 48.9851 31.583 48.6471C31.476 48.5941 31.333 48.5941 31.245 48.6471C31.155 48.7031 30.692 49.4121 30.212 50.2461C29.732 51.0841 29.269 51.8851 29.181 52.0291C29.109 52.1701 28.931 52.4741 28.808 52.6911C28.558 53.1131 28.576 53.3461 28.861 53.4361C28.949 53.4691 29.144 53.5431 29.287 53.5961C30.07 53.9531 31.726 54.3421 32.848 54.4651C34.147 54.5941 36.547 54.4101 36.94 54.1641C37.065 54.0941 37.135 53.9161 37.208 53.6131C37.386 52.6911 37.759 51.9891 38.542 51.2261C39.11 50.6561 39.608 50.3551 40.374 50.1051C40.979 49.8901 42.599 49.8901 43.044 50.0851C43.612 50.3371 43.862 50.2821 44.29 49.7511C45.126 48.7021 45.999 47.2031 46.39 46.1561C46.888 44.8391 47.331 42.7221 47.173 42.5251C47.097 42.4391 46.902 42.4191 45.869 42.4191ZM56.92 50.7301C56.135 50.7461 55.352 50.8711 54.783 51.1211C53.732 51.5641 52.825 52.4961 52.433 53.5431C52.132 54.3591 52.078 54.9471 52.025 57.6661C51.972 61.6521 51.882 61.9571 49.962 64.5001C47.685 67.5431 46.491 70.3201 46.491 72.6481C46.491 73.6271 45.637 74.7011 44.606 75.0371C44.213 75.1801 43.715 75.5161 43.467 75.8011C43.057 76.2811 43.039 76.3891 43.147 77.5471C43.217 78.2761 43.182 79.0781 43.057 79.5391C42.666 81.1391 43.11 81.5821 45.514 81.9391C46.403 82.0841 47.702 82.4181 48.412 82.7031C50.139 83.4001 51.045 83.5041 52.004 83.1521C52.432 82.9901 52.912 82.6331 53.109 82.3831C53.392 81.9741 53.606 81.8851 55.049 81.6911C56.348 81.5131 57.006 81.5131 58.34 81.6721C59.959 81.8671 60.014 81.9041 60.279 82.4181C60.422 82.7201 60.849 83.1311 61.222 83.3451C62.502 84.1111 63.996 83.6621 65.689 82.0291C66.275 81.4591 67.273 80.7651 68.074 80.3401C70.191 79.2361 70.351 78.8261 69.301 77.1001C68.928 76.4961 68.535 75.6411 68.43 75.1801C68.323 74.7011 68.076 74.2371 67.842 74.0591C67.487 73.7701 67.469 73.6681 67.541 72.2071C67.701 69.4101 67.006 67.6351 64.336 64.1091C62.256 61.3161 61.969 60.5881 61.969 57.7951C61.969 53.6351 60.975 51.6171 58.608 50.9431C58.129 50.7981 57.523 50.7301 56.92 50.7301ZM41.599 51.2631C41.029 51.2811 40.46 51.4411 39.963 51.7591C38.824 52.5421 38.272 53.8621 38.574 55.1061C38.857 56.2101 39.66 57.0981 40.728 57.4541C41.849 57.8271 43.236 57.4541 44.019 56.5851C44.57 55.9401 44.802 55.3721 44.837 54.5731C44.874 53.7021 44.677 53.1141 44.126 52.4221C43.503 51.6541 42.542 51.2441 41.599 51.2631ZM76.064 53.0641L76.011 53.4351V53.4561L75.92 53.9841L75.816 54.5361L75.691 55.0681L75.547 55.6011L75.406 56.1521L75.244 56.6851L75.065 57.2061V57.2251L74.887 57.7411L74.672 58.2741V58.2921L74.459 58.7881L74.229 59.3271L73.979 59.8411L73.713 60.3571L73.445 60.8571L73.16 61.3721L72.857 61.8681L72.539 62.3511L72.199 62.8301V62.8511L71.879 63.2951V63.3161L71.541 63.7771L71.168 64.2191L70.813 64.6501L70.44 65.0741L70.049 65.5001L69.801 65.7501L71.135 67.0661L71.401 66.7791L71.422 66.7601L71.83 66.3341V66.3151L72.224 65.8731L72.242 65.8521L72.633 65.4131L72.651 65.3921L73.006 64.9131L73.024 64.8921L73.399 64.4311V64.4151L73.754 63.9131L73.772 63.8951L74.11 63.3991L74.129 63.3781L74.448 62.8641L74.467 62.8451L74.787 62.3291L74.808 62.3111L75.109 61.7761V61.7571L75.414 61.2271V61.2061L75.697 60.6711V60.6601L75.965 60.1231L75.983 60.1051L76.213 59.5701L76.233 59.5511L76.463 59.0001V58.9811L76.676 58.4281V58.4101L76.873 57.8591V57.8401L77.049 57.2871V57.2681L77.227 56.7171V56.6971L77.387 56.1291V56.1111L77.53 55.5411V55.5271L77.655 54.9591V54.9391L77.762 54.3881V54.3671L77.85 53.8021V53.7831L77.922 53.3731L76.07 53.0861V53.0591H76.064V53.0641ZM57.879 55.3201C58.182 55.3201 58.467 55.4241 58.715 55.6581C59.41 56.3011 59.623 57.5451 59.213 58.4311C59.108 58.6831 58.947 58.8611 58.84 58.8611C58.324 58.8241 58.252 58.6661 58.342 57.8631C58.412 57.2441 58.379 56.9921 58.147 56.7791C57.987 56.6191 57.793 56.4921 57.719 56.4921C57.418 56.4921 57.026 57.0291 57.026 57.4391C57.026 57.7401 56.938 57.8441 56.688 57.8441C56.225 57.8441 56.1 57.4391 56.334 56.6561C56.58 55.8181 57.238 55.3031 57.879 55.3201ZM53.822 55.6231C54.125 55.6411 54.426 55.8361 54.658 56.1911C55.066 56.8691 55.103 57.7751 54.73 57.9181C54.336 58.0591 54.355 58.0761 54.25 57.5101C54.125 56.9201 53.68 56.6561 53.431 57.0101C53.286 57.2441 53.306 57.9531 53.466 58.5061C53.502 58.6491 53.448 58.7721 53.341 58.8241C52.753 59.0391 52.486 56.8691 53.003 56.0861C53.216 55.7461 53.52 55.6041 53.822 55.6231ZM55.619 58.0761C56.135 58.0581 56.74 58.3101 57.808 58.8051C58.859 59.3261 59.176 59.5531 59.211 59.8751C59.301 60.4281 58.732 60.9611 57.291 61.6701C55.901 62.3691 55.457 62.4001 54.728 61.9571C53.999 61.5291 52.77 60.3361 52.77 60.0921C52.77 59.8221 53.465 59.1801 54.462 58.5241C54.891 58.2361 55.229 58.0761 55.619 58.0761ZM33.359 59.5021L31.67 60.3181L31.848 60.6601L31.866 60.6741L32.134 61.2091V61.2301L32.419 61.7441L32.437 61.7621L32.74 62.2781L32.758 62.2971L33.061 62.7931L33.079 62.8141L33.399 63.3161L33.417 63.3461L33.755 63.8281L33.775 63.8461L34.129 64.3441L34.149 64.3631L34.522 64.8441V64.8591L34.915 65.3401L34.931 65.3591L35.306 65.8201L35.324 65.8381L35.732 66.2851L35.75 66.3051L36.16 66.7461V66.7641L36.588 67.1741L36.606 67.2111L37.032 67.6191L37.052 67.6391L37.478 68.0301L37.498 68.0491L37.941 68.4451L37.959 68.4571L38.404 68.8361L38.439 68.8501L38.884 69.2091H38.902L39.365 69.5631L39.4 69.5801L39.863 69.9161H39.881L40.361 70.2541H40.379L40.859 70.5721H40.896L41.376 70.8771L41.392 70.8951L41.89 71.1781H41.927L42.282 71.3751L43.173 69.7381L42.835 69.5411L42.355 69.2731L41.875 68.9901L40.949 68.3851L40.486 68.0471L40.041 67.7071L39.633 67.3891V67.3691L39.205 67.0151L38.76 66.6401L38.352 66.2671L37.942 65.8551L37.551 65.4471L37.141 65.0371V65.0251L36.786 64.6131V64.5941L36.04 63.7051L35.683 63.2241L35.345 62.7581V62.7441L35.025 62.2971V62.2781L34.421 61.3171L34.134 60.8191L33.868 60.3191L33.6 59.8071L33.44 59.4871L33.359 59.5021ZM58.537 59.8951C58.379 59.8951 57.861 60.1411 57.381 60.4281C56.776 60.8011 56.242 60.9961 55.619 61.0471C54.838 61.1211 54.658 61.0651 54.072 60.5881C53.697 60.3011 53.359 60.1061 53.306 60.1581C53.163 60.3011 54.16 61.0641 54.73 61.2441C55.013 61.3361 55.511 61.3691 55.851 61.3161C56.492 61.2301 59 59.9081 58.537 59.8951ZM47.685 73.7211C47.755 73.7211 47.845 73.7401 47.951 73.7581C48.664 73.9341 49.109 74.4141 49.82 75.7831C50.158 76.4571 50.779 77.4201 51.172 77.9391C52.791 80.0701 53.004 80.9631 52.113 81.8691C51.685 82.2991 51.492 82.3651 50.707 82.3481C50.211 82.3481 49.678 82.2991 49.555 82.2441C49.412 82.2071 48.825 81.9741 48.274 81.7621C47.704 81.5471 46.655 81.2831 45.924 81.1921C43.824 80.9101 43.912 81.0141 44.02 78.5761C44.09 77.4221 44.163 76.3891 44.198 76.2831C44.233 76.1601 44.626 75.9081 45.052 75.7131C45.497 75.5351 46.21 75.0021 46.656 74.5081C47.205 73.9341 47.417 73.7381 47.685 73.7211ZM62.648 73.8611C62.754 73.8611 62.826 73.9651 62.826 74.1621C62.826 74.3401 62.986 74.7011 63.181 74.9451C63.644 75.5331 64.336 75.5151 65.457 74.8771C66.242 74.4321 66.418 74.3951 66.862 74.5551C67.381 74.7311 67.629 75.1231 67.86 76.1591C67.914 76.4391 68.162 76.9071 68.375 77.2061C69.354 78.5211 69.213 79.0071 67.541 79.8391C66.953 80.1261 66.026 80.7861 65.476 81.3001C64.908 81.8191 64.213 82.3501 63.894 82.4771C63.076 82.8151 62.097 82.7801 61.58 82.3681C60.762 81.7331 60.709 80.7681 61.35 78.4211C61.492 77.9251 61.653 76.9621 61.705 76.2651C61.758 75.5911 61.918 74.7711 62.045 74.4521C62.203 74.0971 62.416 73.8841 62.596 73.8641C62.611 73.8611 62.631 73.8611 62.648 73.8611Z" fill="white"/>
</g>
<defs>
<clipPath id="clip0_101_13331">
<rect width="106" height="106" fill="white" transform="translate(0.5)"/>
</clipPath>
</defs>
</svg>
