<svg width="106" height="106" fill="none" xmlns="http://www.w3.org/2000/svg"><g clip-path="url(#clip0_227_26642)"><path d="M53.254.181c29.27 0 53 23.729 53 53.001 0 29.271-23.73 53-53 53-29.272 0-53-23.729-53-53C.253 23.91 23.982.181 53.254.181z" fill="#BFB558"/><path d="M29.701 29.005l47.055 1.725 2.027 28.181-4.945 4.521 12.986 6.586-3.588 3.617 1.279 1.977-30.564 30.563c-.232.002-.465.009-.697.009-27.452 0-50.028-20.869-52.729-47.609l-.047-.527 29.223-29.043z" fill="#AEA654"/><path d="M59.729 47.091h-5.063v-1.875h4.569v-1.939h-4.57v-1.502h4.92V39.74H51.72v9.498h8.008v-2.147zm4.546.107v-1.924h1.488c.51 0 .877.08 1.079.248a.834.834 0 01.304.68c0 .313-.095.545-.304.729-.206.174-.57.268-1.07.268l-1.497-.001zm0-5.533h1.299c.44 0 .75.08.932.232a.826.826 0 01.273.645c0 .303-.098.525-.273.689-.182.158-.5.234-.957.234h-1.273l-.001-1.8zm3.422 7.447c.496-.07.863-.168 1.115-.311.393-.234.709-.543.938-.934.229-.396.342-.842.342-1.334 0-.6-.154-1.105-.486-1.498-.315-.406-.821-.689-1.496-.848.447-.154.783-.373 1.02-.639.35-.402.522-.883.522-1.443 0-.67-.248-1.23-.731-1.685-.492-.453-1.201-.682-2.108-.682h-5.494v9.498h5.07c.209.001.644-.044 1.308-.124zm-25.227.125l1.656-5.986 1.666 5.986h2.883l2.082-9.498h-2.762l-1.008 5.312-1.473-5.312H42.73l-1.467 5.316-1.006-5.316H37.48l2.11 9.498h2.879zm-8.574-13.751a2.751 2.751 0 012.752-2.752h34.278a2.751 2.751 0 012.752 2.752v17.65a2.75 2.75 0 01-2.752 2.748H36.648a2.753 2.753 0 01-2.754-2.748l.002-17.65zm-2.094 24.868H75.76a3.675 3.675 0 003.68-3.674l.002-24.741a3.677 3.677 0 00-3.682-3.668H31.802a3.679 3.679 0 00-3.674 3.668V56.68a3.677 3.677 0 003.674 3.674zm50.153 4.875c-1.453-1.736-2.23-2.496-3.65-2.496H29.259c-1.418 0-1.94 1.072-3.78 2.764l-4.681 4.527h65.968l-4.811-4.795zm-61.553 6.709c.029.317 1.174 1.453 2.588 3.614h61.583c1.407-2.161 2.555-3.297 2.588-3.614H20.4z" fill="#fff"/></g><defs><clipPath id="clip0_227_26642"><path fill="#fff" d="M0 0h106v106H0z"/></clipPath></defs></svg>