<svg width="106" height="106" fill="none" xmlns="http://www.w3.org/2000/svg"><g clip-path="url(#clip0_227_26657)"><path d="M53.119.132c29.27 0 53 23.729 53 53s-23.73 53-53 53c-29.271 0-53-23.729-53-53s23.729-53 53-53z" fill="#94B432"/><path d="M51.154 47.626l11.116 1.117 11.168-11.24 9.545 6.634-5.086 5.512 9.479 4.676 3.227 13.856-37.943 37.943C26.34 105.9 4.594 86.495.729 61.202l-.036-.252L24.83 36.814l8.457 7.699-4.963 4.717 10.988 3.598 5.938-4.926 5.238-2.762.666 2.486z" fill="#84A12D"/><path d="M32.488 47.825h-7.406a8.687 8.687 0 00-8.695 8.692V68.1h5.098V56.085h1.758v12.017h10.936V56.085h1.762v12.017h5.238V56.52a8.692 8.692 0 00-8.691-8.695zm29.053 12.409l-5.17 3.619c-.938.646-1.676.246-1.676-.862v-1.509h-8.398c-.9 0-1.586-.713-1.586-1.588V58.22c0-.872.686-1.596 1.586-1.596h8.398v-1.488c0-1.12.738-1.512 1.676-.866l5.17 3.623c.912.643.912 1.69 0 2.341zm-16.156-12.45l5.176-3.629c.912-.643 1.674-.262 1.674.869v1.504h8.404c.867 0 1.6.713 1.6 1.592v1.68c0 .869-.731 1.582-1.602 1.582h-8.402v1.498c0 1.125-.762 1.513-1.674.875l-5.176-3.629c-.908-.65-.91-1.701 0-2.342zm36.459.041h-7.422c-4.795 0-8.676 3.887-8.676 8.692V68.1h5.088V56.085h1.768v12.017h10.931V56.085h1.754v12.017h5.243V56.52a8.687 8.687 0 00-8.686-8.695zm-3.703-1.181c3.178 0 5.762-2.576 5.762-5.75a5.76 5.76 0 00-5.762-5.754c-3.186 0-5.771 2.577-5.771 5.754.001 3.173 2.585 5.75 5.771 5.75zm-49.346 0c3.17 0 5.75-2.576 5.75-5.75 0-3.18-2.58-5.754-5.75-5.754a5.76 5.76 0 00-5.766 5.754c0 3.173 2.58 5.75 5.766 5.75z" fill="#fff"/></g><defs><clipPath id="clip0_227_26657"><path fill="#fff" d="M0 0h106v106H0z"/></clipPath></defs></svg>