<svg width="81" height="72" fill="none" xmlns="http://www.w3.org/2000/svg"><g clip-path="url(#clip0_227_29981)"><path d="M5.416.234h69.999c2.752 0 5 2.248 5 5v47.999c0 2.752-2.248 5.002-5 5.002H5.416c-2.75 0-5-2.25-5-5.002v-48a5.013 5.013 0 015-5zm0 10.997h69.999v42H5.416v-42z" fill="#B8B8B8" fill-opacity=".5"/><path d="M5.416 11.231h69.999V53.23H5.416V11.231z" fill="#FCFCFD"/><path d="M63.503 3.92a1.94 1.94 0 010 3.879 1.937 1.937 0 01-1.938-1.94 1.937 1.937 0 011.938-1.938z" fill="#39B3E4"/><path d="M68.641 4.022a1.939 1.939 0 11-.001 3.877 1.939 1.939 0 01.001-3.877z" fill="#FFD400"/><path d="M73.898 4.124a1.939 1.939 0 110 3.877 1.939 1.939 0 010-3.877z" fill="#FF5728"/><path d="M65.63 50.126v-7.5a231.155 231.155 0 00-5.375-.57 19.95 19.95 0 00-2.771-6.264 182.861 182.861 0 003.475-4.441l-5.303-5.303a227.195 227.195 0 00-4.533 3.668 20.01 20.01 0 00-6.061-2.408 191.788 191.788 0 00-.711-5.864h-7.5c-.232 1.977-.44 3.95-.621 5.92a19.93 19.93 0 00-5.922 2.424 191.663 191.663 0 00-4.637-3.713l-5.303 5.303a179.034 179.034 0 003.586 4.582 19.965 19.965 0 00-2.646 6.035c-1.897.182-3.789.394-5.678.63v7.5c1.818.253 3.632.477 5.441.669a19.93 19.93 0 002.508 6.498 190.338 190.338 0 00-3.279 4.11l5.304 5.305A185.552 185.552 0 0029.59 63.6a19.905 19.905 0 006.702 2.898c.165 1.652.353 3.302.56 4.947h7.5c.225-1.631.428-3.258.607-4.881a19.994 19.994 0 006.861-2.873 182.678 182.678 0 003.904 3.043c1.768-1.77 3.534-3.535 5.303-5.303a232.677 232.677 0 00-3.18-3.941 19.952 19.952 0 002.637-6.73c1.718-.187 3.433-.4 5.146-.634zM40.775 56a9.076 9.076 0 01-9.078-9.076 9.077 9.077 0 019.078-9.077 9.076 9.076 0 019.075 9.077A9.076 9.076 0 0140.775 56z" fill="#8AB35E"/></g><defs><clipPath id="clip0_227_29981"><path fill="#fff" d="M0 0h81v72H0z"/></clipPath></defs></svg>