<svg width="107" height="106" fill="none" xmlns="http://www.w3.org/2000/svg"><path d="M106.031 52.991c0 29.273-23.734 53.012-53.006 53.012C23.75 106.003.031 82.265.031 52.991.031 23.721 23.751 0 53.025 0c29.272 0 53.006 23.721 53.006 52.991z" fill="#FDAC6B"/><path d="M31.05 40.32c-1.409 0-2.657.305-3.778.908-.6.322-1.139.713-1.6 1.176L1.756 66.321c4.537 17.387 17.563 31.3 34.61 36.943l40.538-40.539 5.424-17.298a5.15 5.15 0 00.148-1.244c0-2.313-1.515-3.47-4.525-3.47H67.865l-.678.677.336-1.03h-2.81L54.555 50.501v-1.314H49.87L45.958 53.1l7.066-12.388h-5.196L30.922 57.62h-.217L35 53.35a29.221 29.221 0 001.42-1.499c.514-.568.924-1.244 1.268-2.029.334-.78.512-1.688.512-2.717 0-1.285-.305-2.44-.922-3.473-.607-1.035-1.465-1.848-2.547-2.438-1.087-.585-2.317-.874-3.682-.874z" fill="#E3924F"/><path d="M31.05 40.32c-1.409 0-2.657.305-3.778.908a6.831 6.831 0 00-2.63 2.492c-.622 1.068-.927 2.26-.927 3.576 0 1.14.23 2.172.711 3.078.48.908 1.23 1.745 2.246 2.513l3.396-3.597c-.818-.64-1.229-1.352-1.229-2.117 0-.568.197-1.029.588-1.402.391-.395.855-.59 1.406-.59.62 0 1.12.195 1.514.568.393.375.588.834.588 1.387 0 .643-.305 1.283-.912 1.922l-6.639 7.067c-1.205 1.3-1.813 2.527-1.813 3.7 0 1.937 1.086 2.898 3.258 2.898h11.727V57.62h-7.973l3.49-3.363c1.047-1.033 1.83-1.834 2.346-2.406a7.703 7.703 0 001.268-2.029c.334-.78.512-1.688.512-2.717 0-1.285-.305-2.44-.922-3.473-.607-1.035-1.465-1.848-2.547-2.438-1.086-.568-2.316-.873-3.68-.873zm33.665.04l-8.012 25.305h2.8l8.02-25.306h-2.808zm-16.887.353l-6.303 11.351c-.514.894-.766 1.785-.766 2.69 0 1.085.375 1.94 1.121 2.581.734.641 1.746.965 3.043.965h4.947v4.426h4.685V58.3h2.506v-4.984h-2.506v-4.128H49.87v4.288h-4.127l7.281-12.763h-5.196zm20.037 0v5.02h8.986l-5.803 16.992h5.854l5.425-17.297c.092-.373.147-.783.147-1.244 0-2.313-1.514-3.47-4.524-3.47H67.865z" fill="#fff"/></svg>