<svg width="106" height="106" fill="none" xmlns="http://www.w3.org/2000/svg"><g clip-path="url(#clip0_227_30586)"><path d="M106.039 53.057c0 29.27-23.738 53.009-53.006 53.009-29.271 0-52.992-23.737-52.992-53.01C.041 23.782 23.762.066 53.033.066c29.268-.001 53.006 23.715 53.006 52.992z" fill="#E64475"/><path d="M53.053 25.172c-3.525 0-7.033.07-7.638.23-1.23.322-2.31.945-3.29 1.923a.366.366 0 00-.105.09L2.034 67.412C7.82 87.95 25.362 103.006 46.538 105.62l25.856-25.86c.336-.333.62-.687.814-1.08l.36-.677.032-4.254.055-4.252-1.795 1.797-.39.197h-2.51l3.47-3.471c.355-.355.656-.746.816-1.14.322-.676.322-.801.354-4.893.021-3.187.021-3.97-.104-3.867l-1.3 1.303a1.895 1.895 0 01-.392.18c-.109.019-1.212.05-2.724.07l3.313-3.311c.373-.373.674-.802.887-1.27.27-.585.287-.831.318-4.798l.04-4.181-1.71 1.707c-.07.036-.144.05-.214.072-.125.035-1.373.053-3.024.089l2.973-2.973c.336-.338.443-.751.443-1.46l-.02-.89-3.632-7.241c-3.595-7.172-3.646-7.261-4.519-8.115-.979-.944-2.082-1.601-3.276-1.921-.579-.138-4.104-.21-7.606-.21z" fill="#BF456A"/><path d="M35.506 80.869c-1.121-.342-2.117-1.193-2.686-2.26-.305-.588-.305-.676-.357-4.86l-.035-4.251.322.605c.246.463.479.676 1.084.996l.78.393h36.854l.767-.393c.62-.32.852-.533 1.104-.996l.316-.605-.055 4.252-.031 4.254-.358.678a4.913 4.913 0 01-1.976 1.939l-.586.32-17.42.018c-9.576.018-17.545-.018-17.723-.09zm35.002-3.346c.496-.392.639-.836.46-1.388-.245-.766-.497-.854-2.522-.854H66.61l-.338.407c-.57.677-.375 1.69.373 1.988.16.057.998.11 1.888.129 1.455.004 1.65-.014 1.975-.282zm-35.02-8.402a4.113 4.113 0 01-2.667-2.28c-.305-.634-.32-.794-.34-4.851-.035-3.596 0-4.13.143-3.773.25.553 1.03 1.209 1.64 1.389.71.195 36.843.195 37.543 0 .606-.18 1.403-.836 1.653-1.39.142-.354.16.179.142 3.774-.031 4.092-.031 4.217-.354 4.893-.354.8-1.228 1.668-2.12 2.06l-.618.29-17.211.035c-13.312.017-17.328-.018-17.81-.147zm34.825-3.182c.176-.09.44-.373.568-.658.246-.48.246-.521 0-.996-.127-.271-.393-.57-.568-.664-.412-.195-2.994-.227-3.563-.012-.494.16-.813.64-.813 1.19 0 .529.176.87.617 1.1.482.272 3.277.29 3.76.058l-.001-.018zm-35.145-8.613c-.66-.248-1.426-.818-1.887-1.422-.766-1.021-.836-1.48-.836-5.855v-3.932l.268.497c.32.605.94 1.083 1.654 1.282.748.213 36.582.213 37.328 0 .717-.2 1.334-.676 1.678-1.282l.246-.497-.02 4.18c-.031 3.969-.05 4.214-.318 4.8-.391.843-1.102 1.589-1.867 1.98l-.641.338-17.601.019c-12.19.018-17.74-.02-18.005-.123v.015zm34.912-3.041c.605-.16.94-.641.94-1.298 0-.361-.091-.557-.428-.854l-.44-.393-1.8.053c-1.762.035-1.782.035-2.1.41-.433.498-.433 1.156.019 1.67.178.214.465.429.625.46.6.112 2.7.077 3.184-.048zm-34.574-8.648c-.691-.196-1.3-.713-1.477-1.265-.336-1.035-.195-1.37 3.594-8.968 3.574-7.118 3.629-7.225 4.5-8.097.98-.961 2.06-1.584 3.29-1.905 1.196-.32 14.08-.32 15.249-.017 1.195.32 2.314.96 3.295 1.92.875.855.906.944 4.5 8.116l3.63 7.242.02.89c.02 1.033-.23 1.44-1.064 1.887-.517.285-.606.285-17.793.302-11.212.019-17.443-.034-17.744-.105z" fill="#fff"/></g><defs><clipPath id="clip0_227_30586"><path fill="#fff" d="M0 0h106v106H0z"/></clipPath></defs></svg>