<svg width="107" height="106" fill="none" xmlns="http://www.w3.org/2000/svg"><path d="M53.074 0c29.271 0 53 23.729 53 53s-23.729 53-53 53c-29.27 0-53-23.729-53-53s23.73-53 53-53z" fill="#C392B0"/><path d="M46.43 30.859l2.825-2.885 20.32 5.479-4.981 5.893 14.14 12.363-5.056 5.691 2.09 19.994-28.307 28.307-.026-.002C23.743 103.194 4.712 85.079.813 61.831l36.323-36.322 9.294 5.35z" fill="#B47DA0"/><path d="M69.629 33.562l-.012-5.916c-.012-2.244-1.59-3.139-3.533-2.016l-7.434 4.32c-1.08-1.988-3.121-3.396-5.551-3.391-2.418.029-4.451 1.422-5.516 3.438l-7.463-4.271c-1.951-1.109-3.521-.186-3.51 2.035l.018 5.801h33zM55.746 77.31h20.07V56.224h-20.07V77.31zm0-39.654v13.906h22.902V37.656H55.746zm-28.16 13.906h22.916V37.656H27.586v13.906zM30.43 77.31h20.072V56.224H30.43V77.31z" fill="#fff"/></svg>