<svg width="107" height="106" fill="none" xmlns="http://www.w3.org/2000/svg"><path d="M106.205 52.99c0 29.271-23.738 53.01-53.004 53.01C23.928 106 .207 82.262.207 52.99.207 23.72 23.928 0 53.201 0c29.266 0 53.004 23.72 53.004 52.99z" fill="#6E7CBC"/><path d="M52.729 28.027h.08v.018c1.083 0 2.328.765 2.775 1.761.553 1.226.27 2.672-.64 3.56l-1.106 1.102c.039.231.146.605.324 1.228.393 1.386.64 2.26.869 3.094.123.41.3 1.103.428 1.551.125.426.266.923.305 1.083.033.164.139.5.213.747.072.27.16.624.213.84.035.194.086.39.12.426.022.056.132.408.235.82.232.834.588 2.096.783 2.774.074.265.16.588.195.711.039.141.123.48.213.766.068.268.16.606.197.746.036.142.143.465.215.711a9.8 9.8 0 01.194.766l9.927-9.927c.465-.444 1.069-.605 1.69-.427a1.757 1.757 0 01.78 2.921l-1.475 1.493a45.25 45.25 0 00-.104 1.367c-.057.785-.13 1.958-.178 2.601-.215 3.187-.271 3.95-.324 5.194a61.34 61.34 0 01-.16 2.352c-.16 1.828-.178 2.881-.055 2.881.055 0 .43-.268 1.305-.94l9.96-9.967c.34-.336.714-.479 1.23-.479 1.015 0 1.689.67 1.71 1.727v.14c-.006.423-.053.52-.271.82-.092.106-.178.216-.271.303l-2.985 2.986c-.021.02-.021.02-.021.037-.067.143-.141.307-.141.354 0 .04-.092.271-.195.521-.106.23-.604 1.422-1.104 2.612-.5 1.195-.922 2.261-.96 2.35-.141.323-.766 1.937-.978 2.472-.121.305-.25.625-.281.715-.035.086-.195.461-.344.834-.121.373-.281.748-.316.84-.037.086-.178.428-.301.746-.127.318-.271.713-.342.834-.052.145-.144.393-.216.557-.051.158-.141.406-.19.55-.055.125-.183.411-.25.62-.092.214-.18.447-.232.54a85.8 85.8 0 01-.605 1.596c-.442 1.16-.604 1.586-.764 1.746l-2.03 2.026c.466.056.889.127 1.282.16l1.297-1.299h.59c.57 0 .586.018.586.215 0 .11-.055.305-.123.428-.18.355-1.317 3.238-1.428 3.611-.031.105-.066.197-.14.252l-28.022 28.041a53.005 53.005 0 01-40.96-35.558l21.317-21.32c.305-.3.729-.46 1.227-.46.713 0 1.178.265 1.582.943.109.16.148.338.127.71l8.609-8.61c.129-.146.285-.25.482-.36.785-.404 1.725-.05 2.22.605l12.12-12.116a3.092 3.092 0 011.962-.925.726.726 0 01.15-.016z" fill="#606DA6"/><path d="M34.69 77.64c-.068-.179-.195-.466-.264-.66-.074-.179-.178-.447-.234-.59-.055-.122-.354-.888-.66-1.669-.316-.785-.604-1.496-.635-1.57-.057-.067-.092-.243-.092-.354 0-.215 0-.215.604-.197l.588.037.16.41c.104.23.213.496.252.588.225.605.369.924.422.994.055.072.734-.014 2.369-.32.602-.123 1.014-.176 2.723-.428 2.953-.404 3.914-.518 6.619-.693a39.939 39.939 0 001.6-.14c.107-.036 1.799-.11 3.772-.16 3.416-.09 9.806 0 10.75.16.196.017.908.085 1.6.122 2.277.16 3.742.307 5.234.514.567.074 1.85.232 2.138.271.178.018.354-.27.655-1.035l.142-.338h.59c.569 0 .586.018.586.215 0 .11-.055.305-.123.428-.178.373-1.318 3.238-1.428 3.611-.104.357-.281.428-.888.338a114.653 114.653 0 00-5.354-.604c-1.3-.123-2.064-.18-5.25-.373-1.742-.107-8.484-.107-10.21 0-.731.036-1.944.127-2.672.157-1.191.074-1.904.146-4.695.41-.41.058-1.035.13-1.391.178-.336.037-.943.128-1.336.18-.961.126-2.223.32-2.652.41-.195.054-.461.09-.584.09-.11 0-.428.05-.68.103a8.597 8.597 0 01-.992.18l-.52.056-.144-.322zm-.037-5.43c-.088-.216-.18-.429-.18-.48a.986.986 0 00-.064-.214c-.074-.14-.553-1.315-1-2.455-.104-.287-.23-.604-.268-.709a13.025 13.025 0 01-.336-.84c-.141-.354-.301-.746-.338-.838-.035-.086-.123-.318-.195-.496-.287-.729-.82-2.1-.887-2.26-.04-.092-.164-.41-.287-.71-.213-.57-.766-1.96-1.105-2.817a6.72 6.72 0 01-.193-.55c0-.032-.105-.265-.213-.515a121.92 121.92 0 01-1.178-2.828 226.973 226.973 0 01-1.084-2.635 5.566 5.566 0 01-.213-.496c-.057-.146-.16-.377-.217-.519a6.686 6.686 0 01-.244-.569c-.232-.569-.305-.766-.373-.887-.057-.092-.195-.123-.518-.123-.891-.02-.965-.039-1.373-.395-.496-.445-.621-.713-.621-1.314 0-1.07.676-1.764 1.709-1.764.693 0 1.176.266 1.58.943.127.195.148.355.109.834-.018.34-.053.695-.09.818-.068.252-.32.037 3.936 3.378 2.559 2.015 3.875 3.063 5.71 4.525.62.496 1.169.887 1.24.887.124 0 .124-.09.089-.567-.068-.693-.191-2.763-.301-4.787-.055-.852-.104-1.637-.123-1.764-.037-.12-.09-.887-.13-1.725-.155-3.165-.261-4.624-.351-5.513l-.107-.912-.48-.158c-1.545-.517-1.727-2.529-.283-3.277 1.174-.6 2.723.465 2.525 1.764-.072.463-.164.624-.568 1.065l-.322.341.678 1.207c.375.68.797 1.444.96 1.71.247.446 2.44 4.394 2.868 5.161.19.336.62 1.12.926 1.653.3.557.53.998 1.12 2.031.302.533.606 1.104.71 1.281.213.41.39.375.514-.105.057-.215.148-.588.217-.838l.355-1.264c.25-.928.566-2.099.766-2.758.07-.25.158-.57.195-.71.035-.144.127-.483.213-.749.232-.855.484-1.78.625-2.313.037-.16.14-.498.213-.748.068-.268.16-.604.215-.765.03-.159.123-.499.197-.747.178-.587.316-1.086.582-2.046.268-.997.606-2.24.766-2.81.176-.625.285-.98.373-1.334.037-.183.195-.716.342-1.23a28.17 28.17 0 00.318-1.212c.055-.159.143-.495.213-.747.068-.265.18-.602.217-.766.035-.16.123-.496.195-.748.176-.587.176-.747 0-.747-.43 0-1.514-1.048-1.781-1.726-.766-1.955.57-4.09 2.67-4.286 1.155-.11 2.526.691 3.005 1.761.69 1.533.072 3.363-1.402 4.11-.484.25-.484.141-.02 1.761.393 1.386.64 2.278.869 3.112.104.41.3 1.103.428 1.551.125.426.266.923.305 1.083.033.165.139.5.213.747.072.25.16.624.213.82.035.214.086.411.12.447.022.035.132.408.235.82.232.834.588 2.096.783 2.773.074.265.16.588.195.711.039.141.123.48.215.767.066.267.158.605.195.745.036.142.143.465.215.711.067.252.158.625.213.822.03.194.088.391.104.427.019.034.144.427.27.888.228.821.423 1.548.675 2.47.072.253.178.625.252.841.195.711.549 1.973.6 2.225.074.285.27.318.39.091.059-.109.217-.392.362-.644.14-.25.355-.644.479-.869.143-.23.409-.733.622-1.09.197-.373.48-.89.619-1.14.216-.407.84-1.51 1.23-2.22.092-.125.27-.483.43-.748.142-.287.336-.625.41-.748.086-.139.264-.482.422-.764.146-.27.342-.605.43-.748.093-.14.23-.428.337-.643.409-.746 2.35-4.218 2.438-4.322.057-.074.038-.16-.05-.3-.59-.82-.606-.82-.59-1.444 0-.516.037-.639.252-.963.442-.656 1.188-.944 1.918-.71 1.78.57 1.688 3.025-.142 3.417l-.461.086-.057.427c-.035.234-.09 1.072-.14 1.851-.056.784-.128 1.958-.177 2.601-.215 3.186-.271 3.95-.324 5.194a59.5 59.5 0 01-.16 2.33c-.16 1.85-.178 2.901-.055 2.901.092 0 .943-.66 4.238-3.272.907-.714 2.082-1.638 2.596-2.048 4.15-3.236 4.328-3.416 4.023-3.593-.144-.107-.107-1.277.053-1.548.412-.659.87-.925 1.586-.925 1.029 0 1.709.692 1.709 1.777 0 .482-.04.588-.271.908-.496.64-.996.873-1.743.766-.431-.053-.48-.018-.712.57-.071.196-.231.57-.336.815-.13.232-.217.484-.217.52 0 .085-.035.16-.27.656a1.038 1.038 0 00-.14.354c0 .04-.092.271-.195.521-.123.23-.604 1.422-1.104 2.612-.502 1.195-.924 2.26-.961 2.35a73.547 73.547 0 00-.98 2.472c-.121.305-.25.625-.281.715-.053.085-.191.46-.338.833-.143.357-.283.748-.317.84-.054.086-.18.428-.302.746-.127.318-.27.713-.342.834-.051.145-.158.393-.213.557a5.952 5.952 0 01-.211.55 8.435 8.435 0 00-.232.62 9.772 9.772 0 00-.231.54c-.035.103-.317.812-.604 1.598-.765 1.977-.676 1.831-1.226 1.831-.252 0-.963-.067-1.586-.159-.625-.07-1.438-.179-1.813-.213-.36-.033-1.018-.105-1.465-.144-.438-.055-1.313-.123-1.971-.178-.641-.055-1.69-.14-2.332-.197-1.691-.139-10.447-.195-12.226-.065-.78.05-1.954.141-2.614.178-1.05.067-2.672.21-4.613.406-.355.034-1.12.143-1.67.213-.551.073-1.248.16-1.553.215-.656.072-1.71.25-3.25.533-.391.071-.893.146-1.107.178l-.391.054-.177-.39z" fill="#fff"/></svg>